<svg xmlns="http://www.w3.org/2000/svg" viewBox="0 0 249.75999 96.626663" height="96.627" width="249.76"><path d="M104.505 96.627H30.081V22.194h74.424v74.433" fill="#d3d2d2"/><path d="M138.407 36.58c-7.066 0-13.384 3.211-17.568 8.252-4.19-5.04-10.51-8.251-17.57-8.251-12.616 0-22.837 10.225-22.837 22.838v22.89h10.593v-22.89c0-6.763 5.483-12.243 12.243-12.243 6.761 0 12.242 5.48 12.242 12.243v22.89h10.594v-22.89h.06c0-6.763 5.483-12.243 12.243-12.243 6.762 0 12.24 5.48 12.24 12.243v22.89h10.596v-22.89c0-12.613-10.224-22.838-22.836-22.838m-66.565-.058H61.25v10.595h10.592zm0 35.177V51.23H61.25V71.7H22.836c-6.76 0-12.242-5.478-12.242-12.242 0-6.76 5.483-12.243 12.242-12.243h25.368V36.623H22.836C10.229 36.623 0 46.845 0 59.458 0 72.07 10.229 82.294 22.836 82.294h49.035V71.7h-.029m129.221-6.206a12.23 12.23 0 0 1-10.67 6.245c-6.762 0-12.244-5.478-12.244-12.242V47.23h15.506V36.635h-15.506V-.001h-10.592v59.498c0 12.612 10.223 22.838 22.836 22.838 7.495 0 14.15-3.615 18.316-9.196l-7.646-7.645m41.049 0a12.234 12.234 0 0 1-10.673 6.245c-6.759 0-12.239-5.478-12.239-12.242V47.23h15.507V36.635H219.2V-.001h-10.596v59.498c0 12.612 10.224 22.838 22.835 22.838 7.498 0 14.154-3.615 18.316-9.196l-7.643-7.645" fill="#203261"/><path d="M104.505 96.627H30.081V22.194h74.424v74.433" fill="#d3d2d2"/><path d="M138.407 36.58c-7.066 0-13.384 3.211-17.568 8.252-4.19-5.04-10.51-8.251-17.57-8.251-12.616 0-22.837 10.225-22.837 22.838v22.89h10.593v-22.89c0-6.763 5.483-12.243 12.243-12.243 6.761 0 12.242 5.48 12.242 12.243v22.89h10.594v-22.89h.06c0-6.763 5.483-12.243 12.243-12.243 6.762 0 12.24 5.48 12.24 12.243v22.89h10.596v-22.89c0-12.613-10.224-22.838-22.836-22.838m-66.565-.058H61.25v10.595h10.592zm0 35.177V51.23H61.25V71.7H22.836c-6.76 0-12.242-5.478-12.242-12.242 0-6.76 5.483-12.243 12.242-12.243h25.368V36.623H22.836C10.229 36.623 0 46.845 0 59.458 0 72.07 10.229 82.294 22.836 82.294h49.035V71.7h-.029m129.221-6.206a12.23 12.23 0 0 1-10.67 6.245c-6.762 0-12.244-5.478-12.244-12.242V47.23h15.506V36.635h-15.506V-.001h-10.592v59.498c0 12.612 10.223 22.838 22.836 22.838 7.495 0 14.15-3.615 18.316-9.196l-7.646-7.645m41.049 0a12.234 12.234 0 0 1-10.673 6.245c-6.759 0-12.239-5.478-12.239-12.242V47.23h15.507V36.635H219.2V-.001h-10.596v59.498c0 12.612 10.224 22.838 22.835 22.838 7.498 0 14.154-3.615 18.316-9.196l-7.643-7.645" fill="#203261"/></svg>