<?xml version="1.0" encoding="UTF-8" standalone="no"?>
<svg
   xmlns:dc="http://purl.org/dc/elements/1.1/"
   xmlns:cc="http://creativecommons.org/ns#"
   xmlns:rdf="http://www.w3.org/1999/02/22-rdf-syntax-ns#"
   xmlns:svg="http://www.w3.org/2000/svg"
   xmlns="http://www.w3.org/2000/svg"
   viewBox="0 0 249.75999 96.626663"
   height="96.626663"
   width="249.75999"
   xml:space="preserve"
   id="svg2"
   version="1.1"><metadata
     id="metadata8"><rdf:RDF><cc:Work
         rdf:about=""><dc:format>image/svg+xml</dc:format><dc:type
           rdf:resource="http://purl.org/dc/dcmitype/StillImage" /></cc:Work></rdf:RDF></metadata><defs
     id="defs6" /><g
     transform="matrix(1.3333333,0,0,-1.3333333,0,96.626667)"
     id="g10"><g
       transform="scale(0.1)"
       id="g12"><path
         id="path14"
         style="fill:#d3d2d2;fill-opacity:1;fill-rule:nonzero;stroke:none"
         d="m 783.789,0 h -558.18 v 558.242 h 558.18 V 0" /><path
         id="path16"
         style="fill:#203261;fill-opacity:1;fill-rule:nonzero;stroke:none"
         d="m 1038.05,450.344 c -52.991,0 -100.374,-24.078 -131.761,-61.887 -31.426,37.809 -78.824,61.887 -131.777,61.887 -94.614,0 -171.27,-76.688 -171.27,-171.285 V 107.383 h 79.446 v 171.676 c 0,50.722 41.121,91.824 91.824,91.824 50.707,0 91.816,-41.102 91.816,-91.824 V 107.383 h 79.453 v 171.676 h 0.449 c 0,50.722 41.125,91.824 91.82,91.824 50.72,0 91.8,-41.102 91.8,-91.824 V 107.383 h 79.47 v 171.676 c 0,94.597 -76.68,171.285 -171.27,171.285" /><path
         id="path18"
         style="fill:#203261;fill-opacity:1;fill-rule:nonzero;stroke:none"
         d="m 538.816,450.777 h -79.441 v -79.461 h 79.441 z m 0,-263.824 V 340.477 H 459.375 V 186.953 H 171.27 c -50.696,0 -91.813,41.082 -91.813,91.809 0,50.707 41.117,91.824 91.813,91.824 h 190.257 v 79.441 H 171.27 C 76.7148,450.027 0,373.359 0,278.762 0,184.176 76.7148,107.496 171.27,107.496 h 367.761 v 79.457 h -0.215" /><path
         id="path20"
         style="fill:#203261;fill-opacity:1;fill-rule:nonzero;stroke:none"
         d="m 1507.97,233.496 c -15.73,-27.961 -45.67,-46.84 -80.02,-46.84 -50.72,0 -91.83,41.086 -91.83,91.813 v 92.008 h 116.29 v 79.461 h -116.29 v 274.769 h -79.44 V 278.469 c 0,-94.586 76.67,-171.285 171.27,-171.285 56.21,0 106.12,27.113 137.37,68.976 l -57.35,57.336" /><path
         id="path22"
         style="fill:#203261;fill-opacity:1;fill-rule:nonzero;stroke:none"
         d="m 1815.84,233.496 c -15.74,-27.961 -45.68,-46.84 -80.05,-46.84 -50.69,0 -91.79,41.086 -91.79,91.813 v 92.008 h 116.3 v 79.461 H 1644 v 274.769 h -79.47 V 278.469 c 0,-94.586 76.68,-171.285 171.26,-171.285 56.24,0 106.16,27.113 137.37,68.976 l -57.32,57.336" /><path
         id="path24"
         style="fill:#d3d2d2;fill-opacity:1;fill-rule:nonzero;stroke:none"
         d="m 783.789,0 h -558.18 v 558.242 h 558.18 V 0" /><path
         id="path26"
         style="fill:#203261;fill-opacity:1;fill-rule:nonzero;stroke:none"
         d="m 1038.05,450.344 c -52.991,0 -100.374,-24.078 -131.761,-61.887 -31.426,37.809 -78.824,61.887 -131.777,61.887 -94.614,0 -171.27,-76.688 -171.27,-171.285 V 107.383 h 79.446 v 171.676 c 0,50.722 41.121,91.824 91.824,91.824 50.707,0 91.816,-41.102 91.816,-91.824 V 107.383 h 79.453 v 171.676 h 0.449 c 0,50.722 41.125,91.824 91.82,91.824 50.72,0 91.8,-41.102 91.8,-91.824 V 107.383 h 79.47 v 171.676 c 0,94.597 -76.68,171.285 -171.27,171.285" /><path
         id="path28"
         style="fill:#203261;fill-opacity:1;fill-rule:nonzero;stroke:none"
         d="m 538.816,450.777 h -79.441 v -79.461 h 79.441 z m 0,-263.824 V 340.477 H 459.375 V 186.953 H 171.27 c -50.696,0 -91.813,41.082 -91.813,91.809 0,50.707 41.117,91.824 91.813,91.824 h 190.257 v 79.441 H 171.27 C 76.7148,450.027 0,373.359 0,278.762 0,184.176 76.7148,107.496 171.27,107.496 h 367.761 v 79.457 h -0.215" /><path
         id="path30"
         style="fill:#203261;fill-opacity:1;fill-rule:nonzero;stroke:none"
         d="m 1507.97,233.496 c -15.73,-27.961 -45.67,-46.84 -80.02,-46.84 -50.72,0 -91.83,41.086 -91.83,91.813 v 92.008 h 116.29 v 79.461 h -116.29 v 274.769 h -79.44 V 278.469 c 0,-94.586 76.67,-171.285 171.27,-171.285 56.21,0 106.12,27.113 137.37,68.976 l -57.35,57.336" /><path
         id="path32"
         style="fill:#203261;fill-opacity:1;fill-rule:nonzero;stroke:none"
         d="m 1815.84,233.496 c -15.74,-27.961 -45.68,-46.84 -80.05,-46.84 -50.69,0 -91.79,41.086 -91.79,91.813 v 92.008 h 116.3 v 79.461 H 1644 v 274.769 h -79.47 V 278.469 c 0,-94.586 76.68,-171.285 171.26,-171.285 56.24,0 106.16,27.113 137.37,68.976 l -57.32,57.336" /></g></g></svg>