<svg xmlns="http://www.w3.org/2000/svg" viewBox="0 0 3779.5332 1889.76" height="1889.76" width="3779.533"><defs><clipPath id="a"><path d="M0 1417.32h2834.65V0H0z"/></clipPath></defs><g clip-path="url(#a)" transform="matrix(1.33333 0 0 -1.33333 0 1889.76)"><path d="M1234.214 694.822c18.75-43.573 50.045-76.994 86.536-105.997 77.59-61.671 167.372-98.546 261.005-127.413 70.846-21.843 143.334-36.425 216.583-47.012 44.483-6.429 89.315-10.358 134.173-13.574-3.415-4.934-8.584-2.943-13.038-3.027-13.655-.259-27.317-.134-40.976-.158-169.06 5.367-333.74 33.266-491.58 95.989-36.02 14.312-70.732 31.406-103.954 51.456-3.585 2.163-7.573 3.661-11.374 5.466-4.823 3.83-9.434 7.969-14.506 11.432-23.556 16.083-45.733 33.763-66.323 53.589-22.219 21.395-38.379 47.14-54.882 72.728-6.92 21.022-14.783 41.5-16.527 64.201-2.692 35.03 5.018 67.19 20.974 97.755 24.698 47.309 62.754 82.344 105.57 112.697 75.746 53.699 160.89 87.078 249.078 113.315 76.684 22.813 155.174 37.583 234.48 47.423 48.335 5.996 96.881 10.9 145.727 10.856 9.968-.076 19.977.385 29.89-.384 9.107-.706 18.801 3.477 27.307-2.872-158.257-11.05-313.156-37.893-460.24-99.998-67.83-28.64-131.2-64.881-184.203-117.029-14.387-14.155-27.222-29.792-37.982-46.936-4.43-7.058-10.28-13.71-9.9-22.929-2.495-2.671-6.025-4.914-7.329-8.075-19.524-47.327-21.719-94.577 1.491-141.503" fill="#30a5de"/><path d="M2028.966 676.238c.39 12.818-.294 25.468-5.58 37.441-5.774 13.08-14.072 19.486-24.913 18.631-12.17-.96-19.463-8.702-22.664-19.462-7.126-23.948-7.462-48.077 1.336-71.843 3.785-10.224 10.36-17.026 22.113-17.489 12.469-.491 19.762 6.376 24.43 16.826 5.103 11.418 5.686 23.617 5.278 35.896m61.546-6.317c-.842-25.041 1.542-55.868-1.134-86.61-4.016-46.137-31.704-74.912-77.921-79.901-28.72-3.1-57.227-.601-85.203 7.084-6.046 1.661-10.488 3.233-9.46 11.431 1.447 11.538-3 27.491 3.1 33.827 7.403 7.688 19.597-5.642 30.43-7.642 13.09-2.416 26.049-4.859 39.447-3.664 22.156 1.975 34.785 13.352 38.787 35.223.763 4.175 1.504 8.373 1.91 12.592.482 5.005 3.109 12.18-1.218 14.356-3.95 1.987-6.453-5.534-9.732-8.658-28.527-27.171-78.406-18.84-98.39 17.027-14.02 25.163-14.79 52.744-12.486 80.528 1.275 15.391 4.724 30.372 12.098 44.177 21.458 40.174 73.426 47.042 104.528 13.855 1.718-1.833 2.849-5.659 5.633-4.741 3.635 1.2 2.508 5.443 2.319 8.243-.79 11.66 3.95 15.646 15.75 14.502 13.646-1.323 31.699 4.44 40.078-2.392 8.936-7.284.672-25.725 1.27-39.337.79-18.022.194-36.106.194-59.9m-279.092 7.607c-1.705 13.474-1.99 27.313-8.712 39.813-4.816 8.958-11.568 15.176-22.33 15.027-10.738-.149-18.384-6.106-21.834-15.616-9.5-26.194-9.82-52.589 1.11-78.62 3.795-9.04 10.376-14.351 20.6-14.597 10.673-.257 17.976 4.617 22.903 13.888 6.679 12.562 6.91 26.337 8.264 40.105m60.896 6.396c-2.053-40.228 1.91-72.699-2.421-104.914-6.01-44.688-32.428-70.755-76.962-75.585-28.72-3.115-57.215-.495-85.275 6.826-7.276 1.898-10.516 4.796-9.394 12.967 1.294 9.413 1.387 19.059 1.182 28.585-.193 9.011 4.09 7.446 9.495 5.006 17.588-7.936 35.852-13.122 55.33-12.828 33.073.5 55.038 28.457 47.792 60.704-.216.963-.347 2.463-.952 2.73-2.608 1.151-3.65-1.234-4.813-2.762-9.87-12.95-22.893-20.293-39.052-21.923-32.644-3.293-59.068 11.773-70.01 42.984-12.883 36.748-12.814 74.387 3.054 110.299 19.657 44.491 75.584 52.132 107.47 15.742 1.576-1.799 2.33-5.857 5.512-4.012 1.346.781 1.023 4.673 1.216 7.169 1.274 16.37 1.252 16.375 17.659 16.386 10.09.007 20.219-.532 30.262.163 8.829.61 10.282-2.935 10.122-11.015-.556-28.13-.215-56.278-.215-76.522m-736.439 4.378c16.503-25.59 32.663-51.334 54.882-72.73 20.59-19.826 42.767-37.505 66.323-53.588 5.073-3.463 9.683-7.603 14.506-11.432 25.95-37.942 60.783-66.488 98.552-91.553 77.202-51.235 162.533-84.064 251.236-108.87 113.452-31.727 229.36-47.918 346.795-54.338 3.532-.193 7.443 1.498 10.567-1.594-3.475-2.941-7.624-1.458-11.433-1.52-40.886-.66-81.734 1.164-122.485 3.888-105.571 7.056-209.948 22.156-312.156 50.182-95.053 26.065-186.62 60.414-268.454 116.844-47.788 32.952-89.705 71.64-114.366 125.54-14.39 31.45-21.041 64.466-13.967 99.17m363.907 20.386c.001 37.71.33 75.426-.216 113.129-.146 10.163 2.296 13.663 13.12 13.504 43.543-.635 87.104-.492 130.654-.078 9.027.086 11.592-2.617 11.714-11.65.447-33.09.798-33.084-31.639-33.084-16.996 0-33.999-.282-50.987.126-7.723.186-11.748-1.463-11.244-10.371.81-14.286-4.716-32.762 2.303-41.821 7.49-9.665 26.838-2.476 40.981-3.162 12.188-.591 24.431-.342 36.64-.047 6.084.147 8.998-2.014 8.417-8.234-.05-.527-.03-1.064.002-1.593 2.116-34.796 2.116-34.796-32.519-34.796-14.872 0-29.756-.357-44.61.14-8.095.272-11.515-2.163-11.204-10.707a583.62 583.62 0 0 0-.01-43.012c-.292-7.798 2.448-9.938 10.036-9.813 25.49.42 50.995-.2 76.478.348 8.882.192 11.542-2.282 11.637-11.397.351-33.947.718-33.943-33.617-33.944-37.18 0-74.374.6-111.53-.34-12.54-.317-14.894 3.764-14.674 15.268.715 37.166.267 74.354.268 111.534" fill="#303284"/><path d="M1234.214 694.822c-23.21 46.926-21.015 94.176-1.49 141.503 1.303 3.161 4.833 5.404 7.328 8.075 73.5 56.959 157.38 92.993 245.234 120.586 120.971 37.995 245.261 57.409 371.652 64.569 35.975 2.038 71.93 4.118 107.98 2.396a2.645 2.645 0 0 1-.139-2.198c-109.35-6.403-217.518-20.817-323.577-48.836-92.115-24.335-180.912-56.884-261.905-108.244-24.725-15.679-48.037-33.217-69.292-53.325-36.546-34.574-64.532-74.495-75.79-124.526m980.356-1.131c7.943 0 15.888-.053 23.83.026 3.068.031 6.077-.26 7.27 4.065 2.251 8.168-4.438 28.865-12.229 34.773-9.676 7.338-20.3 8.561-31.335 3.153-11.302-5.538-14.378-16.41-16.592-27.357-2.774-13.723-1.898-14.499 11.581-14.673 5.825-.075 11.65-.01 17.475.013m28.455-31.77c-16.444 0-32.902-.405-49.327.164-8.567.295-10.114-2.975-7.965-10.307 4.92-16.775 15.636-27.36 32.867-30.83 21.073-4.245 41.083.09 60.375 8.464 7.678 3.333 12.95 4.461 11.39-6.949-.5-3.645-.123-7.417-.069-11.128.332-22.795.39-23.048-22.488-27.729-27.334-5.593-54.588-6.445-81.747 1.837-23.229 7.085-40.434 21.142-49.67 43.461-15.556 37.6-14.27 74.738 8.188 109.344 19.858 30.6 57.71 42.846 97.34 33.316 32.95-7.923 52.82-31.747 57.903-69.42 5.427-40.224 5.427-40.224-34.519-40.224h-22.278m292.177-82.064c-17.07-.532-33.777 1.992-50.464 5.497-7.582 1.593-11.71 4.246-10.122 12.487.197 1.026.011 2.121.046 3.183.315 9.541-2.997 22.38 1.895 27.777 5.95 6.565 16.28-3.8 25.08-5.61 12.713-2.616 25.226-3.348 37.916-1.759 7.064.885 13.456 3.375 15.124 11.74 1.85 9.277-4.818 12.038-11.26 14.69-12.246 5.04-24.96 9.06-36.872 14.774-30.749 14.752-43.224 48.537-28.68 77.474 11.467 22.82 32.326 31.254 56.096 33.504 19.102 1.807 38.145.01 57.054-3.54 8.617-1.618 12.95-4.74 11.445-14.609-1.509-9.896 2.448-23.18-2.722-29.192-4.546-5.289-16.879 4.037-26.162 5.311-8.973 1.231-17.94 2.056-26.98 1.165-7.344-.723-13.898-3.37-15.653-11.199-1.834-8.18 3.602-12.982 10.321-15.85 11.684-4.99 23.613-9.412 35.408-14.149 27.061-10.867 38.711-29.536 36.522-58.416-2.362-31.177-22.515-49.517-58.89-53.188-6.306-.636-12.732-.09-19.102-.09M2337.114 683.38c-.762 22.77 1.442 50.353-1.156 77.838-.676 7.144.46 10.917 8.83 10.219 7.895-.66 15.888-.138 23.84-.138 21.608.002 21.561-.002 23.284-20.924.187-2.288-1.444-5.956 2.255-6.484 2.943-.421 4.024 2.94 5.348 5.063 11.114 17.8 27.095 25.926 48.05 25.199 6.203-.216 9.991-.92 9.664-8.53-.5-11.638-.412-23.324-.017-34.971.246-7.26-2.702-9.257-9.489-8.257-4.679.689-9.532.69-14.27.397-16.937-1.05-27.457-9.525-32.13-25.784-2.352-8.185-3.259-16.55-3.195-25.118.195-25.97-.207-51.947.23-77.91.14-8.312-1.223-12.58-10.973-11.961-13.198.834-26.509.662-39.73.045-8.333-.39-10.85 2.377-10.717 10.695.457 28.613.176 57.239.176 90.62" fill="#303284"/><path d="M323.366 771.719c-3.497-16.427-6.798-32.898-10.604-49.252-1.205-5.18-.673-11.795-9.33-12.394-11.093-.77-13.156.938-10.88 11.974 5.019 24.322 10.465 48.564 14.973 72.98 1.94 10.503 8.063 11.556 16.902 11.429 8.633-.124 15.162-.413 16.427-11.54 1.609-14.15 4.765-28.128 7.368-42.16.3-1.618-.503-4.127 2.173-4.375.305-.03.976 2.754 1.3 4.27 3.213 14.98 7.034 29.87 9.356 44.988 1.649 10.746 8.89 8.692 15.418 8.448 10.467-.393 4.55-7.641 3.799-11.471-4.874-24.883-11.144-49.52-15.24-74.52-2.281-13.928-11.652-8.723-19.08-9.926-9.321-1.511-11.871 4.166-13.01 11.716-2.497 16.559-5.1 33.1-7.658 49.65l-1.914.183m216.084-.741c.077 10.028 1.179 17.49-8.464 19.172-9.654 1.683-12.708-3.36-14.105-12.23-2.124-13.485-5.897-26.703-8.513-40.123-.728-3.736-3.176-9.004 2.138-11.16 4.362-1.77 9.354-1.485 13.47 1.895 3.366 2.763 5.85 6.219 6.993 10.349 3.222 11.643 6.188 23.356 8.482 32.097m-14.615 35.262c34.145-.033 38.804-5.371 34.138-39.174-.504-3.657-.958-7.34-1.783-10.931-9.57-41.67-25.79-52.437-68.221-46.051-5.906.889-7.06 3.348-5.96 8.342 5.789 26.308 11.83 52.565 17.198 78.959 1.498 7.366 5.048 9.57 11.92 8.925 4.202-.394 8.47-.073 12.708-.07m-275.002-98.363c-20.96-.276-31.155 10.258-28.11 30.604 2.5 16.696 5.172 33.568 12.418 49.063 7.946 16.993 28.083 25.164 45.475 19.054 10.68-3.752 15.856-13.044 13.448-23.621-1.43-6.281-5.12-8.494-11.418-8.273-5.918.207-10.704.64-9.898 8.48.398 3.874-.435 7.956-4.688 9.026-4.739 1.194-8.442-2.034-10.435-5.748-9.179-17.108-11.93-35.897-13.103-54.947-.247-3.997 2.398-7.1 6.613-7.72 5.876-.865 9.59 3.17 10.433 7.777 1.954 10.659 8.818 11.487 17.45 10.954 6.175-.381 6.607-3.066 5.226-8.3-4.303-16.307-16.474-26.125-33.41-26.35m133.543 26.491c2.005 16.824 4.805 33.593 10.798 49.474 6.213 16.463 21.61 25.68 38.781 24.74 15.155-.83 21.82-8.534 21.09-23.632-.292-6.037-1.299-10.405-8.735-10.174-6.067.19-12.19-.438-11.315 8.72.376 3.93-.783 7.894-5.08 8.722-4.552.877-8.57-1.713-10.524-5.634-8.626-17.323-12.834-35.89-12.506-55.14.134-7.892 7.818-10.088 13.67-4.658 3.204 2.976 3.798 7.471 5.736 11.157 4.311 8.203 12.535 5.217 18.333 3.603 6.056-1.684 1.05-7.419-.016-10.704-6.192-19.073-27.694-28.417-46.446-20.797-11.076 4.501-14.467 13.176-13.786 24.323m583.603-1.302c.023-4.888-.747-9.249 3.968-10.375 4.203-1.003 6.96 1.926 8.38 5.585 3.62 9.328 6.198 18.936 6.702 28.996.162 3.226.088 6.64-3.87 7.523-3.52.788-6.158-1.268-7.69-4.21-4.689-8.994-5.83-18.958-7.49-27.519m14.56-22.869c-4.65 1.363-8.71.156-12.9-.668-15.25-2.997-20.875 1.504-20.942 16.7-.058 13.454 3.421 26.251 8.572 38.504 4.635 11.026 13.095 17.063 25.287 13.65 7.102-1.988 9.8-.067 10.876 6.631.755 4.694 2.518 9.247 3.044 13.951 1.011 9.051 7.608 7.122 13.18 7.143 7.518.028 6.89-5.478 5.958-10.107-5.318-26.458-10.852-52.872-16.46-79.27-2.274-10.695-11.049-4.97-16.616-6.534m-160.247-65.264c13.613 1.043 19.766-5.652 17.118-19.243-2.622-13.46-6.68-26.692-8.515-40.238-1.566-11.558-9.207-10.053-16.282-9.209-9.61 1.144-4.031 7.751-3.243 12.104 1.97 10.894 4.602 21.667 6.548 32.564.594 3.325 2.023 7.984-2.824 9.482-5.451 1.685-7.901-2.72-8.874-6.776-2.953-12.317-5.284-24.78-7.88-37.184-1.098-5.247-1.925-10.092-9.298-10.588-11.036-.742-13.089 1.015-10.794 12.118 4.912 23.775 9.867 47.541 14.918 71.287.861 4.05.95 8.973 4.552 11.41 4.08 2.76 9.46 2.123 13.846.708 5.753-1.856 2.61-7.042 2.474-10.91-.053-1.537-.86-3.038-1.248-4.574-2.095-8.273-3.374-15.857 9.503-10.95M708.83 776.946c4.136.844 8.26 2.322 12.411 2.406 10.085.201 16.283-6.424 14.535-16.246-2.688-15.109-6.417-30.029-9.445-45.081-2.037-10.128-9.7-8.38-16.19-7.435-8.09 1.177-3.856 7.18-3.082 11.263 2.07 10.921 4.57 21.76 6.833 32.645.846 4.07 2.785 9.201-3.244 10.405-4.956.989-7.485-3.032-8.505-7.562-2.786-12.387-5.376-24.82-8.31-37.172-1.03-4.34-.864-9.339-7.817-10.087-10.76-1.157-13.969 1.306-11.818 11.872 5.066 24.895 10.367 49.743 15.75 74.572 1.865 8.605 9.978 12.503 17.967 9.399 4.293-1.667 3.605-4.68 2.636-7.691-2.142-6.657-2.82-13.452-2.592-20.385-1.506-.609-2.264-1.417-.754-2.83l1.625 1.927m267.651-152.877c5.82 2.461 7.762 8.5 11.57 12.794 3.772 4.257 7.647 7.229 13.596 6.471 3.012-.384 7.027 1.217 8.738-1.794 1.934-3.404-1.612-5.961-3.813-7.867-15.322-13.262-18.068-28.343-8.385-46.324 1.266-2.351 7.91-9.568-1.225-10.807-5.86-.795-14.426-4.713-17.856 4.694-2.883 7.907-4.814 16.161-7.167 24.262-5.573-7.262-4.118-16.683-7.596-24.634-3.376-7.717-9.886-4.866-15.12-4.439-6.817.558-4.325 6.119-3.524 9.882 5.405 25.369 11.553 50.593 16.33 76.076 2.03 10.824 8.656 10.781 16.074 9.253 8.382-1.725 4.177-8.425 3.371-12.891-2.058-11.397-6.66-22.369-5.353-34.299-2.217-.108-2.552-1.051-1.209-2.733l1.57 2.356m-586.914-47.915c-8.533-1.195-10.754 3.01-9.25 10.263 5.472 26.382 11.035 52.745 16.452 79.138.88 4.285 2.995 6.466 7.486 6.438 12.19-.076 24.383-.028 36.574-.027 4.336 0 7.116-1.405 6.59-6.503-.45-4.371-.62-8.792-6.551-8.964-5.297-.154-10.623-.43-15.894-.059-6.612.467-8.905-2.452-10.403-8.766-3.266-13.768-3.746-13.493 10.779-14.37 5.106-.308 12.535 2.841 12.53-7.18-.005-8.859-6.035-9.133-11.956-8.254-13.755 2.041-20.907-2.993-21.443-17.326-.196-5.208-1.993-10.355-3.04-15.534-1.35-6.671-4.758-10.539-11.874-8.856M848.39 710.295c-4.481 1.255-8.936-.31-13.64-1.302-15.1-3.184-22.4 4.18-19.371 19.055 2.64 12.971 6.11 25.811 7.996 38.885 1.494 10.35 7.65 11.55 15.793 10.511 11.287-1.44 4.267-8.649 3.569-13.172-1.61-10.448-4.312-20.723-6.14-31.144-.668-3.82-2.7-9.235 3.528-10.397 5.096-.95 7.539 2.926 8.49 7.484 2.595 12.442 4.935 24.94 7.717 37.337 1.136 5.062 2.199 10.064 9.737 10.18 8.72.133 13.167-1.664 10.71-11.588-3.306-13.352-6.178-26.82-8.885-40.309-3.218-16.03-3.057-16.063-19.504-15.54m-171.262-92.447c4.806-.126 9.052-.213 9.261 6.007.14 4.158-.962 7.952-5.365 8.18-6.356.328-9.386-4.384-10.105-9.96-.626-4.848 3.706-3.897 6.21-4.227m28.381 5.773c-.398-17.2-1.39-18.133-17.783-18.255-4.777-.037-9.555-.093-14.332-.08-4.689.01-6.588-2.614-6.788-6.959-.147-3.185-.689-6.888 2.416-8.669 3.777-2.166 7.155-.408 9.522 3.048.895 1.307 1.201 3.313 2.376 4.081 5.283 3.454 12.307 4.256 16.35.634 4.99-4.47-.638-9.768-3.707-13.528-7.928-9.71-29.29-13.036-39.794-6.59-6.65 4.081-8.679 10.751-7.928 17.92 1.102 10.516 2.665 21.055 6.884 30.893 6.907 16.111 26.481 23.67 42.677 16.911 9.818-4.098 10.85-12.05 10.107-19.406m178.922-47.429c-8.003-.979-10.79 1.782-9.057 8.972 2.72 11.29 5.328 22.611 7.65 33.986.88 4.308 3.594 10.42-3.58 11.496-5.86.88-7.511-4.334-8.581-9.343-2.647-12.395-6.103-24.643-8.19-37.126-1.566-9.375-7.79-8.465-14.112-8.066-9.052.572-6.013 7.243-5.141 11.83 2.96 15.552 6.347 31.03 9.908 46.458.66 2.858.9 7.776 4.208 7.876 13.469.404 26.994 3.838 40.357 1.072 6.389-1.322 8.805-6.939 7.344-13.767-3.202-14.966-6.315-29.95-9.262-44.969-1.405-7.159-5.436-9.95-11.544-8.419M643.033 766.821c-6.198-1.39-8.98-6.441-9.248-11.485-.295-5.572 5.335-3.173 8.503-3.576 4.942-.629 8.3 1.438 8.27 6.822-.026 4.826-2.584 7.751-7.525 8.239m-33.448-36.219c.027 9.911 2.725 18.49 5.324 27.078 4.23 13.984 14.629 20.375 28.312 21.588 8.465.751 17.334.1 22.896-7.777 6.23-8.821 2.76-18.407.689-27.595-1.054-4.674-5.558-4.081-9.205-4.128-6.351-.082-12.704-.021-19.056-.059-4.385-.027-8.855-.198-9.29-6.059-.265-3.559-1.5-7.888 2.454-10.059 4.779-2.624 7.833.685 10.47 4.297.933 1.275 1.82 2.976 3.127 3.515 5.54 2.286 12.95 3.784 16.44-.2 3.72-4.248-1.868-9.52-5.321-13.248-8.501-9.178-25.046-12.241-36.767-7.545-9.946 3.986-10.624 12.115-10.073 20.192m331.689 29.161c-2.792-12.697-6.226-28.163-9.584-43.646-1.93-8.892-8.953-5.624-14.15-5.616-6.654.01-5.421 5.443-4.714 9.352 2.162 11.947 4.678 23.833 7.26 35.7.792 3.637 2.802 7.543-2.437 9.13-5.341 1.615-7.934-1.878-8.993-6.394-3.132-13.36-5.922-26.8-9.042-40.165-1.548-6.628-13.051-10.908-18.76-7.319-3.17 1.992-1.57 4.46-1.073 6.885 3.606 17.59 7.396 35.143 10.71 52.787 1.19 6.331 5.099 7.184 10.304 7.08 8.376-.167 16.566-.396 25.078 1.317 10.604 2.134 16.179-4.78 15.4-19.11M507.724 586.835c8.821 2.489 9.757 10.238 11.44 17.174.866 3.568-2.336 4.142-4.998 3.844-7.995-.9-11.9-5.905-12.375-13.571-.244-3.95 1.332-7.133 5.933-7.447m34.36 33.494c-2.13-9.734-5.323-24.197-8.436-38.677-.593-2.764-1.598-5.78-4.705-5.287-11.913 1.89-23.496-1.445-35.2-1.552-6.962-.064-10.928 5.17-11.539 12.778-1.196 14.903 7.153 27.059 21.811 30.453 4.624 1.07 9.383 1.552 14.081 2.299 2.895.46 4.916 1.956 5.27 4.98.32 2.734-.172 5.396-2.757 6.928-2.615 1.55-5.726 1.163-7.047-1.3-4.459-8.31-11.586-8.033-19.09-6.471-2.438.507-2.904 3.026-2.092 5.136 3.108 8.07 8.898 12.675 17.59 14.18 6.305 1.094 12.211 1.79 18.762.433 11.047-2.29 15.42-8.28 13.352-23.9m26.588-46.384c-6.497-.068-12.865.853-17.774 5.356-5.23 4.8-7.385 12.206-2.263 16.755 4.698 4.173 12.973 5.344 18.058-1.369 2.154-2.844 2.267-7.206 7.416-5.951 2.983.727 4.215 2.939 4.411 5.783.3 4.353-2.395 6.718-5.867 8.521-3.28 1.704-6.669 3.239-9.806 5.177-10.43 6.443-12.316 13.67-6.42 23.865 7.08 12.247 30.987 17.691 42.407 9.546 4.093-2.919 6.443-7.079 6.155-12.175-.156-2.773-2.089-5.454-4.917-5.287-5.217.306-12.024-3.582-15 4.112-1.71 4.421-3.909 6.522-7.934 3.044-4.027-3.48-3.827-7.402.754-10.411a69.477 69.477 0 0 1 9.724-5.302c18-8.061 15.078-26.954.642-36.296-5.91-3.825-12.6-5.238-19.586-5.368m143.43 21.817c.566 11.174 2.967 22.116 7.531 32.223 7.118 15.761 30.458 22.414 45.054 13.708 7.642-4.558 9.054-11.638 7.116-19.27-1.638-6.452-7.755-3.822-12.152-4.205-4.648-.404-6.445 2.206-6.845 6.66-.312 3.482-2.62 5.685-6.308 5.918-4.553.287-7.006-2.845-8.017-6.395-2.599-9.138-4.703-18.424-6.75-27.707-.71-3.22-.222-6.468 3.614-7.726 3.33-1.092 6.353-.184 8.566 2.431 1.33 1.57 2.077 3.624 3.125 5.437 4.674 8.102 13.291 6.184 18.066 3.371 5.766-3.395-.007-9.31-2.806-13.259-7.963-11.234-25.556-16.016-38.477-11.302-9.655 3.522-12.44 10.678-11.717 20.116m-102.908-3.609c1.707 8.73 3.447 17.523 5.134 26.325.593 3.091 2.225 6.623 1.303 9.213-1.396 3.924-8.856 7.397-3.658 11.554 7.525 6.016 10.031 17.218 20.974 19.517 5.696 1.198 9.44.964 8.744-6.347-.286-3.005-1.116-6.177 2.066-8.658 7.242-5.643 6.773-10.333-2.313-13.081-4.316-1.303-6.044-4.399-5.984-8.273.196-12.727-12.197-25.075-.418-38.441 2.726-3.092-.71-8.137-6.047-8.603-7.437-.65-15.183-1.176-18.883 7.293-1.19 2.727-.652 6.208-.918 9.501m-22.712 185.253c5.244.86 9.017-3.716 14.268-.954 2.814 1.481 9.3 5.88 10.4-.149.885-4.834 1.835-13.875-7.277-14.92-10.803-1.243-13.492-8.998-15.512-17.435-1.843-7.702-3.544-15.482-4.572-23.325-1.312-9.999-7.623-11.673-15.817-10.293-10.365 1.745-4.547 8.576-3.624 13.382 2.786 14.504 6.313 28.87 8.912 43.404 1.498 8.376 5.28 12.313 13.222 10.29M461.414 643.167c5.247 1.044 9.213-3.428 14.387-.717 3.215 1.685 8.98 3.506 9.59-3.446.396-4.501 1.157-10.495-5.472-11.441-12.802-1.826-15.468-10.972-17.155-21.532-1.083-6.78-3.767-13.343-4.473-20.135-1.127-10.834-8.252-11.125-15.87-9.538-8.314 1.732-4.408 8.44-3.577 12.935 2.695 14.564 6.22 28.974 9.097 43.508 1.596 8.055 5.301 12.547 13.473 10.366m458.873-66.997c-8.041-.99-11.781 1.08-9.774 9.48 3.908 16.357 7.898 32.729 10.775 49.282 1.83 10.532 8.897 8.77 15.403 8.057 7.713-.846 4.835-7.175 4.098-11.15-2.97-16.022-6.576-31.924-9.903-47.88-1.302-6.238-4.803-9.217-10.6-7.79" fill="#9c9c9f"/><path d="M1878.497 397.641c13.66.023 27.321-.102 40.977.157 4.454.084 9.623-1.906 13.038 3.028 29.106 2.668 57.651-5.07 86.642-5.636-45.555 0-91.11-.02-136.666.102-1.332.004-2.66 1.532-3.99 2.35" fill="#9cd6f2"/><path d="M758.945 738.92c-2.646 0-5.292-.005-7.94.001-3.983.008-7.542.5-7.097 5.89.362 4.376.792 8.858 6.556 9.074 6.872.258 13.759.15 20.639.117 3.957-.019 7.64-.594 7.203-5.942-.356-4.348-.911-8.757-6.661-9.032-4.224-.202-8.466-.039-12.7-.039v-.069" fill="#9c9c9f"/><path d="M1932.377 1131.292c-8.506 6.35-18.199 2.166-27.307 2.872-9.913.77-19.922.308-29.889.383 1.938 2.13 4.467 2.608 7.187 2.617 34.964.111 69.928.264 104.892.264 2.075 0 5.784 1.468 5.916-1.893.078-1.975-3.57-1.222-5.585-1.41-18.365-1.714-36.665-4.724-55.214-2.833" fill="#9cd6f2"/><path d="M934.804 656.635c-2.43.555-8.955-2.354-7.832 5.994.882 6.56 3.935 10.465 11.386 9.444 4.485-.615 9.672.896 9.387-6.78-.296-7.987-4.757-9.574-12.941-8.659" fill="#9c9c9f"/><path d="M1964.78 1029.753a2.648 2.648 0 0 0 .137 2.199c8.511 6.702 18.621 3.678 27.384 2.557 10.5-1.343 20.883-2.683 31.466-2.66 1.496.004 2.993-.672 4.49-1.034-1.196-2.182-3.323-1.462-5.076-1.455-19.466.082-38.934.249-58.402.393" fill="#9cd6f2"/><path d="M535.244 669.085c5.728-.638 10.5.67 10.178-5.127-.349-6.282-2.419-11.447-10.38-10.783-3.803.317-8.089.275-6.957 5.786 1.025 4.988 1.753 10.975 7.16 10.124m-19.901-.472c1.968-.426 7.354 1.553 6.407-4.495-.733-4.688-.385-11.232-8.352-10.896-4.211.179-8.824-.517-8.547 6.026.254 6.007 2.098 10.344 10.492 9.365" fill="#9c9c9f"/><path d="M2028.963 676.246c.41-12.287-.172-24.485-5.274-35.904-4.67-10.45-11.962-17.317-24.431-16.825-11.753.462-18.328 7.264-22.113 17.488-8.798 23.766-8.462 47.895-1.336 71.844 3.2 10.759 10.494 18.5 22.664 19.46 10.84.856 19.139-5.55 24.914-18.63 5.285-11.973 5.969-24.622 5.576-37.433m-217.543 1.282c-1.352-13.768-1.584-27.543-8.263-40.105-4.927-9.271-12.23-14.145-22.903-13.888-10.224.246-16.805 5.557-20.6 14.597-10.93 26.031-10.61 52.426-1.11 78.62 3.45 9.51 11.096 15.467 21.835 15.616 10.76.149 17.513-6.069 22.329-15.027 6.722-12.5 7.007-26.339 8.713-39.813m403.15 16.15c-5.825-.012-11.65-.075-17.475 0-13.479.174-14.355.95-11.58 14.672 2.213 10.948 5.29 21.82 16.591 27.358 11.034 5.408 21.66 4.184 31.335-3.153 7.791-5.909 14.48-26.606 12.23-34.773-1.194-4.326-4.203-4.035-7.27-4.065-7.943-.079-15.888-.026-23.83-.039m-1675.122 77.3c-2.293-8.741-5.26-20.454-8.481-32.097-1.143-4.13-3.627-7.586-6.992-10.35-4.117-3.38-9.11-3.663-13.471-1.893-5.314 2.155-2.866 7.423-2.138 11.159 2.616 13.42 6.389 26.638 8.513 40.123 1.397 8.87 4.45 13.913 14.105 12.23 9.643-1.681 8.54-9.144 8.465-19.172m427.53-37.913c1.66 8.561 2.801 18.525 7.49 27.52 1.532 2.941 4.17 4.997 7.69 4.21 3.958-.885 4.032-4.298 3.87-7.524-.504-10.06-3.083-19.668-6.702-28.996-1.42-3.659-4.177-6.588-8.38-5.585-4.715 1.126-3.945 5.487-3.968 10.375" fill="#f9f9fc"/><path d="M708.83 776.946l-1.625-1.927c-1.51 1.413-.752 2.221.754 2.83zm267.651-152.877l-1.569-2.356c-1.343 1.682-1.008 2.625 1.21 2.733z" fill="#fff"/><path d="M677.128 617.848c-2.503.33-6.835-.62-6.209 4.227.72 5.576 3.75 10.288 10.105 9.96 4.403-.228 5.504-4.022 5.365-8.18-.209-6.22-4.455-6.133-9.26-6.007m-34.096 148.973c4.94-.488 7.499-3.413 7.525-8.239.03-5.384-3.328-7.451-8.27-6.822-3.168.403-8.798-1.996-8.503 3.576.269 5.044 3.05 10.095 9.248 11.485M507.724 586.835c-4.6.314-6.177 3.498-5.933 7.447.474 7.666 4.38 12.672 12.375 13.57 2.662.299 5.864-.275 4.998-3.843-1.683-6.936-2.619-14.685-11.44-17.174" fill="#f9f9fc"/></g></svg>