<?xml version="1.0" encoding="UTF-8" standalone="no"?>
<svg
   xmlns:dc="http://purl.org/dc/elements/1.1/"
   xmlns:cc="http://creativecommons.org/ns#"
   xmlns:rdf="http://www.w3.org/1999/02/22-rdf-syntax-ns#"
   xmlns:svg="http://www.w3.org/2000/svg"
   xmlns="http://www.w3.org/2000/svg"
   viewBox="0 0 3779.5332 1889.76"
   height="1889.76"
   width="3779.5332"
   xml:space="preserve"
   id="svg2"
   version="1.1"><metadata
     id="metadata8"><rdf:RDF><cc:Work
         rdf:about=""><dc:format>image/svg+xml</dc:format><dc:type
           rdf:resource="http://purl.org/dc/dcmitype/StillImage" /></cc:Work></rdf:RDF></metadata><defs
     id="defs6"><clipPath
       id="clipPath18"
       clipPathUnits="userSpaceOnUse"><path
         id="path16"
         d="M 0,1417.32 H 2834.65 V 0 H 0 Z" /></clipPath></defs><g
     transform="matrix(1.3333333,0,0,-1.3333333,0,1889.76)"
     id="g10"><g
       id="g12"><g
         clip-path="url(#clipPath18)"
         id="g14"><g
           transform="translate(1234.2144,694.822)"
           id="g20"><path
             id="path22"
             style="fill:#30a5de;fill-opacity:1;fill-rule:nonzero;stroke:none"
             d="m 0,0 c 18.75,-43.573 50.045,-76.994 86.536,-105.997 77.59,-61.671 167.372,-98.546 261.005,-127.413 70.846,-21.843 143.334,-36.425 216.583,-47.012 44.483,-6.429 89.315,-10.358 134.173,-13.574 -3.415,-4.934 -8.584,-2.943 -13.038,-3.027 -13.655,-0.259 -27.317,-0.134 -40.976,-0.158 -169.061,5.367 -333.741,33.266 -491.581,95.989 -36.019,14.312 -70.731,31.406 -103.953,51.456 -3.585,2.163 -7.573,3.661 -11.374,5.466 -4.823,3.83 -9.434,7.969 -14.506,11.432 -23.556,16.083 -45.733,33.763 -66.323,53.589 -22.219,21.395 -38.379,47.14 -54.882,72.728 -6.921,21.022 -14.783,41.5 -16.527,64.201 -2.692,35.03 5.018,67.19 20.974,97.755 24.698,47.309 62.754,82.344 105.57,112.697 75.746,53.699 160.89,87.078 249.078,113.315 76.684,22.813 155.174,37.583 234.48,47.423 48.335,5.996 96.881,10.9 145.727,10.856 9.968,-0.076 19.977,0.385 29.89,-0.384 9.107,-0.706 18.801,3.477 27.307,-2.872 C 539.906,425.42 385.007,398.577 237.922,336.472 170.093,307.832 106.722,271.591 53.72,219.443 39.333,205.288 26.498,189.651 15.738,172.507 c -4.43,-7.058 -10.28,-13.71 -9.9,-22.929 -2.495,-2.671 -6.025,-4.914 -7.329,-8.075 C -21.015,94.176 -23.21,46.926 0,0" /></g><g
           transform="translate(2028.9658,676.238)"
           id="g24"><path
             id="path26"
             style="fill:#303284;fill-opacity:1;fill-rule:nonzero;stroke:none"
             d="m 0,0 c 0.39,12.818 -0.294,25.468 -5.579,37.441 -5.775,13.08 -14.073,19.486 -24.914,18.631 -12.17,-0.96 -19.463,-8.702 -22.664,-19.462 -7.126,-23.948 -7.462,-48.077 1.336,-71.843 3.785,-10.224 10.36,-17.026 22.113,-17.489 12.469,-0.491 19.762,6.376 24.431,16.826 C -0.175,-24.478 0.408,-12.279 0,0 m 61.546,-6.317 c -0.842,-25.041 1.542,-55.868 -1.134,-86.61 -4.016,-46.137 -31.704,-74.912 -77.921,-79.901 -28.72,-3.1 -57.227,-0.601 -85.203,7.084 -6.046,1.661 -10.488,3.233 -9.46,11.431 1.447,11.538 -3,27.491 3.101,33.827 7.402,7.688 19.596,-5.642 30.429,-7.642 13.091,-2.416 26.049,-4.859 39.447,-3.664 22.156,1.975 34.785,13.352 38.787,35.223 0.763,4.175 1.504,8.373 1.91,12.592 0.482,5.005 3.109,12.18 -1.218,14.356 -3.95,1.987 -6.453,-5.534 -9.732,-8.658 -28.527,-27.171 -78.406,-18.84 -98.39,17.027 -14.019,25.163 -14.79,52.744 -12.486,80.528 1.275,15.391 4.724,30.372 12.098,44.177 21.458,40.174 73.426,47.042 104.528,13.855 1.718,-1.833 2.849,-5.659 5.633,-4.741 3.635,1.2 2.508,5.443 2.319,8.243 -0.789,11.66 3.951,15.646 15.751,14.502 13.645,-1.323 31.698,4.44 40.077,-2.392 8.936,-7.284 0.672,-25.725 1.27,-39.337 0.79,-18.022 0.194,-36.106 0.194,-59.9" /></g><g
           transform="translate(1811.4209,677.528)"
           id="g28"><path
             id="path30"
             style="fill:#303284;fill-opacity:1;fill-rule:nonzero;stroke:none"
             d="m 0,0 c -1.706,13.474 -1.991,27.313 -8.713,39.813 -4.816,8.958 -11.568,15.176 -22.329,15.027 -10.739,-0.149 -18.385,-6.106 -21.835,-15.616 -9.5,-26.194 -9.819,-52.589 1.11,-78.62 3.795,-9.04 10.376,-14.351 20.6,-14.597 10.673,-0.257 17.976,4.617 22.903,13.888 C -1.585,-27.543 -1.353,-13.768 0,0 m 60.896,6.396 c -2.053,-40.228 1.91,-72.699 -2.421,-104.914 -6.01,-44.688 -32.428,-70.755 -76.962,-75.585 -28.72,-3.115 -57.215,-0.495 -85.275,6.826 -7.276,1.898 -10.516,4.796 -9.394,12.967 1.294,9.413 1.387,19.059 1.182,28.585 -0.193,9.011 4.091,7.446 9.495,5.006 17.588,-7.936 35.852,-13.122 55.33,-12.828 33.073,0.5 55.038,28.457 47.792,60.704 -0.216,0.963 -0.347,2.463 -0.952,2.73 -2.608,1.151 -3.649,-1.234 -4.813,-2.762 -9.869,-12.95 -22.893,-20.293 -39.052,-21.923 -32.644,-3.293 -59.068,11.773 -70.01,42.984 -12.883,36.748 -12.814,74.387 3.054,110.299 19.657,44.491 75.584,52.132 107.47,15.742 1.576,-1.799 2.33,-5.857 5.512,-4.012 1.346,0.781 1.023,4.673 1.216,7.169 1.274,16.37 1.252,16.375 17.659,16.386 10.091,0.007 20.219,-0.532 30.262,0.163 8.829,0.61 10.282,-2.935 10.122,-11.015 C 60.555,54.788 60.896,26.64 60.896,6.396" /></g><g
           transform="translate(1135.8779,688.3015)"
           id="g32"><path
             id="path34"
             style="fill:#303284;fill-opacity:1;fill-rule:nonzero;stroke:none"
             d="m 0,0 c 16.503,-25.589 32.663,-51.334 54.882,-72.729 20.59,-19.826 42.767,-37.505 66.323,-53.588 5.073,-3.463 9.683,-7.603 14.506,-11.432 25.95,-37.942 60.783,-66.488 98.552,-91.553 77.202,-51.235 162.533,-84.064 251.236,-108.871 113.452,-31.727 229.361,-47.918 346.795,-54.338 3.532,-0.193 7.443,1.498 10.567,-1.594 -3.475,-2.941 -7.624,-1.458 -11.433,-1.52 -40.886,-0.66 -81.734,1.164 -122.485,3.888 -105.571,7.056 -209.948,22.156 -312.156,50.182 -95.053,26.065 -186.62,60.414 -268.454,116.844 C 80.545,-191.759 38.628,-153.07 13.967,-99.17 -0.423,-67.72 -7.074,-34.705 0,0" /></g><g
           transform="translate(1499.7852,708.6867)"
           id="g36"><path
             id="path38"
             style="fill:#303284;fill-opacity:1;fill-rule:nonzero;stroke:none"
             d="m 0,0 c 0.001,37.71 0.329,75.426 -0.216,113.129 -0.146,10.163 2.296,13.663 13.119,13.504 43.544,-0.635 87.105,-0.492 130.655,-0.078 9.027,0.086 11.592,-2.617 11.714,-11.65 0.447,-33.089 0.798,-33.084 -31.639,-33.084 -16.996,0 -33.999,-0.282 -50.987,0.126 -7.723,0.186 -11.748,-1.463 -11.244,-10.371 0.809,-14.286 -4.716,-32.762 2.303,-41.821 7.489,-9.665 26.838,-2.476 40.981,-3.162 12.188,-0.591 24.431,-0.342 36.64,-0.047 6.084,0.147 8.998,-2.014 8.417,-8.234 -0.05,-0.527 -0.03,-1.064 0.002,-1.593 2.116,-34.796 2.116,-34.796 -32.519,-34.796 -14.872,0 -29.756,-0.357 -44.611,0.141 -8.094,0.271 -11.514,-2.164 -11.203,-10.708 0.521,-14.322 0.526,-28.691 -0.01,-43.012 -0.292,-7.798 2.448,-9.938 10.036,-9.813 25.489,0.421 50.995,-0.199 76.478,0.348 8.882,0.192 11.542,-2.282 11.637,-11.397 0.351,-33.947 0.718,-33.943 -33.617,-33.944 -37.18,0 -74.374,0.6 -111.531,-0.339 -12.539,-0.318 -14.893,3.763 -14.673,15.267 C 0.447,-74.368 -0.001,-37.18 0,0" /></g><g
           transform="translate(1234.2144,694.822)"
           id="g40"><path
             id="path42"
             style="fill:#303284;fill-opacity:1;fill-rule:nonzero;stroke:none"
             d="m 0,0 c -23.21,46.926 -21.015,94.176 -1.491,141.503 1.304,3.161 4.834,5.404 7.329,8.075 73.499,56.959 157.38,92.993 245.234,120.586 120.971,37.995 245.261,57.409 371.652,64.569 35.975,2.038 71.929,4.118 107.979,2.396 -0.366,-0.713 -0.411,-1.445 -0.138,-2.198 C 621.215,328.528 513.047,314.114 406.988,286.095 314.873,261.76 226.076,229.211 145.083,177.851 120.358,162.172 97.046,144.634 75.791,124.526 39.245,89.952 11.259,50.031 0,0" /></g><g
           transform="translate(2214.5713,693.6911)"
           id="g44"><path
             id="path46"
             style="fill:#303284;fill-opacity:1;fill-rule:nonzero;stroke:none"
             d="m 0,0 c 7.943,0 15.888,-0.053 23.83,0.026 3.068,0.031 6.077,-0.26 7.27,4.065 2.251,8.168 -4.438,28.865 -12.229,34.773 C 9.195,46.202 -1.43,47.425 -12.464,42.017 -23.766,36.479 -26.842,25.607 -29.056,14.66 -31.83,0.937 -30.954,0.161 -17.475,-0.013 -11.65,-0.088 -5.825,-0.024 0,0 m 28.455,-31.771 c -16.444,0 -32.902,-0.404 -49.327,0.165 -8.567,0.295 -10.114,-2.975 -7.965,-10.307 4.919,-16.775 15.636,-27.36 32.867,-30.831 21.073,-4.244 41.083,0.09 60.375,8.465 7.678,3.333 12.949,4.461 11.389,-6.949 -0.499,-3.645 -0.122,-7.417 -0.068,-11.128 0.332,-22.795 0.39,-23.048 -22.488,-27.729 -27.334,-5.593 -54.588,-6.445 -81.747,1.837 -23.229,7.085 -40.434,21.142 -49.67,43.461 -15.556,37.599 -14.271,74.738 8.188,109.344 19.858,30.599 57.709,42.846 97.34,33.316 32.949,-7.923 52.82,-31.747 57.903,-69.421 5.427,-40.223 5.427,-40.223 -34.519,-40.223 -7.425,0 -14.852,0 -22.278,0" /></g><g
           transform="translate(2535.2031,579.8561)"
           id="g48"><path
             id="path50"
             style="fill:#303284;fill-opacity:1;fill-rule:nonzero;stroke:none"
             d="m 0,0 c -17.071,-0.532 -33.777,1.992 -50.464,5.497 -7.582,1.593 -11.71,4.246 -10.122,12.487 0.197,1.026 0.011,2.121 0.046,3.183 0.315,9.541 -2.997,22.379 1.895,27.777 5.949,6.565 16.28,-3.801 25.079,-5.611 12.714,-2.615 25.227,-3.347 37.917,-1.758 7.064,0.885 13.456,3.375 15.124,11.739 1.85,9.278 -4.818,12.039 -11.26,14.691 -12.246,5.04 -24.961,9.06 -36.872,14.774 -30.749,14.752 -43.224,48.537 -28.681,77.474 11.468,22.819 32.327,31.254 56.097,33.504 19.102,1.807 38.145,0.01 57.054,-3.541 8.617,-1.617 12.949,-4.739 11.445,-14.608 -1.509,-9.896 2.448,-23.18 -2.722,-29.192 -4.546,-5.289 -16.879,4.037 -26.162,5.311 -8.973,1.231 -17.94,2.056 -26.981,1.165 -7.343,-0.723 -13.897,-3.371 -15.652,-11.199 -1.834,-8.18 3.602,-12.982 10.321,-15.851 11.684,-4.99 23.613,-9.411 35.408,-14.148 C 68.531,100.827 80.181,82.158 77.992,53.278 75.63,22.101 55.477,3.761 19.102,0.09 12.796,-0.546 6.37,0 0,0" /></g><g
           transform="translate(2337.1143,683.3796)"
           id="g52"><path
             id="path54"
             style="fill:#303284;fill-opacity:1;fill-rule:nonzero;stroke:none"
             d="m 0,0 c -0.762,22.771 1.442,50.353 -1.156,77.838 -0.676,7.144 0.46,10.917 8.83,10.219 7.895,-0.659 15.888,-0.138 23.839,-0.138 21.609,0.002 21.562,-0.002 23.285,-20.924 0.187,-2.288 -1.444,-5.956 2.255,-6.484 2.943,-0.421 4.024,2.941 5.348,5.063 11.114,17.801 27.095,25.926 48.049,25.199 6.204,-0.216 9.992,-0.92 9.665,-8.529 -0.5,-11.639 -0.412,-23.325 -0.017,-34.972 0.246,-7.259 -2.702,-9.257 -9.489,-8.257 -4.679,0.689 -9.532,0.69 -14.27,0.397 C 79.402,38.363 68.882,29.887 64.209,13.628 61.857,5.443 60.95,-2.922 61.014,-11.49 c 0.195,-25.97 -0.207,-51.947 0.229,-77.909 0.14,-8.313 -1.222,-12.58 -10.972,-11.962 -13.198,0.834 -26.509,0.662 -39.73,0.045 -8.333,-0.39 -10.85,2.377 -10.717,10.695 C 0.281,-62.008 0,-33.382 0,0" /></g><g
           transform="translate(323.3657,771.7189)"
           id="g56"><path
             id="path58"
             style="fill:#9c9c9f;fill-opacity:1;fill-rule:nonzero;stroke:none"
             d="m 0,0 c -3.497,-16.427 -6.798,-32.898 -10.604,-49.252 -1.205,-5.179 -0.673,-11.795 -9.329,-12.394 -11.094,-0.769 -13.157,0.938 -10.88,11.974 5.018,24.322 10.464,48.564 14.972,72.98 1.94,10.503 8.063,11.556 16.902,11.429 8.633,-0.124 15.162,-0.413 16.427,-11.539 1.609,-14.151 4.765,-28.129 7.368,-42.16 0.301,-1.619 -0.503,-4.128 2.173,-4.376 0.305,-0.029 0.976,2.754 1.301,4.271 3.212,14.98 7.033,29.869 9.355,44.987 1.649,10.746 8.891,8.692 15.418,8.448 10.467,-0.393 4.55,-7.641 3.799,-11.471 C 52.028,-1.986 45.758,-26.623 41.663,-51.622 39.381,-65.551 30.01,-60.346 22.583,-61.549 13.261,-63.06 10.711,-57.383 9.572,-49.833 7.075,-33.274 4.473,-16.732 1.914,-0.183 1.276,-0.122 0.638,-0.061 0,0" /></g><g
           transform="translate(539.4507,770.9777)"
           id="g60"><path
             id="path62"
             style="fill:#9c9c9f;fill-opacity:1;fill-rule:nonzero;stroke:none"
             d="m 0,0 c 0.076,10.028 1.178,17.491 -8.465,19.172 -9.654,1.683 -12.708,-3.36 -14.105,-12.23 -2.124,-13.485 -5.897,-26.703 -8.513,-40.123 -0.728,-3.736 -3.176,-9.004 2.138,-11.159 4.362,-1.77 9.354,-1.486 13.471,1.894 3.365,2.763 5.849,6.219 6.992,10.349 C -5.26,-20.454 -2.294,-8.741 0,0 M -14.615,35.262 C 19.53,35.229 24.189,29.891 19.523,-3.912 19.019,-7.569 18.565,-11.251 17.74,-14.843 8.17,-56.512 -8.049,-67.28 -50.481,-60.894 c -5.906,0.889 -7.059,3.348 -5.96,8.342 5.789,26.308 11.831,52.565 17.198,78.959 1.498,7.366 5.048,9.57 11.921,8.925 4.201,-0.394 8.469,-0.073 12.707,-0.07" /></g><g
           transform="translate(249.8345,707.8766)"
           id="g64"><path
             id="path66"
             style="fill:#9c9c9f;fill-opacity:1;fill-rule:nonzero;stroke:none"
             d="m 0,0 c -20.96,-0.276 -31.155,10.258 -28.11,30.604 2.499,16.696 5.172,33.568 12.418,49.063 7.946,16.993 28.083,25.164 45.475,19.054 10.679,-3.752 15.856,-13.044 13.448,-23.621 -1.43,-6.281 -5.12,-8.494 -11.418,-8.273 -5.918,0.207 -10.704,0.641 -9.898,8.48 0.398,3.874 -0.435,7.956 -4.688,9.026 C 12.488,85.527 8.785,82.299 6.792,78.585 -2.387,61.477 -5.138,42.688 -6.311,23.638 c -0.247,-3.997 2.398,-7.1 6.613,-7.72 5.876,-0.865 9.589,3.17 10.433,7.777 1.954,10.659 8.818,11.487 17.449,10.954 6.176,-0.381 6.608,-3.066 5.227,-8.3 C 29.108,10.042 16.937,0.224 0,0" /></g><g
           transform="translate(383.3784,734.3674)"
           id="g68"><path
             id="path70"
             style="fill:#9c9c9f;fill-opacity:1;fill-rule:nonzero;stroke:none"
             d="m 0,0 c 2.005,16.824 4.805,33.593 10.798,49.474 6.213,16.463 21.61,25.68 38.781,24.739 15.155,-0.83 21.82,-8.533 21.09,-23.631 -0.292,-6.037 -1.299,-10.405 -8.735,-10.174 -6.067,0.189 -12.191,-0.438 -11.315,8.719 0.376,3.931 -0.783,7.895 -5.081,8.723 -4.551,0.877 -8.57,-1.713 -10.523,-5.634 -8.626,-17.323 -12.834,-35.89 -12.506,-55.14 0.134,-7.892 7.818,-10.088 13.669,-4.658 3.205,2.976 3.799,7.471 5.737,11.157 4.311,8.203 12.535,5.217 18.333,3.603 6.056,-1.684 1.05,-7.419 -0.016,-10.704 C 54.04,-22.599 32.538,-31.943 13.786,-24.323 2.71,-19.822 -0.681,-11.147 0,0" /></g><g
           transform="translate(966.9814,733.0651)"
           id="g72"><path
             id="path74"
             style="fill:#9c9c9f;fill-opacity:1;fill-rule:nonzero;stroke:none"
             d="m 0,0 c 0.023,-4.888 -0.747,-9.249 3.968,-10.375 4.203,-1.003 6.96,1.926 8.38,5.585 3.619,9.328 6.198,18.936 6.702,28.996 0.162,3.226 0.088,6.639 -3.87,7.523 C 11.66,32.517 9.022,30.461 7.489,27.519 2.801,18.525 1.659,8.561 0,0 m 14.559,-22.869 c -4.65,1.363 -8.71,0.156 -12.9,-0.668 -15.25,-2.997 -20.874,1.504 -20.941,16.699 -0.058,13.455 3.421,26.252 8.572,38.505 4.635,11.026 13.095,17.063 25.287,13.65 7.102,-1.988 9.799,-0.067 10.876,6.631 0.755,4.694 2.518,9.247 3.044,13.951 1.011,9.051 7.608,7.122 13.179,7.143 7.519,0.028 6.89,-5.478 5.959,-10.107 C 42.317,36.477 36.783,10.063 31.174,-16.335 28.901,-27.03 20.126,-21.306 14.559,-22.869" /></g><g
           transform="translate(821.2935,644.9323)"
           id="g76"><path
             id="path78"
             style="fill:#9c9c9f;fill-opacity:1;fill-rule:nonzero;stroke:none"
             d="M 0,0 C 13.613,1.043 19.766,-5.652 17.118,-19.243 14.495,-32.703 10.437,-45.935 8.602,-59.481 7.036,-71.039 -0.605,-69.534 -7.68,-68.69 c -9.609,1.144 -4.031,7.751 -3.243,12.104 1.971,10.894 4.602,21.667 6.548,32.564 0.594,3.325 2.023,7.984 -2.824,9.482 -5.451,1.685 -7.901,-2.72 -8.874,-6.776 -2.953,-12.317 -5.284,-24.781 -7.879,-37.184 -1.098,-5.247 -1.925,-10.092 -9.298,-10.588 -11.036,-0.742 -13.089,1.015 -10.794,12.118 4.912,23.775 9.867,47.541 14.918,71.287 0.861,4.049 0.95,8.973 4.552,11.41 4.08,2.759 9.459,2.123 13.846,0.708 5.753,-1.856 2.609,-7.042 2.474,-10.91 -0.054,-1.537 -0.86,-3.038 -1.249,-4.574 C -11.598,2.678 -12.877,-4.906 0,0" /></g><g
           transform="translate(708.8301,776.946)"
           id="g80"><path
             id="path82"
             style="fill:#9c9c9f;fill-opacity:1;fill-rule:nonzero;stroke:none"
             d="M 0,0 C 4.136,0.844 8.259,2.322 12.411,2.406 22.496,2.607 28.694,-4.018 26.946,-13.84 24.258,-28.949 20.529,-43.869 17.501,-58.921 15.464,-69.049 7.8,-67.301 1.31,-66.356 c -8.09,1.177 -3.855,7.18 -3.081,11.263 2.07,10.921 4.57,21.76 6.833,32.645 0.846,4.07 2.785,9.201 -3.244,10.405 -4.956,0.989 -7.485,-3.032 -8.505,-7.562 -2.786,-12.387 -5.376,-24.82 -8.31,-37.172 -1.031,-4.34 -0.864,-9.339 -7.817,-10.087 -10.76,-1.157 -13.969,1.306 -11.818,11.872 5.066,24.895 10.367,49.743 15.75,74.572 1.865,8.605 9.978,12.503 17.967,9.399 C 3.378,27.312 2.69,24.299 1.721,21.288 -0.421,14.631 -1.099,7.836 -0.871,0.903 -2.377,0.294 -3.135,-0.514 -1.625,-1.927 -1.083,-1.285 -0.542,-0.643 0,0" /></g><g
           transform="translate(976.4814,624.069)"
           id="g84"><path
             id="path86"
             style="fill:#9c9c9f;fill-opacity:1;fill-rule:nonzero;stroke:none"
             d="m 0,0 c 5.819,2.461 7.762,8.5 11.569,12.794 3.773,4.257 7.648,7.229 13.597,6.471 3.012,-0.384 7.027,1.217 8.738,-1.794 C 35.838,14.067 32.292,11.51 30.091,9.604 14.769,-3.658 12.023,-18.739 21.706,-36.72 c 1.266,-2.351 7.909,-9.568 -1.225,-10.807 -5.861,-0.795 -14.426,-4.713 -17.856,4.694 -2.883,7.907 -4.814,16.161 -7.167,24.262 -5.573,-7.262 -4.118,-16.683 -7.596,-24.634 -3.376,-7.717 -9.886,-4.866 -15.121,-4.439 -6.816,0.558 -4.324,6.119 -3.523,9.882 5.405,25.369 11.553,50.593 16.33,76.076 2.029,10.824 8.656,10.781 16.074,9.253 C 10.004,45.842 5.799,39.142 4.993,34.676 2.935,23.279 -1.667,12.307 -0.36,0.377 -2.577,0.269 -2.912,-0.674 -1.569,-2.356 -1.046,-1.571 -0.523,-0.785 0,0" /></g><g
           transform="translate(389.5679,576.154)"
           id="g88"><path
             id="path90"
             style="fill:#9c9c9f;fill-opacity:1;fill-rule:nonzero;stroke:none"
             d="m 0,0 c -8.533,-1.195 -10.754,3.01 -9.25,10.263 5.472,26.382 11.035,52.745 16.452,79.138 0.88,4.285 2.995,6.466 7.486,6.438 12.191,-0.076 24.383,-0.028 36.574,-0.027 4.336,0 7.116,-1.405 6.591,-6.503 -0.451,-4.371 -0.62,-8.792 -6.552,-8.964 C 46.004,80.191 40.678,79.915 35.407,80.286 28.795,80.753 26.502,77.834 25.004,71.52 21.738,57.752 21.258,58.027 35.783,57.15 40.889,56.842 48.318,59.991 48.313,49.97 48.308,41.111 42.278,40.837 36.357,41.716 22.602,43.757 15.45,38.723 14.914,24.39 14.718,19.182 12.921,14.035 11.875,8.856 10.525,2.185 7.116,-1.683 0,0" /></g><g
           transform="translate(848.3896,710.2951)"
           id="g92"><path
             id="path94"
             style="fill:#9c9c9f;fill-opacity:1;fill-rule:nonzero;stroke:none"
             d="m 0,0 c -4.481,1.255 -8.936,-0.311 -13.64,-1.302 -15.1,-3.184 -22.4,4.18 -19.371,19.055 2.641,12.971 6.11,25.811 7.996,38.885 1.494,10.349 7.65,11.55 15.793,10.511 11.287,-1.44 4.267,-8.649 3.569,-13.172 -1.61,-10.448 -4.312,-20.723 -6.139,-31.144 -0.669,-3.821 -2.7,-9.235 3.527,-10.397 5.096,-0.951 7.539,2.926 8.49,7.484 2.595,12.442 4.935,24.939 7.717,37.337 1.136,5.062 2.199,10.064 9.737,10.18 C 26.4,67.57 30.846,65.773 28.389,55.849 25.083,42.497 22.211,29.029 19.504,15.54 16.286,-0.49 16.447,-0.523 0,0" /></g><g
           transform="translate(677.1284,617.8483)"
           id="g96"><path
             id="path98"
             style="fill:#9c9c9f;fill-opacity:1;fill-rule:nonzero;stroke:none"
             d="M 0,0 C 4.806,-0.126 9.052,-0.213 9.261,6.007 9.4,10.165 8.299,13.959 3.896,14.187 -2.46,14.515 -5.49,9.803 -6.209,4.227 -6.835,-0.621 -2.503,0.33 0,0 m 28.382,5.773 c -0.398,-17.201 -1.391,-18.133 -17.783,-18.255 -4.777,-0.037 -9.555,-0.093 -14.332,-0.081 -4.689,0.011 -6.588,-2.613 -6.788,-6.958 -0.147,-3.185 -0.689,-6.888 2.416,-8.669 3.777,-2.166 7.155,-0.408 9.522,3.048 0.895,1.307 1.201,3.313 2.376,4.081 5.283,3.454 12.307,4.256 16.35,0.634 4.989,-4.47 -0.638,-9.768 -3.707,-13.528 -7.928,-9.711 -29.29,-13.036 -39.794,-6.59 -6.651,4.081 -8.679,10.751 -7.928,17.919 1.102,10.517 2.665,21.056 6.884,30.894 6.907,16.111 26.481,23.669 42.677,16.911 9.818,-4.098 10.85,-12.05 10.107,-19.406" /></g><g
           transform="translate(884.4316,576.1921)"
           id="g100"><path
             id="path102"
             style="fill:#9c9c9f;fill-opacity:1;fill-rule:nonzero;stroke:none"
             d="m 0,0 c -8.003,-0.979 -10.79,1.782 -9.057,8.972 2.721,11.289 5.328,22.611 7.651,33.986 0.88,4.308 3.593,10.419 -3.58,11.496 -5.86,0.879 -7.512,-4.334 -8.582,-9.343 -2.647,-12.395 -6.103,-24.643 -8.189,-37.126 -1.567,-9.375 -7.791,-8.465 -14.113,-8.066 -9.052,0.572 -6.013,7.243 -5.141,11.829 2.96,15.553 6.347,31.03 9.908,46.459 0.66,2.858 0.9,7.776 4.208,7.876 13.469,0.404 26.994,3.838 40.357,1.072 6.389,-1.322 8.805,-6.939 7.344,-13.767 C 17.604,38.422 14.491,23.437 11.544,8.419 10.139,1.26 6.108,-1.532 0,0" /></g><g
           transform="translate(643.0327,766.821)"
           id="g104"><path
             id="path106"
             style="fill:#9c9c9f;fill-opacity:1;fill-rule:nonzero;stroke:none"
             d="m 0,0 c -6.198,-1.39 -8.979,-6.441 -9.248,-11.485 -0.295,-5.572 5.335,-3.173 8.503,-3.576 4.942,-0.629 8.3,1.438 8.27,6.822 C 7.499,-3.413 4.941,-0.488 0,0 m -33.448,-36.219 c 0.027,9.911 2.725,18.49 5.324,27.078 4.231,13.984 14.629,20.375 28.312,21.588 8.465,0.751 17.334,0.1 22.896,-7.777 6.231,-8.821 2.76,-18.407 0.689,-27.595 -1.054,-4.674 -5.558,-4.081 -9.205,-4.128 -6.351,-0.082 -12.704,-0.021 -19.056,-0.059 -4.385,-0.027 -8.855,-0.198 -9.29,-6.059 -0.265,-3.559 -1.5,-7.888 2.454,-10.059 4.779,-2.624 7.833,0.685 10.471,4.297 0.932,1.275 1.819,2.976 3.126,3.515 5.54,2.286 12.951,3.784 16.44,-0.2 3.721,-4.248 -1.868,-9.52 -5.321,-13.248 -8.501,-9.178 -25.046,-12.241 -36.767,-7.545 -9.946,3.986 -10.624,12.115 -10.073,20.192" /></g><g
           transform="translate(941.2739,759.7634)"
           id="g108"><path
             id="path110"
             style="fill:#9c9c9f;fill-opacity:1;fill-rule:nonzero;stroke:none"
             d="m 0,0 c -2.792,-12.697 -6.226,-28.163 -9.584,-43.646 -1.93,-8.892 -8.953,-5.624 -14.15,-5.616 -6.654,0.009 -5.421,5.443 -4.714,9.352 2.162,11.947 4.678,23.833 7.26,35.699 0.792,3.638 2.802,7.544 -2.437,9.13 -5.341,1.616 -7.934,-1.877 -8.993,-6.393 -3.132,-13.36 -5.922,-26.801 -9.042,-40.165 -1.548,-6.628 -13.051,-10.908 -18.759,-7.319 -3.17,1.992 -1.571,4.459 -1.074,6.885 3.606,17.589 7.396,35.143 10.71,52.787 1.19,6.331 5.099,7.184 10.304,7.08 8.376,-0.167 16.566,-0.396 25.078,1.317 C -4.797,21.245 0.778,14.33 0,0" /></g><g
           transform="translate(507.7241,586.8347)"
           id="g112"><path
             id="path114"
             style="fill:#9c9c9f;fill-opacity:1;fill-rule:nonzero;stroke:none"
             d="M 0,0 C 8.821,2.489 9.757,10.238 11.44,17.174 12.306,20.742 9.104,21.316 6.442,21.018 -1.553,20.119 -5.459,15.113 -5.933,7.447 -6.177,3.498 -4.601,0.314 0,0 M 34.36,33.494 C 32.23,23.76 29.037,9.297 25.924,-5.183 c -0.593,-2.764 -1.598,-5.78 -4.705,-5.287 -11.913,1.891 -23.496,-1.445 -35.2,-1.552 -6.962,-0.064 -10.928,5.171 -11.539,12.778 -1.196,14.903 7.153,27.059 21.811,30.453 4.624,1.07 9.383,1.552 14.081,2.299 2.895,0.461 4.916,1.956 5.269,4.98 0.32,2.734 -0.171,5.396 -2.756,6.928 -2.615,1.55 -5.726,1.163 -7.047,-1.299 -4.459,-8.311 -11.586,-8.034 -19.09,-6.472 -2.438,0.507 -2.904,3.026 -2.092,5.136 3.108,8.071 8.898,12.675 17.59,14.181 6.305,1.093 12.211,1.789 18.762,0.432 11.047,-2.289 15.42,-8.279 13.352,-23.9" /></g><g
           transform="translate(568.6724,573.945)"
           id="g116"><path
             id="path118"
             style="fill:#9c9c9f;fill-opacity:1;fill-rule:nonzero;stroke:none"
             d="m 0,0 c -6.497,-0.068 -12.865,0.853 -17.774,5.356 -5.231,4.8 -7.385,12.206 -2.263,16.755 4.698,4.173 12.973,5.344 18.058,-1.369 2.154,-2.844 2.267,-7.206 7.416,-5.951 2.983,0.727 4.215,2.939 4.411,5.783 0.299,4.353 -2.395,6.718 -5.867,8.521 -3.281,1.704 -6.669,3.239 -9.806,5.177 -10.431,6.443 -12.316,13.67 -6.421,23.865 7.081,12.247 30.988,17.691 42.408,9.546 4.093,-2.919 6.443,-7.079 6.155,-12.175 -0.156,-2.773 -2.089,-5.454 -4.917,-5.287 -5.217,0.306 -12.024,-3.582 -15,4.112 -1.711,4.421 -3.909,6.522 -7.934,3.044 C 4.439,53.897 4.639,49.975 9.22,46.966 12.297,44.944 15.582,43.17 18.944,41.664 36.944,33.603 34.022,14.71 19.586,5.368 13.676,1.543 6.986,0.13 0,0" /></g><g
           transform="translate(712.1025,595.7624)"
           id="g120"><path
             id="path122"
             style="fill:#9c9c9f;fill-opacity:1;fill-rule:nonzero;stroke:none"
             d="m 0,0 c 0.566,11.174 2.967,22.116 7.531,32.223 7.118,15.761 30.458,22.414 45.054,13.708 7.642,-4.558 9.054,-11.638 7.116,-19.271 -1.638,-6.451 -7.755,-3.821 -12.152,-4.204 -4.648,-0.404 -6.445,2.206 -6.845,6.659 -0.312,3.483 -2.621,5.686 -6.308,5.919 -4.553,0.287 -7.006,-2.845 -8.017,-6.395 -2.599,-9.138 -4.703,-18.424 -6.75,-27.707 -0.711,-3.221 -0.222,-6.468 3.614,-7.726 3.329,-1.092 6.353,-0.184 8.566,2.431 1.329,1.569 2.077,3.624 3.125,5.437 C 39.608,9.176 48.225,7.258 53,4.445 58.766,1.05 52.993,-4.866 50.194,-8.814 42.231,-20.048 24.638,-24.83 11.717,-20.116 2.062,-16.594 -0.724,-9.438 0,0" /></g><g
           transform="translate(609.1943,592.153)"
           id="g124"><path
             id="path126"
             style="fill:#9c9c9f;fill-opacity:1;fill-rule:nonzero;stroke:none"
             d="m 0,0 c 1.707,8.73 3.447,17.523 5.134,26.325 0.593,3.091 2.225,6.623 1.303,9.213 -1.396,3.924 -8.856,7.397 -3.658,11.554 7.525,6.016 10.031,17.218 20.974,19.517 5.696,1.198 9.439,0.964 8.744,-6.347 -0.286,-3.005 -1.116,-6.177 2.066,-8.658 C 41.805,45.961 41.336,41.271 32.25,38.523 27.934,37.22 26.206,34.124 26.266,30.25 26.462,17.523 14.069,5.175 25.848,-8.191 c 2.726,-3.092 -0.71,-8.137 -6.047,-8.603 C 12.364,-17.444 4.618,-17.97 0.918,-9.501 -0.273,-6.774 0.266,-3.293 0,0" /></g><g
           transform="translate(586.4819,777.4064)"
           id="g128"><path
             id="path130"
             style="fill:#9c9c9f;fill-opacity:1;fill-rule:nonzero;stroke:none"
             d="m 0,0 c 5.244,0.86 9.017,-3.716 14.268,-0.954 2.814,1.481 9.3,5.879 10.401,-0.149 0.884,-4.834 1.834,-13.875 -7.278,-14.921 C 6.588,-17.266 3.899,-25.021 1.879,-33.458 0.036,-41.16 -1.665,-48.94 -2.693,-56.783 c -1.312,-9.999 -7.623,-11.673 -15.817,-10.293 -10.365,1.745 -4.547,8.576 -3.624,13.382 2.786,14.504 6.313,28.87 8.912,43.404 C -11.724,-1.914 -7.942,2.023 0,0" /></g><g
           transform="translate(461.4141,643.1667)"
           id="g132"><path
             id="path134"
             style="fill:#9c9c9f;fill-opacity:1;fill-rule:nonzero;stroke:none"
             d="m 0,0 c 5.247,1.044 9.213,-3.428 14.387,-0.717 3.215,1.685 8.979,3.506 9.59,-3.446 0.396,-4.501 1.157,-10.495 -5.472,-11.441 C 5.703,-17.43 3.037,-26.576 1.35,-37.136 c -1.083,-6.78 -3.767,-13.343 -4.473,-20.135 -1.127,-10.834 -8.252,-11.125 -15.87,-9.538 -8.314,1.732 -4.408,8.44 -3.577,12.935 2.695,14.564 6.219,28.974 9.097,43.508 C -11.877,-2.311 -8.172,2.181 0,0" /></g><g
           transform="translate(920.2866,576.1696)"
           id="g136"><path
             id="path138"
             style="fill:#9c9c9f;fill-opacity:1;fill-rule:nonzero;stroke:none"
             d="m 0,0 c -8.041,-0.989 -11.781,1.081 -9.774,9.481 3.908,16.356 7.898,32.728 10.775,49.281 1.83,10.532 8.897,8.771 15.403,8.057 7.713,-0.846 4.835,-7.175 4.098,-11.15 C 17.533,39.647 13.926,23.745 10.599,7.79 9.297,1.551 5.796,-1.428 0,0" /></g><g
           transform="translate(1878.4971,397.6413)"
           id="g140"><path
             id="path142"
             style="fill:#9cd6f2;fill-opacity:1;fill-rule:nonzero;stroke:none"
             d="m 0,0 c 13.659,0.023 27.321,-0.102 40.977,0.157 4.454,0.084 9.623,-1.906 13.038,3.028 29.106,2.668 57.651,-5.07 86.642,-5.636 -45.555,0 -91.111,-0.021 -136.666,0.102 C 2.659,-2.345 1.33,-0.817 0,0" /></g><g
           transform="translate(758.9448,738.9201)"
           id="g144"><path
             id="path146"
             style="fill:#9c9c9f;fill-opacity:1;fill-rule:nonzero;stroke:none"
             d="m 0,0 c -2.646,0 -5.292,-0.005 -7.939,0.001 -3.984,0.008 -7.543,0.499 -7.098,5.89 0.362,4.376 0.792,8.858 6.556,9.074 6.872,0.258 13.759,0.149 20.639,0.117 3.957,-0.019 7.641,-0.594 7.203,-5.942 C 19.005,4.792 18.45,0.383 12.7,0.108 8.476,-0.094 4.234,0.069 0,0.069 0,0.046 0,0.023 0,0" /></g><g
           transform="translate(1932.377,1131.2921)"
           id="g148"><path
             id="path150"
             style="fill:#9cd6f2;fill-opacity:1;fill-rule:nonzero;stroke:none"
             d="m 0,0 c -8.506,6.349 -18.199,2.166 -27.307,2.872 -9.913,0.769 -19.922,0.308 -29.889,0.383 1.938,2.13 4.467,2.608 7.187,2.617 34.964,0.111 69.928,0.264 104.892,0.264 2.075,0 5.784,1.468 5.916,-1.893 C 60.877,2.268 57.229,3.021 55.214,2.833 36.849,1.119 18.549,-1.891 0,0" /></g><g
           transform="translate(934.8037,656.6345)"
           id="g152"><path
             id="path154"
             style="fill:#9c9c9f;fill-opacity:1;fill-rule:nonzero;stroke:none"
             d="m 0,0 c -2.429,0.555 -8.955,-2.354 -7.832,5.994 0.882,6.561 3.935,10.465 11.386,9.444 4.485,-0.615 9.672,0.896 9.387,-6.779 C 12.645,0.672 8.184,-0.915 0,0" /></g><g
           transform="translate(1964.7793,1029.7526)"
           id="g156"><path
             id="path158"
             style="fill:#9cd6f2;fill-opacity:1;fill-rule:nonzero;stroke:none"
             d="M 0,0 C -0.273,0.753 -0.228,1.486 0.138,2.199 8.649,8.901 18.759,5.877 27.522,4.756 38.021,3.413 48.405,2.073 58.988,2.097 60.484,2.1 61.981,1.424 63.478,1.062 62.282,-1.12 60.155,-0.4 58.402,-0.393 38.936,-0.311 19.468,-0.144 0,0" /></g><g
           transform="translate(535.2441,669.0847)"
           id="g160"><path
             id="path162"
             style="fill:#9c9c9f;fill-opacity:1;fill-rule:nonzero;stroke:none"
             d="M 0,0 C 5.728,-0.638 10.5,0.671 10.178,-5.127 9.829,-11.409 7.759,-16.574 -0.203,-15.91 c -3.802,0.317 -8.088,0.275 -6.956,5.786 C -6.134,-5.136 -5.406,0.851 0,0" /></g><g
           transform="translate(515.3437,668.613)"
           id="g164"><path
             id="path166"
             style="fill:#9c9c9f;fill-opacity:1;fill-rule:nonzero;stroke:none"
             d="m 0,0 c 1.968,-0.426 7.354,1.553 6.407,-4.495 -0.733,-4.688 -0.385,-11.232 -8.352,-10.896 -4.211,0.179 -8.824,-0.517 -8.547,6.026 C -10.238,-3.358 -8.394,0.979 0,0" /></g><g
           transform="translate(2028.9629,676.2458)"
           id="g168"><path
             id="path170"
             style="fill:#f9f9fc;fill-opacity:1;fill-rule:nonzero;stroke:none"
             d="m 0,0 c 0.411,-12.287 -0.172,-24.485 -5.274,-35.904 -4.669,-10.45 -11.962,-17.317 -24.431,-16.825 -11.753,0.462 -18.328,7.264 -22.113,17.488 -8.798,23.766 -8.462,47.895 -1.336,71.844 3.201,10.759 10.494,18.501 22.664,19.461 10.841,0.855 19.139,-5.551 24.914,-18.631 C -0.291,25.46 0.393,12.811 0,0" /></g><g
           transform="translate(1811.4209,677.528)"
           id="g172"><path
             id="path174"
             style="fill:#f9f9fc;fill-opacity:1;fill-rule:nonzero;stroke:none"
             d="m 0,0 c -1.353,-13.768 -1.585,-27.543 -8.264,-40.105 -4.927,-9.271 -12.23,-14.145 -22.903,-13.888 -10.224,0.246 -16.805,5.557 -20.6,14.597 -10.929,26.031 -10.61,52.426 -1.11,78.62 3.45,9.51 11.096,15.467 21.835,15.616 10.761,0.149 17.513,-6.069 22.329,-15.027 C -1.991,27.313 -1.706,13.474 0,0" /></g><g
           transform="translate(2214.5713,693.6784)"
           id="g176"><path
             id="path178"
             style="fill:#f9f9fc;fill-opacity:1;fill-rule:nonzero;stroke:none"
             d="m 0,0 c -5.825,-0.012 -11.65,-0.075 -17.475,0 -13.479,0.174 -14.355,0.95 -11.581,14.672 2.214,10.948 5.29,21.819 16.592,27.358 C -1.43,47.438 9.195,46.214 18.871,38.877 26.662,32.968 33.351,12.271 31.1,4.104 29.907,-0.222 26.898,0.069 23.83,0.039 15.888,-0.04 7.943,0.013 0,0" /></g><g
           transform="translate(539.4507,770.9777)"
           id="g180"><path
             id="path182"
             style="fill:#f9f9fc;fill-opacity:1;fill-rule:nonzero;stroke:none"
             d="m 0,0 c -2.294,-8.741 -5.26,-20.454 -8.482,-32.097 -1.143,-4.13 -3.627,-7.586 -6.992,-10.349 -4.117,-3.38 -9.109,-3.664 -13.471,-1.894 -5.314,2.155 -2.866,7.423 -2.138,11.159 2.616,13.42 6.389,26.638 8.513,40.123 1.397,8.87 4.451,13.913 14.105,12.23 C 1.178,17.491 0.076,10.028 0,0" /></g><g
           transform="translate(966.9814,733.0651)"
           id="g184"><path
             id="path186"
             style="fill:#f9f9fc;fill-opacity:1;fill-rule:nonzero;stroke:none"
             d="m 0,0 c 1.659,8.561 2.801,18.525 7.489,27.519 1.533,2.942 4.171,4.998 7.691,4.21 3.958,-0.884 4.032,-4.297 3.87,-7.523 C 18.546,14.146 15.967,4.538 12.348,-4.79 10.928,-8.449 8.171,-11.378 3.968,-10.375 -0.747,-9.249 0.023,-4.888 0,0" /></g><g
           transform="translate(708.8301,776.946)"
           id="g188"><path
             id="path190"
             style="fill:#ffffff;fill-opacity:1;fill-rule:nonzero;stroke:none"
             d="m 0,0 c -0.542,-0.643 -1.083,-1.285 -1.625,-1.927 -1.51,1.413 -0.752,2.221 0.754,2.83 z" /></g><g
           transform="translate(976.4814,624.069)"
           id="g192"><path
             id="path194"
             style="fill:#ffffff;fill-opacity:1;fill-rule:nonzero;stroke:none"
             d="m 0,0 c -0.523,-0.785 -1.046,-1.571 -1.569,-2.356 -1.343,1.682 -1.008,2.625 1.209,2.733 z" /></g><g
           transform="translate(677.1284,617.8483)"
           id="g196"><path
             id="path198"
             style="fill:#f9f9fc;fill-opacity:1;fill-rule:nonzero;stroke:none"
             d="M 0,0 C -2.503,0.33 -6.835,-0.621 -6.209,4.227 -5.49,9.803 -2.46,14.515 3.896,14.187 8.299,13.959 9.4,10.165 9.261,6.007 9.052,-0.213 4.806,-0.126 0,0" /></g><g
           transform="translate(643.0327,766.821)"
           id="g200"><path
             id="path202"
             style="fill:#f9f9fc;fill-opacity:1;fill-rule:nonzero;stroke:none"
             d="m 0,0 c 4.941,-0.488 7.499,-3.413 7.525,-8.239 0.03,-5.384 -3.328,-7.451 -8.27,-6.822 -3.168,0.403 -8.798,-1.996 -8.503,3.576 C -8.979,-6.441 -6.198,-1.39 0,0" /></g><g
           transform="translate(507.7241,586.8347)"
           id="g204"><path
             id="path206"
             style="fill:#f9f9fc;fill-opacity:1;fill-rule:nonzero;stroke:none"
             d="m 0,0 c -4.601,0.314 -6.177,3.498 -5.933,7.447 0.474,7.666 4.38,12.672 12.375,13.571 2.662,0.298 5.864,-0.276 4.998,-3.844 C 9.757,10.238 8.821,2.489 0,0" /></g></g></g></g></svg>