<svg xmlns="http://www.w3.org/2000/svg" viewBox="0 0 1431.4 1122.52" height="1122.52" width="1431.4"><defs><clipPath id="a"><path d="M0 841.89h1073.552V0H0z"/></clipPath><clipPath id="b"><path d="M0 841.89h1073.552V0H0z"/></clipPath></defs><g clip-path="url(#a)" transform="matrix(1.33333 0 0 -1.33333 0 1122.52)"><path d="M363.906 684.226c-1.913-4.024-5.355-6.987-9.942-8.406 1.2-1.494 2.31-3.282 3.296-5.274h8.945l2.405 13.68z" fill="#ef2d38"/><path d="M403.203 725.262h-13.677l2.416 13.675h13.672z" fill="#fddd04"/><path d="M364.577 738.937H350.9l-2.419-13.675h13.676l-2.405-13.68h13.681l2.412 13.68h.003l2.412 13.675z" fill="#ef2d38"/><path d="M334.798 725.262h-13.671l2.414 13.675h13.677zM332.903 697.896l1.103 6.285.175 1.005 1.011.14c3.494.484 6.815.792 9.953.948l.94 5.308h-.018l2.414 13.68H334.8l-2.406-13.68h.011l-2.41-13.686z" fill="#176fc1"/><path d="M387.108 711.582h-13.674l2.405 13.68h13.683zM398.448 697.901H384.76l2.412 13.681h13.682z" fill="#fddd04"/><path d="M325.153 670.548H311.48l2.414 13.677h13.671z" fill="#176fc1"/><path d="M393.575 670.548h-13.688l2.423 13.677h13.677zM369.513 611.862v.001h-13.677l-1.306-7.404H381.9l1.305 7.403z" fill="#fddd04"/><path d="M342.152 611.863h-13.684l-1.305-7.404h27.364l1.302 7.404z" fill="#ef2d38"/><path d="M314.783 611.862H301.112l-1.307-7.403H327.157l1.307 7.403z" fill="#176fc1"/></g><g clip-path="url(#b)" transform="matrix(1.33333 0 0 -1.33333 0 1122.52)"><path d="M173.38 633.115c1.952-3.813 3.626-7.534 5.456-12.092-.96-.217-2.078-.31-2.977-.31l-4.62 10.263-3.41-3.256-1.179-6.852h-3.007l3.69 20.898h3.007l-1.86-10.449h.155a108.45 108.45 0 0 0 4.713 5.147l5.426 5.457c.806 0 2.511-.124 3.317-.34zM191.886 637.332c-.03.248-.03.341-.03.527 0 .248 0 .528.03.961h-.217c-.186-.899-.279-1.24-.403-1.488l-3.907-7.782h5.674zm2.356-16.619l-.899 6.356h-7.13l-3.164-6.356c-.837.031-1.984.124-2.79.341 3.162 6.728 6.76 13.736 10.48 20.712h3.224c1.178-6.79 2.295-13.984 3.163-20.712-.93-.248-1.86-.31-2.884-.341M209.338 639.534c-.899 0-1.892-.093-2.729-.186l-1.333-7.503h2.512c3.007 0 4.991 1.612 4.991 4.65 0 2.17-1.24 3.039-3.44 3.039m1.208-9.178c.992-.961 2.016-2.604 2.73-4.743l1.518-4.528a13.05 13.05 0 0 0-3.1-.372l-1.086 3.41c-.775 2.358-1.736 4.342-2.635 5.334h-3.1l-1.55-8.59h-2.947l3.628 20.682c2.016.279 3.97.435 5.767.435 3.473 0 6.046-1.427 6.046-5.241 0-3.38-2.015-5.797-5.27-6.387M229.055 639.44c-3.411 0-5.116-1.767-6.201-7.069-.31-1.457-.496-2.914-.496-4.34 0-3.319 1.457-4.838 4.37-4.838 3.412 0 5.118 1.675 6.172 6.76.31 1.488.558 3.038.558 4.557 0 3.566-1.612 4.93-4.403 4.93m6.915-10.355c-1.396-5.892-4.745-8.527-9.52-8.527-4.558 0-7.286 2.697-7.286 7.906 0 1.178.186 2.853.527 4.465 1.302 6.294 4.713 9.147 9.705 9.147 4.589 0 7.255-2.698 7.255-8.03 0-1.24-.31-3.38-.681-4.96M252.77 638.852c-1.24.372-3.225.62-4.526.62-3.008 0-4-1.271-4-3.193 0-3.814 7.751-3.473 7.751-9.395 0-3.783-3.163-6.325-7.689-6.325-1.706 0-4.031.278-5.551.992.218.992.528 1.922.9 2.666 1.55-.713 3.348-1.054 5.116-1.054 2.853 0 4.093 1.334 4.093 3.349 0 4.34-7.721 3.814-7.721 9.363 0 4.155 3.411 6.202 7.876 6.202 1.333 0 3.193-.186 4.464-.528a11.539 11.539 0 0 0-.713-2.697M268.859 638.852c-1.24.372-3.225.62-4.526.62-3.008 0-4-1.271-4-3.193 0-3.814 7.75-3.473 7.75-9.395 0-3.783-3.162-6.325-7.688-6.325-1.706 0-4.031.278-5.551.992.218.992.528 1.922.9 2.666 1.55-.713 3.348-1.054 5.116-1.054 2.853 0 4.093 1.334 4.093 3.349 0 4.34-7.721 3.814-7.721 9.363 0 4.155 3.41 6.202 7.876 6.202 1.333 0 3.193-.186 4.464-.528a11.539 11.539 0 0 0-.713-2.697M286.343 639.1h-8.434l-1.054-6.015h6.356l-.465-2.635h-6.356l-1.209-6.915h9.116a14.581 14.581 0 0 0-.683-2.666h-11.937l3.69 20.898h11.627a15.208 15.208 0 0 0-.65-2.667M297.471 639.534c-.899 0-1.892-.093-2.729-.186l-1.333-7.503h2.512c3.007 0 4.991 1.612 4.991 4.65 0 2.17-1.24 3.039-3.44 3.039m1.208-9.178c.992-.961 2.015-2.604 2.728-4.743l1.52-4.528a13.055 13.055 0 0 0-3.1-.372l-1.086 3.41c-.775 2.358-1.736 4.342-2.635 5.334h-3.1l-1.55-8.59h-2.947l3.628 20.682c2.016.279 3.97.435 5.767.435 3.472 0 6.046-1.427 6.046-5.241 0-3.38-2.016-5.797-5.27-6.387M309.963 620.868h-3.04l3.69 20.898h3.039zM330.766 639.1h-8.434l-1.054-6.015h6.357l-.465-2.635h-6.357l-1.21-6.915h9.116a14.496 14.496 0 0 0-.682-2.666H316.1l3.689 20.898h11.629a15.3 15.3 0 0 0-.652-2.667M348.621 639.906c-1.61 0-2.697-1.116-2.697-3.131 0-.931.248-1.83.775-2.884 3.193 1.457 4.092 2.449 4.092 4.155 0 1.24-.836 1.86-2.17 1.86m-3.504-8.9c-3.068-1.518-4.092-2.634-4.092-4.93 0-2.045 1.053-3.1 3.07-3.1 1.24 0 2.635.435 4.868 2.14-1.024 1.489-3.66 5.55-3.846 5.89m10.543-3.13a69.857 69.857 0 0 0-3.318-3.101l2.418-3.814c-.868-.185-2.016-.341-2.914-.341l-1.674 2.543c-2.637-1.954-4.403-2.605-6.48-2.605-3.72 0-5.395 2.109-5.395 5.27 0 3.195 1.642 5.148 5.828 7.195-.619 1.364-.836 2.418-.836 3.38 0 3.689 2.262 5.673 5.55 5.673 2.79 0 4.526-1.55 4.526-3.968 0-2.791-1.767-4.403-5.61-6.17.247-.404 2.292-3.597 3.378-5.178 1.334 1.146 2.851 2.666 4.713 4.558.031-.342.062-.838.062-1.241 0-.775-.094-1.55-.248-2.201M376.522 620.868h-11.193l3.689 20.898h3.039l-3.224-18.2h8.433a21.502 21.502 0 0 0-.744-2.698M389.387 637.332c-.031.248-.031.341-.031.527 0 .248 0 .528.03.961h-.216c-.187-.899-.28-1.24-.404-1.488l-3.906-7.782h5.673zm2.355-16.619l-.898 6.356h-7.131l-3.164-6.356c-.836.031-1.984.124-2.79.341 3.163 6.728 6.759 13.736 10.48 20.712h3.224c1.18-6.79 2.295-13.984 3.164-20.712-.931-.248-1.861-.31-2.885-.341M413.38 638.293c-1.24.682-3.255 1.085-4.897 1.085-3.504 0-5.643-2.015-6.573-7.13-.248-1.333-.467-2.666-.467-3.97 0-3.566 1.55-5.023 4.776-5.023 1.705 0 3.598.403 5.055 1.178.154-.93.216-1.89.248-2.883-1.614-.682-4.032-.992-5.551-.992-4.992 0-7.721 2.48-7.721 7.782 0 1.613.217 3.194.559 4.744 1.334 6.17 4.929 8.993 10.047 8.993 1.828 0 4.216-.372 5.425-1.024-.187-.837-.558-1.86-.9-2.76M425.44 633.115c1.953-3.813 3.627-7.534 5.457-12.092-.961-.217-2.078-.31-2.977-.31l-4.62 10.263-3.411-3.256-1.178-6.852h-3.007l3.689 20.898h3.008l-1.86-10.449h.155a108.987 108.987 0 0 0 4.713 5.147l5.426 5.457c.806 0 2.51-.124 3.318-.34zM176.216 653.469H168.8l4.162 23.533h-22.17l-4.162-23.533h-7.416l9.005 51h7.415l-3.708-20.884h22.17l3.709 20.884h7.415zM217.001 698.794c-8.323 0-12.485-4.313-15.134-17.252-.755-3.557-1.21-7.113-1.21-10.594 0-8.096 3.556-11.804 10.67-11.804 8.323 0 12.485 4.086 15.058 16.496.757 3.632 1.362 7.415 1.362 11.123 0 8.702-3.936 12.03-10.746 12.03m16.874-25.272c-3.405-14.377-11.577-20.81-23.23-20.81-11.123 0-17.782 6.584-17.782 19.296 0 2.876.454 6.962 1.286 10.897 3.178 15.36 11.502 22.322 23.685 22.322 11.198 0 17.706-6.583 17.706-19.598 0-3.027-.757-8.248-1.665-12.107M279.353 697.962h-20.884l-2.724-15.891h17.101l-1.135-6.507H254.61l-3.935-22.095h-7.416l9.005 51h28.678c-.302-2.194-.832-4.313-1.589-6.507M318.778 697.962h-20.583l-2.573-14.68h15.513l-1.134-6.432h-15.514l-2.95-16.874h22.247c-.303-2.043-.907-4.39-1.664-6.507h-29.134l9.004 51h28.377c-.302-2.118-.907-4.54-1.589-6.507M348.4 699.021c-2.194 0-4.616-.227-6.659-.454l-3.254-18.312h6.13c7.34 0 12.181 3.935 12.181 11.35 0 5.297-3.026 7.416-8.398 7.416m2.951-22.398c2.421-2.346 4.918-6.356 6.658-11.577l3.708-11.047c-2.42-.606-5.07-.909-7.567-.909l-2.647 8.324c-1.893 5.751-4.239 10.593-6.433 13.015h-7.566l-3.784-20.96h-7.188l8.852 50.47c4.92.682 9.686 1.06 14.075 1.06 8.475 0 14.755-3.481 14.755-12.788 0-8.248-4.918-14.15-12.863-15.588" fill="#231f20"/></g></svg>