<svg xmlns="http://www.w3.org/2000/svg" viewBox="0 0 755.90533 377.94666" height="377.947" width="755.905"><defs><clipPath id="a"><path d="M0 283.46h566.929V0H0z"/></clipPath></defs><g clip-path="url(#a)" transform="matrix(1.33333 0 0 -1.33333 0 377.947)"><path d="M419.13 162.103c-3.342-7.031-9.356-12.208-17.37-14.688 2.096-2.61 4.034-5.734 5.759-9.214h15.629l4.202 23.902z" fill="#e73431"/><path d="M487.792 233.803h-23.897l4.221 23.894h23.89z" fill="#fd0"/><path d="M420.303 257.697h-23.897l-4.227-23.894h23.896l-4.202-23.9h23.904l4.214 23.9h.005l4.215 23.894z" fill="#e73431"/><path d="M368.27 233.803h-23.886l4.218 23.894h23.897zM364.96 185.99l1.928 10.98.306 1.756 1.766.245a198.848 198.848 0 0 0 17.39 1.657l1.642 9.274h-.03l4.218 23.9h-23.906l-4.204-23.9h.019l-4.212-23.913z" fill="#0069b4"/><path d="M459.67 209.901H435.78l4.202 23.902h23.908zM479.484 185.998h-23.916l4.214 23.904h23.906z" fill="#fd0"/><path d="M351.42 138.204h-23.893l4.218 23.897h23.887z" fill="#0069b4"/><path d="M470.97 138.204h-23.916l4.233 23.897h23.897zM428.926 35.665v.002H405.03l-2.282-12.937h47.825l2.28 12.935z" fill="#fd0"/><path d="M381.12 35.667v-.002h-23.908L354.93 22.73h47.812l2.275 12.937z" fill="#e73431"/><path d="M333.3 35.665h-23.887L307.13 22.73h47.789l2.285 12.935z" fill="#0069b4"/><path d="M86.231 72.8c3.412-6.662 6.337-13.164 9.535-21.128-1.679-.38-3.63-.542-5.202-.542l-8.072 17.933-5.958-5.69-2.06-11.971H69.22l6.447 36.513h5.254l-3.25-18.257h.271a189.687 189.687 0 0 0 8.235 8.994l9.48 9.534c1.41 0 4.388-.216 5.796-.596zM118.568 80.168c-.054.433-.054.596-.054.92 0 .434 0 .923.054 1.68h-.38c-.324-1.572-.487-2.167-.703-2.6l-6.827-13.598h9.914zm4.117-29.038l-1.571 11.105h-12.46l-5.526-11.105c-1.463.054-3.467.217-4.875.596 5.524 11.755 11.809 24 18.31 36.189h5.634c2.058-11.864 4.01-24.434 5.527-36.189-1.625-.434-3.252-.542-5.04-.596M149.061 84.015c-1.571 0-3.306-.163-4.768-.325l-2.329-13.11h4.389c5.254 0 8.72 2.817 8.72 8.124 0 3.794-2.166 5.31-6.012 5.31m2.112-16.035c1.734-1.68 3.523-4.55 4.769-8.288l2.654-7.911a22.772 22.772 0 0 0-5.418-.651l-1.896 5.96c-1.354 4.118-3.033 7.585-4.604 9.319h-5.419L138.551 51.4h-5.147l6.339 36.135c3.522.487 6.935.759 10.076.759 6.069 0 10.564-2.493 10.564-9.157 0-5.904-3.521-10.13-9.21-11.16M183.51 83.852c-5.96 0-8.938-3.088-10.834-12.352-.541-2.545-.866-5.091-.866-7.585 0-5.796 2.544-8.451 7.636-8.451 5.96 0 8.941 2.927 10.782 11.812.542 2.599.975 5.307.975 7.962 0 6.23-2.816 8.614-7.693 8.614m12.082-18.093c-2.439-10.295-8.29-14.9-16.632-14.9-7.966 0-12.732 4.714-12.732 13.815 0 2.058.325 4.985.921 7.8 2.275 10.999 8.235 15.983 16.957 15.983 8.018 0 12.676-4.713 12.676-14.032 0-2.166-.54-5.903-1.19-8.666M224.947 82.822c-2.167.65-5.635 1.084-7.908 1.084-5.256 0-6.989-2.22-6.989-5.579 0-6.664 13.543-6.068 13.543-16.416 0-6.61-5.527-11.05-13.435-11.05-2.98 0-7.043.484-9.699 1.732.381 1.734.923 3.358 1.573 4.66 2.708-1.247 5.85-1.843 8.94-1.843 4.984 0 7.15 2.331 7.15 5.851 0 7.583-13.49 6.665-13.49 16.36 0 7.26 5.96 10.837 13.761 10.837 2.33 0 5.58-.325 7.8-.923a20.179 20.179 0 0 0-1.246-4.713M253.059 82.822c-2.167.65-5.635 1.084-7.908 1.084-5.256 0-6.99-2.22-6.99-5.579 0-6.664 13.544-6.068 13.544-16.416 0-6.61-5.527-11.05-13.435-11.05-2.981 0-7.043.484-9.7 1.732.382 1.734.924 3.358 1.574 4.66 2.708-1.247 5.85-1.843 8.939-1.843 4.985 0 7.15 2.331 7.15 5.851 0 7.583-13.49 6.665-13.49 16.36 0 7.26 5.96 10.837 13.762 10.837 2.329 0 5.579-.325 7.8-.923a20.179 20.179 0 0 0-1.246-4.713M283.608 83.256h-14.736l-1.842-10.51h11.106l-.813-4.603h-11.105l-2.113-12.083h15.928c-.217-1.462-.65-3.142-1.193-4.658h-20.857l6.447 36.514h20.315a26.559 26.559 0 0 0-1.137-4.66M303.051 84.015c-1.57 0-3.306-.163-4.768-.325l-2.329-13.11h4.39c5.254 0 8.72 2.817 8.72 8.124 0 3.794-2.166 5.31-6.012 5.31m2.112-16.035c1.734-1.68 3.52-4.55 4.767-8.288l2.656-7.911a22.776 22.776 0 0 0-5.417-.651l-1.897 5.96c-1.354 4.118-3.033 7.585-4.604 9.319h-5.42L292.543 51.4h-5.147l6.339 36.135c3.522.487 6.935.759 10.076.759 6.067 0 10.564-2.493 10.564-9.157 0-5.904-3.522-10.13-9.21-11.16M324.878 51.401h-5.31l6.446 36.514h5.31zM361.225 83.256H346.49l-1.842-10.51h11.107l-.812-4.603h-11.107l-2.113-12.083h15.926c-.215-1.462-.648-3.142-1.19-4.658H335.6l6.445 36.514h20.32a26.741 26.741 0 0 0-1.14-4.66M392.424 84.665c-2.815 0-4.712-1.95-4.712-5.47 0-1.628.433-3.199 1.354-5.04 5.579 2.545 7.15 4.28 7.15 7.26 0 2.166-1.461 3.25-3.792 3.25m-6.122-15.549c-5.361-2.654-7.15-4.604-7.15-8.614 0-3.575 1.84-5.417 5.362-5.417 2.167 0 4.606.76 8.507 3.737-1.79 2.603-6.394 9.697-6.72 10.294m18.422-5.47a121.62 121.62 0 0 0-5.798-5.419l4.225-6.665c-1.516-.323-3.522-.595-5.091-.595l-2.925 4.443c-4.608-3.414-7.693-4.552-11.324-4.552-6.5 0-9.425 3.686-9.425 9.21 0 5.581 2.869 8.993 10.183 12.571-1.081 2.382-1.46 4.224-1.46 5.905 0 6.445 3.952 9.912 9.695 9.912 4.877 0 7.91-2.708 7.91-6.933 0-4.877-3.087-7.693-9.804-10.78.433-.706 4.007-6.285 5.904-9.048 2.33 2.002 4.98 4.658 8.235 7.964.054-.598.108-1.464.108-2.168 0-1.354-.164-2.709-.433-3.846M441.173 51.401h-19.557l6.446 36.514h5.309l-5.633-31.802h14.735a37.59 37.59 0 0 0-1.3-4.712M463.651 80.168c-.054.433-.054.596-.054.92 0 .434 0 .923.055 1.68h-.38c-.327-1.572-.488-2.167-.706-2.6l-6.825-13.598h9.912zm4.115-29.038l-1.569 11.105h-12.46L448.21 51.13c-1.46.054-3.467.217-4.873.596 5.524 11.755 11.808 24 18.31 36.189h5.633c2.062-11.864 4.01-24.434 5.529-36.189-1.627-.434-3.252-.542-5.041-.596M505.575 81.848c-2.167 1.19-5.689 1.896-8.558 1.896-6.122 0-9.86-3.521-11.485-12.46-.433-2.33-.816-4.66-.816-6.935 0-6.23 2.71-8.776 8.345-8.776 2.98 0 6.288.704 8.833 2.058.27-1.625.378-3.304.434-5.038-2.82-1.191-7.045-1.732-9.7-1.732-8.721 0-13.49 4.333-13.49 13.596 0 2.819.379 5.58.977 8.289 2.33 10.78 8.612 15.71 17.555 15.71 3.194 0 7.366-.648 9.479-1.788-.327-1.462-.975-3.25-1.573-4.82M526.645 72.8c3.412-6.662 6.337-13.164 9.535-21.128-1.679-.38-3.631-.542-5.202-.542l-8.07 17.933-5.962-5.69-2.058-11.971h-5.254l6.445 36.513h5.256l-3.248-18.257h.269a190.763 190.763 0 0 0 8.235 8.994l9.48 9.534c1.409 0 4.388-.216 5.798-.596zM91.187 108.362H78.23l7.272 41.12H46.765l-7.272-41.12H26.535l15.734 89.11h12.956l-6.479-36.489h38.74l6.477 36.49h12.956zM162.45 187.557c-14.542 0-21.814-7.536-26.443-30.144-1.32-6.214-2.114-12.428-2.114-18.51 0-14.146 6.213-20.625 18.641-20.625 14.543 0 21.815 7.14 26.311 28.823 1.322 6.346 2.38 12.956 2.38 19.435 0 15.205-6.876 21.021-18.775 21.021m29.483-44.158c-5.949-25.12-20.228-36.359-40.589-36.359-19.434 0-31.069 11.502-31.069 33.713 0 5.025.793 12.165 2.247 19.04 5.552 26.84 20.097 39.002 41.383 39.002 19.566 0 30.937-11.502 30.937-34.242 0-5.289-1.322-14.412-2.909-21.154M271.394 186.104h-36.49l-4.759-27.766h29.88l-1.984-11.37h-29.879l-6.876-38.604H208.33l15.734 89.109h50.107c-.527-3.833-1.453-7.536-2.776-11.37M340.28 186.104h-35.963l-4.495-25.65h27.105l-1.982-11.238h-27.107l-5.157-29.483h38.873c-.529-3.57-1.585-7.67-2.907-11.37h-50.905l15.733 89.11h49.581c-.527-3.701-1.584-7.932-2.776-11.37M392.038 187.954c-3.833 0-8.065-.397-11.635-.793l-5.686-31.996h10.709c12.825 0 21.285 6.875 21.285 19.831 0 9.255-5.287 12.958-14.673 12.958m5.156-39.135c4.23-4.099 8.593-11.105 11.633-20.228l6.479-19.302c-4.23-1.059-8.858-1.588-13.221-1.588l-4.625 14.544c-3.308 10.048-7.407 18.508-11.24 22.74H373l-6.612-36.622h-12.56l15.468 88.184c8.594 1.192 16.924 1.852 24.592 1.852 14.808 0 25.78-6.082 25.78-22.344 0-14.412-8.592-24.724-22.474-27.236" fill="#1d1d1b"/></g></svg>