<svg xmlns="http://www.w3.org/2000/svg" height="366" width="268"><rect id="backgroundrect" width="100%" height="100%" x="0" y="0" fill="none" stroke="none"/><g class="currentLayer"><title>Layer 1</title><path d="M77.68418652343752,65.43607153320312 c-0.6800000000000002,1.02 -1.33,1.9540000000000002 -1.998,2.747 c-2,2.104 -5.789,3.462 -9.623,3.584 a1.455,1.455 0 0 1 -0.405,-0.04300000000000001 v-4.505 v-4.331 a1.54,1.54 0 0 0 0.024000000000000004,-0.25 c0.06600000000000002,-0.6140000000000001 0.14800000000000002,-1.068 0.20400000000000001,-1.346 c0.05000000000000001,-0.29400000000000004 0.08300000000000002,-0.509 0.08300000000000002,-0.6470000000000001 l1.397,-8.387 c1.173,-7.122 1.944,-14.307 1.944,-15.498 c0,-1.8900000000000001 -0.6650000000000001,-2.27 -1.988,-2.27 c-0.537,0.005000000000000001 -1.09,0.35800000000000004 -1.665,0.971 v0.006000000000000002 l0.0020000000000000005,-0.003000000000000001 v-4.065 h-0.0020000000000000005 v1.9929999999999999 l0.0020000000000000005,-1.9929999999999999 c0.10500000000000001,-0.09400000000000003 0.22700000000000004,-0.19000000000000003 0.3430000000000001,-0.28800000000000003 c2.122,-1.6620000000000001 4.914,-2.093 6.636,-2.093 c0.9480000000000001,0 1.7510000000000001,0.22600000000000003 2.332,0.77 c0.5980000000000001,0.558 0.8530000000000001,1.339 0.8530000000000001,2.254 c0.007000000000000002,0.7530000000000001 -0.27,2.542 -0.6760000000000002,5.383 l-1.18,8.464 c-0.16000000000000003,1.174 -0.35400000000000004,2.271 -0.51,3.3 c-0.14300000000000002,1.048 -0.253,1.8 -0.33100000000000007,2.2880000000000003 c-0.07200000000000001,0.47000000000000003 -0.17700000000000002,1.209 -0.32700000000000007,2.177 c-0.14400000000000002,0.976 -0.35400000000000004,2.388 -0.6530000000000001,4.283 c-0.42100000000000004,3.007 -0.6490000000000001,4.945 -0.6490000000000001,5.837 c0,0.9640000000000001 0.10600000000000001,1.501 0.46,2.05 c0.37000000000000005,0.5700000000000001 0.992,0.05500000000000001 1.7850000000000001,-0.255 c1.068,-0.803 2.497,-3.606 3.9699999999999998,-7.15 l-0.028000000000000004,7.017 zm-12.026,27.158 v-0.0020000000000000005 a345.077,345.077 0 0 1 12.026,-5.377 l-0.08200000000000002,-10.407 a425.948,425.948 0 0 0 -11.943,4.535 l-0.0010000000000000002,5.515 v0.22000000000000003 l0.0010000000000000002,5.514 l-0.0010000000000000002,0.0020000000000000005 m0,-25.376 l0.0010000000000000002,-4.33 l-0.0010000000000000002,0.011000000000000003 v4.319 m0,4.504 h-0.004000000000000001 l0.004000000000000001,-4.504 v4.504 m0,-36.262 l-0.004000000000000001,0.003000000000000001 l0.004000000000000001,-2.072 v-1.9929999999999999 h-0.004000000000000001 c-3.208,2.742 -4.886,7.261 -7.433,10.751 c0.07100000000000001,-0.7530000000000001 -0.14500000000000002,0.17200000000000001 0.19300000000000003,-3.063 c0.262,-2.5700000000000003 0.35600000000000004,-4.232 0.35600000000000004,-5.018 c0,-1.645 -0.6100000000000001,-2.46 -1.818,-2.465 c-0.6910000000000002,0 -2.016,0.41500000000000004 -3.983,1.274 c-2.443,0.9580000000000001 -4.16,1.734 -5.168,2.3040000000000003 c-0.11000000000000001,0.05000000000000001 -0.20400000000000001,0.10500000000000001 -0.29900000000000004,0.15500000000000003 v1.85 c0.17200000000000001,-0.05500000000000001 0.4,-0.15500000000000003 0.6820000000000002,-0.30400000000000005 c0.7530000000000001,-0.42100000000000004 1.44,-0.6100000000000001 2.083,-0.6160000000000001 c1.45,0 2.188,1.246 2.188,3.744 c0,1.047 -0.06700000000000002,2.466 -0.22300000000000003,4.243 c-0.8360000000000001,10.419 -2.685,20.778 -4.73,30.957 v3.464 c1.9460000000000002,-0.7370000000000001 5.923,-2.26 5.982,-2.582 c1.4300000000000002,-7.672000000000001 2.826,-24.598 6.792,-31.64 c1.999,-3.553 3.77,-7.268 5.381,-8.986 v-0.006000000000000002 m0,27.44 l-0.05300000000000001,0.263 c-0.04000000000000001,0.22800000000000004 -0.09000000000000002,0.51 -0.14900000000000002,0.8200000000000001 c-0.05600000000000001,0.266 -0.15600000000000003,0.8250000000000001 -0.30500000000000005,1.6840000000000002 l-0.38200000000000006,2.305 c-0.11700000000000002,0.7140000000000001 -0.17800000000000002,1.2570000000000001 -0.17800000000000002,1.6380000000000001 c0,1.225 0.36000000000000004,1.94 1.064,2.111 l0.004000000000000001,-4.503 v-4.319 m0,23.959 v0.22000000000000003 l-0.004000000000000001,-5.735 a373.72,373.72 0 0 0 -18.152,7.742 v12.614 a375.199,375.199 0 0 1 18.155,-9.106 v-0.003000000000000001 l-0.004000000000000001,0.0010000000000000002 l0.004000000000000001,-5.734 m-18.586,15.073 v-12.647 l0.43100000000000005,-0.19800000000000004 v12.614 l-0.43100000000000005,0.23 m0,-23.085 v-1.477 l0.010000000000000002,-0.06300000000000001 l0.42000000000000004,-2.094 v3.468 l-0.43000000000000005,0.16600000000000004 m0,-41.637 v-1.572 c0.11700000000000002,-0.10600000000000001 0.261,-0.20700000000000002 0.43000000000000005,-0.30000000000000004 v1.85 a0.7240000000000001,0.7240000000000001 0 0 1 -0.21400000000000002,0.04500000000000001 a0.9660000000000001,0.9660000000000001 0 0 1 -0.21700000000000003,-0.023000000000000007 m0,-28.277 v-8.868 c0.14500000000000002,-0.020000000000000004 0.28900000000000003,-0.03400000000000001 0.43100000000000005,-0.04400000000000001 v5.773 a668.487,668.487 0 0 0 -0.43000000000000005,3.14 m0.43000000000000005,-3.14 a241.9,241.9 0 0 1 0.8600000000000001,-5.773 a5.115,5.115 0 0 0 -0.8600000000000001,0 v5.773 m-0.43000000000000005,-5.73 v8.870000000000001 c-0.6320000000000001,4.678 -1.237,9.455 -1.8840000000000001,13.56 c-0.56,3.56 -1.534,8.845 -2.188,16.106 c-1.119,12.38 -2.25,32.265 -9.073,42.102 c-2.287,3.302 -5.871,5.7170000000000005 -9.455,7.755 v-7.67 c0.18300000000000002,-0.15000000000000002 0.36000000000000004,-0.30600000000000005 0.52,-0.45 c9.948,-9.338000000000001 9.428,-29.511 11.223,-43.403 c1.229,-9.5 2.624,-18.551 4.392,-27.89 c-2.36,0.454 -5.34,0.7480000000000001 -7.46,1.186 c-3.684,0.7650000000000001 -5.07,0.46 -8.675,1.984 v-6.959 c4.708,-1.8330000000000002 11.255,-2.015 15.97,-3.145 c1.6400000000000001,-0.38700000000000007 4.235,-1.7480000000000002 6.63,-2.045 m0,35.573 c-0.29000000000000004,0.256 -0.43300000000000005,0.549 -0.43300000000000005,0.8750000000000001 c0,0.404 0.138,0.6300000000000001 0.43200000000000005,0.6970000000000002 v-1.572 m0,41.732 l-0.277,1.582 l0.277,-0.10500000000000001 v-1.477 m0,11.916 v12.647 a380.387,380.387 0 0 0 -22.6,13.172 V100.85707153320311 c7.143,-4.09 14.708,-7.946 22.6,-11.573 m-22.598,25.82 v-14.245 c-6.83,3.916 -13.262,8.042 -19.188,12.39 c0.26,6.686 -5.76,13.964 -4.535,18.019 a402.779,402.779 0 0 1 23.723,-16.163 m0,-109.85 l-0.10600000000000001,0.04000000000000001 c-4.027,1.606 -4.691,1.456 -9.571,5.222 c-3.529,2.736 -3.435,5.235 -2.404,9.434 c1.905,-1.911 4.204,-3.629 6.597,-4.97 c2.343,-1.312 4.083,-2.177 5.484,-2.763 v-6.963 m0,75.531 c-3.928,3.112 -14.28,6.441 -16.723,4.286 c-1.357,-1.184 -2.055,-2.515 -2.055,-4.116 c0,-1.467 2.449,-9.138 -2.692,-2.16 c-1.212,1.6460000000000001 -1.772,3.291 -2.436,4.798 c-0.5930000000000001,1.362 -0.5650000000000001,2.697 -0.5650000000000001,3.982 c0,1.9660000000000002 0.6700000000000002,3.368 1.7890000000000001,4.542 c1.534,1.594 4.6850000000000005,1.828 8.064,1.6620000000000001 c2.891,-0.14400000000000002 6.525,-0.9530000000000001 10.962,-3.335 c1.18,-0.6300000000000001 2.415,-1.29 3.656,-1.988 v-7.671 " fill="#e3000f" id="svg_1" class=""/><path d="M155.84518652343752,24.791071533203137 c-1.6280000000000001,2.11 -2.614,4.846 -3.5060000000000002,7.094 c-1.102,2.787 -1.6340000000000001,10.813 3.13,10.813 c0.133,0.005000000000000001 0.26,0 0.38800000000000007,-0.017000000000000005 l-0.010000000000000002,4.077 c-4.076,1.02 -6.656000000000001,-0.8840000000000001 -8.016,-3.816 v-12.551 c0.44500000000000006,-1.5230000000000001 0.9630000000000001,-3.002 1.75,-4.63 c1.375,-2.832 3.6340000000000003,-5.7170000000000005 5.888,-7.213 c0.15000000000000002,-0.09500000000000003 0.29400000000000004,-0.19400000000000003 0.43300000000000005,-0.278 l-0.05600000000000001,6.52 zm-8.015,39.064 v-7.67 a880.812,880.812 0 0 1 8.154,-1.8940000000000001 l-0.139,7.55 c-2.6180000000000003,0.6550000000000001 -5.317,1.324 -8.015,2.014 m0,-39.548 c0.12200000000000001,-0.41800000000000004 0.20600000000000002,-0.8480000000000001 0.266,-1.255 c0.134,-0.6990000000000002 0.15000000000000002,-1.363 0.11700000000000002,-2.144 c-0.020000000000000004,-0.44200000000000006 -0.22300000000000003,-0.914 -0.38300000000000006,-1.225 v4.6240000000000006 m0,18.635 a10.93,10.93 0 0 1 -0.3980000000000001,-0.98 v-10.143 c0.13,-0.48400000000000004 0.26,-0.9580000000000001 0.3980000000000001,-1.428 v12.551 m0,-23.26 v4.625 c-0.10300000000000001,0.35000000000000003 -0.232,0.6930000000000002 -0.3980000000000001,1.01 v-6.204 c0.10500000000000001,0.1 0.18800000000000003,0.21000000000000002 0.26,0.32200000000000006 c0.036000000000000004,0.06000000000000001 0.08400000000000002,0.14500000000000002 0.138,0.24800000000000003 m0,36.503 v7.6690000000000005 l-0.3980000000000001,0.10200000000000001 v-7.6770000000000005 l0.3980000000000001,-0.09400000000000003 m-22.482,13.886 v-8.202 c3.27,-0.8820000000000001 6.536,-1.7400000000000002 9.787,-2.571 v7.947 a594.22,594.22 0 0 0 -9.787,2.826 m0,-15.543 v-16.336 c0.502,-0.972 0.786,-1.6590000000000003 0.786,-1.931 c0.006000000000000002,-0.3490000000000001 0.18300000000000002,-8.614 0.277,-8.247 c0.17200000000000001,0.7200000000000001 -0.24700000000000003,2.145 -1.063,3.99 v5.274 c0.7320000000000001,-5.099 1.096,-8.454 1.096,-10.029 c0,-1.48 -0.18800000000000003,-1.6900000000000002 -0.6420000000000001,-2.454 c-0.15500000000000003,-0.261 -0.31200000000000006,-0.51 -0.454,-0.7500000000000001 v-2.44 c0.278,-0.23700000000000002 0.6800000000000002,-0.47000000000000003 1.235,-0.6980000000000002 c1.584,-0.6500000000000001 2.919,-0.8800000000000001 3.932,-0.8800000000000001 c0.793,0 1.347,0.24200000000000002 1.6340000000000001,0.6960000000000002 c0.31600000000000006,0.49300000000000005 0.42800000000000005,1.3090000000000002 0.47200000000000003,2.443 c0.06600000000000002,1.546 0.04400000000000001,2.3 -0.30000000000000004,4.609 c0.915,-1.4340000000000002 1.945,-2.848 2.814,-3.773 v4.239 c-0.31000000000000005,0.42000000000000004 -0.6150000000000001,0.8800000000000001 -0.908,1.3900000000000001 c-0.986,1.7400000000000002 -1.8,4.3260000000000005 -2.46,6.63 c-0.6650000000000001,2.354 -1.296,5.556 -1.9,9.632 c-0.11600000000000002,0.793 -0.29300000000000004,1.94 -0.514,3.412 c-0.11700000000000002,0.9580000000000001 -0.233,1.717 -0.36000000000000004,2.271 l-0.20500000000000002,1.618 l-3.44,1.334 m22.084,9.433 v-7.682 a718.536,718.536 0 0 0 -12.297,3.024 v7.943 a606.101,606.101 0 0 1 12.297,-3.285 m0,-44.843 v-0.006000000000000002 c-0.29900000000000004,-0.28800000000000003 -0.786,-0.532 -1.6780000000000002,-0.532 c-2.593,0 -5.112,0.6260000000000001 -7.943,2.958 c-1.258,1.047 -1.53,1.3010000000000002 -2.532,2.3200000000000003 l-0.14400000000000002,0.15000000000000002 v4.227 c1.784,-2.398 3.938,-3.4290000000000003 6.392,-3.74 c1.085,-0.126 1.358,-0.11500000000000002 1.58,1.02 c0.08200000000000002,0.43300000000000005 1.201,1.2850000000000001 1.854,1.29 c0.6540000000000001,0.006000000000000002 1.452,-0.19300000000000003 1.9060000000000001,-0.6860000000000002 c0.22800000000000004,-0.23900000000000002 0.41000000000000003,-0.515 0.5650000000000001,-0.804 v-6.197 m0,12.7 l-0.30600000000000005,1.18 c-0.7130000000000001,2.7590000000000003 -0.6690000000000002,6.187 0.30600000000000005,8.962 v-10.142 m-22.084,-10.214 v2.44 c-0.544,-0.92 -0.8620000000000001,-1.706 0,-2.44 m0,10.4 v5.274 c-0.11000000000000001,0.7650000000000001 -0.22800000000000004,1.568 -0.35400000000000004,2.411 l-0.7480000000000001,4.609 v10.656 l1.102,-0.42600000000000005 v-16.336 a45.571,45.571 0 0 1 -1.102,1.99 v-5.893 a43.89,43.89 0 0 0 1.102,-2.286 m0,29.866 v8.202 c-0.36800000000000005,0.11100000000000002 -0.7360000000000001,0.22000000000000003 -1.102,0.3320000000000001 v-8.236 l1.102,-0.29800000000000004 m-2.205,8.872 l1.103,-0.3320000000000001 v-8.242 l-1.103,0.30000000000000004 v8.274000000000001 m0,-15.37 v-4.635 a61.8,61.8 0 0 0 0.12200000000000001,-0.6000000000000001 c0.133,-0.7150000000000001 0.466,-2.6590000000000003 0.98,-5.838 v10.656 l-1.07,0.405 l-0.03200000000000001,0.013000000000000003 m0,-13.362 v-5.684 c0.3950000000000001,-0.7020000000000001 0.7640000000000001,-1.385 1.103,-2.037 v5.893 c-0.3340000000000001,0.5700000000000001 -0.7030000000000001,1.184 -1.103,1.828 m0,-5.684 v5.684 c-2.133,3.44 -5.127,7.774 -8.051,11.238 v-4.792 c2.862,-3.692 5.856,-8.227 8.05,-12.13 m0,14.41 c-0.274,1.3330000000000002 -0.535,2.4130000000000003 -0.79,3.244 c-0.20500000000000002,0.47000000000000003 -0.31100000000000005,0.8200000000000001 -0.31100000000000005,1.064 c0,0.3380000000000001 0.16000000000000003,0.51 0.48700000000000004,0.51 c0.11200000000000002,0 0.30800000000000005,-0.06200000000000001 0.6150000000000001,-0.18200000000000002 v-4.635 m0,11.73 v8.274000000000001 a468.668,468.668 0 0 0 -8.051,2.5140000000000002 v-8.535 c2.686,-0.77 5.369,-1.52 8.05,-2.253 m-8.05,-27.496 v-12.71 c0.7200000000000001,0.19100000000000003 1.32,0.6250000000000001 1.81,1.304 c0.7020000000000001,0.9600000000000001 1.046,2.16 1.046,3.579 c0,1.972 -0.6870000000000002,4.154 -2.054,6.58 c-0.254,0.41900000000000004 -0.521,0.8350000000000001 -0.802,1.247 m0,-12.71 v12.71 a28.79,28.79 0 0 1 -2.855,3.545 v-5.59 c0.6590000000000001,-1.057 1.146,-2.076 1.346,-2.98 c0.43200000000000005,-1.8770000000000002 0.233,-3.002 -0.8590000000000001,-3.235 a1.565,1.565 0 0 0 -0.48700000000000004,-0.026000000000000006 v-4.128 c0.6920000000000002,-0.27 1.346,-0.41000000000000003 1.9500000000000002,-0.41000000000000003 c0.32000000000000006,0 0.6230000000000001,0.038000000000000006 0.905,0.11400000000000002 m0,26.195 v4.792 a42.44,42.44 0 0 1 -2.855,3.097 v-4.453 a59.61,59.61 0 0 0 2.855,-3.436 m0,16.264 v8.535 c-0.9530000000000001,0.30800000000000005 -1.905,0.6190000000000001 -2.855,0.931 v-8.64 c0.9510000000000001,-0.278 1.903,-0.553 2.855,-0.8260000000000001 m-16.835,14.319 v-9.251 c0.8300000000000001,-0.263 1.6640000000000001,-0.525 2.498,-0.786 v9.135 c-0.8340000000000001,0.29700000000000004 -1.6670000000000003,0.5980000000000001 -2.498,0.902 m0,-25.107 v-1.17 c0.036000000000000004,0.27 0.07500000000000001,0.539 0.12100000000000001,0.803 c0.014000000000000002,0.08200000000000002 -0.04600000000000001,0.21900000000000003 -0.12000000000000001,0.36700000000000005 m0,-1.224 c0.24600000000000002,1.6820000000000002 0.6770000000000002,3.107 1.294,4.275 c0.35500000000000004,0.6920000000000002 0.7600000000000001,1.2570000000000001 1.203,1.706 v-22.755 v-0.005000000000000001 a39.967,39.967 0 0 0 -1.7680000000000002,5.35 a31.824,31.824 0 0 0 -0.7300000000000001,3.8770000000000002 v7.551 m0,-7.665 v-0.92 a27.6,27.6 0 0 0 0.24300000000000002,-1.12 c0.012000000000000002,-0.06000000000000001 -0.11800000000000002,0.7510000000000001 -0.24300000000000002,2.04 m0,-21.882 v-5.96 c0.929,-0.15400000000000003 1.802,-0.32000000000000006 2.498,-0.48600000000000004 v5.062 c-0.41000000000000003,0.5880000000000001 -0.7470000000000001,1.047 -0.792,1.053 c-0.38200000000000006,0.09200000000000003 -0.988,0.20700000000000002 -1.706,0.33100000000000007 m13.98,51.026 v-8.646 a602.013,602.013 0 0 0 -11.482,3.461 v9.13 a519.483,519.483 0 0 1 11.482,-3.9450000000000003 m0,-51.623 v-0.006000000000000002 c-0.6260000000000001,0.24400000000000002 -1.29,0.5980000000000001 -1.9889999999999999,1.058 c-1.5950000000000002,1.052 -3.074,2.354 -4.453,3.888 c-1.6,1.855 -2.963,3.956 -4.099,6.3100000000000005 c-0.3320000000000001,0.6910000000000002 -0.6470000000000001,1.4 -0.9410000000000001,2.12 v22.755 c0.8250000000000001,0.8300000000000001 1.811,1.251 2.936,1.245 c1.024,0 3.8200000000000003,-0.276 5.527,-1.212 c0.908,-0.51 1.933,-1.33 3.019,-2.3770000000000002 v-4.458 c-1.49,1.645 -2.841,2.87 -3.888,3.423 c-1.5790000000000002,0.8300000000000001 -2.6310000000000002,-0.08800000000000002 -3.568,-1.6620000000000001 c-0.9410000000000001,-1.5670000000000002 -1.423,-3.783 -1.423,-6.674 c0,0.254 0.028000000000000004,-0.466 0.08400000000000002,-2.172 c2.436,-0.991 4.752,-2.493 6.973,-4.508 a41.09,41.09 0 0 0 1.822,-1.778 v-5.59 c-2.005,3.1470000000000002 -5.667,6.531 -8.47,7.368 c-0.6080000000000001,-0.8750000000000001 0.788,-5.18 1.669,-7.062 c0.6470000000000001,-1.419 4.27,-6.382 6.8,-6.547 v-4.121 m-11.481,-0.788 c0.6920000000000002,-0.996 1.606,-2.365 1.7550000000000001,-2.664 c0.6540000000000001,-1.229 0.975,-2.01 0.981,-2.332 c0.017000000000000005,-0.6360000000000001 -0.15000000000000002,-1.102 -0.5760000000000001,-1.123 c-0.12200000000000001,0 -0.32700000000000007,0.3320000000000001 -0.7530000000000001,0.5980000000000001 c-0.24400000000000002,0.14800000000000002 -0.7480000000000001,0.31000000000000005 -1.407,0.46 v5.061 m-2.498,-4.575 v5.96 c-1.867,0.32400000000000007 -4.48,0.7170000000000001 -5.777,0.9530000000000001 V8.737071533203107 c1.019,-1.3900000000000001 1.6720000000000002,-2.078 1.965,-2.078 c0.3400000000000001,0.017000000000000005 0.506,0.278 0.49400000000000005,0.7600000000000001 l-0.1,0.6200000000000001 a69.7,69.7 0 0 0 -1.002,5.151 l-0.533,3.113 c-0.016000000000000004,0.08300000000000002 -0.11600000000000002,0.8860000000000001 -0.23800000000000002,1.6 c1.332,-0.138 3.37,-0.3980000000000001 5.191,-0.7030000000000001 m0,26.921 v0.92 c-0.18700000000000003,1.9420000000000002 -0.35900000000000004,4.966 0,7.72 v1.17 c-0.10700000000000001,0.21000000000000002 -0.24700000000000003,0.44300000000000006 -0.25,0.5690000000000001 c-0.016000000000000004,0.56 -3.169,5.66 -5.527,7.8100000000000005 v-4.603 c2.472,-3.252 4.785,-9.397 5.777,-13.586 m0,1.035 a31.677,31.677 0 0 0 -0.24400000000000002,3.883 c0,1.334 0.08100000000000002,2.557 0.24400000000000002,3.668 v-7.551 m0,24.631 v9.25 a368.265,368.265 0 0 0 -5.777,2.166 v-9.538 a495.932,495.932 0 0 1 5.777,-1.8780000000000001 m-14.393,14.818 a476.263,476.263 0 0 1 8.616,-3.402 v-9.543 a529.353,529.353 0 0 0 -8.616,2.918 v10.027 m0,-18.968 c0.13,0.037000000000000005 0.266,0.05600000000000001 0.40700000000000003,0.05700000000000001 c1.7890000000000001,0.03300000000000001 4.62,-0.775 7.578,-2.8680000000000003 a5.58,5.58 0 0 0 0.6300000000000001,-0.516 v-4.603 c-0.77,1.014 -1.55,1.7400000000000002 -2.3200000000000003,2.05 c-1.275,0.49200000000000005 -1.939,-0.8920000000000001 -1.851,-3.806 c0.03400000000000001,-1.24 0.47200000000000003,-5.328 1.33,-12.247 l1.113,-8.568 l0.992,-7.833 c0.17200000000000001,-1.372 0.43800000000000006,-2.669 0.526,-3.146 l0.21000000000000002,-0.038000000000000006 v-15.382 a69.928,69.928 0 0 0 -1.35,1.9500000000000002 l-2.826,4.154 c-0.28300000000000003,0.41000000000000003 -0.3440000000000001,2.924 -0.6150000000000001,3.2960000000000003 c-0.14400000000000002,0.21600000000000003 -1.101,0.18800000000000003 -1.933,0.48200000000000004 l-1.891,2.712 v4.048 c0.908,-0.11800000000000002 1.836,-0.21800000000000003 2.7560000000000002,-0.38500000000000006 l-1.054,6.735 c-0.39300000000000007,2.55 -0.978,6.702 -1.702,12.494 v-3.68 c0.3980000000000001,-1.3820000000000001 0.6800000000000002,-2.45 0.8,-3.047 c-0.09900000000000003,1.1400000000000001 -0.43700000000000006,3.984 -0.8,6.904 v21.237 m0,-44.306 v4.048 c-0.27,0.036000000000000004 -0.536,0.07300000000000001 -0.8,0.11400000000000002 v-3.014 l0.8,-1.1480000000000001 m0,19.212 v3.68 c-0.17300000000000001,1.3800000000000001 -0.35300000000000004,2.851 -0.541,4.416 l-0.26,2.1 v14.39 c0.24500000000000002,0.256 0.51,0.42500000000000004 0.8,0.508 v-21.237 c-0.28700000000000003,2.313 -0.5900000000000001,4.673 -0.8,6.273 v-7.45 c0.30000000000000004,-0.978 0.5700000000000001,-1.8810000000000002 0.8,-2.68 m0,34.035 v10.027 l-0.8,0.32600000000000007 V74.85707153320311 l0.8,-0.278 m-1.367,10.59 l0.5680000000000001,-0.23 V74.85707153320311 l-0.5680000000000001,0.2 v10.113 m0,-20.851 v-8.855 l0.5680000000000001,-4.724 v14.39 a3.246,3.246 0 0 1 -0.527,-0.7360000000000001 c-0.014000000000000002,-0.026000000000000006 -0.028000000000000004,-0.05000000000000001 -0.04000000000000001,-0.07500000000000001 m0,-10.646 v-8.627 c0.19700000000000004,-0.6300000000000001 0.38700000000000007,-1.24 0.5670000000000001,-1.822 v7.45 a81.055,81.055 0 0 1 -0.256,1.86 c-0.010000000000000002,0.07800000000000001 -0.11800000000000002,0.49000000000000005 -0.31200000000000006,1.1400000000000001 m0,-28.004 c0.11000000000000001,-0.06500000000000002 0.23800000000000002,-0.11800000000000002 0.39000000000000007,-0.138 l0.17800000000000002,-0.03300000000000001 v-3.02 l-0.22200000000000003,0.31100000000000005 c-0.11400000000000002,0.16400000000000003 -0.231,0.3440000000000001 -0.3460000000000001,0.528 v2.352 m0,-2.352 v2.352 c-0.27,0.15600000000000003 -0.42400000000000004,0.38200000000000006 -0.529,0.38200000000000006 c-0.36000000000000004,-0.005000000000000001 -0.51,-0.18800000000000003 -0.49900000000000005,-0.5650000000000001 c0.010000000000000002,-0.3360000000000001 0.49700000000000005,-1.3170000000000002 1.028,-2.169 m0,21.728 v8.627 c-0.6930000000000002,2.324 -2.486,7.6930000000000005 -4.883,11.757 l0.07100000000000001,-7.007 c1.725,-4.086 3.482,-9.178 4.812,-13.377 m0,10.418 l-0.19700000000000004,1.641 c-0.21100000000000002,1.7400000000000002 -0.3390000000000001,3.135 -0.36600000000000005,4.226 c-0.037000000000000005,1.191 0.138,2.196 0.5630000000000001,2.988 v-8.855 m0,19.593 v10.113 c-1.622,0.6640000000000001 -3.239,1.35 -4.856,2.04 l0.04400000000000001,-10.403 a240.841,240.841 0 0 1 4.812,-1.75 " fill="#e3000f" id="svg_2" class=""/><path d="M234.00618652343752,11.791071533203137 c-0.37100000000000005,-0.12300000000000001 -0.936,-0.21200000000000002 -1.5110000000000001,-0.26 v3.489 c0.49700000000000005,0.05400000000000001 1.008,0.138 1.516,0.265 l-0.005000000000000001,-3.494 zm-1.593,34.637 v-6.062 l0.08200000000000002,-0.012000000000000002 v6.06 l-0.08200000000000002,0.014000000000000002 m0,-11.826 v-2.34 l0.05400000000000001,-0.6090000000000001 l0.028000000000000004,-0.27 v3.598 a4.58,4.58 0 0 1 -0.08200000000000002,-0.37900000000000006 m0,-4.533 v-4.187 l0.08200000000000002,-0.17800000000000002 v4.243 l-0.08200000000000002,0.12200000000000001 m0,-15.059 v-3.487 l0.08200000000000002,0.007000000000000002 v3.49 l-0.08200000000000002,-0.010000000000000002 m1.593,6.224 c-0.06000000000000001,0.44300000000000006 -0.19300000000000003,0.8800000000000001 -0.33100000000000007,1.324 a30.295,30.295 0 0 1 -1.18,3.146 v4.243 l0.22600000000000003,-0.35000000000000003 c-0.028000000000000004,0.277 -0.09400000000000003,0.30500000000000005 -0.22600000000000003,1.7850000000000001 v3.6 c0.24300000000000002,0.8980000000000001 0.7630000000000001,1.468 1.5230000000000001,1.6950000000000003 l-0.011000000000000003,-15.443 m0,24.91 l0.139,-6.022 c-0.543,0.07700000000000001 -1.097,0.16100000000000003 -1.6500000000000001,0.23900000000000002 v6.053 c0.509,-0.09400000000000003 1.024,-0.17700000000000002 1.5110000000000001,-0.27 m-1.593,-34.62 v3.486 a10.713000000000001,10.713000000000001 0 0 0 -1.1,-0.05700000000000001 c-2.558,0.006000000000000002 -4.353,0.6150000000000001 -5.4,1.8330000000000002 c-1.163,1.369 -2.083,3.08 -2.774,5.157 c-0.7490000000000001,2.149 -1.12,4.154 -1.12,6.043 c0,1.6110000000000002 0.21000000000000002,2.754 0.6650000000000001,3.423 c0.47000000000000003,0.7150000000000001 1.186,1.07 2.1550000000000002,1.07 c1.024,0 2.166,-0.44400000000000006 3.44,-1.346 c1.246,-0.8870000000000001 2.282,-2 3.118,-3.297 c0.3480000000000001,-0.5790000000000001 0.6880000000000002,-1.227 1.016,-1.9540000000000002 v4.187 c-2.7520000000000002,4.183 -6.579,7.378 -12.514,7.378 c-1.059,0.005000000000000001 -1.856,-0.6700000000000002 -2.416,-1.9889999999999999 c-0.3440000000000001,-0.786 -0.5930000000000001,-1.722 -0.7370000000000001,-2.786 v-5.5 c0.04500000000000001,-0.43800000000000006 0.09500000000000003,-0.8590000000000001 0.15500000000000003,-1.24 l-0.15500000000000003,0.28 v0.8760000000000001 c0.454,-4.187 1.923,-8.308 5.046,-11.243 c2.25,-2.11 4.017,-3.059 6.281,-3.855 c1.334,-0.458 2.895,-0.5770000000000001 4.34,-0.467 m0,20.738 c-0.04400000000000001,0.523 -0.08000000000000002,0.985 -0.08000000000000002,1.381 c0.004000000000000001,0.35000000000000003 0.03200000000000001,0.6690000000000002 0.08000000000000002,0.9600000000000001 v-2.34 m0,8.104 v6.062 c-5.283,0.931 -10.503,1.864 -15.667,2.805 v-6.535 a837.868,837.868 0 0 1 15.667,-2.332 m-27.417,11.056 v-0.007000000000000002 a1967.6,1967.6 0 0 1 11.75,-2.182 v-6.536 c-3.777,0.5870000000000001 -7.698,1.23 -11.748,1.923 l-0.003000000000000001,3.398 v0.003000000000000001 l0.003000000000000001,3.4 h-0.003000000000000001 m0,-12.106 v-1.3800000000000001 l0.003000000000000001,1.3780000000000001 l-0.003000000000000001,0.0020000000000000005 m0,-21.437 v-3.816 h0.003000000000000001 v3.815 l-0.003000000000000001,0.0010000000000000002 m11.751,8.335 v-0.006000000000000002 c-2.704,4.559 -8.087,9.705 -11.748,10.353 v2.753 l0.32700000000000007,-0.11700000000000002 c2.005,-0.6920000000000002 3.135,-1.1680000000000001 4.99,-2.243 c0.7430000000000001,-0.42100000000000004 4.082,-3.55 6.287,-5.75 c-0.04000000000000001,-1.379 0.022000000000000006,-2.79 0.14400000000000002,-4.031 v5.5 c-0.11000000000000001,-0.77 -0.16500000000000004,-1.601 -0.171,-2.52 c0,-1.01 0.06000000000000001,-2.039 0.171,-3.064 v-0.8760000000000001 m-11.748,-8.335 a11.164,11.164 0 0 1 2.603,-1.053 c1.308,-0.3480000000000001 1.9,-0.254 2.731,0.11600000000000002 c0.8200000000000001,0.36700000000000005 0.997,0.7260000000000001 0.992,1.357 c0,1.08 1.075,1.3960000000000001 1.883,1.247 c0.41600000000000004,-0.07700000000000001 0.8860000000000001,-0.48700000000000004 1.251,-0.7360000000000001 c0.32800000000000007,-0.4 1.307,-1.407 1.518,-1.972 c0.43800000000000006,-1.224 0.23800000000000002,-1.933 0.06100000000000001,-2.471 c-0.21000000000000002,-0.6530000000000001 -0.3480000000000001,-1.235 -1.036,-1.629 c-0.6700000000000002,-0.38700000000000007 -1.6,-0.56 -2.724,-0.5640000000000001 c-1.923,0 -4.039,0.5700000000000001 -6.354,1.478 c-0.31600000000000006,0.128 -0.6260000000000001,0.26 -0.925,0.41000000000000003 v3.817 m-0.003000000000000001,-3.815 v3.816 c-5.909,3.347 -7.83,11.731 -4.567,16.683 c1.086,1.6500000000000001 2.237,2.231 4.215,2.043 c0.10500000000000001,-0.010000000000000002 0.22700000000000004,-0.027000000000000007 0.35000000000000003,-0.05000000000000001 l0.0020000000000000005,1.3800000000000001 v1.3800000000000001 c-2.093,0.6580000000000001 -4.24,0.7030000000000001 -5.5600000000000005,0.7030000000000001 c-1.899,0.005000000000000001 -3.395,-0.7600000000000001 -4.53,-2.238 c-0.786,-1.014 -1.395,-2.3 -1.6660000000000001,-3.817 v0.47700000000000004 l0.17200000000000001,-0.16200000000000003 a1.472,1.472 0 0 1 -0.17200000000000001,-0.41000000000000003 v-3.8760000000000003 c0.038000000000000006,-0.26 0.07600000000000001,-0.543 0.127,-0.8420000000000001 a1.8290000000000002,1.8290000000000002 0 0 1 -0.127,0.44800000000000006 v0.233 c0.6410000000000001,-4.875 3.107,-9.356 6.214,-12.015 c1.8330000000000002,-1.56 3.532,-2.834 5.542,-3.753 m0,33.956 v0.003000000000000001 l-0.003000000000000001,-3.402 c-3.805,0.6480000000000001 -7.728,1.3450000000000002 -11.753,2.072 v7.001 c3.882,-0.775 7.802,-1.5230000000000001 11.756,-2.27 v-0.007000000000000002 h-0.003000000000000001 l0.003000000000000001,-3.3970000000000002 m-11.84,5.695 v-7.007 l0.08400000000000002,-0.015000000000000003 v7.006 l-0.08400000000000002,0.016000000000000004 m0,-19.189 v-1.042 c0.024000000000000004,0.14500000000000002 0.05200000000000001,0.273 0.08400000000000002,0.38600000000000007 v-3.8770000000000002 c-0.03300000000000001,0.26 -0.06100000000000001,0.505 -0.08400000000000002,0.7380000000000001 v2.649 c0.023000000000000007,0.19700000000000004 0.05000000000000001,0.39100000000000007 0.08400000000000002,0.5840000000000001 v0.47700000000000004 l-0.08400000000000002,0.08500000000000002 m0,-3.94 c0.024000000000000004,-0.25 0.05200000000000001,-0.502 0.08400000000000002,-0.7540000000000001 v-0.234 c-0.024000000000000004,0.06000000000000001 -0.05200000000000001,0.12200000000000001 -0.08400000000000002,0.18600000000000003 v0.802 m0,-0.802 v0.802 c-0.037000000000000005,0.403 -0.06000000000000001,0.805 -0.07100000000000001,1.212 c-0.010000000000000002,0.557 0.015000000000000003,1.079 0.07,1.582 v-2.6500000000000004 c-0.12000000000000001,1.268 -0.09600000000000003,2.156 0,2.754 v1.042 c-2.186,2.248 -6.038,5.5600000000000005 -7.083,6.206 c-0.9410000000000001,0.5830000000000001 -2.266,1.108 -3.716,1.485 v-2.742 c0.21500000000000002,-0.05000000000000001 0.43700000000000006,-0.127 0.6360000000000001,-0.21600000000000003 c2.6740000000000004,-1.107 8.956,-6.962 10.164,-9.475 m0,16.924 v7.007 c-3.6270000000000002,0.7200000000000001 -7.228,1.4420000000000002 -10.8,2.194 v-7.157 c3.67,-0.7180000000000001 7.27,-1.4 10.8,-2.044 m-37.31,-28.437 c0.919,-0.537 1.6560000000000001,-0.8900000000000001 2.404,-1.095 v5.25 c-0.976,0.5820000000000001 -1.79,1.401 -2.492,2.36 l0.08700000000000002,-6.515 m0,24.411 c0.798,-0.07200000000000001 1.6,-0.37600000000000006 2.4050000000000002,-0.913 v4.131 l-0.993,0.39300000000000007 c-0.503,0.19500000000000003 -0.99,0.35000000000000003 -1.451,0.466 l0.04000000000000001,-4.077 m0,11.615 c0.8980000000000001,-0.17200000000000001 1.6500000000000001,-0.3480000000000001 2.404,-0.514 v7.505 c-0.77,0.17700000000000002 -1.534,0.36000000000000004 -2.3,0.548 l-0.10500000000000001,-7.539 m26.51,-24.914 v-3.002 c2.686,-1.7510000000000001 5.28,-4.437 5.767,-6.072 c0.32000000000000006,-1.069 0.464,-2.497 -1.075,-2.685 c-1.163,-0.14 -3.14,1.29 -4.691,2.708 v-4.015 a21.813,21.813 0 0 1 1.9769999999999999,-1.075 c1.594,-0.7530000000000001 2.991,-1.125 4.204,-1.125 c1.207,0 2.165,0.35500000000000004 2.8850000000000002,1.087 c0.7480000000000001,0.7420000000000001 1.12,1.6660000000000001 1.12,2.7520000000000002 c0.005000000000000001,1.529 -0.7370000000000001,3.207 -2.194,5.074 c-1.48,1.79 -3.424,3.473 -5.838,5.063 c-0.7040000000000001,0.47000000000000003 -1.4300000000000002,0.8900000000000001 -2.154,1.29 m0,26.526 v-7.162 a921.703,921.703 0 0 0 -24.106,5.036 v7.499 a822.71,822.71 0 0 1 24.106,-5.373 m0,-39.592 v-0.007000000000000002 a24.282,24.282 0 0 0 -2.765,1.94 a22.656,22.656 0 0 0 -4.364,4.852 a25.903,25.903 0 0 0 -2.8920000000000003,5.743 a18.136,18.136 0 0 0 -1.03,5.983 c0,2.592 0.548,4.63 1.6340000000000001,6.12 c1.5950000000000002,2.205 5.899,2.182 9.417,1.275 v-2.754 c-1.408,0.3330000000000001 -2.981,-0.03900000000000001 -3.845,-1.091 c-0.997,-1.213 -1.512,-2.914 -1.518,-5.14 c0,0.19300000000000003 0.028000000000000004,-0.35500000000000004 0.09400000000000003,-1.6680000000000001 a26.802,26.802 0 0 0 5.269,-2.187 v-3.003 c-1.79,1.17 -3.629,1.94 -4.92,1.713 c-0.32000000000000006,-1.042 2.277,-5.024 3.463,-6.32 c0.39300000000000007,-0.42700000000000005 0.8970000000000001,-0.937 1.457,-1.44 v-4.016 m-24.106,29.584 c4.691,-1.928 7.338,-3.7600000000000002 9.52,-9.427 c0.539,-1.4060000000000001 1.58,-4.447 1.79,-6.454 c1.518,-14.8 -3.002,-21.872 -8.11,-29.029 c-0.8740000000000001,-1.219 -2.126,-1.064 -3.2,-0.36500000000000005 v6.054 c0.8920000000000001,0.809 1.872,1.689 2.58,2.6750000000000003 c1.113,1.524 3.502,6.597 3.125,8.242 c-2.553,-0.6200000000000001 -4.11,-0.8640000000000001 -5.705,-0.42000000000000004 v5.244 c1.61,-0.975 3.656,-1.29 6.336,-0.459 c0.51,0.15500000000000003 0.6300000000000001,3.977 0.543,4.464 c-0.92,5.19 -1.124,6.62 -2.183,9.056 c-0.9580000000000001,2.194 -2.104,3.95 -3.45,5.258 c-0.41500000000000004,0.403 -0.8320000000000001,0.7480000000000001 -1.246,1.03 v4.131 m0,-45.275 v6.054 c-1.225,-1.108 -2.283,-2.072 -2.233,-2.952 c0.06100000000000001,-0.93 1.036,-2.338 2.233,-3.107 v0.005000000000000001 " fill="#e3000f" id="svg_3" class=""/><path d="M241.20818652343752,35.43307153320313 c2.376,-1.145 4.407,-2.932 6.518,-5.053 c0.18400000000000002,-1.065 0.3990000000000001,-2.572 0.6810000000000002,-4.25 c-2.951,2.604 -5.7940000000000005,4.964 -6.6850000000000005,5.606 a3.617,3.617 0 0 1 -0.514,0.31700000000000006 v3.38 zm0,-23.186 c0.11100000000000002,-0.23500000000000001 0.22900000000000004,-0.463 0.3480000000000001,-0.6840000000000002 c0.07300000000000001,-0.139 0.132,-0.23800000000000002 0.132,-0.30000000000000004 c0,-0.08200000000000002 -0.04300000000000001,-0.17600000000000002 -0.132,-0.27 a0.4,0.4 0 0 0 -0.29400000000000004,-0.127 h-0.05400000000000001 v1.381 m0,32.64 v-5.712 a873.58,873.58 0 0 1 9.649000000000001,-1.186 c8.99,-2.3040000000000003 7.366,-4.785 1.6,-2.974 c-1.496,0.47200000000000003 -2.526,0.6980000000000002 -3.069,0.6980000000000002 c-1.3800000000000001,0 -2.07,-0.7250000000000001 -2.07,-2.17 c0,-0.6600000000000001 0.10300000000000001,-1.458 0.258,-2.4210000000000003 l4.045,-24.405 c0.31000000000000005,-1.8730000000000002 1.097,-4.890000000000001 2.298,-5.679 c1.1360000000000001,-0.7520000000000001 2.604,-1.268 4.337,-0.913 c1.125,0.23800000000000002 3.019,1.435 4.022,2.73 c1.871,2.4050000000000002 5.3,8.924 -7.44,20.933 c0.30500000000000005,-1.7120000000000002 0.6210000000000001,-3.579 0.8150000000000001,-4.73 c2.282,-2.532 3.8,-4.836 4.725,-6.603 c2.3040000000000003,-4.392 -0.6100000000000001,-10.264 -2.188,-7.993 l-3.956,23.043 c-0.32500000000000007,1.85 0.2,2.487 0.8490000000000001,2.475 c0.5750000000000001,-0.016000000000000004 3.933,-0.6750000000000002 6.148,-0.36500000000000005 c1.8,0.25 3.285,1.6780000000000002 3.334,4.182 c0.10600000000000001,4.575 -4.032,7.405 -5.71,8.042 a28575.47,28575.47 0 0 0 -17.647,3.049 m-7.202,-29.603 c0.405,0.09500000000000003 0.798,0.21000000000000002 1.203,0.35000000000000003 a36.76,36.76 0 0 1 -1.137,5.6 l-0.06600000000000002,15.443 c0.26,0.07700000000000001 0.544,0.11500000000000002 0.8480000000000001,0.12000000000000001 c2.458,0.027000000000000007 4.51,-0.47500000000000003 6.354,-1.365 v-3.38 c-0.772,0.3970000000000001 -1.681,0.553 -2.134,0.18200000000000002 c-0.7090000000000001,-0.5820000000000001 -0.8700000000000001,-1.2570000000000001 -0.8700000000000001,-2.354 c0,-5.338 0.7060000000000001,-12.842 3.004,-17.634 v-1.3800000000000001 a1.504,1.504 0 0 0 -0.42200000000000004,0.126 c-0.797,0.37000000000000005 -2.958,0.29900000000000004 -3.528,0.29900000000000004 c-1.48,-0.44900000000000007 -1.49,1.036 -1.729,0.936 a8.408,8.408 0 0 0 -1.379,-0.44400000000000006 l-0.14400000000000002,3.501 m7.202,23.89 v5.713 c-2.408,0.41800000000000004 -4.802,0.8340000000000001 -7.185,1.25 l-0.017000000000000005,-6.01 c2.533,-0.3440000000000001 4.933,-0.6620000000000001 7.202,-0.9530000000000001 " fill="#e3000f" id="svg_4" class=""/><path d="M247.3171865234375,33.54307153320315 l0.26,-2.4210000000000003 l4.044,-24.405 c0.31000000000000005,-1.8730000000000002 1.097,-4.890000000000001 2.298,-5.679 c1.1360000000000001,-0.7520000000000001 2.604,-1.268 4.337,-0.913 c0,0 3.019,1.435 4.022,2.73 c1.871,2.4050000000000002 5.3,8.924 -7.44,20.933 c0.30500000000000005,-1.7120000000000002 0.8150000000000001,-4.73 0.8150000000000001,-4.73 c2.282,-2.532 3.8,-4.836 4.725,-6.603 c2.3040000000000003,-4.392 -0.6100000000000001,-10.264 -2.188,-7.993 l-3.956,23.043 c-0.32500000000000007,1.85 0.8490000000000001,2.475 0.8490000000000001,2.475 s3.933,-0.36500000000000005 6.148,-0.36500000000000005 c1.8,0 3.285,1.6780000000000002 3.334,4.182 c0.10600000000000001,4.575 -4.032,7.405 -5.71,8.042 a8776.463,8776.463 0 0 0 -26.36,4.575 v-6.053 a785.057,785.057 0 0 1 18.362,-2.372 c8.99,-2.3040000000000003 7.366,-4.785 1.6,-2.974 c-1.496,0.47200000000000003 -3.069,0.6980000000000002 -3.069,0.6980000000000002 s-2.07,-0.7250000000000001 -2.07,-2.17 " fill="#e3000f" id="svg_5" class=""/><path d="M232.4951865234375,34.98207153320311 l2.359,1.816 c5.628,0 9.122,-2.652 12.872,-6.418 c0,0 0.3990000000000001,-2.572 0.6810000000000002,-4.25 c-2.951,2.604 -5.7940000000000005,4.964 -6.6850000000000005,5.606 c-0.8300000000000001,0.6100000000000001 -2.088,0.9580000000000001 -2.648,0.49900000000000005 c-0.7090000000000001,-0.5820000000000001 -0.8700000000000001,-2.354 -0.8700000000000001,-2.354 c0,-5.6 0.777,-13.582 3.352,-18.318 l0.132,-0.30000000000000004 l-0.132,-0.27 l-0.29400000000000004,-0.127 l-0.47600000000000003,0.127 c-0.797,0.37000000000000005 -3.528,0.29900000000000004 -3.528,0.29900000000000004 c-1.48,-0.44900000000000007 -1.729,0.936 -1.729,0.936 l-3.034,-0.6980000000000002 v3.49 l2.714,0.6140000000000001 c-0.273,2.25 -0.787,4.559 -1.534,6.924 a30.295,30.295 0 0 1 -1.18,3.146 v4.243 l0.22600000000000003,-0.35000000000000003 s-0.09400000000000003,0.30600000000000005 -0.22600000000000003,1.7850000000000001 v3.6 M232.4951865234375,46.41407153320313 c-5.312,0.937 -10.559,1.8730000000000002 -15.748,2.8200000000000003 v-6.536 a847.73,847.73 0 0 1 15.748,-2.3440000000000003 v6.06 M232.4951865234375,11.530071533203113 v3.49 l-1.18,-0.06600000000000002 c-2.56,0 -4.354,0.6140000000000001 -5.402,1.8330000000000002 c-1.163,1.368 -2.082,3.078 -2.773,5.156 c-0.7500000000000001,2.15 -1.12,4.155 -1.12,6.043 c0,1.6110000000000002 0.21000000000000002,2.754 0.6640000000000001,3.423 c0.47100000000000003,0.7150000000000001 2.156,1.07 2.156,1.07 s2.165,-0.44400000000000006 3.439,-1.346 c1.246,-0.8870000000000001 2.282,-2 3.118,-3.297 a19.33,19.33 0 0 0 1.098,-2.132 v4.243 c-2.758,4.243 -6.603,7.5 -12.596,7.5 c0,0 -1.856,-0.6700000000000002 -2.416,-1.988 l-0.7360000000000001,-2.787 v-5.5 l0.15500000000000003,-1.24 l-0.15500000000000003,0.281 v0.8750000000000001 c0.454,-4.186 1.9220000000000002,-8.307 5.045,-11.243 c2.25,-2.11 4.017,-3.058 6.282,-3.855 c1.357,-0.466 2.9530000000000003,-0.46 4.421,-0.46 " fill="#e3000f" id="svg_6" class=""/><path d="M232.4951865234375,31.382071533203145 l-0.028000000000000004,0.271 l-0.134,1.99 l0.16200000000000003,1.339 v-3.6 M216.7471865234375,49.23407153320312 c-3.954,0.7260000000000001 -7.87,1.445 -11.754,2.183 l0.006000000000000002,-6.797 c4.05,-0.6930000000000002 7.97,-1.336 11.748,-1.9220000000000002 v6.536 M216.7471865234375,26.213071533203106 v0.8750000000000001 l-0.17200000000000001,3.064 l0.17200000000000001,2.52 v-5.5 l-0.14400000000000002,4.032 c-2.205,2.2 -5.5440000000000005,5.328 -6.287,5.75 c-1.855,1.075 -2.985,1.55 -4.99,2.243 l-0.32800000000000007,0.11700000000000002 v-2.753 c3.662,-0.6480000000000001 9.045,-5.7940000000000005 11.749,-10.353 v0.006000000000000002 M204.99818652343748,17.87707153320315 v-3.815 l0.926,-0.41100000000000003 c2.315,-0.908 4.43,-1.478 6.354,-1.478 c0,0 2.054,0.17700000000000002 2.724,0.5640000000000001 c0.6870000000000002,0.39300000000000007 1.036,1.629 1.036,1.629 s0.37700000000000006,1.247 -0.06100000000000001,2.47 l-1.518,1.972 l-1.252,0.7370000000000001 l-1.883,-1.247 s-0.171,-0.99 -0.991,-1.357 c-0.8300000000000001,-0.37000000000000005 -2.731,-0.11600000000000002 -2.731,-0.11600000000000002 s-1.81,0.6040000000000001 -2.604,1.052 " fill="#e3000f" id="svg_7" class=""/><path d="M204.99818652343748,51.42207153320311 c-3.954,0.7480000000000001 -7.876,1.495 -11.758000000000001,2.271 v-7.001 c4.026,-0.7270000000000001 7.948,-1.424 11.753,-2.072 l0.006000000000000002,6.802 M204.99818652343748,14.062071533203152 v3.815 c-5.91,3.346 -7.832,11.732 -4.57,16.685 c1.087,1.6500000000000001 2.239,2.043 4.216,2.043 l0.35000000000000003,-0.05000000000000001 l0.005000000000000001,2.7590000000000003 c-2.095,0.6590000000000001 -5.562,0.7040000000000001 -5.562,0.7040000000000001 c-1.9,0 -3.395,-0.7600000000000001 -4.53,-2.238 c-0.786,-1.014 -1.3960000000000001,-2.3 -1.6670000000000003,-3.817 v0.47700000000000004 l0.17200000000000001,-0.16200000000000003 l-0.17200000000000001,-0.41000000000000003 v-3.8760000000000003 l0.128,-0.8420000000000001 l-0.128,0.44700000000000006 v0.234 c0.6420000000000001,-4.875 3.107,-9.356 6.214,-12.015 c1.8330000000000002,-1.56 3.534,-2.8360000000000003 5.545,-3.754 " fill="#e3000f" id="svg_8" class=""/><path d="M193.24118652343748,53.69707153320314 a961.867,961.867 0 0 0 -10.885,2.211 v-7.157 c3.7,-0.7250000000000001 7.327,-1.412 10.884,-2.06 v7.007 M193.24118652343748,29.59707153320312 v0.234 l-0.15600000000000003,1.9660000000000002 l0.15500000000000003,2.166 v0.47700000000000004 c-2.172,2.248 -6.11,5.638 -7.168,6.291 c-0.9410000000000001,0.5830000000000001 -2.266,1.108 -3.716,1.485 v-2.742 l0.6360000000000001,-0.21600000000000003 c2.742,-1.135 9.279,-7.261 10.248,-9.66 " fill="#e3000f" id="svg_9" class=""/><path d="M193.24118652343748,29.992071533203102 a16.7,16.7 0 0 0 0,3.8770000000000002 v-3.8770000000000002 M182.3561865234375,29.382071533203145 v-3.002 c2.686,-1.7510000000000001 5.279,-4.437 5.766,-6.072 c0,0 0.464,-2.685 -1.075,-2.685 c0,0 -3.14,1.29 -4.69,2.708 V16.317071533203148 c0.6350000000000001,-0.39300000000000007 1.976,-1.075 1.976,-1.075 c1.594,-0.7530000000000001 4.204,-1.125 4.204,-1.125 s2.165,0.35500000000000004 2.8850000000000002,1.087 c0.7480000000000001,0.7420000000000001 1.12,2.7520000000000002 1.12,2.7520000000000002 c0.005000000000000001,1.53 -0.7370000000000001,3.207 -2.194,5.074 c-1.48,1.79 -3.424,3.473 -5.838,5.063 c-0.7040000000000001,0.47000000000000003 -1.429,0.8900000000000001 -2.154,1.29 M182.3561865234375,55.9080715332031 a822.71,822.71 0 0 0 -24.106,5.373 v-7.499 a921.703,921.703 0 0 1 24.106,-5.036 v7.162 M182.3561865234375,16.317071533203148 v4.014 a22.287,22.287 0 0 0 -1.457,1.44 c-1.185,1.2970000000000002 -3.463,6.321 -3.463,6.321 s3.13,-0.543 4.92,-1.7120000000000002 v3.002 a26.802,26.802 0 0 1 -5.269,2.187 l-0.09400000000000003,1.6680000000000001 c0.007000000000000002,2.227 0.522,3.928 1.518,5.14 c0.8640000000000001,1.052 2.438,1.092 3.845,1.092 v2.753 c-3.518,0.908 -7.822,0.93 -9.417,-1.275 c-1.086,-1.49 -1.6340000000000001,-3.528 -1.6340000000000001,-6.12 c0,-1.994 0.3380000000000001,-3.988 1.03,-5.983 a25.903,25.903 0 0 1 2.8920000000000003,-5.742 a22.656,22.656 0 0 1 4.364,-4.853 c0.8800000000000001,-0.7090000000000001 1.8,-1.363 2.765,-1.94 v0.007000000000000002 M158.25118652343753,45.89907153320314 v-4.13 s0.8300000000000001,-0.6280000000000001 1.244,-1.031 c1.347,-1.3090000000000002 2.493,-3.064 3.45,-5.258 c1.06,-2.436 1.2650000000000001,-3.866 2.184,-9.056 l-0.543,-4.464 c-2.68,-0.8300000000000001 -4.725,-0.516 -6.336,0.46 v-5.245 c1.5950000000000002,-0.44400000000000006 3.152,-0.2 5.705,0.42000000000000004 c0.37700000000000006,-1.645 -2.012,-6.718 -3.125,-8.242 c-0.7080000000000001,-0.986 -1.6880000000000002,-1.866 -2.58,-2.6750000000000003 v-6.054 c1.074,-0.6990000000000002 2.326,-0.8540000000000001 3.2,0.36500000000000005 c5.108,7.157 9.628,14.23 8.11,29.03 c-0.21000000000000002,2.006 -1.251,5.047 -1.79,6.453 c-2.182,5.666 -4.829,7.5 -9.52,9.427 " fill="#e3000f" id="svg_10" class=""/><path d="M158.25118652343753,61.28707153320312 c-3.6350000000000002,0.8700000000000001 -7.241,1.75 -10.82,2.67 v-7.6770000000000005 c3.6350000000000002,-0.8700000000000001 7.245,-1.6950000000000003 10.82,-2.498 v7.505 M158.25118652343753,0.6240715332031073 v6.054 c-1.226,-1.108 -2.234,-2.952 -2.234,-2.952 s1.036,-2.338 2.233,-3.107 v0.005000000000000001 M158.25118652343753,17.175071533203152 v5.25 c-3.114,1.872 -4.615,6.198 -5.912,9.46 c-1.102,2.787 -1.6340000000000001,10.813 3.13,10.813 c0,0 1.85,-0.31000000000000005 2.781,-0.93 v4.131 l-0.993,0.39300000000000007 c-5.35,2.094 -8.479,-0.504 -9.825,-4.33 v-10.143 c0.549,-2.049 1.12,-3.927 2.149,-6.059 c1.374,-2.83 3.633,-5.716 5.888,-7.212 c1.047,-0.6970000000000002 2.781,-1.373 2.781,-1.373 M147.43118652343747,25.317071533203148 c0.36600000000000005,-0.6980000000000002 0.6650000000000001,-2.265 0.6650000000000001,-2.265 l0.11700000000000002,-2.144 l-0.52,-1.473 l-0.261,-0.32200000000000006 v6.203 " fill="#e3000f" id="svg_11" class=""/><path d="M147.43118652343747,63.96207153320313 a606.101,606.101 0 0 0 -12.296,3.284 v-7.942 c4.121,-1.052 8.225,-2.061 12.297,-3.024 v7.682 M147.43118652343747,19.119071533203112 v6.197 l-0.5640000000000001,0.804 c-0.454,0.49300000000000005 -1.9060000000000001,0.6860000000000002 -1.9060000000000001,0.6860000000000002 l-1.855,-1.29 l-1.5790000000000002,-1.02 c-2.454,0 -4.6080000000000005,1.342 -6.392,3.74 v-4.226 l0.14400000000000002,-0.15000000000000002 c1.003,-1.02 1.274,-1.274 2.532,-2.321 c2.83,-2.332 5.35,-2.958 7.943,-2.958 l1.6780000000000002,0.532 v0.006000000000000002 M147.43118652343747,31.8190715332031 v10.142 c-0.974,-2.775 -1.018,-6.203 -0.30500000000000005,-8.961 l0.30600000000000005,-1.181 M135.13518652343748,67.2470715332031 a566.068,566.068 0 0 0 -10.89,3.157 v-8.236 a789.001,789.001 0 0 1 10.89,-2.87 v7.948 " fill="#e3000f" id="svg_12" class=""/><path d="M135.13518652343748,24.01007153320313 v4.231 l-0.908,1.3900000000000001 c-0.986,1.7400000000000002 -1.8,4.3260000000000005 -2.46,6.63 c-0.6650000000000001,2.354 -1.296,5.557 -1.9,9.633000000000001 l-0.514,3.412 l-0.36000000000000004,2.271 l-0.20500000000000002,1.617 l-4.542,1.7610000000000001 v-10.656 l0.7480000000000001,-4.609 c0.9680000000000001,-6.464 1.45,-10.63 1.45,-12.44 c0,-1.48 -0.18800000000000003,-1.6900000000000002 -0.6420000000000001,-2.454 c-0.9420000000000001,-1.5790000000000002 -1.9500000000000002,-2.763 0.78,-3.888 c1.585,-0.6500000000000001 3.933,-0.8800000000000001 3.933,-0.8800000000000001 l1.6340000000000001,0.6960000000000002 l0.47200000000000003,2.443 c0.06600000000000002,1.546 0.04400000000000001,2.3 -0.30000000000000004,4.609 c0.915,-1.4340000000000002 1.945,-2.848 2.814,-3.773 v0.007000000000000002 " fill="#e3000f" id="svg_13" class=""/><path d="M124.24618652343747,40.18307153320313 a29.153,29.153 0 0 0 1.8880000000000001,-3.9210000000000003 l0.277,-8.247 s-0.6540000000000001,3.34 -2.165,6.275 v5.893 M124.24618652343747,70.41007153320311 a462.026,462.026 0 0 0 -12.01,3.777 v-8.64 a652.077,652.077 0 0 1 12.01,-3.38 v8.243 " fill="#e3000f" id="svg_14" class=""/><path d="M124.24618652343747,34.290071533203104 v5.893 c-2.704,4.626 -7.7940000000000005,12.075 -12.01,16.163 v-4.453 c4.056,-4.481 9.151,-12.08 12.01,-17.603 M124.24618652343747,44.29907153320312 c-0.515,3.179 -0.98,5.838 -0.98,5.838 c-0.32200000000000006,1.612 -0.914,3.8440000000000003 -0.914,3.8440000000000003 l-0.31100000000000005,1.063 l0.48700000000000004,0.51 l0.6480000000000001,-0.19400000000000003 l1.07,-0.405 v-10.656 M112.23718652343752,38.517071533203136 a28.474,28.474 0 0 0 3.657,-4.792 c1.367,-2.427 2.054,-4.609 2.054,-6.58 c0,-1.419 -0.3440000000000001,-2.62 -1.047,-3.58 c-0.6820000000000002,-0.9460000000000001 -2.714,-1.417 -2.714,-1.417 l-1.9500000000000002,0.41000000000000003 v4.127 l0.48700000000000004,0.027000000000000007 s1.291,1.358 0.8600000000000001,3.235 c0,0 -0.6880000000000002,1.923 -1.347,2.98 v5.59 M112.23718652343752,74.18707153320315 a519.483,519.483 0 0 0 -11.482,3.944 v-9.129 a602.013,602.013 0 0 1 11.482,-3.461 v8.646 " fill="#e3000f" id="svg_15" class=""/><path d="M112.23718652343752,22.564071533203105 v4.121 c-2.5300000000000002,0 -6.154,5.129 -6.801,6.547 c-0.8810000000000001,1.883 -2.277,6.188 -1.669,7.063 c2.803,-0.8370000000000001 6.465,-4.222 8.47,-7.368 v5.59 a41.09,41.09 0 0 1 -1.822,1.778 c-2.221,2.015 -4.537,3.516 -6.973,4.507 c-0.05600000000000001,1.706 -0.08400000000000002,2.172 -0.08400000000000002,2.172 c0,2.8920000000000003 0.48200000000000004,5.107 1.423,6.675 c0.937,1.574 1.99,2.492 3.568,1.661 c1.047,-0.554 2.398,-1.7770000000000001 3.888,-3.422 v4.458 c-1.086,1.047 -2.11,1.866 -3.02,2.376 c-1.705,0.937 -5.526,1.213 -5.526,1.213 s-2.11,-0.41500000000000004 -2.936,-1.245 v-22.756 l0.9410000000000001,-2.12 c1.1360000000000001,-2.354 2.499,-4.454 4.1,-6.3100000000000005 c1.3780000000000001,-1.534 2.857,-2.8360000000000003 4.452,-3.888 c0.6990000000000002,-0.46 1.9889999999999999,-1.058 1.9889999999999999,-1.058 v0.007000000000000002 M100.75518652343749,21.777071533203127 v-5.063 l1.407,-0.459 l0.7530000000000001,-0.5980000000000001 l0.5760000000000001,1.123 s-0.32700000000000007,1.103 -0.98,2.333 c0,0 -1.064,1.6670000000000003 -1.7560000000000002,2.664 M100.75518652343749,78.13707153320314 c-2.77,0.991 -5.5280000000000005,2.01 -8.275,3.067 v-9.538 c2.753,-0.913 5.505,-1.799 8.275,-2.664 v9.135 M100.75518652343749,16.71407153320314 v5.063 c-0.41000000000000003,0.5870000000000001 -0.792,1.053 -0.792,1.053 s-5.69,1.284 -7.483,1.284 v-15.376 c1.019,-1.3900000000000001 1.965,-2.077 1.965,-2.077 l0.49400000000000005,0.7600000000000001 l-0.1,0.6200000000000001 a69.7,69.7 0 0 0 -1.002,5.15 l-0.533,3.113 l-0.23800000000000002,1.601 c2.012,0 5.6290000000000004,-0.6970000000000002 7.689,-1.19 M100.75518652343749,35.93407153320311 v22.756 c-0.44300000000000006,-0.45 -0.8480000000000001,-1.015 -1.203,-1.707 c-1.024,-1.939 -1.5390000000000001,-4.586 -1.5390000000000001,-7.943 c0.005000000000000001,-2.591 0.32200000000000006,-5.18 0.974,-7.76 a39.967,39.967 0 0 1 1.7680000000000002,-5.35 v0.005000000000000001 " fill="#e3000f" id="svg_16" class=""/><path d="M92.48018652343751,62.31107153320312 c2.358,-2.149 5.5280000000000005,-7.8100000000000005 5.5280000000000005,-7.8100000000000005 l0.37000000000000005,-0.935 c-0.8240000000000001,-4.737 0.12200000000000001,-10.564 0.12200000000000001,-10.564 c-0.803,4.133 -3.318,11.15 -6.02,14.706 v4.603 M92.48018652343751,81.20407153320315 a472.317,472.317 0 0 0 -9.416,3.728 v-10.074 a527.344,527.344 0 0 1 9.416,-3.197 v9.543 M92.48018652343751,8.73807153320314 v15.382 l-0.21100000000000002,0.03900000000000001 l-0.526,3.146 l-0.992,7.832 l-1.113,8.569 c-0.8580000000000001,6.918 -1.33,12.246 -1.33,12.246 c-0.08800000000000002,2.914 0.5760000000000001,4.298 1.851,3.806 c0,0 1.55,-1.036 2.3200000000000003,-2.05 v4.603 l-0.6300000000000001,0.516 c-2.958,2.094 -5.79,2.869 -7.578,2.869 c0,0 -0.8540000000000001,-0.19400000000000003 -1.207,-0.5650000000000001 v-14.39 l0.259,-2.1 c0.975,-8.142 1.7560000000000002,-13.753 2.243,-16.91 l1.054,-6.736 l-3.556,0.5 v-3.015 l2.6900000000000004,-3.8600000000000003 l1.9340000000000002,-0.48200000000000004 l0.6150000000000001,-3.295 l2.826,-4.155 c0.514,-0.7590000000000001 0.9580000000000001,-1.412 1.35,-1.9500000000000002 " fill="#e3000f" id="svg_17" class=""/><path d="M83.06418652343751,50.67407153320312 c0.47600000000000003,-3.6180000000000003 1.4220000000000002,-11.134 1.6,-13.177 c0,0 -0.781,3.057 -1.6,5.728 v7.449 M83.06418652343751,84.9390715332031 a384.35,384.35 0 0 0 -17.41,7.654 l0.005000000000000001,-11.25 a458.088,458.088 0 0 1 17.405,-6.485 v10.081 M83.06418652343751,22.480071533203102 v3.02 l-0.17900000000000002,0.03200000000000001 l-0.918,0.52 l-0.49900000000000005,-0.5640000000000001 s0.7300000000000001,-1.772 1.374,-2.697 l0.22200000000000003,-0.31000000000000005 M83.06418652343751,43.225071533203106 v7.449 l-0.256,1.8610000000000002 s-3.018,10.845 -7.122,15.648 c-2,2.104 -5.789,3.584 -9.623,3.584 l-0.41000000000000003,-0.04500000000000001 l0.006000000000000002,-8.834 l0.023000000000000007,-0.25 l0.20500000000000002,-1.346 l0.08300000000000002,-0.6470000000000001 l1.3960000000000001,-8.387 c1.174,-7.122 1.945,-15.498 1.945,-15.498 c0,-1.8900000000000001 -1.99,-2.27 -1.99,-2.27 s-1.09,0.36000000000000004 -1.6670000000000003,0.974 l0.005000000000000001,-4.065 l0.3440000000000001,-0.28900000000000003 c2.122,-1.6620000000000001 4.913,-2.093 6.636,-2.093 c0,0 1.75,0.22700000000000004 2.332,0.77 c0.5980000000000001,0.558 0.8530000000000001,2.255 0.8530000000000001,2.255 s-0.271,2.542 -0.6760000000000002,5.383 l-1.18,8.464 l-0.51,3.3 l-0.3320000000000001,2.2880000000000003 l-0.32700000000000007,2.177 s-0.35400000000000004,2.388 -0.6530000000000001,4.282 a113.415,113.415 0 0 0 -0.6480000000000001,5.837 s0.10500000000000001,1.502 0.46,2.05 c0.37000000000000005,0.5710000000000001 1.784,-0.255 1.784,-0.255 c2.49,-1.8890000000000002 6.918,-14.506 9.322,-22.343 M83.06418652343751,50.74007153320315 l-0.7650000000000001,6.366 c-0.21100000000000002,1.738 -0.36600000000000005,4.226 -0.36600000000000005,4.226 s0.15000000000000002,2.26 0.6040000000000001,3.062 l0.527,0.7370000000000001 v-14.39 " fill="#e3000f" id="svg_18" class=""/><path d="M65.65918652343748,92.5930715332031 a375.34,375.34 0 0 0 -18.157,9.107 V89.08707153320313 a373.72,373.72 0 0 1 18.152,-7.742 l0.005000000000000001,11.249 M65.65918652343748,31.39907153320314 v4.065 c-1.61,1.717 -3.384,5.434 -5.383,8.99 c-3.966,7.04 -5.361,23.967 -6.792,31.639 c0,0 -4.036,1.8450000000000002 -5.982,2.581 v-3.463 c2.045,-10.18 3.895,-20.538 4.73,-30.957 c0.15600000000000003,-1.778 0.22300000000000003,-4.243 0.22300000000000003,-4.243 c0,-2.498 -0.7370000000000001,-3.744 -2.188,-3.744 c0,0 -1.33,0.19400000000000003 -2.083,0.6150000000000001 l-0.6820000000000002,0.30500000000000005 v-1.85 l0.30000000000000004,-0.15600000000000003 c1.008,-0.5700000000000001 2.724,-1.346 5.167,-2.3040000000000003 c1.967,-0.8590000000000001 3.983,-1.2730000000000001 3.983,-1.2730000000000001 s1.818,0.8200000000000001 1.818,2.464 c0,0 -0.09400000000000003,2.448 -0.35600000000000004,5.018 c-0.3380000000000001,3.236 -0.19300000000000003,3.064 -0.19300000000000003,3.064 c2.547,-3.49 4.225,-8.01 7.433,-10.751 h0.005000000000000001 M65.65918652343748,62.88707153320314 l-0.05500000000000001,0.277 l-0.14900000000000002,0.8200000000000001 l-0.30500000000000005,1.6840000000000002 l-0.38100000000000006,2.305 l-0.17900000000000002,1.6390000000000002 l1.064,2.11 l0.005000000000000001,-8.834 M47.5021865234375,5.792071533203114 v-5.772 h0.8590000000000001 a241.9,241.9 0 0 0 -0.8590000000000001,5.772 M47.5021865234375,101.70007153320313 a379.799,379.799 0 0 0 -23.03,13.404 V100.85707153320311 c7.272,-4.166 14.983,-8.088 23.03,-11.772 v12.614 " fill="#e3000f" id="svg_19" class=""/><path d="M47.5021865234375,0.02007153320312227 v5.772 c-0.791,5.627 -1.5230000000000001,11.67 -2.314,16.7 c-0.56,3.56 -1.534,8.846 -2.188,16.107 c-1.119,12.38 -2.25,32.265 -9.073,42.102 c-2.287,3.301 -5.871,5.716 -9.455,7.755 v-7.671 l0.52,-0.45 c9.948,-9.338000000000001 9.428,-29.511 11.223,-43.403 c1.228,-9.5 2.624,-18.551 4.391,-27.89 c-2.358,0.455 -5.339,0.7490000000000001 -7.46,1.186 c-3.684,0.7650000000000001 -5.069,0.46 -8.674,1.984 v-6.958 c4.708,-1.834 11.255,-2.016 15.97,-3.146 c1.738,-0.41000000000000003 4.551,-2.088 7.06,-2.088 M47.5021865234375,35.33707153320313 l-0.8630000000000001,1.174 l0.6490000000000001,0.7200000000000001 l0.21400000000000002,-0.04400000000000001 v-1.85 M47.5021865234375,75.21107153320315 l-0.42000000000000004,2.094 l-0.28800000000000003,1.645 l0.7080000000000001,-0.27 v-3.469 M24.471186523437495,115.10407153320313 a402.779,402.779 0 0 0 -23.722,16.163 c-1.226,-4.055 4.796,-11.333 4.535,-18.019 c5.926,-4.348 12.358,-8.474 19.188,-12.39 v14.246 M24.471186523437495,5.254071533203103 V12.217071533203125 c-1.4,0.5860000000000001 -3.14,1.451 -5.483,2.763 c-2.3930000000000002,1.3410000000000002 -4.692,3.059 -6.597,4.97 c-1.03,-4.199 -1.125,-6.698 2.404,-9.434 c4.88,-3.766 5.5440000000000005,-3.616 9.57,-5.223 l0.10700000000000001,-0.04000000000000001 M24.471186523437495,80.78507153320311 v7.67 c-1.24,0.7000000000000001 -2.475,1.358 -3.6550000000000002,1.9889999999999999 c-4.437,2.382 -8.07,3.335 -10.962,3.335 c-3.379,0 -6.53,-0.06800000000000002 -8.064,-1.6620000000000001 c-1.12,-1.174 -1.79,-2.576 -1.79,-4.542 c0,0 -0.027000000000000007,-2.62 0.5660000000000001,-3.982 c0.6640000000000001,-1.5070000000000001 1.224,-3.152 2.436,-4.798 c5.141,-6.978 2.692,0.6930000000000002 2.692,2.16 c0,1.601 0.6980000000000002,2.932 2.055,4.116 c2.442,2.1550000000000002 12.795,-1.174 16.723,-4.286 " fill="#e3000f" id="svg_20" class=""/><path d="M3.789177923437478,269.7793460332032 c0,-53.0560057 42.978489599999996,-96.0655235 96.03227899999999,-96.0655235 c53.058222,0 96.0677398,43.0095178 96.0677398,96.0655235 h-192.1000188 zM195.90471082343748,269.7793460332032 c0,53.058222 -43.0250319,96.0677398 -96.08103759999999,96.0677398 c-53.058222,0 -96.0655235,-43.0095178 -96.0655235,-96.0677398 h192.1465611 z" fill="#007a2c" stroke="#1a1a18" stroke-width=".772" stroke-miterlimit="22.926" id="svg_21" class=""/><path d="M44.16573132343751,269.7793460332032 c0,-41.9612079 33.9869605,-75.9769803 75.9481684,-75.9769803 s75.9791966,34.0157724 75.9791966,75.9769803 h-151.92736499999998 z" fill="#007a2c" stroke="#007a2c" stroke-width=".449" stroke-miterlimit="22.926" id="svg_22" class=""/><path d="M196.10861042343748,269.7793460332032 c0,41.9634242 -34.0335028,75.9791966 -75.9947107,75.9791966 s-75.9769803,-34.0157724 -75.9769803,-75.9791966 h151.971691 z" fill="#1a1a18" stroke="#1a1a18" stroke-width=".449" stroke-miterlimit="22.926" id="svg_23" class=""/><path d="M44.10145862343751,269.7793460332032 c0,-33.4107225 27.0543741,-60.4961248 60.4673129,-60.4961248 s60.4983411,27.083186 60.4983411,60.4961248 h-120.96565399999999 z" fill="#1a1a18" stroke="#007a2c" stroke-width=".454" stroke-miterlimit="22.926" id="svg_24" class=""/><path d="M165.08262672343744,269.7793460332032 c0,33.4129388 -27.1009164,60.4983411 -60.513855199999995,60.4983411 c-33.4129388,0 -60.4983411,-27.083186 -60.4983411,-60.4983411 h121.00998 zM69.6132879234375,269.7793460332032 c0,-26.362888499999997 21.3540505,-47.7346694 47.716939,-47.7346694 c26.3651048,0 47.739101999999995,21.3717809 47.739101999999995,47.7346694 h-95.456041 z" fill="#007a2c" stroke="#007a2c" stroke-width=".454" stroke-miterlimit="22.926" id="svg_25" class=""/><path d="M69.62880202343752,269.7793460332032 c0,-19.210888399999998 15.5429119,-34.7826122 34.751584,-34.7826122 c19.2131047,0 34.784828499999996,15.571723800000001 34.784828499999996,34.7826122 h-69.5364125 z" fill="#1a1a18" stroke="#007a2c" stroke-width=".454" stroke-miterlimit="22.926" id="svg_26" class=""/><path d="M89.5444738234375,269.7793460332032 c0,-13.7100318 11.0859326,-24.8247763 24.7959644,-24.8247763 c13.7100318,0 24.8247763,11.114744499999999 24.8247763,24.8247763 h-49.6207407 z" fill="#007a2c" stroke="#007a2c" stroke-width=".454" stroke-miterlimit="22.926" id="svg_27" class=""/><path d="M89.5444738234375,269.7793460332032 a13.437426899999998,-13.437426899999998 0 0 0 13.4352106,-13.4640225 a13.4640225,-13.4640225 0 0 0 13.4640225,13.4640225 h-26.8992331 z" fill="#1a1a18" stroke="#007a2c" stroke-width=".454" stroke-miterlimit="22.926" id="svg_28" class=""/><path d="M165.09814082343746,269.7793460332032 c0,26.3651048 -21.4028091,47.7346694 -47.765697599999996,47.7346694 c-26.3651048,0 -47.7346694,-21.369564599999997 -47.7346694,-47.7346694 h95.50036700000001 z" fill="#1a1a18" stroke="#1a1a18" stroke-width=".454" stroke-miterlimit="22.926" id="svg_29" class=""/><path d="M139.1829449234375,269.7793460332032 c0,19.210888399999998 -15.589454199999999,34.784828499999996 -34.8025589,34.784828499999996 c-19.208672099999998,0 -34.7826122,-15.5739401 -34.7826122,-34.784828499999996 h69.5851711 z" fill="#007a2c" stroke="#007a2c" stroke-width=".454" stroke-miterlimit="22.926" id="svg_30" class=""/><path d="M139.1829449234375,269.7793460332032 c0,13.7122481 -11.132474899999998,24.8269926 -24.842506699999998,24.8269926 s-24.8269926,-11.114744499999999 -24.8269926,-24.8269926 h49.667283 z" fill="#1a1a18" stroke="#1a1a18" stroke-width=".454" stroke-miterlimit="22.926" id="svg_31" class=""/><path d="M116.45922102343746,269.7793460332032 a13.4773203,-13.4773203 0 0 0 -13.4795366,13.4662388 a13.4640225,-13.4640225 0 0 0 -13.4640225,-13.4662388 h26.943559099999998 z" fill="#007a2c" stroke="#007a2c" stroke-width=".454" stroke-miterlimit="22.926" id="svg_32" class=""/><path d="M209.32318652343753,272.98107153320314 c-0.975,-0.29200000000000004 -2.014,-0.47000000000000003 -3.33,-0.47000000000000003 c-3.849,0 -6.22,2.175 -6.22,6.058 c0,3.833 2.55,5.668 6.22,5.668 c1.219,0 2.47,-0.26 3.67,-0.5840000000000001 v-6.108 h-4.58 v1.787 h2.4050000000000002 v2.956 c-0.39000000000000007,0.09700000000000003 -0.8780000000000001,0.16200000000000003 -1.495,0.16200000000000003 c-2.42,0 -3.849,-1.738 -3.849,-4.044 c0,-2.323 1.462,-4.11 4.11,-4.11 c0.909,0 2.046,0.19600000000000004 2.923,0.6010000000000001 l0.14600000000000002,-1.916 M213.40018652343753,279.0400715332031 c0.09700000000000003,-1.122 0.7150000000000001,-1.9660000000000002 1.932,-1.9660000000000002 c1.22,0 1.706,0.91 1.772,1.9660000000000002 h-3.704 zm5.166,2.761 c-0.8130000000000001,0.455 -1.723,0.8440000000000001 -2.778,0.8440000000000001 c-1.348,0 -2.291,-0.7630000000000001 -2.388,-2.11 h5.782 c0,-2.925 -0.8770000000000001,-5.053 -3.98,-5.053 c-2.598,0 -3.88,1.998 -3.88,4.4190000000000005 c0,2.744 1.6070000000000002,4.336 4.368,4.336 c1.17,0 2.08,-0.22700000000000004 2.8760000000000003,-0.6660000000000001 v-1.77 M220.9351865234375,284.04307153320315 h2.176 v-3.07 c0,-1.203 0,-3.411 1.77,-3.411 c0.39000000000000007,0 0.78,0.06500000000000002 0.975,0.17800000000000002 v-2.193 c-0.22800000000000004,-0.06500000000000002 -0.455,-0.06500000000000002 -0.6660000000000001,-0.06500000000000002 c-1.3,0 -2.193,1.316 -2.29,2.096 h-0.03200000000000001 v-1.9 h-1.933 v8.365 M227.16918652343747,284.04307153320315 h2.177 v-4.061 c0,-1.088 0.17800000000000002,-2.81 1.624,-2.81 c1.25,0 1.25,1.104 1.25,1.8840000000000001 v4.987 h2.177 v-4.061 c0,-1.088 0.17800000000000002,-2.81 1.6230000000000002,-2.81 c1.252,0 1.252,1.104 1.252,1.8840000000000001 v4.987 h2.176 v-5.28 c0,-1.867 -0.5840000000000001,-3.2800000000000002 -2.6470000000000002,-3.2800000000000002 c-1.023,0 -2.112,0.47000000000000003 -2.615,1.478 c-0.47100000000000003,-1.04 -1.3,-1.479 -2.469,-1.479 c-0.812,0 -1.803,0.3420000000000001 -2.486,1.365 h-0.031000000000000007 v-1.17 h-2.03 v8.366 M242.0811865234375,277.9840715332032 c0.7300000000000001,-0.552 1.6560000000000001,-0.91 2.583,-0.91 c1.282,0 1.8840000000000001,0.455 1.8840000000000001,1.803 h-1.203 c-0.91,0 -1.982,0.08100000000000002 -2.81,0.48800000000000004 c-0.8280000000000001,0.405 -1.4300000000000002,1.1360000000000001 -1.4300000000000002,2.387 c0,1.592 1.447,2.485 2.924,2.485 c0.99,0 2.08,-0.52 2.583,-1.445 h0.03200000000000001 c0.017000000000000005,0.259 0.017000000000000005,0.812 0.09800000000000003,1.25 h1.916 c-0.04900000000000001,-0.6500000000000001 -0.08000000000000002,-1.234 -0.09600000000000003,-1.868 a72.38,72.38 0 0 1 -0.03300000000000001,-2.095 v-1.071 c0,-2.47 -1.057,-3.526 -3.607,-3.526 c-0.925,0 -2.062,0.24400000000000002 -2.907,0.6340000000000001 l0.06600000000000002,1.868 zm1.104,3.638 c0,-1.283 1.4460000000000002,-1.4460000000000002 2.42,-1.4460000000000002 h0.9430000000000001 c0,0.6500000000000001 -0.09900000000000003,1.251 -0.456,1.723 c-0.3410000000000001,0.454 -0.8600000000000001,0.7460000000000001 -1.526,0.7460000000000001 c-0.78,0 -1.381,-0.30800000000000005 -1.381,-1.023 M250.67118652343754,284.04307153320315 h2.177 v-4.093 c0,-1.073 0.3410000000000001,-2.778 1.916,-2.778 c1.397,0 1.4140000000000001,1.3800000000000001 1.4140000000000001,2.404 v4.467 h2.176 v-5.28 c0,-1.8840000000000001 -0.8620000000000001,-3.2800000000000002 -2.843,-3.2800000000000002 c-1.137,0 -2.063,0.37300000000000005 -2.745,1.331 h-0.03300000000000001 v-1.137 h-2.062 v8.366 M262.05518652343756,275.67707153320316 h-2.403 l3.2,8.788 c0,0.8930000000000001 -0.536,1.494 -1.4140000000000001,1.494 c-0.535,0 -0.8450000000000001,-0.04800000000000001 -1.12,-0.14600000000000002 l-0.14700000000000002,1.608 a5.53,5.53 0 0 0 1.5430000000000001,0.22700000000000004 c2.275,0 2.778,-1.818 3.476,-3.67 l3.135,-8.3 h-2.209 l-2.014,6.107 h-0.03200000000000001 l-2.015,-6.108 " fill="#1a1a18" id="svg_33" class=""/><path d="M258.0896562234375,219.65328893320316 l-142.2997578,46.364996000000005 l0.8953852000000001,3.76771 l150.9433278,-0.03546080000000001 c0,-17.597422 -3.3067196,-34.7338536 -9.5389552,-50.097245199999996 z" fill="#007a2c" stroke="#007a2c" stroke-width=".454" stroke-miterlimit="22.926" id="svg_34" class=""/><path d="M31.328186523437523,292.66707153320317 l-2.765,0.8850000000000001 v-22.71 h2.765 v21.825 M54.5791865234375,285.44107153320317 l-3.415,0.9500000000000001 l-9.84,-13.354 v16.28 l-2.579,0.792 v-19.26 h4.28 l8.975999999999999,12.46 v-12.46 h2.5780000000000003 v14.592 M23.943186523437475,273.30207153320316 h-7.415 v24.11 l-2.7600000000000002,0.905 v-25.015 h-7.415 v-2.453 h17.59 v2.453 M173.83518652343753,268.8920715332031 h-2.765 v-20.278 l2.765,-0.9420000000000001 v21.22 M166.7381865234375,250.07207153320314 l-4.95,18.814 h-3.107 l-4.346,-12.128 l-4.283,12.128 h-3.039 l-3.048,-11.566 l2.466,-0.8630000000000001 l2.283,8.93 l3.6350000000000002,-10.713000000000001 l3.478,-1.083 l4.317,11.964 l3.721,-14.476 l2.873,-1.007 M198.43118652343747,268.8860715332031 h-18.816 v-2.564 l14.387,-22.545 l-14.387,4.523 v-2.454 l18.847,-6.216 v2.513 l-15.808,24.29 h15.778 v2.453 M211.90718652343747,249.73007153320316 l-2.185,-10.189 l-2.276,10.189 h4.46 zm7.28,19.156 h-2.942 l-3.774,-16.787 h-5.5280000000000005 l-3.744,16.787 h-2.801 l7.688000000000001,-32.226 l3.318,-1.051 l7.783,33.277 M239.00618652343752,268.8860715332031 h-3.583 l-6.941,-16.761 h-3.888 v16.76 h-2.7600000000000002 v-36.731 l5.806,-2.016 c1.221,-0.43500000000000005 2.282,-0.503 3.136,-0.514 c2.6550000000000002,-0.036000000000000004 4.546,2.001 4.815,5.483 c0.09200000000000003,1.172 0.32600000000000007,5.714 0.16300000000000003,8.984 c-0.1,2.013 -0.41600000000000004,4.257 -1.445,5.402 c-0.8390000000000001,0.933 -1.6700000000000002,1.5 -2.99,2.01 l7.687,17.383 zm-5.99,-32.586 c0,-0.5940000000000001 -0.21700000000000003,-1.9100000000000001 -0.37800000000000006,-2.387 c-0.28400000000000003,-0.8510000000000001 -0.773,-1.003 -1.256,-1.32 c-0.4,-0.269 -0.8970000000000001,-0.21100000000000002 -1.444,-0.31400000000000006 c-0.5750000000000001,0.012000000000000002 -1.709,0.31100000000000005 -2.577,0.5660000000000001 l-2.7670000000000003,1.131 v15.849 h2.7880000000000003 c0.8720000000000001,0 1.6310000000000002,-0.07700000000000001 2.282,-0.22600000000000003 c0.6530000000000001,-0.15000000000000002 1.211,-0.266 1.6670000000000003,-0.6840000000000002 c0.42000000000000004,-0.38700000000000007 0.5940000000000001,-0.8240000000000001 0.911,-1.26 c1.6600000000000001,-2.274 0.774,-10.574 0.774,-11.355 M263.20918652343755,267.4430715332031 c-0.9450000000000001,0.5900000000000001 -2.9610000000000003,1.224 -5.188,1.354 c-1.189,0.07 -9.093,0.08900000000000002 -10.998,0.08900000000000002 h-5.24 V225.8570715332031 s3.02,-0.9430000000000001 5.107,-1.717 c2.778,-1.03 4.593,-1.606 6.148,-1.925 c2.826,-0.5770000000000001 4.617,0.8190000000000001 6.3870000000000005,6.044 c0.6350000000000001,1.874 2.67,7.899 4.07,15.014 c1.723,8.746 4.02,21.48 -0.28600000000000003,24.169 zm-1.8090000000000002,-21.782 c-0.6260000000000001,-3.6660000000000004 -2.087,-9.66 -3.165,-13.16 c-1.7770000000000001,-5.771 -2.298,-7.541 -4.448,-7.6450000000000005 c-1.3330000000000002,-0.06500000000000002 -1.935,0.14900000000000002 -4.277,0.8900000000000001 c-1.8960000000000001,0.6010000000000001 -4.968,1.808 -4.968,1.808 V266.5170715332031 h2.593 c1.328,0 8.864,-0.19100000000000003 9.868,-0.19100000000000003 c4.264,0 5.434,-2.3 5.758,-3.664 c1.068,-4.502 -0.453,-11.678 -1.36,-17 " fill="#1a1a18" id="svg_35" class=""/></g></svg>