<svg xmlns="http://www.w3.org/2000/svg" viewBox="0 0 816 1056" height="1056" width="816"><path d="M345.343 404.219c-.68 1.02-1.33 1.954-1.998 2.747-2 2.104-5.789 3.462-9.623 3.584a1.455 1.455 0 0 1-.405-.043v-4.505-4.331a1.54 1.54 0 0 0 .024-.25c.066-.614.148-1.068.204-1.346.05-.294.083-.509.083-.647l1.397-8.387c1.173-7.122 1.944-14.307 1.944-15.498 0-1.89-.665-2.27-1.988-2.27-.537.005-1.09.358-1.665.971v.006l.002-.003v-4.065h-.002v1.993l.002-1.993c.105-.094.227-.19.343-.288 2.122-1.662 4.914-2.093 6.636-2.093.948 0 1.751.226 2.332.77.598.558.853 1.339.853 2.254.007.753-.27 2.542-.676 5.383l-1.18 8.464c-.16 1.174-.354 2.271-.51 3.3-.143 1.048-.253 1.8-.331 2.288-.072.47-.177 1.209-.327 2.177-.144.976-.354 2.388-.653 4.283-.421 3.007-.649 4.945-.649 5.837 0 .964.106 1.501.46 2.05.37.57.992.055 1.785-.255 1.068-.803 2.497-3.606 3.97-7.15l-.028 7.017zm-12.026 27.158v-.002a345.077 345.077 0 0 1 12.026-5.377l-.082-10.407a425.948 425.948 0 0 0-11.943 4.535l-.001 5.515v.22l.001 5.514-.001.002m0-25.376l.001-4.33-.001.011v4.319m0 4.504h-.004l.004-4.504v4.504m0-36.262l-.004.003.004-2.072v-1.993h-.004c-3.208 2.742-4.886 7.261-7.433 10.751.071-.753-.145.172.193-3.063.262-2.57.356-4.232.356-5.018 0-1.645-.61-2.46-1.818-2.465-.691 0-2.016.415-3.983 1.274-2.443.958-4.16 1.734-5.168 2.304-.11.05-.204.105-.299.155v1.85c.172-.055.4-.155.682-.304.753-.421 1.44-.61 2.083-.616 1.45 0 2.188 1.246 2.188 3.744 0 1.047-.067 2.466-.223 4.243-.836 10.419-2.685 20.778-4.73 30.957v3.464c1.946-.737 5.923-2.26 5.982-2.582 1.43-7.672 2.826-24.598 6.792-31.64 1.999-3.553 3.77-7.268 5.381-8.986v-.006m0 27.44l-.053.263c-.04.228-.09.51-.149.82-.056.266-.156.825-.305 1.684l-.382 2.305c-.117.714-.178 1.257-.178 1.638 0 1.225.36 1.94 1.064 2.111l.004-4.503v-4.319m0 23.959v.22l-.004-5.735a373.72 373.72 0 0 0-18.152 7.742v12.614a375.199 375.199 0 0 1 18.155-9.106v-.003l-.004.001.004-5.734m-18.586 15.073v-12.647l.431-.198v12.614l-.431.23m0-23.085v-1.477l.01-.063.42-2.094v3.468l-.43.166m0-41.637v-1.572c.117-.106.261-.207.43-.3v1.85a.724.724 0 0 1-.214.045.966.966 0 0 1-.217-.023m0-28.277v-8.868c.145-.02.289-.034.431-.044v5.773a668.487 668.487 0 0 0-.43 3.14m.43-3.14a241.9 241.9 0 0 1 .86-5.773 5.115 5.115 0 0 0-.86 0v5.773m-.43-5.73v8.87c-.632 4.678-1.237 9.455-1.884 13.56-.56 3.56-1.534 8.845-2.188 16.106-1.119 12.38-2.25 32.265-9.073 42.102-2.287 3.302-5.871 5.717-9.455 7.755v-7.67c.183-.15.36-.306.52-.45 9.948-9.338 9.428-29.511 11.223-43.403 1.229-9.5 2.624-18.551 4.392-27.89-2.36.454-5.34.748-7.46 1.186-3.684.765-5.07.46-8.675 1.984v-6.959c4.708-1.833 11.255-2.015 15.97-3.145 1.64-.387 4.235-1.748 6.63-2.045m0 35.573c-.29.256-.433.549-.433.875 0 .404.138.63.432.697v-1.572m0 41.732l-.277 1.582.277-.105v-1.477m0 11.916v12.647a380.387 380.387 0 0 0-22.6 13.172V439.64c7.143-4.09 14.708-7.946 22.6-11.573m-22.598 25.82v-14.245c-6.83 3.916-13.262 8.042-19.188 12.39.26 6.686-5.76 13.964-4.535 18.019a402.779 402.779 0 0 1 23.723-16.163m0-109.85l-.106.04c-4.027 1.606-4.691 1.456-9.571 5.222-3.529 2.736-3.435 5.235-2.404 9.434 1.905-1.911 4.204-3.629 6.597-4.97 2.343-1.312 4.083-2.177 5.484-2.763v-6.963m0 75.531c-3.928 3.112-14.28 6.441-16.723 4.286-1.357-1.184-2.055-2.515-2.055-4.116 0-1.467 2.449-9.138-2.692-2.16-1.212 1.646-1.772 3.291-2.436 4.798-.593 1.362-.565 2.697-.565 3.982 0 1.966.67 3.368 1.789 4.542 1.534 1.594 4.685 1.828 8.064 1.662 2.891-.144 6.525-.953 10.962-3.335 1.18-.63 2.415-1.29 3.656-1.988v-7.671" fill="#e3000f"/><path d="M423.504 363.574c-1.628 2.11-2.614 4.846-3.506 7.094-1.102 2.787-1.634 10.813 3.13 10.813.133.005.26 0 .388-.017l-.01 4.077c-4.076 1.02-6.656-.884-8.016-3.816v-12.551c.445-1.523.963-3.002 1.75-4.63 1.375-2.832 3.634-5.717 5.888-7.213.15-.095.294-.194.433-.278l-.056 6.52zm-8.015 39.064v-7.67a880.812 880.812 0 0 1 8.154-1.894l-.139 7.55c-2.618.655-5.317 1.324-8.015 2.014m0-39.548c.122-.418.206-.848.266-1.255.134-.699.15-1.363.117-2.144-.02-.442-.223-.914-.383-1.225v4.624m0 18.635a10.93 10.93 0 0 1-.398-.98v-10.143c.13-.484.26-.958.398-1.428v12.551m0-23.26v4.625c-.103.35-.232.693-.398 1.01v-6.204c.105.1.188.21.26.322.036.06.084.145.138.248m0 36.503v7.669l-.398.102v-7.677l.398-.094m-22.482 13.886v-8.202c3.27-.882 6.536-1.74 9.787-2.571v7.947a594.22 594.22 0 0 0-9.787 2.826m0-15.543v-16.336c.502-.972.786-1.659.786-1.931.006-.349.183-8.614.277-8.247.172.72-.247 2.145-1.063 3.99v5.274c.732-5.099 1.096-8.454 1.096-10.029 0-1.48-.188-1.69-.642-2.454-.155-.261-.312-.51-.454-.75v-2.44c.278-.237.68-.47 1.235-.698 1.584-.65 2.919-.88 3.932-.88.793 0 1.347.242 1.634.696.316.493.428 1.309.472 2.443.066 1.546.044 2.3-.3 4.609.915-1.434 1.945-2.848 2.814-3.773v4.239c-.31.42-.615.88-.908 1.39-.986 1.74-1.8 4.326-2.46 6.63-.665 2.354-1.296 5.556-1.9 9.632-.116.793-.293 1.94-.514 3.412-.117.958-.233 1.717-.36 2.271l-.205 1.618-3.44 1.334m22.084 9.433v-7.682a718.536 718.536 0 0 0-12.297 3.024v7.943a606.101 606.101 0 0 1 12.297-3.285m0-44.843v-.006c-.299-.288-.786-.532-1.678-.532-2.593 0-5.112.626-7.943 2.958-1.258 1.047-1.53 1.301-2.532 2.32l-.144.15v4.227c1.784-2.398 3.938-3.429 6.392-3.74 1.085-.126 1.358-.115 1.58 1.02.082.433 1.201 1.285 1.854 1.29.654.006 1.452-.193 1.906-.686.228-.239.41-.515.565-.804v-6.197m0 12.7l-.306 1.18c-.713 2.759-.669 6.187.306 8.962v-10.142m-22.084-10.214v2.44c-.544-.92-.862-1.706 0-2.44m0 10.4v5.274c-.11.765-.228 1.568-.354 2.411l-.748 4.609v10.656l1.102-.426v-16.336a45.571 45.571 0 0 1-1.102 1.99v-5.893a43.89 43.89 0 0 0 1.102-2.286m0 29.866v8.202c-.368.111-.736.22-1.102.332v-8.236l1.102-.298m-2.205 8.872l1.103-.332v-8.242l-1.103.3v8.274m0-15.37v-4.635a61.8 61.8 0 0 0 .122-.6c.133-.715.466-2.659.98-5.838v10.656l-1.07.405-.032.013m0-13.362v-5.684c.395-.702.764-1.385 1.103-2.037v5.893c-.334.57-.703 1.184-1.103 1.828m0-5.684v5.684c-2.133 3.44-5.127 7.774-8.051 11.238v-4.792c2.862-3.692 5.856-8.227 8.05-12.13m0 14.41c-.274 1.333-.535 2.413-.79 3.244-.205.47-.311.82-.311 1.064 0 .338.16.51.487.51.112 0 .308-.062.615-.182v-4.635m0 11.73v8.274a468.668 468.668 0 0 0-8.051 2.514v-8.535c2.686-.77 5.369-1.52 8.05-2.253m-8.05-27.496v-12.71c.72.191 1.32.625 1.81 1.304.702.96 1.046 2.16 1.046 3.579 0 1.972-.687 4.154-2.054 6.58-.254.419-.521.835-.802 1.247m0-12.71v12.71a28.79 28.79 0 0 1-2.855 3.545v-5.59c.659-1.057 1.146-2.076 1.346-2.98.432-1.877.233-3.002-.859-3.235a1.565 1.565 0 0 0-.487-.026v-4.128c.692-.27 1.346-.41 1.95-.41.32 0 .623.038.905.114m0 26.195v4.792a42.44 42.44 0 0 1-2.855 3.097v-4.453a59.61 59.61 0 0 0 2.855-3.436m0 16.264v8.535c-.953.308-1.905.619-2.855.931v-8.64c.951-.278 1.903-.553 2.855-.826m-16.835 14.319v-9.251c.83-.263 1.664-.525 2.498-.786v9.135c-.834.297-1.667.598-2.498.902m0-25.107v-1.17c.036.27.075.539.121.803.014.082-.046.219-.12.367m0-1.224c.246 1.682.677 3.107 1.294 4.275.355.692.76 1.257 1.203 1.706v-22.755-.005a39.967 39.967 0 0 0-1.768 5.35 31.824 31.824 0 0 0-.73 3.877v7.551m0-7.665v-.92a27.6 27.6 0 0 0 .243-1.12c.012-.06-.118.751-.243 2.04m0-21.882v-5.96c.929-.154 1.802-.32 2.498-.486v5.062c-.41.588-.747 1.047-.792 1.053-.382.092-.988.207-1.706.331m13.98 51.026v-8.646a602.013 602.013 0 0 0-11.482 3.461v9.13a519.483 519.483 0 0 1 11.482-3.945m0-51.623v-.006c-.626.244-1.29.598-1.989 1.058-1.595 1.052-3.074 2.354-4.453 3.888-1.6 1.855-2.963 3.956-4.099 6.31-.332.691-.647 1.4-.941 2.12v22.755c.825.83 1.811 1.251 2.936 1.245 1.024 0 3.82-.276 5.527-1.212.908-.51 1.933-1.33 3.019-2.377v-4.458c-1.49 1.645-2.841 2.87-3.888 3.423-1.579.83-2.631-.088-3.568-1.662-.941-1.567-1.423-3.783-1.423-6.674 0 .254.028-.466.084-2.172 2.436-.991 4.752-2.493 6.973-4.508a41.09 41.09 0 0 0 1.822-1.778v-5.59c-2.005 3.147-5.667 6.531-8.47 7.368-.608-.875.788-5.18 1.669-7.062.647-1.419 4.27-6.382 6.8-6.547v-4.121m-11.481-.788c.692-.996 1.606-2.365 1.755-2.664.654-1.229.975-2.01.981-2.332.017-.636-.15-1.102-.576-1.123-.122 0-.327.332-.753.598-.244.148-.748.31-1.407.46v5.061m-2.498-4.575v5.96c-1.867.324-4.48.717-5.777.953V347.52c1.019-1.39 1.672-2.078 1.965-2.078.34.017.506.278.494.76l-.1.62a69.7 69.7 0 0 0-1.002 5.151l-.533 3.113c-.016.083-.116.886-.238 1.6 1.332-.138 3.37-.398 5.191-.703m0 26.921v.92c-.187 1.942-.359 4.966 0 7.72v1.17c-.107.21-.247.443-.25.569-.016.56-3.169 5.66-5.527 7.81v-4.603c2.472-3.252 4.785-9.397 5.777-13.586m0 1.035a31.677 31.677 0 0 0-.244 3.883c0 1.334.081 2.557.244 3.668v-7.551m0 24.631v9.25a368.265 368.265 0 0 0-5.777 2.166v-9.538a495.932 495.932 0 0 1 5.777-1.878m-14.393 14.818a476.263 476.263 0 0 1 8.616-3.402v-9.543a529.353 529.353 0 0 0-8.616 2.918v10.027m0-18.968c.13.037.266.056.407.057 1.789.033 4.62-.775 7.578-2.868a5.58 5.58 0 0 0 .63-.516v-4.603c-.77 1.014-1.55 1.74-2.32 2.05-1.275.492-1.939-.892-1.851-3.806.034-1.24.472-5.328 1.33-12.247l1.113-8.568.992-7.833c.172-1.372.438-2.669.526-3.146l.21-.038v-15.382a69.928 69.928 0 0 0-1.35 1.95l-2.826 4.154c-.283.41-.344 2.924-.615 3.296-.144.216-1.101.188-1.933.482l-1.891 2.712v4.048c.908-.118 1.836-.218 2.756-.385l-1.054 6.735c-.393 2.55-.978 6.702-1.702 12.494v-3.68c.398-1.382.68-2.45.8-3.047-.099 1.14-.437 3.984-.8 6.904v21.237m0-44.306v4.048c-.27.036-.536.073-.8.114v-3.014l.8-1.148m0 19.212v3.68c-.173 1.38-.353 2.851-.541 4.416l-.26 2.1v14.39c.245.256.51.425.8.508v-21.237c-.287 2.313-.59 4.673-.8 6.273v-7.45c.3-.978.57-1.881.8-2.68m0 34.035v10.027l-.8.326V413.64l.8-.278m-1.367 10.59l.568-.23V413.64l-.568.2v10.113m0-20.851v-8.855l.568-4.724v14.39a3.246 3.246 0 0 1-.527-.736c-.014-.026-.028-.05-.04-.075m0-10.646v-8.627c.197-.63.387-1.24.567-1.822v7.45a81.055 81.055 0 0 1-.256 1.86c-.01.078-.118.49-.312 1.14m0-28.004c.11-.065.238-.118.39-.138l.178-.033v-3.02l-.222.311c-.114.164-.231.344-.346.528v2.352m0-2.352v2.352c-.27.156-.424.382-.529.382-.36-.005-.51-.188-.499-.565.01-.336.497-1.317 1.028-2.169m0 21.728v8.627c-.693 2.324-2.486 7.693-4.883 11.757l.071-7.007c1.725-4.086 3.482-9.178 4.812-13.377m0 10.418l-.197 1.641c-.211 1.74-.339 3.135-.366 4.226-.037 1.191.138 2.196.563 2.988v-8.855m0 19.593v10.113c-1.622.664-3.239 1.35-4.856 2.04l.044-10.403a240.841 240.841 0 0 1 4.812-1.75" fill="#e3000f"/><path d="M501.665 350.574c-.371-.123-.936-.212-1.511-.26v3.489c.497.054 1.008.138 1.516.265l-.005-3.494zm-1.593 34.637v-6.062l.082-.012v6.06l-.082.014m0-11.826v-2.34l.054-.609.028-.27v3.598a4.58 4.58 0 0 1-.082-.379m0-4.533v-4.187l.082-.178v4.243l-.082.122m0-15.059v-3.487l.082.007v3.49l-.082-.01m1.593 6.224c-.06.443-.193.88-.331 1.324a30.295 30.295 0 0 1-1.18 3.146v4.243l.226-.35c-.028.277-.094.305-.226 1.785v3.6c.243.898.763 1.468 1.523 1.695l-.011-15.443m0 24.91l.139-6.022c-.543.077-1.097.161-1.65.239v6.053c.509-.094 1.024-.177 1.511-.27m-1.593-34.62v3.486a10.713 10.713 0 0 0-1.1-.057c-2.558.006-4.353.615-5.4 1.833-1.163 1.369-2.083 3.08-2.774 5.157-.749 2.149-1.12 4.154-1.12 6.043 0 1.611.21 2.754.665 3.423.47.715 1.186 1.07 2.155 1.07 1.024 0 2.166-.444 3.44-1.346 1.246-.887 2.282-2 3.118-3.297.348-.579.688-1.227 1.016-1.954v4.187c-2.752 4.183-6.579 7.378-12.514 7.378-1.059.005-1.856-.67-2.416-1.989-.344-.786-.593-1.722-.737-2.786v-5.5c.045-.438.095-.859.155-1.24l-.155.28v.876c.454-4.187 1.923-8.308 5.046-11.243 2.25-2.11 4.017-3.059 6.281-3.855 1.334-.458 2.895-.577 4.34-.467m0 20.738c-.044.523-.08.985-.08 1.381.004.35.032.669.08.96v-2.34m0 8.104v6.062c-5.283.931-10.503 1.864-15.667 2.805v-6.535a837.868 837.868 0 0 1 15.667-2.332m-27.417 11.056v-.007a1967.6 1967.6 0 0 1 11.75-2.182v-6.536c-3.777.587-7.698 1.23-11.748 1.923l-.003 3.398v.003l.003 3.4h-.003m0-12.106v-1.38l.003 1.378-.003.002m0-21.437v-3.816h.003v3.815l-.003.001m11.751 8.335v-.006c-2.704 4.559-8.087 9.705-11.748 10.353v2.753l.327-.117c2.005-.692 3.135-1.168 4.99-2.243.743-.421 4.082-3.55 6.287-5.75-.04-1.379.022-2.79.144-4.031v5.5c-.11-.77-.165-1.601-.171-2.52 0-1.01.06-2.039.171-3.064v-.876m-11.748-8.335a11.164 11.164 0 0 1 2.603-1.053c1.308-.348 1.9-.254 2.731.116.82.367.997.726.992 1.357 0 1.08 1.075 1.396 1.883 1.247.416-.077.886-.487 1.251-.736.328-.4 1.307-1.407 1.518-1.972.438-1.224.238-1.933.061-2.471-.21-.653-.348-1.235-1.036-1.629-.67-.387-1.6-.56-2.724-.564-1.923 0-4.039.57-6.354 1.478-.316.128-.626.26-.925.41v3.817m-.003-3.815v3.816c-5.909 3.347-7.83 11.731-4.567 16.683 1.086 1.65 2.237 2.231 4.215 2.043.105-.01.227-.027.35-.05l.002 1.38v1.38c-2.093.658-4.24.703-5.56.703-1.899.005-3.395-.76-4.53-2.238-.786-1.014-1.395-2.3-1.666-3.817v.477l.172-.162a1.472 1.472 0 0 1-.172-.41v-3.876c.038-.26.076-.543.127-.842a1.829 1.829 0 0 1-.127.448v.233c.641-4.875 3.107-9.356 6.214-12.015 1.833-1.56 3.532-2.834 5.542-3.753m0 33.956v.003l-.003-3.402c-3.805.648-7.728 1.345-11.753 2.072v7.001c3.882-.775 7.802-1.523 11.756-2.27v-.007h-.003l.003-3.397m-11.84 5.695v-7.007l.084-.015v7.006l-.084.016m0-19.189v-1.042c.024.145.052.273.084.386v-3.877c-.033.26-.061.505-.084.738v2.649c.023.197.05.391.084.584v.477l-.084.085m0-3.94c.024-.25.052-.502.084-.754v-.234c-.024.06-.052.122-.084.186v.802m0-.802v.802c-.037.403-.06.805-.071 1.212-.01.557.015 1.079.07 1.582v-2.65c-.12 1.268-.096 2.156 0 2.754v1.042c-2.186 2.248-6.038 5.56-7.083 6.206-.941.583-2.266 1.108-3.716 1.485v-2.742c.215-.05.437-.127.636-.216 2.674-1.107 8.956-6.962 10.164-9.475m0 16.924v7.007c-3.627.72-7.228 1.442-10.8 2.194v-7.157c3.67-.718 7.27-1.4 10.8-2.044m-37.31-28.437c.919-.537 1.656-.89 2.404-1.095v5.25c-.976.582-1.79 1.401-2.492 2.36l.087-6.515m0 24.411c.798-.072 1.6-.376 2.405-.913v4.131l-.993.393c-.503.195-.99.35-1.451.466l.04-4.077m0 11.615c.898-.172 1.65-.348 2.404-.514v7.505c-.77.177-1.534.36-2.3.548l-.105-7.539m26.51-24.914v-3.002c2.686-1.751 5.28-4.437 5.767-6.072.32-1.069.464-2.497-1.075-2.685-1.163-.14-3.14 1.29-4.691 2.708v-4.015a21.813 21.813 0 0 1 1.977-1.075c1.594-.753 2.991-1.125 4.204-1.125 1.207 0 2.165.355 2.885 1.087.748.742 1.12 1.666 1.12 2.752.005 1.529-.737 3.207-2.194 5.074-1.48 1.79-3.424 3.473-5.838 5.063-.704.47-1.43.89-2.154 1.29m0 26.526v-7.162a921.703 921.703 0 0 0-24.106 5.036v7.499a822.71 822.71 0 0 1 24.106-5.373m0-39.592v-.007a24.282 24.282 0 0 0-2.765 1.94 22.656 22.656 0 0 0-4.364 4.852 25.903 25.903 0 0 0-2.892 5.743 18.136 18.136 0 0 0-1.03 5.983c0 2.592.548 4.63 1.634 6.12 1.595 2.205 5.899 2.182 9.417 1.275v-2.754c-1.408.333-2.981-.039-3.845-1.091-.997-1.213-1.512-2.914-1.518-5.14 0 .193.028-.355.094-1.668a26.802 26.802 0 0 0 5.269-2.187v-3.003c-1.79 1.17-3.629 1.94-4.92 1.713-.32-1.042 2.277-5.024 3.463-6.32.393-.427.897-.937 1.457-1.44v-4.016m-24.106 29.584c4.691-1.928 7.338-3.76 9.52-9.427.539-1.406 1.58-4.447 1.79-6.454 1.518-14.8-3.002-21.872-8.11-29.029-.874-1.219-2.126-1.064-3.2-.365v6.054c.892.809 1.872 1.689 2.58 2.675 1.113 1.524 3.502 6.597 3.125 8.242-2.553-.62-4.11-.864-5.705-.42v5.244c1.61-.975 3.656-1.29 6.336-.459.51.155.63 3.977.543 4.464-.92 5.19-1.124 6.62-2.183 9.056-.958 2.194-2.104 3.95-3.45 5.258-.415.403-.832.748-1.246 1.03v4.131m0-45.275v6.054c-1.225-1.108-2.283-2.072-2.233-2.952.061-.93 1.036-2.338 2.233-3.107v.005" fill="#e3000f"/><path d="M508.867 374.216c2.376-1.145 4.407-2.932 6.518-5.053.184-1.065.399-2.572.681-4.25-2.951 2.604-5.794 4.964-6.685 5.606a3.617 3.617 0 0 1-.514.317v3.38zm0-23.186c.111-.235.229-.463.348-.684.073-.139.132-.238.132-.3 0-.082-.043-.176-.132-.27a.4.4 0 0 0-.294-.127h-.054v1.381m0 32.64v-5.712a873.58 873.58 0 0 1 9.649-1.186c8.99-2.304 7.366-4.785 1.6-2.974-1.496.472-2.526.698-3.069.698-1.38 0-2.07-.725-2.07-2.17 0-.66.103-1.458.258-2.421l4.045-24.405c.31-1.873 1.097-4.89 2.298-5.679 1.136-.752 2.604-1.268 4.337-.913 1.125.238 3.019 1.435 4.022 2.73 1.871 2.405 5.3 8.924-7.44 20.933.305-1.712.621-3.579.815-4.73 2.282-2.532 3.8-4.836 4.725-6.603 2.304-4.392-.61-10.264-2.188-7.993l-3.956 23.043c-.325 1.85.2 2.487.849 2.475.575-.016 3.933-.675 6.148-.365 1.8.25 3.285 1.678 3.334 4.182.106 4.575-4.032 7.405-5.71 8.042a28575.47 28575.47 0 0 0-17.647 3.049m-7.202-29.603c.405.095.798.21 1.203.35a36.76 36.76 0 0 1-1.137 5.6l-.066 15.443c.26.077.544.115.848.12 2.458.027 4.51-.475 6.354-1.365v-3.38c-.772.397-1.681.553-2.134.182-.709-.582-.87-1.257-.87-2.354 0-5.338.706-12.842 3.004-17.634v-1.38a1.504 1.504 0 0 0-.422.126c-.797.37-2.958.299-3.528.299-1.48-.449-1.49 1.036-1.729.936a8.408 8.408 0 0 0-1.379-.444l-.144 3.501m7.202 23.89v5.713c-2.408.418-4.802.834-7.185 1.25l-.017-6.01c2.533-.344 4.933-.662 7.202-.953" fill="#e3000f"/><path d="M514.976 372.326l.26-2.421 4.044-24.405c.31-1.873 1.097-4.89 2.298-5.679 1.136-.752 2.604-1.268 4.337-.913 0 0 3.019 1.435 4.022 2.73 1.871 2.405 5.3 8.924-7.44 20.933.305-1.712.815-4.73.815-4.73 2.282-2.532 3.8-4.836 4.725-6.603 2.304-4.392-.61-10.264-2.188-7.993l-3.956 23.043c-.325 1.85.849 2.475.849 2.475s3.933-.365 6.148-.365c1.8 0 3.285 1.678 3.334 4.182.106 4.575-4.032 7.405-5.71 8.042a8776.463 8776.463 0 0 0-26.36 4.575v-6.053a785.057 785.057 0 0 1 18.362-2.372c8.99-2.304 7.366-4.785 1.6-2.974-1.496.472-3.069.698-3.069.698s-2.07-.725-2.07-2.17" fill="#e3000f"/><path d="M500.154 373.765l2.359 1.816c5.628 0 9.122-2.652 12.872-6.418 0 0 .399-2.572.681-4.25-2.951 2.604-5.794 4.964-6.685 5.606-.83.61-2.088.958-2.648.499-.709-.582-.87-2.354-.87-2.354 0-5.6.777-13.582 3.352-18.318l.132-.3-.132-.27-.294-.127-.476.127c-.797.37-3.528.299-3.528.299-1.48-.449-1.729.936-1.729.936l-3.034-.698v3.49l2.714.614c-.273 2.25-.787 4.559-1.534 6.924a30.295 30.295 0 0 1-1.18 3.146v4.243l.226-.35s-.094.306-.226 1.785v3.6M500.154 385.197c-5.312.937-10.559 1.873-15.748 2.82v-6.536a847.73 847.73 0 0 1 15.748-2.344v6.06M500.154 350.313v3.49l-1.18-.066c-2.56 0-4.354.614-5.402 1.833-1.163 1.368-2.082 3.078-2.773 5.156-.75 2.15-1.12 4.155-1.12 6.043 0 1.611.21 2.754.664 3.423.471.715 2.156 1.07 2.156 1.07s2.165-.444 3.439-1.346c1.246-.887 2.282-2 3.118-3.297a19.33 19.33 0 0 0 1.098-2.132v4.243c-2.758 4.243-6.603 7.5-12.596 7.5 0 0-1.856-.67-2.416-1.988l-.736-2.787v-5.5l.155-1.24-.155.281v.875c.454-4.186 1.922-8.307 5.045-11.243 2.25-2.11 4.017-3.058 6.282-3.855 1.357-.466 2.953-.46 4.421-.46" fill="#e3000f"/><path d="M500.154 370.165l-.028.271-.134 1.99.162 1.339v-3.6M484.406 388.017c-3.954.726-7.87 1.445-11.754 2.183l.006-6.797c4.05-.693 7.97-1.336 11.748-1.922v6.536M484.406 364.996v.875l-.172 3.064.172 2.52v-5.5l-.144 4.032c-2.205 2.2-5.544 5.328-6.287 5.75-1.855 1.075-2.985 1.55-4.99 2.243l-.328.117v-2.753c3.662-.648 9.045-5.794 11.749-10.353v.006M472.657 356.66v-3.815l.926-.411c2.315-.908 4.43-1.478 6.354-1.478 0 0 2.054.177 2.724.564.687.393 1.036 1.629 1.036 1.629s.377 1.247-.061 2.47l-1.518 1.972-1.252.737-1.883-1.247s-.171-.99-.991-1.357c-.83-.37-2.731-.116-2.731-.116s-1.81.604-2.604 1.052" fill="#e3000f"/><path d="M472.657 390.205c-3.954.748-7.876 1.495-11.758 2.271v-7.001c4.026-.727 7.948-1.424 11.753-2.072l.006 6.802M472.657 352.845v3.815c-5.91 3.346-7.832 11.732-4.57 16.685 1.087 1.65 2.239 2.043 4.216 2.043l.35-.05.005 2.759c-2.095.659-5.562.704-5.562.704-1.9 0-3.395-.76-4.53-2.238-.786-1.014-1.396-2.3-1.667-3.817v.477l.172-.162-.172-.41v-3.876l.128-.842-.128.447v.234c.642-4.875 3.107-9.356 6.214-12.015 1.833-1.56 3.534-2.836 5.545-3.754" fill="#e3000f"/><path d="M460.9 392.48a961.867 961.867 0 0 0-10.885 2.211v-7.157c3.7-.725 7.327-1.412 10.884-2.06v7.007M460.9 368.38v.234l-.156 1.966.155 2.166v.477c-2.172 2.248-6.11 5.638-7.168 6.291-.941.583-2.266 1.108-3.716 1.485v-2.742l.636-.216c2.742-1.135 9.279-7.261 10.248-9.66" fill="#e3000f"/><path d="M460.9 368.775a16.7 16.7 0 0 0 0 3.877v-3.877M450.015 368.165v-3.002c2.686-1.751 5.279-4.437 5.766-6.072 0 0 .464-2.685-1.075-2.685 0 0-3.14 1.29-4.69 2.708V355.1c.635-.393 1.976-1.075 1.976-1.075 1.594-.753 4.204-1.125 4.204-1.125s2.165.355 2.885 1.087c.748.742 1.12 2.752 1.12 2.752.005 1.53-.737 3.207-2.194 5.074-1.48 1.79-3.424 3.473-5.838 5.063-.704.47-1.429.89-2.154 1.29M450.015 394.691a822.71 822.71 0 0 0-24.106 5.373v-7.499a921.703 921.703 0 0 1 24.106-5.036v7.162M450.015 355.1v4.014a22.287 22.287 0 0 0-1.457 1.44c-1.185 1.297-3.463 6.321-3.463 6.321s3.13-.543 4.92-1.712v3.002a26.802 26.802 0 0 1-5.269 2.187l-.094 1.668c.007 2.227.522 3.928 1.518 5.14.864 1.052 2.438 1.092 3.845 1.092v2.753c-3.518.908-7.822.93-9.417-1.275-1.086-1.49-1.634-3.528-1.634-6.12 0-1.994.338-3.988 1.03-5.983a25.903 25.903 0 0 1 2.892-5.742 22.656 22.656 0 0 1 4.364-4.853c.88-.709 1.8-1.363 2.765-1.94v.007M425.91 384.682v-4.13s.83-.628 1.244-1.031c1.347-1.309 2.493-3.064 3.45-5.258 1.06-2.436 1.265-3.866 2.184-9.056l-.543-4.464c-2.68-.83-4.725-.516-6.336.46v-5.245c1.595-.444 3.152-.2 5.705.42.377-1.645-2.012-6.718-3.125-8.242-.708-.986-1.688-1.866-2.58-2.675v-6.054c1.074-.699 2.326-.854 3.2.365 5.108 7.157 9.628 14.23 8.11 29.03-.21 2.006-1.251 5.047-1.79 6.453-2.182 5.666-4.829 7.5-9.52 9.427" fill="#e3000f"/><path d="M425.91 400.07c-3.635.87-7.241 1.75-10.82 2.67v-7.677c3.635-.87 7.245-1.695 10.82-2.498v7.505M425.91 339.407v6.054c-1.226-1.108-2.234-2.952-2.234-2.952s1.036-2.338 2.233-3.107v.005M425.91 355.958v5.25c-3.114 1.872-4.615 6.198-5.912 9.46-1.102 2.787-1.634 10.813 3.13 10.813 0 0 1.85-.31 2.781-.93v4.131l-.993.393c-5.35 2.094-8.479-.504-9.825-4.33v-10.143c.549-2.049 1.12-3.927 2.149-6.059 1.374-2.83 3.633-5.716 5.888-7.212 1.047-.697 2.781-1.373 2.781-1.373M415.09 364.1c.366-.698.665-2.265.665-2.265l.117-2.144-.52-1.473-.261-.322v6.203" fill="#e3000f"/><path d="M415.09 402.745a606.101 606.101 0 0 0-12.296 3.284v-7.942c4.121-1.052 8.225-2.061 12.297-3.024v7.682M415.09 357.902v6.197l-.564.804c-.454.493-1.906.686-1.906.686l-1.855-1.29-1.579-1.02c-2.454 0-4.608 1.342-6.392 3.74v-4.226l.144-.15c1.003-1.02 1.274-1.274 2.532-2.321 2.83-2.332 5.35-2.958 7.943-2.958l1.678.532v.006M415.09 370.602v10.142c-.974-2.775-1.018-6.203-.305-8.961l.306-1.181M402.794 406.03a566.068 566.068 0 0 0-10.89 3.157v-8.236a789.001 789.001 0 0 1 10.89-2.87v7.948" fill="#e3000f"/><path d="M402.794 362.793v4.231l-.908 1.39c-.986 1.74-1.8 4.326-2.46 6.63-.665 2.354-1.296 5.557-1.9 9.633l-.514 3.412-.36 2.271-.205 1.617-4.542 1.761v-10.656l.748-4.609c.968-6.464 1.45-10.63 1.45-12.44 0-1.48-.188-1.69-.642-2.454-.942-1.579-1.95-2.763.78-3.888 1.585-.65 3.933-.88 3.933-.88l1.634.696.472 2.443c.066 1.546.044 2.3-.3 4.609.915-1.434 1.945-2.848 2.814-3.773v.007" fill="#e3000f"/><path d="M391.905 378.966a29.153 29.153 0 0 0 1.888-3.921l.277-8.247s-.654 3.34-2.165 6.275v5.893M391.905 409.193a462.026 462.026 0 0 0-12.01 3.777v-8.64a652.077 652.077 0 0 1 12.01-3.38v8.243" fill="#e3000f"/><path d="M391.905 373.073v5.893c-2.704 4.626-7.794 12.075-12.01 16.163v-4.453c4.056-4.481 9.151-12.08 12.01-17.603M391.905 383.082c-.515 3.179-.98 5.838-.98 5.838-.322 1.612-.914 3.844-.914 3.844l-.311 1.063.487.51.648-.194 1.07-.405v-10.656M379.896 377.3a28.474 28.474 0 0 0 3.657-4.792c1.367-2.427 2.054-4.609 2.054-6.58 0-1.419-.344-2.62-1.047-3.58-.682-.946-2.714-1.417-2.714-1.417l-1.95.41v4.127l.487.027s1.291 1.358.86 3.235c0 0-.688 1.923-1.347 2.98v5.59M379.896 412.97a519.483 519.483 0 0 0-11.482 3.944v-9.129a602.013 602.013 0 0 1 11.482-3.461v8.646" fill="#e3000f"/><path d="M379.896 361.347v4.121c-2.53 0-6.154 5.129-6.801 6.547-.881 1.883-2.277 6.188-1.669 7.063 2.803-.837 6.465-4.222 8.47-7.368v5.59a41.09 41.09 0 0 1-1.822 1.778c-2.221 2.015-4.537 3.516-6.973 4.507-.056 1.706-.084 2.172-.084 2.172 0 2.892.482 5.107 1.423 6.675.937 1.574 1.99 2.492 3.568 1.661 1.047-.554 2.398-1.777 3.888-3.422v4.458c-1.086 1.047-2.11 1.866-3.02 2.376-1.705.937-5.526 1.213-5.526 1.213s-2.11-.415-2.936-1.245v-22.756l.941-2.12c1.136-2.354 2.499-4.454 4.1-6.31 1.378-1.534 2.857-2.836 4.452-3.888.699-.46 1.989-1.058 1.989-1.058v.007M368.414 360.56v-5.063l1.407-.459.753-.598.576 1.123s-.327 1.103-.98 2.333c0 0-1.064 1.667-1.756 2.664M368.414 416.92c-2.77.991-5.528 2.01-8.275 3.067v-9.538c2.753-.913 5.505-1.799 8.275-2.664v9.135M368.414 355.497v5.063c-.41.587-.792 1.053-.792 1.053s-5.69 1.284-7.483 1.284v-15.376c1.019-1.39 1.965-2.077 1.965-2.077l.494.76-.1.62a69.7 69.7 0 0 0-1.002 5.15l-.533 3.113-.238 1.601c2.012 0 5.629-.697 7.689-1.19M368.414 374.717v22.756c-.443-.45-.848-1.015-1.203-1.707-1.024-1.939-1.539-4.586-1.539-7.943.005-2.591.322-5.18.974-7.76a39.967 39.967 0 0 1 1.768-5.35v.005" fill="#e3000f"/><path d="M360.139 401.094c2.358-2.149 5.528-7.81 5.528-7.81l.37-.935c-.824-4.737.122-10.564.122-10.564-.803 4.133-3.318 11.15-6.02 14.706v4.603M360.139 419.987a472.317 472.317 0 0 0-9.416 3.728v-10.074a527.344 527.344 0 0 1 9.416-3.197v9.543M360.139 347.521v15.382l-.211.039-.526 3.146-.992 7.832-1.113 8.569c-.858 6.918-1.33 12.246-1.33 12.246-.088 2.914.576 4.298 1.851 3.806 0 0 1.55-1.036 2.32-2.05v4.603l-.63.516c-2.958 2.094-5.79 2.869-7.578 2.869 0 0-.854-.194-1.207-.565v-14.39l.259-2.1c.975-8.142 1.756-13.753 2.243-16.91l1.054-6.736-3.556.5v-3.015l2.69-3.86 1.934-.482.615-3.295 2.826-4.155c.514-.759.958-1.412 1.35-1.95" fill="#e3000f"/><path d="M350.723 389.457c.476-3.618 1.422-11.134 1.6-13.177 0 0-.781 3.057-1.6 5.728v7.449M350.723 423.722a384.35 384.35 0 0 0-17.41 7.654l.005-11.25a458.088 458.088 0 0 1 17.405-6.485v10.081M350.723 361.263v3.02l-.179.032-.918.52-.499-.564s.73-1.772 1.374-2.697l.222-.31M350.723 382.008v7.449l-.256 1.861s-3.018 10.845-7.122 15.648c-2 2.104-5.789 3.584-9.623 3.584l-.41-.045.006-8.834.023-.25.205-1.346.083-.647 1.396-8.387c1.174-7.122 1.945-15.498 1.945-15.498 0-1.89-1.99-2.27-1.99-2.27s-1.09.36-1.667.974l.005-4.065.344-.289c2.122-1.662 4.913-2.093 6.636-2.093 0 0 1.75.227 2.332.77.598.558.853 2.255.853 2.255s-.271 2.542-.676 5.383l-1.18 8.464-.51 3.3-.332 2.288-.327 2.177s-.354 2.388-.653 4.282a113.415 113.415 0 0 0-.648 5.837s.105 1.502.46 2.05c.37.571 1.784-.255 1.784-.255 2.49-1.889 6.918-14.506 9.322-22.343M350.723 389.523l-.765 6.366c-.211 1.738-.366 4.226-.366 4.226s.15 2.26.604 3.062l.527.737v-14.39" fill="#e3000f"/><path d="M333.318 431.376a375.34 375.34 0 0 0-18.157 9.107V427.87a373.72 373.72 0 0 1 18.152-7.742l.005 11.249M333.318 370.182v4.065c-1.61 1.717-3.384 5.434-5.383 8.99-3.966 7.04-5.361 23.967-6.792 31.639 0 0-4.036 1.845-5.982 2.581v-3.463c2.045-10.18 3.895-20.538 4.73-30.957.156-1.778.223-4.243.223-4.243 0-2.498-.737-3.744-2.188-3.744 0 0-1.33.194-2.083.615l-.682.305v-1.85l.3-.156c1.008-.57 2.724-1.346 5.167-2.304 1.967-.859 3.983-1.273 3.983-1.273s1.818.82 1.818 2.464c0 0-.094 2.448-.356 5.018-.338 3.236-.193 3.064-.193 3.064 2.547-3.49 4.225-8.01 7.433-10.751h.005M333.318 401.67l-.055.277-.149.82-.305 1.684-.381 2.305-.179 1.639 1.064 2.11.005-8.834M315.161 344.575v-5.772h.859a241.9 241.9 0 0 0-.859 5.772M315.161 440.483a379.799 379.799 0 0 0-23.03 13.404V439.64c7.272-4.166 14.983-8.088 23.03-11.772v12.614" fill="#e3000f"/><path d="M315.161 338.803v5.772c-.791 5.627-1.523 11.67-2.314 16.7-.56 3.56-1.534 8.846-2.188 16.107-1.119 12.38-2.25 32.265-9.073 42.102-2.287 3.301-5.871 5.716-9.455 7.755v-7.671l.52-.45c9.948-9.338 9.428-29.511 11.223-43.403 1.228-9.5 2.624-18.551 4.391-27.89-2.358.455-5.339.749-7.46 1.186-3.684.765-5.069.46-8.674 1.984v-6.958c4.708-1.834 11.255-2.016 15.97-3.146 1.738-.41 4.551-2.088 7.06-2.088M315.161 374.12l-.863 1.174.649.72.214-.044v-1.85M315.161 413.994l-.42 2.094-.288 1.645.708-.27v-3.469M292.13 453.887a402.779 402.779 0 0 0-23.722 16.163c-1.226-4.055 4.796-11.333 4.535-18.019 5.926-4.348 12.358-8.474 19.188-12.39v14.246M292.13 344.037V351c-1.4.586-3.14 1.451-5.483 2.763-2.393 1.341-4.692 3.059-6.597 4.97-1.03-4.199-1.125-6.698 2.404-9.434 4.88-3.766 5.544-3.616 9.57-5.223l.107-.04M292.13 419.568v7.67c-1.24.7-2.475 1.358-3.655 1.989-4.437 2.382-8.07 3.335-10.962 3.335-3.379 0-6.53-.068-8.064-1.662-1.12-1.174-1.79-2.576-1.79-4.542 0 0-.027-2.62.566-3.982.664-1.507 1.224-3.152 2.436-4.798 5.141-6.978 2.692.693 2.692 2.16 0 1.601.698 2.932 2.055 4.116 2.442 2.155 12.795-1.174 16.723-4.286" fill="#e3000f"/><path d="M122.478 201.885c0 23.939 19.392 43.345 43.33 43.345 23.94 0 43.346-19.406 43.346-43.345h-86.676zM209.161 201.885c0-23.94-19.413-43.346-43.352-43.346-23.94 0-43.345 19.406-43.345 43.346h86.697z" fill="#007a2c" stroke="#1a1a18" stroke-width=".772" stroke-miterlimit="22.926" transform="matrix(2.2163 0 0 -2.2163 0 1056)"/><path d="M140.696 201.885c0 18.933 15.335 34.281 34.268 34.281s34.282-15.348 34.282-34.281h-68.55z" fill="#007a2c" stroke="#007a2c" stroke-width=".449" stroke-miterlimit="22.926" transform="matrix(2.2163 0 0 -2.2163 0 1056)"/><path d="M209.253 201.885c0-18.934-15.356-34.282-34.289-34.282s-34.281 15.348-34.281 34.282h68.57z" fill="#1a1a18" stroke="#1a1a18" stroke-width=".449" stroke-miterlimit="22.926" transform="matrix(2.2163 0 0 -2.2163 0 1056)"/><path d="M140.667 201.885c0 15.075 12.207 27.296 27.283 27.296s27.297-12.22 27.297-27.296h-54.58z" fill="#1a1a18" stroke="#007a2c" stroke-width=".454" stroke-miterlimit="22.926" transform="matrix(2.2163 0 0 -2.2163 0 1056)"/><path d="M195.254 201.885c0-15.076-12.228-27.297-27.304-27.297-15.076 0-27.297 12.22-27.297 27.297h54.6zM152.178 201.885c0 11.895 9.635 21.538 21.53 21.538 11.896 0 21.54-9.643 21.54-21.538h-43.07z" fill="#007a2c" stroke="#007a2c" stroke-width=".454" stroke-miterlimit="22.926" transform="matrix(2.2163 0 0 -2.2163 0 1056)"/><path d="M152.185 201.885c0 8.668 7.013 15.694 15.68 15.694 8.669 0 15.695-7.026 15.695-15.694h-31.375z" fill="#1a1a18" stroke="#007a2c" stroke-width=".454" stroke-miterlimit="22.926" transform="matrix(2.2163 0 0 -2.2163 0 1056)"/><path d="M161.171 201.885c0 6.186 5.002 11.201 11.188 11.201 6.186 0 11.201-5.015 11.201-11.201h-22.389z" fill="#007a2c" stroke="#007a2c" stroke-width=".454" stroke-miterlimit="22.926" transform="matrix(2.2163 0 0 -2.2163 0 1056)"/><path d="M161.171 201.885a6.063 6.063 0 0 0 6.062 6.075 6.075 6.075 0 0 0 6.075-6.075h-12.137z" fill="#1a1a18" stroke="#007a2c" stroke-width=".454" stroke-miterlimit="22.926" transform="matrix(2.2163 0 0 -2.2163 0 1056)"/><path d="M195.261 201.885c0-11.896-9.657-21.538-21.552-21.538-11.896 0-21.538 9.642-21.538 21.538h43.09z" fill="#1a1a18" stroke="#1a1a18" stroke-width=".454" stroke-miterlimit="22.926" transform="matrix(2.2163 0 0 -2.2163 0 1056)"/><path d="M183.568 201.885c0-8.668-7.034-15.695-15.703-15.695-8.667 0-15.694 7.027-15.694 15.695h31.397z" fill="#007a2c" stroke="#007a2c" stroke-width=".454" stroke-miterlimit="22.926" transform="matrix(2.2163 0 0 -2.2163 0 1056)"/><path d="M183.568 201.885c0-6.187-5.023-11.202-11.209-11.202s-11.202 5.015-11.202 11.202h22.41z" fill="#1a1a18" stroke="#1a1a18" stroke-width=".454" stroke-miterlimit="22.926" transform="matrix(2.2163 0 0 -2.2163 0 1056)"/><path d="M173.315 201.885a6.081 6.081 0 0 0-6.082-6.076 6.075 6.075 0 0 0-6.075 6.076h12.157z" fill="#007a2c" stroke="#007a2c" stroke-width=".454" stroke-miterlimit="22.926" transform="matrix(2.2163 0 0 -2.2163 0 1056)"/><path d="M476.982 611.764c-.975-.292-2.014-.47-3.33-.47-3.849 0-6.22 2.175-6.22 6.058 0 3.833 2.55 5.668 6.22 5.668 1.219 0 2.47-.26 3.67-.584v-6.108h-4.58v1.787h2.405v2.956c-.39.097-.878.162-1.495.162-2.42 0-3.849-1.738-3.849-4.044 0-2.323 1.462-4.11 4.11-4.11.909 0 2.046.196 2.923.601l.146-1.916M481.059 617.823c.097-1.122.715-1.966 1.932-1.966 1.22 0 1.706.91 1.772 1.966h-3.704zm5.166 2.761c-.813.455-1.723.844-2.778.844-1.348 0-2.291-.763-2.388-2.11h5.782c0-2.925-.877-5.053-3.98-5.053-2.598 0-3.88 1.998-3.88 4.419 0 2.744 1.607 4.336 4.368 4.336 1.17 0 2.08-.227 2.876-.666v-1.77M488.594 622.826h2.176v-3.07c0-1.203 0-3.411 1.77-3.411.39 0 .78.065.975.178v-2.193c-.228-.065-.455-.065-.666-.065-1.3 0-2.193 1.316-2.29 2.096h-.032v-1.9h-1.933v8.365M494.828 622.826h2.177v-4.061c0-1.088.178-2.81 1.624-2.81 1.25 0 1.25 1.104 1.25 1.884v4.987h2.177v-4.061c0-1.088.178-2.81 1.623-2.81 1.252 0 1.252 1.104 1.252 1.884v4.987h2.176v-5.28c0-1.867-.584-3.28-2.647-3.28-1.023 0-2.112.47-2.615 1.478-.471-1.04-1.3-1.479-2.469-1.479-.812 0-1.803.342-2.486 1.365h-.031v-1.17h-2.03v8.366M509.74 616.767c.73-.552 1.656-.91 2.583-.91 1.282 0 1.884.455 1.884 1.803h-1.203c-.91 0-1.982.081-2.81.488-.828.405-1.43 1.136-1.43 2.387 0 1.592 1.447 2.485 2.924 2.485.99 0 2.08-.52 2.583-1.445h.032c.017.259.017.812.098 1.25h1.916c-.049-.65-.08-1.234-.096-1.868a72.38 72.38 0 0 1-.033-2.095v-1.071c0-2.47-1.057-3.526-3.607-3.526-.925 0-2.062.244-2.907.634l.066 1.868zm1.104 3.638c0-1.283 1.446-1.446 2.42-1.446h.943c0 .65-.099 1.251-.456 1.723-.341.454-.86.746-1.526.746-.78 0-1.381-.308-1.381-1.023M518.33 622.826h2.177v-4.093c0-1.073.341-2.778 1.916-2.778 1.397 0 1.414 1.38 1.414 2.404v4.467h2.176v-5.28c0-1.884-.862-3.28-2.843-3.28-1.137 0-2.063.373-2.745 1.331h-.033v-1.137h-2.062v8.366M529.714 614.46h-2.403l3.2 8.788c0 .893-.536 1.494-1.414 1.494-.535 0-.845-.048-1.12-.146l-.147 1.608a5.53 5.53 0 0 0 1.543.227c2.275 0 2.778-1.818 3.476-3.67l3.135-8.3h-2.209l-2.014 6.107h-.032l-2.015-6.108" fill="#1a1a18"/><path d="M237.219 224.502l-64.206-20.92.404-1.7 68.106.016c0 7.94-1.492 15.672-4.304 22.604z" fill="#007a2c" stroke="#007a2c" stroke-width=".454" stroke-miterlimit="22.926" transform="matrix(2.2163 0 0 -2.2163 0 1056)"/><path d="M298.987 631.45l-2.765.885v-22.71h2.765v21.825M322.238 624.224l-3.415.95-9.84-13.354v16.28l-2.579.792v-19.26h4.28l8.976 12.46v-12.46h2.578v14.592M291.602 612.085h-7.415v24.11l-2.76.905v-25.015h-7.415v-2.453h17.59v2.453M441.494 607.675h-2.765v-20.278l2.765-.942v21.22M434.397 588.855l-4.95 18.814h-3.107l-4.346-12.128-4.283 12.128h-3.039l-3.048-11.566 2.466-.863 2.283 8.93 3.635-10.713 3.478-1.083 4.317 11.964 3.721-14.476 2.873-1.007M466.09 607.669h-18.816v-2.564l14.387-22.545-14.387 4.523v-2.454l18.847-6.216v2.513l-15.808 24.29h15.778v2.453M479.566 588.513l-2.185-10.189-2.276 10.189h4.46zm7.28 19.156h-2.942l-3.774-16.787h-5.528l-3.744 16.787h-2.801l7.688-32.226 3.318-1.051 7.783 33.277M506.665 607.669h-3.583l-6.941-16.761h-3.888v16.76h-2.76v-36.731l5.806-2.016c1.221-.435 2.282-.503 3.136-.514 2.655-.036 4.546 2.001 4.815 5.483.092 1.172.326 5.714.163 8.984-.1 2.013-.416 4.257-1.445 5.402-.839.933-1.67 1.5-2.99 2.01l7.687 17.383zm-5.99-32.586c0-.594-.217-1.91-.378-2.387-.284-.851-.773-1.003-1.256-1.32-.4-.269-.897-.211-1.444-.314-.575.012-1.709.311-2.577.566l-2.767 1.131v15.849h2.788c.872 0 1.631-.077 2.282-.226.653-.15 1.211-.266 1.667-.684.42-.387.594-.824.911-1.26 1.66-2.274.774-10.574.774-11.355M530.868 606.226c-.945.59-2.961 1.224-5.188 1.354-1.189.07-9.093.089-10.998.089h-5.24V564.64s3.02-.943 5.107-1.717c2.778-1.03 4.593-1.606 6.148-1.925 2.826-.577 4.617.819 6.387 6.044.635 1.874 2.67 7.899 4.07 15.014 1.723 8.746 4.02 21.48-.286 24.169zm-1.809-21.782c-.626-3.666-2.087-9.66-3.165-13.16-1.777-5.771-2.298-7.541-4.448-7.645-1.333-.065-1.935.149-4.277.89-1.896.601-4.968 1.808-4.968 1.808V605.3h2.593c1.328 0 8.864-.191 9.868-.191 4.264 0 5.434-2.3 5.758-3.664 1.068-4.502-.453-11.678-1.36-17" fill="#1a1a18"/></svg>