<svg xmlns="http://www.w3.org/2000/svg" width="279" height="377"><style>.a{fill:#e3000f;}.b{fill:#1a1a18;stroke-width:0.5;stroke:#007a2c;}.c{fill:#007a2c;stroke-width:0.5;stroke:#007a2c;}.d{fill:#1a1a18;stroke-width:0.5;stroke:#1a1a18;}.e{fill:#1a1a18;}</style><rect height="379" width="281" y="-1" x="-1" fill="none"/><title>  Layer 1</title><path d="m82.2 69.7c-0.7 1-1.3 2-2 2.7 -2 2.1-5.8 3.5-9.6 3.6a1.5 1.5 0 0 1-0.4 0l0-4.5 0-4.3a1.5 1.5 0 0 0 0-0.2c0.1-0.6 0.1-1.1 0.2-1.3 0.1-0.3 0.1-0.5 0.1-0.6l1.4-8.4c1.2-7.1 1.9-14.3 1.9-15.5 0-1.9-0.7-2.3-2-2.3 -0.5 0-1.1 0.4-1.7 1l0 0 0 0 0-4.1 0 0 0 2 0-2c0.1-0.1 0.2-0.2 0.3-0.3 2.1-1.7 4.9-2.1 6.6-2.1 0.9 0 1.8 0.2 2.3 0.8 0.6 0.6 0.9 1.3 0.9 2.3 0 0.8-0.3 2.5-0.7 5.4l-1.2 8.5c-0.2 1.2-0.4 2.3-0.5 3.3 -0.1 1-0.3 1.8-0.3 2.3 -0.1 0.5-0.2 1.2-0.3 2.2 -0.1 1-0.4 2.4-0.7 4.3 -0.4 3-0.6 4.9-0.6 5.8 0 1 0.1 1.5 0.5 2.1 0.4 0.6 1 0.1 1.8-0.3 1.1-0.8 2.5-3.6 4-7.1l0 7zm-12 27.2l0 0a345.1 345.1 0 0 1 12-5.4l-0.1-10.4a425.9 425.9 0 0 0-11.9 4.5l0 5.5 0 0.2 0 5.5 0 0m0-25.4l0-4.3 0 0 0 4.3m0 4.5l0 0 0-4.5 0 4.5m0-36.3l0 0 0-2.1 0-2 0 0c-3.2 2.7-4.9 7.3-7.4 10.8 0.1-0.8-0.1 0.2 0.2-3.1 0.3-2.6 0.4-4.2 0.4-5 0-1.6-0.6-2.5-1.8-2.5 -0.7 0-2 0.4-4 1.3 -2.4 1-4.2 1.7-5.2 2.3 -0.1 0.1-0.2 0.1-0.3 0.2l0 1.9c0.2-0.1 0.4-0.2 0.7-0.3 0.8-0.4 1.4-0.6 2.1-0.6 1.5 0 2.2 1.2 2.2 3.7 0 1-0.1 2.5-0.2 4.2 -0.8 10.4-2.7 20.8-4.7 31l0 3.5c1.9-0.7 5.9-2.3 6-2.6 1.4-7.7 2.8-24.6 6.8-31.6 2-3.6 3.8-7.3 5.4-9l0 0m0 27.4l-0.1 0.3c0 0.2-0.1 0.5-0.1 0.8 -0.1 0.3-0.2 0.8-0.3 1.7l-0.4 2.3c-0.1 0.7-0.2 1.3-0.2 1.6 0 1.2 0.4 1.9 1.1 2.1l0-4.5 0-4.3m0 24l0 0.2 0-5.7a373.7 373.7 0 0 0-18.2 7.7l0 12.6a375.2 375.2 0 0 1 18.2-9.1l0 0 0 0 0-5.7m-18.6 15.1l0-12.6 0.4-0.2 0 12.6 -0.4 0.2m0-23.1l0-1.5 0-0.1 0.4-2.1 0 3.5 -0.4 0.2m0-41.6l0-1.6c0.1-0.1 0.3-0.2 0.4-0.3l0 1.9a0.7 0.7 0 0 1-0.2 0 1 1 0 0 1-0.2 0m0-28.3l0-8.9c0.1 0 0.3 0 0.4 0l0 5.8a668.5 668.5 0 0 0-0.4 3.1m0.4-3.1a241.9 241.9 0 0 1 0.9-5.8 5.1 5.1 0 0 0-0.9 0l0 5.8m-0.4-5.7l0 8.9c-0.6 4.7-1.2 9.5-1.9 13.6 -0.6 3.6-1.5 8.8-2.2 16.1 -1.1 12.4-2.2 32.3-9.1 42.1 -2.3 3.3-5.9 5.7-9.5 7.8l0-7.7c0.2-0.1 0.4-0.3 0.5-0.4 9.9-9.3 9.4-29.5 11.2-43.4 1.2-9.5 2.6-18.6 4.4-27.9 -2.4 0.5-5.3 0.7-7.5 1.2 -3.7 0.8-5.1 0.5-8.7 2l0-7c4.7-1.8 11.3-2 16-3.1 1.6-0.4 4.2-1.7 6.6-2m0 35.6c-0.3 0.3-0.4 0.5-0.4 0.9 0 0.4 0.1 0.6 0.4 0.7l0-1.6m0 41.7l-0.3 1.6 0.3-0.1 0-1.5m0 11.9l0 12.6a380.4 380.4 0 0 0-22.6 13.2l0-14.2c7.1-4.1 14.7-7.9 22.6-11.6m-22.6 25.8l0-14.2c-6.8 3.9-13.3 8-19.2 12.4 0.3 6.7-5.8 14-4.5 18a402.8 402.8 0 0 1 23.7-16.2m0-109.8l-0.1 0c-4 1.6-4.7 1.5-9.6 5.2 -3.5 2.7-3.4 5.2-2.4 9.4 1.9-1.9 4.2-3.6 6.6-5 2.3-1.3 4.1-2.2 5.5-2.8l0-7m0 75.5c-3.9 3.1-14.3 6.4-16.7 4.3 -1.4-1.2-2.1-2.5-2.1-4.1 0-1.5 2.4-9.1-2.7-2.2 -1.2 1.6-1.8 3.3-2.4 4.8 -0.6 1.4-0.6 2.7-0.6 4 0 2 0.7 3.4 1.8 4.5 1.5 1.6 4.7 1.8 8.1 1.7 2.9-0.1 6.5-1 11-3.3 1.2-0.6 2.4-1.3 3.7-2l0-7.7" class="a"/><path d="m160.3 29c-1.6 2.1-2.6 4.8-3.5 7.1 -1.1 2.8-1.6 10.8 3.1 10.8 0.1 0 0.3 0 0.4 0l0 4.1c-4.1 1-6.7-0.9-8-3.8l0-12.6c0.4-1.5 1-3 1.8-4.6 1.4-2.8 3.6-5.7 5.9-7.2 0.2-0.1 0.3-0.2 0.4-0.3l-0.1 6.5 0 0zm-8 39.1l0-7.7a880.8 880.8 0 0 1 8.2-1.9l-0.1 7.6c-2.6 0.7-5.3 1.3-8 2m0-39.5c0.1-0.4 0.2-0.8 0.3-1.3 0.1-0.7 0.2-1.4 0.1-2.1 0-0.4-0.2-0.9-0.4-1.2l0 4.6m0 18.6a10.9 10.9 0 0 1-0.4-1l0-10.1c0.1-0.5 0.3-1 0.4-1.4l0 12.6m0-23.3l0 4.6c-0.1 0.4-0.2 0.7-0.4 1l0-6.2c0.1 0.1 0.2 0.2 0.3 0.3 0 0.1 0.1 0.1 0.1 0.2m0 36.5l0 7.7 -0.4 0.1 0-7.7 0.4-0.1m-22.5 13.9l0-8.2c3.3-0.9 6.5-1.7 9.8-2.6l0 7.9a594.2 594.2 0 0 0-9.8 2.8m0-15.5l0-16.3c0.5-1 0.8-1.7 0.8-1.9 0-0.3 0.2-8.6 0.3-8.2 0.2 0.7-0.2 2.1-1.1 4l0 5.3c0.7-5.1 1.1-8.5 1.1-10 0-1.5-0.2-1.7-0.6-2.5 -0.2-0.3-0.3-0.5-0.5-0.7l0-2.4c0.3-0.2 0.7-0.5 1.2-0.7 1.6-0.6 2.9-0.9 3.9-0.9 0.8 0 1.3 0.2 1.6 0.7 0.3 0.5 0.4 1.3 0.5 2.4 0.1 1.5 0 2.3-0.3 4.6 0.9-1.4 1.9-2.8 2.8-3.8l0 4.2c-0.3 0.4-0.6 0.9-0.9 1.4 -1 1.7-1.8 4.3-2.5 6.6 -0.7 2.4-1.3 5.6-1.9 9.6 -0.1 0.8-0.3 1.9-0.5 3.4 -0.1 1-0.2 1.7-0.4 2.3l-0.2 1.6 -3.4 1.3m22.1 9.4l0-7.7a718.5 718.5 0 0 0-12.3 3l0 7.9a606.1 606.1 0 0 1 12.3-3.3m0-44.8l0 0c-0.3-0.3-0.8-0.5-1.7-0.5 -2.6 0-5.1 0.6-7.9 3 -1.3 1-1.5 1.3-2.5 2.3l-0.1 0.2 0 4.2c1.8-2.4 3.9-3.4 6.4-3.7 1.1-0.1 1.4-0.1 1.6 1 0.1 0.4 1.2 1.3 1.9 1.3 0.7 0 1.5-0.2 1.9-0.7 0.2-0.2 0.4-0.5 0.6-0.8l0-6.2m0 12.7l-0.3 1.2c-0.7 2.8-0.7 6.2 0.3 9l0-10.1m-22.1-10.2l0 2.4c-0.5-0.9-0.9-1.7 0-2.4m0 10.4l0 5.3c-0.1 0.8-0.2 1.6-0.4 2.4l-0.7 4.6 0 10.7 1.1-0.4 0-16.3a45.6 45.6 0 0 1-1.1 2l0-5.9a43.9 43.9 0 0 0 1.1-2.3m0 29.9l0 8.2c-0.4 0.1-0.7 0.2-1.1 0.3l0-8.2 1.1-0.3m-2.2 8.9l1.1-0.3 0-8.2 -1.1 0.3 0 8.3m0-15.4l0-4.6a61.8 61.8 0 0 0 0.1-0.6c0.1-0.7 0.5-2.7 1-5.8l0 10.7 -1.1 0.4 0 0m0-13.4l0-5.7c0.4-0.7 0.8-1.4 1.1-2l0 5.9c-0.3 0.6-0.7 1.2-1.1 1.8m0-5.7l0 5.7c-2.1 3.4-5.1 7.8-8.1 11.2l0-4.8c2.9-3.7 5.9-8.2 8.1-12.1m0 14.4c-0.3 1.3-0.5 2.4-0.8 3.2 -0.2 0.5-0.3 0.8-0.3 1.1 0 0.3 0.2 0.5 0.5 0.5 0.1 0 0.3-0.1 0.6-0.2l0-4.6m0 11.7l0 8.3a468.7 468.7 0 0 0-8.1 2.5l0-8.5c2.7-0.8 5.4-1.5 8.1-2.3m-8-27.5l0-12.7c0.7 0.2 1.3 0.6 1.8 1.3 0.7 1 1 2.2 1 3.6 0 2-0.7 4.2-2.1 6.6 -0.3 0.4-0.5 0.8-0.8 1.2m0-12.7l0 12.7a28.8 28.8 0 0 1-2.9 3.5l0-5.6c0.7-1.1 1.1-2.1 1.3-3 0.4-1.9 0.2-3-0.9-3.2a1.6 1.6 0 0 0-0.5 0l0-4.1c0.7-0.3 1.3-0.4 2-0.4 0.3 0 0.6 0 0.9 0.1m0 26.2l0 4.8a42.4 42.4 0 0 1-2.9 3.1l0-4.5a59.6 59.6 0 0 0 2.9-3.4m0 16.3l0 8.5c-1 0.3-1.9 0.6-2.9 0.9l0-8.6c1-0.3 1.9-0.6 2.9-0.8m-16.8 14.3l0-9.3c0.8-0.3 1.7-0.5 2.5-0.8l0 9.1c-0.8 0.3-1.7 0.6-2.5 0.9m0-25.1l0-1.2c0 0.3 0.1 0.5 0.1 0.8 0 0.1 0 0.2-0.1 0.4m0-1.2c0.2 1.7 0.7 3.1 1.3 4.3 0.4 0.7 0.8 1.3 1.2 1.7l0-22.8 0 0a40 40 0 0 0-1.8 5.4 31.8 31.8 0 0 0-0.7 3.9l0 7.6m0-7.7l0-0.9a27.6 27.6 0 0 0 0.2-1.1c0-0.1-0.1 0.8-0.2 2m0-21.9l0-6c0.9-0.2 1.8-0.3 2.5-0.5l0 5.1c-0.4 0.6-0.7 1-0.8 1.1 -0.4 0.1-1 0.2-1.7 0.3m14 51l0-8.6a602 602 0 0 0-11.5 3.5l0 9.1a519.5 519.5 0 0 1 11.5-3.9m0-51.6l0 0c-0.6 0.2-1.3 0.6-2 1.1 -1.6 1.1-3.1 2.4-4.5 3.9 -1.6 1.9-3 4-4.1 6.3 -0.3 0.7-0.6 1.4-0.9 2.1l0 22.8c0.8 0.8 1.8 1.3 2.9 1.2 1 0 3.8-0.3 5.5-1.2 0.9-0.5 1.9-1.3 3-2.4l0-4.5c-1.5 1.6-2.8 2.9-3.9 3.4 -1.6 0.8-2.6-0.1-3.6-1.7 -0.9-1.6-1.4-3.8-1.4-6.7 0 0.3 0-0.5 0.1-2.2 2.4-1 4.8-2.5 7-4.5a41.1 41.1 0 0 0 1.8-1.8l0-5.6c-2 3.1-5.7 6.5-8.5 7.4 -0.6-0.9 0.8-5.2 1.7-7.1 0.6-1.4 4.3-6.4 6.8-6.5l0-4.1m-11.5-0.8c0.7-1 1.6-2.4 1.8-2.7 0.7-1.2 1-2 1-2.3 0-0.6-0.1-1.1-0.6-1.1 -0.1 0-0.3 0.3-0.8 0.6 -0.2 0.1-0.7 0.3-1.4 0.5l0 5.1m-2.5-4.6l0 6c-1.9 0.3-4.5 0.7-5.8 1l0-15.4c1-1.4 1.7-2.1 2-2.1 0.3 0 0.5 0.3 0.5 0.8l-0.1 0.6a69.7 69.7 0 0 0-1 5.2l-0.5 3.1c0 0.1-0.1 0.9-0.2 1.6 1.3-0.1 3.4-0.4 5.2-0.7m0 26.9l0 0.9c-0.2 1.9-0.4 5 0 7.7l0 1.2c-0.1 0.2-0.2 0.4-0.2 0.6 0 0.6-3.2 5.7-5.5 7.8l0-4.6c2.5-3.3 4.8-9.4 5.8-13.6m0 1a31.7 31.7 0 0 0-0.2 3.9c0 1.3 0.1 2.6 0.2 3.7l0-7.6m0 24.6l0 9.3a368.3 368.3 0 0 0-5.8 2.2l0-9.5a495.9 495.9 0 0 1 5.8-1.9m-14.4 14.8a476.3 476.3 0 0 1 8.6-3.4l0-9.5a529.4 529.4 0 0 0-8.6 2.9l0 10m0-19c0.1 0 0.3 0.1 0.4 0.1 1.8 0 4.6-0.8 7.6-2.9a5.6 5.6 0 0 0 0.6-0.5l0-4.6c-0.8 1-1.5 1.7-2.3 2.1 -1.3 0.5-1.9-0.9-1.9-3.8 0-1.2 0.5-5.3 1.3-12.2l1.1-8.6 1-7.8c0.2-1.4 0.4-2.7 0.5-3.1l0.2 0 0-15.4a69.9 69.9 0 0 0-1.3 2l-2.8 4.2c-0.3 0.4-0.3 2.9-0.6 3.3 -0.1 0.2-1.1 0.2-1.9 0.5l-1.9 2.7 0 4c0.9-0.1 1.8-0.2 2.8-0.4l-1.1 6.7c-0.4 2.6-1 6.7-1.7 12.5l0-3.7c0.4-1.4 0.7-2.4 0.8-3 -0.1 1.1-0.4 4-0.8 6.9l0 21.2m0-44.3l0 4c-0.3 0-0.5 0.1-0.8 0.1l0-3 0.8-1.1m0 19.2l0 3.7c-0.2 1.4-0.4 2.9-0.5 4.4l-0.3 2.1 0 14.4c0.2 0.3 0.5 0.4 0.8 0.5l0-21.2c-0.3 2.3-0.6 4.7-0.8 6.3l0-7.4c0.3-1 0.6-1.9 0.8-2.7m0 34l0 10 -0.8 0.3 0-10.1 0.8-0.3m-1.4 10.6l0.6-0.2 0-10.1 -0.6 0.2 0 10.1m0-20.9l0-8.9 0.6-4.7 0 14.4a3.2 3.2 0 0 1-0.5-0.7c0 0 0 0 0-0.1m0-10.6l0-8.6c0.2-0.6 0.4-1.2 0.6-1.8l0 7.5a81.1 81.1 0 0 1-0.3 1.9c0 0.1-0.1 0.5-0.3 1.1m0-28c0.1-0.1 0.2-0.1 0.4-0.1l0.2 0 0-3 -0.2 0.3c-0.1 0.2-0.2 0.3-0.3 0.5l0 2.4m0-2.4l0 2.4c-0.3 0.2-0.4 0.4-0.5 0.4 -0.4 0-0.5-0.2-0.5-0.6 0-0.3 0.5-1.3 1-2.2m0 21.7l0 8.6c-0.7 2.3-2.5 7.7-4.9 11.8l0.1-7c1.7-4.1 3.5-9.2 4.8-13.4m0 10.4l-0.2 1.6c-0.2 1.7-0.3 3.1-0.4 4.2 0 1.2 0.1 2.2 0.6 3l0-8.9m0 19.6l0 10.1c-1.6 0.7-3.2 1.4-4.9 2l0-10.4a240.8 240.8 0 0 1 4.8-1.7" class="a"/><path d="m238.5 16c-0.4-0.1-0.9-0.2-1.5-0.3l0 3.5c0.5 0.1 1 0.1 1.5 0.3l0-3.5zm-1.6 34.6l0-6.1 0.1 0 0 6.1 -0.1 0m0-11.8l0-2.3 0.1-0.6 0-0.3 0 3.6a4.6 4.6 0 0 1-0.1-0.4m0-4.5l0-4.2 0.1-0.2 0 4.2 -0.1 0.1m0-15.1l0-3.5 0.1 0 0 3.5 -0.1 0m1.6 6.2c-0.1 0.4-0.2 0.9-0.3 1.3a30.3 30.3 0 0 1-1.2 3.1l0 4.2 0.2-0.3c0 0.3-0.1 0.3-0.2 1.8l0 3.6c0.2 0.9 0.8 1.5 1.5 1.7l0-15.4m0 24.9l0.1-6c-0.5 0.1-1.1 0.2-1.6 0.2l0 6.1c0.5-0.1 1-0.2 1.5-0.3m-1.6-34.6l0 3.5a10.7 10.7 0 0 0-1.1-0.1c-2.6 0-4.4 0.6-5.4 1.8 -1.2 1.4-2.1 3.1-2.8 5.2 -0.7 2.1-1.1 4.2-1.1 6 0 1.6 0.2 2.8 0.7 3.4 0.5 0.7 1.2 1.1 2.2 1.1 1 0 2.2-0.4 3.4-1.3 1.2-0.9 2.3-2 3.1-3.3 0.3-0.6 0.7-1.2 1-2l0 4.2c-2.8 4.2-6.6 7.4-12.5 7.4 -1.1 0-1.9-0.7-2.4-2 -0.3-0.8-0.6-1.7-0.7-2.8l0-5.5c0-0.4 0.1-0.9 0.2-1.2l-0.2 0.3 0 0.9c0.5-4.2 1.9-8.3 5-11.2 2.3-2.1 4-3.1 6.3-3.9 1.3-0.5 2.9-0.6 4.3-0.5m0 20.7c0 0.5-0.1 1-0.1 1.4 0 0.4 0 0.7 0.1 1l0-2.3m0 8.1l0 6.1c-5.3 0.9-10.5 1.9-15.7 2.8l0-6.5a837.9 837.9 0 0 1 15.7-2.3m-27.4 11.1l0 0a1967.6 1967.6 0 0 1 11.8-2.2l0-6.5c-3.8 0.6-7.7 1.2-11.7 1.9l0 3.4 0 0 0 3.4 0 0m0-12.1l0-1.4 0 1.4 0 0m0-21.4l0-3.8 0 0 0 3.8 0 0m11.8 8.3l0 0c-2.7 4.6-8.1 9.7-11.7 10.4l0 2.8 0.3-0.1c2-0.7 3.1-1.2 5-2.2 0.7-0.4 4.1-3.5 6.3-5.7 0-1.4 0-2.8 0.1-4l0 5.5c-0.1-0.8-0.2-1.6-0.2-2.5 0-1 0.1-2 0.2-3.1l0-0.9m-11.7-8.3a11.2 11.2 0 0 1 2.6-1.1c1.3-0.3 1.9-0.3 2.7 0.1 0.8 0.4 1 0.7 1 1.4 0 1.1 1.1 1.4 1.9 1.2 0.4-0.1 0.9-0.5 1.3-0.7 0.3-0.4 1.3-1.4 1.5-2 0.4-1.2 0.2-1.9 0.1-2.5 -0.2-0.7-0.3-1.2-1-1.6 -0.7-0.4-1.6-0.6-2.7-0.6 -1.9 0-4 0.6-6.4 1.5 -0.3 0.1-0.6 0.3-0.9 0.4l0 3.8m0-3.8l0 3.8c-5.9 3.3-7.8 11.7-4.6 16.7 1.1 1.7 2.2 2.2 4.2 2 0.1 0 0.2 0 0.4 0l0 1.4 0 1.4c-2.1 0.7-4.2 0.7-5.6 0.7 -1.9 0-3.4-0.8-4.5-2.2 -0.8-1-1.4-2.3-1.7-3.8l0 0.5 0.2-0.2a1.5 1.5 0 0 1-0.2-0.4l0-3.9c0-0.3 0.1-0.5 0.1-0.8a1.8 1.8 0 0 1-0.1 0.4l0 0.2c0.6-4.9 3.1-9.4 6.2-12 1.8-1.6 3.5-2.8 5.5-3.8m0 34l0 0 0-3.4c-3.8 0.6-7.7 1.3-11.8 2.1l0 7c3.9-0.8 7.8-1.5 11.8-2.3l0 0 0 0 0-3.4m-11.8 5.7l0-7 0.1 0 0 7 -0.1 0m0-19.2l0-1c0 0.1 0.1 0.3 0.1 0.4l0-3.9c0 0.3-0.1 0.5-0.1 0.7l0 2.6c0 0.2 0.1 0.4 0.1 0.6l0 0.5 -0.1 0.1m0-3.9c0-0.2 0.1-0.5 0.1-0.8l0-0.2c0 0.1-0.1 0.1-0.1 0.2l0 0.8m0-0.8l0 0.8c0 0.4-0.1 0.8-0.1 1.2 0 0.6 0 1.1 0.1 1.6l0-2.6c-0.1 1.3-0.1 2.2 0 2.8l0 1c-2.2 2.2-6 5.6-7.1 6.2 -0.9 0.6-2.3 1.1-3.7 1.5l0-2.7c0.2 0 0.4-0.1 0.6-0.2 2.7-1.1 9-7 10.2-9.5m0 16.9l0 7c-3.6 0.7-7.2 1.4-10.8 2.2l0-7.2c3.7-0.7 7.3-1.4 10.8-2m-37.3-28.4c0.9-0.5 1.7-0.9 2.4-1.1l0 5.3c-1 0.6-1.8 1.4-2.5 2.4l0.1-6.5m0 24.4c0.8-0.1 1.6-0.4 2.4-0.9l0 4.1 -1 0.4c-0.5 0.2-1 0.4-1.5 0.5l0-4.1m0 11.6c0.9-0.2 1.7-0.3 2.4-0.5l0 7.5c-0.8 0.2-1.5 0.4-2.3 0.5l-0.1-7.5m26.5-24.9l0-3c2.7-1.8 5.3-4.4 5.8-6.1 0.3-1.1 0.5-2.5-1.1-2.7 -1.2-0.1-3.1 1.3-4.7 2.7l0-4a21.8 21.8 0 0 1 2-1.1c1.6-0.8 3-1.1 4.2-1.1 1.2 0 2.2 0.4 2.9 1.1 0.7 0.7 1.1 1.7 1.1 2.8 0 1.5-0.7 3.2-2.2 5.1 -1.5 1.8-3.4 3.5-5.8 5.1 -0.7 0.5-1.4 0.9-2.2 1.3m0 26.5l0-7.2a921.7 921.7 0 0 0-24.1 5l0 7.5a822.7 822.7 0 0 1 24.1-5.4m0-39.6l0 0a24.3 24.3 0 0 0-2.8 1.9 22.7 22.7 0 0 0-4.4 4.9 25.9 25.9 0 0 0-2.9 5.7 18.1 18.1 0 0 0-1 6c0 2.6 0.5 4.6 1.6 6.1 1.6 2.2 5.9 2.2 9.4 1.3l0-2.8c-1.4 0.3-3 0-3.8-1.1 -1-1.2-1.5-2.9-1.5-5.1 0 0.2 0-0.4 0.1-1.7a26.8 26.8 0 0 0 5.3-2.2l0-3c-1.8 1.2-3.6 1.9-4.9 1.7 -0.3-1 2.3-5 3.5-6.3 0.4-0.4 0.9-0.9 1.5-1.4l0-4m-24.1 29.6c4.7-1.9 7.3-3.8 9.5-9.4 0.5-1.4 1.6-4.4 1.8-6.5 1.5-14.8-3-21.9-8.1-29 -0.9-1.2-2.1-1.1-3.2-0.4l0 6.1c0.9 0.8 1.9 1.7 2.6 2.7 1.1 1.5 3.5 6.6 3.1 8.2 -2.6-0.6-4.1-0.9-5.7-0.4l0 5.2c1.6-1 3.7-1.3 6.3-0.5 0.5 0.2 0.6 4 0.5 4.5 -0.9 5.2-1.1 6.6-2.2 9.1 -1 2.2-2.1 4-3.4 5.3 -0.4 0.4-0.8 0.7-1.2 1l0 4.1m0-45.3l0 6.1c-1.2-1.1-2.3-2.1-2.2-3 0.1-0.9 1-2.3 2.2-3.1l0 0" class="a"/><path d="m245.7 39.7c2.4-1.1 4.4-2.9 6.5-5.1 0.2-1.1 0.4-2.6 0.7-4.2 -3 2.6-5.8 5-6.7 5.6a3.6 3.6 0 0 1-0.5 0.3l0 3.4zm0-23.2c0.1-0.2 0.2-0.5 0.3-0.7 0.1-0.1 0.1-0.2 0.1-0.3 0-0.1 0-0.2-0.1-0.3a0.4 0.4 0 0 0-0.3-0.1l-0.1 0 0 1.4m0 32.6l0-5.7a873.6 873.6 0 0 1 9.6-1.2c9-2.3 7.4-4.8 1.6-3 -1.5 0.5-2.5 0.7-3.1 0.7 -1.4 0-2.1-0.7-2.1-2.2 0-0.7 0.1-1.5 0.3-2.4l4-24.4c0.3-1.9 1.1-4.9 2.3-5.7 1.1-0.8 2.6-1.3 4.3-0.9 1.1 0.2 3 1.4 4 2.7 1.9 2.4 5.3 8.9-7.4 20.9 0.3-1.7 0.6-3.6 0.8-4.7 2.3-2.5 3.8-4.8 4.7-6.6 2.3-4.4-0.6-10.3-2.2-8l-4 23c-0.3 1.9 0.2 2.5 0.8 2.5 0.6 0 3.9-0.7 6.1-0.4 1.8 0.3 3.3 1.7 3.3 4.2 0.1 4.6-4 7.4-5.7 8a28575.5 28575.5 0 0 0-17.6 3m-7.2-29.6c0.4 0.1 0.8 0.2 1.2 0.4a36.8 36.8 0 0 1-1.1 5.6l-0.1 15.4c0.3 0.1 0.5 0.1 0.8 0.1 2.5 0 4.5-0.5 6.4-1.4l0-3.4c-0.8 0.4-1.7 0.6-2.1 0.2 -0.7-0.6-0.9-1.3-0.9-2.4 0-5.3 0.7-12.8 3-17.6l0-1.4a1.5 1.5 0 0 0-0.4 0.1c-0.8 0.4-3 0.3-3.5 0.3 -1.5-0.4-1.5 1-1.7 0.9a8.4 8.4 0 0 0-1.4-0.4l-0.1 3.5m7.2 23.9l0 5.7c-2.4 0.4-4.8 0.8-7.2 1.3l0-6c2.5-0.3 4.9-0.7 7.2-1" class="a"/><path d="m251.8 37.8l0.3-2.4 4-24.4c0.3-1.9 1.1-4.9 2.3-5.7 1.1-0.8 2.6-1.3 4.3-0.9 0 0 3 1.4 4 2.7 1.9 2.4 5.3 8.9-7.4 20.9 0.3-1.7 0.8-4.7 0.8-4.7 2.3-2.5 3.8-4.8 4.7-6.6 2.3-4.4-0.6-10.3-2.2-8l-4 23c-0.3 1.9 0.8 2.5 0.8 2.5s3.9-0.4 6.1-0.4c1.8 0 3.3 1.7 3.3 4.2 0.1 4.6-4 7.4-5.7 8a8776.5 8776.5 0 0 0-26.4 4.6l0-6.1a785.1 785.1 0 0 1 18.4-2.4c9-2.3 7.4-4.8 1.6-3 -1.5 0.5-3.1 0.7-3.1 0.7s-2.1-0.7-2.1-2.2" class="a"/><path d="m237 39.2l2.4 1.8c5.6 0 9.1-2.7 12.9-6.4 0 0 0.4-2.6 0.7-4.2 -3 2.6-5.8 5-6.7 5.6 -0.8 0.6-2.1 1-2.6 0.5 -0.7-0.6-0.9-2.4-0.9-2.4 0-5.6 0.8-13.6 3.4-18.3l0.1-0.3 -0.1-0.3 -0.3-0.1 -0.5 0.1c-0.8 0.4-3.5 0.3-3.5 0.3 -1.5-0.4-1.7 0.9-1.7 0.9l-3-0.7 0 3.5 2.7 0.6c-0.3 2.3-0.8 4.6-1.5 6.9a30.3 30.3 0 0 1-1.2 3.1l0 4.2 0.2-0.3s-0.1 0.3-0.2 1.8l0 3.6m0 11.4c-5.3 0.9-10.6 1.9-15.7 2.8l0-6.5a847.7 847.7 0 0 1 15.7-2.3l0 6.1m0-34.9l0 3.5 -1.2-0.1c-2.6 0-4.4 0.6-5.4 1.8 -1.2 1.4-2.1 3.1-2.8 5.2 -0.7 2.2-1.1 4.2-1.1 6 0 1.6 0.2 2.8 0.7 3.4 0.5 0.7 2.2 1.1 2.2 1.1s2.2-0.4 3.4-1.3c1.2-0.9 2.3-2 3.1-3.3a19.3 19.3 0 0 0 1.1-2.1l0 4.2c-2.8 4.2-6.6 7.5-12.6 7.5 0 0-1.9-0.7-2.4-2l-0.7-2.8 0-5.5 0.2-1.2 -0.2 0.3 0 0.9c0.5-4.2 1.9-8.3 5-11.2 2.3-2.1 4-3.1 6.3-3.9 1.4-0.5 3-0.5 4.4-0.5" class="a"/><path d="m237 35.6l0 0.3 -0.1 2 0.2 1.3 0-3.6m-15.7 17.9c-4 0.7-7.9 1.4-11.8 2.2l0-6.8c4.1-0.7 8-1.3 11.7-1.9l0 6.5m0-23l0 0.9 -0.2 3.1 0.2 2.5 0-5.5 -0.1 4c-2.2 2.2-5.5 5.3-6.3 5.8 -1.9 1.1-3 1.6-5 2.2l-0.3 0.1 0-2.8c3.7-0.6 9-5.8 11.7-10.4l0 0m-11.7-8.3l0-3.8 0.9-0.4c2.3-0.9 4.4-1.5 6.4-1.5 0 0 2.1 0.2 2.7 0.6 0.7 0.4 1 1.6 1 1.6s0.4 1.2-0.1 2.5l-1.5 2 -1.3 0.7 -1.9-1.2s-0.2-1-1-1.4c-0.8-0.4-2.7-0.1-2.7-0.1s-1.8 0.6-2.6 1.1" class="a"/><path d="m209.5 55.7c-4 0.7-7.9 1.5-11.8 2.3l0-7c4-0.7 7.9-1.4 11.8-2.1l0 6.8m0-37.4l0 3.8c-5.9 3.3-7.8 11.7-4.6 16.7 1.1 1.7 2.2 2 4.2 2l0.4 0 0 2.8c-2.1 0.7-5.6 0.7-5.6 0.7 -1.9 0-3.4-0.8-4.5-2.2 -0.8-1-1.4-2.3-1.7-3.8l0 0.5 0.2-0.2 -0.2-0.4 0-3.9 0.1-0.8 -0.1 0.4 0 0.2c0.6-4.9 3.1-9.4 6.2-12 1.8-1.6 3.5-2.8 5.5-3.8" class="a"/><path d="m197.7 57.9a961.9 961.9 0 0 0-10.9 2.2l0-7.2c3.7-0.7 7.3-1.4 10.9-2.1l0 7m0-24.1l0 0.2 -0.2 2 0.2 2.2 0 0.5c-2.2 2.2-6.1 5.6-7.2 6.3 -0.9 0.6-2.3 1.1-3.7 1.5l0-2.7 0.6-0.2c2.7-1.1 9.3-7.3 10.2-9.7" class="a"/><path d="m197.7 34.2a16.7 16.7 0 0 0 0 3.9l0-3.9m-10.9-0.6l0-3c2.7-1.8 5.3-4.4 5.8-6.1 0 0 0.5-2.7-1.1-2.7 0 0-3.1 1.3-4.7 2.7l0-4c0.6-0.4 2-1.1 2-1.1 1.6-0.8 4.2-1.1 4.2-1.1s2.2 0.4 2.9 1.1c0.7 0.7 1.1 2.8 1.1 2.8 0 1.5-0.7 3.2-2.2 5.1 -1.5 1.8-3.4 3.5-5.8 5.1 -0.7 0.5-1.4 0.9-2.2 1.3m0 26.5a822.7 822.7 0 0 0-24.1 5.4l0-7.5a921.7 921.7 0 0 1 24.1-5l0 7.2m0-39.6l0 4a22.3 22.3 0 0 0-1.5 1.4c-1.2 1.3-3.5 6.3-3.5 6.3s3.1-0.5 4.9-1.7l0 3a26.8 26.8 0 0 1-5.3 2.2l-0.1 1.7c0 2.2 0.5 3.9 1.5 5.1 0.9 1.1 2.4 1.1 3.8 1.1l0 2.8c-3.5 0.9-7.8 0.9-9.4-1.3 -1.1-1.5-1.6-3.5-1.6-6.1 0-2 0.3-4 1-6a25.9 25.9 0 0 1 2.9-5.7 22.7 22.7 0 0 1 4.4-4.9c0.9-0.7 1.8-1.4 2.8-1.9l0 0m-24.1 29.6l0-4.1s0.8-0.6 1.2-1c1.3-1.3 2.5-3.1 3.5-5.3 1.1-2.4 1.3-3.9 2.2-9.1l-0.5-4.5c-2.7-0.8-4.7-0.5-6.3 0.5l0-5.2c1.6-0.4 3.2-0.2 5.7 0.4 0.4-1.6-2-6.7-3.1-8.2 -0.7-1-1.7-1.9-2.6-2.7l0-6.1c1.1-0.7 2.3-0.9 3.2 0.4 5.1 7.2 9.6 14.2 8.1 29 -0.2 2-1.3 5-1.8 6.5 -2.2 5.7-4.8 7.5-9.5 9.4" class="a"/><path d="m162.7 65.5c-3.6 0.9-7.2 1.8-10.8 2.7l0-7.7c3.6-0.9 7.2-1.7 10.8-2.5l0 7.5m0-60.7l0 6.1c-1.2-1.1-2.2-3-2.2-3s1-2.3 2.2-3.1l0 0m0 16.6l0 5.3c-3.1 1.9-4.6 6.2-5.9 9.5 -1.1 2.8-1.6 10.8 3.1 10.8 0 0 1.9-0.3 2.8-0.9l0 4.1 -1 0.4c-5.3 2.1-8.5-0.5-9.8-4.3l0-10.1c0.5-2 1.1-3.9 2.1-6.1 1.4-2.8 3.6-5.7 5.9-7.2 1-0.7 2.8-1.4 2.8-1.4m-10.8 8.1c0.4-0.7 0.7-2.3 0.7-2.3l0.1-2.1 -0.5-1.5 -0.3-0.3 0 6.2" class="a"/><path d="m151.9 68.2a606.1 606.1 0 0 0-12.3 3.3l0-7.9c4.1-1.1 8.2-2.1 12.3-3l0 7.7m0-44.8l0 6.2 -0.6 0.8c-0.5 0.5-1.9 0.7-1.9 0.7l-1.9-1.3 -1.6-1c-2.5 0-4.6 1.3-6.4 3.7l0-4.2 0.1-0.1c1-1 1.3-1.3 2.5-2.3 2.8-2.3 5.4-3 7.9-3l1.7 0.5 0 0m0 12.7l0 10.1c-1-2.8-1-6.2-0.3-9l0.3-1.2m-12.3 35.4a566.1 566.1 0 0 0-10.9 3.2l0-8.2a789 789 0 0 1 10.9-2.9l0 7.9" class="a"/><path d="m139.6 28.2l0 4.2 -0.9 1.4c-1 1.7-1.8 4.3-2.5 6.6 -0.7 2.4-1.3 5.6-1.9 9.6l-0.5 3.4 -0.4 2.3 -0.2 1.6 -4.5 1.8 0-10.7 0.7-4.6c1-6.5 1.5-10.6 1.5-12.4 0-1.5-0.2-1.7-0.6-2.5 -0.9-1.6-1.9-2.8 0.8-3.9 1.6-0.6 3.9-0.9 3.9-0.9l1.6 0.7 0.5 2.4c0.1 1.5 0 2.3-0.3 4.6 0.9-1.4 1.9-2.8 2.8-3.8l0 0" class="a"/><path d="m128.7 44.4a29.2 29.2 0 0 0 1.9-3.9l0.3-8.2s-0.7 3.3-2.2 6.3l0 5.9m0 30.2a462 462 0 0 0-12 3.8l0-8.6a652.1 652.1 0 0 1 12-3.4l0 8.2" class="a"/><path d="m128.7 38.5l0 5.9c-2.7 4.6-7.8 12.1-12 16.2l0-4.5c4.1-4.5 9.2-12.1 12-17.6m0 10c-0.5 3.2-1 5.8-1 5.8 -0.3 1.6-0.9 3.8-0.9 3.8l-0.3 1.1 0.5 0.5 0.6-0.2 1.1-0.4 0-10.7m-12-5.8a28.5 28.5 0 0 0 3.7-4.8c1.4-2.4 2.1-4.6 2.1-6.6 0-1.4-0.3-2.6-1-3.6 -0.7-0.9-2.7-1.4-2.7-1.4l-1.9 0.4 0 4.1 0.5 0s1.3 1.4 0.9 3.2c0 0-0.7 1.9-1.3 3l0 5.6m0 35.7a519.5 519.5 0 0 0-11.5 3.9l0-9.1a602 602 0 0 1 11.5-3.5l0 8.6" class="a"/><path d="m116.7 26.8l0 4.1c-2.5 0-6.2 5.1-6.8 6.5 -0.9 1.9-2.3 6.2-1.7 7.1 2.8-0.8 6.5-4.2 8.5-7.4l0 5.6a41.1 41.1 0 0 1-1.8 1.8c-2.2 2-4.5 3.5-7 4.5 -0.1 1.7-0.1 2.2-0.1 2.2 0 2.9 0.5 5.1 1.4 6.7 0.9 1.6 2 2.5 3.6 1.7 1-0.6 2.4-1.8 3.9-3.4l0 4.5c-1.1 1-2.1 1.9-3 2.4 -1.7 0.9-5.5 1.2-5.5 1.2s-2.1-0.4-2.9-1.2l0-22.8 0.9-2.1c1.1-2.4 2.5-4.5 4.1-6.3 1.4-1.5 2.9-2.8 4.5-3.9 0.7-0.5 2-1.1 2-1.1l0 0m-11.5-0.8l0-5.1 1.4-0.5 0.8-0.6 0.6 1.1s-0.3 1.1-1 2.3c0 0-1.1 1.7-1.8 2.7m0 56.4c-2.8 1-5.5 2-8.3 3.1l0-9.5c2.8-0.9 5.5-1.8 8.3-2.7l0 9.1m0-61.4l0 5.1c-0.4 0.6-0.8 1.1-0.8 1.1s-5.7 1.3-7.5 1.3l0-15.4c1-1.4 2-2.1 2-2.1l0.5 0.8 -0.1 0.6a69.7 69.7 0 0 0-1 5.2l-0.5 3.1 -0.2 1.6c2 0 5.6-0.7 7.7-1.2m0 19.2l0 22.8c-0.4-0.4-0.8-1-1.2-1.7 -1-1.9-1.5-4.6-1.5-7.9 0-2.6 0.3-5.2 1-7.8a40 40 0 0 1 1.8-5.3l0 0" class="a"/><path d="m97 66.5c2.4-2.1 5.5-7.8 5.5-7.8l0.4-0.9c-0.8-4.7 0.1-10.6 0.1-10.6 -0.8 4.1-3.3 11.2-6 14.7l0 4.6m0 18.9a472.3 472.3 0 0 0-9.4 3.7l0-10.1a527.3 527.3 0 0 1 9.4-3.2l0 9.5m0-72.5l0 15.4 -0.2 0 -0.5 3.1 -1 7.8 -1.1 8.6c-0.9 6.9-1.3 12.2-1.3 12.2 -0.1 2.9 0.6 4.3 1.9 3.8 0 0 1.6-1 2.3-2l0 4.6 -0.6 0.5c-3 2.1-5.8 2.9-7.6 2.9 0 0-0.9-0.2-1.2-0.6l0-14.4 0.3-2.1c1-8.1 1.8-13.8 2.2-16.9l1.1-6.7 -3.6 0.5 0-3 2.7-3.9 1.9-0.5 0.6-3.3 2.8-4.2c0.5-0.8 1-1.4 1.4-1.9" class="a"/><path d="m87.5 54.9c0.5-3.6 1.4-11.1 1.6-13.2 0 0-0.8 3.1-1.6 5.7l0 7.4m0 34.3a384.4 384.4 0 0 0-17.4 7.7l0-11.2a458.1 458.1 0 0 1 17.4-6.5l0 10.1m0-62.5l0 3 -0.2 0 -0.9 0.5 -0.5-0.6s0.7-1.8 1.4-2.7l0.2-0.3m0 20.7l0 7.4 -0.3 1.9s-3 10.8-7.1 15.6c-2 2.1-5.8 3.6-9.6 3.6l-0.4 0 0-8.8 0-0.2 0.2-1.3 0.1-0.6 1.4-8.4c1.2-7.1 1.9-15.5 1.9-15.5 0-1.9-2-2.3-2-2.3s-1.1 0.4-1.7 1l0-4.1 0.3-0.3c2.1-1.7 4.9-2.1 6.6-2.1 0 0 1.8 0.2 2.3 0.8 0.6 0.6 0.9 2.3 0.9 2.3s-0.3 2.5-0.7 5.4l-1.2 8.5 -0.5 3.3 -0.3 2.3 -0.3 2.2s-0.4 2.4-0.7 4.3a113.4 113.4 0 0 0-0.6 5.8s0.1 1.5 0.5 2.1c0.4 0.6 1.8-0.3 1.8-0.3 2.5-1.9 6.9-14.5 9.3-22.3m0 7.5l-0.8 6.4c-0.2 1.7-0.4 4.2-0.4 4.2s0.2 2.3 0.6 3.1l0.5 0.7 0-14.4" class="a"/><path d="m70.1 96.8a375.3 375.3 0 0 0-18.2 9.1l0-12.6a373.7 373.7 0 0 1 18.2-7.7l0 11.2m0-61.2l0 4.1c-1.6 1.7-3.4 5.4-5.4 9 -4 7-5.4 24-6.8 31.6 0 0-4 1.8-6 2.6l0-3.5c2-10.2 3.9-20.5 4.7-31 0.2-1.8 0.2-4.2 0.2-4.2 0-2.5-0.7-3.7-2.2-3.7 0 0-1.3 0.2-2.1 0.6l-0.7 0.3 0-1.8 0.3-0.2c1-0.6 2.7-1.3 5.2-2.3 2-0.9 4-1.3 4-1.3s1.8 0.8 1.8 2.5c0 0-0.1 2.4-0.4 5 -0.3 3.2-0.2 3.1-0.2 3.1 2.5-3.5 4.2-8 7.4-10.8l0 0m0 31.5l-0.1 0.3 -0.1 0.8 -0.3 1.7 -0.4 2.3 -0.2 1.6 1.1 2.1 0-8.8m-18.2-57.1l0-5.8 0.9 0a241.9 241.9 0 0 0-0.9 5.8m0 95.9a379.8 379.8 0 0 0-23 13.4l0-14.2c7.3-4.2 15-8.1 23-11.8l0 12.6" class="a"/><path d="m52 4.3l0 5.8c-0.8 5.6-1.5 11.7-2.3 16.7 -0.6 3.6-1.5 8.8-2.2 16.1 -1.1 12.4-2.2 32.3-9.1 42.1 -2.3 3.3-5.9 5.7-9.5 7.8l0-7.7 0.5-0.4c9.9-9.3 9.4-29.5 11.2-43.4 1.2-9.5 2.6-18.6 4.4-27.9 -2.4 0.5-5.3 0.7-7.5 1.2 -3.7 0.8-5.1 0.5-8.7 2l0-7c4.7-1.8 11.3-2 16-3.1 1.7-0.4 4.6-2.1 7.1-2.1m0 35.3l-0.9 1.2 0.6 0.7 0.2 0 0-1.8m0 39.9l-0.4 2.1 -0.3 1.6 0.7-0.3 0-3.5m-23 39.9a402.8 402.8 0 0 0-23.7 16.2c-1.2-4.1 4.8-11.3 4.5-18 5.9-4.3 12.4-8.5 19.2-12.4l0 14.2m0-109.8l0 7c-1.4 0.6-3.1 1.5-5.5 2.8 -2.4 1.3-4.7 3.1-6.6 5 -1-4.2-1.1-6.7 2.4-9.4 4.9-3.8 5.5-3.6 9.6-5.2l0.1 0m0 75.5l0 7.7c-1.2 0.7-2.5 1.4-3.7 2 -4.4 2.4-8.1 3.3-11 3.3 -3.4 0-6.5-0.1-8.1-1.7 -1.1-1.2-1.8-2.6-1.8-4.5 0 0 0-2.6 0.6-4 0.7-1.5 1.2-3.2 2.4-4.8 5.1-7 2.7 0.7 2.7 2.2 0 1.6 0.7 2.9 2.1 4.1 2.4 2.2 12.8-1.2 16.7-4.3" class="a"/><path d="m8.3 274c0-53.1 43-96.1 96-96.1 53.1 0 96.1 43 96.1 96.1l-192.1 0zm192.1 0c0 53.1-43 96.1-96.1 96.1 -53.1 0-96.1-43-96.1-96.1l192.1 0z" style="fill:#007a2c;stroke-width:0.8;stroke:#1a1a18"/><path d="m48.6 274c0-42 34-76 75.9-76s76 34 76 76l-151.9 0z" style="fill:#007a2c;stroke-width:0.4;stroke:#007a2c"/><path d="m200.6 274c0 42-34 76-76 76s-76-34-76-76l152 0z" style="fill:#1a1a18;stroke-width:0.4;stroke:#1a1a18"/><path d="m48.6 274c0-33.4 27.1-60.5 60.5-60.5s60.5 27.1 60.5 60.5l-121 0z" class="b"/><path d="m169.6 274c0 33.4-27.1 60.5-60.5 60.5 -33.4 0-60.5-27.1-60.5-60.5l121 0 0 0zm-95.5 0c0-26.4 21.4-47.7 47.7-47.7 26.4 0 47.7 21.4 47.7 47.7l-95.5 0z" class="c"/><path d="m74.1 274c0-19.2 15.5-34.8 34.8-34.8 19.2 0 34.8 15.6 34.8 34.8l-69.5 0z" class="b"/><path d="m94 274c0-13.7 11.1-24.8 24.8-24.8 13.7 0 24.8 11.1 24.8 24.8l-49.6 0z" class="c"/><path d="m94 274a13.4-13.4 0 0 0 13.4-13.5 13.5-13.5 0 0 0 13.5 13.5l-26.9 0z" class="b"/><path d="m169.6 274c0 26.4-21.4 47.7-47.8 47.7 -26.4 0-47.7-21.4-47.7-47.7l95.5 0z" class="d"/><path d="m143.7 274c0 19.2-15.6 34.8-34.8 34.8 -19.2 0-34.8-15.6-34.8-34.8l69.6 0z" class="c"/><path d="m143.7 274c0 13.7-11.1 24.8-24.8 24.8s-24.8-11.1-24.8-24.8l49.7 0 0 0z" class="d"/><path d="m120.9 274a13.5-13.5 0 0 0-13.5 13.5 13.5-13.5 0 0 0-13.5-13.5l26.9 0z" class="c"/><path d="m213.8 277.2c-1-0.3-2-0.5-3.3-0.5 -3.8 0-6.2 2.2-6.2 6.1 0 3.8 2.6 5.7 6.2 5.7 1.2 0 2.5-0.3 3.7-0.6l0-6.1 -4.6 0 0 1.8 2.4 0 0 3c-0.4 0.1-0.9 0.2-1.5 0.2 -2.4 0-3.8-1.7-3.8-4 0-2.3 1.5-4.1 4.1-4.1 0.9 0 2 0.2 2.9 0.6l0.1-1.9m4.1 6.1c0.1-1.1 0.7-2 1.9-2 1.2 0 1.7 0.9 1.8 2l-3.7 0zm5.2 2.8c-0.8 0.5-1.7 0.8-2.8 0.8 -1.3 0-2.3-0.8-2.4-2.1l5.8 0c0-2.9-0.9-5.1-4-5.1 -2.6 0-3.9 2-3.9 4.4 0 2.7 1.6 4.3 4.4 4.3 1.2 0 2.1-0.2 2.9-0.7l0-1.8m2.4 2.2l2.2 0 0-3.1c0-1.2 0-3.4 1.8-3.4 0.4 0 0.8 0.1 1 0.2l0-2.2c-0.2-0.1-0.5-0.1-0.7-0.1 -1.3 0-2.2 1.3-2.3 2.1l0 0 0-1.9 -1.9 0 0 8.4m6.2 0l2.2 0 0-4.1c0-1.1 0.2-2.8 1.6-2.8 1.3 0 1.3 1.1 1.3 1.9l0 5 2.2 0 0-4.1c0-1.1 0.2-2.8 1.6-2.8 1.3 0 1.3 1.1 1.3 1.9l0 5 2.2 0 0-5.3c0-1.9-0.6-3.3-2.6-3.3 -1 0-2.1 0.5-2.6 1.5 -0.5-1-1.3-1.5-2.5-1.5 -0.8 0-1.8 0.3-2.5 1.4l0 0 0-1.2 -2 0 0 8.4m14.9-6.1c0.7-0.6 1.7-0.9 2.6-0.9 1.3 0 1.9 0.5 1.9 1.8l-1.2 0c-0.9 0-2 0.1-2.8 0.5 -0.8 0.4-1.4 1.1-1.4 2.4 0 1.6 1.4 2.5 2.9 2.5 1 0 2.1-0.5 2.6-1.4l0 0c0 0.3 0 0.8 0.1 1.3l1.9 0c0-0.6-0.1-1.2-0.1-1.9a72.4 72.4 0 0 1 0-2.1l0-1.1c0-2.5-1.1-3.5-3.6-3.5 -0.9 0-2.1 0.2-2.9 0.6l0.1 1.9zm-22.4 7.5c0-1.3 1.4-1.4 2.4-1.4l0.9 0c0 0.7-0.1 1.3-0.5 1.7 -0.3 0.5-0.9 0.7-1.5 0.7 -0.8 0-1.4-0.3-1.4-1m31-1.4l2.2 0 0-4.1c0-1.1 0.3-2.8 1.9-2.8 1.4 0 1.4 1.4 1.4 2.4l0 4.5 2.2 0 0-5.3c0-1.9-0.9-3.3-2.8-3.3 -1.1 0-2.1 0.4-2.7 1.3l0 0 0-1.1 -2.1 0 0 8.4m11.4-8.4l-2.4 0 3.2 8.8c0 0.9-0.5 1.5-1.4 1.5 -0.5 0-0.8 0-1.1-0.1l-0.1 1.6a5.5 5.5 0 0 0 1.5 0.2c2.3 0 2.8-1.8 3.5-3.7l3.1-8.3 -2.2 0 -2 6.1 0 0 -2-6.1" class="e"/><path d="m262.6 223.9l-142.3 46.4 0.9 3.8 150.9 0c0-17.6-3.3-34.7-9.5-50.1z" class="c"/><path d="m35.8 296.9l-2.8 0.9 0-22.7 2.8 0 0 21.8m23.3-7.2l-3.4 1 -9.8-13.4 0 16.3 -2.6 0.8 0-19.3 4.3 0 9 12.5 0-12.5 2.6 0 0 14.6m-30.6-12.1l-7.4 0 0 24.1 -2.8 0.9 0-25 -7.4 0 0-2.5 17.6 0 0 2.5m149.9-4.4l-2.8 0 0-20.3 2.8-0.9 0 21.2m-7.1-18.8l-4.9 18.8 -3.1 0 -4.3-12.1 -4.3 12.1 -3 0 -3-11.6 2.5-0.9 2.3 8.9 3.6-10.7 3.5-1.1 4.3 12 3.7-14.5 2.9-1m31.7 18.8l-18.8 0 0-2.6 14.4-22.5 -14.4 4.5 0-2.5 18.8-6.2 0 2.5 -15.8 24.3 15.8 0 0 2.5m13.5-19.2l-2.2-10.2 -2.3 10.2 4.5 0 0 0zm7.3 19.2l-2.9 0 -3.8-16.8 -5.5 0 -3.7 16.8 -2.8 0 7.7-32.2 3.3-1.1 7.8 33.3m19.8 0l-3.6 0 -6.9-16.8 -3.9 0 0 16.8 -2.8 0 0-36.7 5.8-2c1.2-0.4 2.3-0.5 3.1-0.5 2.7 0 4.5 2 4.8 5.5 0.1 1.2 0.3 5.7 0.2 9 -0.1 2-0.4 4.3-1.4 5.4 -0.8 0.9-1.7 1.5-3 2l7.7 17.4zm-25.8-32.6c0-0.6-0.2-1.9-0.4-2.4 -0.3-0.9-0.8-1-1.3-1.3 -0.4-0.3-0.9-0.2-1.4-0.3 -0.6 0-1.7 0.3-2.6 0.6l-2.8 1.1 0 15.8 2.8 0c0.9 0 1.6-0.1 2.3-0.2 0.7-0.1 1.2-0.3 1.7-0.7 0.4-0.4 0.6-0.8 0.9-1.3 1.7-2.3 0.8-10.6 0.8-11.4m50 31.1c-0.9 0.6-3 1.2-5.2 1.4 -1.2 0.1-9.1 0.1-11 0.1l-5.2 0 0-43s3-0.9 5.1-1.7c2.8-1 4.6-1.6 6.1-1.9 2.8-0.6 4.6 0.8 6.4 6 0.6 1.9 2.7 7.9 4.1 15 1.7 8.7 4 21.5-0.3 24.2l0 0zm-51.8-52.9c-0.6-3.7-2.1-9.7-3.2-13.2 -1.8-5.8-2.3-7.5-4.4-7.6 -1.3-0.1-1.9 0.1-4.3 0.9 -1.9 0.6-5 1.8-5 1.8l0 70.1 2.6 0c1.3 0 8.9-0.2 9.9-0.2 4.3 0 5.4-2.3 5.8-3.7 1.1-4.5-0.5-11.7-1.4-17" class="e"/></svg>