<?xml version="1.0" encoding="UTF-8" standalone="no"?>
<svg
   xmlns:dc="http://purl.org/dc/elements/1.1/"
   xmlns:cc="http://creativecommons.org/ns#"
   xmlns:rdf="http://www.w3.org/1999/02/22-rdf-syntax-ns#"
   xmlns:svg="http://www.w3.org/2000/svg"
   xmlns="http://www.w3.org/2000/svg"
   viewBox="0 0 816 1056"
   height="1056"
   width="816"
   xml:space="preserve"
   id="svg2"
   version="1.1"><metadata
     id="metadata8"><rdf:RDF><cc:Work
         rdf:about=""><dc:format>image/svg+xml</dc:format><dc:type
           rdf:resource="http://purl.org/dc/dcmitype/StillImage" /></cc:Work></rdf:RDF></metadata><defs
     id="defs6" /><g
     transform="matrix(1.3333333,0,0,-1.3333333,0,1056)"
     id="g10"><path
       id="path12"
       style="fill:#e3000f;fill-opacity:1;fill-rule:nonzero;stroke:none"
       d="m 259.0075,488.8358 c -0.5105,-0.7645 -0.9972,-1.4658 -1.4989,-2.0602 -1.5001,-1.5784 -4.3416,-2.5963 -7.2168,-2.6881 -0.1068,-0.004 -0.21,0.009 -0.3044,0.0326 0,0 0,3.3786 0,3.3786 0,0 0.001,3.2482 0.001,3.2482 0.0134,0.0794 0.017,0.1451 0.017,0.1868 0.0496,0.4612 0.1117,0.8016 0.1537,1.0097 0.0371,0.2205 0.0621,0.3818 0.0621,0.4859 0,0 1.0476,6.29 1.0476,6.29 0.8799,5.3416 1.4582,10.73 1.4582,11.6232 0,1.4171 -0.4992,1.7031 -1.4916,1.7031 -0.4025,-0.004 -0.8175,-0.2687 -1.2481,-0.7288 0,0 0,-0.004 0,-0.004 0,0 0.001,0.002 0.001,0.002 0,0 0,3.0484 0,3.0484 0,0 -0.001,0 -0.001,0 0,0 0,-1.4942 0,-1.4942 0,0 0.001,1.4942 0.001,1.4942 0.0791,0.0705 0.1707,0.1423 0.2577,0.2165 1.5914,1.2464 3.685,1.5699 4.9771,1.5699 0.7106,0 1.313,-0.1698 1.749,-0.5775 0.4484,-0.4186 0.6394,-1.0046 0.6394,-1.6908 0.005,-0.565 -0.2032,-1.9066 -0.5068,-4.0374 0,0 -0.8847,-6.3482 -0.8847,-6.3482 -0.1202,-0.8799 -0.2662,-1.7031 -0.3824,-2.4752 -0.1077,-0.7852 -0.1907,-1.3502 -0.2491,-1.7155 -0.0536,-0.353 -0.1327,-0.9066 -0.2452,-1.6328 -0.1078,-0.7319 -0.2654,-1.7909 -0.4896,-3.2119 -0.3158,-2.2558 -0.4867,-3.7089 -0.4867,-4.3779 0,-0.7231 0.0794,-1.1259 0.3456,-1.5372 0.2775,-0.4283 0.7432,-0.0419 1.3379,0.1911 0.8014,0.6018 1.8729,2.7039 2.9778,5.3623 0,0 -0.021,-5.2631 -0.021,-5.2631 0,0 0,0 0,0 z m -9.0201,-20.3687 c 0,0 0,0.002 0,0.002 2.982,1.3991 5.9803,2.7453 9.0201,4.0325 0,0 -0.0618,7.8055 -0.0618,7.8055 -3.02,-1.0962 -6.0069,-2.2297 -8.9572,-3.4019 0,0 -10e-4,-4.1363 -10e-4,-4.1363 0,0 0,-0.165 0,-0.165 0,0 10e-4,-4.1354 10e-4,-4.1354 0,0 -10e-4,-0.001 -10e-4,-0.001 0,0 0,0 0,0 m 0,19.0316 c 0,0 10e-4,3.2482 10e-4,3.2482 0,0 -10e-4,-0.009 -10e-4,-0.009 0,0 0,-3.2388 0,-3.2388 m 0,-3.3786 c 0,0 -0.003,8e-4 -0.003,8e-4 0,0 0.003,3.3778 0.003,3.3778 0,0 0,-3.3786 0,-3.3786 0,0 0,0 0,0 m 0,27.1967 c 0,0 -0.003,-0.002 -0.003,-0.002 0,0 0.003,1.5542 0.003,1.5542 0,0 0,1.4942 0,1.4942 0,0 -0.003,0 -0.003,0 -2.4055,-2.0563 -3.6641,-5.4457 -5.5744,-8.0632 0.0533,0.565 -0.1088,-0.1287 0.1449,2.2978 0.1959,1.9278 0.2664,3.1739 0.2664,3.7635 0,1.2337 -0.4572,1.8445 -1.3629,1.8482 -0.5187,0 -1.5122,-0.3109 -2.9874,-0.955 -1.8323,-0.7185 -3.1195,-1.3005 -3.8758,-1.728 -0.0825,-0.0374 -0.1536,-0.0793 -0.2245,-0.1165 0,0 0,-1.3875 0,-1.3875 0.129,0.0411 0.2996,0.1165 0.5114,0.2282 0.5649,0.3157 1.0803,0.4569 1.5621,0.4617 1.088,0 1.6413,-0.9348 1.6413,-2.8083 0,-0.7852 -0.0507,-1.849 -0.167,-3.1821 -0.627,-7.814 -2.0143,-15.5832 -3.5478,-23.2178 0,0 0,-2.5974 0,-2.5974 1.4593,0.5525 4.4419,1.6946 4.4867,1.9361 1.0726,5.7538 2.1192,18.4485 5.0935,23.7294 1.4993,2.6657 2.8273,5.4513 4.0363,6.7405 0,0 0,0.004 0,0.004 0,0 0,0 0,0 m 0,-20.5793 c 0,0 -0.04,-0.1975 -0.04,-0.1975 -0.0294,-0.171 -0.0669,-0.383 -0.1117,-0.6154 -0.0419,-0.1996 -0.1173,-0.6186 -0.229,-1.2626 0,0 -0.286,-1.7288 -0.286,-1.7288 -0.0882,-0.5355 -0.1338,-0.9431 -0.1338,-1.2291 0,-0.9182 0.2701,-1.4542 0.7977,-1.5832 0,0 0.003,3.3778 0.003,3.3778 0,0 0,3.2388 0,3.2388 0,0 0,0 0,0 m 0,-17.9688 c 0,0 0,-0.165 0,-0.165 0,0 -0.003,4.3013 -0.003,4.3013 -4.6489,-1.8405 -9.1928,-3.7805 -13.6137,-5.807 0,0 0,-9.4604 0,-9.4604 4.5193,2.422 9.0556,4.6942 13.6165,6.8295 0,0 0,0.002 0,0.002 0,0 -0.003,-6e-4 -0.003,-6e-4 0,0 0.003,4.3004 0.003,4.3004 0,0 0,0 0,0 m -13.9399,-11.3043 c 0,0 0,9.4848 0,9.4848 0,0 0.3234,0.1488 0.3234,0.1488 0,0 0,-9.4604 0,-9.4604 0,0 -0.3234,-0.1732 -0.3234,-0.1732 0,0 0,0 0,0 m 0,17.3146 c 0,0 0,1.1072 0,1.1072 0,0 0.008,0.0477 0.008,0.0477 0,0 0.3149,1.5706 0.3149,1.5706 0,0 0,-2.6013 0,-2.6013 0,0 -0.3234,-0.1242 -0.3234,-0.1242 0,0 0,0 0,0 m 0,31.2276 c 0,0 0,1.1792 0,1.1792 0.0887,0.0794 0.1967,0.1548 0.3234,0.2245 0,0 0,-1.3875 0,-1.3875 -0.0658,-0.021 -0.1154,-0.0332 -0.161,-0.0332 -0.0604,0 -0.1148,0.006 -0.1624,0.017 0,0 0,0 0,0 m 0,21.2074 c 0,0 0,6.6515 0,6.6515 0.1088,0.0145 0.2165,0.025 0.3234,0.0326 0,0 0,0 0,0 0,0 0,-4.3293 0,-4.3293 -0.1086,-0.7767 -0.2166,-1.5636 -0.3234,-2.3548 0,0 0,0 0,0 m 0.3234,2.3548 c 0.2081,1.504 0.4201,2.9582 0.644,4.3293 -0.2117,0.0199 -0.4274,0.0162 -0.644,0 0,0 0,-4.3293 0,-4.3293 m -0.3234,4.2967 c 0,0 0,-6.6515 0,-6.6515 -0.4731,-3.5087 -0.9275,-7.0917 -1.4123,-10.1701 -0.4198,-2.6708 -1.1505,-6.6345 -1.6412,-12.0802 -0.8388,-9.2854 -1.6869,-24.1988 -6.8043,-31.5765 -1.7158,-2.4763 -4.4036,-4.2874 -7.0917,-5.8161 0,0 0,5.7529 0,5.7529 0.1375,0.1128 0.2698,0.229 0.3903,0.337 7.4608,7.0039 7.0708,22.1338 8.4169,32.5525 0.9216,7.1255 1.9684,13.9136 3.2939,20.9175 -1.7691,-0.3408 -4.0045,-0.5613 -5.5953,-0.8893 -2.7627,-0.5737 -3.8016,-0.3447 -6.5058,-1.4879 0,0 0,5.2186 0,5.2186 3.5314,1.3754 8.4416,1.5117 11.9772,2.359 1.2297,0.29 3.1765,1.311 4.9723,1.5341 0,0 0,0 0,0 m 0,-26.6797 c -0.2175,-0.1924 -0.3243,-0.4118 -0.3243,-0.6562 0,-0.3036 0.1037,-0.4722 0.3243,-0.523 0,0 0,1.1792 0,1.1792 0,0 0,0 0,0 m 0,-31.2996 c 0,0 -0.2081,-1.186 -0.2081,-1.186 0,0 0.2081,0.0788 0.2081,0.0788 0,0 0,1.1072 0,1.1072 0,0 0,0 0,0 m 0,-8.937 c 0,0 0,-9.4848 0,-9.4848 -5.6659,-3.0461 -11.3111,-6.3286 -16.9495,-9.8793 0,0 0,10.6844 0,10.6844 5.3569,3.0679 11.0304,5.9601 16.9495,8.6797 0,0 0,0 0,0 M 219.098,451.5851 c 0,0 0,10.6844 0,10.6844 -5.1222,-2.937 -9.9459,-6.0316 -14.3907,-9.2928 0.1956,-5.0145 -4.3205,-10.4726 -3.4015,-13.5139 5.94,4.3619 11.8644,8.3877 17.7922,12.1223 0,0 0,0 0,0 m 0,82.3873 c 0,0 -0.0794,-0.0295 -0.0794,-0.0295 -3.02,-1.2053 -3.5181,-1.0927 -7.1782,-3.9169 -2.6464,-2.0526 -2.5758,-3.9265 -1.8028,-7.0755 1.4287,1.4332 3.1527,2.7215 4.9479,3.7269 1.7572,0.984 3.062,1.6328 4.1125,2.0727 0,0 0,5.2223 0,5.2223 0,0 0,0 0,0 m 0,-56.6484 c -2.9458,-2.3338 -10.7102,-4.8311 -12.5422,-3.2148 -1.0173,0.8884 -1.5409,1.8865 -1.5409,3.087 0,1.1004 1.8366,6.8541 -2.0191,1.6202 -0.9094,-1.2347 -1.3292,-2.4684 -1.8272,-3.5983 -0.4448,-1.0218 -0.4238,-2.023 -0.4238,-2.9865 0,-1.4743 0.5026,-2.526 1.3416,-3.4067 1.1506,-1.1957 3.5144,-1.3711 6.0486,-1.2461 2.1682,0.1077 4.8932,0.7146 8.2216,2.501 0.8844,0.4731 1.8108,0.9674 2.7414,1.4913 0,0 0,5.7529 0,5.7529" /><path
       id="path14"
       style="fill:#e3000f;fill-opacity:1;fill-rule:nonzero;stroke:none"
       d="m 317.6283,519.3198 c -1.2215,-1.5831 -1.961,-3.6348 -2.6297,-5.3209 -0.8263,-2.0905 -1.2254,-8.1096 2.3471,-8.1096 0.1003,-0.004 0.1958,0 0.2911,0.0125 0,0 -0.008,-3.0575 -0.008,-3.0575 -3.0563,-0.7651 -4.9913,0.6633 -6.0114,2.8619 0,0 0,9.4133 0,9.4133 0.3339,1.142 0.7222,2.2515 1.313,3.473 1.0306,2.1234 2.7252,4.2874 4.4158,5.4096 0.1117,0.0706 0.2205,0.1451 0.3248,0.2078 0,0 -0.0422,-4.8901 -0.0422,-4.8901 0,0 0,0 0,0 z m -6.0114,-29.298 c 0,0 0,5.7518 0,5.7518 2.0514,0.4867 4.0906,0.9609 6.1154,1.421 0,0 -0.104,-5.6622 -0.104,-5.6622 -1.9639,-0.4918 -3.9884,-0.9936 -6.0114,-1.5106 0,0 0,0 0,0 m 0,29.6606 c 0.0915,0.3138 0.1544,0.6364 0.1995,0.9417 0.1001,0.5238 0.1125,1.0219 0.0876,1.6078 -0.015,0.3311 -0.167,0.6851 -0.2871,0.9187 0,0 0,-3.4682 0,-3.4682 m 0,-13.9762 c -0.1098,0.2367 -0.2101,0.4827 -0.2988,0.7356 0,0 0,7.6067 0,7.6067 0.0972,0.3629 0.1956,0.7186 0.2988,1.071 0,0 0,-9.4133 0,-9.4133 0,0 0,0 0,0 m 0,17.4444 c 0,0 0,-3.4682 0,-3.4682 -0.0772,-0.2625 -0.1738,-0.5193 -0.2988,-0.7569 0,0 0,4.6528 0,4.6528 0.0791,-0.0754 0.1411,-0.1584 0.1956,-0.2415 0.0266,-0.0448 0.0629,-0.1088 0.1032,-0.1862 0,0 0,0 0,0 m 0,-27.377 c 0,0 0,-5.7518 0,-5.7518 0,0 -0.2988,-0.0765 -0.2988,-0.0765 0,0 0,5.7577 0,5.7577 0,0 0.2988,0.0706 0.2988,0.0706 0,0 0,0 0,0 M 294.755,485.3585 c 0,0 0,6.1518 0,6.1518 2.4533,0.6613 4.9019,1.3053 7.3408,1.9284 0,0 0,-5.9607 0,-5.9607 -2.459,-0.6911 -4.9076,-1.3904 -7.3408,-2.1195 0,0 0,0 0,0 m 0,11.6575 c 0,0 0,12.2519 0,12.2519 0.377,0.7294 0.5896,1.2444 0.5896,1.4485 0.005,0.2616 0.1374,6.4602 0.208,6.1852 0.1287,-0.54 -0.1851,-1.6087 -0.7976,-2.9922 0,0 0,-3.9561 0,-3.9561 0.5496,3.8245 0.8226,6.3406 0.8226,7.522 0,1.1098 -0.1412,1.2671 -0.4819,1.8406 -0.1162,0.1956 -0.2339,0.3827 -0.3407,0.5629 0,0 0,1.8301 0,1.8301 0.2089,0.1774 0.5096,0.3512 0.9263,0.523 1.1883,0.4867 2.1892,0.6604 2.9495,0.6604 0.5947,0 1.0097,-0.1822 1.2254,-0.5229 0.2367,-0.3694 0.3206,-0.9811 0.354,-1.8321 0.0496,-1.1593 0.0326,-1.7243 -0.2253,-3.4563 0.6862,1.0755 1.459,2.1357 2.1109,2.8293 0,0 0,-0.005 0,-0.005 0,0 0,-3.1737 0,-3.1737 -0.233,-0.3158 -0.4612,-0.6602 -0.6814,-1.0429 -0.7396,-1.3045 -1.3501,-3.2442 -1.8445,-4.9725 -0.4992,-1.7651 -0.9723,-4.1669 -1.4247,-7.2241 -0.0876,-0.5944 -0.2205,-1.4542 -0.3864,-2.5591 -0.0878,-0.7186 -0.1746,-1.2872 -0.2698,-1.7033 0,0 -0.1537,-1.213 -0.1537,-1.213 0,0 -2.5803,-1.0009 -2.5803,-1.0009 0,0 0,0 0,0 m 16.5631,-7.0744 c 0,0 0,5.7614 0,5.7614 -3.0535,-0.7223 -6.1316,-1.4791 -9.2223,-2.268 0,0 0,-5.957 0,-5.957 3.0487,0.8509 6.1277,1.6696 9.2223,2.4636 0,0 0,0 0,0 m 0,33.6319 c 0,0 0,0.005 0,0.005 -0.224,0.2157 -0.5896,0.3989 -1.2586,0.3989 -1.9446,0 -3.8339,-0.4695 -5.957,-2.2184 -0.9437,-0.7855 -1.1469,-0.9763 -1.8989,-1.7408 0,0 -0.1078,-0.1125 -0.1078,-0.1125 0,0 0,-3.17 0,-3.17 1.3377,1.7989 2.9532,2.5719 4.794,2.8046 0.8138,0.0955 1.0179,0.0867 1.184,-0.7642 0.0621,-0.3246 0.9017,-0.9638 1.3913,-0.9675 0.4904,-0.005 1.0888,0.1449 1.4292,0.5142 0.1709,0.1794 0.3073,0.3864 0.4238,0.6029 0,0 0,4.648 0,4.648 0,0 0,0 0,0 m 0,-9.525 c 0,0 -0.2291,-0.8855 -0.2291,-0.8855 -0.5351,-2.0684 -0.5017,-4.64 0.2291,-6.7212 0,0 0,7.6067 0,7.6067 m -16.5631,7.6604 c 0,0 0,-1.8301 0,-1.8301 -0.4074,0.69 -0.6461,1.2796 0,1.8301 0,0 0,0 0,0 m 0,-7.7995 c 0,0 0,-3.9561 0,-3.9561 -0.0822,-0.5734 -0.171,-1.1758 -0.2654,-1.8082 0,0 -0.5609,-3.4563 -0.5609,-3.4563 0,0 0,-7.9923 0,-7.9923 0,0 0.8263,0.3195 0.8263,0.3195 0,0 0,12.2519 0,12.2519 -0.2223,-0.4303 -0.5009,-0.934 -0.8263,-1.4922 0,0 0,4.4198 0,4.4198 0.314,0.6098 0.5916,1.1843 0.8263,1.7139 0,0 0,0 0,0 m 0,-22.3991 c 0,0 0,-6.1518 0,-6.1518 -0.2759,-0.083 -0.5517,-0.165 -0.8263,-0.2489 0,0 0,6.1773 0,6.1773 0.2758,0.0743 0.5504,0.1491 0.8263,0.2234 0,0 0,0 0,0 m -1.6538,-6.6538 c 0.2761,0.0831 0.5517,0.1661 0.8275,0.2489 0,0 0,6.1815 0,6.1815 0,0 -0.8275,-0.2251 -0.8275,-0.2251 0,0 0,-6.2053 0,-6.2053 0,0 0,0 0,0 m 0,11.5268 c 0,0 0,3.4764 0,3.4764 0.0306,0.146 0.0613,0.2968 0.0919,0.4504 0.1,0.5361 0.3492,1.9942 0.7356,4.3787 0,0 0,-7.9923 0,-7.9923 0,0 -0.8025,-0.3036 -0.8025,-0.3036 0,0 -0.025,-0.01 -0.025,-0.01 0,0 0,0 0,0 m 0,10.0213 c 0,0 0,4.2633 0,4.2633 0.2968,0.5267 0.5735,1.0384 0.8275,1.5276 0,0 0,0 0,0 0,0 0,-4.4198 0,-4.4198 -0.2501,-0.4274 -0.527,-0.8875 -0.8275,-1.3711 m 0,4.2633 c 0,0 0,-4.2633 0,-4.2633 -1.5998,-2.5801 -3.8452,-5.8303 -6.0381,-8.4285 0,0 0,3.5943 0,3.5943 2.147,2.7692 4.392,6.1699 6.0381,9.0975 0,0 0,0 0,0 m 0,-10.8082 c -0.2058,-0.9992 -0.4014,-1.8093 -0.5933,-2.4324 -0.1536,-0.3529 -0.233,-0.6145 -0.233,-0.7977 0,-0.2537 0.1202,-0.3826 0.3657,-0.3826 0.0839,0 0.2307,0.0467 0.4606,0.1363 0,0 0,3.4764 0,3.4764 0,0 0,0 0,0 m 0,-8.7979 c 0,0 0,-6.2053 0,-6.2053 -2.0199,-0.6106 -4.0331,-1.2396 -6.0381,-1.8853 0,0 0,6.4009 0,6.4009 2.0143,0.5771 4.0269,1.1401 6.0381,1.6897 0,0 0,0 0,0 m -6.0381,20.6224 c 0,0 0,9.5323 0,9.5323 0.54,-0.1431 0.9908,-0.4686 1.357,-0.9779 0.5275,-0.7195 0.7855,-1.6203 0.7855,-2.6842 0,-1.4788 -0.5156,-3.1155 -1.5412,-4.9351 -0.1899,-0.3138 -0.3904,-0.6262 -0.6013,-0.9351 m 0,9.5323 c 0,0 0,-9.5323 0,-9.5323 -0.619,-0.9102 -1.332,-1.7995 -2.1412,-2.6587 0,0 0,4.1919 0,4.1919 0.4943,0.7929 0.8597,1.5574 1.0097,2.2351 0.3242,1.408 0.1746,2.2516 -0.6441,2.4265 -0.1204,0.0249 -0.2443,0.0332 -0.3656,0.0198 0,0 0,3.0955 0,3.0955 0.5193,0.2035 1.0097,0.3072 1.4629,0.3072 0.2404,0 0.4666,-0.0275 0.6783,-0.085 0,0 0,0 0,0 m 0,-19.6461 c 0,0 0,-3.5943 0,-3.5943 -0.727,-0.8629 -1.4502,-1.6529 -2.1412,-2.3227 0,0 0,3.3398 0,3.3398 0.6842,0.7557 1.4065,1.6299 2.1412,2.5772 0,0 0,0 0,0 m 0,-12.1983 c 0,0 0,-6.4009 0,-6.4009 -0.7146,-0.231 -1.4283,-0.4641 -2.1412,-0.6985 0,0 0,6.48 0,6.48 0.7137,0.2089 1.4275,0.415 2.1412,0.6194 0,0 0,0 0,0 m -12.626,-10.7388 c 0,0 0,6.9381 0,6.9381 0.623,0.1976 1.2481,0.394 1.8731,0.5896 0,0 0,-6.8513 0,-6.8513 -0.625,-0.2231 -1.2501,-0.4485 -1.8731,-0.6764 0,0 0,0 0,0 m 0,18.8303 c 0,0 0,0.877 0,0.877 0.0266,-0.2024 0.0561,-0.4036 0.0907,-0.6023 0.0105,-0.061 -0.0346,-0.1639 -0.0907,-0.2747 0,0 0,0 0,0 m 0,0.9181 c 0.1854,-1.2617 0.5085,-2.3303 0.9714,-3.2062 0.2662,-0.5193 0.5695,-0.9428 0.9017,-1.2799 0,0 0,17.0663 0,17.0663 0,0 0,0.004 0,0.004 -0.5315,-1.2833 -0.9677,-2.6212 -1.3255,-4.0125 -0.2452,-0.9683 -0.4266,-1.938 -0.5476,-2.9083 0,0 0,-5.6631 0,-5.6631 0,0 0,0 0,0 m 0,5.749 c 0,0 0,0.6899 0,0.6899 0.0697,0.2937 0.1309,0.5755 0.1822,0.8405 0.009,0.0451 -0.0887,-0.5638 -0.1822,-1.5304 0,0 0,0 0,0 m 0,16.4114 c 0,0 0,4.4694 0,4.4694 0.6964,0.1162 1.3512,0.2404 1.8731,0.3654 0,0 0,0 0,0 0,0 0,-3.7967 0,-3.7967 -0.3073,-0.4408 -0.5601,-0.7855 -0.5936,-0.79 -0.2863,-0.0686 -0.7412,-0.1548 -1.2795,-0.2481 0,0 0,0 0,0 m 10.4848,-38.2694 c 0,0 0,6.4846 0,6.4846 -2.8789,-0.8394 -5.749,-1.6994 -8.6117,-2.5963 0,0 0,-6.8465 0,-6.8465 2.859,1.0222 5.7291,2.0029 8.6117,2.9582 0,0 0,0 0,0 m 0,38.717 c 0,0 0,0.005 0,0.005 -0.4695,-0.1832 -0.9675,-0.4485 -1.4913,-0.7937 -1.1968,-0.7892 -2.3055,-1.7655 -3.3398,-2.9163 -1.2005,-1.3913 -2.2224,-2.9665 -3.0745,-4.7319 -0.2492,-0.519 -0.4856,-1.0505 -0.7061,-1.5905 0,0 0,-17.0663 0,-17.0663 0.6194,-0.623 1.3587,-0.9385 2.2022,-0.934 0.7682,0 2.8656,0.2072 4.1451,0.9094 0.6815,0.3826 1.4502,0.9972 2.2644,1.7824 0,0 0,3.3437 0,3.3437 -1.1175,-1.2339 -2.1308,-2.1517 -2.9158,-2.567 -1.1843,-0.6231 -1.9734,0.0657 -2.6759,1.2461 -0.7061,1.1755 -1.0678,2.8372 -1.0678,5.006 0,-0.1911 0.0213,0.3492 0.0632,1.6288 1.8273,0.7432 3.5638,1.8694 5.2297,3.3808 0.4773,0.4369 0.9343,0.8856 1.3666,1.3337 0,0 0,4.1919 0,4.1919 -1.5038,-2.3595 -4.25,-4.898 -6.3522,-5.5256 -0.4561,0.6563 0.5907,3.8846 1.2512,5.2969 0.4856,1.0638 3.2032,4.786 5.101,4.9101 0,0 0,3.0909 0,3.0909 0,0 0,0 0,0 m -8.6117,0.5905 c 0.5193,0.7472 1.205,1.7739 1.3167,1.9981 0.4907,0.9219 0.7311,1.5075 0.7356,1.7493 0.0125,0.4768 -0.1125,0.8263 -0.432,0.8424 -0.0916,0 -0.2452,-0.2491 -0.565,-0.4487 -0.1831,-0.1114 -0.5609,-0.2324 -1.0553,-0.3444 0,0 0,-3.7967 0,-3.7967 m -1.8731,3.4313 c 0,0 0,-4.4694 0,-4.4694 -1.4006,-0.2435 -3.3608,-0.5383 -4.3331,-0.7149 0,0 0,11.5319 0,11.5319 0.7643,1.0429 1.2546,1.558 1.474,1.558 0.2543,-0.0125 0.3793,-0.2081 0.3705,-0.5695 0,0 -0.0754,-0.4649 -0.0754,-0.4649 -0.2653,-1.1259 -0.523,-2.414 -0.7509,-3.8636 0,0 -0.3996,-2.3346 -0.3996,-2.3346 -0.0125,-0.0624 -0.0871,-0.6642 -0.1786,-1.2005 0.9989,0.1037 2.5268,0.2993 3.8931,0.5275 0,0 0,0 0,0 m 0,-20.1909 c 0,0 0,-0.6899 0,-0.6899 -0.1403,-1.4562 -0.269,-3.7242 0,-5.7901 0,0 0,-0.877 0,-0.877 -0.0802,-0.1573 -0.1851,-0.3322 -0.1871,-0.4266 -0.0125,-0.4198 -2.3769,-4.246 -4.146,-5.8578 0,0 0,3.4523 0,3.4523 1.8539,2.4392 3.5887,7.0478 4.3331,10.1891 0,0 0,0 0,0 m 0,-0.7758 c -0.1214,-0.9695 -0.1814,-1.9409 -0.1831,-2.9123 0,-1.0009 0.0609,-1.9179 0.1831,-2.7508 0,0 0,5.6631 0,5.6631 0,0 0,0 0,0 m 0,-18.4734 c 0,0 0,-6.9381 0,-6.9381 -1.4485,-0.5298 -2.8934,-1.0698 -4.3331,-1.6239 0,0 0,7.1535 0,7.1535 1.4429,0.479 2.8857,0.9476 4.3331,1.4085 0,0 0,0 0,0 m -10.7949,-11.1138 c 2.1481,0.8739 4.3035,1.7223 6.4618,2.5518 0,0 0,7.1574 0,7.1574 -2.1622,-0.7112 -4.3169,-1.4417 -6.4618,-2.1883 0,0 0,-7.5209 0,-7.5209 0,0 0,0 0,0 m 0,14.2265 c 0.0972,-0.028 0.1995,-0.0419 0.3053,-0.0431 1.3416,-0.0249 3.4648,0.5811 5.6834,2.1515 0.1537,0.108 0.315,0.2367 0.4731,0.3867 0,0 0,3.4523 0,3.4523 -0.5774,-0.7605 -1.163,-1.3045 -1.7404,-1.5372 -0.9562,-0.3691 -1.4542,0.6689 -1.3885,2.8542 0.0258,0.9303 0.3541,3.996 0.9973,9.1851 0,0 0.8348,6.4264 0.8348,6.4264 0,0 0.7444,5.8742 0.7444,5.8742 0.1287,1.0296 0.3282,2.0019 0.3943,2.3596 0,0 0.1581,0.0286 0.1581,0.0286 0,0 0,11.5367 0,11.5367 0,0 0,0 0,0 -0.2948,-0.403 -0.6278,-0.8934 -1.0131,-1.4621 0,0 -2.1194,-3.1164 -2.1194,-3.1164 -0.2121,-0.3072 -0.2577,-2.1929 -0.4609,-2.4715 -0.108,-0.1619 -0.8263,-0.1412 -1.4503,-0.3614 0,0 -1.4181,-2.0344 -1.4181,-2.0344 0,0 0,-3.0362 0,-3.0362 0.6814,0.0887 1.377,0.1641 2.0667,0.2891 0,0 -0.79,-5.0516 -0.79,-5.0516 -0.2948,-1.9123 -0.7339,-5.0258 -1.2767,-9.3702 0,0 0,2.7604 0,2.7604 0.2985,1.0363 0.5105,1.8377 0.6001,2.2852 -0.0743,-0.8549 -0.328,-2.9885 -0.6001,-5.1786 0,0 0,-15.9273 0,-15.9273 m 0,33.2292 c 0,0 0,-3.0362 0,-3.0362 -0.2021,-0.027 -0.4017,-0.0545 -0.6001,-0.0851 0,0 0,2.2607 0,2.2607 0,0 0.6001,0.8606 0.6001,0.8606 0,0 0,0 0,0 m 0,-14.4085 c 0,0 0,-2.7604 0,-2.7604 -0.1299,-1.0347 -0.2645,-2.1385 -0.4057,-3.3123 0,0 -0.1944,-1.5744 -0.1944,-1.5744 0,0 0,-10.7932 0,-10.7932 0.1831,-0.1916 0.3824,-0.3186 0.6001,-0.3804 0,0 0,15.9273 0,15.9273 -0.2157,-1.7348 -0.4428,-3.5044 -0.6001,-4.7041 0,0 0,5.5868 0,5.5868 0.2242,0.7339 0.4274,1.4114 0.6001,2.0107 0,0 0,0 0,0 m 0,-25.5263 c 0,0 0,-7.5209 0,-7.5209 0,0 -0.6001,-0.2441 -0.6001,-0.2441 0,0 0,7.5561 0,7.5561 0,0 0.6001,0.2089 0.6001,0.2089 0,0 0,0 0,0 m -1.0259,-7.9435 c 0.1415,0.0581 0.2835,0.1165 0.4258,0.1734 0,0 0,7.5612 0,7.5612 0,0 -0.4258,-0.1497 -0.4258,-0.1497 0,0 0,-7.5849 0,-7.5849 0,0 0,0 0,0 m 0,15.6384 c 0,0 0,6.6413 0,6.6413 0,0 0.4258,3.543 0.4258,3.543 0,0 0,-10.7932 0,-10.7932 -0.1415,0.1452 -0.275,0.3283 -0.3952,0.5525 -0.0105,0.0193 -0.0209,0.0374 -0.0306,0.0564 0,0 0,0 0,0 m 0,7.9841 c 0,0 0,6.4703 0,6.4703 0.1488,0.4723 0.2911,0.9295 0.4258,1.3663 0,0 0,0 0,0 0,0 0,-5.5868 0,-5.5868 -0.0919,-0.7061 -0.1624,-1.2174 -0.1919,-1.396 -0.008,-0.0581 -0.0888,-0.3663 -0.2339,-0.8538 0,0 0,0 0,0 m 0,21.0027 c 0.0822,0.0488 0.1783,0.0879 0.292,0.1032 0,0 0.1338,0.0247 0.1338,0.0247 0,0 0,2.2646 0,2.2646 0,0 -0.1661,-0.233 -0.1661,-0.233 -0.0859,-0.1231 -0.1738,-0.2574 -0.2597,-0.396 0,0 0,-1.7635 0,-1.7635 m 0,1.7635 c 0,0 0,-1.7635 0,-1.7635 -0.2021,-0.1171 -0.3177,-0.2871 -0.3968,-0.2871 -0.2702,0.004 -0.3827,0.1414 -0.3742,0.4238 0.007,0.252 0.373,0.9884 0.771,1.6268 0,0 0,0 0,0 m 0,-16.2959 c 0,0 0,-6.4703 0,-6.4703 -0.5199,-1.7428 -1.8643,-5.7694 -3.6623,-8.8172 0,0 0.0535,5.2549 0.0535,5.2549 1.2938,3.0642 2.6116,6.8836 3.6088,10.0326 0,0 0,0 0,0 m 0,-7.8131 c 0,0 -0.148,-1.2311 -0.148,-1.2311 -0.1581,-1.3042 -0.2537,-2.351 -0.2746,-3.1697 -0.0278,-0.8932 0.104,-1.6469 0.4226,-2.2405 0,0 0,6.6413 0,6.6413 0,0 0,0 0,0 m 0,-14.6948 c 0,0 0,-7.5849 0,-7.5849 -1.2166,-0.4981 -2.4293,-1.0126 -3.6422,-1.5299 0,0 0.0334,7.8018 0.0334,7.8018 1.1662,0.4399 2.3817,0.8799 3.6088,1.313" /><path
       id="path16"
       style="fill:#e3000f;fill-opacity:1;fill-rule:nonzero;stroke:none"
       d="m 376.249,529.0696 c -0.2786,0.0918 -0.7024,0.1587 -1.1335,0.1956 0,0 0,-2.6172 0,-2.6172 0.373,-0.0411 0.7557,-0.1041 1.1372,-0.1993 0,0 -0.004,2.6209 -0.004,2.6209 0,0 0,0 0,0 z m -1.1948,-25.9781 c 0,0 0,4.5468 0,4.5468 0,0 0.0613,0.009 0.0613,0.009 0,0 0,-4.5451 0,-4.5451 0,0 -0.0613,-0.0105 -0.0613,-0.0105 0,0 0,0 0,0 m 0,8.8693 c 0,0 0,1.7558 0,1.7558 0,0 0.0403,0.4561 0.0403,0.4561 0,0 0.021,0.2032 0.021,0.2032 0,0 0,-2.6994 0,-2.6994 -0.0238,0.0904 -0.044,0.1851 -0.0613,0.2843 0,0 0,0 0,0 m 0,3.3999 c 0,0 0,3.1402 0,3.1402 0,0 0.0613,0.1335 0.0613,0.1335 0,0 0,-3.1819 0,-3.1819 0,0 -0.0613,-0.0918 -0.0613,-0.0918 0,0 0,0 0,0 m 0,11.2941 c 0,0 0,2.6152 0,2.6152 0,0 0.0613,-0.005 0.0613,-0.005 0,0 0,0 0,0 0,0 0,-2.6172 0,-2.6172 0,0 -0.0613,0.007 -0.0613,0.007 0,0 0,0 0,0 m 1.1948,-4.6678 c -0.0456,-0.3323 -0.1451,-0.6605 -0.2488,-0.9927 -0.2787,-0.8768 -0.5738,-1.6623 -0.8847,-2.3599 0,0 0,-3.1819 0,-3.1819 0,0 0.1698,0.2622 0.1698,0.2622 -0.021,-0.208 -0.0706,-0.229 -0.1698,-1.3388 0,0 0,-2.6994 0,-2.6994 0.1822,-0.6738 0.5723,-1.1013 1.142,-1.2719 0,0 -0.008,11.5824 -0.008,11.5824 0,0 0,0 0,0 m 0,-18.6818 c 0,0 0.1041,4.5162 0.1041,4.5162 -0.4074,-0.0581 -0.8226,-0.1211 -1.2376,-0.1794 0,0 0,-4.54 0,-4.54 0.3818,0.0706 0.7679,0.1326 1.1335,0.2032 m -1.1948,25.9648 c 0,0 0,-2.6152 0,-2.6152 -0.2746,0.0283 -0.5493,0.0428 -0.8243,0.0428 -1.919,-0.004 -3.2652,-0.4607 -4.0507,-1.3748 -0.8722,-1.0262 -1.5619,-2.3091 -2.0801,-3.8676 -0.5618,-1.6115 -0.8399,-3.1156 -0.8399,-4.5323 0,-1.2082 0.1577,-2.0651 0.4984,-2.5671 0.3529,-0.536 0.8895,-0.8025 1.6163,-0.8025 0.7682,0 1.6242,0.3331 2.5795,1.0094 0.9349,0.6653 1.7116,1.5004 2.3386,2.4727 0.2616,0.4343 0.5162,0.9207 0.7622,1.4655 0,0 0,-3.1402 0,-3.1402 -2.0639,-3.1374 -4.9342,-5.5335 -9.3855,-5.5335 -0.794,-0.004 -1.3921,0.5031 -1.8119,1.4916 -0.2577,0.5896 -0.4447,1.2917 -0.5525,2.0897 0,0 0,4.1249 0,4.1249 0.0332,0.3283 0.0706,0.6441 0.1163,0.9304 0,0 -0.1163,-0.2109 -0.1163,-0.2109 0,0 0,-0.6565 0,-0.6565 0.3405,3.1402 1.4417,6.2308 3.7843,8.4325 1.6872,1.5828 3.0127,2.2938 4.7109,2.891 1.0001,0.3436 2.1711,0.4332 3.2547,0.3501 0,0 0,0 0,0 m 0,-15.5534 c -0.0331,-0.3923 -0.0601,-0.7387 -0.0601,-1.0355 0.003,-0.2622 0.0239,-0.5017 0.0601,-0.7203 0,0 0,1.7558 0,1.7558 0,0 0,0 0,0 m 0,-6.0783 c 0,0 0,-4.5468 0,-4.5468 -3.9625,-0.6985 -7.8769,-1.3978 -11.7499,-2.1039 0,0 0,4.9017 0,4.9017 4.1811,0.665 8.1117,1.2404 11.7499,1.749 0,0 0,0 0,0 m -20.5628,-8.2922 c 0,0 0,0.005 0,0.005 2.9109,0.5525 5.8473,1.0925 8.8129,1.6367 0,0 0,4.9017 0,4.9017 -2.8332,-0.4399 -5.7738,-0.9218 -8.8112,-1.4417 0,0 -0.002,-2.5489 -0.002,-2.5489 0,0 0,-0.002 0,-0.002 0,0 0.002,-2.5506 0.002,-2.5506 0,0 -0.002,0 -0.002,0 0,0 0,0 0,0 m 0,9.0802 c 0,0 0,1.0355 0,1.0355 0,0 0.002,-1.0344 0.002,-1.0344 0,0 -0.002,-10e-4 -0.002,-10e-4 0,0 0,0 0,0 m 0,16.0775 c 0,0 0,2.8616 0,2.8616 0,0 0.002,10e-4 0.002,10e-4 0,0 0,-2.8619 0,-2.8619 0,0 -0.002,-9e-4 -0.002,-9e-4 0,0 0,0 0,0 m 8.8129,-6.2509 c 0,0 0,0.004 0,0.004 -2.0279,-3.4189 -6.065,-7.2786 -8.8112,-7.7644 0,0 0,-2.0648 0,-2.0648 0,0 0.2452,0.0876 0.2452,0.0876 1.5041,0.5193 2.3514,0.8762 3.7432,1.6824 0.5567,0.316 3.0614,2.6623 4.7148,4.312 -0.0294,1.0344 0.0162,2.0937 0.108,3.024 0,0 0,-4.1249 0,-4.1249 -0.083,0.5774 -0.1241,1.2004 -0.1286,1.8901 0,0.7569 0.0456,1.5287 0.1286,2.2978 0,0 0,0.6565 0,0.6565 0,0 0,0 0,0 m -8.8112,6.2518 c 0.5945,0.3362 1.2425,0.5975 1.9523,0.7892 0.981,0.2616 1.4255,0.191 2.0486,-0.0868 0.6148,-0.2749 0.7472,-0.5448 0.7435,-1.0179 0,-0.8104 0.8062,-1.0468 1.4122,-0.9354 0.3121,0.0584 0.665,0.3656 0.9388,0.5527 0.2455,0.2996 0.9803,1.0551 1.1384,1.4789 0.3283,0.9178 0.1786,1.4496 0.0457,1.8532 -0.1582,0.4893 -0.2614,0.9264 -0.7767,1.2212 -0.5026,0.2903 -1.2002,0.4198 -2.0435,0.4235 -1.442,0 -3.0288,-0.428 -4.7653,-1.1086 -0.237,-0.0964 -0.4697,-0.1956 -0.694,-0.3081 0,0 0,-2.8619 0,-2.8619 m -0.002,2.8607 c 0,0 0,-2.8616 0,-2.8616 -4.4317,-2.5106 -5.8725,-8.7987 -3.4256,-12.5124 0.8149,-1.2376 1.6784,-1.6735 3.1612,-1.5324 0.079,0.008 0.1706,0.0207 0.2622,0.0372 0,0 0.002,-1.0344 0.002,-1.0344 0,0 0,-1.0355 0,-1.0355 -1.5698,-0.4932 -3.1804,-0.5267 -4.1692,-0.5267 -1.4247,-0.004 -2.5466,0.5698 -3.3979,1.6784 -0.5896,0.7606 -1.0468,1.7246 -1.25,2.8627 0,0 0,-0.3577 0,-0.3577 0,0 0.1289,0.1213 0.1289,0.1213 -0.0507,0.0743 -0.0915,0.1783 -0.1289,0.307 0,0 0,2.9075 0,2.9075 0.0286,0.1956 0.0575,0.4076 0.0955,0.6318 -0.0136,-0.0955 -0.042,-0.208 -0.0955,-0.3359 0,0 0,-0.1754 0,-0.1754 0.481,3.6564 2.3303,7.0171 4.6604,9.0116 1.3748,1.1704 2.649,2.1257 4.1567,2.8145 0,0 0,0 0,0 m 0,-25.4667 c 0,0 0,-0.002 0,-0.002 0,0 -0.002,2.5509 -0.002,2.5509 -2.854,-0.4859 -5.7958,-1.0086 -8.8149,-1.5537 0,0 0,-5.2509 0,-5.2509 2.9114,0.5811 5.8512,1.1424 8.8171,1.7031 0,0 0,0.005 0,0.005 0,0 -0.002,-9e-4 -0.002,-9e-4 0,0 0.002,2.5487 0.002,2.5487 0,0 0,0 0,0 m -8.8801,-4.2718 c 0,0 0,5.2554 0,5.2554 0,0 0.063,0.0116 0.063,0.0116 0,0 0,-5.2546 0,-5.2546 0,0 -0.063,-0.0124 -0.063,-0.0124 0,0 0,0 0,0 m 0,14.392 c 0,0 0,0.7815 0,0.7815 0.0182,-0.1085 0.0392,-0.2049 0.063,-0.2891 0,0 0,2.9075 0,2.9075 -0.025,-0.1945 -0.0457,-0.3787 -0.063,-0.5533 0,0 0,-1.9868 0,-1.9868 0.0173,-0.1477 0.038,-0.2937 0.063,-0.438 0,0 0,-0.3577 0,-0.3577 0,0 -0.063,-0.0641 -0.063,-0.0641 0,0 0,0 0,0 m 0,2.9554 c 0.0182,0.1877 0.0392,0.3759 0.063,0.565 0,0 0,0.1754 0,0.1754 0,0 0,0 0,0 -0.0182,-0.0447 -0.0392,-0.0915 -0.063,-0.1391 0,0 0,-0.6013 0,-0.6013 m 0,0.6013 c 0,0 0,-0.6013 0,-0.6013 -0.0275,-0.3024 -0.0456,-0.604 -0.0533,-0.9096 -0.007,-0.4176 0.0114,-0.809 0.0533,-1.186 0,0 0,1.9868 0,1.9868 -0.0907,-0.9502 -0.0725,-1.6163 0,-2.0651 0,0 0,-0.7815 0,-0.7815 -1.6404,-1.686 -4.5294,-4.1706 -5.3129,-4.6545 -0.7061,-0.4371 -1.6997,-0.8311 -2.7871,-1.1134 0,0 0,2.056 0,2.056 0.161,0.0374 0.328,0.0955 0.4768,0.1624 2.0058,0.8303 6.7176,5.2214 7.6232,7.1062 0,0 0,0 0,0 m 0,-12.6933 c 0,0 0,-5.2554 0,-5.2554 -2.7204,-0.5403 -5.4209,-1.0812 -8.1,-1.6453 0,0 0,5.3677 0,5.3677 2.7528,0.5389 5.453,1.0505 8.1,1.533 0,0 0,0 0,0 m -27.983,21.3276 c 0.6897,0.4028 1.2424,0.6678 1.8037,0.8218 0,0 0,0 0,0 0,0 0,-3.9382 0,-3.9382 -0.7322,-0.436 -1.3428,-1.0505 -1.8695,-1.7691 0,0 0.0658,4.8855 0.0658,4.8855 0,0 0,0 0,0 m 0,-18.3081 c 0.5984,0.0541 1.2002,0.2823 1.8037,0.6848 0,0 0,-3.0983 0,-3.0983 0,0 -0.7447,-0.2948 -0.7447,-0.2948 -0.3776,-0.1457 -0.7432,-0.2624 -1.0885,-0.3492 0,0 0.0295,3.0575 0.0295,3.0575 0,0 0,0 0,0 m 0,-8.7112 c 0.6738,0.129 1.2387,0.2614 1.8037,0.3855 0,0 0,-5.6287 0,-5.6287 -0.5774,-0.1327 -1.1509,-0.2702 -1.7246,-0.4113 0,0 -0.0791,5.6545 -0.0791,5.6545 0,0 0,0 0,0 m 19.883,18.6854 c 0,0 0,2.2519 0,2.2519 2.0141,1.3133 3.9589,3.3273 4.3243,4.5535 0.2407,0.8017 0.3481,1.8732 -0.8062,2.0143 -0.8722,0.1041 -2.355,-0.9677 -3.5181,-2.0315 0,0 0,3.0115 0,3.0115 0.4768,0.2948 0.976,0.5612 1.4828,0.8062 1.1954,0.5649 2.2434,0.8435 3.1527,0.8435 0.9054,0 1.624,-0.2661 2.164,-0.8149 0.561,-0.5562 0.8399,-1.2498 0.8399,-2.0639 0.004,-1.1469 -0.5525,-2.4055 -1.6452,-3.8055 -1.1098,-1.3425 -2.5679,-2.6048 -4.379,-3.7976 -0.5278,-0.3521 -1.0715,-0.6678 -1.6152,-0.9675 0,0 0,0 0,0 m 0,-19.8944 c 0,0 0,5.3714 0,5.3714 -5.8371,-1.1384 -11.8904,-2.397 -18.0793,-3.7769 0,0 0,-5.6239 0,-5.6239 5.9272,1.4207 11.9511,2.7538 18.0793,4.0294 0,0 0,0 0,0 m 0,29.6941 c 0,0 0,0.005 0,0.005 -0.7234,-0.4323 -1.4133,-0.9227 -2.0738,-1.4545 -1.2747,-1.059 -2.3635,-2.2801 -3.2729,-3.6394 -0.9102,-1.3535 -1.6251,-2.7907 -2.1688,-4.3069 -0.5193,-1.4964 -0.773,-2.9917 -0.773,-4.4878 0,-1.9435 0.4113,-3.4725 1.2255,-4.5896 1.1965,-1.6537 4.4243,-1.6367 7.063,-0.9561 0,0 0,2.065 0,2.065 -1.0556,-0.2492 -2.2359,0.0295 -2.8839,0.8187 -0.7472,0.9093 -1.1336,2.1852 -1.1384,3.8548 0,-0.1449 0.0212,0.2662 0.0706,1.2512 1.3589,0.4025 2.6759,0.9425 3.9517,1.6401 0,0 0,2.2519 0,2.2519 -1.3427,-0.8771 -2.7215,-1.4542 -3.6901,-1.2844 -0.2404,0.7815 1.7082,3.7681 2.5974,4.7404 0.2948,0.32 0.6726,0.7024 1.0927,1.0803 0,0 0,3.0115 0,3.0115 0,0 0,0 0,0 M 319.432,503.4883 c 3.518,1.446 5.5034,2.8208 7.1402,7.0708 0.4036,1.0545 1.184,3.3349 1.3427,4.8399 1.1381,11.1001 -2.2521,16.4046 -6.0826,21.772 -0.6562,0.9142 -1.5953,0.7977 -2.4003,0.2739 0,0 0,-4.5403 0,-4.5403 0.6687,-0.6069 1.4034,-1.2668 1.9349,-2.0066 0.8348,-1.143 2.626,-4.9474 2.3437,-6.1813 -1.9151,0.4646 -3.0824,0.6477 -4.2786,0.315 0,0 0,-3.9334 0,-3.9334 1.2078,0.7311 2.7414,0.9675 4.7517,0.3444 0.3827,-0.1162 0.4731,-2.9826 0.4073,-3.3483 -0.6896,-3.8922 -0.8433,-4.9646 -1.6373,-6.7918 -0.7186,-1.6452 -1.5783,-2.9619 -2.588,-3.943 -0.3107,-0.3024 -0.6231,-0.561 -0.9337,-0.773 0,0 0,-3.0983 0,-3.0983 0,0 0,0 0,0 m 0,33.9566 c 0,0 0,-4.5403 0,-4.5403 -0.919,0.8303 -1.7122,1.5534 -1.6747,2.2139 0.0456,0.6976 0.7767,1.7529 1.6747,2.3303 0,0 0,-0.004 0,-0.004" /><path
       id="path18"
       style="fill:#e3000f;fill-opacity:1;fill-rule:nonzero;stroke:none"
       d="m 381.6499,511.3378 c 1.7824,0.8589 3.3055,2.1994 4.8892,3.7899 0.1375,0.7991 0.2988,1.9287 0.5105,3.1873 -2.2136,-1.9525 -4.3455,-3.7225 -5.0142,-4.2041 -0.1182,-0.0882 -0.2492,-0.1681 -0.3855,-0.2378 0,0 0,-2.5353 0,-2.5353 0,0 0,0 0,0 z m 0,17.3894 c 0.0839,0.1766 0.1718,0.3472 0.2613,0.5133 0.0545,0.1041 0.0993,0.1783 0.0993,0.2245 0,0.0618 -0.0324,0.1324 -0.0993,0.203 -0.0657,0.0632 -0.1326,0.0955 -0.2202,0.0955 -0.0136,0 -0.0278,0 -0.0411,-8e-4 0,0 0,-1.0355 0,-1.0355 0,0 0,0 0,0 m 0,-24.4803 c 0,0 0,4.2846 0,4.2846 2.6546,0.3404 5.0666,0.6355 7.2368,0.8892 6.7425,1.7283 5.5248,3.5889 1.2002,2.2311 -1.1222,-0.354 -1.8941,-0.5241 -2.3014,-0.5241 -1.0347,0 -1.5534,0.544 -1.5534,1.628 0,0 0,0 0,0 0,0.4952 0.0782,1.0936 0.1945,1.8158 0,0 3.0333,18.3036 3.0333,18.3036 0.2322,1.4046 0.8226,3.668 1.7235,4.2588 0.8521,0.5647 1.9533,0.9513 3.253,0.6851 0.8433,-0.1786 2.264,-1.0766 3.0161,-2.0477 1.4037,-1.8034 3.9753,-6.6929 -5.5795,-15.6997 0.2282,1.2844 0.4658,2.6841 0.6109,3.5478 1.7118,1.899 2.8502,3.6267 3.5439,4.9522 1.728,3.2941 -0.4572,7.6977 -1.6413,5.9944 0,0 -2.9664,-17.2817 -2.9664,-17.2817 -0.2444,-1.3873 0.1496,-1.8655 0.6363,-1.8567 0.4315,0.0125 2.9495,0.5065 4.6109,0.2738 1.3501,-0.1871 2.4638,-1.2586 2.5007,-3.1365 0.0794,-3.4314 -3.0237,-5.5534 -4.2823,-6.0316 -4.4753,-0.7721 -8.8835,-1.5327 -13.2358,-2.2864 m -5.4009,22.2018 c 0.3036,-0.0706 0.5984,-0.1576 0.9017,-0.2616 -0.1658,-1.3748 -0.4484,-2.7709 -0.8521,-4.2001 0,0 -0.0496,-11.5824 -0.0496,-11.5824 0.1948,-0.0581 0.4074,-0.0867 0.6356,-0.0907 1.8433,-0.0199 3.3825,0.3569 4.7653,1.0239 0,0 0,2.5353 0,2.5353 -0.5783,-0.2977 -1.2606,-0.415 -1.6005,-0.1364 -0.5312,0.436 -0.6516,0.9428 -0.6516,1.7652 0,4.0039 0.5286,9.6318 2.2521,13.2253 0,0 0,1.0355 0,1.0355 -0.0992,-0.01 -0.2033,-0.0471 -0.3158,-0.0947 -0.5984,-0.2775 -2.2187,-0.2242 -2.6461,-0.2242 -1.1098,0.3367 -1.1174,-0.7767 -1.2969,-0.7022 -0.2985,0.1287 -0.6477,0.2413 -1.0341,0.3328 0,0 -0.108,-2.6257 -0.108,-2.6257 0,0 0,0 0,0 m 5.4009,-17.9172 c 0,0 0,-4.2846 0,-4.2846 -1.8054,-0.3138 -3.6011,-0.6259 -5.3884,-0.938 0,0 -0.0125,4.508 -0.0125,4.508 1.8998,0.2576 3.6995,0.496 5.4009,0.7146" /><path
       id="path20"
       style="fill:#e3000f;fill-opacity:1;fill-rule:nonzero;stroke:none"
       d="m 386.2321,512.7557 c 0,0 0.1945,1.8158 0.1945,1.8158 0,0 3.0333,18.3036 3.0333,18.3036 0.2322,1.4046 0.8226,3.668 1.7235,4.2588 0.8521,0.5647 1.9533,0.9513 3.253,0.6851 0,0 2.264,-1.0766 3.0161,-2.0477 1.4037,-1.8034 3.9753,-6.6929 -5.5795,-15.6997 0.2282,1.2844 0.6109,3.5478 0.6109,3.5478 1.7118,1.899 2.8502,3.6267 3.5439,4.9522 1.728,3.2941 -0.4572,7.6977 -1.6413,5.9944 0,0 -2.9664,-17.2817 -2.9664,-17.2817 -0.2444,-1.3873 0.6363,-1.8567 0.6363,-1.8567 0,0 2.9495,0.2738 4.6109,0.2738 1.3501,0 2.4638,-1.2586 2.5007,-3.1365 0.0794,-3.4314 -3.0237,-5.5534 -4.2823,-6.0316 -6.7263,-1.1593 -13.3112,-2.2977 -19.7702,-3.4313 0,0 0,4.54 0,4.54 5.2633,0.7398 9.9076,1.3291 13.7712,1.7787 6.7425,1.7283 5.5248,3.5889 1.2002,2.2311 -1.1222,-0.354 -2.3014,-0.5241 -2.3014,-0.5241 0,0 -1.5534,0.544 -1.5534,1.628 0,0 0,0 0,0" /><path
       id="path22"
       style="fill:#e3000f;fill-opacity:1;fill-rule:nonzero;stroke:none"
       d="m 375.1155,511.6765 c 0,0 1.7691,-1.3626 1.7691,-1.3626 4.2213,0 6.8417,1.9896 9.6545,4.8138 0,0 0.2988,1.9287 0.5105,3.1873 -2.2136,-1.9525 -4.3455,-3.7225 -5.0142,-4.2041 -0.6222,-0.4572 -1.5659,-0.7186 -1.986,-0.3742 -0.5312,0.436 -0.6516,1.7652 -0.6516,1.7652 0,4.2003 0.5822,10.1863 2.5134,13.7386 0,0 0.0993,0.2245 0.0993,0.2245 0,0 -0.0993,0.203 -0.0993,0.203 0,0 -0.2202,0.0955 -0.2202,0.0955 0,0 -0.3569,-0.0955 -0.3569,-0.0955 -0.5984,-0.2775 -2.6461,-0.2242 -2.6461,-0.2242 -1.1098,0.3367 -1.2969,-0.7022 -1.2969,-0.7022 0,0 -2.2756,0.5236 -2.2756,0.5236 0,0 0,-2.6172 0,-2.6172 0,0 2.0352,-0.4609 2.0352,-0.4609 -0.2043,-1.6869 -0.5896,-3.4189 -1.1505,-5.1928 -0.2787,-0.8768 -0.5738,-1.6623 -0.8847,-2.3599 0,0 0,-3.1819 0,-3.1819 0,0 0.1698,0.2622 0.1698,0.2622 0,0 -0.0706,-0.229 -0.1698,-1.3388 0,0 0,-2.6994 0,-2.6994" /><path
       id="path24"
       style="fill:#e3000f;fill-opacity:1;fill-rule:nonzero;stroke:none"
       d="m 375.1155,503.102 c -3.9838,-0.7022 -7.9189,-1.4046 -11.8112,-2.1144 0,0 0,4.9017 0,4.9017 4.2041,0.6687 8.1548,1.2461 11.8112,1.7578 0,0 0,-4.5451 0,-4.5451" /><path
       id="path26"
       style="fill:#e3000f;fill-opacity:1;fill-rule:nonzero;stroke:none"
       d="m 375.1155,529.2652 c 0,0 0,-2.6172 0,-2.6172 0,0 -0.8856,0.0496 -0.8856,0.0496 -1.919,0 -3.2652,-0.4607 -4.0507,-1.3748 -0.8722,-1.0262 -1.5619,-2.3091 -2.0801,-3.8676 -0.5618,-1.6115 -0.8399,-3.1156 -0.8399,-4.5323 0,-1.2082 0.1577,-2.0651 0.4984,-2.5671 0.3529,-0.536 1.6163,-0.8025 1.6163,-0.8025 0,0 1.6242,0.3331 2.5795,1.0094 0.9349,0.6653 1.7116,1.5004 2.3386,2.4727 0.2835,0.4694 0.5573,1.0009 0.8235,1.599 0,0 0,-3.1819 0,-3.1819 -2.0688,-3.1824 -4.9524,-5.6253 -9.4468,-5.6253 0,0 -1.3921,0.5031 -1.8119,1.4916 0,0 -0.5525,2.0897 -0.5525,2.0897 0,0 0,4.1249 0,4.1249 0,0 0.1163,0.9304 0.1163,0.9304 0,0 -0.1163,-0.2109 -0.1163,-0.2109 0,0 0,-0.6565 0,-0.6565 0.3405,3.1402 1.4417,6.2308 3.7843,8.4325 1.6872,1.5828 3.0127,2.2938 4.7109,2.891 1.0182,0.3495 2.2147,0.3453 3.316,0.3453 0,0 0,0 0,0" /><path
       id="path28"
       style="fill:#e3000f;fill-opacity:1;fill-rule:nonzero;stroke:none"
       d="m 375.1155,514.3759 c 0,0 -0.021,-0.2032 -0.021,-0.2032 0,0 -0.1004,-1.4916 -0.1004,-1.4916 0,0 0.1214,-1.0046 0.1214,-1.0046 0,0 0,2.6994 0,2.6994" /><path
       id="path30"
       style="fill:#e3000f;fill-opacity:1;fill-rule:nonzero;stroke:none"
       d="m 363.3043,500.9876 c -2.9656,-0.5451 -5.9028,-1.0842 -8.8151,-1.6376 0,0 0.004,5.0976 0.004,5.0976 3.0374,0.5199 5.978,1.0018 8.8112,1.4417 0,0 0,-4.9017 0,-4.9017" /><path
       id="path32"
       style="fill:#e3000f;fill-opacity:1;fill-rule:nonzero;stroke:none"
       d="m 363.3043,518.2529 c 0,0 0,-0.6565 0,-0.6565 0,0 -0.1286,-2.2978 -0.1286,-2.2978 0,0 0.1286,-1.8901 0.1286,-1.8901 0,0 0,4.1249 0,4.1249 0,0 -0.108,-3.024 -0.108,-3.024 -1.6534,-1.6497 -4.1581,-3.996 -4.7148,-4.312 -1.3918,-0.8062 -2.2391,-1.1631 -3.7432,-1.6824 0,0 -0.2452,-0.0876 -0.2452,-0.0876 0,0 0,2.0648 0,2.0648 2.7462,0.4858 6.7833,4.3455 8.8112,7.7644 0,0 0,-0.004 0,-0.004" /><path
       id="path34"
       style="fill:#e3000f;fill-opacity:1;fill-rule:nonzero;stroke:none"
       d="m 354.4931,524.5047 c 0,0 0,2.8619 0,2.8619 0,0 0.694,0.3081 0.694,0.3081 1.7365,0.6806 3.3233,1.1086 4.7653,1.1086 0,0 1.5409,-0.1332 2.0435,-0.4235 0.5153,-0.2948 0.7767,-1.2212 0.7767,-1.2212 0,0 0.2826,-0.9354 -0.0457,-1.8532 0,0 -1.1384,-1.4789 -1.1384,-1.4789 0,0 -0.9388,-0.5527 -0.9388,-0.5527 0,0 -1.4122,0.9354 -1.4122,0.9354 0,0 -0.1287,0.743 -0.7435,1.0179 -0.6231,0.2778 -2.0486,0.0868 -2.0486,0.0868 0,0 -1.3578,-0.453 -1.9523,-0.7892" /><path
       id="path36"
       style="fill:#e3000f;fill-opacity:1;fill-rule:nonzero;stroke:none"
       d="m 354.4931,499.3461 c -2.9656,-0.5607 -5.9074,-1.1211 -8.8188,-1.7031 0,0 0,5.2509 0,5.2509 3.0191,0.5451 5.9609,1.0678 8.8149,1.5537 0,0 0.004,-5.1015 0.004,-5.1015" /><path
       id="path38"
       style="fill:#e3000f;fill-opacity:1;fill-rule:nonzero;stroke:none"
       d="m 354.4931,527.3666 c 0,0 0,-2.8619 0,-2.8619 -4.4322,-2.5095 -5.8742,-8.7985 -3.4273,-12.5133 0.8149,-1.2376 1.6784,-1.5324 3.1612,-1.5324 0,0 0.2622,0.0372 0.2622,0.0372 0,0 0.004,-2.0688 0.004,-2.0688 -1.5706,-0.4943 -4.1709,-0.5278 -4.1709,-0.5278 -1.4247,0 -2.5466,0.5698 -3.3979,1.6784 -0.5896,0.7606 -1.0468,1.7246 -1.25,2.8627 0,0 0,-0.3577 0,-0.3577 0,0 0.1289,0.1213 0.1289,0.1213 0,0 -0.1289,0.307 -0.1289,0.307 0,0 0,2.9075 0,2.9075 0,0 0.0955,0.6318 0.0955,0.6318 0,0 -0.0955,-0.3359 -0.0955,-0.3359 0,0 0,-0.1754 0,-0.1754 0.481,3.6564 2.3303,7.0171 4.6604,9.0116 1.3748,1.1704 2.6507,2.1265 4.1584,2.8157" /><path
       id="path40"
       style="fill:#e3000f;fill-opacity:1;fill-rule:nonzero;stroke:none"
       d="m 345.6743,497.6393 c -2.7426,-0.5448 -5.4638,-1.089 -8.163,-1.6577 0,0 0,5.3677 0,5.3677 2.7746,0.5437 5.4953,1.059 8.163,1.5446 0,0 0,-5.2546 0,-5.2546" /><path
       id="path42"
       style="fill:#e3000f;fill-opacity:1;fill-rule:nonzero;stroke:none"
       d="m 345.6743,515.7147 c 0,0 0,-0.1754 0,-0.1754 0,0 -0.1163,-1.4746 -0.1163,-1.4746 0,0 0.1163,-1.624 0.1163,-1.624 0,0 0,-0.3577 0,-0.3577 -1.6288,-1.6861 -4.5831,-4.229 -5.3759,-4.7186 -0.7061,-0.4371 -1.6997,-0.8311 -2.7871,-1.1134 0,0 0,2.056 0,2.056 0,0 0.4768,0.1624 0.4768,0.1624 2.0566,0.8512 6.9591,5.4459 7.6862,7.2453 0,0 0,0 0,0" /><path
       id="path44"
       style="fill:#e3000f;fill-opacity:1;fill-rule:nonzero;stroke:none"
       d="m 345.6743,515.4188 c -0.1917,-1.5075 0,-2.9075 0,-2.9075 0,0 0,2.9075 0,2.9075" /><path
       id="path46"
       style="fill:#e3000f;fill-opacity:1;fill-rule:nonzero;stroke:none"
       d="m 337.5113,515.876 c 0,0 0,2.2519 0,2.2519 2.0141,1.3133 3.9589,3.3273 4.3243,4.5535 0,0 0.3481,2.0143 -0.8062,2.0143 0,0 -2.355,-0.9677 -3.5181,-2.0315 0,0 0,3.0115 0,3.0115 0.4768,0.2948 1.4828,0.8062 1.4828,0.8062 1.1954,0.5649 3.1527,0.8435 3.1527,0.8435 0,0 1.624,-0.2661 2.164,-0.8149 0.561,-0.5562 0.8399,-2.0639 0.8399,-2.0639 0.004,-1.1469 -0.5525,-2.4055 -1.6452,-3.8055 -1.1098,-1.3425 -2.5679,-2.6048 -4.379,-3.7976 -0.5278,-0.3521 -1.0715,-0.6678 -1.6152,-0.9675" /><path
       id="path48"
       style="fill:#e3000f;fill-opacity:1;fill-rule:nonzero;stroke:none"
       d="m 337.5113,495.9816 c -6.1282,-1.2756 -12.1521,-2.6087 -18.0793,-4.0294 0,0 0,5.6239 0,5.6239 6.1889,1.3799 12.2422,2.6385 18.0793,3.7769 0,0 0,-5.3714 0,-5.3714" /><path
       id="path50"
       style="fill:#e3000f;fill-opacity:1;fill-rule:nonzero;stroke:none"
       d="m 337.5113,525.6757 c 0,0 0,-3.0115 0,-3.0115 -0.4201,-0.3779 -0.7979,-0.7603 -1.0927,-1.0803 -0.8892,-0.9723 -2.5974,-4.7404 -2.5974,-4.7404 0,0 2.3474,0.4073 3.6901,1.2844 0,0 0,-2.2519 0,-2.2519 -1.2758,-0.6976 -2.5928,-1.2376 -3.9517,-1.6401 0,0 -0.0706,-1.2512 -0.0706,-1.2512 0.005,-1.6696 0.3912,-2.9455 1.1384,-3.8548 0.648,-0.7892 1.8283,-0.8187 2.8839,-0.8187 0,0 0,-2.065 0,-2.065 -2.6387,-0.6806 -5.8665,-0.6976 -7.063,0.9561 -0.8142,1.1171 -1.2255,2.6461 -1.2255,4.5896 0,1.4961 0.2537,2.9914 0.773,4.4878 0.5437,1.5162 1.2586,2.9534 2.1688,4.3069 0.9094,1.3593 1.9982,2.5804 3.2729,3.6394 0.6605,0.5318 1.3504,1.0222 2.0738,1.4545 0,0 0,-0.005 0,-0.005" /><path
       id="path52"
       style="fill:#e3000f;fill-opacity:1;fill-rule:nonzero;stroke:none"
       d="m 319.432,503.4883 c 0,0 0,3.0983 0,3.0983 0,0 0.623,0.4706 0.9337,0.773 1.0097,0.9811 1.8694,2.2978 2.588,3.943 0.794,1.8272 0.9477,2.8996 1.6373,6.7918 0,0 -0.4073,3.3483 -0.4073,3.3483 -2.0103,0.6231 -3.5439,0.3867 -4.7517,-0.3444 0,0 0,3.9334 0,3.9334 1.1962,0.3327 2.3635,0.1496 4.2786,-0.315 0.2823,1.2339 -1.5089,5.0383 -2.3437,6.1813 -0.5315,0.7398 -1.2662,1.3997 -1.9349,2.0066 0,0 0,4.5403 0,4.5403 0.805,0.5238 1.7441,0.6403 2.4003,-0.2739 3.8305,-5.3674 7.2207,-10.6719 6.0826,-21.772 -0.1587,-1.505 -0.9391,-3.7854 -1.3427,-4.8399 -1.6368,-4.25 -3.6222,-5.6248 -7.1402,-7.0708" /><path
       id="path54"
       style="fill:#e3000f;fill-opacity:1;fill-rule:nonzero;stroke:none"
       d="m 319.432,491.9474 c -2.7255,-0.6517 -5.4306,-1.3122 -8.1139,-2.0021 0,0 0,5.7577 0,5.7577 2.7255,0.6528 5.4331,1.271 8.1139,1.8731 0,0 0,-5.6287 0,-5.6287" /><path
       id="path56"
       style="fill:#e3000f;fill-opacity:1;fill-rule:nonzero;stroke:none"
       d="m 319.432,537.4449 c 0,0 0,-4.5403 0,-4.5403 -0.919,0.8303 -1.6747,2.2139 -1.6747,2.2139 0,0 0.7767,1.7529 1.6747,2.3303 0,0 0,-0.004 0,-0.004" /><path
       id="path58"
       style="fill:#e3000f;fill-opacity:1;fill-rule:nonzero;stroke:none"
       d="m 319.432,525.0317 c 0,0 0,-3.9382 0,-3.9382 -2.3352,-1.4035 -3.4611,-4.648 -4.4334,-7.0946 -0.8263,-2.0905 -1.2254,-8.1096 2.3471,-8.1096 0,0 1.3875,0.233 2.0863,0.6973 0,0 0,-3.0983 0,-3.0983 0,0 -0.7447,-0.2948 -0.7447,-0.2948 -4.0124,-1.5704 -6.3595,0.3779 -7.3692,3.2483 0,0 0,7.6067 0,7.6067 0.4116,1.5364 0.8396,2.9449 1.6118,4.544 1.0306,2.1234 2.7252,4.2874 4.4158,5.4096 0.7854,0.5227 2.0863,1.0296 2.0863,1.0296 0,0 0,0 0,0" /><path
       id="path60"
       style="fill:#e3000f;fill-opacity:1;fill-rule:nonzero;stroke:none"
       d="m 311.3181,518.9255 c 0.2741,0.523 0.4983,1.6986 0.4983,1.6986 0,0 0.0876,1.6078 0.0876,1.6078 0,0 -0.3903,1.1049 -0.3903,1.1049 0,0 -0.1956,0.2415 -0.1956,0.2415 0,0 0,-4.6528 0,-4.6528" /><path
       id="path62"
       style="fill:#e3000f;fill-opacity:1;fill-rule:nonzero;stroke:none"
       d="m 311.3181,489.9416 c -3.0946,-0.794 -6.1736,-1.6127 -9.2223,-2.4636 0,0 0,5.957 0,5.957 3.0907,0.7889 6.1688,1.5457 9.2223,2.268 0,0 0,-5.7614 0,-5.7614" /><path
       id="path64"
       style="fill:#e3000f;fill-opacity:1;fill-rule:nonzero;stroke:none"
       d="m 311.3181,523.5735 c 0,0 0,-4.648 0,-4.648 0,0 -0.4238,-0.6029 -0.4238,-0.6029 -0.3404,-0.3693 -1.4292,-0.5142 -1.4292,-0.5142 0,0 -1.3913,0.9675 -1.3913,0.9675 0,0 -1.184,0.7642 -1.184,0.7642 -1.8408,0 -3.4563,-1.0057 -4.794,-2.8046 0,0 0,3.17 0,3.17 0,0 0.1078,0.1125 0.1078,0.1125 0.752,0.7645 0.9552,0.9553 1.8989,1.7408 2.1231,1.7489 4.0124,2.2184 5.957,2.2184 0,0 1.2586,-0.3989 1.2586,-0.3989 0,0 0,-0.005 0,-0.005" /><path
       id="path66"
       style="fill:#e3000f;fill-opacity:1;fill-rule:nonzero;stroke:none"
       d="m 311.3181,514.0485 c 0,0 0,-7.6067 0,-7.6067 -0.7308,2.0812 -0.7642,4.6528 -0.2291,6.7212 0,0 0.2291,0.8855 0.2291,0.8855" /><path
       id="path68"
       style="fill:#e3000f;fill-opacity:1;fill-rule:nonzero;stroke:none"
       d="m 302.0958,487.478 c -2.7377,-0.7693 -5.4629,-1.5497 -8.1671,-2.3684 0,0 0,6.1773 0,6.1773 2.7292,0.7396 5.4544,1.4581 8.1671,2.1518 0,0 0,-5.9607 0,-5.9607" /><path
       id="path70"
       style="fill:#e3000f;fill-opacity:1;fill-rule:nonzero;stroke:none"
       d="m 302.0958,519.9055 c 0,0 0,-3.1737 0,-3.1737 0,0 -0.6814,-1.0429 -0.6814,-1.0429 -0.7396,-1.3045 -1.3501,-3.2442 -1.8445,-4.9725 -0.4992,-1.7651 -0.9723,-4.1669 -1.4247,-7.2241 0,0 -0.2205,-1.4542 -0.3864,-2.5591 0,0 -0.2698,-1.7033 -0.2698,-1.7033 0,0 -0.1537,-1.213 -0.1537,-1.213 0,0 -3.4066,-1.3204 -3.4066,-1.3204 0,0 0,7.9923 0,7.9923 0,0 0.5609,3.4563 0.5609,3.4563 0.7263,4.8484 1.088,7.9722 1.088,9.3302 0,1.1098 -0.1412,1.2671 -0.4819,1.8406 -0.7061,1.184 -1.4618,2.0724 0.5856,2.916 1.1883,0.4867 2.9495,0.6604 2.9495,0.6604 0,0 1.2254,-0.5229 1.2254,-0.5229 0,0 0.354,-1.8321 0.354,-1.8321 0.0496,-1.1593 0.0326,-1.7243 -0.2253,-3.4563 0.6862,1.0755 1.459,2.1357 2.1109,2.8293 0,0 0,-0.005 0,-0.005" /><path
       id="path72"
       style="fill:#e3000f;fill-opacity:1;fill-rule:nonzero;stroke:none"
       d="m 293.9287,507.7757 c 0.8759,1.5038 1.4159,2.9407 1.4159,2.9407 0,0 0.208,6.1852 0.208,6.1852 0,0 -0.4904,-2.5047 -1.6239,-4.7061 0,0 0,-4.4198 0,-4.4198" /><path
       id="path74"
       style="fill:#e3000f;fill-opacity:1;fill-rule:nonzero;stroke:none"
       d="m 293.9287,485.1054 c -3.0201,-0.9054 -6.0239,-1.8491 -9.0068,-2.8327 0,0 0,6.48 0,6.48 3.0038,0.8768 6.0066,1.7204 9.0068,2.5342 0,0 0,-6.1815 0,-6.1815" /><path
       id="path76"
       style="fill:#e3000f;fill-opacity:1;fill-rule:nonzero;stroke:none"
       d="m 293.9287,512.1955 c 0,0 0,-4.4198 0,-4.4198 -2.0279,-3.4696 -5.8454,-9.0564 -9.0068,-12.1223 0,0 0,3.3398 0,3.3398 3.0412,3.3607 6.8626,9.0601 9.0068,13.2023 0,0 0,0 0,0" /><path
       id="path78"
       style="fill:#e3000f;fill-opacity:1;fill-rule:nonzero;stroke:none"
       d="m 293.9287,504.6888 c -0.3864,-2.3845 -0.7356,-4.3787 -0.7356,-4.3787 -0.2407,-1.2092 -0.6852,-2.8828 -0.6852,-2.8828 0,0 -0.233,-0.7977 -0.233,-0.7977 0,0 0.3657,-0.3826 0.3657,-0.3826 0,0 0.4856,0.1459 0.4856,0.1459 0,0 0.8025,0.3036 0.8025,0.3036 0,0 0,7.9923 0,7.9923" /><path
       id="path80"
       style="fill:#e3000f;fill-opacity:1;fill-rule:nonzero;stroke:none"
       d="m 284.9219,509.0255 c 1.0842,1.1509 1.9941,2.3559 2.7425,3.5938 1.0256,1.8196 1.5412,3.4563 1.5412,4.9351 0,1.0639 -0.258,1.9647 -0.7855,2.6842 -0.5114,0.71 -2.0353,1.0629 -2.0353,1.0629 0,0 -1.4629,-0.3072 -1.4629,-0.3072 0,0 0,-3.0955 0,-3.0955 0,0 0.3656,-0.0198 0.3656,-0.0198 0,0 0.9683,-1.0185 0.6441,-2.4265 0,0 -0.5154,-1.4422 -1.0097,-2.2351 0,0 0,-4.1919 0,-4.1919" /><path
       id="path82"
       style="fill:#e3000f;fill-opacity:1;fill-rule:nonzero;stroke:none"
       d="m 284.9219,482.2727 c -2.8826,-0.9553 -5.7527,-1.936 -8.6117,-2.9582 0,0 0,6.8465 0,6.8465 2.8627,0.8969 5.7328,1.7569 8.6117,2.5963 0,0 0,-6.4846 0,-6.4846" /><path
       id="path84"
       style="fill:#e3000f;fill-opacity:1;fill-rule:nonzero;stroke:none"
       d="m 284.9219,520.9897 c 0,0 0,-3.0909 0,-3.0909 -1.8978,0 -4.6154,-3.8463 -5.101,-4.9101 -0.6605,-1.4123 -1.7073,-4.6406 -1.2512,-5.2969 2.1022,0.6276 4.8484,3.1661 6.3522,5.5256 0,0 0,-4.1919 0,-4.1919 -0.4323,-0.4481 -0.8893,-0.8968 -1.3666,-1.3337 -1.6659,-1.5114 -3.4024,-2.6376 -5.2297,-3.3808 -0.0419,-1.2796 -0.0632,-1.6288 -0.0632,-1.6288 0,-2.1688 0.3617,-3.8305 1.0678,-5.006 0.7025,-1.1804 1.4916,-1.8692 2.6759,-1.2461 0.785,0.4153 1.7983,1.3331 2.9158,2.567 0,0 0,-3.3437 0,-3.3437 -0.8142,-0.7852 -1.5829,-1.3998 -2.2644,-1.7824 -1.2795,-0.7022 -4.1451,-0.9094 -4.1451,-0.9094 0,0 -1.5828,0.311 -2.2022,0.934 0,0 0,17.0663 0,17.0663 0,0 0.7061,1.5905 0.7061,1.5905 0.8521,1.7654 1.874,3.3406 3.0745,4.7319 1.0343,1.1508 2.143,2.1271 3.3398,2.9163 0.5238,0.3452 1.4913,0.7937 1.4913,0.7937 0,0 0,-0.005 0,-0.005" /><path
       id="path86"
       style="fill:#e3000f;fill-opacity:1;fill-rule:nonzero;stroke:none"
       d="m 276.3102,521.5802 c 0,0 0,3.7967 0,3.7967 0,0 1.0553,0.3444 1.0553,0.3444 0,0 0.565,0.4487 0.565,0.4487 0,0 0.432,-0.8424 0.432,-0.8424 0,0 -0.2449,-0.8274 -0.7356,-1.7493 0,0 -0.7974,-1.2509 -1.3167,-1.9981" /><path
       id="path88"
       style="fill:#e3000f;fill-opacity:1;fill-rule:nonzero;stroke:none"
       d="m 276.3102,479.3097 c -2.0772,-0.7433 -4.1459,-1.5075 -6.2062,-2.3003 0,0 0,7.1535 0,7.1535 2.0651,0.6851 4.129,1.3493 6.2062,1.9981 0,0 0,-6.8513 0,-6.8513" /><path
       id="path90"
       style="fill:#e3000f;fill-opacity:1;fill-rule:nonzero;stroke:none"
       d="m 276.3102,525.3769 c 0,0 0,-3.7967 0,-3.7967 -0.3073,-0.4408 -0.5936,-0.79 -0.5936,-0.79 0,0 -4.2672,-0.963 -5.6126,-0.963 0,0 0,11.5319 0,11.5319 0.7643,1.0429 1.474,1.558 1.474,1.558 0,0 0.3705,-0.5695 0.3705,-0.5695 0,0 -0.0754,-0.4649 -0.0754,-0.4649 -0.2653,-1.1259 -0.523,-2.414 -0.7509,-3.8636 0,0 -0.3996,-2.3346 -0.3996,-2.3346 0,0 -0.1786,-1.2005 -0.1786,-1.2005 1.5086,0 4.2213,0.5227 5.7662,0.8929 0,0 0,0 0,0" /><path
       id="path92"
       style="fill:#e3000f;fill-opacity:1;fill-rule:nonzero;stroke:none"
       d="m 276.3102,510.9619 c 0,0 0,-17.0663 0,-17.0663 -0.3322,0.3371 -0.6355,0.7606 -0.9017,1.2799 -0.7679,1.4541 -1.1545,3.4398 -1.1545,5.957 0.004,1.9437 0.2412,3.8846 0.7307,5.8206 0.3578,1.3913 0.794,2.7292 1.3255,4.0125 0,0 0,-0.004 0,-0.004" /><path
       id="path94"
       style="fill:#e3000f;fill-opacity:1;fill-rule:nonzero;stroke:none"
       d="m 270.104,491.1792 c 1.7691,1.6118 4.146,5.8578 4.146,5.8578 0,0 0.2778,0.7013 0.2778,0.7013 -0.6183,3.5526 0.0915,7.9228 0.0915,7.9228 -0.602,-3.0994 -2.4885,-8.3628 -4.5153,-11.0296 0,0 0,-3.4523 0,-3.4523" /><path
       id="path96"
       style="fill:#e3000f;fill-opacity:1;fill-rule:nonzero;stroke:none"
       d="m 270.104,477.0094 c -2.3598,-0.9057 -4.7157,-1.8372 -7.0619,-2.7959 0,0 0,7.5561 0,7.5561 2.3425,0.8189 4.6973,1.6203 7.0619,2.3972 0,0 0,-7.1574 0,-7.1574" /><path
       id="path98"
       style="fill:#e3000f;fill-opacity:1;fill-rule:nonzero;stroke:none"
       d="m 270.104,531.3591 c 0,0 0,-11.5367 0,-11.5367 0,0 -0.1581,-0.0286 -0.1581,-0.0286 0,0 -0.3943,-2.3596 -0.3943,-2.3596 0,0 -0.7444,-5.8742 -0.7444,-5.8742 0,0 -0.8348,-6.4264 -0.8348,-6.4264 -0.6432,-5.1891 -0.9973,-9.1851 -0.9973,-9.1851 -0.0657,-2.1853 0.4323,-3.2233 1.3885,-2.8542 0,0 1.163,0.7767 1.7404,1.5372 0,0 0,-3.4523 0,-3.4523 0,0 -0.4731,-0.3867 -0.4731,-0.3867 -2.2186,-1.5704 -4.3418,-2.1515 -5.6834,-2.1515 0,0 -0.6404,0.1449 -0.9054,0.4235 0,0 0,10.7932 0,10.7932 0,0 0.1944,1.5744 0.1944,1.5744 0.7311,6.1061 1.317,10.315 1.6824,12.6825 0,0 0.79,5.0516 0.79,5.0516 0,0 -2.6668,-0.3742 -2.6668,-0.3742 0,0 0,2.2607 0,2.2607 0,0 2.0182,2.895 2.0182,2.895 0,0 1.4503,0.3614 1.4503,0.3614 0,0 0.4609,2.4715 0.4609,2.4715 0,0 2.1194,3.1164 2.1194,3.1164 0.3853,0.5687 0.7183,1.0591 1.0131,1.4621 0,0 0,0 0,0" /><path
       id="path100"
       style="fill:#e3000f;fill-opacity:1;fill-rule:nonzero;stroke:none"
       d="m 263.0421,499.9073 c 0.3569,2.7131 1.0667,8.3503 1.2002,9.8827 0,0 -0.586,-2.2929 -1.2002,-4.2959 0,0 0,-5.5868 0,-5.5868" /><path
       id="path102"
       style="fill:#e3000f;fill-opacity:1;fill-rule:nonzero;stroke:none"
       d="m 263.0421,474.2084 c -4.375,-1.7985 -8.7285,-3.7048 -13.0575,-5.7401 0,0 0.004,8.4367 0.004,8.4367 4.2832,1.6986 8.6412,3.3188 13.0536,4.8646 0,0 0,-7.5612 0,-7.5612" /><path
       id="path104"
       style="fill:#e3000f;fill-opacity:1;fill-rule:nonzero;stroke:none"
       d="m 263.0421,521.0527 c 0,0 0,-2.2646 0,-2.2646 0,0 -0.1338,-0.0247 -0.1338,-0.0247 0,0 -0.6888,-0.3903 -0.6888,-0.3903 0,0 -0.3742,0.4238 -0.3742,0.4238 0,0 0.5479,1.3291 1.0307,2.0228 0,0 0.1661,0.233 0.1661,0.233" /><path
       id="path106"
       style="fill:#e3000f;fill-opacity:1;fill-rule:nonzero;stroke:none"
       d="m 263.0421,505.4941 c 0,0 0,-5.5868 0,-5.5868 0,0 -0.1919,-1.396 -0.1919,-1.396 0,0 -2.2635,-8.1338 -5.3416,-11.7357 -1.5001,-1.5784 -4.3416,-2.6881 -7.2168,-2.6881 0,0 -0.3072,0.0334 -0.3072,0.0334 0,0 0.004,6.626 0.004,6.626 0,0 0.017,0.1868 0.017,0.1868 0,0 0.1537,1.0097 0.1537,1.0097 0,0 0.0621,0.4859 0.0621,0.4859 0,0 1.0476,6.29 1.0476,6.29 0.8799,5.3416 1.4582,11.6232 1.4582,11.6232 0,1.4171 -1.4916,1.7031 -1.4916,1.7031 0,0 -0.8186,-0.2699 -1.2509,-0.7305 0,0 0.004,3.0484 0.004,3.0484 0,0 0.2577,0.2165 0.2577,0.2165 1.5914,1.2464 3.685,1.5699 4.9771,1.5699 0,0 1.313,-0.1698 1.749,-0.5775 0.4484,-0.4186 0.6394,-1.6908 0.6394,-1.6908 0,0 -0.2032,-1.9066 -0.5068,-4.0374 0,0 -0.8847,-6.3482 -0.8847,-6.3482 0,0 -0.3824,-2.4752 -0.3824,-2.4752 0,0 -0.2491,-1.7155 -0.2491,-1.7155 0,0 -0.2452,-1.6328 -0.2452,-1.6328 0,0 -0.2654,-1.7909 -0.4896,-3.2119 -0.3158,-2.2558 -0.4867,-4.3779 -0.4867,-4.3779 0,0 0.0794,-1.1259 0.3456,-1.5372 0.2775,-0.4283 1.3379,0.1911 1.3379,0.1911 1.868,1.4167 5.188,10.8799 6.9914,16.7575 0,0 0,0 0,0" /><path
       id="path108"
       style="fill:#e3000f;fill-opacity:1;fill-rule:nonzero;stroke:none"
       d="m 263.0421,499.8577 c 0,0 -0.5738,-4.7741 -0.5738,-4.7741 -0.1581,-1.3042 -0.2746,-3.1697 -0.2746,-3.1697 0,0 0.1128,-1.6945 0.4532,-2.2969 0,0 0.3952,-0.5525 0.3952,-0.5525 0,0 0,10.7932 0,10.7932" /><path
       id="path110"
       style="fill:#e3000f;fill-opacity:1;fill-rule:nonzero;stroke:none"
       d="m 249.9885,468.4683 c -4.5612,-2.1359 -9.0975,-4.4079 -13.6176,-6.8307 0,0 0,9.4604 0,9.4604 4.4209,2.0265 8.9648,3.9665 13.6137,5.807 0,0 0.004,-8.4367 0.004,-8.4367" /><path
       id="path112"
       style="fill:#e3000f;fill-opacity:1;fill-rule:nonzero;stroke:none"
       d="m 249.9885,514.3635 c 0,0 0,-3.0484 0,-3.0484 -1.2081,-1.2884 -2.5381,-4.0757 -4.0374,-6.7425 -2.9743,-5.2809 -4.0209,-17.9756 -5.0935,-23.7294 0,0 -3.0274,-1.3836 -4.4867,-1.9361 0,0 0,2.5974 0,2.5974 1.5335,7.6346 2.9208,15.4038 3.5478,23.2178 0.1163,1.3331 0.167,3.1821 0.167,3.1821 0,1.8735 -0.5533,2.8083 -1.6413,2.8083 0,0 -0.9972,-0.146 -1.5621,-0.4617 0,0 -0.5114,-0.2282 -0.5114,-0.2282 0,0 0,1.3875 0,1.3875 0,0 0.2245,0.1165 0.2245,0.1165 0.7563,0.4275 2.0435,1.0095 3.8758,1.728 1.4752,0.6441 2.9874,0.955 2.9874,0.955 0,0 1.3629,-0.6145 1.3629,-1.8482 0,0 -0.0705,-1.8357 -0.2664,-3.7635 -0.2537,-2.4265 -0.1449,-2.2978 -0.1449,-2.2978 1.9103,2.6175 3.1689,6.0069 5.5744,8.0632 0,0 0.004,0 0.004,0" /><path
       id="path114"
       style="fill:#e3000f;fill-opacity:1;fill-rule:nonzero;stroke:none"
       d="m 249.9885,490.7469 c 0,0 -0.0411,-0.2069 -0.0411,-0.2069 0,0 -0.1117,-0.6154 -0.1117,-0.6154 0,0 -0.229,-1.2626 -0.229,-1.2626 0,0 -0.286,-1.7288 -0.286,-1.7288 0,0 -0.1338,-1.2291 -0.1338,-1.2291 0,0 0.7977,-1.5832 0.7977,-1.5832 0,0 0.004,6.626 0.004,6.626" /><path
       id="path116"
       style="fill:#e3000f;fill-opacity:1;fill-rule:nonzero;stroke:none"
       d="m 236.3709,533.5688 c 0,0 0,4.3293 0,4.3293 0,0 0.644,0 0.644,0 -0.2239,-1.3711 -0.4359,-2.8253 -0.644,-4.3293" /><path
       id="path118"
       style="fill:#e3000f;fill-opacity:1;fill-rule:nonzero;stroke:none"
       d="m 236.3709,461.6376 c -5.7739,-3.0943 -11.5277,-6.434 -17.2729,-10.0525 0,0 0,10.6844 0,10.6844 5.4541,3.1243 11.2374,6.0658 17.2729,8.8285 0,0 0,-9.4604 0,-9.4604" /><path
       id="path120"
       style="fill:#e3000f;fill-opacity:1;fill-rule:nonzero;stroke:none"
       d="m 236.3709,537.8981 c 0,0 0,-4.3293 0,-4.3293 -0.5936,-4.2205 -1.1421,-8.7529 -1.7357,-12.5249 -0.4198,-2.6708 -1.1505,-6.6345 -1.6412,-12.0802 -0.8388,-9.2854 -1.6869,-24.1988 -6.8043,-31.5765 -1.7158,-2.4763 -4.4036,-4.2874 -7.0917,-5.8161 0,0 0,5.7529 0,5.7529 0,0 0.3903,0.337 0.3903,0.337 7.4608,7.0039 7.0708,22.1338 8.4169,32.5525 0.9216,7.1255 1.9684,13.9136 3.2939,20.9175 -1.7691,-0.3408 -4.0045,-0.5613 -5.5953,-0.8893 -2.7627,-0.5737 -3.8016,-0.3447 -6.5058,-1.4879 0,0 0,5.2186 0,5.2186 3.5314,1.3754 8.4416,1.5117 11.9772,2.359 1.3042,0.3081 3.4138,1.5667 5.2957,1.5667 0,0 0,0 0,0" /><path
       id="path122"
       style="fill:#e3000f;fill-opacity:1;fill-rule:nonzero;stroke:none"
       d="m 236.3709,511.4103 c 0,0 -0.6477,-0.8807 -0.6477,-0.8807 0,0 0.4867,-0.54 0.4867,-0.54 0,0 0.161,0.0332 0.161,0.0332 0,0 0,1.3875 0,1.3875" /><path
       id="path124"
       style="fill:#e3000f;fill-opacity:1;fill-rule:nonzero;stroke:none"
       d="m 236.3709,481.5045 c 0,0 -0.3149,-1.5706 -0.3149,-1.5706 0,0 -0.2166,-1.2337 -0.2166,-1.2337 0,0 0.5315,0.203 0.5315,0.203 0,0 0,2.6013 0,2.6013" /><path
       id="path126"
       style="fill:#e3000f;fill-opacity:1;fill-rule:nonzero;stroke:none"
       d="m 219.098,451.5851 c -5.9278,-3.7346 -11.8522,-7.7604 -17.7922,-12.1223 -0.919,3.0413 3.5971,8.4994 3.4015,13.5139 4.4448,3.2612 9.2685,6.3558 14.3907,9.2928 0,0 0,-10.6844 0,-10.6844" /><path
       id="path128"
       style="fill:#e3000f;fill-opacity:1;fill-rule:nonzero;stroke:none"
       d="m 219.098,533.9724 c 0,0 0,-5.2223 0,-5.2223 -1.0505,-0.4399 -2.3553,-1.0887 -4.1125,-2.0727 -1.7952,-1.0054 -3.5192,-2.2937 -4.9479,-3.7269 -0.773,3.149 -0.8436,5.0229 1.8028,7.0755 3.6601,2.8242 4.1582,2.7116 7.1782,3.9169 0,0 0.0794,0.0295 0.0794,0.0295" /><path
       id="path130"
       style="fill:#e3000f;fill-opacity:1;fill-rule:nonzero;stroke:none"
       d="m 219.098,477.324 c 0,0 0,-5.7529 0,-5.7529 -0.9306,-0.5239 -1.857,-1.0182 -2.7414,-1.4913 -3.3284,-1.7864 -6.0534,-2.501 -8.2216,-2.501 -2.5342,0 -4.898,0.0504 -6.0486,1.2461 -0.839,0.8807 -1.3416,1.9324 -1.3416,3.4067 0,0 -0.021,1.9647 0.4238,2.9865 0.498,1.1299 0.9178,2.3636 1.8272,3.5983 3.8557,5.2339 2.0191,-0.5198 2.0191,-1.6202 0,-1.2005 0.5236,-2.1986 1.5409,-3.087 1.832,-1.6163 9.5964,0.881 12.5422,3.2148" /><g
       transform="scale(1.66222,1.66223)"
       id="g132"><path
         id="path134"
         style="fill:#007a2c;fill-opacity:1;fill-rule:nonzero;stroke:#1a1a18;stroke-width:0.77160001;stroke-linecap:butt;stroke-linejoin:miter;stroke-miterlimit:22.92558479;stroke-dasharray:none;stroke-opacity:1"
         d="m 122.478,201.8846 c 0,23.9391 19.3918,43.3451 43.3309,43.3451 23.9392,0 43.3454,-19.406 43.3454,-43.3451 0,0 -86.6763,0 -86.6763,0 z" /></g><g
       transform="scale(1.66222,1.66223)"
       id="g136"><path
         id="path138"
         style="fill:#007a2c;fill-opacity:1;fill-rule:nonzero;stroke:#1a1a18;stroke-width:0.77160001;stroke-linecap:butt;stroke-linejoin:miter;stroke-miterlimit:22.92558479;stroke-dasharray:none;stroke-opacity:1"
         d="m 209.1614,201.8846 c 0,-23.9394 -19.4133,-43.3454 -43.3525,-43.3454 -23.9391,0 -43.3448,19.406 -43.3448,43.3454 0,0 86.6973,0 86.6973,0 z" /></g><g
       transform="scale(1.66222,1.66223)"
       id="g140"><path
         id="path142"
         style="fill:#007a2c;fill-opacity:1;fill-rule:nonzero;stroke:#007a2c;stroke-width:0.449;stroke-linecap:butt;stroke-linejoin:miter;stroke-miterlimit:22.92558479;stroke-dasharray:none;stroke-opacity:1"
         d="m 140.6965,201.8846 c 0,18.9332 15.3343,34.2814 34.2678,34.2814 18.9331,0 34.2813,-15.3482 34.2813,-34.2814 0,0 -68.5491,0 -68.5491,0 z" /></g><g
       transform="scale(1.66222,1.66223)"
       id="g144"><path
         id="path146"
         style="fill:#1a1a18;fill-opacity:1;fill-rule:nonzero;stroke:#1a1a18;stroke-width:0.449;stroke-linecap:butt;stroke-linejoin:miter;stroke-miterlimit:22.92558479;stroke-dasharray:none;stroke-opacity:1"
         d="m 209.2527,201.8846 c 0,-18.9335 -15.3553,-34.2816 -34.2884,-34.2816 -18.9335,0 -34.2817,15.3481 -34.2817,34.2816 0,0 68.5701,0 68.5701,0 z" /></g><g
       transform="scale(1.66222,1.66223)"
       id="g148"><path
         id="path150"
         style="fill:#1a1a18;fill-opacity:1;fill-rule:nonzero;stroke:#007a2c;stroke-width:0.4535;stroke-linecap:butt;stroke-linejoin:miter;stroke-miterlimit:22.92558479;stroke-dasharray:none;stroke-opacity:1"
         d="m 140.667,201.8846 c 0,15.0758 12.2069,27.2968 27.2829,27.2968 15.0758,0 27.2974,-12.221 27.2974,-27.2968 0,0 -54.5803,0 -54.5803,0 z" /></g><g
       transform="scale(1.66222,1.66223)"
       id="g152"><path
         id="path154"
         style="fill:#007a2c;fill-opacity:1;fill-rule:nonzero;stroke:#007a2c;stroke-width:0.4535;stroke-linecap:butt;stroke-linejoin:miter;stroke-miterlimit:22.92558479;stroke-dasharray:none;stroke-opacity:1"
         d="m 195.2538,201.8846 c 0,-15.0761 -12.2281,-27.2971 -27.3039,-27.2971 -15.076,0 -27.297,12.221 -27.297,27.2971 0,0 54.6009,0 54.6009,0 z" /></g><g
       transform="scale(1.66222,1.66223)"
       id="g156"><path
         id="path158"
         style="fill:#007a2c;fill-opacity:1;fill-rule:nonzero;stroke:#007a2c;stroke-width:0.4535;stroke-linecap:butt;stroke-linejoin:miter;stroke-miterlimit:22.92558479;stroke-dasharray:none;stroke-opacity:1"
         d="m 152.1777,201.8846 c 0,11.8953 9.6358,21.5379 21.5311,21.5379 11.8956,0 21.5385,-9.6426 21.5385,-21.5379 0,0 -43.0696,0 -43.0696,0 z" /></g><g
       transform="scale(1.66222,1.66223)"
       id="g160"><path
         id="path162"
         style="fill:#1a1a18;fill-opacity:1;fill-rule:nonzero;stroke:#007a2c;stroke-width:0.4535;stroke-linecap:butt;stroke-linejoin:miter;stroke-miterlimit:22.92558479;stroke-dasharray:none;stroke-opacity:1"
         d="m 152.185,201.8846 c 0,8.6681 7.0127,15.6946 15.6802,15.6946 8.6686,0 15.6951,-7.0265 15.6951,-15.6946 0,0 -31.3753,0 -31.3753,0 z" /></g><g
       transform="scale(1.66222,1.66223)"
       id="g164"><path
         id="path166"
         style="fill:#007a2c;fill-opacity:1;fill-rule:nonzero;stroke:#007a2c;stroke-width:0.4535;stroke-linecap:butt;stroke-linejoin:miter;stroke-miterlimit:22.92558479;stroke-dasharray:none;stroke-opacity:1"
         d="m 161.1714,201.8846 c 0,6.1863 5.0012,11.2014 11.1878,11.2014 6.1861,0 11.2011,-5.0151 11.2011,-11.2014 0,0 -22.3889,0 -22.3889,0 z" /></g><g
       transform="scale(1.66222,1.66223)"
       id="g168"><path
         id="path170"
         style="fill:#1a1a18;fill-opacity:1;fill-rule:nonzero;stroke:#007a2c;stroke-width:0.4535;stroke-linecap:butt;stroke-linejoin:miter;stroke-miterlimit:22.92558479;stroke-dasharray:none;stroke-opacity:1"
         d="m 161.1714,201.8846 c 0,3.3554 2.706,6.0755 6.0611,6.0755 3.3559,0 6.0758,-2.7201 6.0758,-6.0755 0,0 -12.1369,0 -12.1369,0 z" /></g><g
       transform="scale(1.66222,1.66223)"
       id="g172"><path
         id="path174"
         style="fill:#1a1a18;fill-opacity:1;fill-rule:nonzero;stroke:#1a1a18;stroke-width:0.4535;stroke-linecap:butt;stroke-linejoin:miter;stroke-miterlimit:22.92558479;stroke-dasharray:none;stroke-opacity:1"
         d="m 195.2612,201.8846 c 0,-11.8953 -9.6568,-21.5379 -21.5524,-21.5379 -11.8953,0 -21.5382,9.6426 -21.5382,21.5379 0,0 43.0906,0 43.0906,0 z" /></g><g
       transform="scale(1.66222,1.66223)"
       id="g176"><path
         id="path178"
         style="fill:#007a2c;fill-opacity:1;fill-rule:nonzero;stroke:#007a2c;stroke-width:0.4535;stroke-linecap:butt;stroke-linejoin:miter;stroke-miterlimit:22.92558479;stroke-dasharray:none;stroke-opacity:1"
         d="m 183.5677,201.8846 c 0,-8.6681 -7.0339,-15.6946 -15.7025,-15.6946 -8.6675,0 -15.6946,7.0265 -15.6946,15.6946 0,0 31.3971,0 31.3971,0 z" /></g><g
       transform="scale(1.66222,1.66223)"
       id="g180"><path
         id="path182"
         style="fill:#1a1a18;fill-opacity:1;fill-rule:nonzero;stroke:#1a1a18;stroke-width:0.4535;stroke-linecap:butt;stroke-linejoin:miter;stroke-miterlimit:22.92558479;stroke-dasharray:none;stroke-opacity:1"
         d="m 183.5677,201.8846 c 0,-6.1866 -5.0224,-11.2014 -11.2085,-11.2014 -6.1866,0 -11.2017,5.0148 -11.2017,11.2014 0,0 22.4102,0 22.4102,0 z" /></g><g
       transform="scale(1.66222,1.66223)"
       id="g184"><path
         id="path186"
         style="fill:#007a2c;fill-opacity:1;fill-rule:nonzero;stroke:#007a2c;stroke-width:0.4535;stroke-linecap:butt;stroke-linejoin:miter;stroke-miterlimit:22.92558479;stroke-dasharray:none;stroke-opacity:1"
         d="m 173.3153,201.8846 c 0,-3.3554 -2.7269,-6.0755 -6.0828,-6.0755 -3.3551,0 -6.075,2.7201 -6.075,6.0755 0,0 12.1578,0 12.1578,0 z" /></g><path
       id="path188"
       style="fill:#1a1a18;fill-opacity:1;fill-rule:nonzero;stroke:none"
       d="m 357.7365,333.1769 c -0.731,0.2194 -1.5103,0.3532 -2.4973,0.3532 -2.8868,0 -4.6655,-1.6322 -4.6655,-4.544 0,-2.8749 1.9128,-4.2514 4.6655,-4.2514 0.9139,0 1.8522,0.1948 2.753,0.4386 0,0 0,4.5805 0,4.5805 0,0 -3.4353,0 -3.4353,0 0,0 0,-1.3403 0,-1.3403 0,0 1.8034,0 1.8034,0 0,0 0,-2.2169 0,-2.2169 -0.2928,-0.0729 -0.6585,-0.1216 -1.1211,-0.1216 -1.8147,0 -2.8868,1.3036 -2.8868,3.0333 0,1.7419 1.0965,3.0821 3.0821,3.0821 0.682,0 1.535,-0.1465 2.1926,-0.4504 0,0 0.1094,1.4369 0.1094,1.4369" /><path
       id="path190"
       style="fill:#1a1a18;fill-opacity:1;fill-rule:nonzero;stroke:none"
       d="m 360.794,328.6327 c 0.0728,0.8413 0.5363,1.4745 1.4496,1.4745 0.9142,0 1.279,-0.6825 1.3283,-1.4745 0,0 -2.7779,0 -2.7779,0 z m 3.8744,-2.071 c -0.6092,-0.3408 -1.2918,-0.633 -2.0835,-0.633 -1.0108,0 -1.7181,0.5723 -1.7909,1.5834 0,0 4.3367,0 4.3367,0 0,2.1932 -0.6576,3.7888 -2.9843,3.7888 -1.9494,0 -2.9109,-1.4981 -2.9109,-3.3137 0,-2.0585 1.2053,-3.2525 3.2763,-3.2525 0.8776,0 1.5596,0.1707 2.1566,0.4995 0,0 0,1.3275 0,1.3275" /><path
       id="path192"
       style="fill:#1a1a18;fill-opacity:1;fill-rule:nonzero;stroke:none"
       d="m 366.4454,324.8807 c 0,0 1.6322,0 1.6322,0 0,0 0,2.3026 0,2.3026 0,0.9017 0,2.558 1.328,2.558 0.292,0 0.5845,-0.0485 0.7308,-0.1338 0,0 0,1.6447 0,1.6447 -0.1709,0.0487 -0.3416,0.0487 -0.4995,0.0487 -0.9748,0 -1.6446,-0.9864 -1.7172,-1.5718 0,0 -0.0246,0 -0.0246,0 0,0 0,1.4258 0,1.4258 0,0 -1.4497,0 -1.4497,0 0,0 0,-6.2742 0,-6.2742" /><path
       id="path194"
       style="fill:#1a1a18;fill-opacity:1;fill-rule:nonzero;stroke:none"
       d="m 371.1212,324.8807 c 0,0 1.6322,0 1.6322,0 0,0 0,3.0459 0,3.0459 0,0.8158 0.134,2.1072 1.2183,2.1072 0.9374,0 0.9374,-0.8283 0.9374,-1.4128 0,0 0,-3.7403 0,-3.7403 0,0 1.633,0 1.633,0 0,0 0,3.0459 0,3.0459 0,0.8158 0.1333,2.1072 1.2175,2.1072 0.9383,0 0.9383,-0.8283 0.9383,-1.4128 0,0 0,-3.7403 0,-3.7403 0,0 1.6325,0 1.6325,0 0,0 0,3.9595 0,3.9595 0,1.4008 -0.438,2.4607 -1.9854,2.4607 -0.7674,0 -1.5837,-0.3532 -1.9616,-1.1086 -0.3532,0.7801 -0.9745,1.1086 -1.8513,1.1086 -0.6092,0 -1.3524,-0.256 -1.8644,-1.0233 0,0 -0.0238,0 -0.0238,0 0,0 0,0.8773 0,0.8773 0,0 -1.5227,0 -1.5227,0 0,0 0,-6.2742 0,-6.2742" /><path
       id="path196"
       style="fill:#1a1a18;fill-opacity:1;fill-rule:nonzero;stroke:none"
       d="m 382.3047,329.4247 c 0.5476,0.4144 1.2421,0.6825 1.9372,0.6825 0.9615,0 1.4131,-0.3412 1.4131,-1.3524 0,0 -0.902,0 -0.902,0 -0.6823,0 -1.4865,-0.0606 -2.1073,-0.3656 -0.6214,-0.3042 -1.0726,-0.8524 -1.0726,-1.7904 0,-1.1942 1.0848,-1.8641 2.1929,-1.8641 0.7432,0 1.5596,0.3898 1.9371,1.0843 0,0 0.0244,0 0.0244,0 0.0125,-0.1945 0.0125,-0.6092 0.0732,-0.9383 0,0 1.4374,0 1.4374,0 -0.0368,0.4879 -0.0604,0.9258 -0.0726,1.4012 -0.0124,0.4629 -0.0246,0.938 -0.0246,1.5715 0,0 0,0.8036 0,0.8036 0,1.8519 -0.7926,2.6439 -2.7051,2.6439 -0.6937,0 -1.5463,-0.1825 -2.1801,-0.4754 0,0 0.049,-1.4008 0.049,-1.4008 z m 0.8283,-2.7284 c 0,0.9621 1.0842,1.0843 1.8144,1.0843 0,0 0.7076,0 0.7076,0 0,-0.4879 -0.0737,-0.9383 -0.3416,-1.2918 -0.256,-0.341 -0.6455,-0.5601 -1.1449,-0.5601 -0.5851,0 -1.0355,0.231 -1.0355,0.7676" /><path
       id="path198"
       style="fill:#1a1a18;fill-opacity:1;fill-rule:nonzero;stroke:none"
       d="m 388.7476,324.8807 c 0,0 1.6324,0 1.6324,0 0,0 0,3.0699 0,3.0699 0,0.8042 0.256,2.0832 1.4372,2.0832 1.0477,0 1.0602,-1.0355 1.0602,-1.8028 0,0 0,-3.3503 0,-3.3503 0,0 1.6321,0 1.6321,0 0,0 0,3.9595 0,3.9595 0,1.413 -0.646,2.4607 -2.1319,2.4607 -0.8527,0 -1.5471,-0.28 -2.0588,-0.9989 0,0 -0.0247,0 -0.0247,0 0,0 0,0.8529 0,0.8529 0,0 -1.5465,0 -1.5465,0 0,0 0,-6.2742 0,-6.2742" /><path
       id="path200"
       style="fill:#1a1a18;fill-opacity:1;fill-rule:nonzero;stroke:none"
       d="m 397.2855,331.1549 c 0,0 -1.802,0 -1.802,0 0,0 2.3993,-6.5908 2.3993,-6.5908 0,-0.6698 -0.4017,-1.1205 -1.0599,-1.1205 -0.4017,0 -0.6338,0.0362 -0.8408,0.1091 0,0 -0.1094,-1.2056 -0.1094,-1.2056 0.3779,-0.11 0.7679,-0.1706 1.1568,-0.1706 1.7062,0 2.0838,1.364 2.6074,2.753 0,0 2.351,6.2254 2.351,6.2254 0,0 -1.6563,0 -1.6563,0 0,0 -1.5111,-4.5808 -1.5111,-4.5808 0,0 -0.0241,0 -0.0241,0 0,0 -1.5109,4.5808 -1.5109,4.5808" /><g
       transform="scale(1.66222,1.66223)"
       id="g202"><path
         id="path204"
         style="fill:#007a2c;fill-opacity:1;fill-rule:nonzero;stroke:#007a2c;stroke-width:0.4535;stroke-linecap:butt;stroke-linejoin:miter;stroke-miterlimit:22.92558479;stroke-dasharray:none;stroke-opacity:1"
         d="m 237.2187,224.502 c 0,0 -64.2055,-20.9194 -64.2055,-20.9194 0,0 0.4042,-1.7003 0.4042,-1.7003 0,0 68.106,0.0156 68.106,0.0156 0,7.9407 -1.4927,15.6725 -4.3047,22.6041 z" /></g><path
       id="path206"
       style="fill:#1a1a18;fill-opacity:1;fill-rule:nonzero;stroke:none"
       d="m 224.24,318.4123 c 0,0 -2.0738,-0.6638 -2.0738,-0.6638 0,0 0,17.0334 0,17.0334 0,0 2.0738,0 2.0738,0 0,0 0,-16.3696 0,-16.3696" /><path
       id="path208"
       style="fill:#1a1a18;fill-opacity:1;fill-rule:nonzero;stroke:none"
       d="m 241.6785,323.8322 c 0,0 -2.5611,-0.7121 -2.5611,-0.7121 0,0 -7.38,10.0148 -7.38,10.0148 0,0 0,-12.2105 0,-12.2105 0,0 -1.9341,-0.5933 -1.9341,-0.5933 0,0 0,14.4451 0,14.4451 0,0 3.2097,0 3.2097,0 0,0 6.7317,-9.345 6.7317,-9.345 0,0 0,9.345 0,9.345 0,0 1.9338,0 1.9338,0 0,0 0,-10.944 0,-10.944" /><path
       id="path210"
       style="fill:#1a1a18;fill-opacity:1;fill-rule:nonzero;stroke:none"
       d="m 218.7017,332.9359 c 0,0 -5.5616,0 -5.5616,0 0,0 0,-18.0825 0,-18.0825 0,0 -2.0698,-0.6783 -2.0698,-0.6783 0,0 0,18.7608 0,18.7608 0,0 -5.5616,0 -5.5616,0 0,0 0,1.8403 0,1.8403 0,0 13.193,0 13.193,0 0,0 0,-1.8403 0,-1.8403" /><path
       id="path212"
       style="fill:#1a1a18;fill-opacity:1;fill-rule:nonzero;stroke:none"
       d="m 331.1206,336.2434 c 0,0 -2.0741,0 -2.0741,0 0,0 0,15.209 0,15.209 0,0 2.0741,0.7064 2.0741,0.7064 0,0 0,-15.9154 0,-15.9154" /><path
       id="path214"
       style="fill:#1a1a18;fill-opacity:1;fill-rule:nonzero;stroke:none"
       d="m 325.798,350.3585 c 0,0 -3.7125,-14.11 -3.7125,-14.11 0,0 -2.3307,0 -2.3307,0 0,0 -3.259,9.0955 -3.259,9.0955 0,0 -3.2122,-9.0955 -3.2122,-9.0955 0,0 -2.2796,0 -2.2796,0 0,0 -2.2859,8.674 -2.2859,8.674 0,0 1.8491,0.6472 1.8491,0.6472 0,0 1.7124,-6.6977 1.7124,-6.6977 0,0 2.7264,8.0356 2.7264,8.0356 0,0 2.6084,0.8119 2.6084,0.8119 0,0 3.2377,-8.9728 3.2377,-8.9728 0,0 2.791,10.857 2.791,10.857 0,0 2.1549,0.7548 2.1549,0.7548" /><path
       id="path216"
       style="fill:#1a1a18;fill-opacity:1;fill-rule:nonzero;stroke:none"
       d="m 349.5682,336.2485 c 0,0 -14.1128,0 -14.1128,0 0,0 0,1.923 0,1.923 0,0 10.79,16.9087 10.79,16.9087 0,0 -10.79,-3.3925 -10.79,-3.3925 0,0 0,1.8402 0,1.8402 0,0 14.1355,4.6622 14.1355,4.6622 0,0 0,-1.8848 0,-1.8848 0,0 -11.8565,-18.2171 -11.8565,-18.2171 0,0 11.8338,0 11.8338,0 0,0 0,-1.8397 0,-1.8397" /><path
       id="path218"
       style="fill:#1a1a18;fill-opacity:1;fill-rule:nonzero;stroke:none"
       d="m 359.6743,350.6153 c 0,0 -1.6384,7.6417 -1.6384,7.6417 0,0 -1.707,-7.6417 -1.707,-7.6417 0,0 3.3454,0 3.3454,0 z m 5.4604,-14.3668 c 0,0 -2.2065,0 -2.2065,0 0,0 -2.8304,12.5898 -2.8304,12.5898 0,0 -4.146,0 -4.146,0 0,0 -2.808,-12.5898 -2.808,-12.5898 0,0 -2.1013,0 -2.1013,0 0,0 5.7665,24.169 5.7665,24.169 0,0 2.4883,0.7886 2.4883,0.7886 0,0 5.8374,-24.9576 5.8374,-24.9576" /><path
       id="path220"
       style="fill:#1a1a18;fill-opacity:1;fill-rule:nonzero;stroke:none"
       d="m 379.9987,336.2485 c 0,0 -2.687,0 -2.687,0 0,0 -5.2061,12.5708 -5.2061,12.5708 0,0 -2.916,0 -2.916,0 0,0 0,-12.5708 0,-12.5708 0,0 -2.0695,0 -2.0695,0 0,0 0,27.5491 0,27.5491 0,0 4.3545,1.5114 4.3545,1.5114 0.9156,0.3263 1.7113,0.3776 2.3514,0.3858 1.9916,0.0266 3.4095,-1.5009 3.6113,-4.1122 0.0689,-0.8793 0.2447,-4.2854 0.1228,-6.738 -0.0752,-1.5097 -0.3124,-3.1932 -1.0843,-4.0518 -0.629,-0.6996 -1.2529,-1.1248 -2.2422,-1.508 0,0 5.7651,-13.0363 5.7651,-13.0363 z m -4.4926,24.4392 c 0,0.4459 -0.1627,1.4323 -0.2832,1.7906 -0.2135,0.6381 -0.5797,0.7521 -0.942,0.9893 -0.3001,0.2018 -0.6732,0.1588 -1.0834,0.2359 -0.4311,-0.009 -1.2815,-0.2333 -1.9323,-0.4244 0,0 -2.0756,-0.8484 -2.0756,-0.8484 0,0 0,-11.8865 0,-11.8865 0,0 2.0912,0 2.0912,0 0.6542,0 1.2234,0.0572 1.7115,0.1692 0.4898,0.1123 0.9085,0.1993 1.2501,0.5131 0.3158,0.29 0.4456,0.6182 0.6837,0.9445 1.2453,1.7062 0.58,7.9308 0.58,8.5167" /><path
       id="path222"
       style="fill:#1a1a18;fill-opacity:1;fill-rule:nonzero;stroke:none"
       d="m 398.1509,337.3308 c -0.7083,-0.4425 -2.2209,-0.9185 -3.8911,-1.016 -0.8912,-0.0521 -6.8199,-0.0663 -8.2485,-0.0663 0,0 -3.93,0 -3.93,0 0,0 0,32.271 0,32.271 0,0 2.2646,0.707 3.8305,1.2875 2.0834,0.7727 3.4449,1.2047 4.6111,1.4434 2.1192,0.4329 3.4625,-0.6137 4.7903,-4.5329 0.4762,-1.4051 2.0029,-5.9238 3.0526,-11.2603 1.292,-6.5591 3.0152,-16.1093 -0.2149,-18.1264 z m -1.3566,16.336 c -0.4694,2.7494 -1.5653,7.2445 -2.374,9.87 -1.3323,4.3288 -1.7235,5.656 -3.3356,5.7342 -1,0.0482 -1.4513,-0.112 -3.2082,-0.6684 -1.4219,-0.4504 -3.7256,-1.3555 -3.7256,-1.3555 0,0 0,-29.2216 0,-29.2216 0,0 1.9443,0 1.9443,0 0.9964,0 6.6486,0.1438 7.4012,0.1438 3.1981,0 4.0757,1.7246 4.3186,2.7479 0.8011,3.3763 -0.3399,8.7585 -1.0207,12.7496" /></g></svg>