<svg xmlns="http://www.w3.org/2000/svg" viewBox="0 0 793.70667 1122.52" height="1122.52" width="793.707"><defs><clipPath id="a"><path d="M0 841.89h595.28V0H0z"/></clipPath></defs><path d="M0 503.613h793.708V280.445H0z"/><path d="M0 523.47l793.708 13.24v-43.462L0 470.516z" fill="#e10579"/><g clip-path="url(#a)" transform="matrix(1.33333 0 0 -1.33333 0 1122.52)"><path d="M320.756 542.49l-3.064-.42c.798 1.772 1.955.925 3.064.42m-174.56 2.813c-.812.072-1.655-.01-2.387.47.9.376 1.73.382 2.387-.47" fill="#fefefe" fill-rule="evenodd"/><path d="M91.12 531.607c.07.6.133 1.202.976 1.135-.063-.604-.399-.972-.976-1.135" fill="#f5cedf" fill-rule="evenodd"/><path d="M404.396 318.081l-187.589 84.397-187.588-84.397v313.475h375.177z" fill="#323439" fill-rule="evenodd"/><path d="M296.135 480.705c-2.675.058-4.238-1.272-5.131-3.774-.44-1.24-1.245-2.395-2.16-3.41v.002c-.27-2.651-2.191-4.555-3.322-6.783-.964-1.91-2.154-3.783-2.963-5.778-1.091-2.7-2.723-4.387-5.756-4.652-2.578-.228-5.151-.552-7.73-.808-2.041-.202-3.504.688-2.228 3.317 2.894 5.959 6.208 11.684 9.58 17.346 3.49 5.859 6.209 12.113 9.72 17.941.368.663.88 1.224 1.296 1.847.065.165.374.292.29.397-.166.2.13.07-.095-.115a11.214 11.214 0 0 0-1.28-1.502c-1.961-2.634-4.618-4.611-6.655-7.204-2.19-2.795-4.104-5.776-6.296-8.565-4.08-5.185-7.833-10.613-11.883-15.829-2.525-3.247-5.395-5.787-9.145-7.228-4.806-1.838-9.173.505-10.346 5.551-.894 3.848-.445 7.702.449 11.545 1.627 6.971 5.602 12.637 9.783 18.217.654.868 1.085 1.893 1.722 2.782.23.323.59.651.334 1.092-.29.497-.82.394-1.292.385-1.785-.035-3.328-.721-4.682-1.828-1.27-1.036-2.531-2.093-3.483-3.448-.49-.692-6.547-7.694-9.015-10.684-1.824-2.211-2.768-5-4.591-7.232-1.887-2.315-3.37-4.924-4.922-7.453-1.053-1.712-2.24-3.398-3.026-5.257-1.104-2.611-3.114-3.436-5.728-3.267-1.142.071-2.276.258-3.428.212l.03.013c-1.712-.26-3.337-1.083-5.16-.632-1.751.435-2.038.846-1.55 2.542.35 1.185.866 2.277 1.518 3.338 6.346 10.366 11.94 21.11 16.156 32.537.448 1.207.032 1.549-1.065 1.39-1.628-.234-2.914-1.158-4.005-2.314-4.212-4.473-8.068-9.229-11.653-14.233-2.577-3.598-5.404-7.043-7.728-10.804-1.677-2.719-3.817-5.109-5.31-7.95-1.186-2.26-2.71-3.456-5.73-3.636a73.84 73.84 0 0 1-8.243-.942c-1.016-.177-2.248-.631-2.982.574-.663 1.088-.11 2.102.44 3.074 2.169 3.79 4.729 7.363 6.768 11.2 3 5.644 7.023 10.721 9.309 16.745.8 2.113 2.37 3.801 3.056 5.977.39 1.229.005 1.543-1.093 1.352-1.304-.229-2.556-.754-3.44-1.707-3.042-3.276-6.144-6.483-8.782-10.141-4.525-6.282-8.675-12.874-14.111-18.458-3.696-3.793-7.841-6.956-13.041-8.48-1.058-.309-2.137-.322-3.202-.503-3.31-.08-6.563.23-9.681 1.444-6.321 3.027-7.531 8.787-7.913 15.13-1.336-.48-2.106-1.441-2.846-2.325a72.814 72.814 0 0 0-6.811-7.058c-3.935-3.583-8.406-6.305-13.835-6.959-3.595-.433-7.062.419-10.454 1.459-2.144.658-4.151 1.733-6.187 2.671-1.458.674-2.7.729-4.071-.015-3.357-1.826-6.872-3.248-10.664-3.886l.003.007a2.01 2.01 0 0 0-1.238-.661c-5.067-.716-10.105-.981-15.062.757-4.374 1.527-6.837 4.757-6.955 9.278-.067 2.59 2.852 6.229 5.969 7.468 2.34.931 4.779.839 7.22.743.367-.032.735-.065 1.103-.094.706.196 1.369.033 2.012-.26l2.41-.444c3.724-.786 7.384-1.751 10.74-3.623.872-.49 1.315.048 1.794.749 1.04 1.517 1.396 3.407 2.686 4.777l.005.004c.904 4.079 3.193 7.561 4.913 11.285.937 2.031.815 2.379-1.46 2.537-3.19.224-6.394.456-9.17 2.248-2.325 1.5-4.634 3.05-6.536 5.112-.766.832-1.206 1.798-1.43 2.882-.156.715-.72 1.166-1.121 1.72-4.404 8.083-4.62 16.157-.243 24.378 2.91 5.468 7.22 9.397 12.228 12.92 6.933 4.878 14.575 7.339 22.879 7.941 3.112.226 6.274-.03 9.268-1.168 1.207-.457 2.108-1.23 1.745-2.594-.37-1.388-1.496-1.535-2.798-1.281-3.05.597-6.12 1.084-9.251.829-4.295.249-8.174-1.277-11.922-3.032a23.152 23.152 0 0 1-7.565-5.66c-.425-.294-.621-.781-.976-1.136-3.18-3.078-5.39-6.809-7.113-10.83-2.493-5.817-3.772-11.801-2.202-18.141 1.263-5.102 5.336-9.038 10.55-9.795 2.095-.306 4.2-.331 6.283-.574 1.918-.224 2.726.968 3.203 2.213 1.56 4.073 3.168 8.1 5.282 11.935.528.958 1.01 2.02 1.442 3.059 1.913 4.593 4.739 8.673 7.183 12.967.298.525.52 1.095.779 1.644.686 1.634 1.803 3.019 2.793 4.45 3.65 5.295 7.878 10.069 13.312 13.646 3.278 2.158 6.666 3.94 10.774 3.585a.838.838 0 0 1 .404.008c.803-.123 1.677.14 2.387-.47l-.016.004c3.649-.216 7.518-5.147 7.675-9.068.246-6.26-2.161-11.426-5.445-16.475-3.487-5.362-7.904-9.84-12.4-14.321-5.49-5.479-11.792-9.775-18.45-13.63-.805-.466-1.423-1.028-1.697-1.942-1.13-3.8-2.88-7.361-4.682-10.849-1.841-3.565-4.265-6.825-7.036-9.774-1.293-1.375-2.285-3.021-4.01-4.03-.961-.56-.86-1.252.285-1.941 2.787-1.688 5.96-2.465 8.99-3.034 3.235-.607 6.677-.173 9.895 1.444 5.155 2.59 8.759 6.802 12.535 10.917 3.845 4.192 6.998 8.89 10.337 13.461 2.524 3.455 4.93 7.024 8.608 9.46 4.573 3.029 9.232 5.906 14.828 6.469 3.113.314 6.258-.072 9.205-1.193 2.904-1.102 3.927-3.814 4.365-6.491.524-3.195-.071-6.363-2.08-9.091-4.352-5.909-10.185-9.362-17.431-10.367-2.023-.282-4.058-.571-6.113-.554-.66.007-1.243-.104-1.532-.771-1.695-3.872-3.258-7.776-3.406-12.089-.046-1.424.8-1.762 1.95-1.76 5.528.02 10.41 1.853 14.759 5.227 5.19 4.021 9.1 9.122 12.787 14.493 4.44 6.471 9.302 12.637 14.759 18.306 1.993 2.072 4.463 3.396 7.174 4.118 2.275.606 4.298-.123 5.656-2.206l.022-.016c2.51-2.063 2.625-4.979 2.578-7.826-.04-2.636-.526-5.26-.673-7.913 1.5 2.158 3.177 4.106 4.798 6.078 2.886 3.515 5.476 7.35 9.464 9.802 2.406 1.48 4.889 2.722 7.872 2.15.91-.173 1.692-.525 2.3-1.227 1.73-2.007 2.702-4.338 3.019-6.968.423-3.508-.281-6.913-.85-10.333-.088-.51-.27-1.003-.308-1.522-.02-.272.094-.455.069-.182-.003.005.116.021.178.051.836 1.749 1.863 3.277 3.389 4.55 1.037.865 1.532 2.305 2.397 3.422 3.136 4.057 6.459 7.897 10.953 10.534 1.682.986 3.548 1.411 5.445 1.633 2.169.252 4.89-2.022 5.912-4.313 1.405-3.156 1.503-6.447 1.26-9.729-.125-1.697-1.132-3.294-1.543-5.018-1.456-6.078-5.574-10.779-8.5-16.099-.621-1.132-1.19-2.299-1.851-3.406-.704-1.172-.232-1.645.942-1.713 2.063-.12 3.708.754 5.056 2.242 2.002 2.212 3.94 4.476 5.738 6.863.209.275.427.531.739.687l-.007.004c1.448 2.469 3.14 4.782 4.946 6.983 4.576 5.58 8.327 11.765 13.039 17.278 3.069 3.587 5.698 7.638 8.515 11.487 3.18 4.347 6.702 8.427 9.81 12.83 1.254 1.78 2.164 3.751 3.277 5.61 2.613 4.382 4.732 9.045 7.335 13.443l.682.67c.943 2.579 2.127 3.152 5.232 2.542l.75-.142s2.023.442 3.064.421c.395-.032.786-.063 1.177-.096.449.222.947-.098 1.398.14.806.421 1.649.463 2.243-.259.62-.756.116-1.591-.241-2.299-1.63-3.223-3.553-6.29-5.143-9.535a92.197 92.197 0 0 0-4.433-7.992c-.982-1.581-2.033-3.144-2.955-4.76-1.031-1.814-1.85-3.742-2.958-5.534-2.74-4.427-4.842-9.203-7.311-13.782-.996-1.849-1.936-3.724-3.1-5.49-1.383-2.103-2.125-4.549-3.526-7.183 2.735.663 5.346.135 7.519 2.173 3.894 3.651 6.589 8.318 10.443 11.997 2.69 2.571 6.249 3.125 9.103 1.062 2.02-1.463 3.153-3.485 2.993-6.082l-.015.021c.43-3.77-2.322-7.185-5.801-7.259-1.072-.024-1.84.392-2.421 1.231-1.168 1.681-2.38 3.342-2.045 5.586.096.624-.292 1.172-.386 2.02-1.907-1.51-3.195-3.326-4.495-5.074a53.263 53.263 0 0 0-4.346-5.152c-1.013-1.056-1.238-1.876.004-2.847.483-.375.927-.816 1.01-1.482l-.001.005c1.62-1.112 2.115-2.834 2.27-4.617.297-3.599.33-7.054-1.581-10.486-1.18-2.115-1.901-4.713-2.29-7.766 3.533 1.781 6.542 3.332 8.943 6.122 5.835 6.776 10.594 14.349 16.142 21.332 2.106 2.652 3.876 5.556 6.42 7.881 8.55 6.418 14.18 7.283 14.177 7.401 1.842 1.265 3.992.911 5.94.778 2.799-.188 5.766-.521 7.583-3.218 1.513-2.243 2.565-4.574 2.076-7.445-.775-4.516-2.958-7.943-6.557-10.876-5.244-4.277-11.118-6.167-17.735-6.126-1.53.01-2.254-.635-2.9-2.005-1.446-3.06-2.112-6.303-2.76-9.57-.377-1.891 0-2.448 1.9-2.849 2.739-.574 5.31.192 7.777 1.201 4.018 1.646 7.712 3.999 10.634 7.134 1.853 1.989 3.656 4.175 5.104 6.557.604.996 1.36 1.884 2.182 2.702.493.491 1.089.897 1.8.325.632-.51.676-1.234.372-1.861-.533-1.099-1.137-2.18-2.001-3.076-.861-.894-1.33-2.06-2.065-3.038l.007-.005c-.858-2.429-2.898-3.936-4.627-5.6-2.474-2.378-5.006-4.746-8.087-6.393-4.858-2.598-10.037-3.832-15.305-2.007-4.333 1.497-7.344 4.659-8.353 9.45-.492 2.326-.887 4.648-1.006 7.301-1.481-.863-2.18-2.119-2.927-3.233-1.55-2.311-3.321-4.475-5.003-6.66-1.59-2.054-3.477-4.225-6.234-5.063l-.002.014c-1.184-1.333-2.598-2.083-4.444-2.151-.785-.029-1.605-.158-2.408-.243-6.897-.758-11.815 3.43-10.02 10.731 1.07 4.335 3.044 8.433 5.437 12.262.44.705.765 1.431.785 2.488" fill="#d9386c" fill-rule="evenodd"/><path d="M117.607 495.417c-.583 2.303.604 3.93 1.07 5.558 1.554 5.424 3.003 10.885 4.872 16.242 1.58 4.529 3.1 9.05 5.282 13.306 2.711 5.28 6.147 9.885 12.178 11.805 2.25.715 6.334-.532 7.651-2.453.507-.734.453-1.566.3-2.332-.736-3.727-2.052-7.254-3.485-10.781-2.128-5.242-5.015-9.998-8.347-14.501-3.506-4.746-7.579-8.971-12.558-12.237-2.255-1.48-4.502-2.978-6.963-4.607m-54.535-32.559c-1.225 1.97-.71 3.902 1.448 5.177 4.264 2.517 8.815 2.526 13.377 1.174 2.88-.854 5.643-2.113 8.458-3.196 1.4-.538 1.368-1.156.481-2.37-4.588-6.27-17.449-6.764-22.755-1.866-.277.416-.99.422-1.009 1.08m92.195 15.233c-1.306-.624-1.595-.377-1.16 1.08.813 2.755 2.61 4.968 3.838 7.47 1.877 3.82 4.5 6.916 7.53 9.772 1.278 1.205 2.988 1.511 4.563 1.783 2.2.38 3.932-1.939 3.127-4.044-2.942-7.669-8.199-12.98-16.106-15.518-.462-.629-1.233-.242-1.792-.544m203.339 20.656c2.081-.308 3.291-2.378 2.42-4.638-2.124-5.495-5.605-9.842-10.71-13.018-2.108-1.312-4.565-1.394-6.58-2.72-.385-.253-.96-.249-1.303.183-.287.362-.067.773.092 1.153 1.805 4.313 3.944 8.465 6.65 12.269 1.386 1.948 2.964 3.952 4.912 5.237 1.181.778 2.664 2.121 4.52 1.534" fill="#323439" fill-rule="evenodd"/><path d="M79.181 498.942c-.67.253-1.272.555-1.01 1.456.5-.372 1.163-.633 1.01-1.456" fill="#e481a4" fill-rule="evenodd"/><path d="M258.666 561.946c-2.603 1.227-2.553 3.466-1.582 5.488.952 1.991.52 4.296 1.802 6.136.247.353.125.957-.274 1.16-2.877 1.458-1.3 3.742-.859 5.58.434 1.804.552 4.171 3.446 4.279.94.037 1.036 1.226 1.253 2.047 1.068 4.046 2.276 8.046 4.15 11.81.188.378.192.877.443 1.189.421.521 6.626-.14 7.49-.906 1.224-1.088 1.208-2.61.798-4.041-.77-2.692-1.689-5.342-2.495-8.023-.117-.396-.705-.743-.077-1.329.867-.81 5.04-.509 5.653.525 1.723 2.911 1.935 6.294 2.881 9.441 1.351 4.506 5.575 5.828 9.255 2.69 1.198-1.016 1.143-2.218.802-3.501-2.144-8.05-4.279-16.103-6.487-24.138-.653-2.378-1.457-4.721-2.316-7.032-.549-1.476-3.714-2.411-5.924-1.902-3.726.857-4.203 1.709-3.135 5.416.69 2.382 1.235 4.804 2.26 7.083.33.743.368 1.785-.242 2.142-.94.551-.779-.75-1.199-1.081-1.049-.832-2.417-.975-3.66-.663-1.165.291-1.35-.129-1.643-1.112-.996-3.35-1.737-6.767-2.98-10.056-.72-1.904-1.73-2.515-3.454-1.723-.905.416-1.6.359-2.376-.086-.58.027-1.18 0-1.53.607m107.436-1.607c-3.117.084-6.181.633-9.365.25-5.335-.641-8.276 3.776-7.753 7.714.158 1.19.44 2.344.96 3.452.412.876.486 1.872.032 2.757-1.93 3.763-.933 7.298 2.654 9.664 1.72 1.137 2.158 2.985 2.285 4.929.054.81-.414.742-.968.694-1.836-.151-2.06 1-1.64 2.326.797 2.525.736 5.472 3.308 7.187l-.022-.008c2.614.269 5.175.776 7.85.757 4.218-.027 8.413-.368 12.619-.502 2.528-.08 3.11-.93 2.723-3.4-.511-1.847-1.023-3.697-1.537-5.545-.437-.78-.887-1.544-1.823-1.822l-.016-.007c-1.24-.228-2.4.11-3.556.489-.755.429-1.43-.25-2.161-.152-2.066-.66-4.152-.271-6.182-.162 1.604-1.457 1.609-1.473 1.432-4.08 2.19-.338 4.379-.731 6.608-.803a.434.434 0 0 1 .346-.007c3.062-.986 3.39-1.605 2.555-4.848a15.574 15.574 0 0 0-1.535-3.812c-.797-1.405-1.911-2.163-3.602-1.872-1.933.333-3.902-.45-5.866.328-1.12.444-1.933-.425-2.43-1.42-.448-.901-.225-1.572.864-1.567 1.38.004 2.736-.264 4.11-.245 4.788.065 6.284-1.888 4.872-6.426-.467-1.492-1.138-2.893-2.7-3.591-.687-.093-1.374-.187-2.062-.278m-246.444 39.708s.162-.103.261-.04c4.302-1.703 4.615-2.613 4.563-7.37-.079-6.79-.063-13.584.002-20.376.022-2.421-.269-4.82-.526-7.213-.328-3.027-1.697-4.075-4.664-3.877-.259.017-.514.06-.774.084-4.738.382-5.793 1.659-5.388 6.528.08.94.317 1.87.171 2.875-3.654.052-5.639-2.011-7.04-5.136-.794-1.777-1.292-4.087-3.976-4.156-1.513.605-3.302.206-4.677 1.302-3.174 1.39-3.529 2.19-2.16 5.328.462 1.055.805 2.054.582 3.232-.547 2.858.408 5.416 1.69 7.904.578 1.124 1.263 1.962 2.668 2.127 1.44.169 2.087 1.38 2.726 2.53 2.433 4.372 4.733 8.813 7.353 13.084 2.014 3.283 6.894 3.326 6.894 3.326zm115.92-39.059c-5.494 2.313-7.077 6.879-6.969 12.322.163 8.151 2.294 15.586 7.931 21.797 4.244 4.677 9.915 6.278 15.764 4.184 2.574-.921 4.566-5.287 3.949-8.66-.829-4.536-4.581-6.555-8.875-4.735-.884.377-1.785.864-.969 2.121.606.934.394 2.032-.432 2.494-.975.549-1.446-.707-1.955-1.263-1.226-1.341-2.003-3.001-2.584-4.715-1.174-3.473-2.607-6.907-2.383-10.682.04-.652-.362-1.683.806-1.902.992-.186 1.875.477 2.099 1.149 1.128 3.371 4.075 3.816 6.858 4.392 2.776.575 3.72-.809 3.358-3.607-.623-4.836-3.267-8.313-6.829-11.263-.621-.511-1.47-.821-2.392-.875-1.383-.802-4.402-1.267-4.402-1.267l-2.975.51m-26.812.074c-2.235-.657-4.444.226-6.67.252-1.873.024-3.022 1.883-3.157 3.85-.192 2.77.886 5.366 1.388 8.04.05.263.391.535.665.683 2.014 1.101 4.26.906 6.423.971 1.063.03 1.584-.954 1.56-2.01-.026-1.12.426-1.654 1.55-1.434 1.057.21 1.498.71 1.306 1.97-.546 3.58-2.576 6.507-4.52 9.263-2.96 4.187-1.84 9.271 1.137 12.427 2.828 2.993 6.42 4.542 10.415 5.261a.443.443 0 0 1 .44.078c1.108-.352 2.243-.208 3.323.02 2.316.488 4.166-.596 6.074-1.567.647-.327.786-.819.686-1.493-.296-2.01-.517-4.036-.86-6.04-.16-.936-.637-1.55-1.69-2-1.884-.806-3.806-.838-5.746-.932-.552-.025-1.249.004-1.52.724-.272.727-.263 1.93-1.548 1.161-.96-.576-1.925-1.33-1.198-2.682.876-1.634 1.898-3.192 2.726-4.848 1.592-3.177 2.997-6.24 2.847-10.124-.226-5.78-4.83-10.88-10.942-10.977-.96-.016-1.875-.01-2.689-.593m95.559-.052c-1.265.474-2.538.124-3.823.507-4.627 1.381-7.085 4.741-7.803 9.14-.563 3.457.55 6.941 1.428 10.362 1.07 4.157 2.298 8.277 2.902 12.554.223 1.56.884 3.072 1.452 4.565.593 1.548 1.71 2.243 3.437 1.89 1.76-.36 3.608.24 5.305-1.119 1.173-.94 1.504-1.814 1.101-3.034-2.33-7.095-3.45-14.49-5.44-21.67-.337-1.214.304-2.22 1.314-2.472 1.085-.272 2.451-.236 3.028 1.192 1.055 2.616 2.167 5.211 2.788 7.987 1.15 5.143 2.523 10.228 4.406 15.157 1.286 3.374 2.127 3.791 5.752 3.25 3.852-.573 4.256-1.374 3.475-5.162-1.617-7.846-3.918-15.51-6.319-23.125-1.017-3.23-3.004-6.029-6.139-8.209-2.347-1.63-4.368-2.065-6.864-1.814m36.64-.219c-4.086-.035-8.185-.528-12.234.573-.654.179-1.195.26-1.78.72-3.377 2.649-4.66 7.165-3.364 11.372 1.574 5.125 2.763 10.373 4.494 15.44.958 2.799 1.485 5.702 2.493 8.466.296.813.843 1.294 1.73 1.709 2.463 1.149 4.739-.023 6.969-.478 1.533-.317 1.84-2.117 1.35-3.73-1.426-4.703-2.712-9.452-4.317-14.093-.877-2.54-1.19-5.158-1.755-7.74-.466-2.12 1.169-2.077 2.38-1.955 2.16.218 4.282.33 6.427-.097 1.38-.28 2.022-1.018 1.569-2.368-.596-1.767-.922-3.605-1.636-5.353-.502-1.23-1.256-1.933-2.337-2.474zm-160.808 8.75c-.282.48-.527 1.255-1.232 1.132-.715-.125-.639-.913-.787-1.49a474.958 474.958 0 0 0-1.634-6.11c-.35-1.28-1.085-2.343-2.529-1.973-1.334.34-2.695.298-3.997.597-3.419.78-4.045 2.572-2.718 6.286 1.575 4.408 3.042 8.868 3.755 13.523.275 1.799 1.704 3.12 1.894 4.986.151 1.502.327 2.484-1.806 2.293-1.584-.14-2.712.503-2.14 2.679 1.74 6.612 4.028 8.379 11.234 8.768 4.696.255 9.114.217 13.284-2.682 2.991-2.084 4.873-4.698 4.864-8.058-.012-4.973-1.779-9.37-6.303-12.245-.956-.61-1.596-1.646-2.837-1.981-.517-.141-.866-.656-.176-1.564 2.444-3.21 3.64-7.19 6.185-10.384.627-.792.73-1.773-.339-2.704-1.647-1.427-3.689-2.044-5.559-2.964-.96-.474-2.043.396-2.819 1.288m-40.05 27.227c1.313-.774 3.226-1.11 4.72-.825 1.331.253 1.45 2.19 1.82 3.438.903 3.053 1.546 6.183 2.35 9.266.481 1.85 1.874 2.216 3.621 2.306 3.997.202 6.157-2.185 5.435-6.023-1.825-9.67-5.339-18.893-7.59-28.455-.28-1.188-.058-3.322-1.959-4.001-2.179-.618-4.29.066-6.368.485-1.599.322-2.607 1.144-2.009 3.307.974 3.495 1.592 7.09 2.972 10.953-1.875-1.041-3.409-1.62-5.209-1.573-2.236.056-2.409-2.221-2.716-3.56-.429-1.884-.922-3.774-1.34-5.667-.666-3.018-2.286-4.154-5.363-3.794-1.347.159-2.699.579-3.957 1.104-1.084.456-1.49 1.584-1.016 2.618.948 2.07.795 4.397 1.767 6.469.576 1.222.902 2.666-.683 3.652-.455.284-.587.849-.458 1.396.74 3.13.285 6.74 4.09 8.538 1.266.6 1.824 2.352 2.014 3.757.44 3.267 2.483 6.01 2.823 9.298.056.554.765 1.04 1.171 1.559 1.736-.11 3.473-.217 5.21-.328 4.565-2.602 3.64-2.107 1.64-9.331" fill="#65a5b9" fill-rule="evenodd"/><path d="M114.993 580.37c-.561.065-1.12.13-1.686.19.418 1.978.839 3.953 1.377 6.49 1.517-2.684.143-4.67.309-6.68" fill="#323439" fill-rule="evenodd"/><path d="M73.49 561.855c-1.603-.01-2.931.874-4.322 1.452-1.62.675-2.12 2.057-1.55 3.794.685 2.089 1.348 4.19 1.927 6.313.173.633.256 1.442.014 2.018-1.617 3.832-.97 7.074 2.388 9.619 1.156.874 1.688 2.03 2.265 3.307.863 1.909.414 2.89-1.572 3.207-.968.156-1.66.33-1.278 1.579.447 1.46.578 3.05 1.228 4.402.973 2.02 2.25 3.003 5.068 3.112 4.742.183 9.42-.64 14.152-.303 1.592.112 4.899-.525 4.899-1.36 0-.835-.77-3.961-1.362-5.876-.751-2.42-2.393-2.905-4.77-2.325-2.281.557-4.698.69-7.06.723-1.273.017-.995-1.182-.321-1.558 1.28-.711 1.25-1.462.937-2.733-.528-2.133 1.254-2.27 2.55-2.074 1.816.275 3.425.209 5.059-.693.406-.226.895-.091 1.038-.766 1.115-5.187-2.378-8.918-7.446-7.92-2.75.54-4.587-.582-5.338-3.303-.497-1.802-.938-3.62-1.416-5.43-.712-2.688-1.946-4.876-5.09-5.185" fill="#65a5b9" fill-rule="evenodd"/><path d="M180.695 590.427c2.682 1.007 5.252.547 6.83-1.483.738-.951.872-2.178.078-3.346-.988-1.46-2.556-2.217-3.84-3.317-.417-.356-1.052-.253-1.456.077-.55.454-.29 1.043-.104 1.64 1.265 4.01 1.253 4.015-1.508 6.429" fill="#323439" fill-rule="evenodd"/><path d="M65.147 411.179c0 .078-.04.253-.117.525-.078.274-.147.41-.208.41-.199 0-.752-.574-1.657-1.72-.905-1.147-1.358-1.858-1.358-2.135 0-.156.03-.27.091-.344.061-.074.152-.111.273-.111.573 0 1.2.318 1.885.955.684.635 1.026 1.234 1.026 1.797.027.242.048.45.066.623m-3.927 7.515c.078.087.148.174.208.266l.208.305.923.648c.216.156.533.446.95.87.414.424.926.986 1.533 1.687a.63.63 0 0 0 .272.195c.114.043.239.065.378.065.71 0 1.241-.25 1.591-.746.351-.498.527-1.236.527-2.213 0-.822-.317-1.625-.949-2.408-.631-.784-.947-1.326-.947-1.628 0-.226.024-.392.076-.5.053-.11.127-.162.222-.162l.09.012c.114.087.244.182.39.285.148.105.317.226.508.365.182.285.567.657 1.156 1.116.156.139.38.359.676.662.295.303.646.695 1.053 1.18l.52-1.194a36.06 36.06 0 0 0-1.007-.895c-.413-.355-.89-.761-1.437-1.22a29.89 29.89 0 0 0-.363-.357 7.442 7.442 0 0 0-.547-.473 5.513 5.513 0 0 1-.532-.468 12.216 12.216 0 0 1-.13-.325c0-.12.101-.43.305-.928.204-.497.306-.935.306-1.316 0-.71-.208-1.396-.624-2.058-.416-.661-1.04-1.296-1.871-1.901-.52-.381-1.016-.664-1.488-.85a3.694 3.694 0 0 0-1.345-.28c-.494 0-.864.116-1.111.345-.247.23-.37.578-.37 1.045 0 .285.087.617.259.992.174.377.429.803.767 1.279.208.285.472.61.793.973.32.363.697.775 1.13 1.233.356.363.616.648.78.85.165.204.247.33.247.384 0 .043-.05.242-.15.596-.1.355-.15.615-.15.779 0 .545.285 1.233.852 2.064.568.83.852 1.405.852 1.726 0 .112-.026.235-.08.37-.05.134-.111.3-.18.5-.104.215-.206.37-.306.466a.456.456 0 0 1-.318.143c-.07 0-.18-.04-.332-.117a3.529 3.529 0 0 1-.54-.363 8.546 8.546 0 0 1-.43-.41 2.826 2.826 0 0 1-.271-.317 3.112 3.112 0 0 0-.273-.26 6.51 6.51 0 0 0-.534-.402 2.795 2.795 0 0 1-.247-.246c-.13-.14-.303-.324-.52-.56z" fill="#f6f6f6"/><path d="M74.213 422.911c-.19 0-.446-.249-.766-.746-.32-.498-.48-.863-.48-1.097 0-.052.011-.089.032-.11.022-.022.067-.033.137-.033.095 0 .173.05.233.15l.17.28c.094.085.187.178.278.278.091.1.18.196.266.292.104.121.182.242.234.363a.914.914 0 0 1 .078.364c0 .077-.015.14-.046.188a.153.153 0 0 1-.136.071m-4.153-4.218c.104.182.238.365.402.552.165.186.372.378.623.577l.078.513c.026.17.043.34.052.513.026.121.067.263.123.428.056.164.12.342.188.532.078.19.184.428.318.714.134.285.31.605.526.96.181.2.372.417.571.656.2.237.398.478.597.72.095.078.2.151.311.22.113.07.225.147.338.234.104.035.22.065.35.091.13.026.273.04.428.04.217 0 .392-.023.526-.066a.709.709 0 0 0 .331-.22c.06-.07.12-.174.175-.312a4.28 4.28 0 0 0 .163-.506c.026-.174.056-.364.091-.572 0 .053-.016.031-.046-.064a16.942 16.942 0 0 1-.136-.455l-.117-.415c-.12-.415-.394-.895-.818-1.44-.424-.545-.995-1.169-1.713-1.869a.806.806 0 0 1-.156-.227.677.677 0 0 1-.065-.292c0-.182.033-.342.098-.48a.68.68 0 0 1 .28-.312c.068-.052.178-.104.33-.156a4.47 4.47 0 0 1 .538-.142c.338.025.645.082.922.168.277.086.523.19.74.311.043.027.112.064.208.111.094.048.19.11.285.188l.3-.675a8.99 8.99 0 0 0 .206-.519c-.493-.484-.94-.85-1.343-1.097s-.773-.37-1.11-.37a1.492 1.492 0 0 0-.474-.187 2.956 2.956 0 0 0-.629-.059c-.32 0-.604.047-.85.143a1.575 1.575 0 0 0-.616.416 1.47 1.47 0 0 0-.26.382c-.087.168-.177.37-.273.604-.078.19-.15.33-.22.422-.07.09-.148.136-.234.136-.07 0-.147-.033-.234-.098a1.693 1.693 0 0 1-.285-.292c-.035.13-.095.29-.182.48-.086.19-.199.428-.337.714" fill="#f6f6f6"/><path d="M76.588 418.693c.139.182.277.372.416.571.63.52 1.148 1.02 1.55 1.5.403.48.695.927.876 1.342l-.13.623c.113.216.392.472.838.766.445.294.806.441 1.083.441.294 0 .543-.086.746-.26.204-.172.4-.354.59-.545.096-.06.165-.108.209-.142.346-.26.605-.619.779-1.078.172-.458.259-1.016.259-1.674 0-.346-.134-.842-.403-1.486-.268-.645-.402-1.13-.402-1.459a.13.13 0 0 1 .046-.105.181.181 0 0 1 .123-.038c.112 0 .247.05.402.148.156.1.325.237.507.41.458.45.735.698.83.746.095.048.212.128.35.24.07-.173.152-.359.247-.558.095-.199.186-.412.273-.636a12.96 12.96 0 0 1-.266-.246 10.9 10.9 0 0 0-.357-.325 25.83 25.83 0 0 0-1.15-.785 63.28 63.28 0 0 0-1.692-1.058 2.347 2.347 0 0 0-.598-.273c-.363 0-.635.054-.817.163-.182.108-.273.283-.273.526 0 .094.02.205.059.33.039.126.092.261.162.41.052.111.108.226.169.344.06.116.112.234.156.355.189.546.335 1.052.434 1.52.1.466.15.886.15 1.258 0 .46-.072.81-.215 1.051a.823.823 0 0 1-.642.416 3.823 3.823 0 0 1-.623-.442 5.38 5.38 0 0 1-.688-.714 10.003 10.003 0 0 0-.675-.765c-.2-.199-.363-.334-.493-.402a2.216 2.216 0 0 0-.376-.44 5.29 5.29 0 0 0-.688-.534l-.078-.155a1.084 1.084 0 0 0-.17-.234 7.603 7.603 0 0 1-.232.59c-.087.195-.182.396-.286.604" fill="#f6f6f6"/><path d="M85.245 418.693l.052.104c.052.07.119.155.2.26.083.104.18.225.293.363a14.669 14.669 0 0 1 1.798 2.044 25.174 25.174 0 0 1 1.732 2.732c.07.095.147.22.234.376.087.156.182.35.285.584 0 .052-.012.091-.038.117-.027.026-.07.04-.13.04a1.14 1.14 0 0 1-.254-.047 1.162 1.162 0 0 0-.265-.045h-1.623c-.07 0-.184.004-.344.013-.16.008-.274.013-.344.013-.086.043-.166.08-.24.11-.073.03-.145.063-.214.098a.592.592 0 0 0-.24.136.274.274 0 0 0-.084.201c0 .554.058.978.175 1.272.117.294.297.441.539.441.242 0 .47-.01.682-.032.212-.022.4-.05.565-.085.13.026.25.052.364.078.233 0 .432-.008.597-.026a2.3 2.3 0 0 0 .377-.064c.112.025.223.05.33.071l.358.071.429-.13c.303.035.626.46.968 1.272.342.813.709 1.22 1.098 1.22.208 0 .368-.064.48-.194.113-.13.169-.32.169-.572 0-.199-.058-.46-.175-.785-.118-.324-.185-.569-.202-.733a.688.688 0 0 1 .07-.11 1.04 1.04 0 0 1 .134-.137c.052-.034.088-.093.109-.175a1.25 1.25 0 0 0 .032-.305c0-.519-.024-.919-.071-1.2-.048-.282-.123-.427-.227-.435l-.88-.182-.064-.317a10.232 10.232 0 0 0-.104-.436 27.88 27.88 0 0 1-.495-1.648c-.182-.666-.386-1.453-.611-2.362a71.931 71.931 0 0 1-.32-1.765c-.073-.449-.11-.752-.11-.908 0-.139.022-.242.066-.312a.213.213 0 0 1 .194-.104c.052 0 .24.126.565.377.324.251.776.623 1.356 1.116l.506-1.194a3.67 3.67 0 0 0-.363-.338 7.257 7.257 0 0 0-.558-.414 4.769 4.769 0 0 0-.325-.319 13.203 13.203 0 0 1-.428-.409c-.156-.173-.31-.347-.461-.518a14.975 14.975 0 0 0-.461-.506 2.193 2.193 0 0 0-.61-.488 1.269 1.269 0 0 0-.558-.149c-.38 0-.664.113-.85.338-.186.225-.28.566-.28 1.025 0 .501.019.936.053 1.304.035.368.09.664.169.89.035.068.06.13.078.181 0 .086.013.203.039.35.026.147.057.32.09.52.053.337.109.674.17 1.012.095.207.195.428.299.662 0 .043-.035.082-.104.116l-.13-.078a4.801 4.801 0 0 0-.506-.655 9.178 9.178 0 0 0-.74-.72 256.6 256.6 0 0 0-1.35-1.285 2.173 2.173 0 0 0-.143-.195 4.414 4.414 0 0 1-.234-.324l-.162.396c-.065.16-.132.344-.201.551a.669.669 0 0 1-.065.143.357.357 0 0 1-.091.104" fill="#f6f6f6"/><path d="M97.86 428.933c.215 0 .374-.043.473-.13.1-.086.15-.212.15-.376a60.683 60.683 0 0 1-.13-.61 17.569 17.569 0 0 0-.228-.766 8.37 8.37 0 0 0-.149-.428 1.628 1.628 0 0 0-.318-.5 2.224 2.224 0 0 0-.486-.383 2.937 2.937 0 0 0-.5-.292c-.135-.056-.228-.08-.279-.071-.148.017-.288.033-.422.045-.134.013-.266.02-.396.02-.112.06-.2.177-.266.35-.065.173-.097.407-.097.701 0 .26.157.586.473.98.316.394.595.604.838.629.147.182.32.39.52.623.085.061.197.111.336.149.138.039.298.059.48.059m-5.425-10.24l.078.091.04.13c.233.319.643.737 1.232 1.252.588.515.995.933 1.22 1.252a.811.811 0 0 0 .298.299.704.704 0 0 0 .338.091c.302 0 .558-.076.766-.227.207-.152.346-.379.415-.682.06-.268.117-.538.17-.811.051-.273.094-.547.128-.823.061-.174.135-.436.221-.786.086-.35.151-.551.195-.603a.39.39 0 0 1 .195-.189.786.786 0 0 1 .324-.058c.156 0 .316.028.48.085.164.055.333.152.506.291.13.113.266.227.41.344l.421.344.52-1.194a5.746 5.746 0 0 0-.553-.474 39.698 39.698 0 0 0-.824-.616 6.68 6.68 0 0 0-.908-.578c-.25-.125-.44-.188-.57-.188-.789 0-1.299.091-1.532.273-.234.182-.494.687-.779 1.518a1.966 1.966 0 0 1-.156.247c-.069.095-.148.208-.234.337-.103.2-.194.348-.272.448-.078.099-.143.149-.195.149-.138 0-.324-.093-.558-.278a7.921 7.921 0 0 1-.857-.838c-.043.112-.097.246-.162.402a8.272 8.272 0 0 0-.2.545.669.669 0 0 1-.066.143.345.345 0 0 1-.09.104" fill="#f6f6f6"/><path d="M104.972 427.414c-.052 0-.089-.032-.11-.097a22.699 22.699 0 0 0-.098-.279 1.621 1.621 0 0 0-.09-.35 24.582 24.582 0 0 0-.208-.558 5.842 5.842 0 0 1-.162-.5 1.344 1.344 0 0 1-.059-.344l.091-.104.195.194c.008.13.043.274.103.43.061.155.143.333.247.532.086.18.151.336.195.466.043.13.064.238.064.325a.453.453 0 0 1-.039.22c-.025.044-.069.065-.129.065m-5.114-8.72c.035.06.08.127.136.2.057.073.124.162.202.267.207.302.38.564.52.784.137.221.237.391.298.513.121.225.218.458.291.701.074.242.132.493.176.752.173 1.237.475 2.565.908 3.984a54.005 54.005 0 0 0 1.648 4.582c.243.571.502 1.001.78 1.291.276.29.561.435.856.435.224 0 .406-.045.545-.136.138-.09.23-.236.272-.435a2.84 2.84 0 0 0 .045-.402c.014-.19.02-.437.02-.74 0-.069-.069-.688-.208-1.856-.138-.58-.333-1.3-.583-2.16a94.872 94.872 0 0 0-.935-2.992 9.704 9.704 0 0 1-.298-.597 51.892 51.892 0 0 0-.416-.87 2.338 2.338 0 0 1-.084-.24 3.25 3.25 0 0 0-.123-.33 1.296 1.296 0 0 1-.202-.3 10.109 10.109 0 0 1-.253-.519 16.195 16.195 0 0 1-.447-1.83 37.135 37.135 0 0 1-.396-2.608 56.753 56.753 0 0 1-.273-2.524c-.06-.74-.09-1.382-.09-1.927.008-.208.025-.424.051-.65.026-.268.054-.473.085-.616.03-.142.071-.215.123-.215.121 0 .31.268.565.8.255.53.586 1.33.992 2.395l-.039.258c.035.08.085.178.15.298.065.122.118.278.162.468.216.691.376 1.231.48 1.615.104.386.17.605.195.658.121.345.28.682.473 1.01.195.329.413.642.656.936.13-.26.233-.49.311-.69.078-.199.147-.367.208-.506a3.234 3.234 0 0 1-.35-.588 4.125 4.125 0 0 1-.273-.786 8.17 8.17 0 0 1-.2-.746 21.56 21.56 0 0 0-.177-.734c-.432-1.652-.856-3.025-1.27-4.12-.417-1.095-.81-1.91-1.182-2.446a2.921 2.921 0 0 0-.214-.338 8.682 8.682 0 0 1-.228-.325 1.344 1.344 0 0 0-.324-.265.692.692 0 0 0-.35-.098c-.372 0-.669.082-.89.246-.22.164-.374.412-.46.74-.043.277-.08.55-.11.824a48.54 48.54 0 0 1-.098.81 3.66 3.66 0 0 0-.117.54 4.48 4.48 0 0 0-.039.617v1.973c0 .095.02.242.06.44.038.2.057.35.057.454-.052.26-.104.523-.155.792.026.302.071.683.136 1.141.065.46.144.983.24 1.571l-.338.299a4.462 4.462 0 0 1-.18.467c-.088.199-.2.442-.339.728" fill="#f6f6f6"/><path d="M111.552 428.933c.216 0 .375-.043.474-.13.099-.086.149-.212.149-.376l-.13-.61a17.569 17.569 0 0 0-.227-.766 8.37 8.37 0 0 0-.15-.428 1.628 1.628 0 0 0-.317-.5 2.224 2.224 0 0 0-.486-.383 2.937 2.937 0 0 0-.5-.292c-.135-.056-.228-.08-.28-.071-.147.017-.287.033-.421.045-.134.013-.266.02-.396.02-.112.06-.201.177-.266.35s-.097.407-.097.701c0 .26.157.586.473.98.316.394.595.604.838.629.147.182.319.39.519.623.086.061.198.111.337.149.138.039.298.059.48.059m-5.425-10.24l.078.091.039.13c.234.319.644.737 1.233 1.252.588.515.995.933 1.22 1.252a.811.811 0 0 0 .298.299.704.704 0 0 0 .338.091c.302 0 .558-.076.766-.227.207-.152.346-.379.415-.682.06-.268.117-.538.169-.811.052-.273.095-.547.129-.823a9.26 9.26 0 0 0 .22-.786c.087-.35.152-.551.196-.603a.39.39 0 0 1 .195-.189.786.786 0 0 1 .324-.058c.156 0 .316.028.48.085.164.055.333.152.506.291.13.113.266.227.409.344l.422.344.519-1.194a5.746 5.746 0 0 0-.552-.474 39.698 39.698 0 0 0-.824-.616 6.68 6.68 0 0 0-.908-.578c-.251-.125-.441-.188-.571-.188-.788 0-1.298.091-1.531.273-.234.182-.494.687-.78 1.518a1.966 1.966 0 0 1-.155.247c-.07.095-.148.208-.234.337-.103.2-.194.348-.272.448-.078.099-.143.149-.195.149-.138 0-.324-.093-.558-.278a7.921 7.921 0 0 1-.857-.838c-.043.112-.097.246-.162.402a8.272 8.272 0 0 0-.201.545.669.669 0 0 1-.065.143.345.345 0 0 1-.091.104" fill="#f6f6f6"/><path d="M117.476 411.179c0 .078-.04.253-.117.525-.078.274-.147.41-.208.41-.199 0-.752-.574-1.657-1.72-.905-1.147-1.358-1.858-1.358-2.135 0-.156.03-.27.091-.344.061-.074.152-.111.273-.111.572 0 1.2.318 1.884.955.685.635 1.027 1.234 1.027 1.797l.065.623m-3.926 7.515c.078.087.148.174.208.266l.208.305.923.648c.216.156.533.446.95.87.414.424.926.986 1.533 1.687a.63.63 0 0 0 .272.195c.113.043.238.065.377.065.711 0 1.242-.25 1.592-.746.351-.498.527-1.236.527-2.213 0-.822-.317-1.625-.949-2.408-.632-.784-.948-1.326-.948-1.628 0-.226.025-.392.077-.5.052-.11.126-.162.221-.162l.091.012c.113.087.243.182.39.285.147.105.316.226.507.365.182.285.567.657 1.156 1.116.156.139.381.359.676.662.295.303.646.695 1.053 1.18l.52-1.194a36.06 36.06 0 0 0-1.007-.895c-.412-.355-.89-.761-1.436-1.22a29.89 29.89 0 0 0-.364-.357 7.442 7.442 0 0 0-.546-.473 5.513 5.513 0 0 1-.533-.468 12.216 12.216 0 0 1-.13-.325c0-.12.102-.43.306-.928.203-.497.305-.935.305-1.316 0-.71-.208-1.396-.624-2.058-.416-.661-1.039-1.296-1.87-1.901a6.735 6.735 0 0 0-1.489-.85 3.694 3.694 0 0 0-1.345-.28c-.494 0-.864.116-1.11.345-.248.23-.37.578-.37 1.045 0 .285.086.617.258.992.174.377.43.803.767 1.279.208.285.472.61.793.973.32.363.697.775 1.131 1.233.355.363.615.648.78.85.164.204.246.33.246.384 0 .043-.05.242-.149.596-.1.355-.15.615-.15.779 0 .545.284 1.233.851 2.064.568.83.852 1.405.852 1.726 0 .112-.026.235-.079.37-.05.134-.112.3-.18.5-.105.215-.207.37-.307.466a.456.456 0 0 1-.318.143c-.07 0-.18-.04-.332-.117a3.529 3.529 0 0 1-.539-.363 8.546 8.546 0 0 1-.43-.41 2.826 2.826 0 0 1-.272-.317 3.112 3.112 0 0 0-.273-.26 6.51 6.51 0 0 0-.534-.402 2.795 2.795 0 0 1-.247-.246c-.13-.14-.303-.324-.52-.56z" fill="#f6f6f6"/><path d="M127.814 428.933c.216 0 .375-.043.474-.13.098-.086.148-.212.148-.376l-.13-.61a17.569 17.569 0 0 0-.227-.766 8.37 8.37 0 0 0-.149-.428 1.628 1.628 0 0 0-.318-.5 2.224 2.224 0 0 0-.485-.383 2.937 2.937 0 0 0-.5-.292c-.136-.056-.229-.08-.28-.071-.147.017-.287.033-.421.045-.135.013-.267.02-.397.02-.111.06-.2.177-.265.35-.066.173-.098.407-.098.701 0 .26.158.586.474.98.315.394.594.604.837.629.147.182.32.39.52.623.085.061.197.111.336.149.139.039.299.059.48.059m-5.424-10.24l.078.091.039.13c.234.319.644.737 1.233 1.252.588.515.995.933 1.22 1.252a.811.811 0 0 0 .298.299.704.704 0 0 0 .338.091c.302 0 .558-.076.766-.227.207-.152.346-.379.415-.682.06-.268.117-.538.169-.811.052-.273.095-.547.129-.823a9.26 9.26 0 0 0 .22-.786c.087-.35.152-.551.196-.603a.39.39 0 0 1 .195-.189.786.786 0 0 1 .324-.058c.156 0 .316.028.48.085.164.055.333.152.506.291.13.113.266.227.409.344l.422.344.519-1.194a5.746 5.746 0 0 0-.552-.474 39.698 39.698 0 0 0-.824-.616 6.68 6.68 0 0 0-.908-.578c-.251-.125-.441-.188-.571-.188-.788 0-1.298.091-1.531.273-.234.182-.494.687-.78 1.518a1.966 1.966 0 0 1-.155.247c-.07.095-.148.208-.234.337-.103.2-.194.348-.272.448-.078.099-.143.149-.195.149-.138 0-.324-.093-.558-.278a7.921 7.921 0 0 1-.857-.838c-.043.112-.097.246-.162.402a8.272 8.272 0 0 0-.201.545.669.669 0 0 1-.065.143.345.345 0 0 1-.091.104" fill="#f6f6f6"/><path d="M133.965 422.911c-.19 0-.446-.249-.766-.746-.32-.498-.48-.863-.48-1.097 0-.052.011-.089.032-.11.022-.022.067-.033.137-.033.095 0 .173.05.233.15l.17.28c.094.085.187.178.278.278.091.1.18.196.266.292.104.121.182.242.234.363a.914.914 0 0 1 .078.364c0 .077-.015.14-.046.188a.153.153 0 0 1-.136.071m-4.153-4.218c.104.182.238.365.402.552.165.186.372.378.623.577l.078.513c.026.17.043.34.052.513.026.121.067.263.123.428.056.164.12.342.188.532.078.19.184.428.318.714.134.285.31.605.526.96.181.2.372.417.571.656.2.237.398.478.597.72.095.078.2.151.311.22.113.07.225.147.338.234.104.035.22.065.35.091.13.026.273.04.428.04.217 0 .392-.023.526-.066a.709.709 0 0 0 .331-.22c.06-.07.12-.174.175-.312a4.28 4.28 0 0 0 .163-.506c.026-.174.056-.364.091-.572 0 .053-.016.031-.046-.064a16.942 16.942 0 0 1-.136-.455l-.117-.415c-.12-.415-.394-.895-.818-1.44-.424-.545-.995-1.169-1.713-1.869a.806.806 0 0 1-.156-.227.677.677 0 0 1-.065-.292c0-.182.033-.342.098-.48a.68.68 0 0 1 .28-.312c.068-.052.178-.104.33-.156a4.47 4.47 0 0 1 .538-.142c.338.025.645.082.922.168.277.086.523.19.74.311.043.027.112.064.208.111.094.048.19.11.285.188l.3-.675a8.99 8.99 0 0 0 .206-.519c-.493-.484-.94-.85-1.343-1.097s-.773-.37-1.11-.37a1.492 1.492 0 0 0-.474-.187 2.956 2.956 0 0 0-.629-.059c-.32 0-.604.047-.85.143a1.575 1.575 0 0 0-.616.416 1.47 1.47 0 0 0-.26.382c-.087.168-.177.37-.273.604-.078.19-.15.33-.22.422-.07.09-.148.136-.234.136-.07 0-.147-.033-.234-.098a1.693 1.693 0 0 1-.285-.292c-.035.13-.095.29-.182.48-.086.19-.199.428-.337.714" fill="#f6f6f6"/><path d="M136.34 418.693c.14.182.277.372.416.571.631.52 1.148 1.02 1.55 1.5.403.48.695.927.876 1.342l-.13.623c.113.216.392.472.838.766.445.294.806.441 1.083.441.294 0 .543-.086.746-.26.204-.172.401-.354.591-.545.095-.06.164-.108.208-.142.346-.26.605-.619.78-1.078.171-.458.258-1.016.258-1.674 0-.346-.134-.842-.403-1.486-.268-.645-.402-1.13-.402-1.459a.13.13 0 0 1 .046-.105.181.181 0 0 1 .123-.038c.112 0 .247.05.402.148.156.1.325.237.507.41.458.45.735.698.83.746.095.048.212.128.35.24.07-.173.152-.359.247-.558.095-.199.186-.412.273-.636a12.96 12.96 0 0 1-.266-.246 10.9 10.9 0 0 0-.357-.325 25.83 25.83 0 0 0-1.149-.785 63.28 63.28 0 0 0-1.693-1.058 2.347 2.347 0 0 0-.598-.273c-.363 0-.635.054-.817.163-.182.108-.273.283-.273.526 0 .094.02.205.06.33.038.126.091.261.161.41.052.111.108.226.17.344.06.116.111.234.155.355.19.546.335 1.052.434 1.52.1.466.15.886.15 1.258 0 .46-.072.81-.215 1.051a.823.823 0 0 1-.642.416 3.823 3.823 0 0 1-.623-.442 5.38 5.38 0 0 1-.688-.714 10.003 10.003 0 0 0-.675-.765c-.199-.199-.363-.334-.493-.402a2.216 2.216 0 0 0-.376-.44 5.29 5.29 0 0 0-.688-.534l-.078-.155a1.084 1.084 0 0 0-.169-.234 7.603 7.603 0 0 1-.233.59c-.087.195-.182.396-.286.604" fill="#f6f6f6"/><path d="M144.997 418.693l.052.104c.052.07.12.155.201.26.082.104.18.225.292.363a14.669 14.669 0 0 1 1.798 2.044 25.174 25.174 0 0 1 1.732 2.732c.07.095.147.22.234.376.087.156.182.35.285.584 0 .052-.012.091-.038.117-.027.026-.07.04-.13.04a1.14 1.14 0 0 1-.254-.047 1.162 1.162 0 0 0-.265-.045h-1.623c-.069 0-.184.004-.344.013-.16.008-.274.013-.344.013-.086.043-.166.08-.24.11-.073.03-.145.063-.214.098a.592.592 0 0 0-.24.136.274.274 0 0 0-.084.201c0 .554.058.978.175 1.272.117.294.297.441.54.441.241 0 .47-.01.681-.032.212-.022.4-.05.565-.085.13.026.251.052.364.078.233 0 .432-.008.597-.026a2.3 2.3 0 0 0 .377-.064c.112.025.223.05.331.071l.357.071.43-.13c.302.035.625.46.967 1.272.342.813.71 1.22 1.098 1.22.208 0 .368-.064.481-.194.112-.13.168-.32.168-.572 0-.199-.058-.46-.175-.785-.118-.324-.185-.569-.202-.733a.688.688 0 0 1 .07-.11 1.04 1.04 0 0 1 .134-.137c.052-.034.088-.093.11-.175a1.25 1.25 0 0 0 .031-.305c0-.519-.024-.919-.07-1.2-.049-.282-.124-.427-.228-.435l-.879-.182-.065-.317a10.232 10.232 0 0 0-.104-.436 27.88 27.88 0 0 1-.495-1.648 98.148 98.148 0 0 1-.61-2.362 71.931 71.931 0 0 1-.32-1.765c-.074-.449-.11-.752-.11-.908 0-.139.021-.242.065-.312a.213.213 0 0 1 .194-.104c.052 0 .24.126.565.377.324.251.776.623 1.356 1.116l.506-1.194a3.67 3.67 0 0 0-.363-.338 7.257 7.257 0 0 0-.558-.414 4.769 4.769 0 0 0-.325-.319 13.203 13.203 0 0 1-.428-.409 50.65 50.65 0 0 1-.46-.518 14.975 14.975 0 0 0-.462-.506 2.193 2.193 0 0 0-.609-.488 1.269 1.269 0 0 0-.559-.149c-.38 0-.664.113-.85.338-.186.225-.279.566-.279 1.025 0 .501.018.936.052 1.304.035.368.091.664.17.89.034.068.06.13.077.181 0 .086.013.203.04.35l.09.52c.052.337.108.674.17 1.012.094.207.194.428.298.662 0 .043-.035.082-.104.116l-.13-.078a4.801 4.801 0 0 0-.506-.655 9.178 9.178 0 0 0-.74-.72 256.6 256.6 0 0 0-1.35-1.285 2.173 2.173 0 0 0-.143-.195 4.414 4.414 0 0 1-.234-.324l-.162.396a8.64 8.64 0 0 0-.2.551.669.669 0 0 1-.066.143.357.357 0 0 1-.09.104" fill="#f6f6f6"/><path d="M156.34 422.911c-.19 0-.446-.249-.766-.746-.32-.498-.48-.863-.48-1.097 0-.052.011-.089.032-.11.022-.022.067-.033.137-.033.095 0 .173.05.233.15l.17.28c.094.085.187.178.278.278.091.1.18.196.266.292.104.121.182.242.234.363a.914.914 0 0 1 .078.364c0 .077-.015.14-.046.188a.153.153 0 0 1-.136.071m-4.153-4.218c.104.182.238.365.402.552.165.186.372.378.623.577l.078.513c.026.17.043.34.052.513.026.121.067.263.123.428.056.164.12.342.188.532.078.19.184.428.318.714.134.285.31.605.526.96.181.2.372.417.571.656.2.237.398.478.597.72.095.078.2.151.311.22.113.07.225.147.338.234.104.035.22.065.35.091.13.026.273.04.428.04.217 0 .392-.023.526-.066a.709.709 0 0 0 .331-.22c.06-.07.12-.174.175-.312a4.28 4.28 0 0 0 .163-.506c.026-.174.056-.364.091-.572 0 .053-.016.031-.046-.064a16.942 16.942 0 0 1-.136-.455l-.117-.415c-.12-.415-.394-.895-.818-1.44-.424-.545-.995-1.169-1.713-1.869a.806.806 0 0 1-.156-.227.677.677 0 0 1-.065-.292c0-.182.033-.342.098-.48a.68.68 0 0 1 .28-.312c.068-.052.178-.104.33-.156a4.47 4.47 0 0 1 .538-.142c.338.025.645.082.922.168.277.086.523.19.74.311.043.027.112.064.208.111.094.048.19.11.285.188l.3-.675a8.99 8.99 0 0 0 .206-.519c-.493-.484-.94-.85-1.343-1.097s-.773-.37-1.11-.37a1.492 1.492 0 0 0-.474-.187 2.956 2.956 0 0 0-.629-.059c-.32 0-.604.047-.85.143a1.575 1.575 0 0 0-.616.416 1.47 1.47 0 0 0-.26.382c-.087.168-.177.37-.273.604-.078.19-.15.33-.22.422-.07.09-.148.136-.234.136-.07 0-.147-.033-.234-.098a1.693 1.693 0 0 1-.285-.292c-.035.13-.095.29-.182.48-.086.19-.199.428-.337.714m16.015-5.645h-.298a.786.786 0 0 0-.526.182c-.143.12-.24.31-.292.57-.017.079-.03.225-.039.435a21.34 21.34 0 0 0-.013.852c0 .147-.013.377-.039.688a9.236 9.236 0 0 0-.039.689c0 .052.011.143.033.272.021.13.036.308.045.533.017.208.035.459.052.754a8.524 8.524 0 0 1-.09.818c.06.459.13.926.206 1.402.01.07.003.195-.019.377a3.662 3.662 0 0 0-.032.364c0 .06.015.149.045.266.03.116.046.21.046.279a.416.416 0 0 1-.046.208.148.148 0 0 1-.136.078 8.326 8.326 0 0 0-.15-.06 3.774 3.774 0 0 1-.174-.07 1.346 1.346 0 0 1-.195-.052 9.967 9.967 0 0 0-.286-.091l-.116.078-.04.13c.08.138.158.272.241.402.082.129.157.259.227.389.078.112.173.212.285.299.113.086.23.172.35.259.096.052.176.19.241.415.065.224.114.553.15.986.033.492.072.895.116 1.206.043.31.086.523.13.635l.13.403c0 .052-.014.134-.039.246-.026.112-.04.19-.04.233.061.398.122.783.182 1.155.104.536.32 1.072.65 1.608.328.536.77 1.099 1.323 1.687.571.562 1.397.968 2.48 1.219.12-.026.228-.052.323-.078l.43.155a.452.452 0 0 0 .161-.038c.065-.027.15-.065.253-.117.2.06.372.104.52.13.146.025.263.039.35.039.536 0 .936-.072 1.2-.215a.698.698 0 0 0 .396-.655 6.198 6.198 0 0 0-.143-1.233c-.06-.32-.13-.56-.208-.72-.078-.16-.164-.25-.259-.266a12.03 12.03 0 0 1-.688.292 35.71 35.71 0 0 0-.727.292l-.467-.182a14.38 14.38 0 0 0-.48.065c-.148 0-.314-.015-.5-.045a6.447 6.447 0 0 1-.577-.124c-.546-.13-.862-.31-.948-.54a8.31 8.31 0 0 0-.44-.926c-.07-.087-.18-.437-.332-1.052-.15-.614-.353-1.488-.604-2.621a1.389 1.389 0 0 0-.097-.273.855.855 0 0 1-.084-.324c0-.121.021-.214.065-.28a.228.228 0 0 1 .168-.11c.13.06.305.128.526.202.22.073.486.153.798.239a11.329 11.329 0 0 1 1.713.351h.779l.896.156c.501 0 .878-.071 1.13-.215.25-.142.375-.343.375-.603 0-.052-.007-.184-.019-.396-.014-.212-.033-.495-.059-.85a49.542 49.542 0 0 0-.35-.61c-.078 0-.278.033-.597.098a83.07 83.07 0 0 0-1.363.292 5.926 5.926 0 0 0-1.428-.169c-.164 0-.4-.026-.707-.078a6.782 6.782 0 0 0-.707-.091 1.193 1.193 0 0 0-.344-.188 1.085 1.085 0 0 0-.344-.058 4.31 4.31 0 0 0-.403.039c-.112 0-.22-.102-.324-.305-.104-.204-.195-.518-.272-.941l-.13-.558.091-.403-.247-1.544c0-.061.006-.132.02-.214a1.51 1.51 0 0 0 .02-.254 22.465 22.465 0 0 1-.24-2.03 27.37 27.37 0 0 1-.073-1.98c0-.138-.03-.285-.09-.441a1.706 1.706 0 0 0-.286-.467m8.748 6.217l1.18.778a2.203 2.203 0 0 1 .363.493.91.91 0 0 0 .24.286c.1.078.216.147.345.208.069.086.169.194.299.324.13.13.294.28.493.454.095.052.216.128.363.228.147.099.307.23.48.396.788.743 1.478 1.3 2.07 1.673.593.372 1.093.558 1.5.558.225 0 .39-.047.5-.142a.512.512 0 0 0 .162-.402c0-.182-.033-.342-.098-.48a.866.866 0 0 0-.305-.351 38.95 38.95 0 0 1-.701-.52 6.122 6.122 0 0 0-1.206-1.18 7.323 7.323 0 0 1-.221-.3 13.775 13.775 0 0 0-.247-.232 5.542 5.542 0 0 0-.48-.39c-.087-.19-.275-.437-.565-.74-.29-.303-.677-.666-1.161-1.09a3.943 3.943 0 0 1-.324-.415c-.156-.217-.36-.502-.611-.857l.09-.116c.19.06.39.164.598.31.208.148.437.343.688.585l.72.655c.186.169.318.28.396.33.06.037.12.07.182.105.06.035.13.078.208.13.397.476.77.828 1.116 1.058.345.229.666.344.96.344.182 0 .32-.072.415-.214.095-.143.152-.357.169-.643a31.808 31.808 0 0 1-.026-1.245 1.169 1.169 0 0 1 .227-.746.743.743 0 0 1 .63-.332c.078 0 .153.02.227.065.074.044.149.1.227.169.06.078.119.15.175.22.056.069.115.139.175.208a1.446 1.446 0 0 1 .338.247c.12-.26.222-.488.305-.682.082-.194.145-.365.188-.513a16.36 16.36 0 0 1-.59-.564 7.51 7.51 0 0 0-.617-.551 3.334 3.334 0 0 0-.752-.448c-.243-.1-.485-.15-.728-.15-.562 0-.995.16-1.297.48-.303.32-.48.806-.533 1.454 0 .078-.01.158-.032.24a.709.709 0 0 1-.136.253 3.191 3.191 0 0 0-.143-.135 3.182 3.182 0 0 1-.182-.19l-.422-.324a30.352 30.352 0 0 1-.59-.467 34.225 34.225 0 0 0-.766-.766c-.207-.2-.355-.341-.441-.427a5.413 5.413 0 0 0-.604-.442 12.611 12.611 0 0 0-.772-.455 6.906 6.906 0 0 0-.467-.226.813.813 0 0 0-.285-.084c-.415 0-.723.1-.922.304-.2.203-.298.517-.298.942 0 .232.05.455.149.668.099.212.249.417.448.616.017.112.025.203.025.272 0 .043-.01.089-.032.137-.021.047-.05.102-.084.162a145.798 145.798 0 0 1-.39.896c.035.034.085.1.15.2.064.1.14.224.227.37" fill="#f6f6f6"/><path d="M194.95 430.685c-.094 0-.285-.171-.57-.513-.285-.341-.65-.845-1.09-1.511-.251-.372-.498-.743-.74-1.11l-.714-1.084a1.097 1.097 0 0 1-.227-.311.766.766 0 0 1-.072-.325 52.608 52.608 0 0 0-.505-1.362 24.974 24.974 0 0 0-.383-1.065l-.176-.441.065-.065c.173.156.32.32.442.494.173.198.383.456.629.772.247.315.526.685.837 1.109.312.398.63.902.96 1.512.329.61.684 1.313 1.065 2.109.216.433.378.779.486 1.039.109.259.162.44.162.544 0 .061-.01.111-.032.15-.021.038-.067.058-.136.058m-8.436-11.992c.19.164.337.294.44.39.105.095.187.177.248.246.138.13.25.256.337.377a.69.69 0 0 1 .143.324c.078.294.169.662.272 1.103.104.441.239.952.403 1.531.078.173.162.392.253.656.09.264.188.56.292.889.104.433.234.826.389 1.181.156.355.329.675.519.961.06.077.12.175.182.292.06.116.12.252.182.408.06.138.145.301.253.487.108.186.23.404.37.655.355.519.666.965.934 1.337s.489.671.662.896c.312.371.625.72.94 1.044.317.325.635.625.955.902.294.251.549.435.766.552.216.117.389.175.519.175a1.22 1.22 0 0 0 .259-.286c.06 0 .12.009.182.027.225 0 .39-.091.493-.273.104-.182.156-.45.156-.805 0-.077-.013-.18-.04-.305a13.78 13.78 0 0 0-.103-.46.525.525 0 0 1-.13-.234 4.07 4.07 0 0 1-.065-.286 2.47 2.47 0 0 0-.038-.311 1.554 1.554 0 0 0-.065-.233 9.814 9.814 0 0 1-.364-.76 21.184 21.184 0 0 1-.415-1.045 17.83 17.83 0 0 1-.325-.584c-.13-.242-.285-.51-.466-.804-.087-.165-.198-.37-.331-.617a13.96 13.96 0 0 0-.513-.85 1.565 1.565 0 0 0-.266-.396 51.287 51.287 0 0 0-.448-.499c-.052-.139-.197-.377-.435-.714a32.273 32.273 0 0 0-.993-1.311 38.29 38.29 0 0 0-.804-.999 90.07 90.07 0 0 1-1.142-1.415 20.237 20.237 0 0 1-.37-1.733 8.283 8.283 0 0 1-.124-1.316c0-.148.01-.258.033-.332.022-.073.063-.11.123-.11.044.061.106.129.189.207.082.078.166.169.253.274.164.146.356.419.577.816.22.398.474.914.759 1.545.25.571.476 1.01.675 1.317.199.307.364.492.493.552l.455.195.233.091a.498.498 0 0 0 .169.038c.112 0 .216-.069.31-.207a1.75 1.75 0 0 0 .235-.571 33 33 0 0 1 .273-1.019c.069-.238.108-.378.116-.421.113-.26.249-.451.409-.572a.925.925 0 0 1 .578-.181c.268.043.584.103.947.181.069-.173.149-.359.24-.557.09-.2.184-.412.279-.637a18.078 18.078 0 0 0-.63-.402c-.211-.129-.421-.26-.63-.389-.137-.078-.336-.137-.596-.176a6.184 6.184 0 0 0-.908-.058c-.528 0-.937.249-1.227.746-.29.498-.465.742-.525.734h-.078a24.57 24.57 0 0 0-.435-.533 12.126 12.126 0 0 1-.447-.57c-.096-.2-.23-.429-.403-.688-.173-.26-.381-.546-.623-.857a5.53 5.53 0 0 0-.753-.779c-.216-.173-.402-.259-.558-.259-.33 0-.586.037-.772.11-.186.074-.296.183-.331.331-.103.484-.184.906-.24 1.265a6.09 6.09 0 0 0-.084.916c0 .078.004.146.013.207l.025.169.09.363c0 .044-.01.075-.031.098-.021.021-.06.032-.11.032a1.099 1.099 0 0 0-.286-.26 4.86 4.86 0 0 1-.182.467c-.086.199-.198.441-.337.727" fill="#f6f6f6"/><path d="M196.04 418.693c.14.182.278.372.417.571.63.52 1.148 1.02 1.55 1.5.403.48.695.927.876 1.342l-.13.623c.113.216.392.472.838.766.445.294.806.441 1.083.441.294 0 .543-.086.746-.26.204-.172.4-.354.59-.545.096-.06.165-.108.209-.142.346-.26.605-.619.779-1.078.172-.458.259-1.016.259-1.674 0-.346-.134-.842-.403-1.486-.268-.645-.402-1.13-.402-1.459a.13.13 0 0 1 .046-.105.181.181 0 0 1 .123-.038c.112 0 .247.05.402.148.156.1.325.237.507.41.458.45.735.698.83.746.095.048.212.128.35.24.07-.173.152-.359.247-.558.095-.199.186-.412.273-.636a12.96 12.96 0 0 1-.266-.246 10.9 10.9 0 0 0-.357-.325 25.83 25.83 0 0 0-1.15-.785 63.28 63.28 0 0 0-1.692-1.058 2.347 2.347 0 0 0-.598-.273c-.363 0-.635.054-.817.163-.182.108-.273.283-.273.526 0 .094.02.205.059.33.039.126.092.261.162.41.052.111.108.226.169.344.06.116.112.234.156.355.189.546.335 1.052.434 1.52.1.466.15.886.15 1.258 0 .46-.072.81-.215 1.051a.823.823 0 0 1-.642.416 3.823 3.823 0 0 1-.623-.442 5.38 5.38 0 0 1-.688-.714 10.003 10.003 0 0 0-.675-.765c-.2-.199-.363-.334-.493-.402a2.216 2.216 0 0 0-.376-.44 5.29 5.29 0 0 0-.688-.534l-.078-.155a1.084 1.084 0 0 0-.17-.234 7.603 7.603 0 0 1-.232.59c-.087.195-.182.396-.286.604" fill="#f6f6f6"/><path d="M204.697 418.693l.078.091c.035.121.11.251.227.388.117.14.283.278.5.417.285.181.508.328.668.44.16.113.257.195.292.247.078.095.13.17.156.221.095.07.212.164.35.285.14.121.294.268.467.442a.898.898 0 0 1 .195.207c.07.095.138.203.208.325.112.078.24.177.383.298.143.121.31.277.5.468.216.233.46.49.733.772.272.281.577.573.914.876.113.052.22.093.32.123.098.03.195.046.291.046.39 0 .681-.094.876-.28.195-.186.292-.452.292-.798a3.15 3.15 0 0 0-.046-.428c-.03-.199-.063-.45-.097-.753-.12-.874-.208-1.406-.26-1.596a78.24 78.24 0 0 0-.545-1.79 6.372 6.372 0 0 1-.214-.61l-.266-.884c.017-.034.061-.069.13-.104.06 0 .168.06.324.176.156.116.364.291.623.525.303.278.541.49.714.636.173.148.281.234.325.26l.285-.643c.086-.194.16-.378.221-.55a1.837 1.837 0 0 1-.305-.235 2.334 2.334 0 0 1-.254-.286 64.064 64.064 0 0 0-.629-.414 69.156 69.156 0 0 0-.785-.507 8.488 8.488 0 0 0-.525-.473l-.747-.629-.247-.053a2.03 2.03 0 0 0-.343-.376 1.228 1.228 0 0 0-.292-.182c-.139-.05-.277-.102-.416-.149-.138-.047-.285-.098-.44-.149a.318.318 0 0 0-.209.168.674.674 0 0 0-.052.338 3.401 3.401 0 0 0-.31.805 4.01 4.01 0 0 0-.118 1.012c0 .07.005.142.013.22a6.1 6.1 0 0 0 .026.207c-.06.226-.09.36-.09.403 0 .26.1.474.298.642.198.17.424.254.675.254.13 0 .222-.067.278-.2.057-.136.115-.202.176-.202.06 0 .123.118.188.356s.128.586.188 1.045a11.277 11.277 0 0 1 .143 1.713c0 .113-.024.197-.072.254-.047.056-.127.084-.239.084-.113 0-.476-.26-1.09-.779a72.81 72.81 0 0 1-2.57-2.323 2.302 2.302 0 0 0-.15-.22 7.156 7.156 0 0 1-.227-.325c-.035.13-.095.29-.182.48-.086.19-.198.428-.337.714" fill="#f6f6f6"/><path d="M212.822 418.693l.117.104c.008.094.069.208.18.336.114.131.274.282.482.456.13.095.266.185.408.272.144.086.28.182.409.286.546.467 1.073.917 1.584 1.35.294.26.588.482.882.668.294.186.57.335.83.447.183.234.522.472 1.02.714.497.242.9.364 1.213.364a.409.409 0 0 0 .292-.104.445.445 0 0 0 .136-.26v-.714a1.1 1.1 0 0 0-.214-.668c-.142-.195-.357-.375-.642-.539a8.204 8.204 0 0 1-.571-.285 8.946 8.946 0 0 0-.571-.286c-.07-.086-.253-.248-.552-.486-.298-.238-.703-.556-1.213-.955a9.298 9.298 0 0 1-.584-.486 2.43 2.43 0 0 1-.325-.344 2.317 2.317 0 0 1-.201-.545 2.955 2.955 0 0 1-.071-.687c0-.2.03-.37.09-.514a.792.792 0 0 1 .273-.344 1.83 1.83 0 0 1 .357-.18 5.07 5.07 0 0 1 .565-.183c.129.053.3.102.512.15.212.047.448.11.708.188a45.326 45.326 0 0 1 1.817 1.13c.043.024.097.053.162.083a.902.902 0 0 1 .2.136c.087.113.207.243.358.39.15.147.335.316.55.506.347-.753.52-1.15.52-1.194-.32-.26-.644-.526-.973-.798a4.32 4.32 0 0 0-1.13-.669 4.405 4.405 0 0 1-.35-.31 4.29 4.29 0 0 0-1.511-.98c-.576-.222-1.231-.332-1.966-.332-.165 0-.312.012-.442.04a1.26 1.26 0 0 0-.324.103c-.26.172-.481.325-.662.453a4.487 4.487 0 0 0-.48.397c-.13.125-.225.244-.286.357a1.177 1.177 0 0 0-.162.441 3.81 3.81 0 0 0-.045.636c0 .07.02.181.064.337.044.157.065.264.065.325-.06.19-.134.384-.221.584a7.565 7.565 0 0 1-.298.61" fill="#f6f6f6"/><path d="M229.447 430.685c-.095 0-.286-.171-.57-.513-.286-.341-.65-.845-1.09-1.511a92.995 92.995 0 0 1-.74-1.11c-.244-.368-.48-.729-.715-1.084a1.097 1.097 0 0 1-.227-.311.766.766 0 0 1-.072-.325 52.608 52.608 0 0 0-.505-1.362 24.974 24.974 0 0 0-.383-1.065l-.176-.441.065-.065c.173.156.32.32.442.494.173.198.383.456.63.772.246.315.525.685.836 1.109.312.398.631.902.961 1.512.328.61.683 1.313 1.064 2.109.216.433.378.779.486 1.039.11.259.162.44.162.544 0 .061-.01.111-.032.15-.02.038-.067.058-.136.058m-8.436-11.992c.19.164.337.294.441.39.104.095.186.177.247.246.138.13.251.256.337.377a.69.69 0 0 1 .143.324c.078.294.17.662.272 1.103.104.441.24.952.403 1.531.078.173.162.392.253.656s.188.56.292.889c.104.433.234.826.39 1.181.155.355.328.675.518.961.061.077.121.175.182.292.061.116.121.252.182.408.06.138.145.301.253.487.108.186.231.404.37.655.355.519.666.965.934 1.337s.49.671.662.896c.312.371.625.72.941 1.044.316.325.634.625.954.902.294.251.55.435.766.552.216.117.39.175.52.175.12-.103.207-.199.258-.286.061 0 .121.009.182.027.225 0 .39-.091.493-.273.104-.182.156-.45.156-.805 0-.077-.013-.18-.039-.305-.026-.125-.06-.279-.104-.46a.525.525 0 0 1-.13-.234 4.07 4.07 0 0 1-.065-.286 2.47 2.47 0 0 0-.038-.311 1.554 1.554 0 0 0-.065-.233 9.814 9.814 0 0 1-.364-.76 21.184 21.184 0 0 1-.415-1.045 17.83 17.83 0 0 1-.325-.584c-.129-.242-.285-.51-.466-.804-.087-.165-.198-.37-.33-.617a13.96 13.96 0 0 0-.514-.85 1.565 1.565 0 0 0-.266-.396 51.287 51.287 0 0 0-.448-.499c-.052-.139-.197-.377-.435-.714a32.273 32.273 0 0 0-.993-1.311 38.29 38.29 0 0 0-.804-.999 90.07 90.07 0 0 1-1.142-1.415 20.237 20.237 0 0 1-.37-1.733 8.283 8.283 0 0 1-.124-1.316c0-.148.011-.258.033-.332.022-.073.063-.11.123-.11.044.061.106.129.19.207.081.078.165.169.252.274.164.146.356.419.577.816.221.398.474.914.76 1.545.25.571.475 1.01.674 1.317.2.307.364.492.493.552l.455.195.233.091a.498.498 0 0 0 .17.038c.111 0 .215-.069.31-.207.096-.139.173-.329.234-.571a33 33 0 0 1 .273-1.019 6.99 6.99 0 0 0 .116-.421c.113-.26.25-.451.41-.572a.925.925 0 0 1 .577-.181c.268.043.584.103.947.181.07-.173.15-.359.24-.557.091-.2.184-.412.28-.637a18.078 18.078 0 0 0-.63-.402c-.212-.129-.422-.26-.63-.389-.138-.078-.337-.137-.597-.176a6.184 6.184 0 0 0-.908-.058c-.528 0-.937.249-1.227.746-.29.498-.465.742-.525.734h-.078a24.57 24.57 0 0 0-.435-.533 12.126 12.126 0 0 1-.447-.57c-.096-.2-.23-.429-.403-.688-.173-.26-.38-.546-.623-.857a5.53 5.53 0 0 0-.753-.779c-.216-.173-.402-.259-.558-.259-.329 0-.586.037-.772.11-.186.074-.296.183-.33.331-.104.484-.185.906-.24 1.265a6.09 6.09 0 0 0-.085.916c0 .078.004.146.013.207l.025.169c.027.112.057.233.091.363 0 .044-.01.075-.032.098-.02.021-.059.032-.11.032a1.099 1.099 0 0 0-.286-.26 4.86 4.86 0 0 1-.182.467c-.086.199-.198.441-.337.727" fill="#f6f6f6"/><path d="M230.537 418.693a.315.315 0 0 1 .084.091.237.237 0 0 1 .033.13c.147.121.314.287.5.5.186.212.395.46.63.745.19.26.386.52.59.78.203.26.421.518.655.778.19.26.378.53.565.811.185.281.382.556.59.824.346.164.614.281.805.35.19.07.32.104.39.104a.37.37 0 0 0 .298-.123c.068-.082.103-.2.103-.357a.94.94 0 0 0-.038-.22l-.09-.312a8.418 8.418 0 0 0-.209-.532c-.07-.303-.152-.606-.247-.908a51.207 51.207 0 0 1-.272-.896 13.03 13.03 0 0 1-.2-1.026 5.63 5.63 0 0 1-.073-.855c0-.486.024-.844.072-1.078.047-.234.114-.338.201-.312.086.052.195.114.324.19.13.072.281.157.455.252.155.165.331.368.525.61.195.242.431.527.707.856.156.243.316.48.48.714l.215.247c.082.095.157.19.227.285.164.415.348.725.552.928.203.203.43.305.681.305.225 0 .404-.028.538-.084a.51.51 0 0 0 .28-.254c.025-.06.047-.164.065-.31a5.37 5.37 0 0 0 .025-.585c0-.095.02-.233.06-.415a2.18 2.18 0 0 0 .057-.402c0-.32.056-.56.17-.72.111-.16.284-.24.518-.24a1 1 0 0 1 .247.038c.094.026.19.057.285.091l.52-1.194a16.313 16.313 0 0 0-1.279-.707c-.333-.16-.582-.24-.747-.24-.432 0-.787.112-1.063.337-.278.225-.48.558-.61 1a.998.998 0 0 1-.11.311 1.97 1.97 0 0 1-.215.311 9.045 9.045 0 0 1-.266-.31 8.6 8.6 0 0 0-.318-.364 41.41 41.41 0 0 0-1.415-1.649c-.303-.355-.608-.612-.915-.772-.307-.16-.595-.24-.863-.24-.398 0-.718.12-.96.357-.243.237-.398.591-.468 1.057-.077.45-.129.801-.155 1.051-.026.252-.03.403-.013.455-.018.25-.04.442-.07.571-.032.13-.078.195-.138.195l-.078-.039-.739-.766a1.595 1.595 0 0 0-.13-.227 5.052 5.052 0 0 0-.247-.33c-.035.13-.095.29-.182.48-.086.19-.198.427-.337.713" fill="#f6f6f6"/><path d="M247.526 428.881l-.091.052c-.485-.468-.85-.908-1.096-1.324-.247-.415-.371-.818-.371-1.207a.99.99 0 0 0-.084-.305 7.07 7.07 0 0 0-.253-.55 21.304 21.304 0 0 1-.428-.884 26.64 26.64 0 0 1-.377-1.18c-.086-.304-.13-.52-.13-.65l.079-.104c.077.008.172.087.285.234.112.147.242.363.389.648.07.156.169.338.299.546.13.207.277.454.44.74.139.19.36.68.663 1.466.303.788.467 1.29.493 1.506.009.173.033.344.072.512.038.17.075.335.11.5m-6.191-10.188c.078.087.156.192.234.317.078.126.182.262.31.41l.858.753a.14.14 0 0 1 .058.103c.004.043.007.104.007.182a1.81 1.81 0 0 1-.04.273c0 .198.04.532.118 1 .078.466.146.747.207.842l-.078.247c.113.58.27 1.213.474 1.901.203.688.435 1.434.694 2.24.087.137.178.313.273.524.095.212.203.453.325.721.147.45.34.922.584 1.415.242.493.514 1 .817 1.518.407.683.768 1.2 1.084 1.545.315.345.599.52.85.52.5 0 .846-.099 1.032-.293.186-.195.279-.56.279-1.097 0-.139-.024-.352-.072-.642a4.382 4.382 0 0 1-.071-.656c0-.147-.048-.355-.143-.623a2.228 2.228 0 0 1-.143-.74.614.614 0 0 0-.065-.207l.014-.182a4.914 4.914 0 0 0-.156-.44 13.09 13.09 0 0 0-.273-.624c-.06-.216-.138-.467-.234-.753a21.474 21.474 0 0 0-.337-.934 10.225 10.225 0 0 0-.201-.319 14.81 14.81 0 0 1-.266-.42 2.608 2.608 0 0 0-.13-.39 6.965 6.965 0 0 0-.246-.52 2.607 2.607 0 0 0-.208-.337 10.345 10.345 0 0 1-.312-.467 3.506 3.506 0 0 1-.168-.325l-.208-.44c-.095-.148-.22-.33-.376-.546a30.605 30.605 0 0 1-.532-.766c-.27-.476-.545-.93-.831-1.362 0-.839.167-1.474.5-1.902.333-.428.832-.642 1.499-.642.043 0 .172.03.389.091.216.06.515.155.895.286.113.068.247.166.403.291.155.125.333.275.532.448l.506-1.194c-.225-.2-.45-.403-.675-.61a20.95 20.95 0 0 0-.688-.61 3.213 3.213 0 0 0-.818-.513 2.085 2.085 0 0 0-.817-.176c-.14 0-.35.016-.636.046a6.498 6.498 0 0 1-.65.046c-.483 0-.883.195-1.2.584-.315.39-.538.973-.668 1.752a.882.882 0 0 1-.071.207.82.82 0 0 1-.162.208 33.988 33.988 0 0 1-.396-.402 14.512 14.512 0 0 0-.552-.532z" fill="#f6f6f6"/><path d="M252.808 422.911c-.19 0-.446-.249-.766-.746-.32-.498-.48-.863-.48-1.097 0-.052.011-.089.032-.11.022-.022.067-.033.137-.033.095 0 .173.05.233.15l.17.28c.094.085.187.178.278.278.091.1.18.196.266.292.104.121.182.242.234.363a.914.914 0 0 1 .078.364c0 .077-.015.14-.046.188a.153.153 0 0 1-.136.071m-4.153-4.218c.104.182.238.365.402.552.165.186.372.378.623.577l.078.513c.026.17.043.34.052.513.026.121.067.263.123.428.056.164.12.342.188.532.078.19.184.428.318.714.134.285.31.605.526.96.181.2.372.417.571.656.2.237.398.478.597.72.095.078.2.151.311.22.113.07.225.147.338.234.104.035.22.065.35.091.13.026.273.04.428.04.217 0 .392-.023.526-.066a.709.709 0 0 0 .331-.22c.06-.07.12-.174.175-.312a4.28 4.28 0 0 0 .163-.506c.026-.174.056-.364.091-.572 0 .053-.016.031-.046-.064a16.942 16.942 0 0 1-.136-.455l-.117-.415c-.12-.415-.394-.895-.818-1.44-.424-.545-.995-1.169-1.713-1.869a.806.806 0 0 1-.156-.227.677.677 0 0 1-.065-.292c0-.182.033-.342.098-.48a.68.68 0 0 1 .28-.312c.068-.052.178-.104.33-.156a4.47 4.47 0 0 1 .538-.142c.338.025.645.082.922.168.277.086.523.19.74.311.043.027.112.064.208.111.094.048.19.11.285.188l.3-.675a8.99 8.99 0 0 0 .206-.519c-.493-.484-.94-.85-1.343-1.097s-.773-.37-1.11-.37a1.492 1.492 0 0 0-.474-.187 2.956 2.956 0 0 0-.629-.059c-.32 0-.604.047-.85.143a1.575 1.575 0 0 0-.616.416 1.47 1.47 0 0 0-.26.382c-.087.168-.177.37-.273.604-.078.19-.15.33-.22.422-.07.09-.148.136-.234.136-.07 0-.147-.033-.234-.098a1.693 1.693 0 0 1-.285-.292c-.035.13-.095.29-.182.48-.086.19-.199.428-.337.714m13.589.572l1.18.778a2.203 2.203 0 0 1 .363.493.91.91 0 0 0 .24.286c.1.078.216.147.345.208.069.086.169.194.299.324.13.13.294.28.493.454.095.052.216.128.363.228.147.099.307.23.48.396.788.743 1.478 1.3 2.07 1.673.593.372 1.093.558 1.5.558.225 0 .39-.047.5-.142a.512.512 0 0 0 .162-.402c0-.182-.033-.342-.098-.48a.866.866 0 0 0-.305-.351 38.95 38.95 0 0 1-.701-.52 6.122 6.122 0 0 0-1.206-1.18 7.323 7.323 0 0 1-.221-.3 13.775 13.775 0 0 0-.247-.232 5.542 5.542 0 0 0-.48-.39c-.087-.19-.275-.437-.565-.74-.29-.303-.677-.666-1.161-1.09a3.943 3.943 0 0 1-.324-.415c-.156-.217-.36-.502-.611-.857l.09-.116c.19.06.39.164.598.31.208.148.437.343.688.585l.72.655c.186.169.318.28.396.33.06.037.12.07.182.105.06.035.13.078.208.13.397.476.77.828 1.116 1.058.345.229.666.344.96.344.182 0 .32-.072.415-.214.095-.143.152-.357.169-.643a31.808 31.808 0 0 1-.026-1.245 1.169 1.169 0 0 1 .227-.746.743.743 0 0 1 .63-.332c.078 0 .153.02.227.065.074.044.149.1.227.169.06.078.119.15.175.22.056.069.115.139.175.208a1.446 1.446 0 0 1 .338.247c.12-.26.222-.488.305-.682.083-.194.145-.365.188-.513a16.36 16.36 0 0 1-.59-.564 7.51 7.51 0 0 0-.617-.551 3.334 3.334 0 0 0-.752-.448c-.243-.1-.485-.15-.728-.15-.562 0-.995.16-1.297.48-.303.32-.48.806-.533 1.454 0 .078-.01.158-.032.24a.709.709 0 0 1-.136.253 3.191 3.191 0 0 0-.143-.135 3.182 3.182 0 0 1-.182-.19l-.422-.324a30.352 30.352 0 0 1-.59-.467 34.225 34.225 0 0 0-.766-.766c-.207-.2-.355-.341-.441-.427a5.413 5.413 0 0 0-.604-.442 12.611 12.611 0 0 0-.772-.455 6.906 6.906 0 0 0-.467-.226.813.813 0 0 0-.285-.084c-.415 0-.723.1-.922.304-.2.203-.298.517-.298.942 0 .232.05.455.149.668.099.212.249.417.448.616.017.112.025.203.025.272 0 .043-.01.089-.032.137-.021.047-.05.102-.084.162a145.798 145.798 0 0 1-.39.896c.035.034.085.1.15.2.064.1.14.224.227.37" fill="#f6f6f6"/><path d="M278 428.881l-.091.052c-.485-.468-.85-.908-1.096-1.324-.248-.415-.371-.818-.371-1.207a.99.99 0 0 0-.084-.305 6.712 6.712 0 0 0-.253-.55 21.304 21.304 0 0 1-.428-.884c-.164-.485-.29-.878-.376-1.18-.087-.304-.13-.52-.13-.65l.077-.104c.078.008.173.087.286.234.112.147.242.363.389.648.069.156.169.338.299.546.13.207.277.454.44.74.14.19.36.68.663 1.466.303.788.467 1.29.493 1.506.008.173.033.344.072.512.039.17.075.335.11.5m-6.191-10.188c.078.087.156.192.234.317.078.126.182.262.31.41l.857.753c.035.025.055.06.06.103.003.043.005.104.005.182a1.584 1.584 0 0 1-.04.273c0 .198.04.532.119 1 .078.466.147.747.208.842l-.08.247c.114.58.272 1.213.475 1.901.203.688.435 1.434.694 2.24.086.137.178.313.273.524l.324.721c.148.45.342.922.584 1.415.242.493.515 1 .818 1.518.407.683.768 1.2 1.083 1.545.317.345.6.52.85.52.503 0 .847-.099 1.032-.293.187-.195.28-.56.28-1.097 0-.139-.024-.352-.072-.642a4.382 4.382 0 0 1-.071-.656c0-.147-.048-.355-.143-.623a2.225 2.225 0 0 1-.142-.74.64.64 0 0 0-.066-.207l.013-.182a4.576 4.576 0 0 0-.155-.44 13.09 13.09 0 0 0-.273-.624c-.06-.216-.138-.467-.233-.753a22.991 22.991 0 0 0-.338-.934 10.225 10.225 0 0 0-.201-.319 14.81 14.81 0 0 1-.266-.42 2.498 2.498 0 0 0-.13-.39 5.98 5.98 0 0 0-.247-.52 2.486 2.486 0 0 0-.207-.337 9.889 9.889 0 0 1-.311-.467 3.261 3.261 0 0 1-.17-.325l-.207-.44a14.172 14.172 0 0 0-.376-.546 33.523 33.523 0 0 1-.532-.766c-.27-.476-.545-.93-.831-1.362 0-.839.167-1.474.5-1.902.333-.428.833-.642 1.499-.642.043 0 .172.03.389.091.216.06.515.155.896.286.112.068.246.166.402.291.155.125.333.275.532.448l.506-1.194c-.225-.2-.45-.403-.675-.61a20.95 20.95 0 0 0-.688-.61 3.196 3.196 0 0 0-.818-.513 2.085 2.085 0 0 0-.817-.176c-.14 0-.35.016-.636.046a6.517 6.517 0 0 1-.65.046c-.483 0-.884.195-1.2.584-.316.39-.538.973-.667 1.752a.93.93 0 0 1-.072.207.827.827 0 0 1-.163.208 45.383 45.383 0 0 1-.395-.402 13.797 13.797 0 0 0-.552-.532z" fill="#f6f6f6"/><path d="M285.319 428.881l-.091.052c-.485-.468-.85-.908-1.096-1.324-.248-.415-.371-.818-.371-1.207a.99.99 0 0 0-.084-.305 6.712 6.712 0 0 0-.253-.55 21.304 21.304 0 0 1-.428-.884c-.164-.485-.29-.878-.376-1.18-.087-.304-.13-.52-.13-.65l.077-.104c.078.008.173.087.286.234.112.147.242.363.389.648.069.156.169.338.299.546.13.207.277.454.44.74.14.19.36.68.663 1.466.303.788.467 1.29.493 1.506.008.173.033.344.072.512.039.17.075.335.11.5m-6.19-10.188c.077.087.155.192.233.317.078.126.182.262.31.41l.858.753c.034.025.054.06.059.103.003.043.005.104.005.182a1.584 1.584 0 0 1-.04.273c0 .198.04.532.119 1 .078.466.147.747.208.842l-.08.247c.114.58.272 1.213.475 1.901.203.688.435 1.434.694 2.24.086.137.178.313.273.524l.324.721c.148.45.342.922.584 1.415.242.493.515 1 .818 1.518.407.683.768 1.2 1.083 1.545.317.345.6.52.85.52.503 0 .847-.099 1.032-.293.187-.195.28-.56.28-1.097 0-.139-.024-.352-.072-.642a4.382 4.382 0 0 1-.071-.656c0-.147-.048-.355-.143-.623a2.225 2.225 0 0 1-.142-.74.64.64 0 0 0-.066-.207l.013-.182a4.576 4.576 0 0 0-.155-.44 13.09 13.09 0 0 0-.273-.624c-.06-.216-.138-.467-.233-.753a22.991 22.991 0 0 0-.338-.934 10.225 10.225 0 0 0-.201-.319 14.81 14.81 0 0 1-.266-.42 2.498 2.498 0 0 0-.13-.39 5.98 5.98 0 0 0-.247-.52 2.486 2.486 0 0 0-.207-.337 9.889 9.889 0 0 1-.311-.467 3.261 3.261 0 0 1-.17-.325l-.207-.44a14.172 14.172 0 0 0-.376-.546 33.523 33.523 0 0 1-.532-.766c-.27-.476-.545-.93-.831-1.362 0-.839.167-1.474.5-1.902.333-.428.833-.642 1.499-.642.043 0 .172.03.389.091.216.06.515.155.896.286.112.068.246.166.402.291.155.125.333.275.532.448l.506-1.194c-.225-.2-.45-.403-.675-.61a20.95 20.95 0 0 0-.688-.61 3.196 3.196 0 0 0-.818-.513 2.085 2.085 0 0 0-.817-.176c-.14 0-.35.016-.636.046a6.517 6.517 0 0 1-.65.046c-.483 0-.884.195-1.2.584-.316.39-.538.973-.667 1.752a.93.93 0 0 1-.072.207.827.827 0 0 1-.163.208 45.383 45.383 0 0 1-.395-.402 13.797 13.797 0 0 0-.552-.532z" fill="#f6f6f6"/><path d="M290.601 422.911c-.19 0-.445-.249-.766-.746-.32-.498-.48-.863-.48-1.097 0-.052.011-.089.033-.11.022-.022.067-.033.136-.033.096 0 .173.05.233.15l.17.28c.095.085.188.178.278.278.091.1.18.196.266.292a1.4 1.4 0 0 1 .234.363.914.914 0 0 1 .078.364c0 .077-.015.14-.045.188a.153.153 0 0 1-.137.071m-4.152-4.218c.103.182.237.365.402.552.164.186.371.378.622.577l.078.513c.027.17.043.34.052.513.026.121.067.263.124.428.056.164.118.342.187.532.08.19.184.428.32.714.133.285.308.605.524.96.182.2.372.417.572.656.2.237.397.478.596.72.096.078.2.151.312.22.112.07.224.147.338.234.103.035.22.065.35.091.13.026.273.04.428.04.216 0 .392-.023.525-.066a.7.7 0 0 0 .331-.22c.061-.07.12-.174.176-.312.056-.139.111-.308.162-.506.026-.174.056-.364.091-.572 0 .053-.016.031-.046-.064a30.61 30.61 0 0 1-.136-.455l-.117-.415c-.12-.415-.393-.895-.817-1.44-.424-.545-.995-1.169-1.713-1.869a.785.785 0 0 1-.156-.227.677.677 0 0 1-.065-.292c0-.182.033-.342.097-.48a.68.68 0 0 1 .28-.312c.07-.052.18-.104.33-.156.152-.052.331-.099.54-.142.336.025.643.082.92.168.278.086.524.19.741.311a2.4 2.4 0 0 0 .207.111c.095.048.19.11.286.188.112-.25.212-.475.298-.675.086-.199.156-.372.208-.519-.494-.484-.942-.85-1.344-1.097-.403-.247-.772-.37-1.11-.37a1.486 1.486 0 0 0-.473-.187 2.97 2.97 0 0 0-.629-.059c-.32 0-.604.047-.85.143a1.582 1.582 0 0 0-.617.416 1.47 1.47 0 0 0-.26.382 7.35 7.35 0 0 0-.272.604c-.078.19-.152.33-.22.422-.07.09-.148.136-.234.136a.404.404 0 0 1-.234-.098 1.658 1.658 0 0 1-.286-.292 3.25 3.25 0 0 1-.18.48c-.087.19-.2.428-.338.714" fill="#f6f6f6"/><path d="M292.976 418.693c.138.182.276.372.415.571a11.865 11.865 0 0 1 1.551 1.5c.402.48.694.927.876 1.342l-.13.623c.112.216.392.472.837.766.446.294.806.441 1.084.441.294 0 .543-.086.746-.26.203-.172.4-.354.591-.545.094-.06.163-.108.207-.142.346-.26.606-.619.78-1.078.171-.458.258-1.016.258-1.674 0-.346-.134-.842-.402-1.486-.269-.645-.402-1.13-.402-1.459a.13.13 0 0 1 .045-.105.182.182 0 0 1 .124-.038c.112 0 .246.05.401.148.156.1.325.237.507.41.458.45.735.698.83.746.096.048.212.128.35.24.07-.173.152-.359.248-.558.094-.199.185-.412.272-.636-.078-.07-.167-.152-.267-.246a9.842 9.842 0 0 0-.356-.325 26.318 26.318 0 0 0-1.148-.785 63.5 63.5 0 0 0-1.694-1.058 2.34 2.34 0 0 0-.597-.273c-.363 0-.636.054-.817.163-.182.108-.273.283-.273.526 0 .094.02.205.06.33.037.126.091.261.161.41.052.111.107.226.168.344.06.116.112.234.156.355.19.546.335 1.052.435 1.52.1.466.15.886.15 1.258 0 .46-.072.81-.215 1.051a.824.824 0 0 1-.642.416 3.739 3.739 0 0 1-.623-.442 5.317 5.317 0 0 1-.688-.714 10.211 10.211 0 0 0-.676-.765c-.198-.199-.363-.334-.493-.402a2.15 2.15 0 0 0-.376-.44 5.205 5.205 0 0 0-.687-.534l-.079-.155a1.075 1.075 0 0 0-.168-.234c-.07.2-.147.396-.234.59-.087.195-.18.396-.285.604m27.293 0c.355-.753.532-1.15.532-1.194a6.056 6.056 0 0 0-.7-.61c-.295-.225-.653-.48-1.077-.765a7.578 7.578 0 0 0-1.136-.676c-.307-.139-.543-.207-.708-.207a1.72 1.72 0 0 0-.953.272c-.281.182-.521.468-.721.857-.026.052-.053.11-.084.176a2.44 2.44 0 0 1-.11.201c-.217.207-.425.414-.623.623-.096.103-.277.351-.545.746a30.5 30.5 0 0 0-1.013 1.615c-.181.32-.376.645-.584.974-.208.328-.424.661-.65 1-.06-.088-.126-.289-.2-.605a13.253 13.253 0 0 1-.214-1.29 1.84 1.84 0 0 0-.084-.43 1.78 1.78 0 0 1-.085-.44c0-.044.01-.115.033-.215.022-.099.032-.17.032-.214 0-.277-.04-.696-.117-1.258-.078-.563-.116-.983-.116-1.26 0-.225-.037-.389-.11-.492-.075-.104-.198-.157-.371-.157a2.04 2.04 0 0 0-.428.078 3.533 3.533 0 0 0-.364-.078c-.094 0-.17.06-.226.176-.057.116-.085.3-.085.551 0 .087.02.225.065.416.043.19.065.337.065.441 0 .07-.013.18-.04.33a2.23 2.23 0 0 0-.038.331c0 .07.019.287.058.65.039.363.102.887.189 1.57.078.701.146 1.255.208 1.661.059.407.103.653.129.74.026.061.06.134.104.221.043.086.073.19.09.311l-.194.74c.069.398.154.984.254 1.758.098.775.217 1.75.356 2.927l.182 1.61c.043.38.069.596.078.648.12.355.306.651.557.89.25.237.572.417.96.538.053.034.116.082.189.143.074.06.163.13.266.207.113.017.255-.138.428-.467.174-.329.26-.57.26-.727a2.208 2.208 0 0 0-.13-.688c-.06-.19-.107-.346-.142-.467a3.289 3.289 0 0 1-.065-.246 39.996 39.996 0 0 1-.468-1.79 96.08 96.08 0 0 1-.63-2.837 3.468 3.468 0 0 0-.11-.422 18.597 18.597 0 0 1-.09-.402 1.527 1.527 0 0 1-.04-.312c0-.112.044-.238.13-.376.26.095.676.45 1.247 1.065.57.615 1.306 1.476 2.206 2.584.917 1.126 1.605 2.042 2.064 2.747.458.706.687 1.202.687 1.488 0 .104-.066.236-.201.396-.134.16-.201.296-.201.41 0 .223.103.41.31.561.208.151.523.265.947.343.086.008.219.084.4.226.182.142.337.213.467.213.13-.026.25-.043.362-.052.148.078.289.16.428.246.132-.13.226-.275.284-.435.057-.16.086-.344.086-.55 0-.417-.05-.783-.15-1.098a1.693 1.693 0 0 0-.46-.759 2.913 2.913 0 0 1-.403-.416 7.128 7.128 0 0 0-.571-.973 20.106 20.106 0 0 0-.87-1.168 62.34 62.34 0 0 0-2.05-2.414 27.877 27.877 0 0 0-1.687-1.739 4.11 4.11 0 0 1-.467-.513c-.104-.143-.155-.266-.155-.37.146-.285.276-.549.388-.792.208-.5.427-.99.655-1.466.23-.476.458-.956.682-1.44.38-.727.734-1.27 1.058-1.629.324-.359.62-.539.889-.539.043 0 .173.05.389.15.217.098.502.24.856.42.079.114.246.25.5.411.255.16.387.265.396.317" fill="#f6f6f6"/><path d="M326.408 428.881l-.09.052c-.486-.468-.85-.908-1.097-1.324-.248-.415-.37-.818-.37-1.207a.99.99 0 0 0-.085-.305 6.712 6.712 0 0 0-.253-.55 21.304 21.304 0 0 1-.428-.884c-.164-.485-.29-.878-.376-1.18-.087-.304-.13-.52-.13-.65l.077-.104c.078.008.173.087.286.234.112.147.242.363.39.648.068.156.168.338.298.546.13.207.277.454.441.74.14.19.36.68.662 1.466.303.788.467 1.29.493 1.506.008.173.033.344.072.512.04.17.075.335.11.5m-6.19-10.188c.077.087.155.192.233.317.078.126.182.262.311.41l.857.753c.034.025.054.06.06.103.002.043.004.104.004.182a1.584 1.584 0 0 1-.039.273c0 .198.04.532.118 1 .078.466.147.747.208.842l-.079.247c.113.58.271 1.213.474 1.901.203.688.435 1.434.694 2.24.086.137.178.313.273.524l.324.721c.148.45.342.922.584 1.415.242.493.515 1 .818 1.518.407.683.768 1.2 1.083 1.545.317.345.6.52.851.52.502 0 .846-.099 1.031-.293.187-.195.28-.56.28-1.097 0-.139-.024-.352-.072-.642a4.382 4.382 0 0 1-.07-.656c0-.147-.049-.355-.144-.623a2.225 2.225 0 0 1-.142-.74.64.64 0 0 0-.066-.207l.013-.182a4.576 4.576 0 0 0-.155-.44 13.09 13.09 0 0 0-.273-.624c-.06-.216-.138-.467-.233-.753a22.991 22.991 0 0 0-.338-.934 10.225 10.225 0 0 0-.2-.319 14.81 14.81 0 0 1-.267-.42 2.498 2.498 0 0 0-.13-.39 5.98 5.98 0 0 0-.247-.52 2.486 2.486 0 0 0-.207-.337 9.239 9.239 0 0 1-.31-.467 3.261 3.261 0 0 1-.17-.325l-.208-.44a14.172 14.172 0 0 0-.376-.546 33.523 33.523 0 0 1-.532-.766c-.269-.476-.545-.93-.83-1.362 0-.839.166-1.474.5-1.902.332-.428.832-.642 1.498-.642.043 0 .172.03.39.091.215.06.514.155.895.286.112.068.246.166.402.291.155.125.333.275.532.448l.506-1.194c-.225-.2-.45-.403-.675-.61a20.95 20.95 0 0 0-.688-.61 3.196 3.196 0 0 0-.818-.513 2.085 2.085 0 0 0-.817-.176c-.139 0-.35.016-.636.046a6.517 6.517 0 0 1-.649.046c-.484 0-.885.195-1.2.584-.317.39-.539.973-.668 1.752a.93.93 0 0 1-.072.207.827.827 0 0 1-.163.208 45.383 45.383 0 0 1-.395-.402 13.797 13.797 0 0 0-.552-.532z" fill="#f6f6f6"/><path d="M327.952 419.265l1.181.778a2.211 2.211 0 0 1 .363.493c.06.113.141.208.24.286.1.078.214.147.344.208.07.086.17.194.3.324.13.13.293.28.492.454.095.052.216.128.363.228.148.099.308.23.481.396.787.743 1.477 1.3 2.07 1.673.592.372 1.092.558 1.5.558.224 0 .39-.047.498-.142a.508.508 0 0 0 .162-.402c0-.182-.032-.342-.097-.48a.874.874 0 0 0-.305-.351 39.077 39.077 0 0 1-.7-.52 6.291 6.291 0 0 0-.507-.577 5.828 5.828 0 0 0-.7-.603 7.323 7.323 0 0 1-.22-.3 13.775 13.775 0 0 0-.248-.232 5.542 5.542 0 0 0-.48-.39c-.087-.19-.275-.437-.564-.74-.29-.303-.678-.666-1.162-1.09a3.943 3.943 0 0 1-.324-.415 85.41 85.41 0 0 1-.61-.857l.09-.116c.19.06.39.164.598.31.207.148.436.343.687.585l.721.655c.185.169.317.28.395.33.061.037.121.07.182.105.061.035.13.078.208.13.397.476.77.828 1.115 1.058.347.229.667.344.961.344.182 0 .32-.072.415-.214.096-.143.152-.357.17-.643a31.808 31.808 0 0 1-.027-1.245 1.169 1.169 0 0 1 .227-.746.743.743 0 0 1 .63-.332c.077 0 .154.02.227.065.073.044.15.1.227.169.061.078.118.15.175.22.057.069.114.139.175.208a1.446 1.446 0 0 1 .338.247c.121-.26.222-.488.305-.682.082-.194.145-.365.188-.513a17.26 17.26 0 0 1-.59-.564 7.335 7.335 0 0 0-.617-.551 3.338 3.338 0 0 0-.753-.448 1.89 1.89 0 0 0-.727-.15c-.562 0-.995.16-1.297.48-.303.32-.48.806-.533 1.454 0 .078-.01.158-.032.24a.682.682 0 0 1-.137.253 2.691 2.691 0 0 0-.142-.135 3.182 3.182 0 0 1-.182-.19l-.422-.324a27.586 27.586 0 0 1-.59-.467 34.225 34.225 0 0 0-.766-.766c-.207-.2-.355-.341-.44-.427a5.587 5.587 0 0 0-.604-.442c-.23-.147-.487-.3-.773-.455a6.906 6.906 0 0 0-.467-.226.808.808 0 0 0-.285-.084c-.415 0-.723.1-.922.304-.199.203-.298.517-.298.942 0 .232.05.455.15.668.1.212.247.417.447.616.017.112.026.203.026.272a.344.344 0 0 1-.032.137c-.023.047-.05.102-.085.162l-.175.408c-.066.153-.137.315-.215.488.035.034.085.1.15.2.065.1.14.224.227.37" fill="#f6f6f6"/><path d="M337.518 418.693l.077.091c.035.121.11.251.228.388.116.14.283.278.5.417.285.181.507.328.668.44.16.113.256.195.292.247.078.095.13.17.155.221.096.07.212.164.35.285.139.121.294.268.468.442a.92.92 0 0 1 .195.207c.069.095.138.203.208.325.112.078.24.177.382.298.143.121.309.277.499.468.217.233.46.49.734.772.272.281.578.573.915.876.112.052.219.093.318.123.1.03.197.046.292.046.39 0 .682-.094.876-.28.195-.186.292-.452.292-.798a3.15 3.15 0 0 0-.046-.428c-.03-.199-.062-.45-.096-.753-.121-.874-.208-1.406-.26-1.596-.052-.19-.234-.788-.545-1.79a6.633 6.633 0 0 1-.215-.61l-.266-.884c.018-.034.06-.069.13-.104.06 0 .169.06.325.176.156.116.363.291.623.525.302.278.54.49.713.636.173.148.282.234.325.26l.286-.643c.086-.194.16-.378.22-.55a1.805 1.805 0 0 1-.305-.235 2.247 2.247 0 0 1-.253-.286 102.414 102.414 0 0 0-1.414-.92 8.55 8.55 0 0 0-.526-.474l-.747-.629-.246-.053a2.067 2.067 0 0 0-.344-.376 1.19 1.19 0 0 0-.292-.182 17.215 17.215 0 0 0-.415-.149c-.14-.047-.286-.098-.442-.149a.316.316 0 0 0-.207.168.663.663 0 0 0-.052.338 3.359 3.359 0 0 0-.311.805c-.078.303-.117.64-.117 1.012 0 .07.004.142.012.22.009.08.018.147.027.207-.061.226-.091.36-.091.403 0 .26.1.474.298.642.199.17.424.254.676.254.128 0 .222-.067.278-.2.057-.136.115-.202.176-.202.06 0 .123.118.187.356.066.238.128.586.189 1.045a12.022 12.022 0 0 1 .142 1.713c0 .113-.023.197-.071.254-.048.056-.128.084-.24.084-.113 0-.476-.26-1.09-.779a72.81 72.81 0 0 1-2.57-2.323 2.505 2.505 0 0 0-.15-.22 6.43 6.43 0 0 1-.226-.325c-.035.13-.095.29-.182.48-.086.19-.2.428-.337.714" fill="#f6f6f6"/><path d="M345.642 418.693l.077.091c.035.121.11.251.228.388.116.14.283.278.5.417.285.181.507.328.668.44.16.113.256.195.292.247.078.095.13.17.155.221.096.07.212.164.35.285.139.121.294.268.468.442a.92.92 0 0 1 .195.207c.069.095.138.203.208.325.112.078.24.177.382.298.143.121.309.277.499.468.217.233.46.49.734.772.272.281.578.573.915.876.112.052.219.093.318.123.1.03.197.046.292.046.39 0 .682-.094.876-.28.195-.186.292-.452.292-.798a3.15 3.15 0 0 0-.046-.428c-.03-.199-.062-.45-.096-.753-.121-.874-.208-1.406-.26-1.596-.052-.19-.234-.788-.545-1.79a6.633 6.633 0 0 1-.215-.61l-.266-.884c.018-.034.06-.069.13-.104.06 0 .169.06.325.176.156.116.363.291.623.525.302.278.54.49.713.636.173.148.282.234.325.26l.286-.643c.086-.194.16-.378.22-.55a1.805 1.805 0 0 1-.305-.235 2.247 2.247 0 0 1-.253-.286 102.414 102.414 0 0 0-1.414-.92 8.55 8.55 0 0 0-.526-.474l-.747-.629-.246-.053a2.067 2.067 0 0 0-.344-.376 1.19 1.19 0 0 0-.292-.182 17.215 17.215 0 0 0-.415-.149c-.14-.047-.286-.098-.442-.149a.316.316 0 0 0-.207.168.663.663 0 0 0-.052.338 3.359 3.359 0 0 0-.311.805c-.078.303-.117.64-.117 1.012 0 .07.004.142.012.22.009.08.018.147.027.207-.061.226-.091.36-.091.403 0 .26.1.474.298.642.199.17.424.254.676.254.128 0 .222-.067.278-.2.057-.136.115-.202.176-.202.06 0 .123.118.187.356.066.238.128.586.189 1.045a12.022 12.022 0 0 1 .142 1.713c0 .113-.023.197-.071.254-.048.056-.128.084-.24.084-.113 0-.476-.26-1.09-.779a72.81 72.81 0 0 1-2.57-2.323 2.505 2.505 0 0 0-.15-.22 6.43 6.43 0 0 1-.226-.325c-.035.13-.095.29-.182.48-.086.19-.2.428-.337.714" fill="#f6f6f6"/><path d="M357.919 422.911c-.19 0-.445-.249-.766-.746-.32-.498-.48-.863-.48-1.097 0-.052.01-.089.033-.11.022-.022.067-.033.136-.033.096 0 .173.05.233.15l.169.28c.096.085.189.178.279.278.09.1.18.196.266.292a1.4 1.4 0 0 1 .234.363.914.914 0 0 1 .078.364c0 .077-.015.14-.045.188a.153.153 0 0 1-.137.071m-4.152-4.218c.103.182.237.365.402.552.164.186.37.378.622.577l.078.513c.027.17.043.34.052.513.026.121.067.263.124.428.056.164.118.342.187.532.079.19.184.428.319.714.134.285.309.605.525.96.182.2.372.417.572.656.199.237.397.478.596.72.096.078.199.151.312.22.112.07.224.147.338.234.103.035.22.065.35.091.129.026.273.04.428.04.216 0 .392-.023.525-.066a.7.7 0 0 0 .33-.22c.062-.07.12-.174.177-.312.056-.139.11-.308.162-.506a42.6 42.6 0 0 1 .09-.572c0 .053-.015.031-.045-.064a30.61 30.61 0 0 1-.136-.455l-.117-.415c-.121-.415-.393-.895-.817-1.44-.424-.545-.995-1.169-1.713-1.869a.785.785 0 0 1-.156-.227.677.677 0 0 1-.065-.292c0-.182.033-.342.097-.48a.68.68 0 0 1 .279-.312c.07-.052.18-.104.33-.156.153-.052.332-.099.54-.142.337.025.644.082.92.168.279.086.525.19.742.311a2.4 2.4 0 0 0 .207.111c.095.048.19.11.286.188.112-.25.212-.475.298-.675.086-.199.156-.372.208-.519-.494-.484-.942-.85-1.344-1.097-.403-.247-.772-.37-1.11-.37a1.486 1.486 0 0 0-.473-.187 2.97 2.97 0 0 0-.63-.059c-.32 0-.603.047-.85.143a1.582 1.582 0 0 0-.616.416 1.47 1.47 0 0 0-.26.382 7.35 7.35 0 0 0-.272.604c-.078.19-.152.33-.221.422-.07.09-.147.136-.233.136a.404.404 0 0 1-.234-.098 1.658 1.658 0 0 1-.286-.292c-.034.13-.095.29-.181.48s-.2.428-.337.714" fill="#f6f6f6"/><path d="M360.295 418.693c.034.061.08.128.136.201.056.073.123.162.2.267.088.068.2.168.339.298.137.13.294.281.467.454.156.173.345.387.57.642l.818.928c.139.147.312.335.52.565.207.23.454.504.739.824.242.285.502.497.779.636.277.138.57.207.882.207.312 0 .54-.097.689-.292.146-.194.22-.478.22-.85 0-.199-.074-.579-.22-1.142a36.277 36.277 0 0 0-.69-2.232c-.076-.173-.15-.337-.22-.493a1.46 1.46 0 0 1-.103-.299 1.024 1.024 0 0 1-.026-.194c0-.052.03-.117.09-.195a.54.54 0 0 1 .124.104c.04.043.084.095.136.156.07.13.176.266.319.408.142.143.313.301.512.475a2.3 2.3 0 0 0 .305.433c.125.143.267.276.422.397.034.034.08.091.137.168.055.078.123.16.2.247.113.112.247.23.403.35.155.122.337.247.545.377.233.121.443.216.629.285.186.07.349.104.487.104.268 0 .506-.065.714-.195.207-.129.385-.333.532-.61.173-.536.337-1.033.493-1.492.095-.268.202-.467.318-.597a.526.526 0 0 1 .395-.195.69.69 0 0 1 .306.066.798.798 0 0 1 .253.194l.519-1.194a204.563 204.563 0 0 1-.91-.752 2.004 2.004 0 0 0-.556-.383 1.304 1.304 0 0 0-1.091.019 1.239 1.239 0 0 0-.467.39 1.924 1.924 0 0 0-.26.382c-.103.185-.224.418-.363.694a4.81 4.81 0 0 0-.383.448l-.5.655-.116.04a1.946 1.946 0 0 1-.486-.234 4.046 4.046 0 0 1-.512-.402c-.39-.347-.67-.562-.843-.649-.173-.087-.29-.187-.35-.299-.121-.208-.33-.476-.623-.805a35.554 35.554 0 0 0-1.101-1.168 34.75 34.75 0 0 0-.337-.33 32.799 32.799 0 0 0-.337-.319.987.987 0 0 0-.383-.2 1.827 1.827 0 0 0-.472-.059c-.347 0-.535.118-.565.356-.031.24-.058.48-.085.721.13.363.278.818.442 1.363.164.545.353 1.18.567 1.908 0 .043.015.101.045.174.03.075.066.171.109.293.043.112.073.21.09.291.017.082.026.155.026.215s-.022.108-.065.143c-.044.034-.112.052-.208.052-.087 0-.201-.052-.344-.156a3.447 3.447 0 0 1-.512-.494c-.243-.26-.437-.463-.584-.609-.148-.148-.247-.235-.3-.26a2.525 2.525 0 0 1-.304-.26 85.027 85.027 0 0 0-.395-.376l-.08-.155a1.075 1.075 0 0 0-.167-.234c-.035.13-.095.29-.182.48-.086.19-.2.428-.337.714" fill="#f6f6f6"/></g></svg>