<?xml version="1.0" encoding="UTF-8" standalone="no"?>
<svg
   xmlns:dc="http://purl.org/dc/elements/1.1/"
   xmlns:cc="http://creativecommons.org/ns#"
   xmlns:rdf="http://www.w3.org/1999/02/22-rdf-syntax-ns#"
   xmlns:svg="http://www.w3.org/2000/svg"
   xmlns="http://www.w3.org/2000/svg"
   viewBox="0 0 793.70081 1122.5197"
   height="1122.5197"
   width="793.70081"
   xml:space="preserve"
   id="svg2"
   version="1.1"><metadata
     id="metadata8"><rdf:RDF><cc:Work
         rdf:about=""><dc:format>image/svg+xml</dc:format><dc:type
           rdf:resource="http://purl.org/dc/dcmitype/StillImage" /></cc:Work></rdf:RDF></metadata><defs
     id="defs6"><clipPath
       id="clipPath20"
       clipPathUnits="userSpaceOnUse"><path
         id="path18"
         d="M 0,323.4691 H 595.2756 V 518.4206 H 0 Z" /></clipPath></defs><g
     transform="matrix(1.3333333,0,0,-1.3333333,0,1122.5197)"
     id="g10"><g
       id="g12" /><g
       id="g14"><g
         clip-path="url(#clipPath20)"
         id="g16"><path
           id="path22"
           style="fill:#444141;fill-opacity:1;fill-rule:nonzero;stroke:none"
           d="m 121.7361,338.4967 v 1.8704 h 7.9272 v -12.6006 h -1.729 v 4.0814 h -0.0734 c -0.7597,-2.7297 -2.9759,-4.4953 -5.4332,-4.4953 -5.056,0 -7.8905,3.9085 -7.8905,12.7735 0,8.8598 2.8345,12.7736 7.8905,12.7736 4.7102,0 6.8216,-3.0808 7.0993,-7.3351 h -2.2162 c 0,2.9707 -1.6295,5.4699 -4.8831,5.4699 -3.5313,0 -5.6742,-2.9131 -5.6742,-10.9084 0,-8.0005 2.1429,-10.9083 5.6742,-10.9083 3.327,0 5.1608,2.9812 5.1608,8.7602 v 0.5187 z" /><path
           id="path24"
           style="fill:#444141;fill-opacity:1;fill-rule:nonzero;stroke:none"
           d="m 143.1766,338.6041 c -0.0681,4.5687 -1.3517,6.2244 -3.9138,6.2244 -2.5568,0 -3.8404,-1.6557 -3.9085,-6.2244 z m 2.0434,-4.7416 c -0.3091,-3.9138 -2.4573,-6.5073 -5.9205,-6.5073 -3.8771,0 -6.1615,2.6982 -6.1615,9.6194 0,6.3711 2.2844,9.5933 6.3344,9.5933 4.0867,0 5.9205,-2.8083 5.9205,-8.9383 v -0.7597 h -10.0386 v -0.8645 c 0,-5.297 1.8704,-6.9212 3.9085,-6.9212 2.1848,0 3.5313,1.5561 3.8824,4.7783 z" /><path
           id="path26"
           style="fill:#444141;fill-opacity:1;fill-rule:nonzero;stroke:none"
           d="m 152.0568,336.9055 c -2.5935,1.0007 -3.5313,2.5254 -3.5313,4.3644 0,3.7723 2.3525,5.297 5.4699,5.297 3.4632,0 5.056,-1.7657 5.056,-5.1294 v -0.5134 h -2.0801 v 0.5134 c 0,2.3892 -1.1055,3.3951 -3.0074,3.3951 -2.4258,0 -3.3584,-1.2784 -3.3584,-3.1121 0,-1.2837 0.4139,-2.2896 2.4887,-3.086 l 3.0126,-1.1422 c 2.494,-0.9326 3.4266,-2.6616 3.4266,-4.6683 0,-3.1541 -1.7971,-5.4699 -5.6742,-5.4699 -3.7724,0 -5.6428,1.5561 -5.6428,5.7109 v 0.5868 h 2.0748 v -0.4872 c 0,-2.6983 1.1788,-4.0815 3.5313,-4.0815 2.2162,0 3.6361,1.247 3.6361,3.2903 0,1.6242 -0.6602,2.6669 -2.4939,3.3899 z" /><path
           id="path28"
           style="fill:#444141;fill-opacity:1;fill-rule:nonzero;stroke:none"
           d="m 172.3976,338.6041 c -0.0681,4.5687 -1.3518,6.2244 -3.9138,6.2244 -2.5568,0 -3.8405,-1.6557 -3.9086,-6.2244 z m 2.0434,-4.7416 c -0.3092,-3.9138 -2.4573,-6.5073 -5.9205,-6.5073 -3.8772,0 -6.1615,2.6982 -6.1615,9.6194 0,6.3711 2.2843,9.5933 6.3344,9.5933 4.0867,0 5.9205,-2.8083 5.9205,-8.9383 v -0.7597 h -10.0387 v -0.8645 c 0,-5.297 1.8705,-6.9212 3.9086,-6.9212 2.1848,0 3.5313,1.5561 3.8824,4.7783 z" /><path
           id="path30"
           style="fill:#444141;fill-opacity:1;fill-rule:nonzero;stroke:none"
           d="m 178.5051,327.7654 h 2.07479 v 24.71932 h -2.07479 z" /><path
           id="path32"
           style="fill:#444141;fill-opacity:1;fill-rule:nonzero;stroke:none"
           d="m 185.3897,327.7654 h 2.07479 v 24.71932 h -2.07479 z" /><path
           id="path34"
           style="fill:#444141;fill-opacity:1;fill-rule:nonzero;stroke:none"
           d="m 195.0385,336.9055 c -2.5935,1.0007 -3.5314,2.5254 -3.5314,4.3644 0,3.7723 2.3525,5.297 5.4699,5.297 3.4633,0 5.056,-1.7657 5.056,-5.1294 v -0.5134 h -2.08 v 0.5134 c 0,2.3892 -1.1055,3.3951 -3.0074,3.3951 -2.4258,0 -3.3584,-1.2784 -3.3584,-3.1121 0,-1.2837 0.4139,-2.2896 2.4887,-3.086 l 3.0126,-1.1422 c 2.4939,-0.9326 3.4265,-2.6616 3.4265,-4.6683 0,-3.1541 -1.7971,-5.4699 -5.6742,-5.4699 -3.7723,0 -5.6428,1.5561 -5.6428,5.7109 v 0.5868 h 2.0748 v -0.4872 c 0,-2.6983 1.1789,-4.0815 3.5313,-4.0815 2.2163,0 3.6362,1.247 3.6362,3.2903 0,1.6242 -0.6602,2.6669 -2.494,3.3899 z" /><path
           id="path36"
           style="fill:#444141;fill-opacity:1;fill-rule:nonzero;stroke:none"
           d="m 217.1418,333.8609 c -0.3144,-3.9138 -2.4573,-6.5073 -5.8472,-6.5073 -3.8771,0 -6.1615,2.6983 -6.1615,9.6247 0,6.3711 2.2844,9.5881 6.3344,9.5881 3.458,0 5.4647,-2.1168 5.6743,-5.8839 h -2.0748 c -0.241,2.8712 -1.3884,4.1496 -3.5995,4.1496 -2.2529,0 -4.1233,-1.3832 -4.1233,-7.8905 0,-6.9212 1.9752,-7.859 3.9138,-7.859 2.1114,0 3.4632,1.5613 3.809,4.7783 z" /><path
           id="path38"
           style="fill:#444141;fill-opacity:1;fill-rule:nonzero;stroke:none"
           d="m 220.693,352.4853 h 2.0748 v -8.8965 h 0.0734 c 0.5186,1.8652 2.3158,2.976 4.5006,2.976 2.803,0 4.7049,-1.4513 4.7049,-4.9145 v -13.8844 h -2.0748 v 13.2923 c 0,2.5306 -1.0426,3.7723 -3.1541,3.7723 -2.4206,0 -4.05,-1.8652 -4.05,-4.7049 v -12.3597 h -2.0748 z" /><path
           id="path40"
           style="fill:#444141;fill-opacity:1;fill-rule:nonzero;stroke:none"
           d="m 244.9733,338.1535 h -0.0681 c -0.2096,-0.6235 -1.3832,-1.006 -2.2163,-1.2103 l -1.729,-0.4506 c -2.0748,-0.5553 -3.1488,-1.6294 -3.1488,-3.809 0,-2.1481 1.1055,-3.5994 2.9026,-3.5994 2.5306,0 4.2596,1.9019 4.2596,5.1922 z m -8.7917,2.5254 c 0,3.7723 1.8024,5.8838 5.6795,5.8838 3.809,0 5.187,-1.97 5.187,-4.8779 v -10.8716 c 0,-1.0427 0.351,-1.5195 1.0793,-1.5195 h 0.5868 v -1.5246 c -0.3825,-0.1415 -0.6916,-0.2096 -0.9693,-0.2096 -1.6242,0 -2.6668,0.3825 -2.6668,2.2844 v 0.6235 h -0.0682 c -0.8278,-2.4259 -2.6982,-3.1175 -4.7416,-3.1175 -3.2222,0 -4.6735,2.0067 -4.6735,5.1975 0,2.4206 1.1055,4.3591 3.7042,5.0822 l 3.9138,1.1107 c 1.4513,0.4139 1.7605,0.765 1.7605,2.9079 0,2.3524 -1.3099,3.1803 -3.1803,3.1803 -2.4573,0 -3.5314,-1.4828 -3.5314,-4.1496 z" /><path
           id="path42"
           style="fill:#444141;fill-opacity:1;fill-rule:nonzero;stroke:none"
           d="m 252.5766,344.4161 h -2.5253 v 1.7342 h 2.5253 v 2.1796 c 0,2.5254 0.5187,4.4325 4.0134,4.4325 0.6235,0 0.9326,-0.0367 1.3203,-0.11 v -1.729 c -0.3144,0.0734 -0.6287,0.11 -1.0059,0.11 -1.5247,0 -2.253,-0.5973 -2.253,-2.7035 v -2.1796 h 3.2589 v -1.7342 h -3.2589 v -16.6507 h -2.0748 z" /><path
           id="path44"
           style="fill:#444141;fill-opacity:1;fill-rule:nonzero;stroke:none"
           d="m 261.4285,344.4161 h -2.5253 v 1.7342 h 2.5253 v 5.0875 h 2.0748 v -5.0875 h 3.2589 v -1.7342 h -3.2589 v -13.1875 c 0,-1.4565 0.6288,-1.9385 1.9753,-1.9385 0.4191,0 0.833,0.0681 1.2836,0.2043 v -1.729 c -0.241,-0.1362 -0.7597,-0.2096 -1.4565,-0.2096 -2.8031,0 -3.8772,0.765 -3.8772,3.2223 z" /><path
           id="path46"
           style="fill:#444141;fill-opacity:1;fill-rule:nonzero;stroke:none"
           d="m 279.1009,344.4161 h -2.5254 v 1.7342 h 2.5254 v 2.1796 c 0,2.5254 0.5135,4.4325 4.0134,4.4325 0.6235,0 0.9273,-0.0367 1.3151,-0.11 v -1.729 c -0.3144,0.0734 -0.6235,0.11 -1.006,0.11 -1.5194,0 -2.2477,-0.5973 -2.2477,-2.7035 v -2.1796 h 3.2537 v -1.7342 h -3.2537 v -16.6507 h -2.0748 z" /><path
           id="path48"
           style="fill:#444141;fill-opacity:1;fill-rule:nonzero;stroke:none"
           d="m 294.4261,352.6891 h 2.0747 v -3.5314 h -2.0747 z m -5.1923,0 h 2.0748 v -3.5314 h -2.0748 z m -2.0433,-6.5388 h 2.0748 v -12.9517 c 0,-2.9759 1.0059,-4.1181 3.1908,-4.1181 2.3524,0 4.0081,1.8705 4.0081,4.7102 v 12.3596 h 2.08 v -18.3849 h -1.8705 v 2.5673 h -0.0681 c -1.0374,-2.0486 -2.8397,-2.9812 -4.7102,-2.9812 -2.803,0 -4.7049,1.4566 -4.7049,4.9198 z" /><path
           id="path50"
           style="fill:#444141;fill-opacity:1;fill-rule:nonzero;stroke:none"
           d="m 303.0621,346.1509 h 2.0748 v -2.8764 h 0.0681 c 0.8016,2.0433 2.4992,3.2903 4.6421,3.2903 0.241,0 0.4872,-0.0367 0.7282,-0.1048 v -2.08 c -0.3457,0.0733 -0.6915,0.11 -1.0059,0.11 -2.2844,0 -4.4325,-1.6661 -4.4325,-5.2289 v -11.4952 h -2.0748 z" /><path
           id="path52"
           style="fill:#444141;fill-opacity:1;fill-rule:nonzero;stroke:none"
           d="m 322.1517,346.1509 h 1.8652 v -2.5621 h 0.0681 c 0.9746,2.0381 2.6302,2.976 4.6788,2.976 2.211,0 3.5575,-1.3518 3.8352,-3.217 h 0.0734 c 0.8278,2.0381 2.321,3.217 4.6735,3.217 2.562,0 4.2596,-1.4513 4.2596,-4.7416 v -14.0573 h -2.08 v 13.7429 c 0,2.1796 -1.0008,3.3217 -2.8712,3.3217 -2.08,0 -3.7357,-1.8652 -3.7357,-4.7049 v -12.3597 h -2.08 v 13.7429 c 0,2.1796 -1.0007,3.3217 -2.8764,3.3217 -2.0748,0 -3.7357,-1.8652 -3.7357,-4.7049 v -12.3597 h -2.0748 z" /><path
           id="path54"
           style="fill:#444141;fill-opacity:1;fill-rule:nonzero;stroke:none"
           d="m 355.527,338.6041 c -0.0681,4.5687 -1.3518,6.2244 -3.9138,6.2244 -2.5568,0 -3.8352,-1.6557 -3.9086,-6.2244 z m 2.0433,-4.7416 c -0.3091,-3.9138 -2.4572,-6.5073 -5.9152,-6.5073 -3.8771,0 -6.1667,2.6982 -6.1667,9.6194 0,6.3711 2.2896,9.5933 6.3344,9.5933 4.0867,0 5.9204,-2.8083 5.9204,-8.9383 v -0.7597 h -10.0386 v -0.8645 c 0,-5.297 1.8705,-6.9212 3.9086,-6.9212 2.1848,0 3.5313,1.5561 3.8771,4.7783 z" /><path
           id="path56"
           style="fill:#444141;fill-opacity:1;fill-rule:nonzero;stroke:none"
           d="m 361.4983,352.4853 h 2.0748 v -8.8965 h 0.0733 c 0.524,1.8652 2.3211,2.976 4.5059,2.976 2.8031,0 4.7049,-1.4513 4.7049,-4.9145 v -13.8844 h -2.08 v 13.2923 c 0,2.5306 -1.0426,3.7723 -3.1488,3.7723 -2.4259,0 -4.0553,-1.8652 -4.0553,-4.7049 v -12.3597 h -2.0748 z" /><path
           id="path58"
           style="fill:#444141;fill-opacity:1;fill-rule:nonzero;stroke:none"
           d="m 377.3699,346.1509 h 2.0748 v -2.8764 h 0.0733 c 0.8017,2.0433 2.494,3.2903 4.6369,3.2903 0.2462,0 0.4872,-0.0367 0.7283,-0.1048 v -2.08 c -0.3458,0.0733 -0.6916,0.11 -1.006,0.11 -2.2791,0 -4.4325,-1.6661 -4.4325,-5.2289 v -11.4952 h -2.0748 z" /><path
           id="path60"
           style="fill:#444141;fill-opacity:1;fill-rule:nonzero;stroke:none"
           d="m 397.6824,352.4853 h 3.8404 l 5.9572,-21.9477 h 0.0681 l 5.9572,21.9477 h 3.6361 v -24.7194 h -2.2215 v 22.6446 h -0.0734 l -6.3972,-22.6446 h -2.08 l -6.3973,22.6446 h -0.0734 v -22.6446 h -2.2162 z" /><path
           id="path62"
           style="fill:#444141;fill-opacity:1;fill-rule:nonzero;stroke:none"
           d="m 431.0577,338.6041 c -0.0681,4.5687 -1.3518,6.2244 -3.9086,6.2244 -2.5568,0 -3.8405,-1.6557 -3.9086,-6.2244 z m 2.0486,-4.7416 c -0.3144,-3.9138 -2.4573,-6.5073 -5.9205,-6.5073 -3.8772,0 -6.1668,2.6982 -6.1668,9.6194 0,6.3711 2.2896,9.5933 6.3344,9.5933 4.0867,0 5.9258,-2.8083 5.9258,-8.9383 v -0.7597 h -10.0387 v -0.8645 c 0,-5.297 1.8652,-6.9212 3.9086,-6.9212 2.1796,0 3.5313,1.5561 3.8771,4.7783 z" /><path
           id="path64"
           style="fill:#444141;fill-opacity:1;fill-rule:nonzero;stroke:none"
           d="m 439.9405,336.9055 c -2.5935,1.0007 -3.5313,2.5254 -3.5313,4.3644 0,3.7723 2.3524,5.297 5.4698,5.297 3.4633,0 5.056,-1.7657 5.056,-5.1294 v -0.5134 h -2.08 v 0.5134 c 0,2.3892 -1.1055,3.3951 -3.0126,3.3951 -2.4259,0 -3.3532,-1.2784 -3.3532,-3.1121 0,-1.2837 0.4191,-2.2896 2.4887,-3.086 l 3.0126,-1.1422 c 2.4939,-0.9326 3.4318,-2.6616 3.4318,-4.6683 0,-3.1541 -1.8023,-5.4699 -5.6795,-5.4699 -3.7776,0 -5.6428,1.5561 -5.6428,5.7109 v 0.5868 h 2.0748 v -0.4872 c 0,-2.6983 1.1789,-4.0815 3.5366,-4.0815 2.211,0 3.6309,1.247 3.6309,3.2903 0,1.6242 -0.6602,2.6669 -2.494,3.3899 z" /><path
           id="path66"
           style="fill:#444141;fill-opacity:1;fill-rule:nonzero;stroke:none"
           d="m 453.9086,336.9055 c -2.5882,1.0007 -3.5313,2.5254 -3.5313,4.3644 0,3.7723 2.3525,5.297 5.4751,5.297 3.458,0 5.056,-1.7657 5.056,-5.1294 v -0.5134 h -2.08 v 0.5134 c 0,2.3892 -1.1055,3.3951 -3.0126,3.3951 -2.4259,0 -3.3585,-1.2784 -3.3585,-3.1121 0,-1.2837 0.4192,-2.2896 2.494,-3.086 l 3.0074,-1.1422 c 2.4991,-0.9326 3.4317,-2.6616 3.4317,-4.6683 0,-3.1541 -1.8023,-5.4699 -5.6794,-5.4699 -3.7724,0 -5.6376,1.5561 -5.6376,5.7109 v 0.5868 h 2.0748 v -0.4872 c 0,-2.6983 1.1789,-4.0815 3.5313,-4.0815 2.2163,0 3.6309,1.247 3.6309,3.2903 0,1.6242 -0.6549,2.6669 -2.4887,3.3899 z" /><path
           id="path68"
           style="fill:#444141;fill-opacity:1;fill-rule:nonzero;stroke:none"
           d="m 474.252,338.6041 c -0.0733,4.5687 -1.3517,6.2244 -3.9138,6.2244 -2.562,0 -3.8404,-1.6557 -3.9138,-6.2244 z m 2.0434,-4.7416 c -0.3144,-3.9138 -2.4625,-6.5073 -5.9205,-6.5073 -3.8771,0 -6.1615,2.6982 -6.1615,9.6194 0,6.3711 2.2844,9.5933 6.3344,9.5933 4.0815,0 5.9152,-2.8083 5.9152,-8.9383 v -0.7597 h -10.0386 v -0.8645 c 0,-5.297 1.8705,-6.9212 3.9138,-6.9212 2.1848,0 3.5314,1.5561 3.8772,4.7783 z" /><path
           id="path70"
           style="fill:#444141;fill-opacity:1;fill-rule:nonzero;stroke:none"
           d="m 486.1071,329.0821 c 2.0748,0 4.0186,1.074 4.0186,7.8957 0,6.785 -1.9438,7.8538 -4.0186,7.8538 -2.1114,0 -4.0186,-1.0688 -4.0186,-7.8538 0,-6.8217 1.9072,-7.8957 4.0186,-7.8957 m -6.0933,23.4042 h 2.0747 v -9.106 h 0.0734 c 0.4506,1.9386 2.0067,3.1855 4.2858,3.1855 4.0553,0 5.889,-3.2536 5.889,-9.588 0,-6.3711 -1.8337,-9.6247 -5.889,-9.6247 -2.1796,0 -3.94,1.3517 -4.4954,3.458 h -0.0681 v -3.0441 h -1.8704 z" /><path
           id="path72"
           style="fill:#444141;fill-opacity:1;fill-rule:nonzero;stroke:none"
           d="m 504.5062,338.1535 h -0.0681 c -0.2096,-0.6235 -1.3832,-1.006 -2.2215,-1.2103 l -1.729,-0.4506 c -2.0748,-0.5553 -3.1488,-1.6294 -3.1488,-3.809 0,-2.1481 1.1107,-3.5994 2.9078,-3.5994 2.5254,0 4.2596,1.9019 4.2596,5.1922 z m -8.7969,2.5254 c 0,3.7723 1.8024,5.8838 5.6795,5.8838 3.809,0 5.1922,-1.97 5.1922,-4.8779 v -10.8716 c 0,-1.0427 0.3458,-1.5195 1.0741,-1.5195 h 0.592 v -1.5246 c -0.3825,-0.1415 -0.6968,-0.2096 -0.9745,-0.2096 -1.6242,0 -2.6564,0.3825 -2.6564,2.2844 v 0.6235 h -0.0733 c -0.8278,-2.4259 -2.7035,-3.1175 -4.7416,-3.1175 -3.2222,0 -4.6735,2.0067 -4.6735,5.1975 0,2.4206 1.1055,4.3591 3.7042,5.0822 l 3.9085,1.1107 c 1.4514,0.4139 1.7657,0.765 1.7657,2.9079 0,2.3524 -1.3151,3.1803 -3.1855,3.1803 -2.4573,0 -3.5314,-1.4828 -3.5314,-4.1496 z" /><path
           id="path74"
           style="fill:#444141;fill-opacity:1;fill-rule:nonzero;stroke:none"
           d="m 511.3473,346.1509 h 2.0747 v -12.9517 c 0,-2.976 1.006,-4.1182 3.1856,-4.1182 2.3524,0 4.0186,1.8705 4.0186,4.7102 v 12.3597 h 2.0748 v -18.385 h -1.8705 v 2.5621 h -0.0734 c -1.0373,-2.0434 -2.8344,-2.976 -4.7049,-2.976 -2.8031,0 -4.7049,1.4513 -4.7049,4.9198 z" /><path
           id="path76"
           style="fill:#444141;fill-opacity:1;fill-rule:nonzero;stroke:none"
           d="m 536.1724,346.1509 h 1.8652 v -2.5621 h 0.0734 c 0.9745,2.0381 2.6301,2.976 4.6735,2.976 2.2162,0 3.5627,-1.3518 3.8404,-3.217 h 0.0734 c 0.8278,2.0381 2.3158,3.217 4.6683,3.217 2.5672,0 4.2648,-1.4513 4.2648,-4.7416 v -14.0573 h -2.08 v 13.7429 c 0,2.1796 -1.006,3.3217 -2.8712,3.3217 -2.08,0 -3.7409,-1.8652 -3.7409,-4.7049 v -12.3597 h -2.08 v 13.7429 c 0,2.1796 -1.0007,3.3217 -2.8712,3.3217 -2.0748,0 -3.7409,-1.8652 -3.7409,-4.7049 v -12.3597 h -2.0748 z" /><path
           id="path78"
           style="fill:#444141;fill-opacity:1;fill-rule:nonzero;stroke:none"
           d="m 566.161,329.0821 c 2.0747,0 4.0133,1.074 4.0133,7.8957 0,6.785 -1.9386,7.8538 -4.0133,7.8538 -2.1115,0 -4.0239,-1.0688 -4.0239,-7.8538 0,-6.8217 1.9124,-7.8957 4.0239,-7.8957 m -6.0934,23.4042 h 2.0695 v -9.106 h 0.0734 c 0.4506,1.9386 2.0066,3.1855 4.291,3.1855 4.0553,0 5.8891,-3.2536 5.8891,-9.588 0,-6.3711 -1.8338,-9.6247 -5.8891,-9.6247 -2.1796,0 -3.9452,1.3517 -4.4954,3.458 h -0.0733 v -3.0441 h -1.8652 z" /><path
           id="path80"
           style="fill:#444141;fill-opacity:1;fill-rule:nonzero;stroke:none"
           d="m 587.9473,340.0931 h -9.6562 v -12.3282 h -2.2162 v 24.7193 h 2.2162 v -10.5259 h 9.6562 v 10.5259 h 2.2215 v -24.7193 h -2.2215 z" /><path
           id="path82"
           style="fill:#444141;fill-opacity:1;fill-rule:nonzero;stroke:none"
           d="M 101.2465,441.1196 H 77.05637 v 21.8743 c 0,3.0231 1.27841,5.8681 3.58373,8.0163 2.21101,2.059 5.13457,3.2379 8.26248,3.3584 h 0.4925 c 3.1279,-0.1205 6.06194,-1.2994 8.27295,-3.3584 2.30532,-2.1482 3.57847,-4.9932 3.57847,-8.0163 z m 4.6421,-4.9145 c 0.6287,0 1.1422,0.5449 1.1422,1.1159 v 26.396 c 0,8.603 -7.77524,15.6028 -17.33184,15.6028 h -1.10027 c -9.55136,0 -17.32134,-6.9998 -17.32134,-15.6028 v -50.8795 c 0,-8.6135 7.76998,-15.6133 17.32134,-15.6133 h 1.10027 c 9.49373,0 17.23224,6.9159 17.33184,15.4456 l -0.005,9.017 v 1.9333 c 0,0.5763 -0.5134,1.0374 -1.1421,1.0374 h -3.4895 c -0.6287,0 -1.1421,-0.4611 -1.1421,-1.0374 l -0.0105,-1.4985 0.005,-8.5663 c 0,-3.0179 -1.27315,-5.8681 -3.57847,-8.011 -2.21101,-2.0538 -5.14505,-2.8345 -8.27295,-2.9498 v -0.005 h -0.4925 v 0.005 c -3.12791,0.1153 -6.05147,0.896 -8.26248,2.9498 -2.30532,2.1429 -3.58373,4.9931 -3.58373,8.011 v 22.6498 h 22.02105 6.81118 z" /><path
           id="path84"
           style="fill:#444141;fill-opacity:1;fill-rule:nonzero;stroke:none"
           d="m 232.2715,441.1196 h -24.1902 v 21.8743 c 0,3.0231 1.2784,5.8681 3.5838,8.0163 2.211,2.059 5.1345,3.2379 8.2624,3.3584 h 0.4925 c 3.1279,-0.1205 6.062,-1.2994 8.273,-3.3584 2.3053,-2.1482 3.5785,-4.9932 3.5785,-8.0163 z m 4.6421,-4.9145 c 0.6287,0 1.1421,0.5449 1.1421,1.1159 v 26.396 c 0,8.603 -7.7752,15.6028 -17.3318,15.6028 h -1.1002 c -9.5514,0 -17.3214,-6.9998 -17.3214,-15.6028 v -50.8795 c 0,-8.6135 7.77,-15.6133 17.3214,-15.6133 h 1.1002 c 9.4938,0 17.2323,6.9159 17.3318,15.4456 l -0.005,9.017 v 1.9333 c 0,0.5763 -0.5135,1.0374 -1.1422,1.0374 h -3.4894 c -0.6287,0 -1.1422,-0.4611 -1.1422,-1.0374 l -0.0105,-1.4985 0.005,-8.5663 c 0,-3.0179 -1.2732,-5.8681 -3.5785,-8.011 -2.211,-2.0538 -5.1451,-2.8345 -8.273,-2.9498 v -0.005 h -0.4925 v 0.005 c -3.1279,0.1153 -6.0514,0.896 -8.2624,2.9498 -2.3054,2.1429 -3.5838,4.9931 -3.5838,8.011 v 22.6498 h 22.0211 6.8112 z" /><path
           id="path86"
           style="fill:#444141;fill-opacity:1;fill-rule:nonzero;stroke:none"
           d="m 344.6291,414.7996 c 0,-4.9459 -3.7933,-8.9802 -9.1951,-9.0903 h -0.5553 c -5.4123,0.1101 -9.7662,4.1444 -9.7662,9.0903 v 7.8014 4.5007 c 0,5.0245 4.4849,9.1112 10.0072,9.1112 h 9.5199 z m -10.2744,64.7429 c -10.1643,0 -18.4111,-7.4923 -18.4111,-16.7346 v -3.6099 c 0,-0.9274 0.8278,-1.6766 1.8338,-1.6766 h 5.5118 c 1.0164,0 1.8233,0.7492 1.8233,1.6766 v 2.9026 c 0,4.9512 3.8509,8.975 9.2579,9.0903 -0.0733,0.005 0.5869,0.005 0.5083,0 5.4017,-0.1153 9.7504,-4.1391 9.7504,-9.0903 v -17.5519 h -1.8285 l -8.4459,0.0105 c -10.1643,0 -18.4111,-7.4975 -18.4111,-16.7555 v -5.2027 -8.5034 c 0,-9.2528 8.2468,-16.745 18.4111,-16.745 h 1.0427 c 10.1748,0 18.4111,7.4922 18.4111,16.745 v 48.7103 c 0,9.2423 -8.2363,16.7346 -18.4111,16.7346 z" /><path
           id="path88"
           style="fill:#444141;fill-opacity:1;fill-rule:nonzero;stroke:none"
           d="m 484.091,457.8965 v -13.5909 h -19.5114 v 13.921 l -0.005,3.5942 c 0,5.0246 4.0605,9.1742 9.1375,9.1742 h 1.2469 c 4.4535,0 9.1322,-3.4371 9.1322,-9.1742 v -3.9243 z m -9.2317,21.45 h -1.0584 c -10.1591,0 -18.4006,-7.5028 -18.4006,-16.7502 v -48.6999 c 0,-9.2475 8.2415,-16.745 18.4006,-16.745 h 1.0584 c 10.1591,0 18.4059,7.4975 18.4059,16.745 v 9.3732 c 0,0.9221 -0.8174,1.6713 -1.8338,1.6713 h -5.5118 c -1.0165,0 -1.839,-0.7492 -1.839,-1.6713 l 0.0104,-8.8964 c 0,-5.7319 -4.6787,-9.1742 -9.1322,-9.1742 h -1.2469 c -5.077,0 -9.1375,4.1496 -9.1375,9.1742 l 0.005,5.4489 v 16.6769 h 26.8518 c 1.0164,0 1.8338,0.7492 1.8338,1.6713 v 24.426 c 0,9.2474 -8.2468,16.7502 -18.4059,16.7502" /><path
           id="path90"
           style="fill:#444141;fill-opacity:1;fill-rule:nonzero;stroke:none"
           d="m 516.2895,477.3906 h -12.3911 v -78.2289 c 0,-0.9064 0.8174,-1.6556 1.8338,-1.6556 h 5.5223 c 1.0165,0 1.8495,0.7492 1.8495,1.6556 v 64.4599 c 0,4.904 -0.2096,5.428 2.4154,5.428 4.9669,0 10.0229,-4.05 10.0229,-9.0694 v -4.291 c 0,-0.9169 0.8173,-1.6661 1.8233,-1.6661 h 5.5432 c 1.006,0 1.8338,0.7492 1.8338,1.6661 v 4.9931 c 0,9.2213 -8.2625,16.7083 -18.4531,16.7083" /><path
           id="path92"
           style="fill:#444141;fill-opacity:1;fill-rule:nonzero;stroke:none"
           d="m 191.7125,465.0907 c 0,7.7962 -6.7692,14.2039 -13.68,14.2039 l -2.3839,0.0629 -2.1586,-0.0629 c -6.916,0 -13.0827,-6.3239 -13.0827,-14.1201 l -0.0629,-3.1698 c -0.0733,-7.6652 1.2208,-10.3163 2.4154,-12.4277 2.2634,-4.0186 10.8507,-11.2909 14.8379,-14.8903 0.9116,-0.8069 1.5037,-1.5771 1.9385,-2.0014 2.5097,-2.4154 3.6938,-4.0396 4.8569,-6.4602 0.7073,-1.4303 1.0165,-3.327 1.2837,-5.5328 0.1519,-1.2574 0.2986,-4.2334 0.0104,-6.5858 -0.3772,-3.0336 -0.9954,-5.3494 -2.8449,-7.7962 -1.3099,-1.7238 -4.4168,-3.4999 -7.178,-3.4475 h -1.2888 c -3.1384,-0.0524 -5.9834,1.4356 -8.1315,3.8195 -2.0853,2.321 -3.2694,5.187 -3.3585,8.4511 -0.0419,1.7185 0.005,6.8845 0.005,6.8845 v 1.97 c 0,0.5868 -0.524,1.0584 -1.1684,1.0584 h -3.5523 c -0.6444,0 -1.1631,-0.4716 -1.1631,-1.0584 l -0.0157,-1.5246 0.0157,-7.6914 c 0.2777,-9.6771 8.0267,-17.6829 16.4778,-17.6829 l 1.2731,-0.0105 1.4409,0.0105 c 8.4511,0 15.3303,7.7438 15.3303,17.2428 v 3.3374 c 0,0.6445 0,2.3368 -0.2934,4.4954 -0.3196,2.4049 -1.0426,4.9826 -2.0224,7.2513 -1.5718,3.6256 -4.1757,6.0043 -7.1884,8.755 -0.2986,0.2672 -10.6621,9.8133 -12.9098,12.9202 -1.5089,2.0748 -2.059,3.4737 -2.5463,5.2918 -0.4925,1.8443 -0.6287,3.8038 -0.6287,5.6742 l 0.0943,1.7343 c 0.0367,2.6982 0.6706,5.3389 2.4153,7.2617 1.8024,1.97 4.1968,3.0546 6.7588,3.0546 h 1.0898 c 2.583,0 4.9984,-1.1003 6.8007,-3.1017 1.75,-1.9491 2.7192,-4.5111 2.7192,-7.2356 l -0.005,-5.6428 v -1.97 c 0,-0.5868 0.5187,-1.0583 1.1631,-1.0583 h 3.5576 c 0.6392,0 1.1631,0.4715 1.1631,1.0583 l 0.0157,1.5247 v 7.4084 z" /><path
           id="path94"
           style="fill:#444141;fill-opacity:1;fill-rule:nonzero;stroke:none"
           d="m 149.3779,465.0855 c 0,7.7909 -6.7587,14.2039 -13.6695,14.2039 l -2.3839,0.0576 -2.1638,-0.0576 c -6.9108,0 -13.0775,-6.3239 -13.0775,-14.1201 l -0.0629,-3.1803 c -0.0681,-7.6652 1.2208,-10.3006 2.4154,-12.4173 2.2686,-4.0186 10.8507,-11.296 14.8379,-14.8955 0.9064,-0.8069 1.5037,-1.5718 1.9385,-1.9962 2.5097,-2.4153 3.6938,-4.0395 4.8569,-6.4654 0.7126,-1.4303 1.0165,-3.327 1.2784,-5.5275 0.1624,-1.2679 0.3039,-4.2334 0.0105,-6.5806 -0.372,-3.0441 -0.9902,-5.3547 -2.8397,-7.8014 -1.3046,-1.7395 -4.4168,-3.5104 -7.1832,-3.4528 -0.0943,0.005 -1.1527,0.005 -1.2836,0 -3.1384,-0.0524 -5.9834,1.4408 -8.1315,3.8247 -2.0853,2.3158 -3.2694,5.1818 -3.3585,8.4511 -0.0419,1.7186 0.005,6.8741 0.005,6.8741 v 1.9752 c 0,0.5868 -0.524,1.0584 -1.1632,1.0584 h -3.5575 c -0.6444,0 -1.1631,-0.4716 -1.1631,-1.0584 l -0.0158,-1.5246 0.0158,-7.6233 c 0.2777,-9.6771 8.0267,-17.7457 16.4778,-17.7457 l 1.2731,-0.0157 1.4409,0.0157 c 8.451,0 15.3303,7.7385 15.3303,17.2427 v 3.3323 c 0,0.6444 0,2.342 -0.2934,4.4953 -0.3196,2.4101 -1.0426,4.9879 -2.0224,7.2513 -1.5718,3.6256 -4.1757,6.0096 -7.1884,8.755 -0.2986,0.2724 -10.6621,9.8133 -12.9098,12.915 -1.5089,2.08 -2.059,3.479 -2.5463,5.3023 -0.4925,1.8337 -0.6287,3.8037 -0.6287,5.6794 l 0.0943,1.729 c 0.0367,2.6983 0.6706,5.3389 2.4153,7.2565 1.8024,1.9753 4.1968,3.0598 6.7588,3.0598 h 1.0898 c 2.5778,0 4.9984,-1.1055 6.8007,-3.1017 1.7552,-1.9543 2.714,-4.5111 2.714,-7.2408 l -0.005,-5.6375 v -1.97 c 0,-0.5868 0.5292,-1.0584 1.1684,-1.0584 h 3.5523 c 0.6445,0 1.1684,0.4716 1.1684,1.0584 l 0.0157,1.5246 z" /><path
           id="path96"
           style="fill:#444141;fill-opacity:1;fill-rule:nonzero;stroke:none"
           d="m 35.79062,457.4208 c 0,0 0.08383,5.035 0.24625,6.7169 0.24625,2.5935 1.12646,4.9826 2.67731,6.7221 1.54038,1.729 3.62564,2.7297 6.09338,2.934 0.20434,0.021 1.22602,0.021 1.45655,0 2.4625,-0.1991 4.74162,-1.1893 6.49681,-2.803 1.97,-1.8233 2.89213,-4.2492 3.05979,-6.8164 l -0.0052,-65.7279 c 0,-0.5606 0.50298,-1.0321 1.12646,-1.0321 h 3.44226 c 0.62873,0 1.13695,0.4715 1.13695,1.0321 l 0.01047,64.9629 c 0,7.9638 -5.42798,16.0115 -15.79668,16.0115 -1.75519,0 -3.29556,-0.1677 -4.69447,-0.5344 -2.54109,-0.9483 -4.69447,-2.5725 -6.40774,-4.5478 -0.38771,-0.4401 -1.49322,-1.6451 -1.49322,-1.6451 0,0 -1.08455,1.1998 -1.47226,1.6451 -1.24173,1.4461 -2.64588,2.7035 -4.30676,3.6361 -0.25673,0.1363 -0.3458,0.1782 -0.73875,0.3249 -0.19385,0.0838 -2.20053,1.1212 -6.49157,1.1212 -10.37394,0 -15.796682,-8.0477 -15.796682,-16.0115 v -64.9629 c 0,-0.5606 0.497739,-1.0321 1.131703,-1.0321 h 3.447501 c 0.618245,0 1.121228,0.4715 1.121228,1.0321 l 0.01047,65.7279 c 0,2.5777 1.08979,4.9931 3.06503,6.8164 1.74995,1.6137 4.03431,2.6039 6.49157,2.803 0.18862,0.0315 1.1579,0.0367 1.45655,0 2.4625,-0.2043 4.55824,-1.205 6.09862,-2.934 1.54561,-1.7395 2.40487,-4.0553 2.69303,-6.654 0.18862,-1.6818 0.22529,-6.8007 0.22529,-6.8007 v -58.9586 c 0,-0.5606 0.50822,-1.0321 1.13171,-1.0321 h 3.44226 c 0.62348,0 1.12646,0.4715 1.12646,1.0321 l 0.01572,58.9743 z" /><path
           id="path98"
           style="fill:#444141;fill-opacity:1;fill-rule:nonzero;stroke:none"
           d="m 446.0391,398.8002 c 0,-0.9274 -0.8173,-1.378 -1.8338,-1.378 l -5.4122,0.0105 c -1.0165,0 -1.9281,0.9693 -1.9281,1.8914 l 0.005,52.5823 v 10.1853 c 0,4.9407 -3.3689,9.5409 -8.7759,9.6562 h -1.9543 c -5.407,-0.1153 -8.7759,-4.7155 -8.7759,-9.6562 v -62.7728 c 0,-0.9274 -0.8279,-1.8967 -1.8495,-1.8967 l -5.4071,0.0105 c -1.0112,0 -1.8495,0.9693 -1.8495,1.8914 v 49.1872 56.035 5.4018 1.9752 c 0,0.9221 0.8279,1.8862 1.8548,1.8862 h 5.4018 c 1.0216,0 1.8495,-0.9641 1.8495,-1.8862 v -1.9752 -32.7199 c 0.0209,0.0577 0.5501,0.3249 0.5501,0.3249 2.583,1.2574 5.5275,1.9752 8.6711,1.9752 h 1.0532 c 10.1696,0 18.4006,-7.5028 18.4006,-16.7502 v -27.6482 -36.3297 z" /><path
           id="path100"
           style="fill:#444141;fill-opacity:1;fill-rule:nonzero;stroke:none"
           d="m 282.4421,463.4534 c 0,4.05 3.3217,7.3037 7.749,7.4085 -0.0681,0.005 -0.2306,0.005 -0.2987,0 4.4221,-0.1048 7.9953,-3.3689 7.9953,-7.4137 v -64.1298 c 0,-0.9274 0.8226,-1.8862 1.839,-1.8862 l 5.4123,-0.0105 c 1.0164,0 1.8442,1.0846 1.8442,2.0067 v 62.9929 c 0,9.2736 -6.4758,17.0908 -16.8969,17.0908 -2.2739,0 -3.8771,-0.2882 -5.0455,-0.6078 -2.7088,-0.9902 -5.1346,-2.6511 -6.9684,-4.9145 -1.4041,1.7132 -3.1279,3.1226 -5.056,4.1443 0,0 -2.3524,1.378 -7.377,1.378 -10.4263,0 -16.9022,-7.5133 -16.9022,-16.7922 v -63.4068 c 0,-0.9273 0.8331,-1.8757 1.8495,-1.8757 l 5.4071,-0.005 c 1.0164,0 1.8494,0.9588 1.8494,1.8862 v 64.1298 c 0,4.0448 3.2694,7.3089 7.6967,7.4137 -0.0681,0.005 0.3562,0.005 0.2934,0 4.422,-0.1048 7.4818,-3.4266 7.4818,-7.4871 l -0.005,-63.9569 c 0,-0.9221 0.8279,-1.9805 1.8443,-1.9805 h 5.4123 c 1.0164,0 1.8442,1.0636 1.8442,1.9857 l 0.0315,64.0303 z" /><path
           id="path102"
           style="fill:#444141;fill-opacity:1;fill-rule:nonzero;stroke:none"
           d="m 382.8241,479.5451 h -2.6616 c -9.3313,0 -16.9127,-7.4976 -16.9127,-16.7293 v -48.658 c 0,-9.2422 7.5814,-16.7345 16.9127,-16.7345 h 2.6616 c 9.3418,0 16.9231,7.4923 16.9231,16.7345 v 3.0598 c 0,0.9117 -0.7544,1.6452 -1.6713,1.6452 h -5.077 c -0.9221,0 -1.6713,-0.7335 -1.6713,-1.6452 l -0.021,-2.3734 c 0,-5.0246 -4.1129,-9.0694 -9.1846,-9.0694 h -1.2522 c -5.0769,0 -9.1898,4.0448 -9.1898,9.0694 v 47.28 c 0,5.0141 4.1129,9.0746 9.1898,9.0746 h 1.2522 c 5.0717,0 9.1846,-4.0605 9.1846,-9.0746 l 0.021,-3.7462 c 0,-0.9168 0.7492,-1.6451 1.6713,-1.6451 h 5.077 c 0.9169,0 1.6713,0.7283 1.6713,1.6451 v 4.4378 c 0,9.2317 -7.5813,16.7293 -16.9231,16.7293" /></g></g></g></svg>