<svg xmlns="http://www.w3.org/2000/svg" viewBox="0 0 793.70081 1122.5197" height="1122.52" width="793.701"><defs><clipPath id="a"><path d="M0 323.47h595.276v194.95H0z"/></clipPath></defs><g clip-path="url(#a)" fill="#444141" transform="matrix(1.33333 0 0 -1.33333 0 1122.52)"><path d="M121.736 338.497v1.87h7.927v-12.6h-1.729v4.08h-.073c-.76-2.729-2.976-4.494-5.433-4.494-5.056 0-7.89 3.908-7.89 12.773 0 8.86 2.834 12.774 7.89 12.774 4.71 0 6.821-3.081 7.099-7.335h-2.216c0 2.97-1.63 5.47-4.883 5.47-3.532 0-5.675-2.914-5.675-10.909 0-8 2.143-10.908 5.675-10.908 3.327 0 5.16 2.981 5.16 8.76v.519zm21.441.107c-.068 4.569-1.352 6.225-3.914 6.225-2.557 0-3.84-1.656-3.909-6.225zm2.043-4.741c-.31-3.914-2.457-6.508-5.92-6.508-3.878 0-6.162 2.698-6.162 9.62 0 6.37 2.284 9.593 6.334 9.593 4.087 0 5.92-2.808 5.92-8.938v-.76h-10.038v-.865c0-5.297 1.87-6.92 3.909-6.92 2.185 0 3.531 1.555 3.882 4.777zm6.837 3.043c-2.594 1-3.531 2.525-3.531 4.364 0 3.772 2.352 5.297 5.47 5.297 3.463 0 5.055-1.766 5.055-5.13v-.513h-2.08v.514c0 2.389-1.105 3.395-3.007 3.395-2.426 0-3.358-1.279-3.358-3.112 0-1.284.413-2.29 2.488-3.086l3.013-1.143c2.494-.932 3.426-2.661 3.426-4.668 0-3.154-1.797-5.47-5.674-5.47-3.772 0-5.643 1.556-5.643 5.711v.587h2.075v-.487c0-2.699 1.179-4.082 3.532-4.082 2.216 0 3.636 1.247 3.636 3.29 0 1.625-.66 2.667-2.494 3.39zm20.341 1.698c-.068 4.569-1.352 6.225-3.914 6.225-2.557 0-3.84-1.656-3.909-6.225zm2.043-4.741c-.31-3.914-2.457-6.508-5.92-6.508-3.878 0-6.162 2.698-6.162 9.62 0 6.37 2.284 9.593 6.334 9.593 4.087 0 5.92-2.808 5.92-8.938v-.76h-10.038v-.865c0-5.297 1.87-6.92 3.909-6.92 2.185 0 3.531 1.555 3.882 4.777zm4.064-6.098h2.075v24.72h-2.075zm6.885 0h2.074v24.72h-2.074zm9.648 9.141c-2.593 1-3.53 2.525-3.53 4.364 0 3.772 2.352 5.297 5.469 5.297 3.463 0 5.056-1.766 5.056-5.13v-.513h-2.08v.514c0 2.389-1.105 3.395-3.007 3.395-2.426 0-3.359-1.279-3.359-3.112 0-1.284.414-2.29 2.489-3.086l3.013-1.143c2.493-.932 3.426-2.661 3.426-4.668 0-3.154-1.797-5.47-5.674-5.47-3.773 0-5.643 1.556-5.643 5.711v.587h2.075v-.487c0-2.699 1.179-4.082 3.531-4.082 2.216 0 3.636 1.247 3.636 3.29 0 1.625-.66 2.667-2.494 3.39zm22.104-3.046c-.315-3.913-2.458-6.506-5.847-6.506-3.877 0-6.162 2.698-6.162 9.624 0 6.371 2.285 9.588 6.335 9.588 3.458 0 5.464-2.116 5.674-5.883h-2.075c-.241 2.87-1.388 4.15-3.6 4.15-2.252 0-4.123-1.384-4.123-7.891 0-6.922 1.975-7.86 3.914-7.86 2.111 0 3.463 1.562 3.809 4.779zm3.551 18.625h2.075v-8.896h.073c.519 1.865 2.316 2.976 4.5 2.976 2.804 0 4.706-1.452 4.706-4.915v-13.884h-2.075v13.292c0 2.53-1.043 3.773-3.154 3.773-2.42 0-4.05-1.866-4.05-4.705v-12.36h-2.075zm24.28-14.331h-.068c-.21-.624-1.383-1.006-2.216-1.21l-1.73-.451c-2.074-.556-3.148-1.63-3.148-3.81 0-2.148 1.106-3.599 2.903-3.599 2.53 0 4.26 1.902 4.26 5.192zm-8.791 2.525c0 3.772 1.802 5.884 5.68 5.884 3.808 0 5.186-1.97 5.186-4.878v-10.872c0-1.042.351-1.52 1.08-1.52h.586v-1.524c-.382-.141-.691-.21-.97-.21-1.623 0-2.666.383-2.666 2.285v.623h-.068c-.828-2.426-2.698-3.117-4.742-3.117-3.222 0-4.673 2.007-4.673 5.197 0 2.421 1.105 4.36 3.704 5.083l3.914 1.11c1.451.414 1.76.765 1.76 2.908 0 2.353-1.31 3.18-3.18 3.18-2.457 0-3.531-1.482-3.531-4.15zm16.395 3.737h-2.526v1.734h2.526v2.18c0 2.525.518 4.432 4.013 4.432.624 0 .933-.036 1.32-.11v-1.729c-.314.074-.628.11-1.006.11-1.524 0-2.253-.597-2.253-2.703v-2.18h3.26v-1.734h-3.26v-16.65h-2.074zm8.851 0h-2.525v1.734h2.525v5.088h2.075v-5.088h3.26v-1.734h-3.26V331.23c0-1.457.63-1.939 1.976-1.939.419 0 .833.068 1.283.204v-1.729c-.24-.136-.76-.21-1.456-.21-2.803 0-3.878.766-3.878 3.223zm17.672 0h-2.524v1.734h2.525v2.18c0 2.525.513 4.432 4.013 4.432.624 0 .928-.036 1.315-.11v-1.729c-.314.074-.623.11-1.006.11-1.519 0-2.247-.597-2.247-2.703v-2.18h3.253v-1.734h-3.253v-16.65H279.1zm15.326 8.274h2.075v-3.532h-2.075zm-5.192 0h2.075v-3.532h-2.075zm-2.043-6.54h2.074V333.2c0-2.976 1.006-4.119 3.191-4.119 2.353 0 4.008 1.871 4.008 4.71v12.36h2.08v-18.385h-1.87v2.568h-.068c-1.038-2.049-2.84-2.982-4.71-2.982-2.804 0-4.705 1.457-4.705 4.92zm15.871 0h2.075v-2.875h.068c.802 2.043 2.5 3.29 4.642 3.29.241 0 .487-.037.728-.105v-2.08c-.345.073-.691.11-1.006.11-2.284 0-4.432-1.666-4.432-5.229v-11.495h-2.075zm19.09 0h1.865v-2.561h.068c.975 2.038 2.63 2.976 4.679 2.976 2.21 0 3.557-1.352 3.835-3.217h.073c.828 2.038 2.321 3.217 4.674 3.217 2.562 0 4.26-1.452 4.26-4.742v-14.057h-2.08v13.743c0 2.18-1.001 3.321-2.872 3.321-2.08 0-3.735-1.865-3.735-4.704v-12.36h-2.08v13.743c0 2.18-1.001 3.322-2.877 3.322-2.075 0-3.735-1.866-3.735-4.705v-12.36h-2.075zm33.375-7.546c-.068 4.569-1.352 6.225-3.914 6.225-2.557 0-3.835-1.656-3.908-6.225zm2.043-4.741c-.309-3.914-2.457-6.508-5.915-6.508-3.877 0-6.167 2.698-6.167 9.62 0 6.37 2.29 9.593 6.335 9.593 4.086 0 5.92-2.808 5.92-8.938v-.76h-10.038v-.865c0-5.297 1.87-6.92 3.908-6.92 2.185 0 3.531 1.555 3.877 4.777zm3.928 18.622h2.075v-8.896h.073c.524 1.865 2.321 2.976 4.506 2.976 2.803 0 4.705-1.452 4.705-4.915v-13.884h-2.08v13.292c0 2.53-1.042 3.773-3.149 3.773-2.425 0-4.055-1.866-4.055-4.705v-12.36h-2.075zm15.872-6.335h2.075v-2.875h.073c.802 2.043 2.494 3.29 4.637 3.29.246 0 .487-.037.728-.105v-2.08c-.346.073-.691.11-1.006.11-2.279 0-4.432-1.666-4.432-5.229v-11.495h-2.075zm20.312 6.335h3.84l5.958-21.947h.068l5.957 21.947h3.636v-24.72h-2.221v22.646h-.074l-6.397-22.645h-2.08l-6.397 22.644h-.073v-22.644h-2.217zm33.376-13.881c-.068 4.569-1.352 6.225-3.909 6.225-2.557 0-3.84-1.656-3.908-6.225zm2.048-4.741c-.314-3.914-2.457-6.508-5.92-6.508-3.877 0-6.167 2.698-6.167 9.62 0 6.37 2.29 9.593 6.334 9.593 4.087 0 5.926-2.808 5.926-8.938v-.76h-10.038v-.865c0-5.297 1.865-6.92 3.908-6.92 2.18 0 3.531 1.555 3.877 4.777zm6.834 3.043c-2.593 1-3.53 2.525-3.53 4.364 0 3.772 2.352 5.297 5.469 5.297 3.463 0 5.056-1.766 5.056-5.13v-.513h-2.08v.514c0 2.389-1.105 3.395-3.013 3.395-2.425 0-3.353-1.279-3.353-3.112 0-1.284.42-2.29 2.489-3.086l3.012-1.143c2.494-.932 3.432-2.661 3.432-4.668 0-3.154-1.802-5.47-5.68-5.47-3.777 0-5.642 1.556-5.642 5.711v.587h2.075v-.487c0-2.699 1.179-4.082 3.536-4.082 2.211 0 3.631 1.247 3.631 3.29 0 1.625-.66 2.667-2.494 3.39zm13.969 0c-2.589 1-3.532 2.525-3.532 4.364 0 3.772 2.353 5.297 5.475 5.297 3.458 0 5.056-1.766 5.056-5.13v-.513h-2.08v.514c0 2.389-1.105 3.395-3.012 3.395-2.426 0-3.359-1.279-3.359-3.112 0-1.284.42-2.29 2.494-3.086l3.008-1.143c2.499-.932 3.431-2.661 3.431-4.668 0-3.154-1.802-5.47-5.679-5.47-3.772 0-5.638 1.556-5.638 5.711v.587h2.075v-.487c0-2.699 1.18-4.082 3.531-4.082 2.217 0 3.631 1.247 3.631 3.29 0 1.625-.655 2.667-2.488 3.39zm20.343 1.698c-.073 4.569-1.352 6.225-3.914 6.225-2.562 0-3.84-1.656-3.914-6.225zm2.043-4.741c-.314-3.914-2.462-6.508-5.92-6.508-3.877 0-6.162 2.698-6.162 9.62 0 6.37 2.285 9.593 6.335 9.593 4.081 0 5.915-2.808 5.915-8.938v-.76h-10.039v-.865c0-5.297 1.87-6.92 3.914-6.92 2.185 0 3.532 1.555 3.877 4.777zm9.812-4.781c2.075 0 4.019 1.074 4.019 7.896 0 6.785-1.944 7.854-4.019 7.854-2.111 0-4.019-1.07-4.019-7.854 0-6.822 1.908-7.896 4.02-7.896m-6.094 23.404h2.074v-9.106h.074c.45 1.939 2.007 3.186 4.286 3.186 4.055 0 5.889-3.254 5.889-9.588 0-6.371-1.834-9.625-5.89-9.625-2.179 0-3.94 1.352-4.495 3.458h-.068v-3.044h-1.87zm24.492-14.332h-.068c-.21-.624-1.383-1.006-2.221-1.21l-1.73-.451c-2.074-.556-3.148-1.63-3.148-3.81 0-2.148 1.11-3.599 2.908-3.599 2.525 0 4.26 1.902 4.26 5.192zm-8.797 2.525c0 3.772 1.803 5.884 5.68 5.884 3.809 0 5.192-1.97 5.192-4.878v-10.872c0-1.042.346-1.52 1.074-1.52h.592v-1.524c-.382-.141-.697-.21-.974-.21-1.625 0-2.657.383-2.657 2.285v.623h-.073c-.828-2.426-2.704-3.117-4.742-3.117-3.222 0-4.673 2.007-4.673 5.197 0 2.421 1.105 4.36 3.704 5.083l3.909 1.11c1.45.414 1.765.765 1.765 2.908 0 2.353-1.315 3.18-3.185 3.18-2.458 0-3.532-1.482-3.532-4.15zm15.638 5.471h2.075V333.2c0-2.977 1.006-4.119 3.186-4.119 2.352 0 4.018 1.87 4.018 4.71v12.36h2.075v-18.385h-1.87v2.562h-.074c-1.037-2.043-2.834-2.976-4.705-2.976-2.803 0-4.705 1.451-4.705 4.92zm24.825 0h1.866v-2.561h.073c.975 2.038 2.63 2.976 4.673 2.976 2.217 0 3.563-1.352 3.84-3.217h.074c.828 2.038 2.316 3.217 4.669 3.217 2.567 0 4.264-1.452 4.264-4.742v-14.057h-2.08v13.743c0 2.18-1.006 3.321-2.87 3.321-2.08 0-3.742-1.865-3.742-4.704v-12.36h-2.08v13.743c0 2.18-1 3.322-2.87 3.322-2.076 0-3.742-1.866-3.742-4.705v-12.36h-2.075zm29.989-17.068c2.075 0 4.013 1.074 4.013 7.896 0 6.785-1.938 7.854-4.013 7.854-2.111 0-4.024-1.07-4.024-7.854 0-6.822 1.912-7.896 4.024-7.896m-6.093 23.404h2.07v-9.106h.072c.451 1.939 2.007 3.186 4.291 3.186 4.056 0 5.89-3.254 5.89-9.588 0-6.371-1.834-9.625-5.89-9.625-2.18 0-3.945 1.352-4.495 3.458h-.073v-3.044h-1.865zm27.879-12.393h-9.656v-12.328h-2.216v24.72h2.216v-10.527h9.656v10.526h2.222v-24.72h-2.222zM101.246 441.12h-24.19v21.874c0 3.023 1.279 5.868 3.584 8.016 2.211 2.06 5.135 3.238 8.263 3.359h.492c3.128-.12 6.062-1.3 8.273-3.359 2.305-2.148 3.578-4.993 3.578-8.016zm4.643-4.915c.628 0 1.142.545 1.142 1.116v26.396c0 8.603-7.775 15.603-17.332 15.603h-1.1c-9.552 0-17.322-7-17.322-15.603v-50.88c0-8.613 7.77-15.613 17.322-15.613h1.1c9.494 0 17.232 6.916 17.332 15.446l-.005 9.017v1.933c0 .576-.514 1.038-1.142 1.038h-3.49c-.629 0-1.142-.462-1.142-1.038l-.01-1.498.005-8.567c0-3.018-1.274-5.868-3.579-8.01-2.21-2.054-5.145-2.835-8.273-2.95v-.005h-.492v.005c-3.128.115-6.052.896-8.263 2.95-2.305 2.142-3.584 4.992-3.584 8.01v22.65h28.832zm126.383 4.915h-24.19v21.874c0 3.023 1.278 5.868 3.583 8.016 2.211 2.06 5.135 3.238 8.263 3.359h.492c3.128-.12 6.062-1.3 8.273-3.359 2.305-2.148 3.579-4.993 3.579-8.016zm4.642-4.915c.628 0 1.142.545 1.142 1.116v26.396c0 8.603-7.776 15.603-17.332 15.603h-1.1c-9.552 0-17.322-7-17.322-15.603v-50.88c0-8.613 7.77-15.613 17.322-15.613h1.1c9.494 0 17.232 6.916 17.332 15.446l-.005 9.017v1.933c0 .576-.514 1.038-1.142 1.038h-3.49c-.629 0-1.142-.462-1.142-1.038l-.01-1.498.004-8.567c0-3.018-1.273-5.868-3.578-8.01-2.211-2.054-5.145-2.835-8.273-2.95v-.005h-.493v.005c-3.127.115-6.051.896-8.262 2.95-2.305 2.142-3.584 4.992-3.584 8.01v22.65h28.833zM344.63 414.8c0-4.946-3.794-8.98-9.196-9.09h-.555c-5.413.11-9.767 4.144-9.767 9.09v12.3c0 5.025 4.485 9.112 10.008 9.112h9.52zm-10.275 64.742c-10.165 0-18.411-7.492-18.411-16.734v-3.61c0-.927.827-1.677 1.833-1.677h5.512c1.017 0 1.824.75 1.824 1.677v2.903c0 4.95 3.85 8.975 9.257 9.09-.073.005.587.005.509 0 5.401-.115 9.75-4.14 9.75-9.09v-17.552h-1.828l-8.446.01c-10.165 0-18.411-7.497-18.411-16.755v-13.706c0-9.253 8.246-16.745 18.41-16.745h1.043c10.175 0 18.412 7.492 18.412 16.745v48.71c0 9.242-8.237 16.735-18.412 16.735zm149.736-21.645v-13.591H464.58v13.92l-.005 3.595c0 5.024 4.06 9.174 9.137 9.174h1.247c4.454 0 9.132-3.437 9.132-9.174v-3.925zm-9.232 21.45h-1.058c-10.16 0-18.4-7.503-18.4-16.75v-48.7c0-9.248 8.24-16.746 18.4-16.746h1.058c10.16 0 18.406 7.498 18.406 16.745v9.374c0 .922-.817 1.67-1.834 1.67h-5.511c-1.017 0-1.84-.748-1.84-1.67l.011-8.897c0-5.732-4.679-9.174-9.132-9.174h-1.247c-5.077 0-9.138 4.15-9.138 9.174l.005 5.45v16.676h26.852c1.017 0 1.834.75 1.834 1.671v24.426c0 9.248-8.247 16.75-18.406 16.75m41.431-1.956h-12.392v-78.228c0-.907.818-1.656 1.834-1.656h5.522c1.017 0 1.85.75 1.85 1.656v64.46c0 4.904-.21 5.428 2.415 5.428 4.967 0 10.023-4.05 10.023-9.07v-4.29c0-.918.818-1.667 1.824-1.667h5.543c1.006 0 1.834.75 1.834 1.666v4.993c0 9.222-8.263 16.709-18.454 16.709M191.713 465.09c0 7.797-6.77 14.205-13.68 14.205l-2.384.062-2.159-.062c-6.916 0-13.083-6.324-13.083-14.12l-.063-3.17c-.073-7.665 1.221-10.317 2.416-12.428 2.263-4.019 10.85-11.29 14.838-14.89.911-.807 1.503-1.577 1.938-2.002 2.51-2.415 3.694-4.04 4.857-6.46.707-1.43 1.017-3.327 1.284-5.533.152-1.257.298-4.233.01-6.586-.377-3.033-.995-5.349-2.845-7.796-1.31-1.724-4.417-3.5-7.178-3.447h-1.288c-3.139-.053-5.984 1.435-8.132 3.82-2.085 2.32-3.27 5.186-3.358 8.45-.042 1.719.005 6.885.005 6.885v1.97c0 .587-.524 1.058-1.169 1.058h-3.552c-.645 0-1.163-.471-1.163-1.058l-.016-1.525.016-7.691c.277-9.677 8.026-17.683 16.478-17.683l1.273-.01 1.44.01c8.452 0 15.33 7.744 15.33 17.243v3.337c0 .645 0 2.337-.293 4.496-.32 2.404-1.042 4.982-2.022 7.25-1.572 3.627-4.176 6.005-7.188 8.756-.299.267-10.662 9.813-12.91 12.92-1.51 2.075-2.06 3.474-2.546 5.292-.493 1.844-.63 3.804-.63 5.674l.095 1.734c.037 2.699.67 5.34 2.415 7.262 1.803 1.97 4.197 3.055 6.76 3.055h1.089c2.583 0 4.998-1.1 6.8-3.102 1.75-1.95 2.72-4.511 2.72-7.236l-.005-5.642v-1.97c0-.587.519-1.059 1.163-1.059h3.558c.639 0 1.163.472 1.163 1.059l.015 1.524v7.409zm-42.335-.004c0 7.79-6.759 14.203-13.67 14.203l-2.383.058-2.164-.058c-6.911 0-13.078-6.323-13.078-14.12l-.063-3.18c-.068-7.665 1.221-10.3 2.416-12.417 2.268-4.019 10.85-11.296 14.838-14.896.906-.807 1.503-1.572 1.938-1.996 2.51-2.415 3.694-4.04 4.857-6.465.713-1.43 1.016-3.327 1.278-5.528.163-1.268.304-4.233.01-6.58-.371-3.045-.99-5.355-2.839-7.802-1.304-1.74-4.417-3.51-7.183-3.453-.094.005-1.153.005-1.284 0-3.138-.052-5.983 1.441-8.131 3.825-2.085 2.316-3.27 5.182-3.359 8.451-.042 1.719.005 6.874.005 6.874v1.975c0 .587-.524 1.059-1.163 1.059h-3.557c-.645 0-1.163-.472-1.163-1.059l-.016-1.524.016-7.624c.277-9.677 8.026-17.745 16.477-17.745l1.273-.016 1.441.016c8.451 0 15.33 7.738 15.33 17.242v3.333c0 .644 0 2.342-.293 4.495a28.1 28.1 0 0 1-2.022 7.251c-1.572 3.626-4.176 6.01-7.189 8.755-.298.273-10.662 9.814-12.91 12.915-1.508 2.08-2.058 3.48-2.546 5.303-.492 1.833-.628 3.803-.628 5.68l.094 1.728c.037 2.698.67 5.339 2.415 7.257 1.803 1.975 4.197 3.06 6.76 3.06h1.089c2.578 0 4.998-1.106 6.8-3.102 1.756-1.955 2.715-4.511 2.715-7.241l-.005-5.638v-1.97c0-.586.529-1.058 1.168-1.058h3.552c.645 0 1.169.472 1.169 1.058l.015 1.525zM35.79 457.42s.084 5.036.247 6.718c.246 2.593 1.126 4.982 2.677 6.722 1.54 1.729 3.626 2.73 6.094 2.934.204.02 1.226.02 1.456 0 2.463-.2 4.742-1.19 6.497-2.803 1.97-1.823 2.892-4.25 3.06-6.817l-.005-65.727c0-.561.502-1.033 1.126-1.033h3.442c.629 0 1.137.472 1.137 1.033l.01 64.962c0 7.964-5.427 16.012-15.796 16.012-1.755 0-3.296-.168-4.695-.534-2.54-.949-4.694-2.573-6.407-4.548-.388-.44-1.493-1.645-1.493-1.645s-1.085 1.2-1.473 1.645c-1.241 1.446-2.646 2.703-4.306 3.636a4.73 4.73 0 0 1-.74.325c-.193.084-2.2 1.12-6.49 1.12-10.375 0-15.797-8.047-15.797-16.01v-64.964c0-.56.497-1.032 1.131-1.032h3.448c.618 0 1.12.472 1.12 1.033l.011 65.727c0 2.578 1.09 4.994 3.065 6.817 1.75 1.613 4.035 2.604 6.492 2.803.189.031 1.158.036 1.457 0 2.462-.205 4.558-1.205 6.098-2.934 1.546-1.74 2.405-4.056 2.693-6.654.189-1.682.226-6.8.226-6.8v-58.96c0-.56.508-1.032 1.131-1.032h3.442c.624 0 1.127.472 1.127 1.032l.016 58.975zm410.25-58.62c0-.927-.818-1.378-1.835-1.378l-5.412.01c-1.016 0-1.928.97-1.928 1.892l.005 52.582v10.186c0 4.94-3.369 9.54-8.776 9.656h-1.954c-5.407-.115-8.776-4.716-8.776-9.656v-62.773c0-.928-.828-1.897-1.85-1.897l-5.407.01c-1.01 0-1.85.97-1.85 1.892v112.599c0 .922.829 1.886 1.856 1.886h5.401c1.022 0 1.85-.964 1.85-1.886v-34.695c.02.058.55.325.55.325a19.764 19.764 0 0 0 8.671 1.975h1.053c10.17 0 18.4-7.503 18.4-16.75V398.8zm-163.598 64.653c0 4.05 3.322 7.304 7.75 7.409a3.002 3.002 0 0 1-.3 0c4.423-.105 7.996-3.369 7.996-7.414v-64.13c0-.927.822-1.886 1.839-1.886l5.412-.01c1.016 0 1.844 1.084 1.844 2.006v62.993c0 9.274-6.476 17.091-16.897 17.091-2.274 0-3.877-.288-5.045-.608-2.709-.99-5.135-2.65-6.969-4.914a16.594 16.594 0 0 1-5.056 4.144s-2.352 1.378-7.377 1.378c-10.426 0-16.902-7.513-16.902-16.792v-63.407c0-.927.833-1.876 1.85-1.876l5.407-.005c1.016 0 1.85.96 1.85 1.887v64.13c0 4.044 3.269 7.308 7.696 7.413a2.87 2.87 0 0 0 .293 0c4.422-.105 7.482-3.426 7.482-7.487l-.005-63.957c0-.922.828-1.98 1.844-1.98h5.413c1.016 0 1.844 1.063 1.844 1.985l.031 64.03zm100.382 16.092h-2.662c-9.33 0-16.912-7.498-16.912-16.73v-48.657c0-9.242 7.581-16.735 16.912-16.735h2.662c9.342 0 16.923 7.493 16.923 16.735v3.06c0 .911-.754 1.645-1.671 1.645h-5.077c-.922 0-1.671-.734-1.671-1.645l-.021-2.374c0-5.024-4.113-9.07-9.185-9.07h-1.252c-5.077 0-9.19 4.046-9.19 9.07v47.28c0 5.014 4.113 9.075 9.19 9.075h1.252c5.072 0 9.185-4.06 9.185-9.075l.02-3.746c0-.917.75-1.645 1.672-1.645h5.077c.917 0 1.671.728 1.671 1.645v4.438c0 9.231-7.581 16.73-16.923 16.73"/></g></svg>