<?xml version="1.0" encoding="UTF-8" standalone="no"?>
<svg
   xmlns:dc="http://purl.org/dc/elements/1.1/"
   xmlns:cc="http://creativecommons.org/ns#"
   xmlns:rdf="http://www.w3.org/1999/02/22-rdf-syntax-ns#"
   xmlns:svg="http://www.w3.org/2000/svg"
   xmlns="http://www.w3.org/2000/svg"
   viewBox="0 0 3023.6267 755.90668"
   height="755.90668"
   width="3023.6267"
   xml:space="preserve"
   id="svg2"
   version="1.1"><metadata
     id="metadata8"><rdf:RDF><cc:Work
         rdf:about=""><dc:format>image/svg+xml</dc:format><dc:type
           rdf:resource="http://purl.org/dc/dcmitype/StillImage" /></cc:Work></rdf:RDF></metadata><defs
     id="defs6"><clipPath
       id="clipPath18"
       clipPathUnits="userSpaceOnUse"><path
         id="path16"
         d="M 0,566.93 H 2267.717 V 0 H 0 Z" /></clipPath></defs><g
     transform="matrix(1.3333333,0,0,-1.3333333,0,755.90667)"
     id="g10"><g
       id="g12"><g
         clip-path="url(#clipPath18)"
         id="g14"><g
           transform="translate(390.0992,488.6014)"
           id="g20"><path
             id="path22"
             style="fill:#759fba;fill-opacity:1;fill-rule:nonzero;stroke:none"
             d="m 0,0 c -4.839,0 -9.679,0.066 -14.515,-0.033 -1.92,-0.04 -3.827,-0.527 -5.75,-0.675 -10.495,-0.81 -20.713,-3.04 -30.724,-6.179 -8.343,-2.616 -16.244,-6.227 -23.419,-11.326 -3.582,-2.546 -6.755,-5.488 -9.341,-9.037 -2.723,-3.738 -4.247,-7.855 -4.365,-12.57 -0.155,-6.116 2.033,-11.361 5.443,-16.201 4.7,-6.671 10.687,-12.038 17.345,-16.685 12.528,-8.744 26.268,-15.059 40.62,-20.105 12.482,-4.388 25.268,-7.596 38.275,-10.079 11.579,-2.21 23.25,-3.57 34.974,-4.241 9.478,-0.543 18.992,-0.497 28.505,0.45 7.228,0.72 14.391,1.649 21.487,3.145 8.41,1.774 16.448,4.579 23.952,8.82 3.532,1.996 6.764,4.393 9.504,7.399 3.956,4.34 6.088,9.335 6.003,15.349 -0.084,6.031 -2.039,11.367 -5.102,16.405 -5.019,8.252 -11.802,14.886 -19.384,20.726 -12.627,9.725 -26.648,16.939 -41.565,22.4 C 48.729,-3.938 24.765,0.474 0,0 m -54.089,-214.9 c 0.246,10.008 -0.355,19.957 -1.679,29.897 -2.029,15.24 -5.413,30.119 -10.69,44.561 -5.405,14.796 -12.467,28.694 -22.521,40.922 -6.084,7.399 -12.946,13.965 -21.357,18.72 -12.897,7.291 -26.356,9.013 -40.475,3.967 -8.041,-2.875 -14.935,-7.589 -21.107,-13.374 -10.65,-9.981 -18.283,-22.095 -24.159,-35.323 -9.965,-22.436 -13.999,-46.156 -14.693,-70.54 -0.142,-4.995 0.248,-9.981 0.51,-14.974 0.466,-8.877 1.523,-17.65 3.13,-26.376 3.5,-19.004 9.502,-37.157 18.647,-54.205 6.532,-12.175 14.687,-23.132 24.998,-32.422 6.299,-5.676 13.313,-10.188 21.235,-13.225 8.685,-3.329 17.603,-3.686 26.639,-1.769 8.411,1.786 15.641,5.915 22.082,11.489 9.037,7.819 15.886,17.339 21.315,27.912 11.547,22.491 16.517,46.665 18.087,71.671 0.272,4.34 0.038,8.712 0.038,13.069 m 258.72,4.619 c 0.195,10.526 -0.798,20.933 -2.978,31.221 -1.744,8.228 -4.221,16.219 -8.073,23.733 -7.287,14.219 -18.681,23.195 -34.31,26.634 -7.43,1.634 -14.883,2.169 -22.547,1.286 -7.738,-0.89 -15.255,-2.449 -22.633,-4.824 -13.288,-4.279 -25.642,-10.52 -37.322,-18.101 -17.818,-11.563 -33.775,-25.295 -48.055,-41.042 -14.797,-16.318 -27.794,-33.898 -38.623,-53.089 -12.532,-22.208 -21.981,-45.568 -26.405,-70.78 -1.336,-7.613 -2.221,-15.3 -2.217,-23.067 0.003,-4.684 0.289,-9.33 0.838,-13.983 1.281,-10.859 4.201,-21.158 9.984,-30.531 7.291,-11.816 17.663,-19.415 31.116,-22.91 10.322,-2.682 20.809,-2.594 31.244,-1.57 9.139,0.896 18.068,3.192 26.812,6.092 16.019,5.31 30.958,12.843 45.114,21.962 10.73,6.911 20.796,14.69 30.331,23.191 9.412,8.392 18.33,17.267 26.28,27.039 10.748,13.211 19.379,27.739 25.918,43.489 10.003,24.092 15.408,49.127 15.526,75.25 M -1.583,31.119 C 6.134,31.583 14.675,30.868 23.152,29.91 48.796,27.014 73.415,20.3 96.909,9.493 116.524,0.469 134.57,-11 151.128,-24.807 c 12.18,-10.156 23.11,-21.554 32.972,-33.979 9.862,-12.426 18.374,-25.724 25.508,-39.879 9.85,-19.541 16.988,-40.039 21.089,-61.556 2.264,-11.883 3.984,-23.833 4.08,-35.971 0.027,-3.379 0.556,-6.76 0.492,-10.133 -0.582,-30.602 -6.207,-60.194 -17.969,-88.534 -8.649,-20.84 -19.916,-40.148 -34.03,-57.756 -19.614,-24.468 -43.181,-44.258 -70.657,-59.396 -21.058,-11.603 -43.378,-19.768 -66.906,-24.633 -9.628,-1.99 -19.343,-3.314 -29.157,-4.154 -7.093,-0.608 -14.166,-0.725 -21.257,-0.739 -18.956,-0.036 -37.588,2.537 -55.946,7.168 -19.164,4.835 -37.487,11.879 -54.881,21.271 -14.951,8.073 -28.914,17.597 -41.813,28.684 -16.491,14.175 -30.95,30.154 -43.007,48.259 -12.502,18.775 -22.135,38.936 -28.903,60.465 -3.826,12.17 -6.645,24.578 -8.537,37.178 -2.378,15.84 -2.974,31.82 -1.948,47.773 1.655,25.752 7.363,50.645 17.157,74.571 8.926,21.806 20.782,41.89 35.71,60.086 18.284,22.285 39.824,40.822 64.864,55.228 14.03,8.073 28.688,14.732 44.04,19.823 12.712,4.216 25.685,7.381 38.947,9.398 12.136,1.844 24.304,3.016 37.441,2.752" /></g><g
           transform="translate(867.8892,360.2552)"
           id="g24"><path
             id="path26"
             style="fill:#21201f;fill-opacity:1;fill-rule:nonzero;stroke:none"
             d="m 0,0 c 2.167,2.188 3.757,3.763 5.313,5.369 11.773,12.152 26.188,19.044 42.82,21.528 11.143,1.665 22.18,1.262 33.093,-1.671 15.123,-4.064 26.961,-12.735 35.864,-25.53 1.096,-1.573 2.17,-3.162 3.461,-5.046 1.501,1.753 2.852,3.332 4.203,4.911 8.642,10.092 18.872,18.006 31.35,22.828 8.19,3.165 16.691,4.848 25.443,5.326 10.706,0.585 21.296,-0.136 31.614,-3.21 24.129,-7.189 39.197,-23.293 45.982,-47.313 2.067,-7.317 3.013,-14.875 3.026,-22.48 0.068,-38.897 0.038,-77.794 0.061,-116.691 0.003,-4.845 -1.303,-9.253 -4.3,-13.064 -7.421,-9.434 -20.476,-9.487 -28.049,-0.32 -2.74,3.316 -4.297,7.175 -4.427,11.528 -0.053,1.774 -0.04,3.551 -0.04,5.325 -0.002,33.41 -0.008,66.82 0.004,100.229 0.002,6.792 -0.325,13.555 -1.956,20.174 -2.545,10.328 -7.486,19.157 -16.234,25.584 -4.355,3.199 -9.166,5.36 -14.382,6.638 -10.75,2.633 -21.403,2.427 -31.913,-1.237 -3.672,-1.28 -7.112,-3.026 -10.328,-5.209 -4.465,-3.031 -8.148,-6.774 -10.913,-11.465 -5.611,-9.522 -8.53,-19.675 -8.489,-30.813 0.13,-34.862 0.042,-69.725 0.059,-104.586 0.001,-2.752 0.031,-5.516 -0.688,-8.177 -2.063,-7.624 -6.693,-12.712 -14.622,-14.435 -5.465,-1.186 -10.242,0.426 -14.436,3.809 -4.061,3.274 -6.43,7.61 -6.934,12.848 -0.201,2.083 -0.257,4.187 -0.257,6.281 0.008,33.571 0.044,67.142 0.05,100.713 0.002,7.601 -0.456,15.163 -2.584,22.521 -3.333,11.517 -9.842,20.583 -20.609,26.232 -5.036,2.642 -10.465,4.262 -16.106,4.891 -8.93,0.995 -17.755,0.329 -26.205,-2.917 C 14.139,-13.088 5.446,-24.009 1.857,-39.17 0.516,-44.841 0.079,-50.634 0.08,-56.461 0.087,-90.84 0.084,-125.218 0.079,-159.596 c 0,-1.774 0.046,-3.557 -0.105,-5.321 -0.682,-7.985 -6.75,-14.878 -14.553,-16.77 -5.653,-1.373 -10.53,0.238 -14.875,3.762 -4.977,4.039 -6.883,9.579 -7.283,15.768 -0.073,1.125 -0.025,2.259 -0.025,3.387 0,53.909 10e-4,107.815 -0.004,161.723 0,2.422 0.069,4.819 0.596,7.214 2.003,9.107 8.874,15.108 18.045,15.28 4.334,0.081 8.206,-1.559 11.341,-4.656 3.467,-3.425 5.343,-7.607 5.763,-12.452 C -0.801,5.805 -0.833,3.238 0,0" /></g><g
           transform="translate(1423.8077,281.0892)"
           id="g28"><path
             id="path30"
             style="fill:#21201f;fill-opacity:1;fill-rule:nonzero;stroke:none"
             d="m 0,0 c -0.242,-6.439 0.258,-14.014 0.934,-21.56 0.748,-8.364 2.326,-16.586 5.649,-24.382 5.083,-11.927 13.793,-20.022 25.874,-24.559 9.508,-3.57 19.293,-3.95 29.02,-1.517 15.388,3.849 26.368,13.055 32.083,28.092 1.374,3.617 2.362,7.354 3.156,11.143 1.56,7.447 2.028,15.004 2.369,22.58 0.602,13.401 0.307,26.773 -1.504,40.074 -0.826,6.074 -2.338,12.006 -4.714,17.694 C 87.789,59.722 79.034,67.943 66.576,72.213 57.687,75.26 48.609,75.845 39.398,74.084 24.624,71.259 13.841,63.175 7.335,49.531 4.395,43.365 2.77,36.815 1.769,30.1 0.339,20.506 -0.039,10.841 0,0 m -36.863,0.05 c -0.152,11.596 0.416,22.224 1.902,32.783 1.883,13.372 5.607,26.153 13.003,37.615 10.769,16.688 25.777,27.847 44.87,33.138 17.775,4.925 35.781,5.039 53.491,-0.192 28.972,-8.558 47.263,-27.796 55.058,-56.947 2.38,-8.9 3.435,-18.022 4.073,-27.215 0.907,-13.07 0.819,-26.123 -0.167,-39.171 -0.79,-10.469 -2.346,-20.814 -5.672,-30.826 -7.992,-24.061 -23.935,-40.664 -47.665,-49.249 -20.653,-7.473 -41.873,-7.757 -62.686,-0.838 -25.626,8.52 -42.287,26.332 -50.427,52.055 -2.833,8.951 -4.237,18.189 -4.955,27.539 -0.567,7.404 -1.028,14.809 -0.825,21.308" /></g><g
           transform="translate(1661.0792,359.8401)"
           id="g32"><path
             id="path34"
             style="fill:#21201f;fill-opacity:1;fill-rule:nonzero;stroke:none"
             d="m 0,0 c 2.062,2.055 3.458,3.355 4.751,4.751 11.99,12.949 26.84,20.278 44.247,22.659 12.649,1.73 25.109,1.036 37.257,-3.035 22.225,-7.448 36.242,-22.694 42.316,-45.236 2.235,-8.289 3.033,-16.798 3.028,-25.388 -0.021,-28.723 -10e-4,-57.446 0.002,-86.17 0.001,-9.843 -0.042,-19.686 0.01,-29.529 0.024,-4.522 -1.241,-8.594 -3.9,-12.211 -7.353,-10.002 -21.339,-10.199 -28.941,-0.138 -2.495,3.301 -3.829,7.067 -3.99,11.214 -0.061,1.611 -0.031,3.227 -0.031,4.84 -0.003,34.694 -0.012,69.388 0.001,104.081 0.003,7.479 -1.042,14.769 -3.557,21.838 -5.589,15.713 -16.737,24.74 -33.038,27.671 -7.729,1.39 -15.433,1.339 -23.037,-0.561 C 18.09,-9.469 7.5,-20.37 2.777,-37.133 1.147,-42.917 0.655,-48.842 0.662,-54.844 c 0.035,-34.371 0.016,-68.742 0.015,-103.113 0,-1.452 0.052,-2.907 -0.018,-4.356 -0.222,-4.625 -1.548,-8.871 -4.5,-12.517 -7.523,-9.29 -20.593,-9.203 -28.057,0.059 -2.595,3.219 -4.078,6.929 -4.237,11.102 -0.062,1.612 -0.064,3.227 -0.065,4.84 -0.003,53.896 -0.003,107.793 0.002,161.689 0,1.774 -0.041,3.557 0.113,5.321 0.473,5.388 2.75,9.977 6.87,13.423 9.106,7.617 23.754,5.175 27.924,-9.094 0.626,-2.142 0.73,-4.447 0.977,-6.688 C -0.14,4.236 -0.134,2.631 0,0" /></g><g
           transform="translate(1218.4347,102.1673)"
           id="g36"><path
             id="path38"
             style="fill:#21201f;fill-opacity:1;fill-rule:nonzero;stroke:none"
             d="m 0,0 c -0.04,1.496 0.704,3.611 1.465,5.752 7.44,20.943 14.842,41.899 22.259,62.85 1.344,3.795 2.642,7.61 4.098,11.362 0.802,2.067 0.699,3.967 -0.062,6.011 -5.277,14.189 -10.507,28.396 -15.734,42.604 -15.626,42.476 -31.242,84.954 -46.865,127.431 -1.172,3.186 -2.261,6.367 -2.081,9.86 0.189,3.644 1.236,6.983 3.272,9.979 4.989,7.342 14.333,9.71 22.26,5.616 4.633,-2.392 7.838,-6.047 9.546,-11.047 6.35,-18.594 12.788,-37.158 19.133,-55.754 9.467,-27.743 18.879,-55.504 28.33,-83.252 0.412,-1.207 0.964,-2.369 1.518,-3.521 0.064,-0.136 0.769,-0.168 0.807,-0.082 0.396,0.879 0.745,1.784 1.049,2.7 4.315,12.994 8.609,25.994 12.93,38.985 10.925,32.857 21.869,65.707 32.774,98.569 0.867,2.616 1.721,5.232 3.435,7.414 4.865,6.192 11.054,9.12 19.052,7.654 7.642,-1.402 14.323,-9.236 13.739,-18.551 -0.223,-3.557 -1.145,-6.973 -2.385,-10.329 C 113.242,212.857 97.973,171.453 82.707,130.047 66.382,85.77 50.071,41.487 33.748,-2.791 c -0.612,-1.661 -1.167,-3.361 -1.961,-4.937 -2.525,-5.003 -6.413,-8.404 -11.956,-9.74 -6.57,-1.584 -13.14,0.956 -16.852,6.6 C 0.981,-7.833 -0.005,-4.462 0,0" /></g><g
           transform="translate(2003.7872,282.0755)"
           id="g40"><path
             id="path42"
             style="fill:#21201f;fill-opacity:1;fill-rule:nonzero;stroke:none"
             d="m 0,0 c -0.294,-9.533 0.081,-19.027 1.868,-28.431 2.286,-12.026 7.156,-22.711 15.999,-31.366 9.282,-9.084 20.525,-13.711 33.411,-14.432 6.139,-0.344 12.263,-0.199 18.271,1.353 5.356,1.383 10.342,3.606 14.89,6.753 4.289,2.968 8.97,4.16 14.18,3.719 9.302,-0.787 18.281,-10.683 13.126,-22.45 -1.667,-3.806 -4.362,-6.718 -7.877,-8.935 -7.286,-4.596 -15.051,-8.14 -23.458,-9.992 -18.097,-3.987 -36.225,-3.968 -54.112,1.038 -24.504,6.857 -41.652,22.482 -52.352,45.355 -5.373,11.486 -8.363,23.65 -9.899,36.216 -1.436,11.747 -1.491,23.537 -0.684,35.284 1.207,17.544 5.32,34.378 14.216,49.778 12.705,21.992 31.698,35.202 56.494,40.115 16.046,3.179 32.079,2.84 47.989,-1.029 8.536,-2.076 16.402,-5.723 23.739,-10.54 4.091,-2.686 6.82,-6.303 7.923,-11.127 0.405,-1.772 0.447,-3.496 0.073,-5.267 C 111.497,65.14 100.518,59.119 89.95,62.954 88.112,63.62 86.454,64.589 84.821,65.63 68.583,75.99 51.321,76.678 33.872,69.854 18.509,63.847 8.991,51.902 3.925,36.384 1.458,28.83 0.448,20.975 0.04,13.068 -0.184,8.723 0,4.356 0,0" /></g><g
           transform="translate(1902.4845,281.3392)"
           id="g44"><path
             id="path46"
             style="fill:#21201f;fill-opacity:1;fill-rule:nonzero;stroke:none"
             d="m 0,0 c 0,-26.607 0.005,-53.214 -0.009,-79.821 -0.001,-2.094 -0.012,-4.2 -0.226,-6.279 -0.892,-8.67 -6.982,-15.309 -15.469,-16.899 -5.074,-0.95 -9.593,0.498 -13.582,3.583 -4.899,3.787 -7.159,8.99 -7.589,15.06 -0.103,1.445 -0.059,2.901 -0.059,4.352 -0.002,53.697 0.002,107.395 -0.011,161.092 -10e-4,2.911 0.036,5.81 0.726,8.652 1.72,7.084 7.737,13.709 16.257,14.409 4.715,0.387 8.955,-0.868 12.614,-3.839 4.049,-3.288 6.51,-7.541 7.066,-12.763 0.239,-2.238 0.269,-4.505 0.271,-6.759 C 0.006,53.858 0,26.929 0,0" /></g><g
           transform="translate(1883.9044,434.2869)"
           id="g48"><path
             id="path50"
             style="fill:#21201f;fill-opacity:1;fill-rule:nonzero;stroke:none"
             d="M 0,0 C -9.976,-0.314 -19.631,8.27 -19.522,19.664 -19.409,31.505 -9.218,39.301 0.327,39.063 11.169,38.791 20.23,30.011 19.898,19.34 19.496,6.436 8.8,-0.5 0,0" /></g><g
           transform="translate(594.7305,278.3206)"
           id="g52"><path
             id="path54"
             style="fill:#ffffff;fill-opacity:1;fill-rule:nonzero;stroke:none"
             d="m 0,0 c -0.118,-26.123 -5.523,-51.158 -15.526,-75.25 -6.539,-15.75 -15.171,-30.278 -25.918,-43.489 -7.95,-9.773 -16.868,-18.647 -26.281,-27.039 -9.534,-8.501 -19.601,-16.281 -30.331,-23.192 -14.155,-9.118 -29.094,-16.651 -45.113,-21.962 -8.744,-2.899 -17.674,-5.195 -26.812,-6.091 -10.435,-1.024 -20.923,-1.112 -31.245,1.57 -13.453,3.495 -23.825,11.094 -31.116,22.91 -5.783,9.373 -8.702,19.672 -9.983,30.53 -0.55,4.654 -0.835,9.3 -0.838,13.984 -0.004,7.766 0.88,15.454 2.216,23.067 4.425,25.212 13.873,48.571 26.405,70.779 10.83,19.192 23.827,36.772 38.624,53.09 14.279,15.747 30.237,29.479 48.055,41.042 11.679,7.58 24.033,13.822 37.322,18.1 7.377,2.375 14.895,3.934 22.632,4.825 7.665,0.882 15.118,0.348 22.547,-1.287 15.63,-3.439 27.024,-12.415 34.311,-26.633 C -7.2,47.44 -4.722,39.449 -2.979,31.221 -0.798,20.933 0.194,10.525 0,0" /></g><g
           transform="translate(336.0103,273.7015)"
           id="g56"><path
             id="path58"
             style="fill:#ffffff;fill-opacity:1;fill-rule:nonzero;stroke:none"
             d="m 0,0 c 0,-4.357 0.234,-8.729 -0.039,-13.069 -1.569,-25.006 -6.54,-49.18 -18.086,-71.671 -5.429,-10.573 -12.278,-20.093 -21.315,-27.912 -6.441,-5.575 -13.671,-9.703 -22.082,-11.489 -9.036,-1.918 -17.954,-1.56 -26.639,1.769 -7.922,3.037 -14.936,7.549 -21.235,13.225 -10.311,9.29 -18.466,20.247 -24.998,32.422 -9.146,17.048 -15.147,35.201 -18.647,54.204 -1.607,8.727 -2.664,17.5 -3.13,26.376 -0.262,4.994 -0.652,9.979 -0.51,14.975 0.694,24.384 4.727,48.104 14.693,70.54 5.876,13.228 13.509,25.342 24.159,35.323 6.172,5.785 13.066,10.499 21.107,13.374 14.118,5.046 27.578,3.324 40.475,-3.967 8.411,-4.755 15.272,-11.321 21.356,-18.72 10.055,-12.228 17.117,-26.127 22.522,-40.922 C -7.092,60.016 -3.708,45.137 -1.679,29.897 -0.355,19.957 0.246,10.008 0,0" /></g><g
           transform="translate(390.0992,488.6014)"
           id="g60"><path
             id="path62"
             style="fill:#ffffff;fill-opacity:1;fill-rule:nonzero;stroke:none"
             d="m 0,0 c 24.765,0.474 48.729,-3.938 71.943,-12.437 14.917,-5.461 28.938,-12.675 41.565,-22.4 7.582,-5.84 14.365,-12.474 19.384,-20.726 3.063,-5.038 5.018,-10.374 5.102,-16.405 0.085,-6.014 -2.047,-11.009 -6.003,-15.349 -2.74,-3.006 -5.972,-5.403 -9.504,-7.399 -7.504,-4.241 -15.542,-7.046 -23.952,-8.82 -7.096,-1.496 -14.259,-2.425 -21.487,-3.145 -9.513,-0.947 -19.027,-0.993 -28.505,-0.45 -11.724,0.671 -23.395,2.031 -34.974,4.241 -13.007,2.483 -25.793,5.691 -38.275,10.079 -14.352,5.046 -28.092,11.361 -40.62,20.105 -6.658,4.647 -12.645,10.014 -17.345,16.685 -3.41,4.84 -5.598,10.085 -5.443,16.201 0.118,4.715 1.642,8.832 4.365,12.57 2.586,3.549 5.759,6.491 9.341,9.037 7.175,5.099 15.076,8.71 23.419,11.326 10.011,3.139 20.229,5.369 30.724,6.179 1.923,0.148 3.83,0.635 5.75,0.675 C -9.679,0.066 -4.839,0 0,0" /></g><g
           transform="translate(1423.8077,281.0892)"
           id="g64"><path
             id="path66"
             style="fill:#ffffff;fill-opacity:1;fill-rule:nonzero;stroke:none"
             d="m 0,0 c -0.039,10.841 0.339,20.506 1.769,30.1 1.001,6.715 2.626,13.265 5.566,19.431 6.506,13.644 17.289,21.728 32.063,24.553 9.211,1.761 18.289,1.176 27.178,-1.871 12.458,-4.27 21.213,-12.491 26.291,-24.648 2.376,-5.688 3.888,-11.62 4.714,-17.694 1.811,-13.301 2.106,-26.673 1.504,-40.074 -0.341,-7.576 -0.809,-15.133 -2.369,-22.58 -0.794,-3.789 -1.782,-7.526 -3.156,-11.143 C 87.845,-58.963 76.865,-68.169 61.477,-72.018 51.75,-74.451 41.965,-74.071 32.457,-70.501 20.376,-65.964 11.666,-57.869 6.583,-45.942 3.26,-38.146 1.682,-29.924 0.934,-21.56 0.258,-14.014 -0.242,-6.439 0,0" /></g></g></g></g></svg>