<svg xmlns="http://www.w3.org/2000/svg" viewBox="0 0 3023.6267 755.90668" height="755.907" width="3023.627"><defs><clipPath id="a"><path d="M0 566.93h2267.717V0H0z"/></clipPath></defs><g clip-path="url(#a)" transform="matrix(1.33333 0 0 -1.33333 0 755.907)"><path d="M390.1 488.601c-4.84 0-9.68.066-14.516-.033-1.92-.04-3.827-.527-5.75-.675-10.495-.81-20.713-3.04-30.724-6.179-8.343-2.616-16.244-6.227-23.419-11.326-3.582-2.546-6.755-5.488-9.34-9.037-2.724-3.738-4.248-7.855-4.366-12.57-.155-6.116 2.033-11.36 5.443-16.2 4.7-6.672 10.687-12.039 17.345-16.686 12.528-8.744 26.268-15.059 40.62-20.105 12.482-4.388 25.268-7.596 38.275-10.079 11.58-2.21 23.25-3.57 34.974-4.24 9.478-.544 18.992-.498 28.505.45 7.228.72 14.391 1.648 21.487 3.144 8.41 1.774 16.448 4.58 23.952 8.82 3.532 1.996 6.764 4.393 9.504 7.4 3.956 4.34 6.088 9.334 6.003 15.348-.084 6.031-2.039 11.367-5.102 16.405-5.019 8.252-11.802 14.886-19.384 20.726-12.627 9.725-26.648 16.94-41.565 22.4-23.214 8.5-47.178 12.911-71.943 12.437m-54.089-214.9c.246 10.008-.355 19.957-1.679 29.897-2.029 15.24-5.413 30.12-10.69 44.561-5.405 14.796-12.467 28.694-22.52 40.922-6.085 7.4-12.947 13.965-21.358 18.72-12.897 7.291-26.356 9.013-40.475 3.967-8.04-2.875-14.935-7.589-21.107-13.374-10.65-9.98-18.283-22.095-24.159-35.323-9.965-22.436-13.999-46.156-14.693-70.54-.142-4.995.248-9.98.51-14.974a204.556 204.556 0 0 1 3.13-26.376c3.5-19.004 9.502-37.157 18.647-54.205 6.532-12.175 14.687-23.132 24.998-32.422 6.3-5.676 13.313-10.188 21.235-13.225 8.685-3.329 17.603-3.686 26.64-1.769 8.41 1.786 15.64 5.915 22.081 11.49 9.037 7.818 15.886 17.338 21.315 27.911 11.547 22.491 16.517 46.665 18.087 71.671.272 4.34.038 8.712.038 13.07m258.72 4.618a137.813 137.813 0 0 1-2.978 31.221c-1.744 8.228-4.22 16.22-8.073 23.733-7.287 14.22-18.68 23.195-34.31 26.634-7.43 1.634-14.883 2.17-22.547 1.286-7.738-.89-15.255-2.449-22.633-4.824-13.288-4.279-25.642-10.52-37.322-18.1-17.818-11.564-33.775-25.296-48.055-41.043-14.797-16.318-27.794-33.898-38.623-53.089-12.532-22.208-21.98-45.568-26.405-70.78-1.336-7.613-2.22-15.3-2.217-23.067.003-4.684.29-9.33.838-13.983 1.281-10.859 4.201-21.158 9.984-30.53 7.291-11.817 17.663-19.416 31.116-22.91 10.322-2.683 20.81-2.595 31.244-1.57 9.14.895 18.068 3.191 26.812 6.091 16.02 5.31 30.958 12.843 45.114 21.962 10.73 6.911 20.796 14.69 30.331 23.191 9.412 8.392 18.33 17.267 26.28 27.04 10.748 13.21 19.38 27.738 25.918 43.488 10.003 24.092 15.408 49.127 15.526 75.25m-206.214 241.4c7.717.464 16.258-.25 24.735-1.209 25.644-2.896 50.263-9.61 73.757-20.417 19.615-9.024 37.661-20.493 54.22-34.3 12.18-10.156 23.11-21.554 32.971-33.979a231.893 231.893 0 0 0 25.508-39.879c9.85-19.54 16.988-40.039 21.09-61.556 2.263-11.883 3.983-23.833 4.08-35.97.026-3.38.555-6.76.491-10.134-.582-30.602-6.207-60.194-17.969-88.534-8.649-20.84-19.916-40.148-34.03-57.756-19.614-24.468-43.18-44.258-70.657-59.396-21.058-11.603-43.378-19.768-66.906-24.633-9.628-1.99-19.343-3.314-29.157-4.154-7.093-.608-14.166-.725-21.257-.739-18.956-.036-37.588 2.537-55.946 7.168-19.164 4.835-37.487 11.88-54.88 21.271-14.952 8.073-28.915 17.597-41.814 28.684-16.49 14.175-30.95 30.154-43.007 48.26-12.502 18.774-22.135 38.935-28.903 60.464-3.826 12.17-6.645 24.578-8.537 37.178-2.378 15.84-2.974 31.82-1.948 47.773 1.655 25.752 7.363 50.645 17.157 74.571 8.926 21.806 20.782 41.89 35.71 60.086 18.284 22.285 39.824 40.822 64.864 55.228 14.03 8.073 28.688 14.732 44.04 19.823 12.712 4.216 25.685 7.381 38.947 9.398 12.136 1.844 24.304 3.016 37.441 2.752" fill="#759fba"/><path d="M867.89 360.255c2.166 2.188 3.756 3.763 5.312 5.37 11.773 12.151 26.188 19.043 42.82 21.527 11.143 1.665 22.18 1.262 33.093-1.67 15.123-4.065 26.961-12.736 35.864-25.53 1.096-1.574 2.17-3.163 3.461-5.047l4.203 4.911c8.642 10.092 18.872 18.006 31.35 22.828 8.19 3.165 16.691 4.848 25.443 5.326 10.706.585 21.296-.136 31.614-3.21 24.13-7.189 39.197-23.293 45.982-47.313 2.067-7.317 3.013-14.875 3.026-22.48.068-38.897.038-77.794.061-116.69.003-4.846-1.303-9.254-4.3-13.065-7.42-9.434-20.476-9.487-28.049-.32-2.74 3.316-4.297 7.175-4.427 11.528-.053 1.774-.04 3.551-.04 5.325-.002 33.41-.008 66.82.004 100.23.002 6.791-.325 13.554-1.956 20.173-2.545 10.328-7.486 19.157-16.234 25.584-4.355 3.2-9.166 5.36-14.382 6.638-10.75 2.633-21.403 2.427-31.913-1.237a44.278 44.278 0 0 1-10.328-5.209c-4.465-3.03-8.148-6.774-10.913-11.465-5.61-9.522-8.53-19.675-8.489-30.813.13-34.862.042-69.725.06-104.586 0-2.752.03-5.516-.689-8.177-2.063-7.624-6.693-12.712-14.622-14.435-5.465-1.186-10.242.426-14.436 3.81-4.06 3.273-6.43 7.61-6.934 12.847-.2 2.083-.257 4.187-.257 6.281.008 33.571.044 67.142.05 100.713.002 7.601-.456 15.163-2.584 22.521-3.333 11.517-9.842 20.583-20.609 26.232-5.036 2.642-10.465 4.262-16.106 4.891-8.93.995-17.755.33-26.205-2.917-14.732-5.659-23.425-16.58-27.014-31.74-1.34-5.672-1.778-11.465-1.777-17.292.007-34.379.004-68.757 0-103.135 0-1.774.045-3.557-.106-5.32-.682-7.986-6.75-14.879-14.553-16.77-5.653-1.374-10.53.237-14.875 3.761-4.977 4.04-6.883 9.58-7.283 15.768-.073 1.125-.025 2.26-.025 3.387 0 53.91.001 107.815-.004 161.723 0 2.422.07 4.82.596 7.214 2.003 9.107 8.874 15.108 18.045 15.28 4.334.081 8.206-1.559 11.341-4.656 3.467-3.425 5.343-7.607 5.763-12.452.22-2.534.188-5.1 1.021-8.339m555.919-79.165c-.242-6.44.258-14.015.934-21.56.748-8.365 2.326-16.587 5.649-24.383 5.083-11.927 13.793-20.022 25.874-24.559 9.508-3.57 19.293-3.95 29.02-1.517 15.388 3.85 26.368 13.055 32.083 28.092 1.374 3.617 2.362 7.354 3.156 11.143 1.56 7.447 2.028 15.004 2.369 22.58.602 13.401.307 26.773-1.504 40.074-.826 6.074-2.338 12.006-4.714 17.694-5.078 12.157-13.833 20.378-26.291 24.648-8.89 3.047-17.967 3.632-27.178 1.871-14.774-2.825-25.557-10.909-32.063-24.553-2.94-6.166-4.565-12.716-5.566-19.43-1.43-9.595-1.808-19.26-1.77-30.1m-36.862.05c-.152 11.595.416 22.223 1.902 32.782 1.883 13.372 5.607 26.153 13.003 37.615 10.769 16.688 25.777 27.847 44.87 33.138 17.775 4.925 35.78 5.04 53.49-.192 28.973-8.558 47.264-27.796 55.059-56.947 2.38-8.9 3.435-18.022 4.073-27.215.907-13.07.819-26.123-.167-39.17-.79-10.47-2.346-20.815-5.672-30.827-7.992-24.06-23.935-40.664-47.665-49.249-20.653-7.473-41.873-7.757-62.686-.838-25.626 8.52-42.287 26.332-50.427 52.055-2.833 8.951-4.237 18.19-4.955 27.54-.567 7.403-1.028 14.808-.825 21.307m274.135 78.701c2.061 2.055 3.457 3.355 4.75 4.751 11.99 12.95 26.84 20.278 44.247 22.66 12.65 1.73 25.11 1.035 37.257-3.036 22.225-7.448 36.242-22.694 42.316-45.236 2.235-8.289 3.033-16.798 3.028-25.388-.02-28.723 0-57.446.002-86.17.001-9.843-.042-19.686.01-29.529.024-4.522-1.24-8.594-3.9-12.21-7.353-10.003-21.339-10.2-28.94-.139-2.496 3.301-3.83 7.067-3.99 11.214-.062 1.611-.032 3.227-.032 4.84-.003 34.694-.012 69.388.001 104.081.003 7.48-1.042 14.77-3.557 21.838-5.589 15.713-16.737 24.74-33.038 27.671-7.729 1.39-15.433 1.34-23.037-.56-17.028-4.256-27.618-15.157-32.34-31.92-1.63-5.784-2.123-11.709-2.116-17.71.035-34.372.016-68.743.015-103.114 0-1.452.052-2.907-.018-4.356-.222-4.625-1.548-8.87-4.5-12.517-7.523-9.29-20.593-9.203-28.057.06-2.595 3.218-4.078 6.928-4.237 11.101-.062 1.612-.064 3.227-.065 4.84-.003 53.896-.003 107.793.002 161.69 0 1.773-.04 3.556.113 5.32.473 5.388 2.75 9.977 6.87 13.423 9.106 7.617 23.754 5.175 27.924-9.094.626-2.142.73-4.447.977-6.688.174-1.586.18-3.19.314-5.822m-442.644-257.673c-.04 1.496.704 3.611 1.465 5.752 7.44 20.943 14.842 41.9 22.259 62.85 1.344 3.795 2.642 7.61 4.098 11.362.802 2.067.699 3.967-.062 6.011a12854.844 12854.844 0 0 0-15.734 42.604c-15.626 42.476-31.242 84.954-46.865 127.431-1.172 3.186-2.261 6.367-2.081 9.86.189 3.644 1.236 6.983 3.272 9.98 4.989 7.341 14.333 9.71 22.26 5.615 4.633-2.392 7.838-6.047 9.546-11.047 6.35-18.594 12.788-37.158 19.133-55.754 9.467-27.743 18.879-55.504 28.33-83.252.412-1.207.964-2.369 1.518-3.52.064-.137.769-.169.807-.083.396.88.745 1.784 1.049 2.7 4.315 12.994 8.609 25.994 12.93 38.985 10.925 32.857 21.869 65.707 32.774 98.57.867 2.615 1.72 5.231 3.435 7.413 4.865 6.192 11.054 9.12 19.052 7.654 7.642-1.402 14.323-9.236 13.739-18.55-.223-3.558-1.145-6.974-2.385-10.33a170953.62 170953.62 0 0 1-45.833-124.204c-16.325-44.277-32.636-88.56-48.96-132.838-.611-1.66-1.166-3.36-1.96-4.937-2.525-5.003-6.413-8.404-11.956-9.74-6.57-1.584-13.14.956-16.852 6.6-1.998 3.035-2.984 6.406-2.98 10.868m785.353 179.908c-.294-9.533.081-19.027 1.868-28.43 2.286-12.027 7.156-22.712 16-31.367 9.281-9.084 20.524-13.71 33.41-14.432 6.14-.344 12.263-.199 18.271 1.353 5.356 1.383 10.342 3.606 14.89 6.753 4.29 2.968 8.97 4.16 14.18 3.72 9.302-.788 18.281-10.684 13.126-22.45-1.667-3.807-4.362-6.719-7.877-8.936-7.286-4.596-15.05-8.14-23.458-9.992-18.097-3.987-36.225-3.968-54.112 1.038-24.504 6.858-41.652 22.483-52.352 45.356-5.373 11.486-8.363 23.65-9.899 36.216-1.436 11.747-1.49 23.537-.684 35.284 1.207 17.544 5.32 34.378 14.216 49.778 12.705 21.992 31.698 35.202 56.494 40.115 16.046 3.179 32.08 2.84 47.99-1.03 8.535-2.075 16.401-5.722 23.738-10.54 4.091-2.686 6.82-6.303 7.923-11.127.405-1.772.447-3.496.073-5.267-2.3-10.902-13.279-16.923-23.847-13.088-1.838.666-3.496 1.635-5.129 2.676-16.238 10.36-33.5 11.048-50.949 4.224-15.363-6.007-24.88-17.952-29.947-33.47-2.467-7.554-3.477-15.409-3.885-23.316-.224-4.345-.04-8.712-.04-13.068m-101.302-.735c0-26.608.005-53.215-.01-79.822 0-2.094-.011-4.2-.225-6.279-.893-8.67-6.983-15.309-15.47-16.899-5.074-.95-9.593.498-13.582 3.583-4.899 3.787-7.159 8.99-7.589 15.06-.103 1.445-.059 2.901-.059 4.352-.002 53.697.002 107.395-.01 161.092-.002 2.911.035 5.81.725 8.652 1.72 7.084 7.737 13.71 16.257 14.41 4.716.386 8.956-.869 12.615-3.84 4.049-3.288 6.51-7.54 7.066-12.763.239-2.238.269-4.505.27-6.759.018-26.93.012-53.859.012-80.788m-18.581 152.948c-9.976-.314-19.63 8.27-19.522 19.664.113 11.84 10.304 19.637 19.85 19.399 10.841-.272 19.902-9.052 19.57-19.723-.402-12.904-11.098-19.84-19.898-19.34" fill="#21201f"/><path d="M594.73 278.32c-.118-26.122-5.523-51.157-15.526-75.25-6.538-15.75-15.17-30.277-25.917-43.488-7.95-9.773-16.868-18.647-26.281-27.04-9.534-8.5-19.601-16.28-30.331-23.191-14.155-9.118-29.094-16.651-45.113-21.962-8.744-2.9-17.674-5.195-26.812-6.091-10.435-1.024-20.923-1.112-31.245 1.57-13.453 3.495-23.825 11.094-31.116 22.91-5.783 9.373-8.702 19.672-9.983 30.53-.55 4.654-.835 9.3-.838 13.984-.004 7.766.88 15.454 2.216 23.067 4.425 25.212 13.873 48.57 26.405 70.779 10.83 19.192 23.827 36.772 38.624 53.09 14.279 15.747 30.237 29.479 48.055 41.042 11.679 7.58 24.033 13.822 37.322 18.1 7.377 2.375 14.895 3.934 22.632 4.825 7.665.882 15.118.348 22.547-1.287 15.63-3.44 27.024-12.415 34.31-26.633 3.852-7.514 6.33-15.505 8.073-23.733a137.82 137.82 0 0 0 2.979-31.221m-258.721-4.619c0-4.357.234-8.73-.039-13.07-1.569-25.006-6.54-49.18-18.086-71.67-5.429-10.573-12.278-20.093-21.315-27.912-6.44-5.576-13.67-9.704-22.082-11.49-9.036-1.918-17.954-1.56-26.639 1.77-7.922 3.036-14.936 7.548-21.235 13.224-10.31 9.29-18.466 20.247-24.998 32.422-9.146 17.048-15.147 35.201-18.647 54.204a204.598 204.598 0 0 0-3.13 26.376c-.262 4.994-.652 9.98-.51 14.975.694 24.384 4.727 48.104 14.693 70.54 5.876 13.228 13.51 25.342 24.16 35.323 6.171 5.785 13.065 10.5 21.106 13.374 14.118 5.047 27.578 3.325 40.475-3.966 8.411-4.755 15.272-11.321 21.356-18.72 10.055-12.228 17.117-26.127 22.522-40.922 5.277-14.443 8.661-29.322 10.69-44.562 1.324-9.94 1.925-19.889 1.68-29.897m54.089 214.9c24.764.474 48.728-3.938 71.942-12.437 14.917-5.46 28.938-12.675 41.565-22.4 7.582-5.84 14.365-12.474 19.384-20.726 3.063-5.038 5.018-10.374 5.102-16.405.085-6.014-2.047-11.009-6.003-15.349-2.74-3.006-5.972-5.403-9.504-7.399-7.504-4.24-15.542-7.046-23.952-8.82-7.096-1.496-14.259-2.425-21.487-3.145-9.513-.947-19.027-.993-28.505-.45-11.724.671-23.395 2.031-34.974 4.241-13.007 2.483-25.793 5.691-38.275 10.08-14.352 5.045-28.092 11.36-40.62 20.104-6.658 4.647-12.645 10.014-17.345 16.685-3.41 4.84-5.598 10.085-5.443 16.201.118 4.715 1.642 8.832 4.365 12.57 2.586 3.55 5.76 6.491 9.341 9.037 7.175 5.1 15.076 8.71 23.42 11.326 10.01 3.14 20.228 5.37 30.723 6.18 1.923.147 3.83.634 5.75.674 4.836.1 9.676.033 14.515.033M1423.808 281.09c-.04 10.84.339 20.505 1.769 30.1 1 6.714 2.626 13.264 5.566 19.43 6.506 13.644 17.289 21.728 32.063 24.553 9.21 1.761 18.289 1.176 27.178-1.87 12.458-4.27 21.213-12.492 26.29-24.649 2.377-5.688 3.889-11.62 4.715-17.694 1.81-13.3 2.106-26.673 1.504-40.074-.341-7.576-.81-15.133-2.37-22.58-.793-3.789-1.781-7.526-3.155-11.143-5.715-15.037-16.695-24.243-32.083-28.092-9.727-2.433-19.512-2.053-29.02 1.517-12.081 4.537-20.791 12.632-25.874 24.56-3.323 7.795-4.901 16.017-5.65 24.381-.675 7.546-1.175 15.121-.933 21.56" fill="#fff"/></g></svg>