<?xml version="1.0" encoding="UTF-8" standalone="no"?>
<svg
   xmlns:dc="http://purl.org/dc/elements/1.1/"
   xmlns:cc="http://creativecommons.org/ns#"
   xmlns:rdf="http://www.w3.org/1999/02/22-rdf-syntax-ns#"
   xmlns:svg="http://www.w3.org/2000/svg"
   xmlns="http://www.w3.org/2000/svg"
   viewBox="0 0 306 111.33333"
   height="111.33333"
   width="306"
   xml:space="preserve"
   id="svg2"
   version="1.1"><metadata
     id="metadata8"><rdf:RDF><cc:Work
         rdf:about=""><dc:format>image/svg+xml</dc:format><dc:type
           rdf:resource="http://purl.org/dc/dcmitype/StillImage" /></cc:Work></rdf:RDF></metadata><defs
     id="defs6" /><g
     transform="matrix(1.3333333,0,0,-1.3333333,0,111.33333)"
     id="g10"><g
       transform="scale(0.1)"
       id="g12"><path
         id="path14"
         style="fill:#f47216;fill-opacity:1;fill-rule:nonzero;stroke:none"
         d="m 901.305,570.645 h 0.004 v 0 z m -0.055,-0.184 v -0.195 c 0.102,-2.883 2.539,-5.11 5.43,-5.207 0.246,-0.02 122.08,-3.875 249.3,-8.125 127.2,-4.239 259.64,-8.875 280.16,-10.403 41.28,-3.047 292.96,-16.16 401.38,-19.218 108.33,-3.036 282.24,-15.243 333.98,-24.375 51.86,-9.122 70.86,-20.293 76.17,-33.758 0.2,-0.508 0.33,-1.192 0.33,-2.051 0.11,-7.813 -10.5,-26.316 -21.19,-42.344 -10.66,-16.086 -21.32,-30.012 -21.35,-30.039 -1.4,-1.836 -3.05,-4.043 -3.7,-4.973 -0.42,-0.574 -0.61,-1.277 -0.61,-1.941 0,-0.984 0.4,-1.953 1.18,-2.664 0.62,-0.539 1.41,-0.781 2.18,-0.781 0.91,0 1.83,0.371 2.49,1.109 0.76,0.844 2.65,2.934 4.21,4.633 0.02,0.223 52.07,56.746 52.35,79.695 0,1.399 -0.19,2.688 -0.64,3.86 -6.32,16.882 -27.09,41.851 -130.65,52.976 -103.49,11.153 -236.6,22.942 -421.33,33.633 -184.79,10.691 -464.16,9.172 -554.21,10.691 -90.06,1.528 -249.894,4.321 -250.035,4.321 -0.035,0 -0.062,0.008 -0.207,0.008 -2.754,-0.008 -5.117,-2.059 -5.215,-4.786 l -0.023,-0.066" /><path
         id="path16"
         style="fill:#f47216;fill-opacity:1;fill-rule:nonzero;stroke:none"
         d="m 1257.98,280.137 c 5.39,-1.934 10.73,-1.242 11.87,1.543 1.13,2.793 -2.31,6.738 -7.67,8.769 0,0 -330.481,125.891 -383.973,151.848 -68.273,33.125 -93.359,43.172 -118.484,68.269 -25.094,25.11 -30.477,112.09 -30.477,112.09 -0.351,5.723 -5.324,10.305 -11.062,10.176 0,0 -123.11,-2.781 -348.016,-34.91 C 145.25,565.793 45.5352,527.363 45.5352,527.363 c -5.3399,-2.05 -8.8204,-5.547 -7.711,-7.761 1.0977,-2.207 6.5508,-2.825 12.0821,-1.36 0,0 176.6717,46.543 333.3127,62.61 170.847,17.515 311.883,26.453 311.883,26.453 5.738,0.363 10.828,-4.024 11.32,-9.727 0,0 7.113,-80.984 37.254,-107.09 30.113,-26.101 121.527,-61.125 145.582,-72.297 56.226,-26.101 368.722,-138.054 368.722,-138.054" /><path
         id="path18"
         style="fill:#f47216;fill-opacity:1;fill-rule:nonzero;stroke:none"
         d="m 814.762,712.754 c 19.015,54.922 69.746,91.816 126.269,91.816 73.919,0 134.029,-62.05 134.029,-138.332 0,-24.363 -6.25,-48.355 -18.1,-69.39 -0.44,-0.793 -1.26,-1.25 -2.13,-1.25 -0.35,0 -0.67,0.078 -1,0.215 -1.17,0.527 -1.72,1.843 -1.32,3.042 4.99,14.426 7.52,29.543 7.52,44.907 0,14.375 -2.23,28.191 -6.32,41.172 -27.3,4.937 -136.507,24.644 -152.339,26.754 -18.141,2.414 -22.601,-1.446 -22.601,-1.446 -2.032,-1.726 -2.75,-1.187 -1.59,1.223 0,0 6.722,13.918 32.847,9.875 22.821,-3.527 113.263,-14.465 135.963,-17.199 -21.37,43.3 -64.927,73.035 -115.111,73.035 -45.777,0 -88.566,-25.446 -111.656,-66.422 -0.45,-0.793 -1.285,-1.242 -2.145,-1.242 -0.324,0 -0.672,0.058 -1,0.215 -1.144,0.515 -1.723,1.836 -1.316,3.027" /><path
         id="path20"
         style="fill:#231f20;fill-opacity:1;fill-rule:nonzero;stroke:none"
         d="m 277.871,239.121 h 46.578 v -53.469 c -0.582,-9.812 -5.855,-19.312 -15.804,-28.523 -9.954,-9.219 -20.438,-14.27 -31.434,-15.156 l 32.547,-32.539 h -44.133 l -32.527,32.539 -47.907,-0.227 v 32.766 h 70.184 c 3.867,0 8.395,0.136 13.594,0.437 5.203,0.305 9.058,1.574 11.59,3.789 2.527,2.231 4.23,4.985 5.121,8.242 v 19.622 h -23.176 -69.961 -23.395 v -97.168 h -39.003 v 97.382 32.305 h 39.003 108.723" /><path
         id="path22"
         style="fill:#231f20;fill-opacity:1;fill-rule:nonzero;stroke:none"
         d="m 504.055,206.602 h -65.953 c -15.457,0 -26.594,-2.383 -33.43,-7.129 -6.836,-4.754 -10.246,-13.078 -10.246,-24.961 h 18.715 90.914 z M 394.426,141.746 v -32.312 h -45.461 v 64.179 c 0.601,23.77 9.351,40.703 26.289,50.813 16.934,10.094 32.543,15.152 46.801,15.152 H 543.496 V 109.434 h -38.984 v 32.312 h -100.504 -9.582" /><path
         id="path24"
         style="fill:#231f20;fill-opacity:1;fill-rule:nonzero;stroke:none"
         d="M 762.766,239.578 V 206.602 H 657.383 c -15.457,0 -26.613,-2.383 -33.453,-7.129 -6.821,-4.754 -10.09,-13.606 -9.797,-26.535 V 141.973 H 762.766 V 109.434 H 568.227 v 31.203 32.976 c 0.597,23.77 9.367,40.703 26.3,50.813 16.934,10.094 32.539,15.152 46.797,15.152 h 121.442" /><path
         id="path26"
         style="fill:#231f20;fill-opacity:1;fill-rule:nonzero;stroke:none"
         d="M 981.809,206.602 H 849.684 c -5.801,0 -10.196,-1.426 -13.161,-4.239 -2.964,-2.82 -1.035,-6.758 5.79,-11.804 h 75.316 v -32.551 h -75.316 c -6.825,-5.039 -8.801,-8.977 -5.891,-11.809 2.891,-2.808 7.156,-4.226 12.801,-4.226 H 981.809 V 109.434 H 826.047 c -10.688,0 -19.82,3.156 -27.41,9.484 -7.567,6.309 -11.356,13.926 -11.356,22.828 -0.14,8.176 0.141,14.484 0.895,18.938 0.726,4.461 8.094,9.211 22.058,14.265 -14.257,7.727 -21.66,13.598 -22.168,17.61 -0.523,4.011 -0.718,8.769 -0.554,14.257 0,8.914 3.789,16.524 11.355,22.84 7.571,6.321 16.707,9.465 27.403,9.465 h 100.507 9.137 6.906 38.989 v -32.519" /><path
         id="path28"
         style="fill:#231f20;fill-opacity:1;fill-rule:nonzero;stroke:none"
         d="m 130.598,29.2188 v 48.0468 h 24.054 V 71.9258 H 136.879 V 56.6094 h 16.793 V 51.2383 H 136.879 V 29.2188 h -6.281" /><path
         id="path30"
         style="fill:#231f20;fill-opacity:1;fill-rule:nonzero;stroke:none"
         d="M 202.938,62.5391 V 46.0234 c 0,-4.2539 0.652,-7.4375 1.902,-9.5195 1.258,-2.0703 3.598,-3.1133 6.984,-3.1133 3.086,0 5.324,0.9727 6.731,2.8789 1.422,1.9141 2.109,5.2539 2.109,10.0196 v 16.582 c 0,3.3789 -0.793,5.918 -2.363,7.6484 -1.606,1.7071 -3.762,2.5664 -6.516,2.5664 -5.883,0 -8.847,-3.5156 -8.847,-10.5468 z m -6.282,-15.9688 v 15.8516 c 0,5.0117 1.278,8.9179 3.848,11.6797 2.559,2.7929 6.336,4.1797 11.32,4.1797 4.973,0 8.727,-1.3868 11.301,-4.1797 2.566,-2.7618 3.863,-6.6133 3.863,-11.5625 V 46.5703 c 0,-6.2656 -1.226,-10.918 -3.644,-13.8828 -2.41,-2.9922 -6.215,-4.4727 -11.418,-4.4727 -5.52,0 -9.438,1.5196 -11.785,4.5977 -2.332,3.0859 -3.485,7.6758 -3.485,13.7578" /><path
         id="path32"
         style="fill:#231f20;fill-opacity:1;fill-rule:nonzero;stroke:none"
         d="m 279.988,56.6094 h 9.039 c 2.012,0 3.61,0.7344 4.797,2.1914 1.196,1.4531 1.789,3.3867 1.789,5.8008 0,1.9922 -0.547,3.6914 -1.597,5.1328 -1.063,1.457 -2.649,2.1914 -4.762,2.1914 h -9.266 z m -6.32,-27.3906 v 48.0468 h 16.559 c 3.679,0 6.546,-1.0547 8.582,-3.164 2.07,-2.0821 3.109,-5.0391 3.109,-8.8477 0,-6.1523 -3.012,-9.8633 -9.043,-11.1328 2.59,-0.2539 4.527,-1.1016 5.781,-2.5391 1.282,-1.4375 1.992,-3.9648 2.157,-7.5664 0.199,-6.2617 0.792,-11.1836 1.785,-14.7968 h -6.399 c -0.636,0.957 -1.062,3.0468 -1.301,6.2617 -0.23,3.2304 -0.39,6.414 -0.558,9.5586 -0.238,4.1406 -2.598,6.1992 -7.074,6.1992 h -7.278 V 29.2188 h -6.32" /><path
         id="path34"
         style="fill:#231f20;fill-opacity:1;fill-rule:nonzero;stroke:none"
         d="m 347.152,77.2656 h 9.918 l 12.442,-40.5351 12.468,40.5351 h 10.122 V 29.2188 h -6.305 V 71.6484 L 372.266,29.2188 H 366.48 L 352.938,72.0195 V 29.2188 h -5.786 v 48.0468" /><path
         id="path36"
         style="fill:#231f20;fill-opacity:1;fill-rule:nonzero;stroke:none"
         d="m 438.645,77.2656 h 6.316 V 46.0625 c 0,-4.5859 0.684,-7.8477 2.105,-9.793 1.43,-1.9062 3.637,-2.8789 6.664,-2.8789 3.11,0 5.372,0.9453 6.797,2.8399 1.438,1.9062 2.149,5.1875 2.149,9.8633 v 31.1718 h 6.289 V 46.7773 c 0,-6.5898 -1.266,-11.3398 -3.813,-14.2265 -2.523,-2.9024 -6.269,-4.336 -11.226,-4.336 -5.18,0 -9.028,1.4336 -11.539,4.336 -2.481,2.8867 -3.742,7.6367 -3.742,14.2265 v 30.4883" /><path
         id="path38"
         style="fill:#231f20;fill-opacity:1;fill-rule:nonzero;stroke:none"
         d="m 515.77,77.2656 h 6.308 V 34.5703 h 17.75 V 29.2188 H 515.77 v 48.0468" /><path
         id="path40"
         style="fill:#231f20;fill-opacity:1;fill-rule:nonzero;stroke:none"
         d="m 588.461,46.0938 h 15.285 l -7.769,25.7226 z m -11.316,-16.875 15.156,48.0468 h 7.859 l 15.664,-48.0468 h -6.886 l -3.469,11.5234 h -18.606 l -3.547,-11.5234 h -6.171" /><path
         id="path42"
         style="fill:#231f20;fill-opacity:1;fill-rule:nonzero;stroke:none"
         d="m 708.227,43.3594 h 6.3 v -1.711 c 0,-2.4765 0.715,-4.4414 2.153,-5.8945 1.429,-1.4687 3.554,-2.1992 6.363,-2.1992 2.422,0 4.363,0.6562 5.875,1.9648 1.508,1.3047 2.258,3.211 2.258,5.711 0,2 -0.75,3.7304 -2.258,5.164 -1.48,1.4258 -4.098,3.086 -7.867,4.9532 -4.61,2.375 -7.731,4.5703 -9.371,6.5898 -1.614,2.0508 -2.418,4.4961 -2.418,7.3164 0,3.8945 1.258,7.043 3.769,9.4336 2.489,2.4023 6.008,3.5938 10.504,3.5938 4.461,0 7.82,-1.086 10.059,-3.2696 2.234,-2.1797 3.359,-5.1679 3.359,-8.9765 v -1.8477 h -6.301 c 0,5.832 -2.504,8.7422 -7.476,8.7422 -2.363,0 -4.235,-0.6328 -5.578,-1.8945 -1.352,-1.2618 -2.032,-2.9493 -2.032,-5.0899 0,-2.2539 1.028,-4.2265 3.063,-5.9453 1.266,-1.082 3.82,-2.5977 7.656,-4.5039 3.856,-1.9102 6.602,-3.8633 8.25,-5.8398 1.965,-2.3516 2.945,-5.086 2.945,-8.1915 0,-8.8359 -5.144,-13.25 -15.453,-13.25 -4.386,0 -7.793,1.1407 -10.218,3.4258 -2.379,2.3047 -3.582,5.625 -3.582,9.9532 v 1.7656" /><path
         id="path44"
         style="fill:#231f20;fill-opacity:1;fill-rule:nonzero;stroke:none"
         d="m 778.363,77.2656 h 31.371 v -5.3398 h -12.539 v -42.707 h -6.289 v 42.707 h -12.543 v 5.3398" /><path
         id="path46"
         style="fill:#231f20;fill-opacity:1;fill-rule:nonzero;stroke:none"
         d="m 852.047,77.2656 h 6.289 V 46.0625 c 0,-4.5859 0.711,-7.8477 2.137,-9.793 1.402,-1.9062 3.629,-2.8789 6.652,-2.8789 3.102,0 5.379,0.9453 6.777,2.8399 1.446,1.9062 2.157,5.1875 2.157,9.8633 v 31.1718 h 6.308 V 46.7773 c 0,-6.5898 -1.277,-11.3398 -3.816,-14.2265 -2.531,-2.9024 -6.266,-4.336 -11.242,-4.336 -5.164,0 -9.012,1.4336 -11.516,4.336 -2.5,2.8867 -3.746,7.6367 -3.746,14.2265 v 30.4883" /><path
         id="path48"
         style="fill:#231f20;fill-opacity:1;fill-rule:nonzero;stroke:none"
         d="m 935.664,34.5703 h 6.231 c 4.25,0 7.21,1.0547 8.91,3.1328 1.734,2.1094 2.586,5.6563 2.586,10.6485 V 59.082 c 0,4.6563 -0.797,7.9493 -2.399,9.9024 -1.566,1.9609 -3.922,2.9414 -6.992,2.9414 h -8.336 z m -6.301,-5.3515 v 48.0468 h 14.817 c 5.168,0 9.043,-1.5429 11.633,-4.6211 2.578,-3.082 3.871,-9.1757 3.871,-18.289 0,-10.8789 -1.457,-17.793 -4.407,-20.7227 -2.914,-2.9414 -7.328,-4.414 -13.25,-4.414 h -12.664" /><path
         id="path50"
         style="fill:#231f20;fill-opacity:1;fill-rule:nonzero;stroke:none"
         d="m 1006.1,29.2188 v 48.0468 h 25.1 v -5.3398 h -18.8 V 56.6094 h 17.43 v -5.3711 h -17.43 v -16.668 h 19.19 v -5.3515 h -25.49" /><path
         id="path52"
         style="fill:#231f20;fill-opacity:1;fill-rule:nonzero;stroke:none"
         d="m 1076.03,77.2656 h 8.73 l 18.94,-41.4843 v 41.4843 h 5.48 V 29.2188 h -8.45 L 1081.5,71.0625 V 29.2188 h -5.47 v 48.0468" /><path
         id="path54"
         style="fill:#231f20;fill-opacity:1;fill-rule:nonzero;stroke:none"
         d="m 1151.97,77.2656 h 31.37 v -5.3398 h -12.53 v -42.707 h -6.3 v 42.707 h -12.54 v 5.3398" /><path
         id="path56"
         style="fill:#231f20;fill-opacity:1;fill-rule:nonzero;stroke:none"
         d="m 1272.45,77.2656 h 31.38 v -5.3398 h -12.55 v -42.707 h -6.31 v 42.707 h -12.52 v 5.3398" /><path
         id="path58"
         style="fill:#231f20;fill-opacity:1;fill-rule:nonzero;stroke:none"
         d="m 1346.31,29.2188 v 48.0468 h 25.11 v -5.3398 h -18.8 V 56.6094 h 17.43 v -5.3711 h -17.43 v -16.668 h 19.19 v -5.3515 h -25.5" /><path
         id="path60"
         style="fill:#231f20;fill-opacity:1;fill-rule:nonzero;stroke:none"
         d="m 1422.75,46.0938 h 15.29 l -7.78,25.7226 z m -11.32,-16.875 15.14,48.0468 h 7.87 l 15.67,-48.0468 h -6.88 l -3.46,11.5234 h -18.61 l -3.56,-11.5234 h -6.17" /><path
         id="path62"
         style="fill:#231f20;fill-opacity:1;fill-rule:nonzero;stroke:none"
         d="m 1492.87,77.2656 h 9.92 l 12.45,-40.5351 12.46,40.5351 h 10.12 V 29.2188 h -6.3 v 42.4296 l -13.56,-42.4296 h -5.77 l -13.55,42.8007 V 29.2188 h -5.77 v 48.0468" /><path
         id="path64"
         style="fill:#231f20;fill-opacity:1;fill-rule:nonzero;stroke:none"
         d="m 1641.82,55.8906 17.03,21.375 h 6.99 l -17.53,-21.7695 18.5,-26.2773 h -7.86 l -17.13,25.332 v -25.332 h -6.32 v 48.0468 h 6.32 v -21.375" /><path
         id="path66"
         style="fill:#231f20;fill-opacity:1;fill-rule:nonzero;stroke:none"
         d="m 1709.57,77.2656 h 6.3 V 29.2188 h -6.3 v 48.0468" /><path
         id="path68"
         style="fill:#231f20;fill-opacity:1;fill-rule:nonzero;stroke:none"
         d="m 1763.46,29.2188 v 48.0468 h 25.1 v -5.3398 h -18.8 V 56.6094 h 17.43 v -5.3711 h -17.43 v -16.668 h 19.19 v -5.3515 h -25.49" /><path
         id="path70"
         style="fill:#231f20;fill-opacity:1;fill-rule:nonzero;stroke:none"
         d="m 1832.97,77.2656 h 6.32 V 34.5703 h 17.75 v -5.3515 h -24.07 v 48.0468" /><path
         id="path72"
         style="fill:#231f20;fill-opacity:1;fill-rule:nonzero;stroke:none"
         d="m 1122.87,109.434 h -39 v 48.808 h -38.55 c -10.85,0 -20.05,3.153 -27.63,9.473 -7.58,6.301 -11.37,13.926 -11.37,22.844 v 48.562 h 38.34 l 0.22,-29.18 c 0,-5.351 2.25,-9.914 6.79,-13.703 4.53,-3.789 10.06,-5.679 16.6,-5.679 h 69.97 c 6.39,0 11.88,1.89 16.49,5.679 4.61,3.789 6.91,8.352 6.91,13.703 v 29.18 h 39 v -48.34 c 0,-9.07 -3.79,-16.765 -11.37,-23.066 -7.57,-6.32 -16.71,-9.473 -27.4,-9.473 h -39 v -48.808" /><path
         id="path74"
         style="fill:#231f20;fill-opacity:1;fill-rule:nonzero;stroke:none"
         d="m 1379.79,206.602 h -65.95 c -15.45,0 -26.61,-2.383 -33.43,-7.129 -6.84,-4.754 -10.25,-13.078 -10.25,-24.961 h 18.72 90.91 z m -109.63,-64.856 v -32.312 h -45.46 v 64.179 c 0.6,23.77 9.35,40.703 26.29,50.813 16.93,10.094 32.54,15.152 46.81,15.152 h 121.43 V 109.434 h -38.99 v 32.312 h -100.5 -9.58" /><path
         id="path76"
         style="fill:#231f20;fill-opacity:1;fill-rule:nonzero;stroke:none"
         d="m 1591.71,239.121 h 46.57 v -53.469 c -0.6,-9.812 -5.87,-19.312 -15.84,-28.523 -9.93,-9.219 -20.41,-14.27 -31.4,-15.156 l 32.53,-32.539 h -44.12 l -32.54,32.539 -47.91,-0.227 v 32.766 h 70.2 c 3.85,0 8.4,0.136 13.59,0.437 5.21,0.305 9.07,1.574 11.6,3.789 2.51,2.231 4.22,4.985 5.12,8.242 v 19.622 h -23.18 -69.97 -23.4 v -97.168 h -38.99 v 97.382 32.305 h 38.99 108.75" /><path
         id="path78"
         style="fill:#231f20;fill-opacity:1;fill-rule:nonzero;stroke:none"
         d="m 1701.12,165.598 v -23.176 h 67.06 c 15.46,0 26.6,2.375 33.44,7.121 6.82,4.766 10.17,13.602 10.02,26.531 v 31.414 h -148.85 v 32.09 h 194.54 v -31.199 -32.981 c -0.6,-23.765 -9.37,-40.703 -26.3,-50.808 -16.94,-10.098 -32.54,-15.156 -46.8,-15.156 h -121.44 v 32.988 45.898 h 38.33 v -22.722" /><path
         id="path80"
         style="fill:#f47216;fill-opacity:1;fill-rule:nonzero;stroke:none"
         d="m 2125.94,205.77 h -132.16 c -5.79,0 -10.17,-1.415 -13.14,-4.239 -2.98,-2.82 -1.04,-6.758 5.81,-11.812 h 75.31 v -32.531 h -75.31 c -6.85,-5.059 -8.81,-9.004 -5.92,-11.817 2.89,-2.82 7.17,-4.226 12.82,-4.226 h 132.59 v -32.54 h -155.77 c -10.7,0 -19.84,3.153 -27.41,9.469 -7.57,6.313 -11.37,13.93 -11.37,22.844 -0.14,8.176 0.15,14.48 0.9,18.937 0.74,4.461 8.09,9.215 22.06,14.278 -14.26,7.715 -21.65,13.57 -22.18,17.586 -0.52,4.011 -0.69,8.769 -0.55,14.258 0,8.925 3.79,16.535 11.36,22.863 7.58,6.305 16.72,9.461 27.41,9.461 h 100.49 9.14 6.91 39.01 V 205.77" /><path
         id="path82"
         style="fill:#f47216;fill-opacity:1;fill-rule:nonzero;stroke:none"
         d="m 2028.65,305.41 c -72.77,0 -131.97,-59.199 -131.97,-131.965 0,-72.761 59.2,-131.9528 131.97,-131.9528 72.78,0 131.97,59.1918 131.97,131.9528 0,72.766 -59.19,131.965 -131.97,131.965 z m 0,-276.1912 c -79.54,0 -144.24,64.6992 -144.24,144.2262 0,79.543 64.7,144.243 144.24,144.243 79.53,0 144.23,-64.7 144.23,-144.243 0,-79.527 -64.7,-144.2262 -144.23,-144.2262 v 0" /></g></g></svg>