<svg xmlns="http://www.w3.org/2000/svg" viewBox="0 0 306 111.33333" height="111.333" width="306"><path d="M120.174 35.247zm-.007.025v.026c.013.384.338.681.724.694.032.003 16.277.517 33.24 1.083 16.96.566 34.618 1.184 37.354 1.388 5.504.406 39.062 2.154 53.518 2.562 14.444.405 37.632 2.032 44.53 3.25 6.915 1.216 9.448 2.706 10.156 4.501a.754.754 0 0 1 .044.273c.015 1.042-1.4 3.51-2.825 5.646a80.006 80.006 0 0 1-2.847 4.006c-.186.244-.406.539-.493.663a.44.44 0 0 0-.081.258c0 .132.053.26.157.356a.441.441 0 0 0 .29.104c.122 0 .245-.05.333-.148.101-.113.353-.391.561-.618.003-.03 6.943-7.566 6.98-10.626 0-.186-.025-.358-.085-.515-.843-2.25-3.612-5.58-17.42-7.063-13.799-1.487-31.547-3.059-56.178-4.484-24.638-1.426-61.888-1.223-73.894-1.426-12.008-.204-33.32-.576-33.338-.576l-.028-.001c-.367.001-.682.274-.695.638l-.003.009M167.73 73.982c.72.258 1.431.165 1.583-.206.151-.372-.308-.898-1.022-1.17 0 0-44.064-16.785-51.197-20.246-9.103-4.416-12.448-5.756-15.798-9.102-3.345-3.348-4.063-14.945-4.063-14.945a1.461 1.461 0 0 0-1.475-1.357s-16.415.37-46.402 4.654C19.366 35.894 6.07 41.018 6.07 41.018c-.712.274-1.176.74-1.028 1.035.147.294.874.377 1.611.181 0 0 23.556-6.205 44.442-8.348 22.78-2.335 41.584-3.527 41.584-3.527a1.435 1.435 0 0 1 1.51 1.297s.948 10.798 4.967 14.279c4.015 3.48 16.203 8.15 19.41 9.64 7.498 3.48 49.164 18.407 49.164 18.407M108.635 16.3c2.535-7.323 9.3-12.243 16.836-12.243 9.856 0 17.87 8.274 17.87 18.445a18.88 18.88 0 0 1-2.413 9.252.323.323 0 0 1-.417.138.329.329 0 0 1-.176-.406 18.278 18.278 0 0 0 1.002-5.988 18.23 18.23 0 0 0-.842-5.49c-3.64-.657-18.201-3.285-20.312-3.566-2.419-.322-3.014.192-3.014.192-.27.23-.366.159-.212-.163 0 0 .897-1.855 4.38-1.316 3.043.47 15.102 1.928 18.128 2.293-2.849-5.773-8.657-9.738-15.348-9.738-6.103 0-11.809 3.393-14.887 8.856a.328.328 0 0 1-.42.137.328.328 0 0 1-.175-.404" fill="#f47216"/><path d="M37.05 79.45h6.21v7.13c-.078 1.308-.78 2.575-2.107 3.803-1.328 1.229-2.725 1.902-4.192 2.02l4.34 4.34h-5.884l-4.337-4.34-6.388.03v-4.368h9.358c.516 0 1.12-.018 1.813-.058.693-.04 1.207-.21 1.545-.505.337-.298.564-.665.683-1.1v-2.616H22.553v12.956h-5.2V79.451h19.696M67.207 83.786h-8.793c-2.061 0-3.546.318-4.458.95-.911.635-1.366 1.745-1.366 3.33h14.617zM52.59 92.434v4.308H46.53v-8.557c.08-3.17 1.246-5.427 3.505-6.775 2.258-1.346 4.339-2.02 6.24-2.02h16.192v17.352h-5.198v-4.308H52.59M101.702 79.39v4.396h-14.05c-2.062 0-3.55.318-4.461.95-.91.635-1.346 1.815-1.307 3.539v4.129h19.818v4.338H75.764v-8.557c.08-3.17 1.249-5.427 3.506-6.775 2.258-1.346 4.339-2.02 6.24-2.02h16.192M130.908 83.786H113.29c-.773 0-1.36.19-1.755.566-.395.376-.138.9.772 1.573h10.043v4.34h-10.043c-.91.672-1.173 1.198-.785 1.575.385.375.954.564 1.707.564h17.678v4.338H110.14c-1.425 0-2.643-.42-3.655-1.264-1.009-.842-1.514-1.857-1.514-3.044-.019-1.09.019-1.931.12-2.525.096-.595 1.078-1.228 2.94-1.902-1.9-1.03-2.888-1.813-2.956-2.348-.07-.535-.095-1.17-.073-1.901 0-1.189.505-2.203 1.514-3.045 1.01-.843 2.227-1.262 3.653-1.262H130.908v4.335M17.413 107.437v-6.406h3.207v.712h-2.37v2.042h2.24v.717h-2.24v2.935h-.837M27.058 102.995v2.202c0 .567.087.992.254 1.27.168.275.48.414.931.414.412 0 .71-.13.898-.384.19-.255.28-.7.28-1.336v-2.21c0-.451-.105-.79-.314-1.02-.214-.228-.502-.342-.869-.342-.784 0-1.18.468-1.18 1.406zm-.837 2.129v-2.114c0-.668.17-1.189.513-1.557.341-.372.845-.557 1.51-.557.662 0 1.163.185 1.506.557.342.368.515.882.515 1.542v2.129c0 .835-.163 1.456-.486 1.851-.321.399-.828.596-1.522.596-.736 0-1.259-.202-1.572-.613-.31-.411-.464-1.023-.464-1.834M37.332 103.785h1.205a.782.782 0 0 0 .64-.292c.159-.194.238-.451.238-.773a1.13 1.13 0 0 0-.213-.685c-.142-.194-.353-.292-.635-.292h-1.235zm-.843 3.652v-6.406h2.208c.49 0 .873.14 1.144.422.276.278.415.672.415 1.18 0 .82-.402 1.315-1.206 1.484.345.034.604.147.77.339.172.191.266.528.288 1.009.027.834.106 1.49.238 1.972h-.853c-.085-.127-.141-.406-.173-.834-.03-.431-.052-.856-.075-1.275-.031-.552-.346-.826-.943-.826h-.97v2.935h-.843M46.287 101.031h1.322l1.66 5.405 1.662-5.405h1.35v6.406h-.841v-5.657l-1.805 5.657h-.771l-1.806-5.706v5.706h-.771v-6.406M58.486 101.031h.842v4.16c0 .612.091 1.047.28 1.306.191.255.486.384.89.384.414 0 .716-.126.906-.378.191-.255.286-.692.286-1.316v-4.156h.839v4.065c0 .879-.17 1.512-.509 1.897-.336.387-.836.578-1.497.578-.69 0-1.203-.19-1.538-.578-.33-.385-.499-1.018-.499-1.897v-4.065M68.77 101.031h.84v5.693h2.367v.713H68.77v-6.406M78.461 105.187H80.5l-1.035-3.43zm-1.508 2.25l2.02-6.406h1.048l2.089 6.406h-.918l-.463-1.536h-2.48l-.474 1.536h-.822M94.43 105.552h.84v.228c0 .33.096.592.287.786.19.196.474.293.849.293.323 0 .581-.087.783-.262.201-.174.301-.428.301-.761 0-.267-.1-.497-.3-.689-.198-.19-.547-.411-1.05-.66-.615-.317-1.03-.61-1.25-.879a1.531 1.531 0 0 1-.322-.975c0-.52.168-.94.503-1.258.332-.32.8-.48 1.4-.48.595 0 1.043.146 1.342.437.297.29.447.689.447 1.197v.246h-.84c0-.778-.334-1.166-.997-1.166-.315 0-.564.085-.743.253-.18.168-.271.393-.271.679 0 .3.137.563.408.792.169.145.51.347 1.021.6.514.256.88.516 1.1.78.262.313.393.678.393 1.092 0 1.178-.686 1.766-2.06 1.766-.586 0-1.04-.152-1.363-.456-.317-.308-.478-.75-.478-1.328v-.235M103.782 101.031h4.183v.712h-1.672v5.694h-.839v-5.694h-1.672v-.712M113.606 101.031h.839v4.16c0 .612.095 1.047.285 1.306.187.255.484.384.887.384.413 0 .717-.126.903-.378.193-.255.288-.692.288-1.316v-4.156h.84v4.065c0 .879-.17 1.512-.508 1.897-.337.387-.835.578-1.499.578-.688 0-1.201-.19-1.535-.578-.334-.385-.5-1.018-.5-1.897v-4.065M124.755 106.724h.831c.567 0 .961-.14 1.188-.418.231-.281.345-.754.345-1.42v-1.43c0-.621-.106-1.06-.32-1.32-.209-.262-.523-.393-.932-.393h-1.112zm-.84.713v-6.406h1.976c.689 0 1.205.206 1.55.616.344.411.517 1.224.517 2.439 0 1.45-.194 2.372-.588 2.763-.388.392-.977.588-1.766.588h-1.689M134.147 107.437v-6.406h3.346v.712h-2.506v2.042h2.324v.717h-2.324v2.222h2.558v.713h-3.398M143.47 101.031h1.165l2.525 5.531v-5.53h.73v6.405h-1.126l-2.564-5.579v5.58h-.73v-6.407M153.596 101.031h4.183v.712h-1.671v5.694h-.84v-5.694h-1.672v-.712M169.66 101.031h4.184v.712h-1.673v5.694h-.842v-5.694h-1.669v-.712M179.508 107.437v-6.406h3.348v.712h-2.507v2.042h2.324v.717h-2.324v2.222h2.559v.713h-3.4M189.7 105.187h2.039l-1.038-3.43zm-1.51 2.25l2.02-6.406h1.049l2.089 6.406h-.917l-.462-1.536h-2.481l-.475 1.536h-.822M199.05 101.031h1.322l1.66 5.405 1.661-5.405h1.35v6.406h-.84v-5.657l-1.808 5.657h-.77l-1.806-5.706v5.706h-.77v-6.406M218.91 103.881l2.27-2.85h.932l-2.337 2.903 2.466 3.503h-1.048l-2.284-3.377v3.377h-.842v-6.406h.842v2.85M227.943 101.031h.84v6.406h-.84v-6.406M235.128 107.437v-6.406h3.347v.712h-2.507v2.042h2.324v.717h-2.324v2.222h2.559v.713h-3.399M244.396 101.031h.843v5.693h2.366v.713h-3.209v-6.406M149.716 96.742h-5.2v-6.508h-5.14c-1.447 0-2.673-.42-3.684-1.263-1.01-.84-1.516-1.856-1.516-3.046v-6.474h5.112l.03 3.89c0 .714.3 1.322.905 1.827.604.505 1.341.757 2.213.757h9.33c.851 0 1.583-.252 2.198-.757s.921-1.113.921-1.827v-3.89h5.2v6.445c0 1.21-.505 2.235-1.516 3.075-1.009.843-2.228 1.263-3.653 1.263h-5.2v6.508M183.972 83.786h-8.793c-2.06 0-3.548.318-4.458.95-.912.635-1.366 1.745-1.366 3.33h14.617zm-14.617 8.648v4.308h-6.062v-8.557c.08-3.17 1.247-5.427 3.506-6.775 2.257-1.346 4.338-2.02 6.241-2.02h16.19v17.352h-5.198v-4.308h-14.677M212.228 79.45h6.21v7.13c-.08 1.308-.783 2.575-2.113 3.803-1.324 1.229-2.721 1.902-4.186 2.02l4.337 4.34h-5.883l-4.338-4.34-6.388.03v-4.368h9.36c.513 0 1.12-.018 1.812-.058.694-.04 1.209-.21 1.546-.505a2.24 2.24 0 0 0 .683-1.1v-2.616h-15.54v12.956h-5.199V79.451H212.228M226.816 89.254v3.09h8.941c2.062 0 3.547-.317 4.459-.95.91-.635 1.356-1.813 1.336-3.537v-4.189h-19.847V79.39h25.939v8.557c-.08 3.169-1.25 5.427-3.507 6.774-2.258 1.347-4.338 2.021-6.24 2.021h-16.192V86.224h5.111v3.03" fill="#231f20"/><path d="M283.459 83.897h-17.622c-.772 0-1.356.189-1.752.566-.397.376-.138.9.775 1.574h10.041v4.338H264.86c-.913.674-1.175 1.2-.79 1.576.386.376.957.563 1.71.563h17.679v4.339h-20.77c-1.426 0-2.645-.42-3.654-1.263-1.01-.842-1.516-1.857-1.516-3.046-.019-1.09.02-1.93.12-2.525.098-.594 1.078-1.228 2.941-1.903-1.901-1.03-2.887-1.81-2.957-2.345-.07-.535-.092-1.17-.074-1.901 0-1.19.506-2.205 1.515-3.049 1.01-.84 2.23-1.261 3.655-1.261h20.74v4.337" fill="#f47216"/><path d="M270.487 70.612c-9.703 0-17.596 7.893-17.596 17.595 0 9.702 7.893 17.594 17.596 17.594 9.704 0 17.596-7.892 17.596-17.594 0-9.702-7.892-17.595-17.596-17.595zm0 36.825c-10.606 0-19.232-8.626-19.232-19.23 0-10.605 8.626-19.232 19.232-19.232 10.604 0 19.23 8.627 19.23 19.232 0 10.604-8.626 19.23-19.23 19.23" fill="#f47216"/></svg>