<svg xmlns="http://www.w3.org/2000/svg" viewBox="0 0 552.79999 256.07999" height="256.08" width="552.8"><path d="M94.517 124.785h-31.49l-15.754 26.014h31.49l15.754-26.014m48.291 0h-31.487l-15.758 26.014h31.488l15.757-26.014M507.175 2.23c0-1.502 1.665-2.234 2.249-2.234h21.448c.623 0 2.13.824 2.203 2.19.04.68 0 119.043 0 119.043s0 2.467 2.294 4.401c2.286 1.932 4.58 1.932 4.58 1.932h9.876s2.276.185 2.627 1.764c.347 1.59 1.061 3.007-2.11 7.752l-6.522 10.21s-4.041 5.117-10.04 5.117c-5.99 0-14.27-1.94-19.547-7.58-5.274-5.647-7.058-14.264-7.058-18.139V2.231M382.497 129.327c-.705-1.942-2.654-1.942-5.284-1.942-2.646 0-7.405.887-10.39-2.28-2.999-3.176-2.298-4.75-2.298-7.568V83.184s0-21.315-12.142-32.41c-12.172-11.098-24.316-13.467-32.759-13.383-4.937.046-23.44.033-38.095.022-2.385 0-3.726.994-4.677 2.559-3.372 5.536-10.116 16.63-10.788 17.773-1.561 2.67-.147 5.626 2.927 5.716 2.112.062 52.04 0 52.04 0s9.158.707 12.316 5.796c3.181 5.124 3.181 6.879 3.181 12.168v28.891s2.123 18.025-22.013 17.78c-17.456-.182-23.97-5.277-23.97-12.15 0 0-1.064-9.867 8.639-12.505 9.69-2.642 14.972-1.938 26.413.183 2.124.517 2.295-1.07 2.295-2.653V83.899s.704-2.816-2.295-3.355c-2.985-.532-8.652-2.543-21.834-3.347-23.072-1.406-42.103 15.331-42.103 37.686 0 0-1.397 33.472 39.117 37.17 7.739.695 26.759.074 35.572-7.228 5.103-4.221 5.627-3.165 7.391-1.764 0 0 9.504 9.874 20.428 9.344 8.64-.185 12.156-9.172 18.145-19.549 0 0 .875-1.596.184-3.53" fill="#e41935"/><path d="M503.53 129.327c-.703-1.942-2.647-1.942-5.283-1.942-2.64 0-7.392.887-10.379-2.28-2.997-3.176-2.31-4.75-2.31-7.568V83.184s0-21.315-12.142-32.41c-12.159-11.098-24.31-13.467-32.757-13.383-4.927.046-23.442.033-38.094.022-2.376 0-3.717.994-4.673 2.559-3.37 5.536-10.113 16.63-10.776 17.773-1.58 2.67-.159 5.626 2.907 5.716 2.124.062 52.041 0 52.041 0s9.16.707 12.336 5.796c3.167 5.124 3.167 6.879 3.167 12.168v28.891s2.13 18.025-22.018 17.78c-17.442-.182-23.958-5.277-23.958-12.15 0 0-1.063-9.867 8.633-12.505 9.681-2.642 14.972-1.938 26.407.183 2.13.517 2.301-1.07 2.301-2.653V83.899s.705-2.816-2.301-3.355c-2.98-.532-8.654-2.543-21.822-3.347-23.085-1.406-42.101 15.331-42.101 37.686 0 0-1.405 33.472 39.116 37.17 7.733.695 26.745.074 35.564-7.228 5.104-4.221 5.627-3.165 7.399-1.764 0 0 9.504 9.874 20.428 9.344 8.625-.185 12.156-9.172 18.128-19.549 0 0 .89-1.596.188-3.53M4.784 150.797c-3.889 0-3.396-3.527-2.21-5.48 1.09-1.768 10.287-17.006 10.404-17.19 1.055-1.697 3.162-3.433 5.31-3.433h28.255L30.79 150.797H4.784m212.686 0c2.146 0 34.767-2.27 34.767-34.125 0-31.847-27.78-38.03-40.62-38.347-24.944-.646-24.309-6.19-24.516-8.621-.238-2.77 2.263-6.005 9.422-6.005h43.372c3.792.036 5.564-1.264 7.554-4.004.672-.922 9.82-16.194 10.444-17.172 1.638-2.568.007-5.167-2.5-5.146-.858.003-61.334 0-61.334 0s-35.022.003-34.456 32.818c.321 18.854 16.997 28.956 30.064 30.076 10.76.912 24.078 1.69 29.42 5.684 5.816 4.334 5.522 11.049 3.902 13.969-1.633 2.929-3.572 4.87-13.97 4.87l-49.787-.1-15.75 26.103h73.987" fill="#e41935"/><path d="M7.06 195.712l4.148 20.917c.795 4.588 1.765 9.18 2.295 13.591h.353c.619-4.412 1.676-9.355 2.648-13.415l4.943-21.093h5.206l4.678 20.475c1.06 4.768 2.03 9.268 2.736 14.033h.353c.53-4.5 1.324-8.915 2.295-13.768l4.06-20.74h6.794l-10.766 42.716h-5.56l-4.943-20.74c-1.058-4.148-1.678-7.944-2.383-12.798h-.175a134 134 0 0 1-2.472 13.063l-5.12 20.475h-5.735L0 195.712h7.06m50.84 0l4.147 20.917c.796 4.588 1.766 9.18 2.296 13.591h.353c.619-4.412 1.676-9.355 2.648-13.415l4.942-21.093h5.207l4.678 20.475c1.06 4.768 2.03 9.268 2.735 14.033h.354c.53-4.5 1.324-8.915 2.295-13.768l4.06-20.74h6.794l-10.766 42.716h-5.56l-4.943-20.74c-1.059-4.148-1.677-7.944-2.383-12.798h-.176c-.706 5.03-1.5 9.004-2.472 13.063l-5.119 20.475h-5.735L50.84 195.712h7.06m50.84 0l4.148 20.917c.795 4.588 1.766 9.18 2.295 13.591h.353c.62-4.412 1.677-9.355 2.648-13.415l4.943-21.093h5.206l4.678 20.475c1.058 4.768 2.03 9.268 2.736 14.033h.354c.528-4.5 1.323-8.915 2.294-13.768l4.06-20.74h6.796l-10.767 42.716h-5.562l-4.941-20.74c-1.06-4.148-1.678-7.944-2.383-12.798h-.177a133.724 133.724 0 0 1-2.472 13.063l-5.118 20.475h-5.736l-10.415-42.716h7.06m41.397 38.304c0-3.001 2.03-5.119 4.5-5.119 2.738 0 4.503 2.03 4.503 5.119 0 3.088-1.677 5.117-4.503 5.117-2.558 0-4.5-2.029-4.5-5.117m18.633-2.648c1.5.97 4.147 2.207 6.883 2.207 3.884 0 6.266-2.385 6.266-6.179 0-3.264-1.146-5.472-5.472-8.385-5.559-3.617-8.559-7.236-8.559-12.179 0-6.883 5.117-11.825 11.737-11.825 3.354 0 5.914 1.146 7.679 2.206l-1.855 5.12c-1.588-1.06-3.441-1.856-5.648-1.856-3.705 0-5.558 2.65-5.558 5.383 0 2.915 1.058 4.503 5.294 7.415 4.942 3.176 8.826 7.061 8.826 12.973 0 8.561-5.824 12.71-12.798 12.71-3.177 0-6.618-.971-8.472-2.471l1.678-5.119m43.424-15.005c-3.531 0-11.74.619-11.74 9.885 0 5.56 2.825 7.59 5.209 7.59 3 0 5.559-2.206 6.353-6.442.178-.792.178-1.676.178-2.384zm.97 22.065l-.442-4.501h-.266c-1.852 3.265-4.853 5.206-8.47 5.206-5.738 0-10.151-4.853-10.151-12.18 0-10.677 8.561-15.445 18.181-15.532v-1.324c0-5.737-1.412-9.708-6.796-9.708-2.648 0-5.03.883-7.06 2.207l-1.5-4.767c1.766-1.324 5.736-2.824 9.972-2.824 8.562 0 12.267 5.65 12.267 15.27v18.445c0 3.265 0 6.972.443 9.708h-6.178m31.158-22.065c-3.53 0-11.738.619-11.738 9.885 0 5.56 2.823 7.59 5.207 7.59 3.001 0 5.559-2.206 6.355-6.442.176-.792.176-1.676.176-2.384zm.972 22.065l-.443-4.501h-.265c-1.852 3.265-4.852 5.206-8.474 5.206-5.734 0-10.148-4.853-10.148-12.18 0-10.677 8.56-15.445 18.182-15.532v-1.324c0-5.737-1.412-9.708-6.796-9.708-2.648 0-5.031.883-7.06 2.207l-1.5-4.767c1.764-1.324 5.734-2.824 9.972-2.824 8.561 0 12.268 5.65 12.268 15.27v18.445c0 3.265 0 6.972.44 9.708h-6.176m15.269-61.072h6.797v61.073h-6.797v-61.073m32.306 40.494h-17.563v-7.56h17.562v7.56m28.155-5.898c0-.883 0-1.855-.088-2.825-.441-4.412-3.09-8.296-6.355-8.296-5.648 0-7.589 7.856-7.589 16.416 0 9.002 2.293 16.238 7.236 16.238 2.119 0 5.032-1.146 6.532-7.325.176-.794.264-1.764.264-2.823zm6.708-34.596v50.836c0 2.91.264 7.765.353 10.236h-5.825l-.441-5.383h-.264c-1.414 3.09-4.414 6.09-8.915 6.09-7.237 0-12.444-7.855-12.444-21.888 0-15.18 6.265-22.24 12.885-22.24 3.088 0 6.09 1.5 7.767 5.118h.176v-22.769h6.708m9.967 18.356h6.797v42.716h-6.797zm7.325-11.032c.09 2.647-1.587 4.412-4.148 4.412-2.207 0-3.884-1.765-3.884-4.412 0-2.648 1.767-4.414 3.972-4.414 2.473 0 4.06 1.766 4.06 4.414m27.528 25.772c0-1.06-.09-2.207-.353-3.09-.795-2.913-2.296-6.531-6.179-6.531-4.943 0-7.59 6.62-7.59 16.064 0 10.942 3.442 15.885 7.59 15.885 2.03 0 4.679-.97 6.09-6.09.353-1.324.442-2.647.442-3.883zm7.06-14.74c-.09 3-.353 6.796-.353 13.327v23.918c0 11.208-1.412 15.444-4.236 18.533-2.56 2.912-6.62 4.59-11.386 4.59-3.618 0-7.148-.883-9.356-2.117l1.59-5.297c1.677.882 4.501 1.854 7.944 1.854 5.382 0 8.737-3.355 8.737-13.063v-4.324h-.177c-1.5 3.354-4.59 5.207-8.207 5.207-7.59 0-12.535-8.56-12.535-21.093 0-15.71 7.15-22.24 13.418-22.24 4.586 0 6.706 3 7.942 5.56h.176l.354-4.855h6.089m8.652 0h6.796v42.716h-6.796zm7.325-11.032c.088 2.647-1.588 4.412-4.148 4.412-2.206 0-3.882-1.765-3.882-4.412 0-2.648 1.766-4.414 3.97-4.414 2.472 0 4.06 1.766 4.06 4.414m18.103-.265v11.298h8.207v5.206h-8.207v25.33c0 5.56 2.03 7.06 4.5 7.06 1.06 0 1.943-.089 2.737-.262l.264 5.204c-1.236.441-2.824.708-5.029.708-2.65 0-5.032-.708-6.71-2.562-1.675-1.94-2.56-4.852-2.56-10.765V200.92h-5.206v-5.206h5.207v-9.357l6.797-1.941m30.098 31.947c-3.53 0-11.738.619-11.738 9.885 0 5.56 2.823 7.59 5.207 7.59 3.001 0 5.558-2.206 6.354-6.442.176-.792.176-1.676.176-2.384zm.97 22.065l-.441-4.501h-.264c-1.854 3.265-4.855 5.206-8.474 5.206-5.737 0-10.149-4.853-10.149-12.18 0-10.677 8.561-15.445 18.181-15.532v-1.324c0-5.737-1.412-9.708-6.796-9.708-2.646 0-5.03.883-7.06 2.207l-1.501-4.767c1.765-1.324 5.737-2.824 9.973-2.824 8.56 0 12.268 5.65 12.268 15.27v18.445c0 3.265 0 6.972.442 9.708h-6.179m16.605-61.072h6.798v61.073h-6.798v-61.073m15.271 56.66c0-3.001 2.03-5.119 4.501-5.119 2.736 0 4.502 2.03 4.502 5.119 0 3.088-1.678 5.117-4.502 5.117-2.56 0-4.501-2.029-4.501-5.117m36.539-22.064c0-.883 0-1.855-.088-2.825-.442-4.412-3.088-8.296-6.355-8.296-5.648 0-7.59 7.856-7.59 16.416 0 9.002 2.295 16.238 7.238 16.238 2.119 0 5.03-1.146 6.53-7.325.177-.794.265-1.764.265-2.823zm6.709-34.596v50.836c0 2.91.263 7.765.352 10.236h-5.825l-.442-5.383h-.264c-1.413 3.09-4.413 6.09-8.914 6.09-7.236 0-12.444-7.855-12.444-21.888 0-15.18 6.266-22.24 12.885-22.24 3.09 0 6.09 1.5 7.768 5.118h.175v-22.769h6.709m26.381 35.301c.178-8.56-3.089-12.357-6.354-12.357-4.412 0-6.708 6.532-6.972 12.357zm-13.416 5.03c.09 13.062 5.208 15.888 10.151 15.888 2.912 0 5.384-.707 7.06-1.678l1.059 5.03c-2.383 1.324-6.002 2.032-9.355 2.032-10.237 0-15.533-8.384-15.533-21.447 0-13.857 5.825-22.505 14.385-22.505 8.737 0 12.18 9.178 12.18 18.887 0 1.588 0 2.735-.088 3.794h-19.859" fill="#393536"/></svg>