<svg width="99" height="37" viewBox="0 0 99 37" xmlns="http://www.w3.org/2000/svg" style="margin-left:auto;margin-right:auto" display="block"><defs><style>.g1_1{fill:#4c4d4e}</style></defs><path d="M0 0v37h99V0z" fill="#FFF"/><path d="M13.6 8.3c-.3 0-.6-.2-.6-.5V6.1c0-.3.3-.5.6-.5h2.2V.7c0-.3.2-.6.5-.6h1.6c.3 0 .6.3.6.6v4.9h3.1c.3 0 .6.2.6.5v1.7c0 .3-.3.5-.6.5h-3.1v16.1c0 1.7 1.3 3 2.9 3h.9c.3 0 .5.2.5.5v1.7c0 .3-.2.5-.5.5h-1.1c-3 0-5.4-2.4-5.4-5.5V8.3zM9.3 22.9c-.1-.5-.2-1-.4-1.4-.4-.6-.8-1.1-1.5-1.8-.8-.6-4.5-3.5-5.3-5-.4-.7-.9-1.9-.9-3.7v-.8c0-2.6 2-4.6 4.6-4.6h1.4c2.5 0 4.6 2 4.6 4.6V13c0 .3-.3.6-.6.6H9.6c-.3 0-.5-.3-.5-.6v-2.4c0-1.4-1.1-2.4-2.4-2.4h-.4c-1.3 0-2.4 1-2.4 2.3v.5c0 1.1.1 1.7 1 2.9.7.9 3.5 3.2 3.7 3.3 1.1.9 2.1 1.7 2.7 2.9.4.8.6 1.6.7 2.2.1.7.1 1.2.1 1.4v.9c0 3.1-2.5 5.5-5.5 5.5h-.8c-3.1 0-5.5-2.4-5.5-5.5v-3c0-.3.2-.6.5-.6h1.7c.3 0 .5.3.5.6v2.8c0 1.7 1.4 3 3 3h.4c1.5 0 2.9-1.2 2.9-2.7v-1.8m51.4-11.6v13.1c0 1.7 1.3 3 3 3h.4c1.6 0 2.9-1.3 2.9-3V11.3c0-1.7-1.3-3-2.9-3h-.4c-1.7 0-3 1.3-3 3m-2.7-.2c0-3.1 2.4-5.5 5.4-5.5h.9c3 0 5.5 2.4 5.5 5.5v13.5c0 3.1-2.5 5.5-5.5 5.5h-.9c-3 0-5.4-2.4-5.4-5.5zm17.5 18.5c0 .3-.2.5-.5.5h-1.7c-.3 0-.5-.2-.5-.5V11.1c0-3.1 2.4-5.5 5.5-5.5h.8c3 0 5.5 2.4 5.5 5.5v18.5c0 .3-.3.5-.6.5h-1.6c-.3 0-.5-.2-.5-.5V11.3c0-1.7-1.4-3-3-3h-.4c-1.7 0-3 1.3-3 3zm21.2-13.7v-4.6c0-1.7-1.3-3-3-3h-.4c-1.6 0-3 1.3-3 3v4.6zm-9.1-4.8c0-3.1 2.5-5.5 5.5-5.5h.8c3.1 0 5.5 2.4 5.5 5.5v6.8c0 .3-.2.5-.5.5h-8.6v6c0 1.7 1.4 3 3 3h.4c1.7 0 3-1.3 3-3v-2.8c0-.3.2-.6.5-.6h1.7c.3 0 .5.3.5.6v3c0 3.1-2.4 5.5-5.5 5.5h-.8c-3 0-5.5-2.4-5.5-5.5zm-54.2 4.8v-4.6c0-1.7-1.4-3-3-3H30c-1.6 0-3 1.3-3 3v4.6zm-9.1-4.8c0-3.1 2.5-5.5 5.5-5.5h.8c3.1 0 5.5 2.4 5.5 5.5v6.8c0 .3-.2.5-.5.5H27v6c0 1.7 1.4 3 3 3h.4c1.6 0 3-1.3 3-3v-2.8c0-.3.2-.6.5-.6h1.7c.3 0 .5.3.5.6v3c0 3.1-2.4 5.5-5.5 5.5h-.8c-3 0-5.5-2.4-5.5-5.5zm20.2 19c-.3 0-.5-.2-.5-.5v-1.7c0-.3.2-.5.5-.5h.9c1.6 0 2.9-1.3 2.9-3V11.3c0-1.7-1.3-3-2.9-3H45c-1.7 0-3 1.3-3 3v25c0 .3-.2.5-.5.5h-1.7c-.3 0-.5-.2-.5-.5V11.1c0-3.1 2.4-5.5 5.4-5.5h.9c3 0 5.5 2.4 5.5 5.5v13.5c0 3.1-2.5 5.5-5.5 5.5z" class="g1_1"/></svg>