<?xml version="1.0" encoding="UTF-8" standalone="no"?>
<!DOCTYPE svg PUBLIC "-//W3C//DTD SVG 1.1//EN"
"http://www.w3.org/Graphics/SVG/1.1/DTD/svg11.dtd">


<!-- Page 1 -->
<svg x="0" y="0" width="99" height="37" viewBox="0 0 99 37" version="1.1" xmlns="http://www.w3.org/2000/svg" xmlns:xlink="http://www.w3.org/1999/xlink"
style="display: block;margin-left: auto;margin-right: auto;">
<defs>

<style type="text/css"><![CDATA[

.g1_1{
fill: #4C4D4E;
}


]]></style>

</defs>
<path d="M0,0
L0,37
L99,37
L99,0 Z " 
fill="#FFFFFF" stroke="none" />
<path d="M13.6,8.3C13.3,8.3,13,8.1,13,7.8L13,6.1C13,5.8,13.3,5.6,13.6,5.6l2.2,0l0,-4.9C15.8,0.4,16,0.1,16.3,0.1l1.6,0c0.3,0,0.6,0.3,0.6,0.6l0,4.9l3.1,0c0.3,0,0.6,0.2,0.6,0.5l0,1.7c0,0.3,-0.3,0.5,-0.6,0.5l-3.1,0l0,16.1c0,1.7,1.3,3,2.9,3l0.9,0c0.3,0,0.5,0.2,0.5,0.5l0,1.7c0,0.3,-0.2,0.5,-0.5,0.5l-1.1,0c-3,0,-5.4,-2.4,-5.4,-5.5l0,-16.3ZM9.3,22.9C9.2,22.4,9.1,21.9,8.9,21.5C8.5,20.9,8.1,20.4,7.4,19.7C6.6,19.1,2.9,16.2,2.1,14.7C1.7,14,1.2,12.8,1.2,11l0,-0.8c0,-2.6,2,-4.6,4.6,-4.6l1.4,0c2.5,0,4.6,2,4.6,4.6l0,2.8c0,0.3,-0.3,0.6,-0.6,0.6l-1.6,0C9.3,13.6,9.1,13.3,9.1,13l0,-2.4C9.1,9.2,8,8.2,6.7,8.2l-0.4,0C5,8.2,3.9,9.2,3.9,10.5l0,0.5c0,1.1,0.1,1.7,1,2.9c0.7,0.9,3.5,3.2,3.7,3.3c1.1,0.9,2.1,1.7,2.7,2.9c0.4,0.8,0.6,1.6,0.7,2.2c0.1,0.7,0.1,1.2,0.1,1.4l0,0.9c0,3.1,-2.5,5.5,-5.5,5.5l-0.8,0C2.7,30.1,0.3,27.7,0.3,24.6l0,-3C0.3,21.3,0.5,21,0.8,21l1.7,0C2.8,21,3,21.3,3,21.6l0,2.8c0,1.7,1.4,3,3,3l0.4,0c1.5,0,2.9,-1.2,2.9,-2.7c0,-0.4,0,-1.5,0,-1.8M60.7,11.3l0,13.1c0,1.7,1.3,3,3,3l0.4,0c1.6,0,2.9,-1.3,2.9,-3L67,11.3c0,-1.7,-1.3,-3,-2.9,-3l-0.4,0c-1.7,0,-3,1.3,-3,3M58,11.1C58,8,60.4,5.6,63.4,5.6l0.9,0c3,0,5.5,2.4,5.5,5.5l0,13.5c0,3.1,-2.5,5.5,-5.5,5.5l-0.9,0c-3,0,-5.4,-2.4,-5.4,-5.5ZM75.5,29.6c0,0.3,-0.2,0.5,-0.5,0.5l-1.7,0c-0.3,0,-0.5,-0.2,-0.5,-0.5l0,-18.5C72.8,8,75.2,5.6,78.3,5.6l0.8,0c3,0,5.5,2.4,5.5,5.5l0,18.5c0,0.3,-0.3,0.5,-0.6,0.5l-1.6,0c-0.3,0,-0.5,-0.2,-0.5,-0.5l0,-18.3c0,-1.7,-1.4,-3,-3,-3l-0.4,0c-1.7,0,-3,1.3,-3,3ZM96.7,15.9l0,-4.6c0,-1.7,-1.3,-3,-3,-3l-0.4,0c-1.6,0,-3,1.3,-3,3l0,4.6ZM87.6,11.1C87.6,8,90.1,5.6,93.1,5.6l0.8,0c3.1,0,5.5,2.4,5.5,5.5l0,6.8c0,0.3,-0.2,0.5,-0.5,0.5l-8.6,0l0,6c0,1.7,1.4,3,3,3l0.4,0c1.7,0,3,-1.3,3,-3l0,-2.8c0,-0.3,0.2,-0.6,0.5,-0.6l1.7,0c0.3,0,0.5,0.3,0.5,0.6l0,3c0,3.1,-2.4,5.5,-5.5,5.5l-0.8,0c-3,0,-5.5,-2.4,-5.5,-5.5ZM33.4,15.9l0,-4.6c0,-1.7,-1.4,-3,-3,-3L30,8.3c-1.6,0,-3,1.3,-3,3l0,4.6ZM24.3,11.1C24.3,8,26.8,5.6,29.8,5.6l0.8,0c3.1,0,5.5,2.4,5.5,5.5l0,6.8c0,0.3,-0.2,0.5,-0.5,0.5l-8.6,0l0,6c0,1.7,1.4,3,3,3l0.4,0c1.6,0,3,-1.3,3,-3l0,-2.8c0,-0.3,0.2,-0.6,0.5,-0.6l1.7,0c0.3,0,0.5,0.3,0.5,0.6l0,3c0,3.1,-2.4,5.5,-5.5,5.5l-0.8,0c-3,0,-5.5,-2.4,-5.5,-5.5Zm20.2,19C44.2,30.1,44,29.9,44,29.6l0,-1.7c0,-0.3,0.2,-0.5,0.5,-0.5l0.9,0c1.6,0,2.9,-1.3,2.9,-3l0,-13.1c0,-1.7,-1.3,-3,-2.9,-3L45,8.3c-1.7,0,-3,1.3,-3,3l0,25c0,0.3,-0.2,0.5,-0.5,0.5l-1.7,0c-0.3,0,-0.5,-0.2,-0.5,-0.5l0,-25.2C39.3,8,41.7,5.6,44.7,5.6l0.9,0c3,0,5.5,2.4,5.5,5.5l0,13.5c0,3.1,-2.5,5.5,-5.5,5.5Z" class="g1_1" />

</svg>
