<svg xmlns="http://www.w3.org/2000/svg" viewBox="0 0 1122.52 404" height="404" width="1122.52"><defs><clipPath id="a"><path d="M0 303h841.89V0H0z"/></clipPath></defs><g clip-path="url(#a)" transform="matrix(1.33333 0 0 -1.33333 0 404)"><path d="M242.907 104.548l-1.287-32.596v-.61c0-.902.123-1.567.368-1.995.49-.838 2.094-1.356 4.809-1.56v-1.534c-2.634.204-4.697.307-6.186.307-1.473 0-3.576-.103-6.312-.307v1.534c1.796.121 3.022.335 3.675.643.675.306 1.113.897 1.317 1.777.103.428.164 1.01.185 1.745l1.318 30.79v.214c0 1.145-.123 1.941-.368 2.391-.511.877-2.114 1.397-4.811 1.56v1.535c1.98-.166 3.707-.246 5.179-.246 1.96 0 3.942.112 5.943.335l11.642-31.736 11.826 31.736c2.43-.223 4.452-.335 6.065-.335 1.287 0 2.92.08 4.902.246v-1.535c-1.675-.102-2.89-.306-3.645-.61-1.022-.432-1.532-1.442-1.532-3.034v-.52l.643-30.79c.04-1.289.184-2.155.428-2.606.552-.876 2.145-1.397 4.78-1.56v-1.534c-3.268.307-5.892.46-7.874.46-1.96 0-4.565-.153-7.811-.46v1.534c1.592.08 2.807.284 3.646.614.817.326 1.296.926 1.438 1.806.062.348.093.828.093 1.441v.304l-.521 32.507-10.386-27.97c-.244-.679-.777-2.149-1.593-4.412l-.827-2.39-.735-2.022h-.92l-.703 2.021-.86 2.42-.888 2.451-.766 2.174zM305.037 84.205c-.326 7.23-2.492 10.85-6.494 10.85-4.065 0-6.403-3.62-7.017-10.85zm2.605-8.116h2.45c-.264-2.388-1.031-4.44-2.298-6.16-2.001-2.736-4.932-4.104-8.792-4.104-3.983 0-7.057 1.368-9.221 4.104-2.31 2.922-3.462 6.713-3.462 11.367 0 4.597 1.152 8.344 3.462 11.246 2.206 2.755 5.147 4.137 8.822 4.137 2.86 0 5.3-.912 7.323-2.73 2.635-2.389 4.013-6.38 4.136-11.978h-18.66a43.67 43.67 0 0 1-.03-1.318c0-3.532.615-6.536 1.838-9.005 1.248-2.493 3.402-3.739 6.466-3.739 3.044 0 5.27 1.317 6.678 3.95.613 1.145 1.042 2.555 1.288 4.23M314.503 94.502v1.071c3.31.325 6.067.818 8.273 1.47.305-1.982.5-3.951.581-5.914.491 1.227 1.134 2.302 1.932 3.219 1.47 1.653 3.266 2.484 5.391 2.484 1.735 0 3.115-.543 4.136-1.624.877-.962 1.317-2.116 1.317-3.465 0-.876-.213-1.583-.644-2.113-.489-.611-1.143-.918-1.96-.918-.734 0-1.349.192-1.838.582-.49.387-.735.889-.735 1.503 0 .201.071.652.214 1.345.041.183.062.356.062.522 0 .447-.175.817-.522 1.103-.368.284-.807.428-1.317.428-1.96 0-3.452-1.266-4.472-3.801-.635-1.592-.95-3.715-.95-6.371V70.882c0-1.024.122-1.739.366-2.146.47-.715 1.85-1.122 4.137-1.223v-1.26c-2.88.246-5.218.371-7.015.371-1.798 0-4.137-.125-7.017-.371v1.26c1.45.057 2.501.211 3.155.457.696.284 1.114.776 1.257 1.47.062.265.092.745.092 1.442v19.512c-.02 1.186-.05 1.972-.092 2.359-.122.92-.745 1.464-1.869 1.624-.55.044-1.379.083-2.482.125M360.613 97.35V87.025h-1.41c-.388 1.88-.879 3.369-1.47 4.475-.593 1.122-1.405 2.01-2.435 2.666-1.033.652-2.14.978-3.325.978-2.615 0-4.534-1.377-5.759-4.136-1.144-2.593-1.717-5.901-1.717-9.926 0-8.822 2.431-13.233 7.292-13.233 3.86 0 6.178 2.746 6.954 8.24h2.513c-.266-2.285-.847-4.197-1.747-5.731-1.757-3.063-4.503-4.593-8.24-4.593-3.677 0-6.66 1.44-8.947 4.318-2.185 2.759-3.278 6.413-3.278 10.97 0 4.82 1.215 8.702 3.646 11.643 2.268 2.755 5.188 4.136 8.761 4.136 2.472 0 4.596-.888 6.373-2.666l1.685 3.184zM384.969 84.205c-.327 7.23-2.492 10.85-6.494 10.85-4.065 0-6.403-3.62-7.017-10.85zm2.605-8.116h2.45c-.265-2.388-1.03-4.44-2.298-6.16-2.002-2.736-4.932-4.104-8.793-4.104-3.982 0-7.056 1.368-9.22 4.104-2.31 2.922-3.462 6.713-3.462 11.367 0 4.597 1.152 8.344 3.462 11.246 2.205 2.755 5.147 4.137 8.822 4.137 2.86 0 5.3-.912 7.323-2.73 2.635-2.389 4.013-6.38 4.136-11.978h-18.66a43.67 43.67 0 0 1-.03-1.318c0-3.532.614-6.536 1.839-9.005 1.247-2.493 3.4-3.739 6.465-3.739 3.043 0 5.27 1.317 6.678 3.95.614 1.145 1.042 2.555 1.288 4.23M406.904 94.684c-4.41 0-6.618-4.523-6.618-13.573 0-3.78.448-6.873 1.348-9.28.49-1.35 1.24-2.42 2.252-3.22 1.01-.791 2.13-1.194 3.354-1.194 1.655 0 3.074.697 4.26 2.084 1.693 1.963 2.542 5.658 2.542 11.092 0 9.395-2.38 14.09-7.138 14.09m16.665-26.16v-1.106c-3.452-.406-6.209-.946-8.27-1.624a36.763 36.763 0 0 0-.859 5.025c-1.737-3.43-4.32-5.147-7.75-5.147-3.412 0-6.2 1.442-8.365 4.323-2.205 2.898-3.308 6.585-3.308 11.06 0 4.389 1.052 8.036 3.155 10.936 2.145 2.963 4.902 4.44 8.272 4.44 2.184 0 3.941-.633 5.27-1.9.653-.61 1.41-1.601 2.268-2.97v10.968c0 1.206-.124 2.043-.369 2.513-.348.614-1.053.979-2.114 1.103-.53.042-1.185.06-1.96.06v1.104c3.37.284 6.525.837 9.466 1.652V72.812c0-1.227.071-2.084.214-2.576.205-.754.695-1.234 1.47-1.438.573-.163 1.532-.256 2.88-.275M445.904 84.205c-.326 7.23-2.49 10.85-6.493 10.85-4.066 0-6.403-3.62-7.018-10.85zm2.605-8.116h2.451c-.266-2.388-1.03-4.44-2.298-6.16-2.002-2.736-4.933-4.104-8.793-4.104-3.983 0-7.056 1.368-9.22 4.104-2.31 2.922-3.463 6.713-3.463 11.367 0 4.597 1.153 8.344 3.462 11.246 2.206 2.755 5.147 4.137 8.823 4.137 2.86 0 5.3-.912 7.322-2.73 2.636-2.389 4.013-6.38 4.137-11.978h-18.659a43.67 43.67 0 0 1-.03-1.318c0-3.532.613-6.536 1.838-9.005 1.246-2.493 3.401-3.739 6.465-3.739 3.043 0 5.27 1.317 6.677 3.95.614 1.145 1.042 2.555 1.288 4.23M456.81 65.703v10.48h1.38c.347-1.778.808-3.24 1.378-4.384a7.179 7.179 0 0 1 2.773-2.957 7.683 7.683 0 0 1 3.999-1.087c1.919 0 3.512.582 4.779 1.746 1.142 1.083 1.714 2.378 1.714 3.893 0 1.531-.673 2.746-2.022 3.644-.755.511-2.316 1.308-4.688 2.391-2.51 1.145-4.063 1.867-4.655 2.174-2.84 1.49-4.26 3.708-4.26 6.65 0 2.531.879 4.545 2.636 6.034 1.838 1.554 4.105 2.327 6.8 2.327 2.249 0 4.394-.664 6.434-1.988l1.043 2.57h1.102v-9.743h-1.407c-.533 4.922-2.728 7.384-6.59 7.384-1.816 0-3.297-.569-4.44-1.713-1.001-.982-1.502-2.135-1.502-3.465 0-1.203.438-2.212 1.317-3.03.594-.55 1.92-1.286 3.983-2.207.45-.204 1.796-.799 4.044-1.777 2.063-.9 3.575-1.819 4.535-2.755 1.265-1.228 1.898-2.903 1.898-5.025 0-2.475-.856-4.546-2.573-6.22-1.9-1.86-4.402-2.789-7.505-2.789-2.758 0-5.28.876-7.568 2.635l-1.501-2.788zM480.187 84.666h16.115v-2.819h-16.115zM508.74 87.332V71.617c0-1.33.225-2.187.674-2.577.53-.428 1.594-.64 3.185-.64h2.298c2.573 0 4.565.673 5.975 2.022 1.84 1.758 2.758 4.328 2.758 7.72 0 3.167-.767 5.546-2.298 7.138-1.309 1.368-3.514 2.052-6.617 2.052zm0 1.93h4.29c2.082 0 3.624.237 4.625.704 2.654 1.228 3.983 3.862 3.983 7.905 0 2.82-.582 4.952-1.748 6.403-1.123 1.369-3.062 2.052-5.82 2.052h-5.33zm11.611-.492c1.715-.345 3.134-.866 4.258-1.56 1.287-.818 2.34-1.911 3.154-3.28.961-1.633 1.441-3.458 1.441-5.482 0-2.82-.887-5.328-2.664-7.534-1.738-2.13-4.115-3.485-7.138-4.08-1.307-.261-3.055-.395-5.239-.395h-15.87v1.53c1.757.126 2.971.33 3.645.615.838.367 1.318.968 1.441 1.806.06.326.091.907.091 1.745v30.426c0 1.285-.122 2.155-.369 2.602-.549.898-2.153 1.419-4.808 1.563v1.53h16.543c2.022 0 3.703-.178 5.041-.536a10.431 10.431 0 0 0 3.598-1.73c2.493-1.921 3.737-4.564 3.737-7.937 0-4.47-2.286-7.563-6.86-9.283M553.404 84.205c-.326 7.23-2.487 10.85-6.489 10.85-4.066 0-6.407-3.62-7.019-10.85zm2.608-8.116h2.45c-.264-2.388-1.03-4.44-2.296-6.16-2-2.736-4.936-4.104-8.794-4.104-3.983 0-7.055 1.368-9.222 4.104-2.308 2.922-3.459 6.713-3.459 11.367 0 4.597 1.151 8.344 3.46 11.246 2.204 2.755 5.146 4.137 8.821 4.137 2.862 0 5.301-.912 7.322-2.73 2.64-2.389 4.014-6.38 4.135-11.978h-18.655a45.807 45.807 0 0 1-.033-1.318c0-3.532.614-6.536 1.842-9.005 1.247-2.493 3.401-3.739 6.464-3.739 3.043 0 5.268 1.317 6.674 3.95.615 1.145 1.042 2.555 1.291 4.23M562.873 94.224v1.074c3.472.492 6.239 1.112 8.305 1.866.306-1.118.517-2.94.638-5.45 2.213 3.29 5.039 4.933 8.492 4.933 3.387 0 5.932-1.285 7.627-3.862 1.023-1.531 1.535-3.811 1.535-6.831V70.882c0-1.042.121-1.76.363-2.145.493-.735 1.867-1.144 4.138-1.224v-1.26c-2.738.246-5.033.37-6.893.37-1.861 0-4.117-.124-6.77-.37v1.227c1.246.039 2.211.215 2.909.522.633.326 1.01.796 1.132 1.41.063.243.095.703.095 1.377v15.379c0 2.494-.32 4.248-.952 5.268-.94 1.573-2.481 2.36-4.623 2.36-2.23 0-3.983-.844-5.274-2.542-.838-1.122-1.253-2.9-1.253-5.33V70.79c0-.962.108-1.633.339-2.023.505-.796 1.751-1.225 3.733-1.286v-1.227c-2.672.246-4.93.37-6.77.37-1.816 0-4.091-.124-6.829-.37v1.26c1.445.057 2.5.21 3.152.457.698.284 1.112.776 1.26 1.47.058.265.088.745.088 1.442v19.423c-.018 1.103-.063 1.847-.12 2.237-.121.895-.736 1.419-1.841 1.56a58.15 58.15 0 0 1-2.481.122M597.46 66.439l17.007 28.002h-6.956c-1.45 0-2.564-.186-3.338-.553-1.124-.53-2.084-1.654-2.883-3.37-.288-.61-.652-1.48-1.1-2.604h-1.292l1.414 8.15h20.83l-17.064-28.002h7.385c1.917.02 3.279.317 4.077.889 1.548 1.103 2.826 3.28 3.83 6.528h1.285l-1.624-9.04z" fill="#040606"/><path d="M817.201 135.727H27.833" fill="#231f20" stroke="#231f20" stroke-width="3"/><path d="M37.48 185.208c1.549-12.187 6.508-18.588 14.356-18.588 6.607 0 11.256 5.576 11.256 13.425 0 6.817-2.583 10.328-11.36 15.595-12.29 7.333-15.492 11.568-15.492 20.552 0 10.636 6.508 17.97 15.905 17.97 4.543 0 7.85-1.654 10.74-5.267l2.376 5.68h1.55v-19.003h-2.067c-1.858 10.637-5.68 15.49-11.98 15.49-5.783 0-10.223-5.37-10.223-12.186 0-6.092 2.169-8.675 12.805-15.284 11.155-6.92 14.15-11.36 14.15-20.863 0-11.36-6.817-19.312-16.628-19.312-5.06 0-9.088 1.756-13.012 5.887l-2.892-6.505h-1.55v22.41zM108.43 228.377a4.626 4.626 0 0 0-4.648-4.646c-2.581 0-4.75 2.167-4.75 4.75 0 2.478 2.169 4.647 4.75 4.647 2.584 0 4.648-2.169 4.648-4.751m-14.768 0c0-2.479-2.272-4.646-4.752-4.646-2.582 0-4.646 2.064-4.646 4.75 0 2.581 2.064 4.647 4.75 4.647 2.376 0 4.648-2.272 4.648-4.751m-17.867-16.213c4.545.516 8.365 1.342 12.703 2.684v-34.906c0-8.469 2.065-11.773 7.229-11.773 5.577 0 8.263 4.234 8.263 13.116v23.03c0 5.059-.724 5.99-4.648 5.99l-.93.104v1.755c4.648.516 8.469 1.342 12.807 2.684v-41.31c0-4.957.515-5.576 4.647-5.68h1.033v-1.859c-4.957-.619-8.055-1.341-11.464-2.684-.515 4.957-.62 6.092-.62 7.951v1.137c-2.581-6.197-5.99-8.882-11.36-8.882-8.16 0-12.186 5.474-12.186 16.524v24.27c0 5.059-.723 5.99-4.544 5.99l-.93.104zM138.792 163.11l-12.805 43.58c-1.24 3.72-1.963 4.337-6.196 4.648v2.064c4.026-.413 7.022-.618 9.19-.618 2.17 0 3.926.102 8.676.618v-2.064c-2.892 0-4.442-.725-4.442-2.273 0-.516.206-1.445.515-2.479l8.263-30.155 8.78 29.845c.413 1.446.62 2.583.62 3.098 0 1.343-1.55 1.964-4.132 1.964v2.064c2.788-.309 4.957-.413 6.402-.413 1.342 0 3.511.104 6.301.413v-2.064c-3.924-.31-4.855-1.033-6.093-5.062l-12.91-43.167zM186.922 193.574c-.416 11.98-2.997 17.867-8.06 17.867-4.748 0-7.537-5.888-8.362-17.867zm7.227-13.322c-1.033-10.74-6.403-16.937-14.56-16.937-10.226 0-16.731 9.81-16.731 25.406 0 15.18 6.505 25.405 16.11 25.405 9.398 0 14.769-8.676 15.18-24.269h-23.855c.207-9.192.725-12.91 2.273-16.938 1.446-3.925 4.44-6.195 7.952-6.195 5.678 0 9.5 4.956 10.43 13.528zM219.35 164.037c-4.339.516-6.507.621-9.295.621-2.789 0-4.854-.105-9.193-.62v2.065c4.75.31 5.577 1.137 5.577 5.578v32.324c0 3.202-.102 4.234-.515 5.06-.62 1.034-2.272 1.55-4.235 1.446-.207 0-.414 0-.72-.102v1.857c6.09.93 8.362 1.447 10.945 2.48.516-3.408.721-6.197.93-9.81 1.547 5.988 5.162 9.397 9.605 9.397 4.131 0 7.022-3.306 7.022-8.056 0-3.305-1.445-5.267-3.926-5.267-2.065 0-3.51 1.341-3.51 3.408 0 .62.102 1.136.31 2.168.104.517.206.93.206 1.137 0 1.24-1.033 2.272-2.169 2.272-4.13 0-6.712-6.3-6.712-16.73v-21.584c0-4.339 1.135-5.476 5.68-5.578zM266.029 171.68c2.376-4.543 3.407-5.371 7.437-5.576v-2.067c-3.1.31-4.338.415-5.785.415-1.446 0-2.787-.104-5.68-.415l-11.98 26.233-5.37-7.023V171.68c0-4.34.93-5.268 5.578-5.577v-2.067c-4.34.517-6.404.62-9.191.62-2.684 0-4.752-.103-9.088-.62v2.067c4.749.309 5.576 1.137 5.576 5.577v52.05c0 5.37-.618 5.989-5.475 6.093v1.859c4.547.516 8.366 1.342 12.704 2.685v-46.06l12.806 17.66c.928 1.239 1.447 2.27 1.447 2.89 0 1.448-1.447 2.274-4.545 2.48v2.065c3.304-.413 5.164-.516 7.849-.516 2.684 0 4.647.103 8.26.516v-2.065c-4.231-.413-5.472-1.136-8.26-4.855l-7.952-10.636zM296.185 164.037c-4.337.516-6.503.621-9.292.621-2.791 0-4.854-.105-9.192-.62v2.065c4.752.31 5.578 1.137 5.578 5.578v32.324c0 3.202-.105 4.234-.517 5.06-.62 1.034-2.273 1.55-4.237 1.446-.206 0-.411 0-.721-.102v1.857c6.093.93 8.365 1.447 10.946 2.48.518-3.408.724-6.197.932-9.81 1.55 5.988 5.163 9.397 9.603 9.397 4.13 0 7.024-3.306 7.024-8.056 0-3.305-1.447-5.267-3.927-5.267-2.065 0-3.51 1.341-3.51 3.408 0 .62.105 1.136.31 2.168.103.517.206.93.206 1.137 0 1.24-1.032 2.272-2.167 2.272-4.131 0-6.715-6.3-6.715-16.73v-21.584c0-4.339 1.137-5.476 5.679-5.578zM341.628 228.377a4.626 4.626 0 0 0-4.648-4.646c-2.582 0-4.751 2.167-4.751 4.75 0 2.478 2.169 4.647 4.75 4.647 2.585 0 4.649-2.169 4.649-4.751m-14.77 0c0-2.479-2.271-4.646-4.75-4.646-2.58 0-4.647 2.064-4.647 4.75 0 2.581 2.067 4.647 4.75 4.647 2.376 0 4.647-2.272 4.647-4.751m-17.865-16.213c4.542.516 8.364 1.342 12.702 2.684v-34.906c0-8.469 2.064-11.773 7.229-11.773 5.579 0 8.264 4.234 8.264 13.116v23.03c0 5.059-.725 5.99-4.648 5.99l-.93.104v1.755c4.647.516 8.47 1.342 12.804 2.684v-41.31c0-4.957.518-5.576 4.649-5.68h1.032v-1.859c-4.955-.619-8.055-1.341-11.461-2.684-.518 4.957-.621 6.092-.621 7.951v1.137c-2.58-6.197-5.991-8.882-11.361-8.882-8.158 0-12.184 5.474-12.184 16.524v24.27c0 5.059-.725 5.99-4.547 5.99l-.928.104zM367.55 189.237c0-15.182 3.098-22.928 9.088-22.928 5.473 0 8.363 7.54 8.363 22.102 0 15.077-2.89 22.72-8.465 22.72-5.784 0-8.986-7.745-8.986-21.894m-12.703 23.134c4.647.413 7.643.928 10.946 1.859.62-2.48.828-4.03 1.137-8.676 2.582 5.887 5.68 8.469 10.328 8.469 8.983 0 15.386-10.535 15.386-25.302 0-14.872-6.196-25.303-15.179-25.303-4.338 0-7.024 1.963-9.814 7.23v-19.314c0-4.438.826-5.265 5.577-5.577v-2.065c-4.75.519-6.918.62-9.398.62-2.477 0-4.647-.101-8.983-.62v2.065c4.75.312 5.577 1.139 5.577 5.577v52.98c0 2.996-.517 4.958-1.446 5.474-.725.517-1.55.62-4.13.723zM451.613 187.482l-7.85 30.672-9.19-30.672zm-20.86-12.911c-.52-1.961-.93-3.923-.93-4.957 0-2.066 1.34-2.787 5.37-3.097v-2.48c-3.306.414-5.268.516-7.85.516-2.58 0-4.438-.102-7.849-.516v2.48c5.061.414 5.786 1.134 7.746 7.229l19 61.654 17.146-62.79c1.442-4.752 2.375-5.577 7.538-6.093v-2.48c-4.645.62-7.024.827-10.018.827-3.097 0-5.47-.206-10.12-.827v2.48c3.614.414 4.958 1.237 4.958 3.097 0 .826-.208 2.067-.518 3.512l-2.786 11.154h-18.798zM472.166 212.164c4.542.516 8.362 1.342 12.701 2.684v-34.906c0-8.469 2.066-11.774 7.228-11.774 5.577 0 8.265 4.235 8.265 13.117v23.03c0 5.06-1.035 6.3-4.958 6.094h-.619v1.755c4.649.516 8.467 1.342 12.804 2.684v-41.31c0-4.957.518-5.576 4.645-5.68h1.035V166c-4.958-.619-8.054-1.34-11.464-2.684-.513 3.821-.615 5.164-.615 7.745v1.343c-2.584-6.197-5.994-8.883-11.363-8.883-8.159 0-12.188 5.475-12.188 16.525v24.27c0 5.06-.929 6.3-4.852 6.094h-.619zM540.943 166.413c-3.197-2.168-5.368-2.995-7.947-2.995-3.517 0-6.303 1.446-7.749 4.233-1.344 2.272-1.862 5.268-1.862 10.742v1.446l.314 29.432h-5.064v3.203c5.268.103 8.474 4.957 10.018 15.388h2.272v-14.769h9.297v-3.822h-9.297v-30.36c0-6.3.21-7.747 1.142-9.4.721-1.343 2.062-2.066 3.608-2.066 1.452 0 3 .621 5.268 2.066zM552.929 188.515c0-14.977 2.79-22.62 8.363-22.62 5.577 0 8.573 7.954 8.573 22.62 0 15.284-2.791 23.133-8.368 23.133-5.578 0-8.568-8.055-8.568-23.133m18.797 20.757c3.512-4.337 5.779-12.391 5.779-20.448 0-14.871-6.708-25.613-16.213-25.613-9.397 0-16.01 10.432-16.01 25.51 0 15.078 6.714 25.613 16.523 25.613 3.929 0 7.232-1.653 9.92-5.062M584.22 211.853c4.958.827 8.159 1.755 11.048 3.1.518-3.203.725-5.475.933-8.779 2.99 5.576 6.197 7.848 11.155 7.848 4.953 0 7.948-2.477 9.91-8.054 2.999 5.68 6.303 8.055 11.465 8.055 7.853 0 11.36-4.751 11.36-15.698V171.68c0-4.44.829-5.268 5.684-5.578v-2.066c-4.237.516-6.302.62-9.092.62-2.686 0-4.853-.104-8.984-.62v2.066c4.13.206 5.162 1.238 5.162 5.37v27.161c0 7.746-1.752 10.638-6.506 10.638-5.06 0-7.846-4.131-7.846-11.566v-26.233c0-4.132 1.03-5.164 5.16-5.37v-2.066c-4.333.516-6.403.62-8.773.62-2.38 0-4.445-.104-8.678-.62v2.066c4.025.206 5.06 1.238 5.06 5.37v26.955c0 7.746-1.751 10.843-6.301 10.843-2.58 0-5.162-1.549-6.402-3.82-1.238-2.273-1.653-4.442-1.653-8.882v-25.097c0-4.13 1.034-5.163 5.165-5.369v-2.066c-4.131.516-6.301.62-8.982.62-2.69 0-4.754-.104-8.99-.62v2.066c4.753.31 5.577 1.137 5.577 5.577v31.912c0 5.99-.31 6.3-4.438 6.403h-1.034zM659.508 188.515c0-14.977 2.79-22.62 8.367-22.62 5.577 0 8.57 7.954 8.57 22.62 0 15.284-2.786 23.133-8.362 23.133-5.577 0-8.575-8.055-8.575-23.133m18.797 20.757c3.51-4.337 5.784-12.391 5.784-20.448 0-14.871-6.713-25.613-16.214-25.613-9.401 0-16.006 10.432-16.006 25.51 0 15.078 6.71 25.613 16.524 25.613 3.923 0 7.226-1.653 9.912-5.062M701.85 189.132c0-8.983.828-14.768 2.584-18.175 1.653-3.099 3.716-4.648 6.196-4.648 5.683 0 8.57 7.54 8.57 22.514 0 15.182-2.684 22.308-8.261 22.308-5.886 0-9.088-7.85-9.088-21.999m-7.125 34.6c0 5.368-.62 5.987-5.472 6.091v1.86c4.75.515 8.569 1.342 12.7 2.684V206.38c2.582 5.473 5.475 7.642 9.918 7.642 8.878 0 14.97-10.224 14.97-25.3 0-14.976-6.297-25.304-15.487-25.304-5.06 0-8.266 2.787-10.534 8.882l-3.825-9.089h-2.27zM747.602 227.552a5.068 5.068 0 0 0-5.06-5.06c-2.79 0-4.957 2.169-4.957 5.06 0 2.788 2.167 4.957 5.06 4.957 2.685 0 4.958-2.272 4.958-4.957m-1.136-55.871c0-4.441.827-5.268 5.679-5.577v-2.067c-4.543.516-6.611.62-9.292.62-2.584 0-4.752-.104-9.192-.62v2.067c4.75.309 5.578 1.136 5.578 5.577v32.634c0 5.37-.518 5.99-5.476 6.094v1.755c4.751.516 8.571 1.343 12.702 2.684zM770.322 171.68c0-4.44.828-5.267 5.684-5.576v-2.067c-4.546.517-6.612.62-9.3.62-2.58 0-4.75-.103-9.19-.62v2.067c4.75.309 5.576 1.137 5.576 5.577v52.154c0 5.266-.62 5.989-5.47 5.989v1.859c4.541.516 8.468 1.342 12.7 2.685zM806.16 193.574c-.415 11.98-2.994 17.867-8.055 17.867-4.75 0-7.54-5.888-8.366-17.867zm7.228-13.322c-1.032-10.74-6.402-16.937-14.557-16.937-10.229 0-16.732 9.81-16.732 25.406 0 15.18 6.503 25.405 16.11 25.405 9.397 0 14.766-8.676 15.18-24.269H789.53c.21-9.192.726-12.91 2.275-16.938 1.45-3.925 4.44-6.195 7.951-6.195 5.68 0 9.504 4.956 10.43 13.528z" fill="#040606"/></g></svg>