<?xml version="1.0" encoding="UTF-8" standalone="no"?>
<svg
   xmlns:dc="http://purl.org/dc/elements/1.1/"
   xmlns:cc="http://creativecommons.org/ns#"
   xmlns:rdf="http://www.w3.org/1999/02/22-rdf-syntax-ns#"
   xmlns:svg="http://www.w3.org/2000/svg"
   xmlns="http://www.w3.org/2000/svg"
   viewBox="0 0 1122.52 404"
   height="404"
   width="1122.52"
   xml:space="preserve"
   id="svg2"
   version="1.1"><metadata
     id="metadata8"><rdf:RDF><cc:Work
         rdf:about=""><dc:format>image/svg+xml</dc:format><dc:type
           rdf:resource="http://purl.org/dc/dcmitype/StillImage" /></cc:Work></rdf:RDF></metadata><defs
     id="defs6"><clipPath
       id="clipPath18"
       clipPathUnits="userSpaceOnUse"><path
         id="path16"
         d="M 0,303 H 841.89 V 0 H 0 Z" /></clipPath></defs><g
     transform="matrix(1.3333333,0,0,-1.3333333,0,404)"
     id="g10"><g
       id="g12"><g
         clip-path="url(#clipPath18)"
         id="g14"><g
           transform="translate(242.9067,104.5483)"
           id="g20"><path
             id="path22"
             style="fill:#040606;fill-opacity:1;fill-rule:nonzero;stroke:none"
             d="m 0,0 -1.287,-32.596 v -0.61 c 0,-0.902 0.123,-1.567 0.368,-1.995 0.491,-0.838 2.094,-1.356 4.809,-1.56 v -1.534 c -2.634,0.204 -4.697,0.307 -6.186,0.307 -1.473,0 -3.576,-0.103 -6.312,-0.307 v 1.534 c 1.796,0.121 3.022,0.335 3.675,0.643 0.675,0.306 1.113,0.897 1.317,1.777 0.103,0.428 0.164,1.01 0.185,1.745 l 1.318,30.79 v 0.214 c 0,1.145 -0.123,1.941 -0.368,2.391 -0.511,0.877 -2.114,1.397 -4.811,1.56 v 1.535 c 1.981,-0.166 3.707,-0.246 5.179,-0.246 1.96,0 3.942,0.112 5.943,0.335 L 15.472,-27.753 27.298,3.983 c 2.43,-0.223 4.452,-0.335 6.065,-0.335 1.287,0 2.921,0.08 4.902,0.246 V 2.359 C 36.59,2.257 35.375,2.053 34.62,1.749 33.598,1.317 33.088,0.307 33.088,-1.285 v -0.521 l 0.643,-30.79 c 0.04,-1.288 0.184,-2.154 0.428,-2.605 0.552,-0.876 2.145,-1.397 4.78,-1.56 v -1.534 c -3.268,0.307 -5.892,0.46 -7.874,0.46 -1.96,0 -4.565,-0.153 -7.811,-0.46 v 1.534 c 1.592,0.08 2.807,0.284 3.646,0.614 0.817,0.326 1.296,0.926 1.438,1.806 0.062,0.348 0.093,0.828 0.093,1.441 v 0.304 L 27.91,-0.089 17.524,-28.06 c -0.244,-0.678 -0.777,-2.148 -1.593,-4.411 l -0.827,-2.391 -0.735,-2.021 H 13.45 l -0.704,2.021 -0.859,2.42 -0.889,2.451 -0.766,2.174 z" /></g><g
           transform="translate(305.0366,84.2051)"
           id="g24"><path
             id="path26"
             style="fill:#040606;fill-opacity:1;fill-rule:nonzero;stroke:none"
             d="m 0,0 c -0.326,7.23 -2.492,10.849 -6.494,10.849 -4.065,0 -6.403,-3.619 -7.017,-10.849 z m 2.605,-8.116 h 2.451 c -0.265,-2.388 -1.032,-4.441 -2.299,-6.16 -2.001,-2.736 -4.932,-4.104 -8.792,-4.104 -3.983,0 -7.057,1.368 -9.221,4.104 -2.31,2.922 -3.462,6.713 -3.462,11.367 0,4.597 1.152,8.344 3.462,11.246 2.206,2.755 5.147,4.137 8.822,4.137 2.86,0 5.301,-0.912 7.323,-2.731 2.635,-2.388 4.013,-6.38 4.136,-11.977 h -18.659 c -0.019,-0.573 -0.03,-1.01 -0.03,-1.318 0,-3.532 0.614,-6.536 1.837,-9.005 1.248,-2.493 3.402,-3.739 6.466,-3.739 3.044,0 5.27,1.317 6.678,3.95 0.613,1.145 1.042,2.555 1.288,4.23" /></g><g
           transform="translate(314.5034,94.502)"
           id="g28"><path
             id="path30"
             style="fill:#040606;fill-opacity:1;fill-rule:nonzero;stroke:none"
             d="m 0,0 v 1.071 c 3.31,0.325 6.067,0.818 8.273,1.47 0.305,-1.982 0.5,-3.951 0.581,-5.914 0.491,1.227 1.134,2.302 1.932,3.219 1.47,1.653 3.266,2.484 5.391,2.484 1.735,0 3.115,-0.543 4.136,-1.624 0.877,-0.962 1.317,-2.116 1.317,-3.465 0,-0.876 -0.213,-1.583 -0.644,-2.113 -0.489,-0.611 -1.143,-0.918 -1.96,-0.918 -0.734,0 -1.349,0.192 -1.838,0.582 -0.49,0.387 -0.735,0.889 -0.735,1.503 0,0.201 0.071,0.652 0.214,1.345 0.041,0.183 0.062,0.356 0.062,0.522 0,0.447 -0.175,0.817 -0.522,1.103 -0.368,0.284 -0.807,0.428 -1.317,0.428 -1.961,0 -3.452,-1.266 -4.472,-3.801 C 9.783,-5.7 9.467,-7.823 9.467,-10.479 V -23.62 c 0,-1.024 0.123,-1.739 0.367,-2.146 0.47,-0.715 1.85,-1.122 4.137,-1.223 v -1.26 c -2.88,0.246 -5.218,0.371 -7.015,0.371 -1.798,0 -4.137,-0.125 -7.017,-0.371 v 1.26 c 1.45,0.057 2.501,0.211 3.155,0.457 0.696,0.284 1.114,0.776 1.257,1.47 0.062,0.265 0.092,0.745 0.092,1.442 V -4.108 C 4.422,-2.922 4.393,-2.136 4.351,-1.749 4.229,-0.829 3.606,-0.285 2.482,-0.125 1.931,-0.081 1.103,-0.042 0,0" /></g><g
           transform="translate(360.6133,97.3496)"
           id="g32"><path
             id="path34"
             style="fill:#040606;fill-opacity:1;fill-rule:nonzero;stroke:none"
             d="m 0,0 v -10.325 h -1.41 c -0.388,1.88 -0.879,3.369 -1.47,4.475 -0.593,1.122 -1.405,2.011 -2.435,2.666 -1.033,0.652 -2.141,0.978 -3.325,0.978 -2.615,0 -4.534,-1.377 -5.759,-4.136 -1.144,-2.593 -1.717,-5.901 -1.717,-9.926 0,-8.822 2.431,-13.233 7.292,-13.233 3.86,0 6.178,2.746 6.954,8.24 h 2.513 c -0.266,-2.285 -0.847,-4.197 -1.747,-5.731 -1.757,-3.063 -4.503,-4.593 -8.241,-4.593 -3.676,0 -6.659,1.441 -8.946,4.318 -2.185,2.759 -3.278,6.413 -3.278,10.971 0,4.82 1.215,8.701 3.646,11.642 2.268,2.755 5.188,4.136 8.761,4.136 2.472,0 4.596,-0.888 6.373,-2.666 L -1.104,0 Z" /></g><g
           transform="translate(384.9687,84.2051)"
           id="g36"><path
             id="path38"
             style="fill:#040606;fill-opacity:1;fill-rule:nonzero;stroke:none"
             d="m 0,0 c -0.327,7.23 -2.492,10.849 -6.494,10.849 -4.065,0 -6.403,-3.619 -7.017,-10.849 z m 2.605,-8.116 h 2.45 c -0.265,-2.388 -1.03,-4.441 -2.298,-6.16 -2.002,-2.736 -4.932,-4.104 -8.793,-4.104 -3.982,0 -7.056,1.368 -9.22,4.104 -2.31,2.922 -3.462,6.713 -3.462,11.367 0,4.597 1.152,8.344 3.462,11.246 2.205,2.755 5.147,4.137 8.822,4.137 2.86,0 5.301,-0.912 7.323,-2.731 2.635,-2.388 4.013,-6.38 4.136,-11.977 h -18.659 c -0.019,-0.573 -0.03,-1.01 -0.03,-1.318 0,-3.532 0.613,-6.536 1.838,-9.005 1.247,-2.493 3.401,-3.739 6.465,-3.739 3.043,0 5.27,1.317 6.678,3.95 0.614,1.145 1.042,2.555 1.288,4.23" /></g><g
           transform="translate(406.9043,94.6836)"
           id="g40"><path
             id="path42"
             style="fill:#040606;fill-opacity:1;fill-rule:nonzero;stroke:none"
             d="m 0,0 c -4.411,0 -6.618,-4.523 -6.618,-13.573 0,-3.779 0.448,-6.873 1.348,-9.28 0.49,-1.349 1.24,-2.419 2.252,-3.219 1.01,-0.792 2.129,-1.195 3.354,-1.195 1.655,0 3.074,0.697 4.259,2.084 1.694,1.963 2.543,5.658 2.543,11.092 C 7.138,-4.696 4.758,0 0,0 m 16.665,-26.161 v -1.106 c -3.452,-0.406 -6.209,-0.946 -8.27,-1.624 -0.41,1.698 -0.696,3.372 -0.859,5.025 -1.737,-3.43 -4.32,-5.147 -7.75,-5.147 -3.412,0 -6.2,1.442 -8.365,4.323 -2.205,2.898 -3.308,6.585 -3.308,11.06 0,4.389 1.052,8.036 3.155,10.936 2.145,2.963 4.902,4.44 8.272,4.44 2.184,0 3.941,-0.633 5.269,-1.9 0.654,-0.61 1.41,-1.601 2.269,-2.969 V 7.844 c 0,1.206 -0.124,2.043 -0.369,2.513 -0.348,0.614 -1.053,0.979 -2.114,1.103 -0.531,0.042 -1.185,0.061 -1.961,0.061 v 1.103 c 3.37,0.284 6.526,0.837 9.467,1.652 v -36.148 c 0,-1.227 0.071,-2.084 0.214,-2.576 0.205,-0.754 0.695,-1.234 1.47,-1.438 0.573,-0.163 1.532,-0.256 2.88,-0.275" /></g><g
           transform="translate(445.9043,84.2051)"
           id="g44"><path
             id="path46"
             style="fill:#040606;fill-opacity:1;fill-rule:nonzero;stroke:none"
             d="m 0,0 c -0.326,7.23 -2.491,10.849 -6.493,10.849 -4.066,0 -6.403,-3.619 -7.018,-10.849 z m 2.605,-8.116 h 2.451 c -0.266,-2.388 -1.031,-4.441 -2.298,-6.16 -2.002,-2.736 -4.933,-4.104 -8.793,-4.104 -3.983,0 -7.056,1.368 -9.221,4.104 -2.309,2.922 -3.462,6.713 -3.462,11.367 0,4.597 1.153,8.344 3.462,11.246 2.206,2.755 5.147,4.137 8.823,4.137 2.86,0 5.3,-0.912 7.322,-2.731 2.636,-2.388 4.013,-6.38 4.137,-11.977 h -18.659 c -0.019,-0.573 -0.03,-1.01 -0.03,-1.318 0,-3.532 0.613,-6.536 1.838,-9.005 1.246,-2.493 3.401,-3.739 6.465,-3.739 3.043,0 5.269,1.317 6.677,3.95 0.614,1.145 1.042,2.555 1.288,4.23" /></g><g
           transform="translate(456.8096,65.7031)"
           id="g48"><path
             id="path50"
             style="fill:#040606;fill-opacity:1;fill-rule:nonzero;stroke:none"
             d="M 0,0 V 10.479 H 1.38 C 1.727,8.702 2.188,7.24 2.758,6.096 3.391,4.853 4.315,3.865 5.531,3.139 6.745,2.417 8.078,2.052 9.53,2.052 c 1.919,0 3.512,0.582 4.779,1.746 1.142,1.083 1.714,2.378 1.714,3.893 0,1.531 -0.673,2.746 -2.022,3.644 -0.755,0.511 -2.316,1.308 -4.688,2.391 -2.51,1.145 -4.063,1.867 -4.655,2.174 -2.839,1.489 -4.26,3.708 -4.26,6.649 0,2.532 0.879,4.546 2.636,6.035 1.838,1.554 4.105,2.327 6.801,2.327 2.248,0 4.393,-0.664 6.433,-1.988 l 1.043,2.57 h 1.102 V 21.75 h -1.407 c -0.533,4.922 -2.728,7.384 -6.589,7.384 -1.817,0 -3.298,-0.569 -4.441,-1.713 -1.001,-0.982 -1.502,-2.135 -1.502,-3.465 0,-1.203 0.438,-2.212 1.317,-3.031 0.594,-0.55 1.92,-1.285 3.983,-2.206 0.45,-0.204 1.796,-0.799 4.044,-1.777 2.063,-0.901 3.575,-1.819 4.535,-2.755 1.265,-1.228 1.898,-2.903 1.898,-5.025 0,-2.475 -0.856,-4.546 -2.573,-6.221 -1.899,-1.86 -4.402,-2.788 -7.505,-2.788 -2.758,0 -5.28,0.876 -7.568,2.635 L 1.104,0 Z" /></g><path
           id="path52"
           style="fill:#040606;fill-opacity:1;fill-rule:nonzero;stroke:none"
           d="m 480.187,84.666 h 16.115 v -2.819 h -16.115 z" /><g
           transform="translate(508.7402,87.3315)"
           id="g54"><path
             id="path56"
             style="fill:#040606;fill-opacity:1;fill-rule:nonzero;stroke:none"
             d="m 0,0 v -15.715 c 0,-1.329 0.225,-2.186 0.674,-2.576 0.53,-0.429 1.594,-0.64 3.185,-0.64 h 2.298 c 2.573,0 4.565,0.672 5.975,2.021 1.839,1.758 2.758,4.328 2.758,7.72 0,3.167 -0.767,5.546 -2.298,7.138 C 11.283,-0.684 9.078,0 5.975,0 Z m 0,1.931 h 4.289 c 2.083,0 3.625,0.236 4.626,0.703 2.654,1.228 3.983,3.862 3.983,7.905 0,2.82 -0.582,4.952 -1.748,6.403 -1.123,1.369 -3.062,2.052 -5.82,2.052 H 0 Z M 11.611,1.438 c 1.715,-0.345 3.134,-0.866 4.258,-1.56 1.287,-0.818 2.339,-1.911 3.154,-3.279 0.961,-1.634 1.441,-3.459 1.441,-5.483 0,-2.819 -0.887,-5.328 -2.664,-7.534 -1.738,-2.129 -4.115,-3.484 -7.138,-4.079 -1.307,-0.262 -3.055,-0.396 -5.239,-0.396 h -15.87 v 1.531 c 1.757,0.125 2.971,0.329 3.645,0.614 0.838,0.367 1.318,0.968 1.441,1.806 0.06,0.326 0.091,0.907 0.091,1.745 v 30.426 c 0,1.285 -0.122,2.155 -0.369,2.602 -0.549,0.898 -2.153,1.419 -4.808,1.563 v 1.531 H 6.096 c 2.022,0 3.703,-0.179 5.041,-0.537 1.337,-0.358 2.536,-0.933 3.598,-1.729 2.493,-1.922 3.737,-4.565 3.737,-7.938 0,-4.469 -2.286,-7.563 -6.861,-9.283" /></g><g
           transform="translate(553.4043,84.2051)"
           id="g58"><path
             id="path60"
             style="fill:#040606;fill-opacity:1;fill-rule:nonzero;stroke:none"
             d="m 0,0 c -0.326,7.23 -2.487,10.849 -6.489,10.849 -4.066,0 -6.407,-3.619 -7.019,-10.849 z m 2.608,-8.116 h 2.45 c -0.264,-2.388 -1.03,-4.441 -2.296,-6.16 -2.001,-2.736 -4.936,-4.104 -8.794,-4.104 -3.983,0 -7.055,1.368 -9.222,4.104 -2.308,2.922 -3.459,6.713 -3.459,11.367 0,4.597 1.151,8.344 3.459,11.246 2.205,2.755 5.147,4.137 8.822,4.137 2.862,0 5.301,-0.912 7.322,-2.731 C 3.529,7.355 4.904,3.363 5.025,-2.234 H -13.63 c -0.019,-0.573 -0.033,-1.01 -0.033,-1.318 0,-3.532 0.614,-6.536 1.842,-9.005 1.247,-2.493 3.401,-3.739 6.464,-3.739 3.043,0 5.268,1.317 6.674,3.95 0.615,1.145 1.042,2.555 1.291,4.23" /></g><g
           transform="translate(562.873,94.2236)"
           id="g62"><path
             id="path64"
             style="fill:#040606;fill-opacity:1;fill-rule:nonzero;stroke:none"
             d="M 0,0 V 1.074 C 3.472,1.566 6.239,2.186 8.305,2.94 8.611,1.822 8.822,0 8.943,-2.51 c 2.213,3.29 5.039,4.933 8.492,4.933 3.387,0 5.932,-1.285 7.627,-3.862 1.023,-1.531 1.535,-3.811 1.535,-6.831 v -15.072 c 0,-1.042 0.121,-1.759 0.363,-2.145 0.493,-0.735 1.867,-1.144 4.138,-1.224 v -1.26 c -2.738,0.246 -5.033,0.371 -6.893,0.371 -1.861,0 -4.117,-0.125 -6.77,-0.371 v 1.227 c 1.246,0.039 2.211,0.215 2.909,0.522 0.633,0.326 1.01,0.796 1.132,1.41 0.063,0.243 0.095,0.703 0.095,1.377 v 15.379 c 0,2.494 -0.32,4.248 -0.952,5.268 -0.94,1.573 -2.481,2.36 -4.623,2.36 -2.23,0 -3.983,-0.844 -5.274,-2.542 C 9.884,-4.092 9.469,-5.869 9.469,-8.299 v -15.136 c 0,-0.962 0.108,-1.633 0.339,-2.023 0.505,-0.796 1.751,-1.225 3.733,-1.286 v -1.227 c -2.672,0.246 -4.93,0.371 -6.77,0.371 -1.816,0 -4.091,-0.125 -6.829,-0.371 v 1.26 c 1.445,0.057 2.5,0.211 3.152,0.457 0.698,0.284 1.112,0.776 1.26,1.47 0.058,0.265 0.088,0.745 0.088,1.442 V -3.919 C 4.424,-2.816 4.379,-2.072 4.322,-1.682 4.201,-0.787 3.586,-0.263 2.481,-0.122 1.969,-0.08 1.145,-0.039 0,0" /></g><g
           transform="translate(597.4609,66.4385)"
           id="g66"><path
             id="path68"
             style="fill:#040606;fill-opacity:1;fill-rule:nonzero;stroke:none"
             d="M 0,0 17.006,28.002 H 10.05 C 8.6,28.002 7.486,27.817 6.712,27.449 5.588,26.919 4.628,25.796 3.829,24.08 3.541,23.47 3.177,22.6 2.729,21.475 H 1.437 l 1.414,8.151 h 20.83 L 6.617,1.624 h 7.385 c 1.917,0.019 3.279,0.316 4.077,0.888 1.548,1.103 2.826,3.28 3.83,6.528 h 1.285 L 21.57,0 Z" /></g><g
           transform="translate(817.2012,135.7275)"
           id="g70"><path
             id="path72"
             style="fill:#231f20;fill-opacity:1;fill-rule:nonzero;stroke:#231f20;stroke-width:3;stroke-linecap:butt;stroke-linejoin:miter;stroke-miterlimit:4;stroke-dasharray:none;stroke-opacity:1"
             d="M 0,0 H -789.368" /></g><g
           transform="translate(37.4805,185.2085)"
           id="g74"><path
             id="path76"
             style="fill:#040606;fill-opacity:1;fill-rule:nonzero;stroke:none"
             d="m 0,0 c 1.548,-12.187 6.507,-18.588 14.355,-18.588 6.608,0 11.257,5.576 11.257,13.425 0,6.816 -2.583,10.327 -11.361,15.594 C 1.962,17.764 -1.24,21.999 -1.24,30.983 c 0,10.637 6.508,17.97 15.905,17.97 4.543,0 7.849,-1.653 10.74,-5.266 l 2.375,5.679 h 1.55 V 30.363 H 27.264 C 25.405,41 21.583,45.854 15.284,45.854 9.5,45.854 5.06,40.484 5.06,33.668 c 0,-6.092 2.169,-8.675 12.805,-15.284 11.155,-6.921 14.15,-11.361 14.15,-20.863 0,-11.36 -6.817,-19.312 -16.628,-19.312 -5.06,0 -9.088,1.756 -13.012,5.887 l -2.892,-6.505 H -2.066 V 0 Z" /></g><g
           transform="translate(108.4297,228.377)"
           id="g78"><path
             id="path80"
             style="fill:#040606;fill-opacity:1;fill-rule:nonzero;stroke:none"
             d="m 0,0 c 0,-2.582 -2.064,-4.646 -4.648,-4.646 -2.581,0 -4.75,2.167 -4.75,4.75 0,2.478 2.169,4.647 4.75,4.647 C -2.064,4.751 0,2.582 0,0 m -14.768,0 c 0,-2.479 -2.272,-4.646 -4.752,-4.646 -2.582,0 -4.646,2.064 -4.646,4.75 0,2.581 2.064,4.647 4.75,4.647 2.376,0 4.648,-2.272 4.648,-4.751 m -17.867,-16.213 c 4.545,0.516 8.365,1.342 12.703,2.684 v -34.906 c 0,-8.469 2.065,-11.773 7.229,-11.773 5.577,0 8.263,4.234 8.263,13.116 v 23.03 c 0,5.059 -0.724,5.99 -4.648,5.99 l -0.929,0.104 v 1.755 c 4.647,0.516 8.468,1.342 12.806,2.684 v -41.31 c 0,-4.957 0.515,-5.576 4.647,-5.68 h 1.033 v -1.859 c -4.957,-0.619 -8.055,-1.341 -11.464,-2.684 -0.515,4.957 -0.619,6.092 -0.619,7.951 v 1.137 c -2.582,-6.197 -5.99,-8.882 -11.361,-8.882 -8.159,0 -12.186,5.474 -12.186,16.524 v 24.27 c 0,5.059 -0.723,5.99 -4.544,5.99 l -0.93,0.104 z" /></g><g
           transform="translate(138.7915,163.1094)"
           id="g82"><path
             id="path84"
             style="fill:#040606;fill-opacity:1;fill-rule:nonzero;stroke:none"
             d="m 0,0 -12.805,43.581 c -1.239,3.719 -1.963,4.337 -6.196,4.648 v 2.064 c 4.026,-0.413 7.022,-0.618 9.19,-0.618 2.17,0 3.926,0.102 8.676,0.618 v -2.064 c -2.891,0 -4.441,-0.725 -4.441,-2.273 0,-0.516 0.206,-1.445 0.515,-2.479 l 8.263,-30.155 8.779,29.845 c 0.414,1.446 0.62,2.583 0.62,3.098 0,1.343 -1.55,1.964 -4.131,1.964 v 2.064 c 2.788,-0.309 4.957,-0.413 6.402,-0.413 1.342,0 3.511,0.104 6.301,0.413 V 48.229 C 17.249,47.918 16.318,47.196 15.08,43.167 L 2.169,0 Z" /></g><g
           transform="translate(186.9219,193.5742)"
           id="g86"><path
             id="path88"
             style="fill:#040606;fill-opacity:1;fill-rule:nonzero;stroke:none"
             d="m 0,0 c -0.416,11.979 -2.997,17.867 -8.059,17.867 -4.749,0 -7.538,-5.888 -8.363,-17.867 z m 7.227,-13.322 c -1.033,-10.741 -6.403,-16.937 -14.56,-16.937 -10.226,0 -16.731,9.81 -16.731,25.406 0,15.18 6.505,25.405 16.111,25.405 9.397,0 14.768,-8.676 15.18,-24.269 h -23.856 c 0.207,-9.192 0.725,-12.911 2.273,-16.938 1.446,-3.925 4.44,-6.195 7.952,-6.195 5.678,0 9.5,4.956 10.43,13.528 z" /></g><g
           transform="translate(219.3491,164.0371)"
           id="g90"><path
             id="path92"
             style="fill:#040606;fill-opacity:1;fill-rule:nonzero;stroke:none"
             d="m 0,0 c -4.338,0.516 -6.506,0.621 -9.294,0.621 -2.789,0 -4.854,-0.105 -9.193,-0.621 v 2.066 c 4.75,0.31 5.577,1.137 5.577,5.578 v 32.324 c 0,3.202 -0.102,4.234 -0.515,5.06 -0.621,1.034 -2.272,1.549 -4.235,1.446 -0.207,0 -0.414,0 -0.721,-0.102 v 1.857 c 6.09,0.93 8.363,1.447 10.946,2.479 0.516,-3.407 0.721,-6.196 0.929,-9.81 1.548,5.989 5.163,9.398 9.606,9.398 4.131,0 7.022,-3.306 7.022,-8.056 0,-3.305 -1.445,-5.267 -3.926,-5.267 -2.065,0 -3.511,1.341 -3.511,3.408 0,0.619 0.103,1.136 0.311,2.168 0.104,0.517 0.206,0.93 0.206,1.137 0,1.239 -1.033,2.272 -2.169,2.272 -4.131,0 -6.712,-6.301 -6.712,-16.73 V 7.644 C -5.679,3.305 -4.544,2.168 0,2.066 Z" /></g><g
           transform="translate(266.0288,171.6807)"
           id="g94"><path
             id="path96"
             style="fill:#040606;fill-opacity:1;fill-rule:nonzero;stroke:none"
             d="m 0,0 c 2.376,-4.544 3.407,-5.372 7.437,-5.577 v -2.067 c -3.099,0.311 -4.338,0.415 -5.785,0.415 -1.446,0 -2.787,-0.104 -5.679,-0.415 l -11.981,26.233 -5.369,-7.023 V 0 c 0,-4.339 0.93,-5.268 5.577,-5.577 v -2.067 c -4.339,0.517 -6.404,0.621 -9.191,0.621 -2.684,0 -4.752,-0.104 -9.088,-0.621 v 2.067 c 4.749,0.309 5.576,1.137 5.576,5.577 v 52.05 c 0,5.37 -0.618,5.989 -5.475,6.093 v 1.859 c 4.547,0.516 8.366,1.342 12.704,2.685 v -46.06 l 12.806,17.66 c 0.928,1.239 1.447,2.271 1.447,2.891 0,1.447 -1.447,2.273 -4.545,2.479 v 2.065 c 3.304,-0.413 5.164,-0.516 7.849,-0.516 2.684,0 4.647,0.103 8.261,0.516 V 39.657 C 0.312,39.244 -0.929,38.521 -3.717,34.802 l -7.952,-10.636 z" /></g><g
           transform="translate(296.1846,164.0371)"
           id="g98"><path
             id="path100"
             style="fill:#040606;fill-opacity:1;fill-rule:nonzero;stroke:none"
             d="m 0,0 c -4.337,0.516 -6.503,0.621 -9.292,0.621 -2.791,0 -4.854,-0.105 -9.192,-0.621 v 2.066 c 4.752,0.31 5.578,1.137 5.578,5.578 v 32.324 c 0,3.202 -0.105,4.234 -0.517,5.06 -0.62,1.034 -2.273,1.549 -4.237,1.446 -0.206,0 -0.411,0 -0.721,-0.102 v 1.857 c 6.093,0.93 8.365,1.447 10.946,2.479 0.518,-3.407 0.724,-6.196 0.932,-9.81 1.55,5.989 5.163,9.398 9.603,9.398 4.131,0 7.024,-3.306 7.024,-8.056 0,-3.305 -1.447,-5.267 -3.927,-5.267 -2.065,0 -3.51,1.341 -3.51,3.408 0,0.619 0.105,1.136 0.311,2.168 0.102,0.517 0.205,0.93 0.205,1.137 0,1.239 -1.032,2.272 -2.167,2.272 -4.131,0 -6.715,-6.301 -6.715,-16.73 V 7.644 C -5.679,3.305 -4.542,2.168 0,2.066 Z" /></g><g
           transform="translate(341.6279,228.377)"
           id="g102"><path
             id="path104"
             style="fill:#040606;fill-opacity:1;fill-rule:nonzero;stroke:none"
             d="m 0,0 c 0,-2.582 -2.064,-4.646 -4.648,-4.646 -2.582,0 -4.751,2.167 -4.751,4.75 0,2.478 2.169,4.647 4.751,4.647 C -2.064,4.751 0,2.582 0,0 m -14.77,0 c 0,-2.479 -2.271,-4.646 -4.75,-4.646 -2.58,0 -4.647,2.064 -4.647,4.75 0,2.581 2.067,4.647 4.751,4.647 2.375,0 4.646,-2.272 4.646,-4.751 m -17.865,-16.213 c 4.542,0.516 8.364,1.342 12.702,2.684 v -34.906 c 0,-8.469 2.064,-11.773 7.229,-11.773 5.579,0 8.264,4.234 8.264,13.116 v 23.03 c 0,5.059 -0.725,5.99 -4.648,5.99 l -0.93,0.104 v 1.755 c 4.647,0.516 8.47,1.342 12.804,2.684 v -41.31 c 0,-4.957 0.518,-5.576 4.649,-5.68 h 1.032 v -1.859 c -4.955,-0.619 -8.055,-1.341 -11.461,-2.684 -0.518,4.957 -0.621,6.092 -0.621,7.951 v 1.137 c -2.58,-6.197 -5.991,-8.882 -11.361,-8.882 -8.158,0 -12.184,5.474 -12.184,16.524 v 24.27 c 0,5.059 -0.725,5.99 -4.547,5.99 l -0.928,0.104 z" /></g><g
           transform="translate(367.5503,189.2368)"
           id="g106"><path
             id="path108"
             style="fill:#040606;fill-opacity:1;fill-rule:nonzero;stroke:none"
             d="m 0,0 c 0,-15.182 3.098,-22.928 9.088,-22.928 5.473,0 8.363,7.54 8.363,22.102 0,15.077 -2.89,22.721 -8.465,22.721 C 3.202,21.895 0,14.149 0,0 m -12.703,23.134 c 4.647,0.413 7.643,0.928 10.946,1.859 0.62,-2.479 0.828,-4.029 1.137,-8.676 2.582,5.887 5.679,8.469 10.328,8.469 8.983,0 15.386,-10.535 15.386,-25.302 0,-14.872 -6.196,-25.303 -15.179,-25.303 -4.338,0 -7.024,1.963 -9.814,7.23 v -19.314 c 0,-4.438 0.826,-5.265 5.577,-5.577 v -2.065 c -4.751,0.519 -6.918,0.62 -9.398,0.62 -2.477,0 -4.647,-0.101 -8.983,-0.62 v 2.065 c 4.75,0.312 5.577,1.139 5.577,5.577 v 52.981 c 0,2.995 -0.517,4.957 -1.446,5.473 -0.725,0.517 -1.551,0.621 -4.131,0.723 z" /></g><g
           transform="translate(451.6133,187.4819)"
           id="g110"><path
             id="path112"
             style="fill:#040606;fill-opacity:1;fill-rule:nonzero;stroke:none"
             d="M 0,0 -7.85,30.672 -17.041,0 Z m -20.861,-12.911 c -0.519,-1.961 -0.93,-3.923 -0.93,-4.957 0,-2.066 1.341,-2.787 5.37,-3.097 v -2.48 c -3.305,0.414 -5.267,0.516 -7.85,0.516 -2.579,0 -4.437,-0.102 -7.848,-0.516 v 2.48 c 5.061,0.414 5.786,1.134 7.746,7.229 l 19,61.654 17.146,-62.79 c 1.442,-4.752 2.375,-5.577 7.538,-6.093 v -2.48 c -4.645,0.621 -7.024,0.827 -10.018,0.827 -3.097,0 -5.471,-0.206 -10.12,-0.827 v 2.48 c 3.614,0.414 4.958,1.237 4.958,3.097 0,0.826 -0.208,2.067 -0.518,3.512 L 0.827,-3.202 h -18.798 z" /></g><g
           transform="translate(472.166,212.1641)"
           id="g114"><path
             id="path116"
             style="fill:#040606;fill-opacity:1;fill-rule:nonzero;stroke:none"
             d="m 0,0 c 4.542,0.516 8.362,1.342 12.701,2.684 v -34.906 c 0,-8.469 2.066,-11.774 7.228,-11.774 5.577,0 8.265,4.235 8.265,13.117 V -7.85 c 0,5.06 -1.035,6.3 -4.958,6.095 H 22.617 V 0 c 4.649,0.516 8.467,1.342 12.804,2.684 v -41.31 c 0,-4.957 0.518,-5.576 4.645,-5.68 h 1.035 v -1.859 c -4.958,-0.619 -8.054,-1.341 -11.464,-2.684 -0.513,3.821 -0.615,5.164 -0.615,7.745 v 1.343 c -2.584,-6.197 -5.994,-8.883 -11.363,-8.883 -8.159,0 -12.188,5.475 -12.188,16.525 V -7.85 c 0,5.06 -0.929,6.3 -4.852,6.095 l -0.619,0 z" /></g><g
           transform="translate(540.9434,166.4131)"
           id="g118"><path
             id="path120"
             style="fill:#040606;fill-opacity:1;fill-rule:nonzero;stroke:none"
             d="m 0,0 c -3.197,-2.168 -5.368,-2.995 -7.947,-2.995 -3.517,0 -6.303,1.446 -7.749,4.233 -1.344,2.272 -1.862,5.268 -1.862,10.742 v 1.446 l 0.314,29.432 h -5.064 v 3.203 c 5.268,0.103 8.474,4.957 10.018,15.388 h 2.272 V 46.68 h 9.297 v -3.822 h -9.297 V 12.497 c 0,-6.3 0.209,-7.746 1.142,-9.399 0.721,-1.343 2.062,-2.066 3.608,-2.066 1.452,0 2.999,0.621 5.268,2.066 z" /></g><g
           transform="translate(552.9287,188.5146)"
           id="g122"><path
             id="path124"
             style="fill:#040606;fill-opacity:1;fill-rule:nonzero;stroke:none"
             d="m 0,0 c 0,-14.977 2.791,-22.619 8.363,-22.619 5.577,0 8.573,7.953 8.573,22.619 0,15.284 -2.791,23.133 -8.368,23.133 C 2.99,23.133 0,15.078 0,0 m 18.797,20.757 c 3.512,-4.337 5.779,-12.391 5.779,-20.448 0,-14.871 -6.708,-25.613 -16.213,-25.613 -9.397,0 -16.009,10.432 -16.009,25.511 0,15.077 6.713,25.612 16.522,25.612 3.929,0 7.232,-1.653 9.921,-5.062" /></g><g
           transform="translate(584.2197,211.8535)"
           id="g126"><path
             id="path128"
             style="fill:#040606;fill-opacity:1;fill-rule:nonzero;stroke:none"
             d="m 0,0 c 4.958,0.827 8.159,1.755 11.048,3.099 0.518,-3.202 0.725,-5.474 0.933,-8.778 2.991,5.576 6.197,7.848 11.155,7.848 4.953,0 7.948,-2.478 9.91,-8.055 2.999,5.68 6.303,8.055 11.465,8.055 7.853,0 11.361,-4.751 11.361,-15.698 v -26.644 c 0,-4.44 0.828,-5.267 5.683,-5.577 v -2.066 c -4.237,0.516 -6.302,0.62 -9.092,0.62 -2.686,0 -4.853,-0.104 -8.984,-0.62 v 2.066 c 4.131,0.206 5.162,1.238 5.162,5.369 v 27.162 c 0,7.745 -1.752,10.637 -6.506,10.637 -5.06,0 -7.846,-4.131 -7.846,-11.566 v -26.233 c 0,-4.131 1.03,-5.163 5.161,-5.369 v -2.066 c -4.334,0.516 -6.404,0.62 -8.774,0.62 -2.379,0 -4.445,-0.104 -8.678,-0.62 v 2.066 c 4.025,0.206 5.06,1.238 5.06,5.369 v 26.956 c 0,7.746 -1.751,10.843 -6.301,10.843 -2.579,0 -5.162,-1.549 -6.402,-3.821 -1.238,-2.272 -1.653,-4.441 -1.653,-8.881 v -25.097 c 0,-4.131 1.034,-5.163 5.165,-5.369 v -2.066 c -4.131,0.516 -6.301,0.62 -8.982,0.62 -2.689,0 -4.754,-0.104 -8.99,-0.62 v 2.066 c 4.753,0.31 5.577,1.137 5.577,5.577 v 31.912 c 0,5.99 -0.31,6.299 -4.438,6.403 l -1.034,0 z" /></g><g
           transform="translate(659.5078,188.5146)"
           id="g130"><path
             id="path132"
             style="fill:#040606;fill-opacity:1;fill-rule:nonzero;stroke:none"
             d="m 0,0 c 0,-14.977 2.79,-22.619 8.367,-22.619 5.577,0 8.571,7.953 8.571,22.619 0,15.284 -2.787,23.133 -8.363,23.133 C 2.998,23.133 0,15.078 0,0 m 18.797,20.757 c 3.511,-4.337 5.784,-12.391 5.784,-20.448 0,-14.871 -6.713,-25.613 -16.214,-25.613 -9.401,0 -16.006,10.432 -16.006,25.511 0,15.077 6.71,25.612 16.524,25.612 3.923,0 7.226,-1.653 9.912,-5.062" /></g><g
           transform="translate(701.8506,189.1323)"
           id="g134"><path
             id="path136"
             style="fill:#040606;fill-opacity:1;fill-rule:nonzero;stroke:none"
             d="m 0,0 c 0,-8.983 0.827,-14.768 2.583,-18.175 1.653,-3.099 3.716,-4.648 6.196,-4.648 5.683,0 8.571,7.539 8.571,22.514 0,15.182 -2.685,22.308 -8.262,22.308 C 3.202,21.999 0,14.149 0,0 m -7.125,34.599 c 0,5.369 -0.619,5.988 -5.472,6.092 v 1.86 c 4.751,0.515 8.569,1.342 12.7,2.684 V 17.248 c 2.582,5.473 5.475,7.642 9.918,7.642 8.878,0 14.971,-10.224 14.971,-25.301 0,-14.975 -6.298,-25.303 -15.488,-25.303 -5.06,0 -8.266,2.787 -10.534,8.882 l -3.825,-9.089 h -2.27 z" /></g><g
           transform="translate(747.6025,227.5518)"
           id="g138"><path
             id="path140"
             style="fill:#040606;fill-opacity:1;fill-rule:nonzero;stroke:none"
             d="m 0,0 c 0,-2.789 -2.273,-5.06 -5.06,-5.06 -2.79,0 -4.957,2.169 -4.957,5.06 0,2.788 2.167,4.957 5.059,4.957 C -2.273,4.957 0,2.685 0,0 m -1.136,-55.871 c 0,-4.441 0.827,-5.268 5.679,-5.577 v -2.067 c -4.543,0.516 -6.611,0.621 -9.292,0.621 -2.583,0 -4.751,-0.105 -9.191,-0.621 v 2.067 c 4.75,0.309 5.578,1.136 5.578,5.577 v 32.634 c 0,5.37 -0.518,5.99 -5.476,6.094 v 1.755 c 4.751,0.516 8.571,1.343 12.702,2.684 z" /></g><g
           transform="translate(770.3223,171.6807)"
           id="g142"><path
             id="path144"
             style="fill:#040606;fill-opacity:1;fill-rule:nonzero;stroke:none"
             d="m 0,0 c 0,-4.44 0.828,-5.268 5.684,-5.577 v -2.067 c -4.546,0.517 -6.612,0.621 -9.3,0.621 -2.58,0 -4.751,-0.104 -9.191,-0.621 v 2.067 C -8.057,-5.268 -7.23,-4.44 -7.23,0 v 52.154 c 0,5.266 -0.62,5.989 -5.471,5.989 v 1.859 c 4.542,0.516 8.469,1.342 12.701,2.685 z" /></g><g
           transform="translate(806.1602,193.5742)"
           id="g146"><path
             id="path148"
             style="fill:#040606;fill-opacity:1;fill-rule:nonzero;stroke:none"
             d="m 0,0 c -0.415,11.979 -2.994,17.867 -8.055,17.867 -4.75,0 -7.54,-5.888 -8.366,-17.867 z M 7.228,-13.322 C 6.196,-24.063 0.826,-30.259 -7.329,-30.259 c -10.229,0 -16.732,9.81 -16.732,25.406 0,15.18 6.503,25.405 16.11,25.405 9.397,0 14.766,-8.676 15.179,-24.269 H -16.63 c 0.209,-9.192 0.726,-12.911 2.275,-16.938 1.449,-3.925 4.439,-6.195 7.951,-6.195 5.679,0 9.504,4.956 10.429,13.528 z" /></g></g></g></g></svg>