<?xml version="1.0" encoding="UTF-8" standalone="no"?>
<svg
   xmlns:dc="http://purl.org/dc/elements/1.1/"
   xmlns:cc="http://creativecommons.org/ns#"
   xmlns:rdf="http://www.w3.org/1999/02/22-rdf-syntax-ns#"
   xmlns:svg="http://www.w3.org/2000/svg"
   xmlns="http://www.w3.org/2000/svg"
   viewBox="0 0 816.38666 1145.2"
   height="1145.2"
   width="816.38666"
   xml:space="preserve"
   id="svg2"
   version="1.1"><metadata
     id="metadata8"><rdf:RDF><cc:Work
         rdf:about=""><dc:format>image/svg+xml</dc:format><dc:type
           rdf:resource="http://purl.org/dc/dcmitype/StillImage" /></cc:Work></rdf:RDF></metadata><defs
     id="defs6" /><g
     transform="matrix(1.3333333,0,0,-1.3333333,0,1145.2)"
     id="g10"><g
       transform="scale(0.1)"
       id="g12"><path
         id="path14"
         style="fill:#231f20;fill-opacity:1;fill-rule:nonzero;stroke:none"
         d="m 1344.19,5077.29 h 64.44 v -187.36 c 0,-82.67 28.99,-109.52 73.55,-109.52 44.03,0 73.57,26.85 73.57,109.52 v 187.36 h 64.43 v -187.36 c 0,-121.86 -58.53,-169.64 -138,-169.64 -79.47,0 -137.99,47.78 -137.99,169.64 v 187.36" /><path
         id="path16"
         style="fill:#231f20;fill-opacity:1;fill-rule:nonzero;stroke:none"
         d="m 1681.95,4980.66 c 25.77,14.49 70.34,24.15 114.36,24.15 68.2,0 118.66,-42.94 118.66,-137.96 v -138.51 h -61.74 v 142.8 c 0,56.37 -24.16,74.62 -61.74,74.62 -22.02,0 -37.05,-3.22 -47.26,-6.98 v -210.44 h -62.28 v 252.32" /><path
         id="path18"
         style="fill:#231f20;fill-opacity:1;fill-rule:nonzero;stroke:none"
         d="m 1982.65,4804.57 c 6.45,-3.76 40.81,-22.54 88.59,-22.54 25.78,0 54.24,4.29 54.24,22.54 0,18.25 -26.31,27.38 -55.3,32.21 -41.89,7.51 -100.96,19.86 -100.96,84.83 0,66.56 56.93,83.2 111.15,83.2 49.94,0 82.69,-15.03 102.56,-26.84 l -18.79,-54.22 c -15.57,10.74 -46.72,22.01 -83.77,22.01 -25.23,0 -48.86,-5.9 -48.86,-22.55 0,-20.4 31.68,-21.47 49.4,-24.69 74.64,-12.89 106.85,-45.1 106.85,-96.1 0,-66.03 -66.04,-79.45 -116.52,-79.45 -45.64,0 -82.14,11.81 -107.92,26.84 l 19.33,54.76" /><path
         id="path20"
         style="fill:#231f20;fill-opacity:1;fill-rule:nonzero;stroke:none"
         d="m 2298.92,4885.63 h 105.24 v 2.69 c 0,38.65 -22.02,57.44 -52.62,57.44 -30.07,0 -52.62,-18.79 -52.62,-57.44 z m 169.67,-46.17 h -169.67 v -2.68 c 0,-33.28 26.31,-54.75 66.05,-54.75 33.28,0 65.51,10.73 83.76,22.54 l 19.33,-54.76 c -27.92,-17.18 -64.43,-26.84 -103.09,-26.84 -78.4,0 -129.95,40.26 -129.95,135.28 v 8.6 c 0,97.7 47.26,137.96 116.52,137.96 69.81,0 117.05,-40.26 117.05,-137.96 v -27.39" /><path
         id="path22"
         style="fill:#231f20;fill-opacity:1;fill-rule:nonzero;stroke:none"
         d="m 2512.65,4980.66 c 26.84,16.1 68.73,24.15 103.09,24.15 25.23,0 47.25,-4.83 66.04,-12.88 l -23.63,-56.9 c -11.81,6.98 -24.7,10.73 -42.41,10.73 -19.34,0 -31.69,-3.75 -41.36,-6.98 v -210.44 h -61.73 v 252.32" /><path
         id="path24"
         style="fill:#231f20;fill-opacity:1;fill-rule:nonzero;stroke:none"
         d="m 2767.69,4885.63 h 105.25 v 2.69 c 0,38.65 -22.02,57.44 -52.62,57.44 -30.07,0 -52.63,-18.79 -52.63,-57.44 z m 169.68,-46.17 h -169.68 v -2.68 c 0,-33.28 26.31,-54.75 66.04,-54.75 33.3,0 65.52,10.73 83.77,22.54 l 19.33,-54.76 c -27.92,-17.18 -64.44,-26.84 -103.1,-26.84 -78.39,0 -129.93,40.26 -129.93,135.28 v 8.6 c 0,97.7 47.24,137.96 116.52,137.96 69.79,0 117.05,-40.26 117.05,-137.96 v -27.39" /><path
         id="path26"
         style="fill:#231f20;fill-opacity:1;fill-rule:nonzero;stroke:none"
         d="m 3173.47,4787.93 h 188.47 v -59.59 h -252.9 v 348.95 h 252.9 v -60.13 h -188.47 v -75.15 h 166.98 v -59.6 h -166.98 v -94.48" /><path
         id="path28"
         style="fill:#231f20;fill-opacity:1;fill-rule:nonzero;stroke:none"
         d="m 3414.58,4980.66 c 25.78,14.49 70.35,24.15 114.38,24.15 68.19,0 118.66,-42.94 118.66,-137.96 v -138.51 h -61.74 v 142.8 c 0,56.37 -24.17,74.62 -61.75,74.62 -22.02,0 -37.05,-3.22 -47.25,-6.98 v -210.44 h -62.3 v 252.32" /><path
         id="path30"
         style="fill:#231f20;fill-opacity:1;fill-rule:nonzero;stroke:none"
         d="m 3759.86,4885.63 h 105.24 v 2.69 c 0,38.65 -22.02,57.44 -52.62,57.44 -30.07,0 -52.62,-18.79 -52.62,-57.44 z m 169.67,-46.17 h -169.67 v -2.68 c 0,-33.28 26.31,-54.75 66.05,-54.75 33.28,0 65.51,10.73 83.76,22.54 l 19.33,-54.76 c -27.92,-17.18 -64.43,-26.84 -103.09,-26.84 -78.4,0 -129.95,40.26 -129.95,135.28 v 8.6 c 0,97.7 47.26,137.96 116.52,137.96 69.81,0 117.05,-40.26 117.05,-137.96 v -27.39" /><path
         id="path32"
         style="fill:#231f20;fill-opacity:1;fill-rule:nonzero;stroke:none"
         d="m 3973.57,4980.66 c 26.86,16.1 68.73,24.15 103.1,24.15 25.23,0 47.24,-4.83 66.04,-12.88 l -23.62,-56.9 c -11.82,6.98 -24.7,10.73 -42.42,10.73 -19.33,0 -31.68,-3.75 -41.35,-6.98 v -210.44 h -61.75 v 252.32" /><path
         id="path34"
         style="fill:#231f20;fill-opacity:1;fill-rule:nonzero;stroke:none"
         d="m 4227.57,4860.94 c 0,-66.03 27.37,-81.6 69.79,-81.6 17.19,0 28.99,3.76 38.66,9.13 v 149.24 c -9.12,4.83 -21.47,7.51 -34.9,8.05 -6.45,0 -13.43,0 -20.4,-0.54 -32.76,-3.75 -53.15,-23.61 -53.15,-78.37 z m 170.74,-148.71 c 0,-77.3 -51.55,-118.1 -120.81,-118.1 -41.89,0 -77.32,9.12 -106.86,26.3 6.45,18.25 12.9,35.97 19.33,54.22 22.56,-13.42 53.16,-22.01 87.53,-22.01 34.36,0 58.52,18.79 58.52,59.59 v 17.18 c -12.89,-5.9 -27.92,-9.12 -47.78,-9.12 -70.88,0 -123.5,45.63 -123.5,140.65 v 5.91 c 0,95.02 57.45,137.96 124.03,137.96 41.89,0 80.55,-7.51 109.54,-24.15 v -268.43" /><path
         id="path36"
         style="fill:#231f20;fill-opacity:1;fill-rule:nonzero;stroke:none"
         d="m 4466.52,4996.76 h 61.74 v -268.42 h -61.74 z m 30.6,111.13 c 20.94,0 38.13,-16.64 38.13,-37.58 0,-20.94 -17.19,-38.12 -38.13,-38.12 -20.4,0 -37.59,17.18 -37.59,38.12 0,20.94 17.19,37.58 37.59,37.58" /><path
         id="path38"
         style="fill:#231f20;fill-opacity:1;fill-rule:nonzero;stroke:none"
         d="m 4650.69,4885.63 h 105.25 v 2.69 c 0,38.65 -22.01,57.44 -52.62,57.44 -30.07,0 -52.63,-18.79 -52.63,-57.44 z m 169.68,-46.17 h -169.68 v -2.68 c 0,-33.28 26.31,-54.75 66.05,-54.75 33.3,0 65.51,10.73 83.76,22.54 l 19.33,-54.76 c -27.92,-17.18 -64.43,-26.84 -103.09,-26.84 -78.4,0 -129.94,40.26 -129.94,135.28 v 8.6 c 0,97.7 47.25,137.96 116.52,137.96 69.8,0 117.05,-40.26 117.05,-137.96 v -27.39" /><path
         id="path40"
         style="fill:#231f20;fill-opacity:1;fill-rule:nonzero;stroke:none"
         d="m 1347.41,4433.84 c 0,74.63 42.41,100.93 99.33,100.93 35.44,0 65.5,-9.66 89.67,-26.84 l -22.55,-54.22 c -16.66,12.35 -39.73,22.01 -67.12,22.01 -22.56,0 -37.59,-10.2 -37.59,-41.34 v -15.03 h 99.34 v -59.05 h -99.34 v -209.37 h -61.74 v 282.91" /><path
         id="path42"
         style="fill:#231f20;fill-opacity:1;fill-rule:nonzero;stroke:none"
         d="m 1728.1,4527.26 c 20.94,0 37.59,-17.18 37.59,-38.12 0,-20.4 -17.18,-37.58 -37.59,-37.58 -20.4,0 -38.12,17.18 -38.12,37.58 0,20.94 17.19,38.12 38.12,38.12 z m -132.08,0 c 20.94,0 37.58,-17.18 37.58,-38.12 0,-20.4 -16.64,-37.58 -37.58,-37.58 -20.94,0 -38.13,17.18 -38.13,37.58 0,20.94 17.19,38.12 38.13,38.12 z m 182.56,-360.23 c -25.77,-14.49 -70.34,-24.15 -114.37,-24.15 -68.19,0 -118.67,42.94 -118.67,137.96 v 138.51 h 61.75 v -142.8 c 0,-56.37 24.17,-74.62 61.75,-74.62 22.01,0 37.05,3.22 47.25,6.98 v 210.44 h 62.29 v -252.32" /><path
         id="path44"
         style="fill:#231f20;fill-opacity:1;fill-rule:nonzero;stroke:none"
         d="m 1838.2,4403.25 c 26.84,16.1 68.73,24.15 103.1,24.15 25.23,0 47.24,-4.83 66.04,-12.88 l -23.64,-56.9 c -11.8,6.98 -24.7,10.73 -42.4,10.73 -19.35,0 -31.7,-3.75 -41.36,-6.98 v -210.44 h -61.74 v 252.32" /><path
         id="path46"
         style="fill:#231f20;fill-opacity:1;fill-rule:nonzero;stroke:none"
         d="m 2184.81,4280.84 c 0,-63.34 25.23,-78.91 67.65,-78.91 18.8,0 31.15,3.22 40.81,8.05 v 150.32 c -6.44,3.76 -19.87,8.05 -38.66,8.05 -40.81,0 -69.8,-13.96 -69.8,-78.91 z m 170.74,-113.81 c -34.36,-20.4 -83.76,-24.15 -105.23,-24.15 -76.25,0 -128.34,45.63 -128.34,137.96 v 8.6 c 0,95.02 54.77,137.96 128.34,137.96 15.03,0 30.6,-2.14 42.95,-7.51 v 106.83 h 62.28 v -359.69" /><path
         id="path48"
         style="fill:#231f20;fill-opacity:1;fill-rule:nonzero;stroke:none"
         d="m 2416.59,4419.35 h 61.74 v -268.42 h -61.74 z m 30.6,111.13 c 20.94,0 38.13,-16.64 38.13,-37.58 0,-20.94 -17.19,-38.12 -38.13,-38.12 -20.4,0 -37.59,17.18 -37.59,38.12 0,20.94 17.19,37.58 37.59,37.58" /><path
         id="path50"
         style="fill:#231f20;fill-opacity:1;fill-rule:nonzero;stroke:none"
         d="m 2597.17,4308.22 h 105.24 v 2.69 c 0,38.65 -22.02,57.44 -52.62,57.44 -30.07,0 -52.62,-18.79 -52.62,-57.44 z m 169.67,-46.17 h -169.67 v -2.68 c 0,-33.28 26.31,-54.75 66.05,-54.75 33.28,0 65.51,10.73 83.76,22.54 l 19.33,-54.76 c -27.92,-17.18 -64.43,-26.84 -103.09,-26.84 -78.4,0 -129.95,40.26 -129.95,135.28 v 8.6 c 0,97.7 47.26,137.96 116.52,137.96 69.8,0 117.05,-40.26 117.05,-137.96 v -27.39" /><path
         id="path52"
         style="fill:#231f20;fill-opacity:1;fill-rule:nonzero;stroke:none"
         d="m 2917.91,4499.88 h 255.04 v -60.13 l -185.78,-229.23 h 196.52 v -59.59 h -276.52 v 59.59 l 185.25,229.23 h -174.51 v 60.13" /><path
         id="path54"
         style="fill:#231f20;fill-opacity:1;fill-rule:nonzero;stroke:none"
         d="m 3450.03,4167.03 c -25.77,-14.49 -70.34,-24.15 -114.36,-24.15 -68.2,0 -118.68,42.94 -118.68,137.96 v 138.51 h 61.75 v -142.8 c 0,-56.37 24.17,-74.62 61.75,-74.62 22.02,0 37.05,3.22 47.25,6.98 v 210.44 h 62.29 v -252.32" /><path
         id="path56"
         style="fill:#231f20;fill-opacity:1;fill-rule:nonzero;stroke:none"
         d="m 3688.99,4419.35 h 77.33 l -103.09,-127.23 113.82,-141.19 h -77.32 l -113.84,141.19 z m -172.36,107.37 h 62.29 v -375.79 h -62.29 v 375.79" /><path
         id="path58"
         style="fill:#231f20;fill-opacity:1;fill-rule:nonzero;stroke:none"
         d="m 4033.72,4167.03 c -25.77,-14.49 -70.34,-24.15 -114.36,-24.15 -68.2,0 -118.68,42.94 -118.68,137.96 v 138.51 h 61.75 v -142.8 c 0,-56.37 24.17,-74.62 61.75,-74.62 22.02,0 37.05,3.22 47.25,6.98 v 210.44 h 62.29 v -252.32" /><path
         id="path60"
         style="fill:#231f20;fill-opacity:1;fill-rule:nonzero;stroke:none"
         d="m 4100.31,4403.25 c 25.78,14.49 70.35,24.15 114.38,24.15 68.19,0 118.66,-42.94 118.66,-137.96 v -138.51 h -61.75 v 142.8 c 0,56.37 -24.17,74.62 -61.75,74.62 -22.01,0 -37.05,-3.22 -47.25,-6.98 v -210.44 h -62.29 v 252.32" /><path
         id="path62"
         style="fill:#231f20;fill-opacity:1;fill-rule:nonzero;stroke:none"
         d="m 4383.31,4433.84 c 0,74.63 42.41,100.93 99.33,100.93 35.44,0 65.5,-9.66 89.67,-26.84 l -22.55,-54.22 c -16.66,12.35 -39.74,22.01 -67.12,22.01 -22.56,0 -37.59,-10.2 -37.59,-41.34 v -15.03 h 99.34 v -59.05 h -99.34 v -209.37 h -61.74 v 282.91" /><path
         id="path64"
         style="fill:#231f20;fill-opacity:1;fill-rule:nonzero;stroke:none"
         d="m 4590.56,4499.88 h 62.29 v -80.53 h 103.63 v -59.05 h -103.63 v -114.35 c 0,-28.99 13.42,-39.73 33.82,-40.8 8.6,-0.53 17.72,0 26.86,2.14 18.78,3.23 35.44,10.21 47.24,19.87 6.45,-18.25 12.9,-36.5 19.33,-54.76 -24.15,-17.18 -54.77,-26.84 -89.67,-26.84 -57.45,0 -99.87,26.84 -99.87,100.93 v 253.39" /><path
         id="path66"
         style="fill:#231f20;fill-opacity:1;fill-rule:nonzero;stroke:none"
         d="m 4854.21,4221.25 c 21.49,0 38.66,-17.17 38.66,-38.11 0,-21.48 -17.17,-38.65 -38.66,-38.65 -20.93,0 -38.12,17.17 -38.12,38.65 0,20.94 17.19,38.11 38.12,38.11" /></g></g></svg>