<?xml version="1.0" standalone="no"?>
<!DOCTYPE svg PUBLIC "-//W3C//DTD SVG 20010904//EN"
 "http://www.w3.org/TR/2001/REC-SVG-20010904/DTD/svg10.dtd">
<svg version="1.0" xmlns="http://www.w3.org/2000/svg"
 width="16.000000pt" height="16.000000pt" viewBox="0 0 16.000000 16.000000"
 preserveAspectRatio="xMidYMid meet">
<metadata>
Created by potrace 1.11, written by Peter Selinger 2001-2013
</metadata>
<g transform="translate(0.000000,16.000000) scale(0.001860,-0.001860)"
fill="#000000" stroke="none">
<path d="M3348 8338 c-3 -35 -1 -38 22 -39 14 0 68 -3 120 -6 52 -4 116 -7
142 -7 27 -1 48 -5 48 -9 0 -5 3 -6 8 -4 4 3 34 1 67 -4 33 -5 78 -11 100 -14
87 -12 101 -14 130 -21 17 -3 35 -7 40 -8 10 -3 78 -16 105 -21 8 -2 51 -13
95 -25 44 -12 89 -24 100 -27 46 -11 331 -106 340 -113 6 -4 28 -13 50 -20 22
-7 86 -35 143 -62 57 -26 108 -48 113 -48 5 0 9 -4 9 -10 0 -5 8 -10 18 -10
10 0 22 -4 28 -9 5 -5 41 -25 79 -45 39 -20 88 -48 110 -61 22 -14 47 -28 55
-32 22 -10 277 -182 292 -196 7 -7 34 -27 60 -45 25 -18 54 -40 64 -49 9 -10
42 -38 73 -63 91 -73 235 -211 350 -336 87 -96 104 -115 166 -194 33 -41 62
-77 65 -80 3 -3 28 -36 55 -75 27 -38 51 -72 54 -75 3 -3 11 -14 18 -25 7 -11
36 -57 65 -103 29 -45 62 -99 74 -120 12 -21 33 -60 49 -87 15 -28 31 -54 35
-60 5 -5 9 -14 11 -20 1 -5 22 -52 45 -103 24 -50 44 -94 44 -97 0 -3 9 -27
21 -53 12 -26 25 -56 30 -67 5 -11 18 -47 29 -80 12 -33 25 -69 30 -80 10 -21
76 -239 85 -277 2 -13 14 -61 26 -108 24 -99 47 -216 54 -280 3 -25 8 -56 11
-70 2 -14 7 -41 9 -60 2 -19 7 -66 12 -105 10 -91 10 -576 0 -685 -7 -80 -10
-104 -22 -175 -3 -16 -7 -52 -10 -80 -3 -27 -21 -117 -40 -200 -46 -200 -40
-177 -86 -325 -19 -58 -34 -107 -34 -110 -1 -3 -7 -18 -14 -35 -6 -16 -16 -43
-22 -60 -14 -37 -16 -43 -80 -190 -28 -66 -74 -163 -102 -215 -66 -125 -70
-132 -84 -148 -7 -7 -13 -18 -13 -23 0 -6 -17 -36 -37 -67 -21 -31 -40 -61
-43 -67 -11 -21 -91 -140 -98 -145 -4 -3 -25 -31 -47 -63 -22 -33 -51 -71 -65
-86 -14 -15 -41 -47 -60 -72 -89 -114 -383 -406 -474 -469 -11 -8 -30 -22 -41
-31 -11 -10 -40 -33 -65 -53 -25 -20 -50 -41 -57 -46 -7 -6 -16 -10 -22 -10
-5 0 -11 -4 -13 -9 -1 -4 -41 -33 -88 -64 -47 -31 -90 -60 -96 -64 -30 -22
-202 -123 -209 -123 -4 0 -13 -7 -22 -15 -8 -8 -18 -13 -23 -10 -4 3 -13 -2
-20 -10 -7 -8 -16 -15 -21 -15 -5 0 -48 -19 -96 -43 -126 -62 -384 -163 -463
-182 -8 -2 -27 -8 -42 -14 -16 -6 -28 -8 -28 -6 0 2 -12 0 -28 -6 -22 -9 -79
-25 -162 -44 -50 -12 -170 -37 -199 -41 -18 -3 -43 -7 -55 -10 -11 -2 -45 -6
-74 -10 -29 -3 -63 -8 -75 -10 -118 -26 -711 -26 -877 0 -14 2 -45 7 -70 10
-95 13 -117 17 -175 29 -50 10 -60 16 -61 33 -1 12 -4 26 -7 31 -3 5 -2 25 2
44 4 19 5 43 1 54 -4 11 -4 30 1 42 5 12 4 25 0 27 -5 3 -5 23 -1 45 4 22 4
45 -1 52 -4 7 -3 23 1 35 5 13 5 26 1 29 -5 3 -6 20 -2 38 5 18 5 41 1 52 -4
11 -4 30 1 42 5 12 4 25 0 27 -5 3 -5 23 -1 45 4 22 4 45 -1 52 -4 7 -3 23 1
35 5 13 5 26 1 29 -5 3 -6 20 -2 38 5 18 5 41 1 52 -4 11 -4 30 1 42 5 12 4
25 0 27 -5 3 -5 23 -1 45 4 22 4 45 -1 52 -4 7 -3 23 1 35 5 13 5 26 1 29 -5
3 -6 20 -2 38 5 18 5 41 1 52 -4 11 -4 30 1 42 5 12 4 25 0 27 -5 3 -5 23 -1
45 4 22 4 45 -1 52 -4 7 -3 23 1 35 5 13 5 26 1 29 -5 3 -6 20 -2 38 5 18 5
41 1 52 -4 11 -4 30 1 42 5 12 4 25 0 27 -5 3 -5 23 -1 45 4 22 4 45 -1 52 -4
7 -3 23 1 35 5 13 5 26 1 29 -5 3 -6 20 -2 38 5 18 5 41 1 52 -4 11 -4 30 1
42 5 12 4 25 0 27 -5 3 -5 23 -1 45 4 22 4 45 -1 52 -4 7 -3 23 1 35 6 14 5
26 -1 29 -5 4 -6 13 -1 22 5 8 6 32 2 52 -4 20 -3 46 0 57 4 10 4 24 1 29 -4
6 -5 25 -2 44 5 31 8 33 21 20 54 -50 328 -176 445 -205 17 -4 32 -8 35 -9 5
-2 68 -14 105 -21 75 -14 129 -18 275 -17 151 1 194 5 345 37 237 51 543 226
714 410 20 21 45 48 56 60 12 12 41 48 65 81 25 33 47 62 50 65 3 3 26 41 51
85 144 254 207 492 203 771 -1 76 -4 153 -7 169 -3 17 -8 48 -12 70 -12 85
-46 212 -75 279 -11 26 -20 53 -20 60 0 7 -6 18 -12 25 -7 6 -13 16 -13 20 0
11 -39 85 -48 92 -5 3 -7 8 -6 10 4 6 -66 114 -119 184 -202 267 -554 488
-877 551 -143 27 -423 39 -505 20 -13 -3 -42 -8 -65 -11 -280 -41 -604 -211
-816 -430 -59 -62 -163 -191 -181 -225 -7 -14 -16 -27 -20 -30 -11 -8 -93
-171 -116 -230 -12 -30 -27 -68 -33 -85 -20 -50 -56 -209 -67 -293 -10 -80 -9
-4107 1 -4109 5 -1 14 -8 20 -16 10 -12 94 -40 159 -52 12 -3 35 -9 52 -14 17
-6 48 -12 69 -16 22 -3 69 -12 105 -20 37 -8 83 -17 102 -19 19 -3 62 -10 95
-16 33 -6 87 -13 120 -16 33 -3 76 -7 95 -10 207 -23 573 -23 795 1 158 17
387 54 520 85 28 6 57 13 65 15 174 39 513 149 595 193 17 9 30 15 30 13 0 -7
98 36 270 120 173 85 303 160 458 266 42 29 81 53 86 53 5 0 11 4 13 8 2 5 39
35 83 68 44 32 82 61 85 65 3 3 14 12 26 20 89 60 377 334 506 480 99 111 107
121 196 239 48 63 92 120 97 126 6 6 19 27 30 47 11 20 23 37 27 37 5 0 8 7 8
15 0 8 5 15 10 15 6 0 10 5 10 12 0 6 11 25 23 42 13 17 35 51 49 76 14 25 48
83 75 130 109 187 291 602 307 700 1 3 4 10 8 15 5 8 15 40 33 105 1 3 7 25
15 50 7 25 14 50 15 55 1 6 3 12 4 15 2 3 4 12 6 20 1 8 8 35 15 60 7 25 14
54 16 65 5 32 12 68 19 95 8 33 26 138 31 175 2 17 6 44 9 60 3 17 7 53 10 80
3 28 8 66 11 85 23 160 23 667 -1 833 -2 18 -9 70 -15 117 -15 121 -17 136
-35 225 -9 44 -18 91 -21 105 -3 14 -10 43 -16 65 -6 22 -12 49 -13 60 -1 11
-3 20 -4 20 -2 0 -4 7 -6 15 -8 40 -58 207 -91 305 -48 145 -195 498 -214 515
-4 3 -21 34 -39 70 -41 81 -151 264 -209 350 -53 77 -114 163 -122 170 -3 3
-25 32 -49 64 -103 139 -299 351 -457 496 -62 57 -179 157 -219 187 -6 5 -30
24 -55 44 -25 19 -67 51 -95 69 -27 19 -52 36 -55 40 -3 3 -26 19 -52 35 -27
17 -48 33 -48 38 0 4 -4 7 -9 7 -6 0 -50 25 -100 55 -179 109 -361 202 -546
278 -63 26 -207 81 -215 82 -3 1 -56 18 -119 38 -63 20 -122 37 -131 37 -9 0
-20 3 -24 8 -4 4 -11 7 -14 7 -7 1 -65 14 -182 42 -70 17 -74 17 -170 33 -36
5 -76 12 -90 14 -14 3 -52 8 -85 11 -33 4 -73 9 -90 11 -79 10 -183 16 -327
18 l-156 3 -4 -39z m301 -3183 c9 -5 12 -4 8 2 -11 17 174 -36 252 -73 176
-82 319 -221 406 -394 28 -57 62 -145 56 -145 -1 0 2 -11 7 -25 32 -85 34
-306 3 -423 -50 -191 -157 -357 -301 -467 -17 -14 -38 -31 -45 -37 -8 -7 -16
-13 -19 -13 -3 0 -28 -14 -56 -31 -28 -17 -56 -32 -63 -33 -6 -1 -28 -9 -47
-18 -105 -45 -311 -66 -451 -45 -105 15 -250 75 -354 147 -74 51 -182 165
-233 245 -25 41 -81 163 -93 206 -13 47 -14 49 -27 121 -12 64 -7 270 8 308 1
3 2 8 1 12 0 4 8 34 19 67 44 137 121 263 222 362 55 53 159 129 177 129 6 0
11 3 11 8 0 20 191 86 285 98 28 3 51 7 52 8 7 7 171 -1 182 -9z"/>
<path d="M3340 6863 c-69 -7 -145 -17 -170 -23 -44 -9 -72 -15 -135 -26 -31
-6 -248 -70 -275 -81 -8 -3 -17 -7 -20 -8 -25 -8 -68 -27 -82 -35 -10 -6 -23
-10 -28 -10 -17 0 -219 -103 -307 -156 -90 -55 -204 -134 -256 -179 -7 -5 -34
-28 -61 -49 -62 -50 -207 -195 -266 -265 -25 -29 -50 -59 -55 -65 -30 -32
-112 -149 -162 -230 -53 -85 -172 -313 -177 -339 -2 -7 -7 -23 -13 -37 -37
-90 -83 -237 -99 -313 -20 -95 -26 -126 -29 -152 -3 -16 -7 -40 -9 -53 -20
-96 -26 -525 -6 -506 3 3 5 9 6 12 0 10 17 126 19 132 3 13 17 90 16 92 -1 2
10 44 24 93 14 50 28 100 31 112 6 31 87 247 115 308 12 28 23 52 23 55 4 21
108 196 172 291 123 181 218 289 399 454 79 72 274 215 294 215 6 0 11 3 11 8
0 4 9 12 19 17 11 6 69 36 128 67 190 99 434 185 608 214 17 3 53 9 80 14 97
18 182 24 350 24 270 0 367 -14 660 -94 150 -40 392 -158 575 -278 196 -129
383 -308 543 -522 133 -178 301 -519 333 -676 1 -6 9 -36 17 -65 15 -54 32
-132 42 -199 3 -19 8 -47 11 -61 16 -78 22 -360 10 -479 -12 -128 -14 -145
-30 -226 -24 -121 -54 -238 -81 -314 -9 -25 -18 -52 -20 -61 -6 -29 -114 -261
-145 -310 -16 -27 -30 -52 -30 -54 0 -8 -136 -209 -152 -226 -8 -8 -27 -32
-43 -54 -158 -213 -482 -475 -763 -618 -109 -56 -301 -135 -382 -158 -25 -7
-49 -14 -55 -16 -29 -9 -225 -53 -260 -58 -22 -4 -53 -9 -70 -12 -16 -3 -40
-6 -52 -6 -13 -1 -19 -5 -15 -9 12 -12 286 -14 387 -4 140 15 131 13 275 42
122 25 364 101 395 124 6 4 25 11 43 15 17 3 32 10 32 13 0 4 21 16 48 26 85
35 327 182 407 248 6 5 20 16 31 26 155 125 297 267 399 402 27 36 52 67 55
70 30 27 194 305 235 400 11 25 23 48 28 51 5 3 8 8 7 10 -1 4 13 46 27 79 3
8 7 17 8 20 1 3 5 12 8 20 33 79 102 324 112 395 2 11 6 35 9 53 19 103 24
147 32 267 8 127 3 332 -11 435 -25 188 -46 290 -92 440 -63 208 -187 481
-283 621 -22 32 -40 61 -40 64 0 3 -4 11 -10 18 -5 7 -53 66 -106 132 -105
132 -227 263 -318 340 -33 28 -64 55 -70 60 -6 6 -29 23 -51 39 -22 17 -42 32
-45 35 -11 13 -184 126 -210 138 -8 3 -17 9 -20 13 -10 13 -217 113 -320 155
-99 40 -248 91 -287 98 -10 2 -25 7 -33 10 -16 6 -96 24 -145 32 -16 3 -41 7
-55 9 -175 32 -476 40 -680 19z"/>
</g>
</svg>
