<?xml version="1.0" encoding="utf-8"?>
<svg id="Ebene_1" style="enable-background:new 0 0 566.9 566.9;" x="0px" y="0px" viewBox="207 177 163 215" xmlns="http://www.w3.org/2000/svg">
  <style type="text/css">
	.st0{fill:none;stroke:#575756;stroke-width:16;stroke-miterlimit:10;}
	.st1{fill:#E95A0F;}
	.st2{fill:#575756;}
</style>
  <circle class="st0" cx="269.6" cy="284.4" r="29.6"/>
  <g>
    <path class="st1" d="M210.7,284.4c-1.3-11.6,1.3-23.9,7.5-34.4c6.1-10.5,15.7-19.2,27.1-24.4c11.4-5.2,24.5-6.8,36.9-4.6&#10;&#9;&#9;c6.2,1.1,12.3,3.3,18,6.2c2.8,1.5,5.5,3.2,8.1,5.1c2.6,1.9,5,4,7.2,6.2c2.2,2.3,4.3,4.7,6.2,7.2c1.9,2.6,3.6,5.3,5.1,8.1&#10;&#9;&#9;c2.9,5.7,5.1,11.7,6.2,18c2.3,12.5,0.7,25.6-4.6,36.9c-5.2,11.4-13.9,21-24.4,27.1c-10.5,6.1-22.8,8.8-34.4,7.5&#10;&#9;&#9;c5.8-0.7,11.4-2,16.6-4.1c5.2-2.1,10.1-4.9,14.5-8.3c8.7-6.7,15.3-15.8,19-25.8c1.8-5,2.9-10.2,3.3-15.5c0.2-2.6,0.1-5.3,0-7.9&#10;&#9;&#9;c-0.2-2.6-0.6-5.2-1.1-7.8c-0.6-2.5-1.3-5.1-2.2-7.5c-0.9-2.4-2-4.8-3.3-7.1c-1.3-2.3-2.6-4.5-4.2-6.6c-1.6-2.1-3.3-4-5.1-5.9&#10;&#9;&#9;c-1.8-1.8-3.8-3.5-5.9-5.1c-2.1-1.6-4.3-2.9-6.6-4.2c-2.3-1.3-4.7-2.3-7.1-3.3c-2.4-0.9-5-1.6-7.5-2.2c-2.6-0.6-5.2-0.9-7.8-1.1&#10;&#9;&#9;c-2.6-0.2-5.3-0.2-7.9,0c-5.3,0.4-10.5,1.5-15.5,3.3c-10,3.6-19.1,10.3-25.8,19c-1.7,2.2-3.2,4.5-4.6,6.9c-1.4,2.4-2.6,5-3.6,7.6&#10;&#9;&#9;C212.7,273,211.4,278.6,210.7,284.4z"/>
  </g>
  <g>
    <path class="st2" d="M264.8,182.6c14.2-0.3,28.6,2.5,41.8,8.3c13.2,5.7,25.1,14.4,34.8,25.2c4.8,5.4,9.1,11.3,12.7,17.7&#10;&#9;&#9;c3.6,6.3,6.5,13.1,8.6,20.1c4.3,14,5.5,28.9,3.6,43.5c-1.9,14.6-7.1,28.9-15.1,41.4c-7.9,12.6-18.7,23.4-31.3,31.6&#10;&#9;&#9;c-12.5,8.2-27,13.6-42,15.8c-0.9,0.1-1.9,0.3-2.8,0.4l-2.8,0.3c-1.9,0.2-3.8,0.3-5.7,0.4c-3.8,0.2-7.6,0.1-11.4-0.2&#10;&#9;&#9;c-7.6-0.5-15.1-1.9-22.4-4l4.8-15.3c6.1,2.1,12.5,3.5,19,4.2c3.2,0.4,6.5,0.6,9.8,0.5c1.6,0,3.3,0,4.9-0.1l2.4-0.1&#10;&#9;&#9;c0.8,0,1.6-0.2,2.4-0.2c13-1.3,25.8-5.4,37.2-12.2c11.3-6.8,21.4-15.9,28.9-26.9c7.6-11,12.8-23.6,15.2-36.9&#10;&#9;&#9;c2.3-13.3,1.8-27.1-1.7-40.3c-1.7-6.6-4.2-13-7.2-19.1c-3.1-6.1-6.9-11.8-11.3-17.1c-8.7-10.6-19.7-19.4-32.2-25.4&#10;&#9;&#9;c-12.4-6.1-26.3-9.4-40.3-9.7V182.6z"/>
  </g>
  <path class="st0" d="M240,284.4v98.2V284.4z"/>
  <g/>
  <g/>
  <g/>
  <g/>
  <g/>
  <g/>
  <g/>
  <g/>
  <g/>
  <g/>
  <g/>
  <g/>
  <g/>
  <g/>
  <g/>
</svg>
