<svg id="Ebene_1" viewBox="0 178 550 214" xmlns="http://www.w3.org/2000/svg"><style>.st0,.st1{fill:#fff}.st2{fill:none;stroke:#fff;stroke-width:16;stroke-miterlimit:10}</style><path class="st0" d="M208.1 259.6c0 3.9-3 7.1-7.7 7.1-4.5 0-7.5-3.2-7.4-7.1-.1-4.1 2.9-7.2 7.5-7.2s7.5 3.1 7.6 7.2zm-14.7 58.8v-46h14.3v46h-14.3zM264.5 294.9c0 16.8-11.9 24.5-24.3 24.5-13.4 0-23.8-8.8-23.8-23.7 0-14.9 9.8-24.3 24.5-24.3 14.2 0 23.6 9.7 23.6 23.5zm-33.2.4c0 7.9 3.3 13.8 9.4 13.8 5.5 0 9.1-5.5 9.1-13.8 0-6.9-2.6-13.8-9.1-13.8-6.9 0-9.4 7.1-9.4 13.8zM273.4 287.1c0-5.7-.2-10.6-.4-14.7h12.4l.7 6.3h.3c1.9-2.9 6.6-7.3 14.2-7.3 9.4 0 16.4 6.2 16.4 19.7v27.3h-14.3v-25.5c0-5.9-2.1-10-7.2-10-3.9 0-6.3 2.7-7.2 5.4-.4.8-.6 2.3-.6 3.6v26.5h-14.3v-31.3zM339.4 299.9c.5 5.9 6.3 8.7 13 8.7 4.9 0 8.8-.7 12.7-1.9l1.9 9.7c-4.7 1.9-10.4 2.8-16.6 2.8-15.6 0-24.5-9-24.5-23.4 0-11.7 7.2-24.5 23.2-24.5 14.8 0 20.5 11.6 20.5 22.9 0 2.4-.3 4.6-.5 5.6h-29.7zm16.9-9.7c0-3.5-1.5-9.3-8.1-9.3-6 0-8.5 5.5-8.8 9.3h16.9zM389.1 299.9c.5 5.9 6.3 8.7 13 8.7 4.9 0 8.8-.7 12.7-1.9l1.9 9.7c-4.7 1.9-10.4 2.8-16.6 2.8-15.6 0-24.5-9-24.5-23.4 0-11.7 7.2-24.5 23.2-24.5 14.9 0 20.5 11.6 20.5 22.9 0 2.4-.3 4.6-.5 5.6h-29.7zm16.8-9.7c0-3.5-1.5-9.3-8.1-9.3-6 0-8.5 5.5-8.8 9.3h16.9zM427.7 287.5c0-6.8-.2-11.2-.4-15.1h12.3l.5 8.5h.4c2.3-6.7 8-9.5 12.4-9.5 1.3 0 2 0 3 .2V285c-1-.2-2.3-.4-3.9-.4-5.3 0-8.8 2.8-9.8 7.2-.2.9-.3 2.1-.3 3.2v23.3h-14.3v-30.8zM463.3 305.9c2.6 1.6 8.1 3.5 12.3 3.5 4.3 0 6.1-1.5 6.1-3.9s-1.4-3.5-6.8-5.3c-9.5-3.2-13.2-8.4-13.1-13.8 0-8.6 7.3-15 18.7-15 5.4 0 10.2 1.2 13 2.6l-2.5 9.9c-2.1-1.1-6-2.6-10-2.6-3.5 0-5.5 1.4-5.5 3.8 0 2.2 1.8 3.3 7.4 5.3 8.7 3 12.4 7.4 12.5 14.2 0 8.6-6.8 14.9-19.9 14.9-6 0-11.4-1.3-14.9-3.2l2.7-10.4z"/><path class="st1" d="M196.1 353.4c-1.1.6-3.6 1.3-6.7 1.3-7 0-11.6-4.8-11.6-11.9 0-7.2 4.9-12.3 12.5-12.3 2.5 0 4.7.6 5.9 1.2l-1 3.3c-1-.6-2.6-1.1-4.9-1.1-5.3 0-8.2 3.9-8.2 8.8 0 5.4 3.5 8.7 8.1 8.7 2.4 0 4-.6 5.2-1.2l.7 3.2zM201 338.3c0-2.7 0-5.1-.2-7.2h3.7l.1 4.6h.2c1.1-3.1 3.6-5.1 6.4-5.1.5 0 .8 0 1.2.1v4c-.4-.1-.9-.1-1.4-.1-3 0-5.1 2.3-5.7 5.4-.1.6-.2 1.2-.2 2v12.4H201v-16.1zM218.6 343.4c.1 5.7 3.7 8.1 8 8.1 3 0 4.8-.5 6.4-1.2l.7 3c-1.5.7-4 1.4-7.7 1.4-7.2 0-11.4-4.7-11.4-11.7 0-7 4.1-12.5 10.9-12.5 7.6 0 9.6 6.7 9.6 10.9 0 .9-.1 1.5-.1 2h-16.4zm12.4-3c0-2.7-1.1-6.9-5.9-6.9-4.3 0-6.1 3.9-6.5 6.9H231zM253.1 354.3l-.3-2.9h-.1c-1.3 1.8-3.8 3.5-7.1 3.5-4.7 0-7.1-3.3-7.1-6.7 0-5.6 5-8.7 14-8.6v-.6c0-1.9-.5-5.4-5.3-5.4-2.2 0-4.4.7-6 1.7l-1-2.8c1.9-1.2 4.7-2.1 7.6-2.1 7.1 0 8.8 4.8 8.8 9.5v8.7c0 2 .1 4 .4 5.6h-3.9zm-.6-11.9c-4.6-.1-9.8.7-9.8 5.2 0 2.7 1.8 4 4 4 3 0 4.9-1.9 5.6-3.9.1-.4.2-.9.2-1.3v-4zM268.3 324.4v6.7h6v3.2h-6v12.5c0 2.9.8 4.5 3.2 4.5 1.1 0 1.9-.1 2.4-.3l.2 3.2c-.8.3-2.1.6-3.7.6-2 0-3.6-.6-4.6-1.8-1.2-1.2-1.6-3.3-1.6-6v-12.7h-3.6V331h3.6v-5.6l4.1-1zM283.8 324.5c0 1.4-1 2.6-2.7 2.6-1.5 0-2.5-1.2-2.5-2.6 0-1.5 1.1-2.6 2.6-2.6 1.6 0 2.6 1.1 2.6 2.6zm-4.7 29.8V331h4.2v23.2h-4.2zM290.3 337.3c0-2.4 0-4.4-.2-6.3h3.7l.2 3.8h.1c1.2-2.2 3.8-4.4 7.7-4.4 3.2 0 8.2 1.9 8.2 9.9v13.9h-4.2v-13.4c0-3.7-1.4-6.9-5.4-6.9-2.8 0-4.9 2-5.7 4.3-.2.5-.3 1.2-.3 2v14h-4.2v-16.9zM337 331c-.1 1.7-.2 3.6-.2 6.4v13.5c0 5.3-1.1 8.6-3.3 10.6-2.3 2.1-5.5 2.8-8.4 2.8-2.8 0-5.9-.7-7.7-1.9l1.1-3.2c1.5 1 3.9 1.8 6.8 1.8 4.3 0 7.5-2.3 7.5-8.1v-2.6h-.1c-1.3 2.2-3.8 3.9-7.4 3.9-5.8 0-9.9-4.9-9.9-11.3 0-7.9 5.1-12.3 10.5-12.3 4 0 6.2 2.1 7.2 4h.1l.2-3.5h3.6zm-4.4 9.2c0-.7 0-1.3-.2-1.9-.8-2.4-2.8-4.5-5.9-4.5-4 0-6.9 3.4-6.9 8.8 0 4.6 2.3 8.4 6.9 8.4 2.6 0 4.9-1.6 5.9-4.3.2-.7.3-1.5.3-2.3v-4.2zM354 337.3c0-2.4 0-4.4-.2-6.3h3.7l.2 3.8h.1c1.2-2.2 3.8-4.4 7.7-4.4 3.2 0 8.2 1.9 8.2 9.9v13.9h-4.2v-13.4c0-3.7-1.4-6.9-5.4-6.9-2.8 0-4.9 2-5.7 4.3-.2.5-.3 1.2-.3 2v14H354v-16.9zM383 343.4c.1 5.7 3.7 8.1 8 8.1 3 0 4.8-.5 6.4-1.2l.7 3c-1.5.7-4 1.4-7.7 1.4-7.2 0-11.4-4.7-11.4-11.7 0-7 4.1-12.5 10.9-12.5 7.6 0 9.6 6.7 9.6 10.9 0 .9-.1 1.5-.1 2H383zm12.4-3c0-2.7-1.1-6.9-5.9-6.9-4.3 0-6.1 3.9-6.5 6.9h12.4zM406.4 331l3.1 11.8c.7 2.6 1.3 5 1.7 7.4h.1c.5-2.4 1.3-4.8 2.1-7.3l3.8-11.9h3.6l3.6 11.6c.9 2.8 1.5 5.2 2.1 7.6h.1c.4-2.4 1-4.8 1.8-7.5l3.3-11.7h4.2l-7.5 23.2h-3.8l-3.6-11.1c-.8-2.6-1.5-4.9-2.1-7.6h-.1c-.6 2.8-1.3 5.2-2.1 7.7l-3.7 11h-4l-7-23.2h4.4zM451.9 331l3.1 11.8c.7 2.6 1.3 5 1.7 7.4h.1c.5-2.4 1.3-4.8 2.1-7.3l3.8-11.9h3.6l3.6 11.6c.9 2.8 1.5 5.2 2.1 7.6h.1c.4-2.4 1-4.8 1.8-7.5l3.3-11.7h4.2l-7.5 23.2H470l-3.6-11.1c-.8-2.6-1.5-4.9-2.1-7.6h-.1c-.6 2.8-1.3 5.2-2.1 7.7l-3.7 11h-3.8l-7-23.2h4.3zM498.2 354.3l-.3-2.9h-.1c-1.3 1.8-3.8 3.5-7.1 3.5-4.7 0-7.1-3.3-7.1-6.7 0-5.6 5-8.7 14-8.6v-.6c0-1.9-.5-5.4-5.3-5.4-2.2 0-4.4.7-6 1.7l-1-2.8c1.9-1.2 4.7-2.1 7.6-2.1 7.1 0 8.8 4.8 8.8 9.5v8.7c0 2 .1 4 .4 5.6h-3.9zm-.6-11.9c-4.6-.1-9.8.7-9.8 5.2 0 2.7 1.8 4 4 4 3 0 4.9-1.9 5.6-3.9.1-.4.2-.9.2-1.3v-4zM509.6 331l5.1 13.7c.5 1.5 1.1 3.4 1.5 4.8h.1c.4-1.4.9-3.2 1.5-4.8l4.6-13.6h4.5l-6.3 16.6c-3 8-5.1 12-8 14.5-2.1 1.8-4.1 2.5-5.2 2.7l-1.1-3.6c1.1-.3 2.4-1 3.7-2.1 1.2-.9 2.6-2.5 3.6-4.7.2-.4.3-.8.3-1s-.1-.6-.3-1.1L505 331h4.6zM529.8 350c1.2.8 3.5 1.7 5.6 1.7 3.1 0 4.5-1.5 4.5-3.5s-1.2-3.1-4.3-4.3c-4.2-1.5-6.1-3.8-6.1-6.6 0-3.7 3-6.8 8-6.8 2.4 0 4.4.7 5.7 1.4l-1.1 3.1c-.9-.6-2.6-1.3-4.8-1.3-2.5 0-3.9 1.4-3.9 3.2 0 1.9 1.4 2.8 4.4 3.9 4 1.5 6.1 3.6 6.1 7 0 4.1-3.2 7-8.7 7-2.5 0-4.9-.6-6.5-1.6l1.1-3.2z"/><circle class="st2" cx="82.6" cy="284.4" r="29.6"/><g><path class="st1" d="M23.7 284.4c-1.3-11.6 1.3-23.9 7.5-34.4 6.1-10.5 15.7-19.2 27.1-24.4 11.4-5.2 24.5-6.8 36.9-4.6 6.2 1.1 12.3 3.3 18 6.2 2.8 1.5 5.5 3.2 8.1 5.1 2.6 1.9 5 4 7.2 6.2 2.2 2.3 4.3 4.7 6.2 7.2 1.9 2.6 3.6 5.3 5.1 8.1 2.9 5.7 5.1 11.7 6.2 18 2.3 12.5.7 25.6-4.6 36.9-5.2 11.4-13.9 21-24.4 27.1-10.5 6.1-22.8 8.8-34.4 7.5 5.8-.7 11.4-2 16.6-4.1 5.2-2.1 10.1-4.9 14.5-8.3 8.7-6.7 15.3-15.8 19-25.8 1.8-5 2.9-10.2 3.3-15.5.2-2.6.1-5.3 0-7.9-.2-2.6-.6-5.2-1.1-7.8-.6-2.5-1.3-5.1-2.2-7.5-.9-2.4-2-4.8-3.3-7.1-1.3-2.3-2.6-4.5-4.2-6.6-1.6-2.1-3.3-4-5.1-5.9-1.8-1.8-3.8-3.5-5.9-5.1-2.1-1.6-4.3-2.9-6.6-4.2-2.3-1.3-4.7-2.3-7.1-3.3-2.4-.9-5-1.6-7.5-2.2-2.6-.6-5.2-.9-7.8-1.1-2.6-.2-5.3-.2-7.9 0-5.3.4-10.5 1.5-15.5 3.3-10 3.6-19.1 10.3-25.8 19-1.7 2.2-3.2 4.5-4.6 6.9-1.4 2.4-2.6 5-3.6 7.6-2.1 5.3-3.4 10.9-4.1 16.7z"/></g><g><path class="st0" d="M77.8 182.6c14.2-.3 28.6 2.5 41.8 8.3 13.2 5.7 25.1 14.4 34.8 25.2 4.8 5.4 9.1 11.3 12.7 17.7 3.6 6.3 6.5 13.1 8.6 20.1 4.3 14 5.5 28.9 3.6 43.5-1.9 14.6-7.1 28.9-15.1 41.4-7.9 12.6-18.7 23.4-31.3 31.6-12.5 8.2-27 13.6-42 15.8-.9.1-1.9.3-2.8.4l-2.8.3c-1.9.2-3.8.3-5.7.4-3.8.2-7.6.1-11.4-.2-7.6-.5-15.1-1.9-22.4-4l4.8-15.3c6.1 2.1 12.5 3.5 19 4.2 3.2.4 6.5.6 9.8.5 1.6 0 3.3 0 4.9-.1l2.4-.1c.8 0 1.6-.2 2.4-.2 13-1.3 25.8-5.4 37.2-12.2 11.3-6.8 21.4-15.9 28.9-26.9 7.6-11 12.8-23.6 15.2-36.9 2.3-13.3 1.8-27.1-1.7-40.3-1.7-6.6-4.2-13-7.2-19.1-3.1-6.1-6.9-11.8-11.3-17.1-8.7-10.6-19.7-19.4-32.2-25.4-12.4-6.1-26.3-9.4-40.3-9.7v-1.9z"/></g><path class="st2" d="M53 284.4v98.2-98.2z"/></svg>