<svg width="216" height="216" viewBox="0 0 216 216" xmlns="http://www.w3.org/2000/svg" style="margin-left:auto;margin-right:auto" display="block"><defs><style>.g1_1{fill:#ea5b10}</style></defs><path d="M0 0v216h216V0z" fill="transparent"/><path d="M89.5 101c.4-.2.9-.4 1.3-.7.1.6.3 1.1.8 1.5.6.5 2.2.2 5.1-1.7.1.4.4.8.8 1.2.9.8 4.2-.4 11.1-6.7l7.4-4.5 5.2-1.1c-.6-.1-1.1-.2-1.7-.3-.8-.1-1.5-.3-2.3-.4-6.5-1-13-1.1-13.7-.5-5.2 4.6-13 10.3-20.3 11.3-.1.8.1 1.5.8 2.2.9.8 3.5.6 5.5-.3z" class="g1_1"/><path d="M124.2 113.9c-2 .6-5.8 1.5-7.4-.7-2.3-3.2 4.2-6.2 5.3-6.4 0 0 3.9-.1 3.5 5.3-.1.8-.6 1.5-1.4 1.8m79.1-38.7c-4.9 1.7-12.1 3.6-12.1 3.6-13-1.7-35.6-10.2-35.6-10.2-7.2-2.1-19.5 0-31.6 1.6l-26.3 7.5c-3.8 3.4-7.6 6.5-10.5 9.1h-.1c-.8.6-3.9 3.5-5 5.7v.2c-.7 1.4-.7 2.6.3 3.5.4.4 1.1.5 1.8.5 1.2.1 2.6-.2 3.8-.8 2.7-1.2 8-3.9 15.7-10.4l24.9.8 1.9.1c2.8 1.4 11.4 2.2 17 5.6 2.2 1.3 4 3 4.7 5.4.1.1.6 2.5-11.5 3.1-5.3.2-15.2 1.6-18.4 3.1-10.6 5.1-8.2 9.7-6 11.9 1 .8 3.3 1 3.9.9 11-2.2 14.7-4.1 22.7-5 4.3-.5 17.4.4 21.7.1 5.3-.3 7.7-1.8 12.6-4.1 5.2-2.4 10.2-5.1 15.9-6.2 2.9-.5 16.2-3.8 16.2-3.8 0-.1-6-22.2-6-22.2zM103.6 134.5c.7.1 1.5.2 2.2.4 1.6.2 3.2.5 4.8.5 4.2.2 7.5 0 11.7.1 5.2-4.8 15.8-12.6 22-11.7.5-1.3.4-2.4-.6-3.3-1-1-3.8-.7-6 .3-.4.2-.9.4-1.4.7-.1-.6-.4-1.2-.9-1.7-.7-.5-2.4-.2-5.6 2-.1-.5-.3-1-.8-1.4-1-.8-4.6.4-12.1 7.3l-8.1 4.9-7.1 1.5c.6.1 1.3.2 1.9.4z" class="g1_1"/><path d="M99.8 106.6c2.1-.7 6.4-1.7 8.1.7 2.5 3.6-4.5 6.8-5.7 7 0 0-4.3.1-3.8-5.9.1-.8.6-1.5 1.4-1.8m43.7 18.8c-1.3 0-2.8.3-4.2.9-2.9 1.3-8.6 4.3-17 11.3l-27.2-.9h-2c-3.1-1.5-12.5-2.4-18.6-6.1-2.4-1.5-4.3-3.3-5.1-5.9-.1-.2-.7-2.8 12.5-3.4 5.8-.2 16.6-1.8 20-3.4 11.6-5.6 9-10.5 6.6-12.9-1-1-3.6-1.2-4.3-1-11.9 2.4-16 4.4-24.7 5.4-4.7.6-19-.4-23.7-.1-5.7.3-8.3 1.9-13.7 4.4-5.6 2.7-11.1 5.7-17.3 6.8-3.4.6-9.2 1.7-14.9 2.7l4.3 24.3c7-2.3 12.7-2.6 12.7-2.6 14.2 1.9 38.8 11.2 38.8 11.2 7.8 2.3 21.2 0 34.5-1.8l28.5-8.2c4.3-3.7 8.3-7 11.5-9.9h.1c.9-.6 4.3-3.8 5.4-6.2.1-.1.1-.1.1-.2.7-1.5.7-2.8-.4-3.8-.4-.4-1.1-.6-1.9-.6z" class="g1_1"/></svg>
