<?xml version="1.0" encoding="UTF-8" standalone="no"?>
<!DOCTYPE svg PUBLIC "-//W3C//DTD SVG 1.1//EN"
"http://www.w3.org/Graphics/SVG/1.1/DTD/svg11.dtd">


<!-- Page 1 -->
<svg x="0" y="0" width="216" height="216" viewBox="0 0 216 216" version="1.1" xmlns="http://www.w3.org/2000/svg" xmlns:xlink="http://www.w3.org/1999/xlink"
style="display: block;margin-left: auto;margin-right: auto;">
<defs>

<style type="text/css"><![CDATA[

.g1_1{
fill: #EA5B10;
}


]]></style>

</defs>
<path d="M0,0
L0,216
L216,216
L216,0 Z " 
fill="#FFFFFF" stroke="none" />
<path d="M89.5,101c0.4,-0.2,0.9,-0.4,1.3,-0.7c0.1,0.6,0.3,1.1,0.8,1.5c0.6,0.5,2.2,0.2,5.1,-1.7c0.1,0.4,0.4,0.8,0.8,1.2c0.9,0.8,4.2,-0.4,11.1,-6.7L116,90.1L121.2,89c-0.6,-0.1,-1.1,-0.2,-1.7,-0.3c-0.8,-0.1,-1.5,-0.3,-2.3,-0.4c-6.5,-1,-13,-1.1,-13.7,-0.5c-5.2,4.6,-13,10.3,-20.3,11.3c-0.1,0.8,0.1,1.5,0.8,2.2c0.9,0.8,3.5,0.6,5.5,-0.3Z" class="g1_1" />
<path d="M124.2,113.9c-2,0.6,-5.8,1.5,-7.4,-0.7c-2.3,-3.2,4.2,-6.2,5.3,-6.4c0,0,3.9,-0.1,3.5,5.3c-0.1,0.8,-0.6,1.5,-1.4,1.8M203.3,75.2c-4.9,1.7,-12.1,3.6,-12.1,3.6C178.2,77.1,155.6,68.6,155.6,68.6c-7.2,-2.1,-19.5,0,-31.6,1.6L97.7,77.7c-3.8,3.4,-7.6,6.5,-10.5,9.1c0,0,-0.1,0,-0.1,0c-0.8,0.6,-3.9,3.5,-5,5.7c0,0.1,0,0.1,0,0.2c-0.7,1.4,-0.7,2.6,0.3,3.5c0.4,0.4,1.1,0.5,1.8,0.5c1.2,0.1,2.6,-0.2,3.8,-0.8C90.7,94.7,96,92,103.7,85.5l24.9,0.8l1.9,0.1c2.8,1.4,11.4,2.2,17,5.6c2.2,1.3,4,3,4.7,5.4c0.1,0.1,0.6,2.5,-11.5,3.1c-5.3,0.2,-15.2,1.6,-18.4,3.1c-10.6,5.1,-8.2,9.7,-6,11.9c1,0.8,3.3,1,3.9,0.9c11,-2.2,14.7,-4.1,22.7,-5c4.3,-0.5,17.4,0.4,21.7,0.1c5.3,-0.3,7.7,-1.8,12.6,-4.1c5.2,-2.4,10.2,-5.1,15.9,-6.2c2.9,-0.5,16.2,-3.8,16.2,-3.8c0,-0.1,-6,-22.2,-6,-22.2Z" class="g1_1" />
<path d="M103.6,134.5c0.7,0.1,1.5,0.2,2.2,0.4c1.6,0.2,3.2,0.5,4.8,0.5c4.2,0.2,7.5,0,11.7,0.1c5.2,-4.8,15.8,-12.6,22,-11.7c0.5,-1.3,0.4,-2.4,-0.6,-3.3c-1,-1,-3.8,-0.7,-6,0.3c-0.4,0.2,-0.9,0.4,-1.4,0.7c-0.1,-0.6,-0.4,-1.2,-0.9,-1.7c-0.7,-0.5,-2.4,-0.2,-5.6,2c-0.1,-0.5,-0.3,-1,-0.8,-1.4c-1,-0.8,-4.6,0.4,-12.1,7.3l-8.1,4.9l-7.1,1.5c0.6,0.1,1.3,0.2,1.9,0.4Z" class="g1_1" />
<path d="M99.8,106.6c2.1,-0.7,6.4,-1.7,8.1,0.7c2.5,3.6,-4.5,6.8,-5.7,7c0,0,-4.3,0.1,-3.8,-5.9c0.1,-0.8,0.6,-1.5,1.4,-1.8m43.7,18.8c-1.3,0,-2.8,0.3,-4.2,0.9c-2.9,1.3,-8.6,4.3,-17,11.3L95.1,136.7l-2,0C90,135.2,80.6,134.3,74.5,130.6c-2.4,-1.5,-4.3,-3.3,-5.1,-5.9c-0.1,-0.2,-0.7,-2.8,12.5,-3.4c5.8,-0.2,16.6,-1.8,20,-3.4c11.6,-5.6,9,-10.5,6.6,-12.9c-1,-1,-3.6,-1.2,-4.3,-1c-11.9,2.4,-16,4.4,-24.7,5.4C74.8,110,60.5,109,55.8,109.3c-5.7,0.3,-8.3,1.9,-13.7,4.4c-5.6,2.7,-11.1,5.7,-17.3,6.8c-3.4,0.6,-9.2,1.7,-14.9,2.7l4.3,24.3c7,-2.3,12.7,-2.6,12.7,-2.6c14.2,1.9,38.8,11.2,38.8,11.2c7.8,2.3,21.2,0,34.5,-1.8l28.5,-8.2c4.3,-3.7,8.3,-7,11.5,-9.9c0.1,0,0.1,0,0.1,0c0.9,-0.6,4.3,-3.8,5.4,-6.2c0.1,-0.1,0.1,-0.1,0.1,-0.2c0.7,-1.5,0.7,-2.8,-0.4,-3.8c-0.4,-0.4,-1.1,-0.6,-1.9,-0.6Z" class="g1_1" />

</svg>
